<?xml version="1.0" encoding="UTF-8" standalone="no"?>
<!DOCTYPE svg PUBLIC "-//W3C//DTD SVG 1.1//EN"
 "http://www.w3.org/Graphics/SVG/1.1/DTD/svg11.dtd">
<!-- Generated by graphviz version 2.44.1 (20200629.0846)
 -->
<!-- Title: G Pages: 1 -->
<svg width="435pt" height="207pt"
 viewBox="0.00 0.00 435.00 207.00" xmlns="http://www.w3.org/2000/svg" xmlns:xlink="http://www.w3.org/1999/xlink">
<g id="graph0" class="graph" transform="scale(1 1) rotate(0) translate(4 203)">
<title>G</title>
<polygon fill="white" stroke="transparent" points="-4,4 -4,-203 431,-203 431,4 -4,4"/>
<g id="clust1" class="cluster">
<title>cluster4045814576</title>
<path fill="none" stroke="#8b7d6b" stroke-width="2" d="M20,-8C20,-8 407,-8 407,-8 413,-8 419,-14 419,-20 419,-20 419,-179 419,-179 419,-185 413,-191 407,-191 407,-191 20,-191 20,-191 14,-191 8,-185 8,-179 8,-179 8,-20 8,-20 8,-14 14,-8 20,-8"/>
<text text-anchor="start" x="203" y="-176.8" font-family="Helvetica,sans-Serif" font-weight="bold" font-size="14.00">src</text>
</g>
<!-- src/doc.ts -->
<g id="node1" class="node">
<title>src/doc.ts</title>
<path fill="#79cdcd" stroke="#79cdcd" d="M394,-160C394,-160 364,-160 364,-160 358,-160 352,-154 352,-148 352,-148 352,-136 352,-136 352,-130 358,-124 364,-124 364,-124 394,-124 394,-124 400,-124 406,-130 406,-136 406,-136 406,-148 406,-148 406,-154 400,-160 394,-160"/>
<text text-anchor="middle" x="379" y="-138.3" font-family="Helvetica,sans-Serif" font-size="14.00">doc.ts</text>
</g>
<!-- src/follower.ts -->
<g id="node2" class="node">
<title>src/follower.ts</title>
<path fill="#79cdcd" stroke="#79cdcd" d="M238.5,-52C238.5,-52 185.5,-52 185.5,-52 179.5,-52 173.5,-46 173.5,-40 173.5,-40 173.5,-28 173.5,-28 173.5,-22 179.5,-16 185.5,-16 185.5,-16 238.5,-16 238.5,-16 244.5,-16 250.5,-22 250.5,-28 250.5,-28 250.5,-40 250.5,-40 250.5,-46 244.5,-52 238.5,-52"/>
<text text-anchor="middle" x="212" y="-30.3" font-family="Helvetica,sans-Serif" font-size="14.00">follower.ts</text>
</g>
<!-- src/lock.ts -->
<g id="node3" class="node">
<title>src/lock.ts</title>
<path fill="#79cdcd" stroke="#79cdcd" d="M394.5,-52C394.5,-52 363.5,-52 363.5,-52 357.5,-52 351.5,-46 351.5,-40 351.5,-40 351.5,-28 351.5,-28 351.5,-22 357.5,-16 363.5,-16 363.5,-16 394.5,-16 394.5,-16 400.5,-16 406.5,-22 406.5,-28 406.5,-28 406.5,-40 406.5,-40 406.5,-46 400.5,-52 394.5,-52"/>
<text text-anchor="middle" x="379" y="-30.3" font-family="Helvetica,sans-Serif" font-size="14.00">lock.ts</text>
</g>
<!-- src/main.ts -->
<g id="node4" class="node">
<title>src/main.ts</title>
<path fill="#79cdcd" stroke="#79cdcd" d="M65,-106C65,-106 28,-106 28,-106 22,-106 16,-100 16,-94 16,-94 16,-82 16,-82 16,-76 22,-70 28,-70 28,-70 65,-70 65,-70 71,-70 77,-76 77,-82 77,-82 77,-94 77,-94 77,-100 71,-106 65,-106"/>
<text text-anchor="middle" x="46.5" y="-84.3" font-family="Helvetica,sans-Serif" font-size="14.00">main.ts</text>
</g>
<!-- src/main.ts&#45;&gt;src/follower.ts -->
<g id="edge1" class="edge">
<title>src/main.ts&#45;&gt;src/follower.ts</title>
<path fill="none" stroke="#528b8b" stroke-width="2" d="M77.21,-74.86C88.32,-70.18 101.13,-65.06 113,-61 129.32,-55.41 147.45,-50.16 163.65,-45.79"/>
<polygon fill="#528b8b" stroke="#528b8b" stroke-width="2" points="164.67,-49.14 173.44,-43.2 162.88,-42.38 164.67,-49.14"/>
</g>
<!-- src/storageDriverAsyncMemory.ts -->
<g id="node6" class="node">
<title>src/storageDriverAsyncMemory.ts</title>
<path fill="#79cdcd" stroke="#79cdcd" d="M299,-106C299,-106 125,-106 125,-106 119,-106 113,-100 113,-94 113,-94 113,-82 113,-82 113,-76 119,-70 125,-70 125,-70 299,-70 299,-70 305,-70 311,-76 311,-82 311,-82 311,-94 311,-94 311,-100 305,-106 299,-106"/>
<text text-anchor="middle" x="212" y="-84.3" font-family="Helvetica,sans-Serif" font-size="14.00">storageDriverAsyncMemory.ts</text>
</g>
<!-- src/main.ts&#45;&gt;src/storageDriverAsyncMemory.ts -->
<g id="edge2" class="edge">
<title>src/main.ts&#45;&gt;src/storageDriverAsyncMemory.ts</title>
<path fill="none" stroke="#528b8b" stroke-width="2" d="M77.11,-88C84.75,-88 93.42,-88 102.61,-88"/>
<polygon fill="#528b8b" stroke="#528b8b" stroke-width="2" points="102.74,-91.5 112.74,-88 102.74,-84.5 102.74,-91.5"/>
</g>
<!-- src/storageFrontendAsync.ts -->
<g id="node7" class="node">
<title>src/storageFrontendAsync.ts</title>
<path fill="#79cdcd" stroke="#79cdcd" d="M283.5,-160C283.5,-160 140.5,-160 140.5,-160 134.5,-160 128.5,-154 128.5,-148 128.5,-148 128.5,-136 128.5,-136 128.5,-130 134.5,-124 140.5,-124 140.5,-124 283.5,-124 283.5,-124 289.5,-124 295.5,-130 295.5,-136 295.5,-136 295.5,-148 295.5,-148 295.5,-154 289.5,-160 283.5,-160"/>
<text text-anchor="middle" x="212" y="-138.3" font-family="Helvetica,sans-Serif" font-size="14.00">storageFrontendAsync.ts</text>
</g>
<!-- src/main.ts&#45;&gt;src/storageFrontendAsync.ts -->
<g id="edge3" class="edge">
<title>src/main.ts&#45;&gt;src/storageFrontendAsync.ts</title>
<path fill="none" stroke="#528b8b" stroke-width="2" d="M77.21,-101.14C88.32,-105.82 101.13,-110.94 113,-115 118.97,-117.04 125.19,-119.05 131.46,-120.97"/>
<polygon fill="#528b8b" stroke="#528b8b" stroke-width="2" points="130.76,-124.42 141.35,-123.94 132.77,-117.71 130.76,-124.42"/>
</g>
<!-- src/query.ts -->
<g id="node5" class="node">
<title>src/query.ts</title>
<path fill="#79cdcd" stroke="#79cdcd" d="M399,-106C399,-106 359,-106 359,-106 353,-106 347,-100 347,-94 347,-94 347,-82 347,-82 347,-76 353,-70 359,-70 359,-70 399,-70 399,-70 405,-70 411,-76 411,-82 411,-82 411,-94 411,-94 411,-100 405,-106 399,-106"/>
<text text-anchor="middle" x="379" y="-84.3" font-family="Helvetica,sans-Serif" font-size="14.00">query.ts</text>
</g>
<!-- src/storageDriverAsyncMemory.ts&#45;&gt;src/doc.ts -->
<g id="edge4" class="edge">
<title>src/storageDriverAsyncMemory.ts&#45;&gt;src/doc.ts</title>
<path fill="none" stroke="#528b8b" stroke-width="2" d="M282.37,-106.05C292.04,-108.87 301.8,-111.89 311,-115 321.35,-118.5 332.42,-122.75 342.52,-126.82"/>
<polygon fill="#528b8b" stroke="#528b8b" stroke-width="2" points="341.27,-130.09 351.85,-130.65 343.93,-123.62 341.27,-130.09"/>
</g>
<!-- src/storageDriverAsyncMemory.ts&#45;&gt;src/lock.ts -->
<g id="edge6" class="edge">
<title>src/storageDriverAsyncMemory.ts&#45;&gt;src/lock.ts</title>
<path fill="none" stroke="#528b8b" stroke-width="2" d="M282.37,-69.95C292.04,-67.13 301.8,-64.11 311,-61 321.07,-57.6 331.81,-53.49 341.68,-49.51"/>
<polygon fill="#528b8b" stroke="#528b8b" stroke-width="2" points="343.28,-52.64 351.21,-45.61 340.62,-46.16 343.28,-52.64"/>
</g>
<!-- src/storageDriverAsyncMemory.ts&#45;&gt;src/query.ts -->
<g id="edge5" class="edge">
<title>src/storageDriverAsyncMemory.ts&#45;&gt;src/query.ts</title>
<path fill="none" stroke="#528b8b" stroke-width="2" d="M311.36,-88C320.29,-88 328.96,-88 336.93,-88"/>
<polygon fill="#528b8b" stroke="#528b8b" stroke-width="2" points="336.97,-91.5 346.97,-88 336.97,-84.5 336.97,-91.5"/>
</g>
<!-- src/storageFrontendAsync.ts&#45;&gt;src/doc.ts -->
<g id="edge7" class="edge">
<title>src/storageFrontendAsync.ts&#45;&gt;src/doc.ts</title>
<path fill="none" stroke="#528b8b" stroke-width="2" d="M295.98,-142C311.94,-142 327.87,-142 341.39,-142"/>
<polygon fill="#528b8b" stroke="#528b8b" stroke-width="2" points="341.68,-145.5 351.68,-142 341.68,-138.5 341.68,-145.5"/>
</g>
</g>
</svg>
