<?xml version="1.0" encoding="UTF-8" standalone="no"?>
<!DOCTYPE svg PUBLIC "-//W3C//DTD SVG 1.1//EN"
 "http://www.w3.org/Graphics/SVG/1.1/DTD/svg11.dtd">
<!-- Generated by graphviz version 2.44.1 (20200629.0846)
 -->
<!-- Title: G Pages: 1 -->
<svg width="543pt" height="267pt"
 viewBox="0.00 0.00 543.00 267.00" xmlns="http://www.w3.org/2000/svg" xmlns:xlink="http://www.w3.org/1999/xlink">
<g id="graph0" class="graph" transform="scale(1 1) rotate(0) translate(4 263)">
<title>G</title>
<polygon fill="white" stroke="transparent" points="-4,4 -4,-263 539,-263 539,4 -4,4"/>
<g id="clust1" class="cluster">
<title>cluster8699643930</title>
<path fill="none" stroke="#8b7d6b" stroke-width="2" d="M20,-8C20,-8 515,-8 515,-8 521,-8 527,-14 527,-20 527,-20 527,-239 527,-239 527,-245 521,-251 515,-251 515,-251 20,-251 20,-251 14,-251 8,-245 8,-239 8,-239 8,-20 8,-20 8,-14 14,-8 20,-8"/>
<text text-anchor="start" x="257" y="-236.8" font-family="Helvetica,sans-Serif" font-weight="bold" font-size="14.00">src</text>
</g>
<!-- src/doc.ts -->
<g id="node1" class="node">
<title>src/doc.ts</title>
<path fill="#79cdcd" stroke="#79cdcd" d="M154,-180C154,-180 124,-180 124,-180 118,-180 112,-174 112,-168 112,-168 112,-156 112,-156 112,-150 118,-144 124,-144 124,-144 154,-144 154,-144 160,-144 166,-150 166,-156 166,-156 166,-168 166,-168 166,-174 160,-180 154,-180"/>
<text text-anchor="middle" x="139" y="-158.3" font-family="Helvetica,sans-Serif" font-size="14.00">doc.ts</text>
</g>
<!-- src/utils.ts -->
<g id="node8" class="node">
<title>src/utils.ts</title>
<path fill="#79cdcd" stroke="#79cdcd" d="M59,-153C59,-153 28,-153 28,-153 22,-153 16,-147 16,-141 16,-141 16,-129 16,-129 16,-123 22,-117 28,-117 28,-117 59,-117 59,-117 65,-117 71,-123 71,-129 71,-129 71,-141 71,-141 71,-147 65,-153 59,-153"/>
<text text-anchor="middle" x="43.5" y="-131.3" font-family="Helvetica,sans-Serif" font-size="14.00">utils.ts</text>
</g>
<!-- src/doc.ts&#45;&gt;src/utils.ts -->
<g id="edge1" class="edge">
<title>src/doc.ts&#45;&gt;src/utils.ts</title>
<path fill="none" stroke="#528b8b" stroke-width="2" d="M111.96,-154.48C102.29,-151.69 91.15,-148.47 80.74,-145.46"/>
<polygon fill="#528b8b" stroke="#528b8b" stroke-width="2" points="81.63,-142.08 71.05,-142.67 79.69,-148.81 81.63,-142.08"/>
</g>
<!-- src/follower.ts -->
<g id="node2" class="node">
<title>src/follower.ts</title>
<path fill="#79cdcd" stroke="#79cdcd" d="M341,-72C341,-72 288,-72 288,-72 282,-72 276,-66 276,-60 276,-60 276,-48 276,-48 276,-42 282,-36 288,-36 288,-36 341,-36 341,-36 347,-36 353,-42 353,-48 353,-48 353,-60 353,-60 353,-66 347,-72 341,-72"/>
<text text-anchor="middle" x="314.5" y="-50.3" font-family="Helvetica,sans-Serif" font-size="14.00">follower.ts</text>
</g>
<!-- src/lock.ts -->
<g id="node3" class="node">
<title>src/lock.ts</title>
<path fill="#79cdcd" stroke="#79cdcd" d="M154.5,-72C154.5,-72 123.5,-72 123.5,-72 117.5,-72 111.5,-66 111.5,-60 111.5,-60 111.5,-48 111.5,-48 111.5,-42 117.5,-36 123.5,-36 123.5,-36 154.5,-36 154.5,-36 160.5,-36 166.5,-42 166.5,-48 166.5,-48 166.5,-60 166.5,-60 166.5,-66 160.5,-72 154.5,-72"/>
<text text-anchor="middle" x="139" y="-50.3" font-family="Helvetica,sans-Serif" font-size="14.00">lock.ts</text>
</g>
<!-- src/lock.ts&#45;&gt;src/utils.ts -->
<g id="edge2" class="edge">
<title>src/lock.ts&#45;&gt;src/utils.ts</title>
<path fill="none" stroke="#528b8b" stroke-width="2" d="M116.78,-72.38C103.9,-83.54 87.29,-97.93 73.24,-110.1"/>
<polygon fill="#528b8b" stroke="#528b8b" stroke-width="2" points="70.58,-107.78 65.31,-116.97 75.16,-113.07 70.58,-107.78"/>
</g>
<!-- src/main.ts -->
<g id="node4" class="node">
<title>src/main.ts</title>
<path fill="#79cdcd" stroke="#79cdcd" d="M507,-153C507,-153 470,-153 470,-153 464,-153 458,-147 458,-141 458,-141 458,-129 458,-129 458,-123 464,-117 470,-117 470,-117 507,-117 507,-117 513,-117 519,-123 519,-129 519,-129 519,-141 519,-141 519,-147 513,-153 507,-153"/>
<text text-anchor="middle" x="488.5" y="-131.3" font-family="Helvetica,sans-Serif" font-size="14.00">main.ts</text>
</g>
<!-- src/main.ts&#45;&gt;src/follower.ts -->
<g id="edge3" class="edge">
<title>src/main.ts&#45;&gt;src/follower.ts</title>
<path fill="none" stroke="#528b8b" stroke-width="2" d="M469.87,-116.76C457.5,-104.95 440.01,-90.12 422,-81 403.83,-71.79 382.28,-65.57 363.34,-61.44"/>
<polygon fill="#528b8b" stroke="#528b8b" stroke-width="2" points="363.91,-57.99 353.41,-59.41 362.51,-64.85 363.91,-57.99"/>
</g>
<!-- src/storageBackendAsyncMemory.ts -->
<g id="node6" class="node">
<title>src/storageBackendAsyncMemory.ts</title>
<path fill="#79cdcd" stroke="#79cdcd" d="M410,-126C410,-126 219,-126 219,-126 213,-126 207,-120 207,-114 207,-114 207,-102 207,-102 207,-96 213,-90 219,-90 219,-90 410,-90 410,-90 416,-90 422,-96 422,-102 422,-102 422,-114 422,-114 422,-120 416,-126 410,-126"/>
<text text-anchor="middle" x="314.5" y="-104.3" font-family="Helvetica,sans-Serif" font-size="14.00">storageBackendAsyncMemory.ts</text>
</g>
<!-- src/main.ts&#45;&gt;src/storageBackendAsyncMemory.ts -->
<g id="edge4" class="edge">
<title>src/main.ts&#45;&gt;src/storageBackendAsyncMemory.ts</title>
<path fill="none" stroke="#528b8b" stroke-width="2" d="M457.93,-130.36C450.23,-129.15 441.45,-127.77 432.12,-126.31"/>
<polygon fill="#528b8b" stroke="#528b8b" stroke-width="2" points="432.64,-122.85 422.22,-124.75 431.55,-129.76 432.64,-122.85"/>
</g>
<!-- src/storageFrontendAsync.ts -->
<g id="node7" class="node">
<title>src/storageFrontendAsync.ts</title>
<path fill="#79cdcd" stroke="#79cdcd" d="M386,-180C386,-180 243,-180 243,-180 237,-180 231,-174 231,-168 231,-168 231,-156 231,-156 231,-150 237,-144 243,-144 243,-144 386,-144 386,-144 392,-144 398,-150 398,-156 398,-156 398,-168 398,-168 398,-174 392,-180 386,-180"/>
<text text-anchor="middle" x="314.5" y="-158.3" font-family="Helvetica,sans-Serif" font-size="14.00">storageFrontendAsync.ts</text>
</g>
<!-- src/main.ts&#45;&gt;src/storageFrontendAsync.ts -->
<g id="edge5" class="edge">
<title>src/main.ts&#45;&gt;src/storageFrontendAsync.ts</title>
<path fill="none" stroke="#528b8b" stroke-width="2" d="M457.93,-139.64C443.91,-141.84 426.31,-144.61 408.31,-147.43"/>
<polygon fill="#528b8b" stroke="#528b8b" stroke-width="2" points="407.62,-144 398.28,-149 408.71,-150.91 407.62,-144"/>
</g>
<!-- src/main.ts&#45;&gt;src/utils.ts -->
<g id="edge6" class="edge">
<title>src/main.ts&#45;&gt;src/utils.ts</title>
<path fill="none" stroke="#528b8b" stroke-width="2" d="M471.74,-153.17C459.58,-165.77 441.57,-181.58 422,-189 291.05,-238.69 236.29,-251.86 107,-198 89.1,-190.54 73.69,-175.19 62.65,-161.5"/>
<polygon fill="#528b8b" stroke="#528b8b" stroke-width="2" points="65.22,-159.1 56.36,-153.29 59.66,-163.35 65.22,-159.1"/>
</g>
<!-- src/query.ts -->
<g id="node5" class="node">
<title>src/query.ts</title>
<path fill="#79cdcd" stroke="#79cdcd" d="M159,-126C159,-126 119,-126 119,-126 113,-126 107,-120 107,-114 107,-114 107,-102 107,-102 107,-96 113,-90 119,-90 119,-90 159,-90 159,-90 165,-90 171,-96 171,-102 171,-102 171,-114 171,-114 171,-120 165,-126 159,-126"/>
<text text-anchor="middle" x="139" y="-104.3" font-family="Helvetica,sans-Serif" font-size="14.00">query.ts</text>
</g>
<!-- src/query.ts&#45;&gt;src/utils.ts -->
<g id="edge7" class="edge">
<title>src/query.ts&#45;&gt;src/utils.ts</title>
<path fill="none" stroke="#528b8b" stroke-width="2" d="M106.87,-116.99C98.54,-119.39 89.47,-122.01 80.89,-124.49"/>
<polygon fill="#528b8b" stroke="#528b8b" stroke-width="2" points="79.76,-121.18 71.12,-127.31 81.7,-127.9 79.76,-121.18"/>
</g>
<!-- src/storageBackendAsyncMemory.ts&#45;&gt;src/doc.ts -->
<g id="edge8" class="edge">
<title>src/storageBackendAsyncMemory.ts&#45;&gt;src/doc.ts</title>
<path fill="none" stroke="#528b8b" stroke-width="2" d="M237.22,-126.01C227,-128.81 216.7,-131.83 207,-135 196.61,-138.39 185.53,-142.61 175.43,-146.69"/>
<polygon fill="#528b8b" stroke="#528b8b" stroke-width="2" points="174.02,-143.48 166.11,-150.53 176.69,-149.95 174.02,-143.48"/>
</g>
<!-- src/storageBackendAsyncMemory.ts&#45;&gt;src/lock.ts -->
<g id="edge10" class="edge">
<title>src/storageBackendAsyncMemory.ts&#45;&gt;src/lock.ts</title>
<path fill="none" stroke="#528b8b" stroke-width="2" d="M237.22,-89.99C227,-87.19 216.7,-84.17 207,-81 196.9,-77.7 186.14,-73.63 176.27,-69.65"/>
<polygon fill="#528b8b" stroke="#528b8b" stroke-width="2" points="177.33,-66.3 166.75,-65.74 174.67,-72.78 177.33,-66.3"/>
</g>
<!-- src/storageBackendAsyncMemory.ts&#45;&gt;src/query.ts -->
<g id="edge9" class="edge">
<title>src/storageBackendAsyncMemory.ts&#45;&gt;src/query.ts</title>
<path fill="none" stroke="#528b8b" stroke-width="2" d="M206.58,-108C197.76,-108 189.24,-108 181.4,-108"/>
<polygon fill="#528b8b" stroke="#528b8b" stroke-width="2" points="181.17,-104.5 171.17,-108 181.17,-111.5 181.17,-104.5"/>
</g>
<!-- src/storageBackendAsyncMemory.ts&#45;&gt;src/utils.ts -->
<g id="edge11" class="edge">
<title>src/storageBackendAsyncMemory.ts&#45;&gt;src/utils.ts</title>
<path fill="none" stroke="#528b8b" stroke-width="2" d="M222.23,-89.88C216.88,-87.3 211.75,-84.36 207,-81 183.45,-64.35 196.43,-40.61 171,-27 145.92,-13.58 131.64,-12.79 107,-27 77.34,-44.1 60.49,-81.24 51.93,-107.17"/>
<polygon fill="#528b8b" stroke="#528b8b" stroke-width="2" points="48.55,-106.24 48.94,-116.82 55.24,-108.3 48.55,-106.24"/>
</g>
<!-- src/storageFrontendAsync.ts&#45;&gt;src/doc.ts -->
<g id="edge13" class="edge">
<title>src/storageFrontendAsync.ts&#45;&gt;src/doc.ts</title>
<path fill="none" stroke="#528b8b" stroke-width="2" d="M230.82,-162C211.81,-162 192.54,-162 176.68,-162"/>
<polygon fill="#528b8b" stroke="#528b8b" stroke-width="2" points="176.28,-158.5 166.28,-162 176.28,-165.5 176.28,-158.5"/>
</g>
<!-- src/storageFrontendAsync.ts&#45;&gt;src/utils.ts -->
<g id="edge12" class="edge">
<title>src/storageFrontendAsync.ts&#45;&gt;src/utils.ts</title>
<path fill="none" stroke="#528b8b" stroke-width="2" d="M268.2,-180.01C225.4,-194.25 160.03,-208.74 107,-189 91.39,-183.19 77.07,-171.53 66.09,-160.53"/>
<polygon fill="#528b8b" stroke="#528b8b" stroke-width="2" points="68.47,-157.95 59.05,-153.09 63.39,-162.76 68.47,-157.95"/>
</g>
</g>
</svg>
