<?xml version="1.0" encoding="UTF-8" standalone="no"?><svg xmlns="http://www.w3.org/2000/svg" xmlns:xlink="http://www.w3.org/1999/xlink" contentScriptType="application/ecmascript" contentStyleType="text/css" height="554px" preserveAspectRatio="none" style="width:883px;height:554px;" version="1.1" viewBox="0 0 883 554" width="883px" zoomAndPan="magnify"><defs/><g><!--MD5=[7cb2acb3529b993aa42af5d5957cae58]
cluster Crypto--><path d="M25,207 L68,207 A4.5,4.5 0 0 1 71,210 L78,227.4844 L201,227.4844 A3,3 0 0 1 204,230.4844 L204,539 A3,3 0 0 1 201,542 L25,542 A3,3 0 0 1 22,539 L22,210 A3,3 0 0 1 25,207 " fill="#FFFFFF" style="stroke: #000000; stroke-width: 1.5;"/><line style="stroke: #000000; stroke-width: 1.5;" x1="22" x2="78" y1="227.4844" y2="227.4844"/><text fill="#000000" font-family="Tahoma, sans-serif" font-size="12" font-weight="bold" lengthAdjust="spacingAndGlyphs" textLength="43" x="26" y="221.0059">Crypto</text><!--MD5=[562ed55e840afc79d9783beef242227d]
cluster Storage--><path d="M527,24.5 L579,24.5 A4.5,4.5 0 0 1 582,27.5 L589,44.9844 L697,44.9844 A3,3 0 0 1 700,47.9844 L700,366 A3,3 0 0 1 697,369 L527,369 A3,3 0 0 1 524,366 L524,27.5 A3,3 0 0 1 527,24.5 " fill="#FFFFFF" style="stroke: #000000; stroke-width: 1.5;"/><line style="stroke: #000000; stroke-width: 1.5;" x1="524" x2="589" y1="44.9844" y2="44.9844"/><text fill="#000000" font-family="Tahoma, sans-serif" font-size="12" font-weight="bold" lengthAdjust="spacingAndGlyphs" textLength="52" x="528" y="38.5059">Storage</text><!--MD5=[cde84845473483b6c17f89f58c06ce6a]
cluster Sync--><path d="M733,108 L765,108 A4.5,4.5 0 0 1 768,111 L775,128.4844 L867,128.4844 A3,3 0 0 1 870,131.4844 L870,180 A3,3 0 0 1 867,183 L733,183 A3,3 0 0 1 730,180 L730,111 A3,3 0 0 1 733,108 " fill="#FFFFFF" style="stroke: #000000; stroke-width: 1.5;"/><line style="stroke: #000000; stroke-width: 1.5;" x1="730" x2="775" y1="128.4844" y2="128.4844"/><text fill="#000000" font-family="Tahoma, sans-serif" font-size="12" font-weight="bold" lengthAdjust="spacingAndGlyphs" textLength="32" x="734" y="122.0059">Sync</text><!--MD5=[a55135535b5c544b99c33b17428c3b14]
cluster Util--><path d="M231,393 L253,393 A4.5,4.5 0 0 1 256,396 L263,413.4844 L621,413.4844 A3,3 0 0 1 624,416.4844 L624,473 A3,3 0 0 1 621,476 L231,476 A3,3 0 0 1 228,473 L228,396 A3,3 0 0 1 231,393 " fill="#FFFFFF" style="stroke: #000000; stroke-width: 1.5;"/><line style="stroke: #000000; stroke-width: 1.5;" x1="228" x2="263" y1="413.4844" y2="413.4844"/><text fill="#000000" font-family="Tahoma, sans-serif" font-size="12" font-weight="bold" lengthAdjust="spacingAndGlyphs" textLength="22" x="232" y="407.0059">Util</text><!--MD5=[9afad148052a6df81378a68f771bb22f]
cluster Validator--><path d="M242,286 L301,286 A4.5,4.5 0 0 1 304,289 L311,306.4844 L324,306.4844 A3,3 0 0 1 327,309.4844 L327,366 A3,3 0 0 1 324,369 L242,369 A3,3 0 0 1 239,366 L239,289 A3,3 0 0 1 242,286 " fill="#FFFFFF" style="stroke: #000000; stroke-width: 1.5;"/><line style="stroke: #000000; stroke-width: 1.5;" x1="239" x2="311" y1="306.4844" y2="306.4844"/><text fill="#000000" font-family="Tahoma, sans-serif" font-size="12" font-weight="bold" lengthAdjust="spacingAndGlyphs" textLength="59" x="243" y="300.0059">Validator</text><ellipse cx="148.8553" cy="253.242" fill="#F8F8F8" rx="38.3553" ry="13.242" style="stroke: #383838; stroke-width: 0.5;"/><text fill="#000000" font-family="Tahoma, sans-serif" font-size="12" lengthAdjust="spacingAndGlyphs" textLength="50" x="123.8553" y="256.9842">crypto.ts</text><!--MD5=[3c393b960d9cb6ef19af0e934b2edf83]
entity _cryptoChloride_ts--><rect fill="#F8F8F8" height="34.4844" rx="3" ry="3" style="stroke: #000000; stroke-width: 0.5;" width="117" x="38.5" y="319"/><text fill="#000000" font-family="Tahoma, sans-serif" font-size="12" lengthAdjust="spacingAndGlyphs" textLength="97" x="48.5" y="341.0059">cryptoChloride.ts</text><!--MD5=[d18dbc1ffc81a0ecb8a5a41d8695df0d]
entity _cryptoTypes_ts--><rect fill="#F8F8F8" height="34.4844" rx="3" ry="3" style="stroke: #000000; stroke-width: 0.5;" width="104" x="69" y="492"/><text fill="#000000" font-family="Tahoma, sans-serif" font-size="12" lengthAdjust="spacingAndGlyphs" textLength="84" x="79" y="514.0059">cryptoTypes.ts</text><ellipse cx="120.8762" cy="443.242" fill="#F8F8F8" rx="50.3762" ry="13.242" style="stroke: #383838; stroke-width: 0.5;"/><text fill="#000000" font-family="Tahoma, sans-serif" font-size="12" lengthAdjust="spacingAndGlyphs" textLength="67" x="87.3762" y="446.9842">encoding.ts</text><!--MD5=[5ecf9e43f2c82891a488966ae64515d0]
entity _query_ts--><rect fill="#F8F8F8" height="34.4844" rx="3" ry="3" style="stroke: #000000; stroke-width: 0.5;" width="65" x="540.5" y="319"/><text fill="#000000" font-family="Tahoma, sans-serif" font-size="12" lengthAdjust="spacingAndGlyphs" textLength="45" x="550.5" y="341.0059">query.ts</text><!--MD5=[246cbc4ab92456d92455c1a4bc7ddf59]
entity _storageBase_ts--><rect fill="#F8F8F8" height="34.4844" rx="3" ry="3" style="stroke: #000000; stroke-width: 0.5;" width="107" x="540.5" y="137"/><text fill="#000000" font-family="Tahoma, sans-serif" font-size="12" lengthAdjust="spacingAndGlyphs" textLength="87" x="550.5" y="159.0059">storageBase.ts</text><!--MD5=[cb0e16504d533461f67ad42a677474bb]
entity _storageMemory_ts--><rect fill="#F8F8F8" height="34.4844" rx="3" ry="3" style="stroke: #000000; stroke-width: 0.5;" width="123" x="560.5" y="57.5"/><text fill="#000000" font-family="Tahoma, sans-serif" font-size="12" lengthAdjust="spacingAndGlyphs" textLength="103" x="570.5" y="79.5059">storageMemory.ts</text><!--MD5=[1227ee9e6a8d4afb7e9e8c17ab89a587]
entity _storageTypes_ts--><rect fill="#F8F8F8" height="34.4844" rx="3" ry="3" style="stroke: #000000; stroke-width: 0.5;" width="112" x="572" y="236"/><text fill="#000000" font-family="Tahoma, sans-serif" font-size="12" lengthAdjust="spacingAndGlyphs" textLength="92" x="582" y="258.0059">storageTypes.ts</text><ellipse cx="799.9117" cy="154.242" fill="#F8F8F8" rx="53.9117" ry="13.242" style="stroke: #383838; stroke-width: 0.5;"/><text fill="#000000" font-family="Tahoma, sans-serif" font-size="12" lengthAdjust="spacingAndGlyphs" textLength="72" x="763.9117" y="157.9842">syncLocal.ts</text><ellipse cx="299.1295" cy="442.9259" fill="#F8F8F8" rx="55.1295" ry="13.4259" style="stroke: #383838; stroke-width: 0.5;"/><text fill="#000000" font-family="Tahoma, sans-serif" font-size="12" lengthAdjust="spacingAndGlyphs" textLength="75" x="261.6295" y="446.6681">characters.ts</text><!--MD5=[e071f9871f09a9b13691b18cb7f35f9e]
entity _emitter_ts--><rect fill="#F8F8F8" height="34.4844" rx="3" ry="3" style="stroke: #000000; stroke-width: 0.5;" width="74" x="534" y="426"/><text fill="#000000" font-family="Tahoma, sans-serif" font-size="12" lengthAdjust="spacingAndGlyphs" textLength="54" x="544" y="448.0059">emitter.ts</text><ellipse cx="411.098" cy="443.242" fill="#F8F8F8" rx="42.598" ry="13.242" style="stroke: #383838; stroke-width: 0.5;"/><text fill="#000000" font-family="Tahoma, sans-serif" font-size="12" lengthAdjust="spacingAndGlyphs" textLength="56" x="383.098" y="446.9842">helpers.ts</text><!--MD5=[d3ff4c934489a2710ef7b81901752328]
entity _log_ts--><rect fill="#F8F8F8" height="34.4844" rx="3" ry="3" style="stroke: #000000; stroke-width: 0.5;" width="52" x="468" y="426"/><text fill="#000000" font-family="Tahoma, sans-serif" font-size="12" lengthAdjust="spacingAndGlyphs" textLength="32" x="478" y="448.0059">log.ts</text><!--MD5=[7821c8f1240d87f165500f792d1b5213]
entity _es4_ts--><rect fill="#F8F8F8" height="34.4844" rx="3" ry="3" style="stroke: #000000; stroke-width: 0.5;" width="55" x="255.5" y="319"/><text fill="#000000" font-family="Tahoma, sans-serif" font-size="12" lengthAdjust="spacingAndGlyphs" textLength="35" x="265.5" y="341.0059">es4.ts</text><ellipse cx="422.0122" cy="253.242" fill="#F8F8F8" rx="44.0122" ry="13.242" style="stroke: #383838; stroke-width: 0.5;"/><text fill="#000000" font-family="Tahoma, sans-serif" font-size="12" font-weight="bold" lengthAdjust="spacingAndGlyphs" textLength="58" x="393.0122" y="256.9842">extras.ts</text><ellipse cx="796.0991" cy="74.6198" fill="#F8F8F8" rx="76.0991" ry="17.6198" style="stroke: #383838; stroke-width: 0.5;"/><text fill="#000000" font-family="Tahoma, sans-serif" font-size="12" font-weight="bold" lengthAdjust="spacingAndGlyphs" textLength="127" x="732.5991" y="78.362">readme-example.ts</text><!--MD5=[66af222bda98dc1f884ccb4062d1da99]
link crypto.ts to _cryptoChloride_ts--><path d="M141.327,265.952 C133.186,278.634 120.166,298.915 110.338,314.223 " fill="none" id="crypto.ts-&gt;_cryptoChloride_ts" style="stroke: #000000; stroke-width: 0.5; stroke-dasharray: 7.0,7.0;"/><polygon fill="#000000" points="107.4,318.8,115.6278,313.3868,110.1009,314.5923,108.8954,309.0653,107.4,318.8" style="stroke: #000000; stroke-width: 0.5;"/><!--MD5=[78f8051f403628b2397c59c7831379dd]
link crypto.ts to _cryptoTypes_ts--><path d="M162.464,265.532 C165.836,269.16 169.046,273.426 171,278 C206.981,362.247 228.673,407.683 178,484 C177.05,485.4312 175.996,486.7773 174.854,488.0432 " fill="none" id="crypto.ts-&gt;_cryptoTypes_ts" style="stroke: #000000; stroke-width: 0.5; stroke-dasharray: 7.0,7.0;"/><polygon fill="#000000" points="171.185,491.6058,180.4278,488.2043,174.7716,488.1221,174.8539,482.4658,171.185,491.6058" style="stroke: #000000; stroke-width: 0.5;"/><!--MD5=[561b33e691498edb24701651b8920b05]
link crypto.ts to encoding.ts--><path d="M157.124,266.219 C159.119,269.859 160.976,273.958 162,278 C172.81,320.652 174.218,334.73 162,377 C156.674,395.425 144.402,413.653 134.664,426.096 " fill="none" id="crypto.ts-&gt;encoding.ts" style="stroke: #000000; stroke-width: 0.5; stroke-dasharray: 7.0,7.0;"/><polygon fill="#000000" points="131.472,430.085,140.2173,425.5552,134.5951,426.1804,133.9699,420.5582,131.472,430.085" style="stroke: #000000; stroke-width: 0.5;"/><!--MD5=[df2cbdf070201f6d551c942bcf9f195e]
link crypto.ts to _es4_ts--><path d="M175.167,262.687 C185.143,266.982 196.317,272.432 206,278 C225.97,289.483 247.446,304.1 262.752,315.657 " fill="none" id="crypto.ts-&gt;_es4_ts" style="stroke: #000000; stroke-width: 0.5;"/><polygon fill="#000000" points="266.899,318.83,262.1818,310.1843,262.928,315.7917,257.3206,316.538,266.899,318.83" style="stroke: #000000; stroke-width: 0.5;"/><!--MD5=[cac855fbaa583e774c5a7c8b3b61715e]
link _es4_ts to crypto.ts--><path d="M255.339,318.83 C237.498,306.876 213.848,290.563 192,278 C185.354,274.178 178.005,270.412 171.244,267.036 " fill="none" id="_es4_ts-&gt;crypto.ts" style="stroke: #000000; stroke-width: 0.5;"/><polygon fill="#000000" points="166.673,264.766,172.9544,272.3518,171.1511,266.9901,176.5129,265.1868,166.673,264.766" style="stroke: #000000; stroke-width: 0.5;"/><!--MD5=[9b580018d94a40aa7dc970ff0175d5b0]
link _cryptoChloride_ts to _cryptoTypes_ts--><path d="M81.5552,353.36 C74.4197,362.046 66.7167,373.323 63,385 C49.655,426.927 38.5483,447.42 63,484 C63.9992,485.4949 65.1106,486.8967 66.3155,488.2114 " fill="none" id="_cryptoChloride_ts-&gt;_cryptoTypes_ts" style="stroke: #000000; stroke-width: 0.5; stroke-dasharray: 7.0,7.0;"/><polygon fill="#000000" points="70.1922,491.8995,66.4286,482.7981,66.5696,488.4532,60.9145,488.5942,70.1922,491.8995" style="stroke: #000000; stroke-width: 0.5;"/><!--MD5=[fbbb874eed7a1ef3f578062feae82d08]
link _cryptoChloride_ts to encoding.ts--><path d="M100.75,353.406 C105.2036,372.891 112.596,405.231 117.11,424.98 " fill="none" id="_cryptoChloride_ts-&gt;encoding.ts" style="stroke: #000000; stroke-width: 0.5; stroke-dasharray: 7.0,7.0;"/><polygon fill="#000000" points="118.247,429.955,120.1407,420.2899,117.1327,425.0807,112.3419,422.0728,118.247,429.955" style="stroke: #000000; stroke-width: 0.5;"/><!--MD5=[9fc84d6b5793b71d555265c253074eae]
link encoding.ts to _cryptoTypes_ts--><path d="M121,456.038 C121,464.6716 121,476.5332 121,486.7438 " fill="none" id="encoding.ts-&gt;_cryptoTypes_ts" style="stroke: #000000; stroke-width: 0.5; stroke-dasharray: 7.0,7.0;"/><polygon fill="#000000" points="121,491.9069,125,482.9069,121,486.9069,117,482.9069,121,491.9069" style="stroke: #000000; stroke-width: 0.5;"/><!--MD5=[0a62f80f7fc0f60ef7ec001d5c91699a]
link encoding.ts to _es4_ts--><path d="M138.73,430.508 C166.4,412.574 220.147,377.738 253.656,356.019 " fill="none" id="encoding.ts-&gt;_es4_ts" style="stroke: #000000; stroke-width: 0.5;"/><polygon fill="#000000" points="258.043,353.176,248.3152,354.7154,253.8475,355.8959,252.667,361.4282,258.043,353.176" style="stroke: #000000; stroke-width: 0.5;"/><!--MD5=[248d4840989ba682830d66d443c27815]
link _es4_ts to characters.ts--><path d="M285.5,353.406 C288.437,372.679 293.29,404.529 296.308,424.332 " fill="none" id="_es4_ts-&gt;characters.ts" style="stroke: #000000; stroke-width: 0.5;"/><polygon fill="#000000" points="297.07,429.335,299.6692,419.8353,296.3171,424.392,291.7604,421.0399,297.07,429.335" style="stroke: #000000; stroke-width: 0.5;"/><!--MD5=[59504141f064728a651b549468f27ae3]
link _es4_ts to helpers.ts--><path d="M306.472,353.005 C317.912,360.582 331.981,369.575 345,377 C351.906,380.939 354.706,380.143 361,385 C376.037,396.602 390.006,413.232 399.335,425.537 " fill="none" id="_es4_ts-&gt;helpers.ts" style="stroke: #000000; stroke-width: 0.5;"/><polygon fill="#000000" points="402.556,429.858,400.3851,420.2514,399.5681,425.8489,393.9706,425.032,402.556,429.858" style="stroke: #000000; stroke-width: 0.5;"/><!--MD5=[19c4cdaf0df89a70563966460d6a0371]
link <b>extras.ts</b> to _log_ts--><path d="M426.613,266.046 C438.584,297.303 470.758,381.313 485.905,420.863 " fill="none" id="&lt;b&gt;extras.ts&lt;/b&gt;-&gt;_log_ts" style="stroke: #000000; stroke-width: 1.0;"/><polygon fill="#000000" points="487.839,425.912,488.3555,416.0767,486.0507,421.2427,480.8847,418.938,487.839,425.912" style="stroke: #000000; stroke-width: 1.0;"/><!--MD5=[cc8f678a2b7ee948132ee071f34aa756]
link <b>extras.ts</b> to _storageTypes_ts--><path d="M466.258,253 C499.642,253 533.027,253 566.411,253 " fill="none" id="&lt;b&gt;extras.ts&lt;/b&gt;-&gt;_storageTypes_ts" style="stroke: #000000; stroke-width: 1.0;"/><polygon fill="#000000" points="571.769,253,562.769,249,566.769,253,562.769,257,571.769,253" style="stroke: #000000; stroke-width: 1.0;"/><!--MD5=[36fb9793ea42b30d38b2cbda0fa7b2f9]
link _query_ts to helpers.ts--><path d="M540.116,346.75 C516.665,354.698 485.141,367.48 461,385 C445.303,396.393 431.111,413.553 421.893,426.068 " fill="none" id="_query_ts-&gt;helpers.ts" style="stroke: #000000; stroke-width: 0.5;"/><polygon fill="#000000" points="418.962,430.119,427.4781,425.1718,421.8927,426.068,420.9965,420.4826,418.962,430.119" style="stroke: #000000; stroke-width: 0.5;"/><!--MD5=[66dffabd4a7dab3fa1a0054b2724feb4]
link <b>readme-example.ts</b> to _storageMemory_ts--><path d="M719.983,74.5 C709.535,74.5 699.088,74.5 688.64,74.5 " fill="none" id="&lt;b&gt;readme-example.ts&lt;/b&gt;-&gt;_storageMemory_ts" style="stroke: #000000; stroke-width: 1.0;"/><polygon fill="#000000" points="683.512,74.5,692.512,78.5,688.512,74.5,692.512,70.5,683.512,74.5" style="stroke: #000000; stroke-width: 1.0;"/><!--MD5=[3e83abcd3f7b8966b8996667126039e3]
link <b>readme-example.ts</b> to syncLocal.ts--><path d="M796.868,92.316 C797.527,105.093 798.432,122.613 799.099,135.545 " fill="none" id="&lt;b&gt;readme-example.ts&lt;/b&gt;-&gt;syncLocal.ts" style="stroke: #000000; stroke-width: 1.0;"/><polygon fill="#000000" points="799.369,140.779,802.8982,131.5842,799.1104,135.7857,794.9089,131.9979,799.369,140.779" style="stroke: #000000; stroke-width: 1.0;"/><!--MD5=[31aff66549e7b39d9c0a48322081dd63]
link _storageBase_ts to crypto.ts--><path d="M540.297,163.071 C489.681,171.012 411.839,184.089 345,199 C286.886,211.965 220.129,230.895 181.437,242.274 " fill="none" id="_storageBase_ts-&gt;crypto.ts" style="stroke: #000000; stroke-width: 0.5;"/><polygon fill="#000000" points="176.398,243.76,186.1619,245.0509,181.1938,242.3457,183.899,237.3776,176.398,243.76" style="stroke: #000000; stroke-width: 0.5;"/><!--MD5=[48c2ca0dcb462b0fc33544920b5cede9]
link _storageBase_ts to _emitter_ts--><path d="M569.123,171.088 C559.742,178.454 549.918,188.003 544,199 C527.199,230.216 535.45,242.635 533,278 C529.959,321.895 521.497,334.53 533,377 C537.383,393.181 546.911,409.463 555.33,421.684 " fill="none" id="_storageBase_ts-&gt;_emitter_ts" style="stroke: #000000; stroke-width: 0.5;"/><polygon fill="#000000" points="558.37,425.995,556.4534,416.3344,555.489,421.9085,549.915,420.944,558.37,425.995" style="stroke: #000000; stroke-width: 0.5;"/><!--MD5=[ccbe76129665b1838db280a40398863e]
link _storageBase_ts to helpers.ts--><path d="M540.262,157.966 C481.243,162.478 392.017,173.431 371,199 C315.074,267.038 375.051,382.92 400.616,425.595 " fill="none" id="_storageBase_ts-&gt;helpers.ts" style="stroke: #000000; stroke-width: 0.5;"/><polygon fill="#000000" points="403.266,429.962,402.0157,420.1928,400.6717,425.6877,395.1768,424.3437,403.266,429.962" style="stroke: #000000; stroke-width: 0.5;"/><!--MD5=[b1c0895168ba2459c5fd5e6cb447345c]
link _storageBase_ts to _log_ts--><path d="M560.833,171.064 C549.644,178.11 538.183,187.443 531,199 C486.623,270.396 488.633,375.802 491.918,420.6 " fill="none" id="_storageBase_ts-&gt;_log_ts" style="stroke: #000000; stroke-width: 0.5;"/><polygon fill="#000000" points="492.322,425.756,495.6077,416.4714,491.932,420.7712,487.6321,417.0955,492.322,425.756" style="stroke: #000000; stroke-width: 0.5;"/><!--MD5=[d1c0c6ee7f4b010adb18f4dff79bcb95]
link _storageBase_ts to _query_ts--><path d="M573.31,171.182 C565.369,178.686 557.207,188.313 553,199 C537.774,237.674 552.522,286.672 563.507,314.047 " fill="none" id="_storageBase_ts-&gt;_query_ts" style="stroke: #000000; stroke-width: 0.5; stroke-dasharray: 7.0,7.0;"/><polygon fill="#000000" points="565.506,318.899,565.7766,309.0539,563.6016,314.2759,558.3796,312.1009,565.506,318.899" style="stroke: #000000; stroke-width: 0.5;"/><!--MD5=[596ab9a625e219a68452f2db49d62927]
link _storageBase_ts to _storageTypes_ts--><path d="M599.614,171.018 C605.373,187.446 614.356,213.076 620.672,231.093 " fill="none" id="_storageBase_ts-&gt;_storageTypes_ts" style="stroke: #000000; stroke-width: 0.5; stroke-dasharray: 7.0,7.0;"/><polygon fill="#000000" points="622.377,235.959,623.1741,226.1425,620.7228,231.2406,615.6246,228.7892,622.377,235.959" style="stroke: #000000; stroke-width: 0.5;"/><!--MD5=[42df3f52ee4c1e8f9bb0218c83585a33]
link _storageMemory_ts to _log_ts--><path d="M658.563,91.692 C661.722,94.135 664.616,96.896 667,100 C713.484,160.512 714.857,197.521 691,270 C672.518,326.149 663.465,347.919 612,377 C578.964,395.667 558.947,364.526 527,385 C514.166,393.225 505.75,408.339 500.631,420.938 " fill="none" id="_storageMemory_ts-&gt;_log_ts" style="stroke: #000000; stroke-width: 0.5;"/><polygon fill="#000000" points="498.764,425.801,505.7235,418.8321,500.5557,421.1331,498.2548,415.9653,498.764,425.801" style="stroke: #000000; stroke-width: 0.5;"/><!--MD5=[337f7a8b8475b30903dc017e1997469b]
link _storageMemory_ts to _query_ts--><path d="M648.102,91.775 C650.459,94.245 652.513,96.989 654,100 C671.908,136.264 681.288,161.149 654,191 C640.602,205.656 578.398,184.344 565,199 C550.155,215.239 561.112,279.704 568.209,313.723 " fill="none" id="_storageMemory_ts-&gt;_query_ts" style="stroke: #000000; stroke-width: 0.5; stroke-dasharray: 7.0,7.0;"/><polygon fill="#000000" points="569.31,318.909,571.3535,309.2745,568.2715,314.018,563.528,310.936,569.31,318.909" style="stroke: #000000; stroke-width: 0.5;"/><!--MD5=[ddd7ec75b28bdb5e131dc67659d7e6ec]
link _storageMemory_ts to _storageBase_ts--><path d="M616.198,91.558 C611.956,103.3 606.163,119.335 601.559,132.079 " fill="none" id="_storageMemory_ts-&gt;_storageBase_ts" style="stroke: #000000; stroke-width: 0.5; stroke-dasharray: 7.0,7.0;"/><polygon fill="#000000" points="599.794,136.963,606.6153,129.8588,601.4938,132.2608,599.0918,127.1392,599.794,136.963" style="stroke: #000000; stroke-width: 0.5;"/><!--MD5=[0dae7f5d0ae6125899212f5c9b089af0]
link _storageTypes_ts to _emitter_ts--><path d="M628.089,270.044 C627.744,294.029 625.22,340.334 612,377 C606.196,393.097 595.917,409.379 587.104,421.621 " fill="none" id="_storageTypes_ts-&gt;_emitter_ts" style="stroke: #000000; stroke-width: 0.5;"/><polygon fill="#000000" points="583.934,425.94,592.4844,421.0523,586.8929,421.9095,586.0357,416.318,583.934,425.94" style="stroke: #000000; stroke-width: 0.5;"/><!--MD5=[62c0ced0cc138dc2975af1f895dcfd9f]
link _storageTypes_ts to _query_ts--><path d="M617.134,270.003 C608.452,282.789 596.228,300.792 586.845,314.609 " fill="none" id="_storageTypes_ts-&gt;_query_ts" style="stroke: #000000; stroke-width: 0.5; stroke-dasharray: 7.0,7.0;"/><polygon fill="#000000" points="584.032,318.753,592.3977,313.5554,586.8413,314.6169,585.7799,309.0605,584.032,318.753" style="stroke: #000000; stroke-width: 0.5;"/><!--MD5=[3a9b5f084a74b1f79dec7ce36bb0159c]
link syncLocal.ts to _storageTypes_ts--><path d="M780.269,166.127 C751.219,182.51 696.571,213.329 661.255,233.246 " fill="none" id="syncLocal.ts-&gt;_storageTypes_ts" style="stroke: #000000; stroke-width: 0.5;"/><polygon fill="#000000" points="656.62,235.86,666.4243,234.9243,660.9755,233.4044,662.4954,227.9556,656.62,235.86" style="stroke: #000000; stroke-width: 0.5;"/><script type="text/plantuml"><![CDATA[MD5=[00bcd1579f16cd8d6233ca1f9928fb66]
@startuml

scale max 1920 width
top to bottom direction

skinparam nodesep 14
skinparam ranksep 28
skinparam monochrome true
skinparam shadowing false
skinparam defaultFontName Tahoma
skinparam defaultFontSize 12
skinparam roundCorner 6
skinparam dpi 150
skinparam arrowColor black
skinparam arrowThickness 0.5
skinparam packageTitleAlignment left

skinparam usecase {
  borderThickness 0.5
}

skinparam rectangle {
  borderThickness 0.5
}

skinparam component {
  borderThickness 1
}


(<b>extras.ts</b>)
(<b>readme-example.ts</b>)

package "Crypto" {
  (crypto.ts)
  rectangle "cryptoChloride.ts" as _cryptoChloride_ts
  rectangle "cryptoTypes.ts" as _cryptoTypes_ts
  (encoding.ts)
}

package "Storage" {
  rectangle "query.ts" as _query_ts
  rectangle "storageBase.ts" as _storageBase_ts
  rectangle "storageMemory.ts" as _storageMemory_ts
  rectangle "storageTypes.ts" as _storageTypes_ts
}

package "Sync" {
  (syncLocal.ts)
}

package "Util" {
  (characters.ts)
  rectangle "emitter.ts" as _emitter_ts
  (helpers.ts)
  rectangle "log.ts" as _log_ts
}

package "Validator" {
  rectangle "es4.ts" as _es4_ts
}

(crypto.ts) ..> _cryptoChloride_ts
(crypto.ts) ..> _cryptoTypes_ts
(crypto.ts) ..> (encoding.ts)
(crypto.ts) --> _es4_ts
_cryptoChloride_ts ..> _cryptoTypes_ts
_cryptoChloride_ts ..> (encoding.ts)
(encoding.ts) ..> _cryptoTypes_ts
(encoding.ts) --> _es4_ts
_es4_ts --> (characters.ts)
_es4_ts --> (crypto.ts)
_es4_ts --> (helpers.ts)
(<b>extras.ts</b>) -[thickness=1]> _log_ts
(<b>extras.ts</b>) -[thickness=1]> _storageTypes_ts
_query_ts --> (helpers.ts)
(<b>readme-example.ts</b>) -[thickness=1]> _storageMemory_ts
(<b>readme-example.ts</b>) -[thickness=1]> (syncLocal.ts)
_storageBase_ts --> (crypto.ts)
_storageBase_ts --> _emitter_ts
_storageBase_ts --> (helpers.ts)
_storageBase_ts --> _log_ts
_storageBase_ts ..> _query_ts
_storageBase_ts ..> _storageTypes_ts
_storageMemory_ts --> _log_ts
_storageMemory_ts ..> _query_ts
_storageMemory_ts ..> _storageBase_ts
_storageTypes_ts --> _emitter_ts
_storageTypes_ts ..> _query_ts
(syncLocal.ts) --> _storageTypes_ts

@enduml


' View and edit on https://arkit.pro
]]></script></g></svg>