<?xml version="1.0" encoding="UTF-8" standalone="no"?>
<!DOCTYPE svg PUBLIC "-//W3C//DTD SVG 1.1//EN"
 "http://www.w3.org/Graphics/SVG/1.1/DTD/svg11.dtd">
<!-- Generated by graphviz version 2.44.1 (20200629.0846)
 -->
<!-- Title: G Pages: 1 -->
<svg width="1802pt" height="882pt"
 viewBox="0.00 0.00 1802.00 881.89" xmlns="http://www.w3.org/2000/svg" xmlns:xlink="http://www.w3.org/1999/xlink">
<g id="graph0" class="graph" transform="scale(1 1) rotate(0) translate(4 877.89)">
<title>G</title>
<polygon fill="white" stroke="transparent" points="-4,4 -4,-877.89 1798,-877.89 1798,4 -4,4"/>
<!-- src/example&#45;app.ts -->
<g id="node1" class="node">
<title>src/example&#45;app.ts</title>
<path fill="#79cdcd" stroke="#79cdcd" d="M147,-509.89C147,-509.89 40,-509.89 40,-509.89 34,-509.89 28,-503.89 28,-497.89 28,-497.89 28,-485.89 28,-485.89 28,-479.89 34,-473.89 40,-473.89 40,-473.89 147,-473.89 147,-473.89 153,-473.89 159,-479.89 159,-485.89 159,-485.89 159,-497.89 159,-497.89 159,-503.89 153,-509.89 147,-509.89"/>
<text text-anchor="middle" x="93.5" y="-488.19" font-family="Helvetica,sans-Serif" font-size="14.00">src/example&#45;app.ts</text>
</g>
<!-- src/crypto/crypto.ts -->
<g id="node10" class="node">
<title>src/crypto/crypto.ts</title>
<path fill="#79cdcd" stroke="#79cdcd" d="M943.5,-659.89C943.5,-659.89 837.5,-659.89 837.5,-659.89 831.5,-659.89 825.5,-653.89 825.5,-647.89 825.5,-647.89 825.5,-635.89 825.5,-635.89 825.5,-629.89 831.5,-623.89 837.5,-623.89 837.5,-623.89 943.5,-623.89 943.5,-623.89 949.5,-623.89 955.5,-629.89 955.5,-635.89 955.5,-635.89 955.5,-647.89 955.5,-647.89 955.5,-653.89 949.5,-659.89 943.5,-659.89"/>
<text text-anchor="middle" x="890.5" y="-638.19" font-family="Helvetica,sans-Serif" font-size="14.00">src/crypto/crypto.ts</text>
</g>
<!-- src/example&#45;app.ts&#45;&gt;src/crypto/crypto.ts -->
<g id="edge17" class="edge">
<title>src/example&#45;app.ts&#45;&gt;src/crypto/crypto.ts</title>
<path fill="none" stroke="#528b8b" stroke-width="2" d="M102.11,-510.13C118.22,-546.03 159.58,-625.02 223,-655.89 325.36,-705.73 664,-670.7 815.32,-651.81"/>
<polygon fill="#528b8b" stroke="#528b8b" stroke-width="2" points="815.97,-655.26 825.45,-650.54 815.09,-648.31 815.97,-655.26"/>
</g>
<!-- src/format&#45;validators/format&#45;validator&#45;es4.ts -->
<g id="node12" class="node">
<title>src/format&#45;validators/format&#45;validator&#45;es4.ts</title>
<path fill="#79cdcd" stroke="#79cdcd" d="M751,-776.89C751,-776.89 497,-776.89 497,-776.89 491,-776.89 485,-770.89 485,-764.89 485,-764.89 485,-752.89 485,-752.89 485,-746.89 491,-740.89 497,-740.89 497,-740.89 751,-740.89 751,-740.89 757,-740.89 763,-746.89 763,-752.89 763,-752.89 763,-764.89 763,-764.89 763,-770.89 757,-776.89 751,-776.89"/>
<text text-anchor="middle" x="624" y="-755.19" font-family="Helvetica,sans-Serif" font-size="14.00">src/format&#45;validators/format&#45;validator&#45;es4.ts</text>
</g>
<!-- src/example&#45;app.ts&#45;&gt;src/format&#45;validators/format&#45;validator&#45;es4.ts -->
<g id="edge14" class="edge">
<title>src/example&#45;app.ts&#45;&gt;src/format&#45;validators/format&#45;validator&#45;es4.ts</title>
<path fill="none" stroke="#528b8b" stroke-width="2" d="M100.29,-510.1C114.2,-550.59 153.59,-648.15 223,-693.89 296.66,-742.44 394.12,-759.02 474.4,-763.31"/>
<polygon fill="#528b8b" stroke="#528b8b" stroke-width="2" points="474.45,-766.81 484.6,-763.79 474.78,-759.82 474.45,-766.81"/>
</g>
<!-- src/peer/peer.ts -->
<g id="node17" class="node">
<title>src/peer/peer.ts</title>
<path fill="#79cdcd" stroke="#79cdcd" d="M379,-559.89C379,-559.89 293,-559.89 293,-559.89 287,-559.89 281,-553.89 281,-547.89 281,-547.89 281,-535.89 281,-535.89 281,-529.89 287,-523.89 293,-523.89 293,-523.89 379,-523.89 379,-523.89 385,-523.89 391,-529.89 391,-535.89 391,-535.89 391,-547.89 391,-547.89 391,-553.89 385,-559.89 379,-559.89"/>
<text text-anchor="middle" x="336" y="-538.19" font-family="Helvetica,sans-Serif" font-size="14.00">src/peer/peer.ts</text>
</g>
<!-- src/example&#45;app.ts&#45;&gt;src/peer/peer.ts -->
<g id="edge19" class="edge">
<title>src/example&#45;app.ts&#45;&gt;src/peer/peer.ts</title>
<path fill="none" stroke="#528b8b" stroke-width="2" d="M159.27,-505.36C193.83,-512.55 236.24,-521.36 270.73,-528.53"/>
<polygon fill="#528b8b" stroke="#528b8b" stroke-width="2" points="270.2,-532 280.7,-530.61 271.62,-525.14 270.2,-532"/>
</g>
<!-- src/query&#45;follower/query&#45;follower.ts -->
<g id="node19" class="node">
<title>src/query&#45;follower/query&#45;follower.ts</title>
<path fill="#79cdcd" stroke="#79cdcd" d="M437,-299.89C437,-299.89 235,-299.89 235,-299.89 229,-299.89 223,-293.89 223,-287.89 223,-287.89 223,-275.89 223,-275.89 223,-269.89 229,-263.89 235,-263.89 235,-263.89 437,-263.89 437,-263.89 443,-263.89 449,-269.89 449,-275.89 449,-275.89 449,-287.89 449,-287.89 449,-293.89 443,-299.89 437,-299.89"/>
<text text-anchor="middle" x="336" y="-278.19" font-family="Helvetica,sans-Serif" font-size="14.00">src/query&#45;follower/query&#45;follower.ts</text>
</g>
<!-- src/example&#45;app.ts&#45;&gt;src/query&#45;follower/query&#45;follower.ts -->
<g id="edge18" class="edge">
<title>src/example&#45;app.ts&#45;&gt;src/query&#45;follower/query&#45;follower.ts</title>
<path fill="none" stroke="#528b8b" stroke-width="2" d="M108.56,-473.65C130.86,-445.44 176.57,-390.48 223,-351.89 244.39,-334.12 270.65,-317.47 292.37,-304.88"/>
<polygon fill="#528b8b" stroke="#528b8b" stroke-width="2" points="294.12,-307.91 301.06,-299.91 290.64,-301.83 294.12,-307.91"/>
</g>
<!-- src/storage/storage&#45;async.ts -->
<g id="node24" class="node">
<title>src/storage/storage&#45;async.ts</title>
<path fill="#79cdcd" stroke="#79cdcd" d="M705,-345.89C705,-345.89 543,-345.89 543,-345.89 537,-345.89 531,-339.89 531,-333.89 531,-333.89 531,-321.89 531,-321.89 531,-315.89 537,-309.89 543,-309.89 543,-309.89 705,-309.89 705,-309.89 711,-309.89 717,-315.89 717,-321.89 717,-321.89 717,-333.89 717,-333.89 717,-339.89 711,-345.89 705,-345.89"/>
<text text-anchor="middle" x="624" y="-324.19" font-family="Helvetica,sans-Serif" font-size="14.00">src/storage/storage&#45;async.ts</text>
</g>
<!-- src/example&#45;app.ts&#45;&gt;src/storage/storage&#45;async.ts -->
<g id="edge16" class="edge">
<title>src/example&#45;app.ts&#45;&gt;src/storage/storage&#45;async.ts</title>
<path fill="none" stroke="#528b8b" stroke-width="2" d="M152.57,-473.87C251.02,-443.32 450.19,-381.52 554.99,-349"/>
<polygon fill="#528b8b" stroke="#528b8b" stroke-width="2" points="556.32,-352.25 564.83,-345.94 554.25,-345.57 556.32,-352.25"/>
</g>
<!-- src/storage/storage&#45;driver&#45;async&#45;memory.ts -->
<g id="node26" class="node">
<title>src/storage/storage&#45;driver&#45;async&#45;memory.ts</title>
<path fill="#79cdcd" stroke="#79cdcd" d="M751,-253.89C751,-253.89 497,-253.89 497,-253.89 491,-253.89 485,-247.89 485,-241.89 485,-241.89 485,-229.89 485,-229.89 485,-223.89 491,-217.89 497,-217.89 497,-217.89 751,-217.89 751,-217.89 757,-217.89 763,-223.89 763,-229.89 763,-229.89 763,-241.89 763,-241.89 763,-247.89 757,-253.89 751,-253.89"/>
<text text-anchor="middle" x="624" y="-232.19" font-family="Helvetica,sans-Serif" font-size="14.00">src/storage/storage&#45;driver&#45;async&#45;memory.ts</text>
</g>
<!-- src/example&#45;app.ts&#45;&gt;src/storage/storage&#45;driver&#45;async&#45;memory.ts -->
<g id="edge15" class="edge">
<title>src/example&#45;app.ts&#45;&gt;src/storage/storage&#45;driver&#45;async&#45;memory.ts</title>
<path fill="none" stroke="#528b8b" stroke-width="2" d="M111.04,-473.58C133.97,-449.2 177.73,-406.24 223,-380.89 314.98,-329.39 356.98,-360.33 449,-308.89 467.43,-298.59 466.5,-288.08 485,-277.89 500.04,-269.62 516.92,-262.76 533.57,-257.16"/>
<polygon fill="#528b8b" stroke="#528b8b" stroke-width="2" points="534.9,-260.41 543.34,-254 532.75,-253.75 534.9,-260.41"/>
</g>
<!-- src/core&#45;validators/addresses.ts -->
<g id="node2" class="node">
<title>src/core&#45;validators/addresses.ts</title>
<path fill="#79cdcd" stroke="#79cdcd" d="M1538,-766.89C1538,-766.89 1355,-766.89 1355,-766.89 1349,-766.89 1343,-760.89 1343,-754.89 1343,-754.89 1343,-742.89 1343,-742.89 1343,-736.89 1349,-730.89 1355,-730.89 1355,-730.89 1538,-730.89 1538,-730.89 1544,-730.89 1550,-736.89 1550,-742.89 1550,-742.89 1550,-754.89 1550,-754.89 1550,-760.89 1544,-766.89 1538,-766.89"/>
<text text-anchor="middle" x="1446.5" y="-745.19" font-family="Helvetica,sans-Serif" font-size="14.00">src/core&#45;validators/addresses.ts</text>
</g>
<!-- src/core&#45;validators/characters.ts -->
<g id="node3" class="node">
<title>src/core&#45;validators/characters.ts</title>
<path fill="#79cdcd" stroke="#79cdcd" d="M1782,-827.89C1782,-827.89 1598,-827.89 1598,-827.89 1592,-827.89 1586,-821.89 1586,-815.89 1586,-815.89 1586,-803.89 1586,-803.89 1586,-797.89 1592,-791.89 1598,-791.89 1598,-791.89 1782,-791.89 1782,-791.89 1788,-791.89 1794,-797.89 1794,-803.89 1794,-803.89 1794,-815.89 1794,-815.89 1794,-821.89 1788,-827.89 1782,-827.89"/>
<text text-anchor="middle" x="1690" y="-806.19" font-family="Helvetica,sans-Serif" font-size="14.00">src/core&#45;validators/characters.ts</text>
</g>
<!-- src/core&#45;validators/addresses.ts&#45;&gt;src/core&#45;validators/characters.ts -->
<g id="edge1" class="edge">
<title>src/core&#45;validators/addresses.ts&#45;&gt;src/core&#45;validators/characters.ts</title>
<path fill="none" stroke="#528b8b" stroke-width="2" d="M1518.98,-766.95C1546.85,-773.99 1578.94,-782.1 1607.69,-789.36"/>
<polygon fill="#528b8b" stroke="#528b8b" stroke-width="2" points="1607.15,-792.83 1617.71,-791.89 1608.87,-786.04 1607.15,-792.83"/>
</g>
<!-- src/core&#45;validators/checkers.ts -->
<g id="node4" class="node">
<title>src/core&#45;validators/checkers.ts</title>
<path fill="#79cdcd" stroke="#79cdcd" d="M1534,-873.89C1534,-873.89 1359,-873.89 1359,-873.89 1353,-873.89 1347,-867.89 1347,-861.89 1347,-861.89 1347,-849.89 1347,-849.89 1347,-843.89 1353,-837.89 1359,-837.89 1359,-837.89 1534,-837.89 1534,-837.89 1540,-837.89 1546,-843.89 1546,-849.89 1546,-849.89 1546,-861.89 1546,-861.89 1546,-867.89 1540,-873.89 1534,-873.89"/>
<text text-anchor="middle" x="1446.5" y="-852.19" font-family="Helvetica,sans-Serif" font-size="14.00">src/core&#45;validators/checkers.ts</text>
</g>
<!-- src/core&#45;validators/checkers.ts&#45;&gt;src/core&#45;validators/characters.ts -->
<g id="edge2" class="edge">
<title>src/core&#45;validators/checkers.ts&#45;&gt;src/core&#45;validators/characters.ts</title>
<path fill="none" stroke="#528b8b" stroke-width="2" d="M1542.25,-837.85C1555.97,-835.23 1570.16,-832.53 1584.06,-829.88"/>
<polygon fill="#528b8b" stroke="#528b8b" stroke-width="2" points="1584.95,-833.28 1594.12,-827.97 1583.64,-826.4 1584.95,-833.28"/>
</g>
<!-- src/crypto/base32.ts -->
<g id="node5" class="node">
<title>src/crypto/base32.ts</title>
<path fill="#79cdcd" stroke="#79cdcd" d="M1503,-682.89C1503,-682.89 1390,-682.89 1390,-682.89 1384,-682.89 1378,-676.89 1378,-670.89 1378,-670.89 1378,-658.89 1378,-658.89 1378,-652.89 1384,-646.89 1390,-646.89 1390,-646.89 1503,-646.89 1503,-646.89 1509,-646.89 1515,-652.89 1515,-658.89 1515,-658.89 1515,-670.89 1515,-670.89 1515,-676.89 1509,-682.89 1503,-682.89"/>
<text text-anchor="middle" x="1446.5" y="-661.19" font-family="Helvetica,sans-Serif" font-size="14.00">src/crypto/base32.ts</text>
</g>
<!-- src/crypto/crypto&#45;driver&#45;chloride.ts -->
<g id="node6" class="node">
<title>src/crypto/crypto&#45;driver&#45;chloride.ts</title>
<path fill="#79cdcd" stroke="#79cdcd" d="M1260.5,-575.89C1260.5,-575.89 1064.5,-575.89 1064.5,-575.89 1058.5,-575.89 1052.5,-569.89 1052.5,-563.89 1052.5,-563.89 1052.5,-551.89 1052.5,-551.89 1052.5,-545.89 1058.5,-539.89 1064.5,-539.89 1064.5,-539.89 1260.5,-539.89 1260.5,-539.89 1266.5,-539.89 1272.5,-545.89 1272.5,-551.89 1272.5,-551.89 1272.5,-563.89 1272.5,-563.89 1272.5,-569.89 1266.5,-575.89 1260.5,-575.89"/>
<text text-anchor="middle" x="1162.5" y="-554.19" font-family="Helvetica,sans-Serif" font-size="14.00">src/crypto/crypto&#45;driver&#45;chloride.ts</text>
</g>
<!-- src/crypto/crypto&#45;types.ts -->
<g id="node9" class="node">
<title>src/crypto/crypto&#45;types.ts</title>
<path fill="#79cdcd" stroke="#79cdcd" d="M1518,-575.89C1518,-575.89 1375,-575.89 1375,-575.89 1369,-575.89 1363,-569.89 1363,-563.89 1363,-563.89 1363,-551.89 1363,-551.89 1363,-545.89 1369,-539.89 1375,-539.89 1375,-539.89 1518,-539.89 1518,-539.89 1524,-539.89 1530,-545.89 1530,-551.89 1530,-551.89 1530,-563.89 1530,-563.89 1530,-569.89 1524,-575.89 1518,-575.89"/>
<text text-anchor="middle" x="1446.5" y="-554.19" font-family="Helvetica,sans-Serif" font-size="14.00">src/crypto/crypto&#45;types.ts</text>
</g>
<!-- src/crypto/crypto&#45;driver&#45;chloride.ts&#45;&gt;src/crypto/crypto&#45;types.ts -->
<g id="edge3" class="edge">
<title>src/crypto/crypto&#45;driver&#45;chloride.ts&#45;&gt;src/crypto/crypto&#45;types.ts</title>
<path fill="none" stroke="#528b8b" stroke-width="2" d="M1272.53,-557.89C1298.94,-557.89 1326.92,-557.89 1352.51,-557.89"/>
<polygon fill="#528b8b" stroke="#528b8b" stroke-width="2" points="1352.57,-561.4 1362.57,-557.89 1352.57,-554.4 1352.57,-561.4"/>
</g>
<!-- src/crypto/crypto&#45;driver&#45;node.ts -->
<g id="node7" class="node">
<title>src/crypto/crypto&#45;driver&#45;node.ts</title>
<path fill="#79cdcd" stroke="#79cdcd" d="M1252,-521.89C1252,-521.89 1073,-521.89 1073,-521.89 1067,-521.89 1061,-515.89 1061,-509.89 1061,-509.89 1061,-497.89 1061,-497.89 1061,-491.89 1067,-485.89 1073,-485.89 1073,-485.89 1252,-485.89 1252,-485.89 1258,-485.89 1264,-491.89 1264,-497.89 1264,-497.89 1264,-509.89 1264,-509.89 1264,-515.89 1258,-521.89 1252,-521.89"/>
<text text-anchor="middle" x="1162.5" y="-500.19" font-family="Helvetica,sans-Serif" font-size="14.00">src/crypto/crypto&#45;driver&#45;node.ts</text>
</g>
<!-- src/crypto/crypto&#45;driver&#45;node.ts&#45;&gt;src/crypto/crypto&#45;types.ts -->
<g id="edge4" class="edge">
<title>src/crypto/crypto&#45;driver&#45;node.ts&#45;&gt;src/crypto/crypto&#45;types.ts</title>
<path fill="none" stroke="#528b8b" stroke-width="2" d="M1260,-521.96C1275.72,-524.93 1291.81,-527.99 1307,-530.89 1321.8,-533.73 1337.49,-536.76 1352.78,-539.73"/>
<polygon fill="#528b8b" stroke="#528b8b" stroke-width="2" points="1352.28,-543.2 1362.76,-541.67 1353.61,-536.33 1352.28,-543.2"/>
</g>
<!-- src/crypto/crypto&#45;driver&#45;tweetnacl.ts -->
<g id="node8" class="node">
<title>src/crypto/crypto&#45;driver&#45;tweetnacl.ts</title>
<path fill="#79cdcd" stroke="#79cdcd" d="M1265.5,-467.89C1265.5,-467.89 1059.5,-467.89 1059.5,-467.89 1053.5,-467.89 1047.5,-461.89 1047.5,-455.89 1047.5,-455.89 1047.5,-443.89 1047.5,-443.89 1047.5,-437.89 1053.5,-431.89 1059.5,-431.89 1059.5,-431.89 1265.5,-431.89 1265.5,-431.89 1271.5,-431.89 1277.5,-437.89 1277.5,-443.89 1277.5,-443.89 1277.5,-455.89 1277.5,-455.89 1277.5,-461.89 1271.5,-467.89 1265.5,-467.89"/>
<text text-anchor="middle" x="1162.5" y="-446.19" font-family="Helvetica,sans-Serif" font-size="14.00">src/crypto/crypto&#45;driver&#45;tweetnacl.ts</text>
</g>
<!-- src/crypto/crypto&#45;driver&#45;tweetnacl.ts&#45;&gt;src/crypto/crypto&#45;types.ts -->
<g id="edge5" class="edge">
<title>src/crypto/crypto&#45;driver&#45;tweetnacl.ts&#45;&gt;src/crypto/crypto&#45;types.ts</title>
<path fill="none" stroke="#528b8b" stroke-width="2" d="M1277.68,-467.64C1287.72,-470.32 1297.62,-473.39 1307,-476.89 1345.38,-491.24 1385.38,-515.84 1412.46,-534.17"/>
<polygon fill="#528b8b" stroke="#528b8b" stroke-width="2" points="1410.56,-537.11 1420.78,-539.88 1414.52,-531.34 1410.56,-537.11"/>
</g>
<!-- src/crypto/crypto.ts&#45;&gt;src/core&#45;validators/addresses.ts -->
<g id="edge9" class="edge">
<title>src/crypto/crypto.ts&#45;&gt;src/core&#45;validators/addresses.ts</title>
<path fill="none" stroke="#528b8b" stroke-width="2" d="M915.18,-659.91C939.53,-677.35 979.26,-702.85 1018,-714.89 1121.27,-747 1244.97,-753.62 1332.68,-753.33"/>
<polygon fill="#528b8b" stroke="#528b8b" stroke-width="2" points="1332.95,-756.83 1342.92,-753.27 1332.9,-749.83 1332.95,-756.83"/>
</g>
<!-- src/crypto/crypto.ts&#45;&gt;src/crypto/base32.ts -->
<g id="edge7" class="edge">
<title>src/crypto/crypto.ts&#45;&gt;src/crypto/base32.ts</title>
<path fill="none" stroke="#528b8b" stroke-width="2" d="M955.59,-644.56C1057.79,-648.8 1257.34,-657.08 1367.61,-661.66"/>
<polygon fill="#528b8b" stroke="#528b8b" stroke-width="2" points="1367.53,-665.16 1377.67,-662.08 1367.82,-658.17 1367.53,-665.16"/>
</g>
<!-- src/crypto/crypto.ts&#45;&gt;src/crypto/crypto&#45;driver&#45;tweetnacl.ts -->
<g id="edge10" class="edge">
<title>src/crypto/crypto.ts&#45;&gt;src/crypto/crypto&#45;driver&#45;tweetnacl.ts</title>
<path fill="none" stroke="#528b8b" stroke-width="2" d="M951.01,-623.82C962.55,-618.04 973.64,-610.54 982,-600.89 1019.58,-557.52 975.51,-515.47 1018,-476.89 1024,-471.44 1030.75,-466.93 1037.96,-463.21"/>
<polygon fill="#528b8b" stroke="#528b8b" stroke-width="2" points="1039.69,-466.27 1047.31,-458.91 1036.76,-459.91 1039.69,-466.27"/>
</g>
<!-- src/crypto/crypto.ts&#45;&gt;src/crypto/crypto&#45;types.ts -->
<g id="edge6" class="edge">
<title>src/crypto/crypto.ts&#45;&gt;src/crypto/crypto&#45;types.ts</title>
<path fill="none" stroke="#528b8b" stroke-width="2" d="M955.73,-634.22C1037.52,-624.19 1183.1,-605.45 1307,-584.89 1321.87,-582.43 1337.59,-579.59 1352.9,-576.69"/>
<polygon fill="#528b8b" stroke="#528b8b" stroke-width="2" points="1353.71,-580.1 1362.88,-574.79 1352.4,-573.23 1353.71,-580.1"/>
</g>
<!-- src/crypto/keypair.ts -->
<g id="node11" class="node">
<title>src/crypto/keypair.ts</title>
<path fill="#79cdcd" stroke="#79cdcd" d="M1219,-705.89C1219,-705.89 1106,-705.89 1106,-705.89 1100,-705.89 1094,-699.89 1094,-693.89 1094,-693.89 1094,-681.89 1094,-681.89 1094,-675.89 1100,-669.89 1106,-669.89 1106,-669.89 1219,-669.89 1219,-669.89 1225,-669.89 1231,-675.89 1231,-681.89 1231,-681.89 1231,-693.89 1231,-693.89 1231,-699.89 1225,-705.89 1219,-705.89"/>
<text text-anchor="middle" x="1162.5" y="-684.19" font-family="Helvetica,sans-Serif" font-size="14.00">src/crypto/keypair.ts</text>
</g>
<!-- src/crypto/crypto.ts&#45;&gt;src/crypto/keypair.ts -->
<g id="edge8" class="edge">
<title>src/crypto/crypto.ts&#45;&gt;src/crypto/keypair.ts</title>
<path fill="none" stroke="#528b8b" stroke-width="2" d="M955.83,-652.85C994.22,-659.4 1043.23,-667.75 1083.78,-674.65"/>
<polygon fill="#528b8b" stroke="#528b8b" stroke-width="2" points="1083.45,-678.15 1093.9,-676.38 1084.63,-671.25 1083.45,-678.15"/>
</g>
<!-- src/crypto/keypair.ts&#45;&gt;src/core&#45;validators/addresses.ts -->
<g id="edge13" class="edge">
<title>src/crypto/keypair.ts&#45;&gt;src/core&#45;validators/addresses.ts</title>
<path fill="none" stroke="#528b8b" stroke-width="2" d="M1231.05,-702.51C1267.32,-710.35 1312.6,-720.15 1352.19,-728.71"/>
<polygon fill="#528b8b" stroke="#528b8b" stroke-width="2" points="1351.61,-732.17 1362.12,-730.86 1353.09,-725.32 1351.61,-732.17"/>
</g>
<!-- src/crypto/keypair.ts&#45;&gt;src/crypto/base32.ts -->
<g id="edge11" class="edge">
<title>src/crypto/keypair.ts&#45;&gt;src/crypto/base32.ts</title>
<path fill="none" stroke="#528b8b" stroke-width="2" d="M1231.05,-682.39C1272.08,-679.04 1324.62,-674.75 1367.43,-671.26"/>
<polygon fill="#528b8b" stroke="#528b8b" stroke-width="2" points="1367.85,-674.74 1377.53,-670.44 1367.28,-667.76 1367.85,-674.74"/>
</g>
<!-- src/crypto/keypair.ts&#45;&gt;src/crypto/crypto&#45;types.ts -->
<g id="edge12" class="edge">
<title>src/crypto/keypair.ts&#45;&gt;src/crypto/crypto&#45;types.ts</title>
<path fill="none" stroke="#528b8b" stroke-width="2" d="M1202.71,-669.82C1253.5,-646.41 1342.01,-605.6 1396.98,-580.26"/>
<polygon fill="#528b8b" stroke="#528b8b" stroke-width="2" points="1398.55,-583.39 1406.17,-576.03 1395.62,-577.03 1398.55,-583.39"/>
</g>
<!-- src/format&#45;validators/format&#45;validator&#45;es4.ts&#45;&gt;src/core&#45;validators/addresses.ts -->
<g id="edge24" class="edge">
<title>src/format&#45;validators/format&#45;validator&#45;es4.ts&#45;&gt;src/core&#45;validators/addresses.ts</title>
<path fill="none" stroke="#528b8b" stroke-width="2" d="M763.26,-757.21C923.42,-755.26 1184.25,-752.08 1332.71,-750.27"/>
<polygon fill="#528b8b" stroke="#528b8b" stroke-width="2" points="1332.8,-753.77 1342.76,-750.15 1332.72,-746.77 1332.8,-753.77"/>
</g>
<!-- src/format&#45;validators/format&#45;validator&#45;es4.ts&#45;&gt;src/core&#45;validators/characters.ts -->
<g id="edge22" class="edge">
<title>src/format&#45;validators/format&#45;validator&#45;es4.ts&#45;&gt;src/core&#45;validators/characters.ts</title>
<path fill="none" stroke="#528b8b" stroke-width="2" d="M763.18,-766.98C775.3,-767.65 787.37,-768.29 799,-768.89 1078.1,-783.34 1406.58,-797.82 1575.7,-805.09"/>
<polygon fill="#528b8b" stroke="#528b8b" stroke-width="2" points="1575.72,-808.59 1585.86,-805.52 1576.02,-801.6 1575.72,-808.59"/>
</g>
<!-- src/format&#45;validators/format&#45;validator&#45;es4.ts&#45;&gt;src/core&#45;validators/checkers.ts -->
<g id="edge23" class="edge">
<title>src/format&#45;validators/format&#45;validator&#45;es4.ts&#45;&gt;src/core&#45;validators/checkers.ts</title>
<path fill="none" stroke="#528b8b" stroke-width="2" d="M663.03,-777C697.62,-792.52 750.52,-813.89 799,-823.89 984.92,-862.26 1206.97,-863.92 1336.52,-860.62"/>
<polygon fill="#528b8b" stroke="#528b8b" stroke-width="2" points="1336.94,-864.11 1346.84,-860.34 1336.75,-857.11 1336.94,-864.11"/>
</g>
<!-- src/format&#45;validators/format&#45;validator&#45;es4.ts&#45;&gt;src/crypto/crypto.ts -->
<g id="edge21" class="edge">
<title>src/format&#45;validators/format&#45;validator&#45;es4.ts&#45;&gt;src/crypto/crypto.ts</title>
<path fill="none" stroke="#528b8b" stroke-width="2" d="M665.75,-740.87C712.44,-720.21 788.99,-686.36 839.32,-664.09"/>
<polygon fill="#528b8b" stroke="#528b8b" stroke-width="2" points="840.98,-667.19 848.71,-659.94 838.14,-660.78 840.98,-667.19"/>
</g>
<!-- src/format&#45;validators/format&#45;validator&#45;types.ts -->
<g id="node13" class="node">
<title>src/format&#45;validators/format&#45;validator&#45;types.ts</title>
<path fill="#79cdcd" stroke="#79cdcd" d="M1295,-413.89C1295,-413.89 1030,-413.89 1030,-413.89 1024,-413.89 1018,-407.89 1018,-401.89 1018,-401.89 1018,-389.89 1018,-389.89 1018,-383.89 1024,-377.89 1030,-377.89 1030,-377.89 1295,-377.89 1295,-377.89 1301,-377.89 1307,-383.89 1307,-389.89 1307,-389.89 1307,-401.89 1307,-401.89 1307,-407.89 1301,-413.89 1295,-413.89"/>
<text text-anchor="middle" x="1162.5" y="-392.19" font-family="Helvetica,sans-Serif" font-size="14.00">src/format&#45;validators/format&#45;validator&#45;types.ts</text>
</g>
<!-- src/format&#45;validators/format&#45;validator&#45;es4.ts&#45;&gt;src/format&#45;validators/format&#45;validator&#45;types.ts -->
<g id="edge20" class="edge">
<title>src/format&#45;validators/format&#45;validator&#45;es4.ts&#45;&gt;src/format&#45;validators/format&#45;validator&#45;types.ts</title>
<path fill="none" stroke="#528b8b" stroke-width="2" d="M642.77,-740.7C672.65,-710.94 735.92,-651.51 799,-614.89 874.17,-571.26 922.91,-609.64 982,-545.89 1020.72,-504.12 975.78,-461.13 1018,-422.89 1019.14,-421.86 1020.32,-420.85 1021.51,-419.88"/>
<polygon fill="#528b8b" stroke="#528b8b" stroke-width="2" points="1023.68,-422.64 1029.75,-413.95 1019.59,-416.96 1023.68,-422.64"/>
</g>
<!-- src/peer/peer&#45;client.ts -->
<g id="node14" class="node">
<title>src/peer/peer&#45;client.ts</title>
<path fill="#79cdcd" stroke="#79cdcd" d="M397,-505.89C397,-505.89 275,-505.89 275,-505.89 269,-505.89 263,-499.89 263,-493.89 263,-493.89 263,-481.89 263,-481.89 263,-475.89 269,-469.89 275,-469.89 275,-469.89 397,-469.89 397,-469.89 403,-469.89 409,-475.89 409,-481.89 409,-481.89 409,-493.89 409,-493.89 409,-499.89 403,-505.89 397,-505.89"/>
<text text-anchor="middle" x="336" y="-484.19" font-family="Helvetica,sans-Serif" font-size="14.00">src/peer/peer&#45;client.ts</text>
</g>
<!-- src/peer/peer&#45;types.ts -->
<g id="node16" class="node">
<title>src/peer/peer&#45;types.ts</title>
<path fill="#79cdcd" stroke="#79cdcd" d="M685.5,-605.89C685.5,-605.89 562.5,-605.89 562.5,-605.89 556.5,-605.89 550.5,-599.89 550.5,-593.89 550.5,-593.89 550.5,-581.89 550.5,-581.89 550.5,-575.89 556.5,-569.89 562.5,-569.89 562.5,-569.89 685.5,-569.89 685.5,-569.89 691.5,-569.89 697.5,-575.89 697.5,-581.89 697.5,-581.89 697.5,-593.89 697.5,-593.89 697.5,-599.89 691.5,-605.89 685.5,-605.89"/>
<text text-anchor="middle" x="624" y="-584.19" font-family="Helvetica,sans-Serif" font-size="14.00">src/peer/peer&#45;types.ts</text>
</g>
<!-- src/peer/peer&#45;client.ts&#45;&gt;src/peer/peer&#45;types.ts -->
<g id="edge26" class="edge">
<title>src/peer/peer&#45;client.ts&#45;&gt;src/peer/peer&#45;types.ts</title>
<path fill="none" stroke="#528b8b" stroke-width="2" d="M409.18,-503.49C422.53,-506.88 436.27,-510.72 449,-514.89 492.82,-529.26 541.06,-549.9 575.61,-565.57"/>
<polygon fill="#528b8b" stroke="#528b8b" stroke-width="2" points="574.42,-568.88 584.97,-569.85 577.33,-562.51 574.42,-568.88"/>
</g>
<!-- src/storage/compare.ts -->
<g id="node22" class="node">
<title>src/storage/compare.ts</title>
<path fill="#79cdcd" stroke="#79cdcd" d="M956,-326.89C956,-326.89 825,-326.89 825,-326.89 819,-326.89 813,-320.89 813,-314.89 813,-314.89 813,-302.89 813,-302.89 813,-296.89 819,-290.89 825,-290.89 825,-290.89 956,-290.89 956,-290.89 962,-290.89 968,-296.89 968,-302.89 968,-302.89 968,-314.89 968,-314.89 968,-320.89 962,-326.89 956,-326.89"/>
<text text-anchor="middle" x="890.5" y="-305.19" font-family="Helvetica,sans-Serif" font-size="14.00">src/storage/compare.ts</text>
</g>
<!-- src/peer/peer&#45;client.ts&#45;&gt;src/storage/compare.ts -->
<g id="edge27" class="edge">
<title>src/peer/peer&#45;client.ts&#45;&gt;src/storage/compare.ts</title>
<path fill="none" stroke="#528b8b" stroke-width="2" d="M360.54,-469.72C385.12,-449.8 423.58,-415.84 449,-379.89 471.28,-348.39 452.55,-321.77 485,-300.89 535.6,-268.35 699.59,-282.94 802.57,-296.16"/>
<polygon fill="#528b8b" stroke="#528b8b" stroke-width="2" points="802.28,-299.65 812.65,-297.47 803.19,-292.71 802.28,-299.65"/>
</g>
<!-- src/storage/storage&#45;types.ts -->
<g id="node27" class="node">
<title>src/storage/storage&#45;types.ts</title>
<path fill="#79cdcd" stroke="#79cdcd" d="M970,-494.89C970,-494.89 811,-494.89 811,-494.89 805,-494.89 799,-488.89 799,-482.89 799,-482.89 799,-470.89 799,-470.89 799,-464.89 805,-458.89 811,-458.89 811,-458.89 970,-458.89 970,-458.89 976,-458.89 982,-464.89 982,-470.89 982,-470.89 982,-482.89 982,-482.89 982,-488.89 976,-494.89 970,-494.89"/>
<text text-anchor="middle" x="890.5" y="-473.19" font-family="Helvetica,sans-Serif" font-size="14.00">src/storage/storage&#45;types.ts</text>
</g>
<!-- src/peer/peer&#45;client.ts&#45;&gt;src/storage/storage&#45;types.ts -->
<g id="edge25" class="edge">
<title>src/peer/peer&#45;client.ts&#45;&gt;src/storage/storage&#45;types.ts</title>
<path fill="none" stroke="#528b8b" stroke-width="2" d="M409.36,-486.64C494.12,-485.16 638.76,-482.53 763,-479.89 771.37,-479.72 780.04,-479.53 788.76,-479.33"/>
<polygon fill="#528b8b" stroke="#528b8b" stroke-width="2" points="789.06,-482.82 798.98,-479.1 788.9,-475.82 789.06,-482.82"/>
</g>
<!-- src/peer/peer&#45;server.ts -->
<g id="node15" class="node">
<title>src/peer/peer&#45;server.ts</title>
<path fill="#79cdcd" stroke="#79cdcd" d="M400,-613.89C400,-613.89 272,-613.89 272,-613.89 266,-613.89 260,-607.89 260,-601.89 260,-601.89 260,-589.89 260,-589.89 260,-583.89 266,-577.89 272,-577.89 272,-577.89 400,-577.89 400,-577.89 406,-577.89 412,-583.89 412,-589.89 412,-589.89 412,-601.89 412,-601.89 412,-607.89 406,-613.89 400,-613.89"/>
<text text-anchor="middle" x="336" y="-592.19" font-family="Helvetica,sans-Serif" font-size="14.00">src/peer/peer&#45;server.ts</text>
</g>
<!-- src/peer/peer&#45;server.ts&#45;&gt;src/peer/peer&#45;types.ts -->
<g id="edge28" class="edge">
<title>src/peer/peer&#45;server.ts&#45;&gt;src/peer/peer&#45;types.ts</title>
<path fill="none" stroke="#528b8b" stroke-width="2" d="M412.14,-593.79C451.51,-592.69 499.8,-591.34 540.23,-590.21"/>
<polygon fill="#528b8b" stroke="#528b8b" stroke-width="2" points="540.43,-593.71 550.33,-589.93 540.24,-586.71 540.43,-593.71"/>
</g>
<!-- src/peer/peer&#45;types.ts&#45;&gt;src/crypto/crypto.ts -->
<g id="edge31" class="edge">
<title>src/peer/peer&#45;types.ts&#45;&gt;src/crypto/crypto.ts</title>
<path fill="none" stroke="#528b8b" stroke-width="2" d="M697.63,-602.72C734.11,-610.17 778.25,-619.18 815,-626.68"/>
<polygon fill="#528b8b" stroke="#528b8b" stroke-width="2" points="814.65,-630.19 825.15,-628.76 816.05,-623.33 814.65,-630.19"/>
</g>
<!-- src/query/query&#45;types.ts -->
<g id="node20" class="node">
<title>src/query/query&#45;types.ts</title>
<path fill="#79cdcd" stroke="#79cdcd" d="M1231,-204.89C1231,-204.89 1094,-204.89 1094,-204.89 1088,-204.89 1082,-198.89 1082,-192.89 1082,-192.89 1082,-180.89 1082,-180.89 1082,-174.89 1088,-168.89 1094,-168.89 1094,-168.89 1231,-168.89 1231,-168.89 1237,-168.89 1243,-174.89 1243,-180.89 1243,-180.89 1243,-192.89 1243,-192.89 1243,-198.89 1237,-204.89 1231,-204.89"/>
<text text-anchor="middle" x="1162.5" y="-183.19" font-family="Helvetica,sans-Serif" font-size="14.00">src/query/query&#45;types.ts</text>
</g>
<!-- src/peer/peer&#45;types.ts&#45;&gt;src/query/query&#45;types.ts -->
<g id="edge30" class="edge">
<title>src/peer/peer&#45;types.ts&#45;&gt;src/query/query&#45;types.ts</title>
<path fill="none" stroke="#528b8b" stroke-width="2" d="M697.76,-570.14C728.92,-562.58 765.73,-553.73 799,-545.89 880.23,-526.77 925.8,-565.58 982,-503.89 1063.53,-414.4 940.62,-327 1018,-233.89 1031.81,-217.27 1051.61,-206.48 1072.11,-199.49"/>
<polygon fill="#528b8b" stroke="#528b8b" stroke-width="2" points="1073.37,-202.76 1081.88,-196.45 1071.29,-196.08 1073.37,-202.76"/>
</g>
<!-- src/peer/peer&#45;types.ts&#45;&gt;src/storage/storage&#45;types.ts -->
<g id="edge29" class="edge">
<title>src/peer/peer&#45;types.ts&#45;&gt;src/storage/storage&#45;types.ts</title>
<path fill="none" stroke="#528b8b" stroke-width="2" d="M697.81,-579.25C719.77,-574.52 743.26,-567.2 763,-555.89 783.19,-544.33 780.05,-531.39 799,-517.89 808.88,-510.86 820.16,-504.6 831.32,-499.21"/>
<polygon fill="#528b8b" stroke="#528b8b" stroke-width="2" points="833.04,-502.27 840.64,-494.9 830.1,-495.92 833.04,-502.27"/>
</g>
<!-- src/peer/peer.ts&#45;&gt;src/peer/peer&#45;types.ts -->
<g id="edge33" class="edge">
<title>src/peer/peer.ts&#45;&gt;src/peer/peer&#45;types.ts</title>
<path fill="none" stroke="#528b8b" stroke-width="2" d="M391.13,-550.6C433.24,-557.37 492.37,-566.89 540.39,-574.61"/>
<polygon fill="#528b8b" stroke="#528b8b" stroke-width="2" points="540.02,-578.09 550.45,-576.23 541.13,-571.18 540.02,-578.09"/>
</g>
<!-- src/peer/peer.ts&#45;&gt;src/storage/storage&#45;types.ts -->
<g id="edge32" class="edge">
<title>src/peer/peer.ts&#45;&gt;src/storage/storage&#45;types.ts</title>
<path fill="none" stroke="#528b8b" stroke-width="2" d="M391.22,-536.77C472.24,-528.94 629.65,-513.1 763,-495.89 771.31,-494.82 779.92,-493.65 788.56,-492.44"/>
<polygon fill="#528b8b" stroke="#528b8b" stroke-width="2" points="789.29,-495.87 798.7,-491 788.31,-488.94 789.29,-495.87"/>
</g>
<!-- src/query&#45;follower/query&#45;follower&#45;types.ts -->
<g id="node18" class="node">
<title>src/query&#45;follower/query&#45;follower&#45;types.ts</title>
<path fill="#79cdcd" stroke="#79cdcd" d="M743.5,-437.89C743.5,-437.89 504.5,-437.89 504.5,-437.89 498.5,-437.89 492.5,-431.89 492.5,-425.89 492.5,-425.89 492.5,-413.89 492.5,-413.89 492.5,-407.89 498.5,-401.89 504.5,-401.89 504.5,-401.89 743.5,-401.89 743.5,-401.89 749.5,-401.89 755.5,-407.89 755.5,-413.89 755.5,-413.89 755.5,-425.89 755.5,-425.89 755.5,-431.89 749.5,-437.89 743.5,-437.89"/>
<text text-anchor="middle" x="624" y="-416.19" font-family="Helvetica,sans-Serif" font-size="14.00">src/query&#45;follower/query&#45;follower&#45;types.ts</text>
</g>
<!-- src/query&#45;follower/query&#45;follower&#45;types.ts&#45;&gt;src/storage/storage&#45;types.ts -->
<g id="edge34" class="edge">
<title>src/query&#45;follower/query&#45;follower&#45;types.ts&#45;&gt;src/storage/storage&#45;types.ts</title>
<path fill="none" stroke="#528b8b" stroke-width="2" d="M708.69,-437.93C736.44,-443.91 767.51,-450.61 795.96,-456.74"/>
<polygon fill="#528b8b" stroke="#528b8b" stroke-width="2" points="795.39,-460.19 805.9,-458.88 796.86,-453.35 795.39,-460.19"/>
</g>
<!-- src/query&#45;follower/query&#45;follower.ts&#45;&gt;src/query&#45;follower/query&#45;follower&#45;types.ts -->
<g id="edge39" class="edge">
<title>src/query&#45;follower/query&#45;follower.ts&#45;&gt;src/query&#45;follower/query&#45;follower&#45;types.ts</title>
<path fill="none" stroke="#528b8b" stroke-width="2" d="M356.94,-300.17C383.95,-323.94 434.6,-365.11 485,-387.89 494.26,-392.08 504.12,-395.75 514.15,-398.96"/>
<polygon fill="#528b8b" stroke="#528b8b" stroke-width="2" points="513.21,-402.33 523.8,-401.89 515.25,-395.63 513.21,-402.33"/>
</g>
<!-- src/query&#45;follower/query&#45;follower.ts&#45;&gt;src/query/query&#45;types.ts -->
<g id="edge36" class="edge">
<title>src/query&#45;follower/query&#45;follower.ts&#45;&gt;src/query/query&#45;types.ts</title>
<path fill="none" stroke="#528b8b" stroke-width="2" d="M356.11,-263.75C382.59,-239.99 433.07,-199.53 485,-183.89 687.5,-122.93 939.81,-149.21 1071.69,-170.16"/>
<polygon fill="#528b8b" stroke="#528b8b" stroke-width="2" points="1071.31,-173.65 1081.74,-171.79 1072.43,-166.74 1071.31,-173.65"/>
</g>
<!-- src/query/query.ts -->
<g id="node21" class="node">
<title>src/query/query.ts</title>
<path fill="#79cdcd" stroke="#79cdcd" d="M940,-82.89C940,-82.89 841,-82.89 841,-82.89 835,-82.89 829,-76.89 829,-70.89 829,-70.89 829,-58.89 829,-58.89 829,-52.89 835,-46.89 841,-46.89 841,-46.89 940,-46.89 940,-46.89 946,-46.89 952,-52.89 952,-58.89 952,-58.89 952,-70.89 952,-70.89 952,-76.89 946,-82.89 940,-82.89"/>
<text text-anchor="middle" x="890.5" y="-61.19" font-family="Helvetica,sans-Serif" font-size="14.00">src/query/query.ts</text>
</g>
<!-- src/query&#45;follower/query&#45;follower.ts&#45;&gt;src/query/query.ts -->
<g id="edge38" class="edge">
<title>src/query&#45;follower/query&#45;follower.ts&#45;&gt;src/query/query.ts</title>
<path fill="none" stroke="#528b8b" stroke-width="2" d="M345.13,-263.88C363.61,-225.3 412.87,-135.14 485,-96.89 541.04,-67.19 718.37,-63.44 818.64,-63.83"/>
<polygon fill="#528b8b" stroke="#528b8b" stroke-width="2" points="818.67,-67.33 828.69,-63.88 818.71,-60.33 818.67,-67.33"/>
</g>
<!-- src/query&#45;follower/query&#45;follower.ts&#45;&gt;src/storage/storage&#45;types.ts -->
<g id="edge37" class="edge">
<title>src/query&#45;follower/query&#45;follower.ts&#45;&gt;src/storage/storage&#45;types.ts</title>
<path fill="none" stroke="#528b8b" stroke-width="2" d="M366.43,-299.97C395.48,-316.94 441.72,-341.65 485,-354.89 604.24,-391.39 648.48,-343.53 763,-392.89 781.87,-401.03 782.18,-410.09 799,-421.89 814.72,-432.93 832.69,-444.12 848.45,-453.5"/>
<polygon fill="#528b8b" stroke="#528b8b" stroke-width="2" points="847.04,-456.74 857.44,-458.8 850.6,-450.71 847.04,-456.74"/>
</g>
<!-- src/storage/util&#45;types.ts -->
<g id="node28" class="node">
<title>src/storage/util&#45;types.ts</title>
<path fill="#79cdcd" stroke="#79cdcd" d="M1228,-278.89C1228,-278.89 1097,-278.89 1097,-278.89 1091,-278.89 1085,-272.89 1085,-266.89 1085,-266.89 1085,-254.89 1085,-254.89 1085,-248.89 1091,-242.89 1097,-242.89 1097,-242.89 1228,-242.89 1228,-242.89 1234,-242.89 1240,-248.89 1240,-254.89 1240,-254.89 1240,-266.89 1240,-266.89 1240,-272.89 1234,-278.89 1228,-278.89"/>
<text text-anchor="middle" x="1162.5" y="-257.19" font-family="Helvetica,sans-Serif" font-size="14.00">src/storage/util&#45;types.ts</text>
</g>
<!-- src/query&#45;follower/query&#45;follower.ts&#45;&gt;src/storage/util&#45;types.ts -->
<g id="edge35" class="edge">
<title>src/query&#45;follower/query&#45;follower.ts&#45;&gt;src/storage/util&#45;types.ts</title>
<path fill="none" stroke="#528b8b" stroke-width="2" d="M363.93,-263.86C392.54,-245.87 439.8,-219.44 485,-208.89 698.61,-159.08 959.39,-209.24 1085.7,-240.3"/>
<polygon fill="#528b8b" stroke="#528b8b" stroke-width="2" points="1085.12,-243.76 1095.66,-242.78 1086.81,-236.97 1085.12,-243.76"/>
</g>
<!-- src/query/query.ts&#45;&gt;src/query/query&#45;types.ts -->
<g id="edge40" class="edge">
<title>src/query/query.ts&#45;&gt;src/query/query&#45;types.ts</title>
<path fill="none" stroke="#528b8b" stroke-width="2" d="M946,-82.93C957.97,-87.23 970.5,-92 982,-96.89 1030.14,-117.38 1083.54,-144.78 1119.47,-163.95"/>
<polygon fill="#528b8b" stroke="#528b8b" stroke-width="2" points="1118.2,-167.24 1128.67,-168.88 1121.51,-161.07 1118.2,-167.24"/>
</g>
<!-- src/storage/compare.ts&#45;&gt;src/storage/util&#45;types.ts -->
<g id="edge41" class="edge">
<title>src/storage/compare.ts&#45;&gt;src/storage/util&#45;types.ts</title>
<path fill="none" stroke="#528b8b" stroke-width="2" d="M968.15,-295.27C1001.35,-289.37 1040.39,-282.43 1074.66,-276.33"/>
<polygon fill="#528b8b" stroke="#528b8b" stroke-width="2" points="1075.43,-279.75 1084.66,-274.56 1074.2,-272.86 1075.43,-279.75"/>
</g>
<!-- src/storage/lock.ts -->
<g id="node23" class="node">
<title>src/storage/lock.ts</title>
<path fill="#79cdcd" stroke="#79cdcd" d="M1213,-350.89C1213,-350.89 1112,-350.89 1112,-350.89 1106,-350.89 1100,-344.89 1100,-338.89 1100,-338.89 1100,-326.89 1100,-326.89 1100,-320.89 1106,-314.89 1112,-314.89 1112,-314.89 1213,-314.89 1213,-314.89 1219,-314.89 1225,-320.89 1225,-326.89 1225,-326.89 1225,-338.89 1225,-338.89 1225,-344.89 1219,-350.89 1213,-350.89"/>
<text text-anchor="middle" x="1162.5" y="-329.19" font-family="Helvetica,sans-Serif" font-size="14.00">src/storage/lock.ts</text>
</g>
<!-- src/storage/storage&#45;async.ts&#45;&gt;src/crypto/crypto.ts -->
<g id="edge47" class="edge">
<title>src/storage/storage&#45;async.ts&#45;&gt;src/crypto/crypto.ts</title>
<path fill="none" stroke="#528b8b" stroke-width="2" d="M690.02,-346.01C715.81,-356.1 743.83,-371.13 763,-392.89 797.28,-431.81 776.58,-457.13 799,-503.89 818.78,-545.16 849.11,-588.65 869.12,-615.53"/>
<polygon fill="#528b8b" stroke="#528b8b" stroke-width="2" points="866.42,-617.76 875.23,-623.64 872.01,-613.55 866.42,-617.76"/>
</g>
<!-- src/storage/storage&#45;async.ts&#45;&gt;src/format&#45;validators/format&#45;validator&#45;types.ts -->
<g id="edge45" class="edge">
<title>src/storage/storage&#45;async.ts&#45;&gt;src/format&#45;validators/format&#45;validator&#45;types.ts</title>
<path fill="none" stroke="#528b8b" stroke-width="2" d="M717.03,-341.86C732.92,-346.31 748.86,-352.18 763,-359.89 782.59,-370.59 778.34,-386.47 799,-394.89 882.52,-428.94 986.14,-425.18 1061.17,-415.27"/>
<polygon fill="#528b8b" stroke="#528b8b" stroke-width="2" points="1061.67,-418.74 1071.1,-413.9 1060.72,-411.8 1061.67,-418.74"/>
</g>
<!-- src/storage/storage&#45;async.ts&#45;&gt;src/query/query&#45;types.ts -->
<g id="edge43" class="edge">
<title>src/storage/storage&#45;async.ts&#45;&gt;src/query/query&#45;types.ts</title>
<path fill="none" stroke="#528b8b" stroke-width="2" d="M717.05,-342.01C808.53,-353.96 940.94,-364.94 982,-335.89 1021.24,-308.13 983.62,-267.5 1018,-233.89 1032.9,-219.33 1052.39,-209.28 1072.17,-202.34"/>
<polygon fill="#528b8b" stroke="#528b8b" stroke-width="2" points="1073.46,-205.6 1081.89,-199.18 1071.29,-198.94 1073.46,-205.6"/>
</g>
<!-- src/storage/storage&#45;async.ts&#45;&gt;src/storage/compare.ts -->
<g id="edge46" class="edge">
<title>src/storage/storage&#45;async.ts&#45;&gt;src/storage/compare.ts</title>
<path fill="none" stroke="#528b8b" stroke-width="2" d="M717.14,-321.28C744.77,-319.29 774.98,-317.12 802.28,-315.16"/>
<polygon fill="#528b8b" stroke="#528b8b" stroke-width="2" points="802.87,-318.63 812.59,-314.42 802.37,-311.65 802.87,-318.63"/>
</g>
<!-- src/storage/storage&#45;async.ts&#45;&gt;src/storage/storage&#45;types.ts -->
<g id="edge44" class="edge">
<title>src/storage/storage&#45;async.ts&#45;&gt;src/storage/storage&#45;types.ts</title>
<path fill="none" stroke="#528b8b" stroke-width="2" d="M717.18,-336.59C733.76,-341.51 749.92,-348.9 763,-359.89 794.4,-386.29 769.12,-416.78 799,-444.89 802.37,-448.06 806.07,-450.92 809.99,-453.5"/>
<polygon fill="#528b8b" stroke="#528b8b" stroke-width="2" points="808.49,-456.68 818.89,-458.7 812.02,-450.63 808.49,-456.68"/>
</g>
<!-- src/storage/storage&#45;async.ts&#45;&gt;src/storage/util&#45;types.ts -->
<g id="edge42" class="edge">
<title>src/storage/storage&#45;async.ts&#45;&gt;src/storage/util&#45;types.ts</title>
<path fill="none" stroke="#528b8b" stroke-width="2" d="M703.87,-345.94C723.22,-350.43 743.87,-355.29 763,-359.89 857.71,-382.71 897.74,-417.79 982,-368.89 1009.89,-352.71 992.88,-326.12 1018,-305.89 1034.5,-292.61 1054.96,-283.22 1075.21,-276.6"/>
<polygon fill="#528b8b" stroke="#528b8b" stroke-width="2" points="1076.27,-279.94 1084.8,-273.66 1074.22,-273.25 1076.27,-279.94"/>
</g>
<!-- src/storage/storage&#45;cache.ts -->
<g id="node25" class="node">
<title>src/storage/storage&#45;cache.ts</title>
<path fill="#79cdcd" stroke="#79cdcd" d="M175,-322.89C175,-322.89 12,-322.89 12,-322.89 6,-322.89 0,-316.89 0,-310.89 0,-310.89 0,-298.89 0,-298.89 0,-292.89 6,-286.89 12,-286.89 12,-286.89 175,-286.89 175,-286.89 181,-286.89 187,-292.89 187,-298.89 187,-298.89 187,-310.89 187,-310.89 187,-316.89 181,-322.89 175,-322.89"/>
<text text-anchor="middle" x="93.5" y="-301.19" font-family="Helvetica,sans-Serif" font-size="14.00">src/storage/storage&#45;cache.ts</text>
</g>
<!-- src/storage/storage&#45;cache.ts&#45;&gt;src/crypto/crypto.ts -->
<g id="edge53" class="edge">
<title>src/storage/storage&#45;cache.ts&#45;&gt;src/crypto/crypto.ts</title>
<path fill="none" stroke="#528b8b" stroke-width="2" d="M107.54,-323.17C127.49,-351.96 165.54,-410.24 187,-464.89 213.32,-531.94 167.35,-577.18 223,-622.89 267.82,-659.71 651,-650.52 815.25,-644.8"/>
<polygon fill="#528b8b" stroke="#528b8b" stroke-width="2" points="815.4,-648.3 825.27,-644.45 815.16,-641.3 815.4,-648.3"/>
</g>
<!-- src/storage/storage&#45;cache.ts&#45;&gt;src/query&#45;follower/query&#45;follower.ts -->
<g id="edge49" class="edge">
<title>src/storage/storage&#45;cache.ts&#45;&gt;src/query&#45;follower/query&#45;follower.ts</title>
<path fill="none" stroke="#528b8b" stroke-width="2" d="M187.14,-296.04C195.51,-295.24 204.07,-294.42 212.64,-293.6"/>
<polygon fill="#528b8b" stroke="#528b8b" stroke-width="2" points="213.08,-297.07 222.7,-292.63 212.41,-290.1 213.08,-297.07"/>
</g>
<!-- src/storage/storage&#45;cache.ts&#45;&gt;src/query/query&#45;types.ts -->
<g id="edge50" class="edge">
<title>src/storage/storage&#45;cache.ts&#45;&gt;src/query/query&#45;types.ts</title>
<path fill="none" stroke="#528b8b" stroke-width="2" d="M98.52,-286.8C109.54,-241.77 144.81,-124.47 223,-70.89 319.91,-4.49 367.78,-43.69 485,-35.89 705.4,-21.24 774.58,38.05 982,-37.89 1049.78,-62.71 1110.18,-125.18 1140.63,-160.86"/>
<polygon fill="#528b8b" stroke="#528b8b" stroke-width="2" points="1138.25,-163.47 1147.36,-168.89 1143.62,-158.98 1138.25,-163.47"/>
</g>
<!-- src/storage/storage&#45;cache.ts&#45;&gt;src/query/query.ts -->
<g id="edge48" class="edge">
<title>src/storage/storage&#45;cache.ts&#45;&gt;src/query/query.ts</title>
<path fill="none" stroke="#528b8b" stroke-width="2" d="M114.07,-286.86C168.03,-238.52 325.55,-106.62 485,-60.89 598.25,-28.42 736.77,-40.23 818.81,-52.22"/>
<polygon fill="#528b8b" stroke="#528b8b" stroke-width="2" points="818.37,-55.69 828.78,-53.72 819.41,-48.77 818.37,-55.69"/>
</g>
<!-- src/storage/storage&#45;cache.ts&#45;&gt;src/storage/storage&#45;async.ts -->
<g id="edge51" class="edge">
<title>src/storage/storage&#45;cache.ts&#45;&gt;src/storage/storage&#45;async.ts</title>
<path fill="none" stroke="#528b8b" stroke-width="2" d="M187.16,-308.93C280.52,-312.99 424.2,-319.24 520.81,-323.45"/>
<polygon fill="#528b8b" stroke="#528b8b" stroke-width="2" points="520.74,-326.95 530.89,-323.89 521.05,-319.95 520.74,-326.95"/>
</g>
<!-- src/storage/storage&#45;cache.ts&#45;&gt;src/storage/storage&#45;types.ts -->
<g id="edge52" class="edge">
<title>src/storage/storage&#45;cache.ts&#45;&gt;src/storage/storage&#45;types.ts</title>
<path fill="none" stroke="#528b8b" stroke-width="2" d="M133.08,-322.98C201.98,-354.35 351.52,-418.25 485,-446.89 586.95,-468.77 706.29,-475.38 788.8,-477.06"/>
<polygon fill="#528b8b" stroke="#528b8b" stroke-width="2" points="788.86,-480.56 798.93,-477.25 788.99,-473.56 788.86,-480.56"/>
</g>
<!-- src/storage/storage&#45;driver&#45;async&#45;memory.ts&#45;&gt;src/query/query&#45;types.ts -->
<g id="edge55" class="edge">
<title>src/storage/storage&#45;driver&#45;async&#45;memory.ts&#45;&gt;src/query/query&#45;types.ts</title>
<path fill="none" stroke="#528b8b" stroke-width="2" d="M763.16,-223.28C860.27,-214.41 987.4,-202.8 1071.62,-195.1"/>
<polygon fill="#528b8b" stroke="#528b8b" stroke-width="2" points="1072.03,-198.58 1081.67,-194.19 1071.39,-191.61 1072.03,-198.58"/>
</g>
<!-- src/storage/storage&#45;driver&#45;async&#45;memory.ts&#45;&gt;src/query/query.ts -->
<g id="edge58" class="edge">
<title>src/storage/storage&#45;driver&#45;async&#45;memory.ts&#45;&gt;src/query/query.ts</title>
<path fill="none" stroke="#528b8b" stroke-width="2" d="M653.31,-217.59C701.53,-186.42 799.57,-123.04 852.92,-88.54"/>
<polygon fill="#528b8b" stroke="#528b8b" stroke-width="2" points="854.9,-91.43 861.4,-83.06 851.1,-85.55 854.9,-91.43"/>
</g>
<!-- src/storage/storage&#45;driver&#45;async&#45;memory.ts&#45;&gt;src/storage/compare.ts -->
<g id="edge57" class="edge">
<title>src/storage/storage&#45;driver&#45;async&#45;memory.ts&#45;&gt;src/storage/compare.ts</title>
<path fill="none" stroke="#528b8b" stroke-width="2" d="M708.12,-253.96C726.28,-258.24 745.34,-263 763,-267.89 784.22,-273.78 807.19,-280.98 827.66,-287.68"/>
<polygon fill="#528b8b" stroke="#528b8b" stroke-width="2" points="826.59,-291.01 837.18,-290.83 828.78,-284.37 826.59,-291.01"/>
</g>
<!-- src/storage/storage&#45;driver&#45;async&#45;memory.ts&#45;&gt;src/storage/lock.ts -->
<g id="edge59" class="edge">
<title>src/storage/storage&#45;driver&#45;async&#45;memory.ts&#45;&gt;src/storage/lock.ts</title>
<path fill="none" stroke="#528b8b" stroke-width="2" d="M763.11,-248.85C829.65,-256.32 910.38,-267.19 982,-281.89 1020.42,-289.78 1062.64,-301.61 1096.47,-311.9"/>
<polygon fill="#528b8b" stroke="#528b8b" stroke-width="2" points="1095.65,-315.3 1106.24,-314.89 1097.7,-308.61 1095.65,-315.3"/>
</g>
<!-- src/storage/storage&#45;driver&#45;async&#45;memory.ts&#45;&gt;src/storage/storage&#45;types.ts -->
<g id="edge56" class="edge">
<title>src/storage/storage&#45;driver&#45;async&#45;memory.ts&#45;&gt;src/storage/storage&#45;types.ts</title>
<path fill="none" stroke="#528b8b" stroke-width="2" d="M679.1,-253.96C706.19,-264.76 738.37,-280.4 763,-300.89 814.6,-343.82 855.71,-412.38 875.9,-450.01"/>
<polygon fill="#528b8b" stroke="#528b8b" stroke-width="2" points="872.81,-451.66 880.57,-458.87 879,-448.39 872.81,-451.66"/>
</g>
<!-- src/storage/storage&#45;driver&#45;async&#45;memory.ts&#45;&gt;src/storage/util&#45;types.ts -->
<g id="edge54" class="edge">
<title>src/storage/storage&#45;driver&#45;async&#45;memory.ts&#45;&gt;src/storage/util&#45;types.ts</title>
<path fill="none" stroke="#528b8b" stroke-width="2" d="M763.21,-239.95C829.43,-242.14 909.84,-245.17 982,-248.89 1012.13,-250.45 1045.09,-252.54 1074.44,-254.54"/>
<polygon fill="#528b8b" stroke="#528b8b" stroke-width="2" points="1074.45,-258.05 1084.66,-255.24 1074.93,-251.07 1074.45,-258.05"/>
</g>
<!-- src/storage/storage&#45;types.ts&#45;&gt;src/format&#45;validators/format&#45;validator&#45;types.ts -->
<g id="edge61" class="edge">
<title>src/storage/storage&#45;types.ts&#45;&gt;src/format&#45;validators/format&#45;validator&#45;types.ts</title>
<path fill="none" stroke="#528b8b" stroke-width="2" d="M948.24,-458.88C959.6,-454.71 971.32,-449.98 982,-444.89 998.93,-436.84 1000.5,-429.63 1018,-422.89 1023.61,-420.74 1029.41,-418.75 1035.32,-416.91"/>
<polygon fill="#528b8b" stroke="#528b8b" stroke-width="2" points="1036.74,-420.15 1045.35,-413.97 1034.76,-413.43 1036.74,-420.15"/>
</g>
<!-- src/storage/storage&#45;types.ts&#45;&gt;src/query/query&#45;types.ts -->
<g id="edge60" class="edge">
<title>src/storage/storage&#45;types.ts&#45;&gt;src/query/query&#45;types.ts</title>
<path fill="none" stroke="#528b8b" stroke-width="2" d="M911,-458.87C931.57,-438.81 963.51,-404.5 982,-368.89 1010.62,-313.79 975.34,-279.01 1018,-233.89 1032.54,-218.52 1052.17,-208.17 1072.25,-201.2"/>
<polygon fill="#528b8b" stroke="#528b8b" stroke-width="2" points="1073.35,-204.52 1081.8,-198.14 1071.21,-197.86 1073.35,-204.52"/>
</g>
<!-- src/storage/storage&#45;types.ts&#45;&gt;src/storage/lock.ts -->
<g id="edge62" class="edge">
<title>src/storage/storage&#45;types.ts&#45;&gt;src/storage/lock.ts</title>
<path fill="none" stroke="#528b8b" stroke-width="2" d="M916.91,-458.87C935.53,-445.29 961.08,-425.82 982,-406.89 999.25,-391.29 997.92,-380.64 1018,-368.89 1039.83,-356.13 1066.08,-347.86 1090.14,-342.52"/>
<polygon fill="#528b8b" stroke="#528b8b" stroke-width="2" points="1090.87,-345.94 1099.94,-340.47 1089.44,-339.09 1090.87,-345.94"/>
</g>
</g>
</svg>
