<?xml version="1.0" encoding="UTF-8" standalone="no"?>
<!DOCTYPE svg PUBLIC "-//W3C//DTD SVG 1.1//EN"
 "http://www.w3.org/Graphics/SVG/1.1/DTD/svg11.dtd">
<!-- Generated by graphviz version 2.44.1 (20200629.0846)
 -->
<!-- Title: G Pages: 1 -->
<svg width="872pt" height="1110pt"
 viewBox="0.00 0.00 872.00 1109.93" xmlns="http://www.w3.org/2000/svg" xmlns:xlink="http://www.w3.org/1999/xlink">
<g id="graph0" class="graph" transform="scale(1 1) rotate(0) translate(4 1105.93)">
<title>G</title>
<polygon fill="white" stroke="transparent" points="-4,4 -4,-1105.93 868,-1105.93 868,4 -4,4"/>
<g id="clust1" class="cluster">
<title>cluster7045891644</title>
<path fill="bisque" stroke="#8b7d6b" stroke-width="2" d="M613,-442.93C613,-442.93 844,-442.93 844,-442.93 850,-442.93 856,-448.93 856,-454.93 856,-454.93 856,-559.93 856,-559.93 856,-565.93 850,-571.93 844,-571.93 844,-571.93 613,-571.93 613,-571.93 607,-571.93 601,-565.93 601,-559.93 601,-559.93 601,-454.93 601,-454.93 601,-448.93 607,-442.93 613,-442.93"/>
<text text-anchor="start" x="680" y="-557.73" font-family="Helvetica,sans-Serif" font-weight="bold" font-size="14.00">core&#45;validators</text>
</g>
<g id="clust2" class="cluster">
<title>cluster2130603810</title>
<path fill="bisque" stroke="#8b7d6b" stroke-width="2" d="M220,-618.93C220,-618.93 703.5,-618.93 703.5,-618.93 709.5,-618.93 715.5,-624.93 715.5,-630.93 715.5,-630.93 715.5,-883.93 715.5,-883.93 715.5,-889.93 709.5,-895.93 703.5,-895.93 703.5,-895.93 220,-895.93 220,-895.93 214,-895.93 208,-889.93 208,-883.93 208,-883.93 208,-630.93 208,-630.93 208,-624.93 214,-618.93 220,-618.93"/>
<text text-anchor="start" x="440.75" y="-881.73" font-family="Helvetica,sans-Serif" font-weight="bold" font-size="14.00">crypto</text>
</g>
<g id="clust3" class="cluster">
<title>cluster2237696328</title>
<path fill="bisque" stroke="#8b7d6b" stroke-width="2" d="M178,-450.93C178,-450.93 550.5,-450.93 550.5,-450.93 556.5,-450.93 562.5,-456.93 562.5,-462.93 562.5,-462.93 562.5,-513.93 562.5,-513.93 562.5,-519.93 556.5,-525.93 550.5,-525.93 550.5,-525.93 178,-525.93 178,-525.93 172,-525.93 166,-519.93 166,-513.93 166,-513.93 166,-462.93 166,-462.93 166,-456.93 172,-450.93 178,-450.93"/>
<text text-anchor="start" x="308.25" y="-511.73" font-family="Helvetica,sans-Serif" font-weight="bold" font-size="14.00">format&#45;validators</text>
</g>
<g id="clust4" class="cluster">
<title>cluster3678266191</title>
<path fill="bisque" stroke="#8b7d6b" stroke-width="2" d="M150,-51.93C150,-51.93 702,-51.93 702,-51.93 708,-51.93 714,-57.93 714,-63.93 714,-63.93 714,-362.93 714,-362.93 714,-368.93 708,-374.93 702,-374.93 702,-374.93 150,-374.93 150,-374.93 144,-374.93 138,-368.93 138,-362.93 138,-362.93 138,-63.93 138,-63.93 138,-57.93 144,-51.93 150,-51.93"/>
<text text-anchor="start" x="401.5" y="-360.73" font-family="Helvetica,sans-Serif" font-weight="bold" font-size="14.00">storage</text>
</g>
<!-- src/example&#45;app.ts -->
<g id="node1" class="node">
<title>src/example&#45;app.ts</title>
<path fill="#79cdcd" stroke="#79cdcd" d="M98,-304.93C98,-304.93 12,-304.93 12,-304.93 6,-304.93 0,-298.93 0,-292.93 0,-292.93 0,-280.93 0,-280.93 0,-274.93 6,-268.93 12,-268.93 12,-268.93 98,-268.93 98,-268.93 104,-268.93 110,-274.93 110,-280.93 110,-280.93 110,-292.93 110,-292.93 110,-298.93 104,-304.93 98,-304.93"/>
<text text-anchor="middle" x="55" y="-283.23" font-family="Helvetica,sans-Serif" font-size="14.00">example&#45;app.ts</text>
</g>
<!-- src/crypto/crypto&#45;driver&#45;tweetnacl.ts -->
<g id="node8" class="node">
<title>src/crypto/crypto&#45;driver&#45;tweetnacl.ts</title>
<path fill="#79cdcd" stroke="#79cdcd" d="M545,-756.93C545,-756.93 402,-756.93 402,-756.93 396,-756.93 390,-750.93 390,-744.93 390,-744.93 390,-732.93 390,-732.93 390,-726.93 396,-720.93 402,-720.93 402,-720.93 545,-720.93 545,-720.93 551,-720.93 557,-726.93 557,-732.93 557,-732.93 557,-744.93 557,-744.93 557,-750.93 551,-756.93 545,-756.93"/>
<text text-anchor="middle" x="473.5" y="-735.23" font-family="Helvetica,sans-Serif" font-size="14.00">crypto&#45;driver&#45;tweetnacl.ts</text>
</g>
<!-- src/example&#45;app.ts&#45;&gt;src/crypto/crypto&#45;driver&#45;tweetnacl.ts -->
<g id="edge18" class="edge">
<title>src/example&#45;app.ts&#45;&gt;src/crypto/crypto&#45;driver&#45;tweetnacl.ts</title>
<path fill="none" stroke="#528b8b" stroke-width="2" d="M57.27,-304.97C62.5,-373.86 84.64,-619.22 138,-671.93 200.88,-734.05 304.11,-746.51 379.29,-746.1"/>
<polygon fill="#528b8b" stroke="#528b8b" stroke-width="2" points="379.75,-749.6 389.71,-745.97 379.66,-742.6 379.75,-749.6"/>
</g>
<!-- src/crypto/crypto.ts -->
<g id="node10" class="node">
<title>src/crypto/crypto.ts</title>
<path fill="#79cdcd" stroke="#79cdcd" d="M272,-662.93C272,-662.93 228,-662.93 228,-662.93 222,-662.93 216,-656.93 216,-650.93 216,-650.93 216,-638.93 216,-638.93 216,-632.93 222,-626.93 228,-626.93 228,-626.93 272,-626.93 272,-626.93 278,-626.93 284,-632.93 284,-638.93 284,-638.93 284,-650.93 284,-650.93 284,-656.93 278,-662.93 272,-662.93"/>
<text text-anchor="middle" x="250" y="-641.23" font-family="Helvetica,sans-Serif" font-size="14.00">crypto.ts</text>
</g>
<!-- src/example&#45;app.ts&#45;&gt;src/crypto/crypto.ts -->
<g id="edge17" class="edge">
<title>src/example&#45;app.ts&#45;&gt;src/crypto/crypto.ts</title>
<path fill="none" stroke="#528b8b" stroke-width="2" d="M59.29,-305.17C67.46,-347.28 91.48,-453.48 138,-529.93 159.6,-565.44 193.93,-598.77 218.69,-620.31"/>
<polygon fill="#528b8b" stroke="#528b8b" stroke-width="2" points="216.49,-623.03 226.37,-626.88 221.04,-617.72 216.49,-623.03"/>
</g>
<!-- src/format&#45;validators/format&#45;validator&#45;es4.ts -->
<g id="node12" class="node">
<title>src/format&#45;validators/format&#45;validator&#45;es4.ts</title>
<path fill="#79cdcd" stroke="#79cdcd" d="M314,-494.93C314,-494.93 186,-494.93 186,-494.93 180,-494.93 174,-488.93 174,-482.93 174,-482.93 174,-470.93 174,-470.93 174,-464.93 180,-458.93 186,-458.93 186,-458.93 314,-458.93 314,-458.93 320,-458.93 326,-464.93 326,-470.93 326,-470.93 326,-482.93 326,-482.93 326,-488.93 320,-494.93 314,-494.93"/>
<text text-anchor="middle" x="250" y="-473.23" font-family="Helvetica,sans-Serif" font-size="14.00">format&#45;validator&#45;es4.ts</text>
</g>
<!-- src/example&#45;app.ts&#45;&gt;src/format&#45;validators/format&#45;validator&#45;es4.ts -->
<g id="edge13" class="edge">
<title>src/example&#45;app.ts&#45;&gt;src/format&#45;validators/format&#45;validator&#45;es4.ts</title>
<path fill="none" stroke="#528b8b" stroke-width="2" d="M71.11,-305.14C87.12,-324.13 113.43,-354.48 138,-378.93 164.4,-405.21 196.48,-433.14 219.35,-452.43"/>
<polygon fill="#528b8b" stroke="#528b8b" stroke-width="2" points="217.12,-455.13 227.03,-458.88 221.62,-449.77 217.12,-455.13"/>
</g>
<!-- src/storage/follower.ts -->
<g id="node15" class="node">
<title>src/storage/follower.ts</title>
<path fill="#79cdcd" stroke="#79cdcd" d="M276.5,-135.93C276.5,-135.93 223.5,-135.93 223.5,-135.93 217.5,-135.93 211.5,-129.93 211.5,-123.93 211.5,-123.93 211.5,-111.93 211.5,-111.93 211.5,-105.93 217.5,-99.93 223.5,-99.93 223.5,-99.93 276.5,-99.93 276.5,-99.93 282.5,-99.93 288.5,-105.93 288.5,-111.93 288.5,-111.93 288.5,-123.93 288.5,-123.93 288.5,-129.93 282.5,-135.93 276.5,-135.93"/>
<text text-anchor="middle" x="250" y="-114.23" font-family="Helvetica,sans-Serif" font-size="14.00">follower.ts</text>
</g>
<!-- src/example&#45;app.ts&#45;&gt;src/storage/follower.ts -->
<g id="edge16" class="edge">
<title>src/example&#45;app.ts&#45;&gt;src/storage/follower.ts</title>
<path fill="none" stroke="#528b8b" stroke-width="2" d="M64.02,-268.79C76.42,-242.6 102.57,-194.16 138,-164.93 156.47,-149.7 180.59,-138.7 201.63,-131.18"/>
<polygon fill="#528b8b" stroke="#528b8b" stroke-width="2" points="203.02,-134.41 211.36,-127.87 200.77,-127.78 203.02,-134.41"/>
</g>
<!-- src/storage/storage&#45;async.ts -->
<g id="node19" class="node">
<title>src/storage/storage&#45;async.ts</title>
<path fill="#79cdcd" stroke="#79cdcd" d="M296,-304.93C296,-304.93 204,-304.93 204,-304.93 198,-304.93 192,-298.93 192,-292.93 192,-292.93 192,-280.93 192,-280.93 192,-274.93 198,-268.93 204,-268.93 204,-268.93 296,-268.93 296,-268.93 302,-268.93 308,-274.93 308,-280.93 308,-280.93 308,-292.93 308,-292.93 308,-298.93 302,-304.93 296,-304.93"/>
<text text-anchor="middle" x="250" y="-283.23" font-family="Helvetica,sans-Serif" font-size="14.00">storage&#45;async.ts</text>
</g>
<!-- src/example&#45;app.ts&#45;&gt;src/storage/storage&#45;async.ts -->
<g id="edge15" class="edge">
<title>src/example&#45;app.ts&#45;&gt;src/storage/storage&#45;async.ts</title>
<path fill="none" stroke="#528b8b" stroke-width="2" d="M110.02,-286.93C132.26,-286.93 158.27,-286.93 181.73,-286.93"/>
<polygon fill="#528b8b" stroke="#528b8b" stroke-width="2" points="181.96,-290.43 191.96,-286.93 181.96,-283.43 181.96,-290.43"/>
</g>
<!-- src/storage/storage&#45;driver&#45;async&#45;memory.ts -->
<g id="node20" class="node">
<title>src/storage/storage&#45;driver&#45;async&#45;memory.ts</title>
<path fill="#79cdcd" stroke="#79cdcd" d="M342,-209.93C342,-209.93 158,-209.93 158,-209.93 152,-209.93 146,-203.93 146,-197.93 146,-197.93 146,-185.93 146,-185.93 146,-179.93 152,-173.93 158,-173.93 158,-173.93 342,-173.93 342,-173.93 348,-173.93 354,-179.93 354,-185.93 354,-185.93 354,-197.93 354,-197.93 354,-203.93 348,-209.93 342,-209.93"/>
<text text-anchor="middle" x="250" y="-188.23" font-family="Helvetica,sans-Serif" font-size="14.00">storage&#45;driver&#45;async&#45;memory.ts</text>
</g>
<!-- src/example&#45;app.ts&#45;&gt;src/storage/storage&#45;driver&#45;async&#45;memory.ts -->
<g id="edge14" class="edge">
<title>src/example&#45;app.ts&#45;&gt;src/storage/storage&#45;driver&#45;async&#45;memory.ts</title>
<path fill="none" stroke="#528b8b" stroke-width="2" d="M92.76,-268.84C124.15,-253.39 169.44,-231.09 203.19,-214.48"/>
<polygon fill="#528b8b" stroke="#528b8b" stroke-width="2" points="204.95,-217.51 212.38,-209.96 201.86,-211.23 204.95,-217.51"/>
</g>
<!-- chalk -->
<g id="node28" class="node">
<title>chalk</title>
<polygon fill="#cdc8b1" stroke="#8b8878" points="500.5,-41.93 450.5,-41.93 446.5,-37.93 446.5,-5.93 496.5,-5.93 500.5,-9.93 500.5,-41.93"/>
<polyline fill="none" stroke="#8b8878" points="496.5,-37.93 446.5,-37.93 "/>
<polyline fill="none" stroke="#8b8878" points="496.5,-37.93 496.5,-5.93 "/>
<polyline fill="none" stroke="#8b8878" points="496.5,-37.93 500.5,-41.93 "/>
<text text-anchor="middle" x="473.5" y="-20.23" font-family="Helvetica,sans-Serif" font-size="14.00">chalk</text>
</g>
<!-- src/example&#45;app.ts&#45;&gt;chalk -->
<g id="edge48" class="edge">
<title>src/example&#45;app.ts&#45;&gt;chalk</title>
<path fill="none" stroke="#8b8878" stroke-width="1.5" stroke-dasharray="5,2" d="M55.98,-268.79C57.02,-223.04 66.74,-102.78 138,-47.93 226.25,19.99 369.35,-0.19 436.08,-14.73"/>
<polygon fill="#8b8878" stroke="#8b8878" stroke-width="1.5" points="435.59,-18.21 446.11,-17 437.13,-11.38 435.59,-18.21"/>
</g>
<!-- src/core&#45;validators/addresses.ts -->
<g id="node2" class="node">
<title>src/core&#45;validators/addresses.ts</title>
<path fill="#79cdcd" stroke="#79cdcd" d="M690,-540.93C690,-540.93 621,-540.93 621,-540.93 615,-540.93 609,-534.93 609,-528.93 609,-528.93 609,-516.93 609,-516.93 609,-510.93 615,-504.93 621,-504.93 621,-504.93 690,-504.93 690,-504.93 696,-504.93 702,-510.93 702,-516.93 702,-516.93 702,-528.93 702,-528.93 702,-534.93 696,-540.93 690,-540.93"/>
<text text-anchor="middle" x="655.5" y="-519.23" font-family="Helvetica,sans-Serif" font-size="14.00">addresses.ts</text>
</g>
<!-- src/core&#45;validators/characters.ts -->
<g id="node3" class="node">
<title>src/core&#45;validators/characters.ts</title>
<path fill="#79cdcd" stroke="#79cdcd" d="M836,-486.93C836,-486.93 766,-486.93 766,-486.93 760,-486.93 754,-480.93 754,-474.93 754,-474.93 754,-462.93 754,-462.93 754,-456.93 760,-450.93 766,-450.93 766,-450.93 836,-450.93 836,-450.93 842,-450.93 848,-456.93 848,-462.93 848,-462.93 848,-474.93 848,-474.93 848,-480.93 842,-486.93 836,-486.93"/>
<text text-anchor="middle" x="801" y="-465.23" font-family="Helvetica,sans-Serif" font-size="14.00">characters.ts</text>
</g>
<!-- src/core&#45;validators/addresses.ts&#45;&gt;src/core&#45;validators/characters.ts -->
<g id="edge1" class="edge">
<title>src/core&#45;validators/addresses.ts&#45;&gt;src/core&#45;validators/characters.ts</title>
<path fill="none" stroke="#528b8b" stroke-width="2" d="M702.3,-505.7C715.63,-500.68 730.34,-495.15 744.21,-489.93"/>
<polygon fill="#528b8b" stroke="#528b8b" stroke-width="2" points="745.52,-493.17 753.65,-486.37 743.06,-486.62 745.52,-493.17"/>
</g>
<!-- src/core&#45;validators/checkers.ts -->
<g id="node4" class="node">
<title>src/core&#45;validators/checkers.ts</title>
<path fill="#79cdcd" stroke="#79cdcd" d="M686,-486.93C686,-486.93 625,-486.93 625,-486.93 619,-486.93 613,-480.93 613,-474.93 613,-474.93 613,-462.93 613,-462.93 613,-456.93 619,-450.93 625,-450.93 625,-450.93 686,-450.93 686,-450.93 692,-450.93 698,-456.93 698,-462.93 698,-462.93 698,-474.93 698,-474.93 698,-480.93 692,-486.93 686,-486.93"/>
<text text-anchor="middle" x="655.5" y="-465.23" font-family="Helvetica,sans-Serif" font-size="14.00">checkers.ts</text>
</g>
<!-- src/core&#45;validators/checkers.ts&#45;&gt;src/core&#45;validators/characters.ts -->
<g id="edge2" class="edge">
<title>src/core&#45;validators/checkers.ts&#45;&gt;src/core&#45;validators/characters.ts</title>
<path fill="none" stroke="#528b8b" stroke-width="2" d="M698.01,-468.93C712.2,-468.93 728.32,-468.93 743.49,-468.93"/>
<polygon fill="#528b8b" stroke="#528b8b" stroke-width="2" points="743.8,-472.43 753.8,-468.93 743.8,-465.43 743.8,-472.43"/>
</g>
<!-- src/crypto/base32.ts -->
<g id="node5" class="node">
<title>src/crypto/base32.ts</title>
<path fill="#79cdcd" stroke="#79cdcd" d="M681,-664.93C681,-664.93 630,-664.93 630,-664.93 624,-664.93 618,-658.93 618,-652.93 618,-652.93 618,-640.93 618,-640.93 618,-634.93 624,-628.93 630,-628.93 630,-628.93 681,-628.93 681,-628.93 687,-628.93 693,-634.93 693,-640.93 693,-640.93 693,-652.93 693,-652.93 693,-658.93 687,-664.93 681,-664.93"/>
<text text-anchor="middle" x="655.5" y="-643.23" font-family="Helvetica,sans-Serif" font-size="14.00">base32.ts</text>
</g>
<!-- rfc4648 -->
<g id="node23" class="node">
<title>rfc4648</title>
<polygon fill="#cdc8b1" stroke="#8b8878" points="832,-664.93 774,-664.93 770,-660.93 770,-628.93 828,-628.93 832,-632.93 832,-664.93"/>
<polyline fill="none" stroke="#8b8878" points="828,-660.93 770,-660.93 "/>
<polyline fill="none" stroke="#8b8878" points="828,-660.93 828,-628.93 "/>
<polyline fill="none" stroke="#8b8878" points="828,-660.93 832,-664.93 "/>
<text text-anchor="middle" x="801" y="-643.23" font-family="Helvetica,sans-Serif" font-size="14.00">rfc4648</text>
</g>
<!-- src/crypto/base32.ts&#45;&gt;rfc4648 -->
<g id="edge43" class="edge">
<title>src/crypto/base32.ts&#45;&gt;rfc4648</title>
<path fill="none" stroke="#8b8878" stroke-width="1.5" stroke-dasharray="5,2" d="M693.08,-646.93C713.4,-646.93 738.71,-646.93 759.61,-646.93"/>
<polygon fill="#8b8878" stroke="#8b8878" stroke-width="1.5" points="759.78,-650.43 769.78,-646.93 759.78,-643.43 759.78,-650.43"/>
</g>
<!-- src/crypto/crypto&#45;driver&#45;chloride.ts -->
<g id="node6" class="node">
<title>src/crypto/crypto&#45;driver&#45;chloride.ts</title>
<path fill="#79cdcd" stroke="#79cdcd" d="M540.5,-864.93C540.5,-864.93 406.5,-864.93 406.5,-864.93 400.5,-864.93 394.5,-858.93 394.5,-852.93 394.5,-852.93 394.5,-840.93 394.5,-840.93 394.5,-834.93 400.5,-828.93 406.5,-828.93 406.5,-828.93 540.5,-828.93 540.5,-828.93 546.5,-828.93 552.5,-834.93 552.5,-840.93 552.5,-840.93 552.5,-852.93 552.5,-852.93 552.5,-858.93 546.5,-864.93 540.5,-864.93"/>
<text text-anchor="middle" x="473.5" y="-843.23" font-family="Helvetica,sans-Serif" font-size="14.00">crypto&#45;driver&#45;chloride.ts</text>
</g>
<!-- src/crypto/crypto&#45;types.ts -->
<g id="node9" class="node">
<title>src/crypto/crypto&#45;types.ts</title>
<path fill="#79cdcd" stroke="#79cdcd" d="M695.5,-719.93C695.5,-719.93 615.5,-719.93 615.5,-719.93 609.5,-719.93 603.5,-713.93 603.5,-707.93 603.5,-707.93 603.5,-695.93 603.5,-695.93 603.5,-689.93 609.5,-683.93 615.5,-683.93 615.5,-683.93 695.5,-683.93 695.5,-683.93 701.5,-683.93 707.5,-689.93 707.5,-695.93 707.5,-695.93 707.5,-707.93 707.5,-707.93 707.5,-713.93 701.5,-719.93 695.5,-719.93"/>
<text text-anchor="middle" x="655.5" y="-698.23" font-family="Helvetica,sans-Serif" font-size="14.00">crypto&#45;types.ts</text>
</g>
<!-- src/crypto/crypto&#45;driver&#45;chloride.ts&#45;&gt;src/crypto/crypto&#45;types.ts -->
<g id="edge3" class="edge">
<title>src/crypto/crypto&#45;driver&#45;chloride.ts&#45;&gt;src/crypto/crypto&#45;types.ts</title>
<path fill="none" stroke="#528b8b" stroke-width="2" d="M546.83,-828.82C552.33,-826.23 557.63,-823.29 562.5,-819.93 596.95,-796.21 624.46,-755.65 640.13,-728.81"/>
<polygon fill="#528b8b" stroke="#528b8b" stroke-width="2" points="643.27,-730.37 645.17,-719.94 637.19,-726.91 643.27,-730.37"/>
</g>
<!-- chloride/small -->
<g id="node24" class="node">
<title>chloride/small</title>
<polygon fill="#cdc8b1" stroke="#8b8878" points="705.5,-1101.93 609.5,-1101.93 605.5,-1097.93 605.5,-1065.93 701.5,-1065.93 705.5,-1069.93 705.5,-1101.93"/>
<polyline fill="none" stroke="#8b8878" points="701.5,-1097.93 605.5,-1097.93 "/>
<polyline fill="none" stroke="#8b8878" points="701.5,-1097.93 701.5,-1065.93 "/>
<polyline fill="none" stroke="#8b8878" points="701.5,-1097.93 705.5,-1101.93 "/>
<text text-anchor="middle" x="655.5" y="-1080.23" font-family="Helvetica,sans-Serif" font-size="14.00">chloride/small</text>
</g>
<!-- src/crypto/crypto&#45;driver&#45;chloride.ts&#45;&gt;chloride/small -->
<g id="edge44" class="edge">
<title>src/crypto/crypto&#45;driver&#45;chloride.ts&#45;&gt;chloride/small</title>
<path fill="none" stroke="#8b8878" stroke-width="1.5" stroke-dasharray="5,2" d="M480.32,-865.22C493.88,-905.15 531.22,-1001.05 593,-1056.93 594.28,-1058.09 595.61,-1059.2 597,-1060.27"/>
<polygon fill="#8b8878" stroke="#8b8878" stroke-width="1.5" points="595.11,-1063.22 605.34,-1065.95 599.04,-1057.43 595.11,-1063.22"/>
</g>
<!-- src/crypto/crypto&#45;driver&#45;node.ts -->
<g id="node7" class="node">
<title>src/crypto/crypto&#45;driver&#45;node.ts</title>
<path fill="#79cdcd" stroke="#79cdcd" d="M531.5,-810.93C531.5,-810.93 415.5,-810.93 415.5,-810.93 409.5,-810.93 403.5,-804.93 403.5,-798.93 403.5,-798.93 403.5,-786.93 403.5,-786.93 403.5,-780.93 409.5,-774.93 415.5,-774.93 415.5,-774.93 531.5,-774.93 531.5,-774.93 537.5,-774.93 543.5,-780.93 543.5,-786.93 543.5,-786.93 543.5,-798.93 543.5,-798.93 543.5,-804.93 537.5,-810.93 531.5,-810.93"/>
<text text-anchor="middle" x="473.5" y="-789.23" font-family="Helvetica,sans-Serif" font-size="14.00">crypto&#45;driver&#45;node.ts</text>
</g>
<!-- src/crypto/crypto&#45;driver&#45;node.ts&#45;&gt;src/crypto/crypto&#45;types.ts -->
<g id="edge4" class="edge">
<title>src/crypto/crypto&#45;driver&#45;node.ts&#45;&gt;src/crypto/crypto&#45;types.ts</title>
<path fill="none" stroke="#528b8b" stroke-width="2" d="M541.19,-774.9C548.51,-772.21 555.75,-769.22 562.5,-765.93 584.6,-755.18 607.29,-739.45 624.61,-726.28"/>
<polygon fill="#528b8b" stroke="#528b8b" stroke-width="2" points="626.89,-728.94 632.66,-720.05 622.61,-723.41 626.89,-728.94"/>
</g>
<!-- crypto -->
<g id="node25" class="node">
<title>crypto</title>
<polygon fill="#cdc8b1" stroke="#8b8878" points="682.5,-1047.93 632.5,-1047.93 628.5,-1043.93 628.5,-1011.93 678.5,-1011.93 682.5,-1015.93 682.5,-1047.93"/>
<polyline fill="none" stroke="#8b8878" points="678.5,-1043.93 628.5,-1043.93 "/>
<polyline fill="none" stroke="#8b8878" points="678.5,-1043.93 678.5,-1011.93 "/>
<polyline fill="none" stroke="#8b8878" points="678.5,-1043.93 682.5,-1047.93 "/>
<text text-anchor="middle" x="655.5" y="-1026.23" font-family="Helvetica,sans-Serif" font-size="14.00">crypto</text>
</g>
<!-- src/crypto/crypto&#45;driver&#45;node.ts&#45;&gt;crypto -->
<g id="edge45" class="edge">
<title>src/crypto/crypto&#45;driver&#45;node.ts&#45;&gt;crypto</title>
<path fill="none" stroke="#8b8878" stroke-width="1.5" stroke-dasharray="5,2" d="M543.52,-805.57C550.67,-809.23 557.24,-813.92 562.5,-819.93 616.82,-881.97 542.37,-937.85 593,-1002.93 599.5,-1011.28 609.12,-1017.11 618.83,-1021.15"/>
<polygon fill="#8b8878" stroke="#8b8878" stroke-width="1.5" points="617.86,-1024.52 628.46,-1024.62 620.24,-1017.93 617.86,-1024.52"/>
</g>
<!-- src/crypto/crypto&#45;driver&#45;tweetnacl.ts&#45;&gt;src/crypto/crypto&#45;types.ts -->
<g id="edge5" class="edge">
<title>src/crypto/crypto&#45;driver&#45;tweetnacl.ts&#45;&gt;src/crypto/crypto&#45;types.ts</title>
<path fill="none" stroke="#528b8b" stroke-width="2" d="M557.12,-721.95C569.35,-719.44 581.75,-716.89 593.43,-714.48"/>
<polygon fill="#528b8b" stroke="#528b8b" stroke-width="2" points="594.39,-717.86 603.49,-712.42 592.99,-711 594.39,-717.86"/>
</g>
<!-- tweetnacl -->
<g id="node26" class="node">
<title>tweetnacl</title>
<polygon fill="#cdc8b1" stroke="#8b8878" points="692.5,-993.93 622.5,-993.93 618.5,-989.93 618.5,-957.93 688.5,-957.93 692.5,-961.93 692.5,-993.93"/>
<polyline fill="none" stroke="#8b8878" points="688.5,-989.93 618.5,-989.93 "/>
<polyline fill="none" stroke="#8b8878" points="688.5,-989.93 688.5,-957.93 "/>
<polyline fill="none" stroke="#8b8878" points="688.5,-989.93 692.5,-993.93 "/>
<text text-anchor="middle" x="655.5" y="-972.23" font-family="Helvetica,sans-Serif" font-size="14.00">tweetnacl</text>
</g>
<!-- src/crypto/crypto&#45;driver&#45;tweetnacl.ts&#45;&gt;tweetnacl -->
<g id="edge46" class="edge">
<title>src/crypto/crypto&#45;driver&#45;tweetnacl.ts&#45;&gt;tweetnacl</title>
<path fill="none" stroke="#8b8878" stroke-width="1.5" stroke-dasharray="5,2" d="M552.56,-757.02C556.2,-759.61 559.55,-762.57 562.5,-765.93 616.82,-827.97 542.37,-883.85 593,-948.93 597.28,-954.44 602.92,-958.84 609.04,-962.36"/>
<polygon fill="#8b8878" stroke="#8b8878" stroke-width="1.5" points="607.75,-965.63 618.27,-966.91 610.85,-959.35 607.75,-965.63"/>
</g>
<!-- sha256&#45;uint8array -->
<g id="node27" class="node">
<title>sha256&#45;uint8array</title>
<polygon fill="#cdc8b1" stroke="#8b8878" points="718,-939.93 597,-939.93 593,-935.93 593,-903.93 714,-903.93 718,-907.93 718,-939.93"/>
<polyline fill="none" stroke="#8b8878" points="714,-935.93 593,-935.93 "/>
<polyline fill="none" stroke="#8b8878" points="714,-935.93 714,-903.93 "/>
<polyline fill="none" stroke="#8b8878" points="714,-935.93 718,-939.93 "/>
<text text-anchor="middle" x="655.5" y="-918.23" font-family="Helvetica,sans-Serif" font-size="14.00">sha256&#45;uint8array</text>
</g>
<!-- src/crypto/crypto&#45;driver&#45;tweetnacl.ts&#45;&gt;sha256&#45;uint8array -->
<g id="edge47" class="edge">
<title>src/crypto/crypto&#45;driver&#45;tweetnacl.ts&#45;&gt;sha256&#45;uint8array</title>
<path fill="none" stroke="#8b8878" stroke-width="1.5" stroke-dasharray="5,2" d="M551.93,-756.96C555.78,-759.56 559.35,-762.54 562.5,-765.93 601.79,-808.24 557.84,-849.47 590.41,-895.69"/>
<polygon fill="#8b8878" stroke="#8b8878" stroke-width="1.5" points="587.89,-898.13 596.86,-903.76 593.35,-893.76 587.89,-898.13"/>
</g>
<!-- src/crypto/crypto.ts&#45;&gt;src/core&#45;validators/addresses.ts -->
<g id="edge9" class="edge">
<title>src/crypto/crypto.ts&#45;&gt;src/core&#45;validators/addresses.ts</title>
<path fill="none" stroke="#528b8b" stroke-width="2" d="M284.02,-634.95C353.18,-614.04 513.89,-565.45 599.12,-539.68"/>
<polygon fill="#528b8b" stroke="#528b8b" stroke-width="2" points="600.32,-542.97 608.88,-536.73 598.3,-536.27 600.32,-542.97"/>
</g>
<!-- src/crypto/crypto.ts&#45;&gt;src/crypto/base32.ts -->
<g id="edge7" class="edge">
<title>src/crypto/crypto.ts&#45;&gt;src/crypto/base32.ts</title>
<path fill="none" stroke="#528b8b" stroke-width="2" d="M284.21,-642.63C341.18,-639.04 461.2,-632.99 562.5,-637.93 577.2,-638.65 593.18,-640.01 607.64,-641.46"/>
<polygon fill="#528b8b" stroke="#528b8b" stroke-width="2" points="607.54,-644.97 617.85,-642.52 608.27,-638 607.54,-644.97"/>
</g>
<!-- src/crypto/crypto.ts&#45;&gt;src/crypto/crypto&#45;types.ts -->
<g id="edge6" class="edge">
<title>src/crypto/crypto.ts&#45;&gt;src/crypto/crypto&#45;types.ts</title>
<path fill="none" stroke="#528b8b" stroke-width="2" d="M284.27,-659.21C311.98,-670.37 352.8,-685.09 390,-691.93 458.78,-704.59 539.26,-705.73 593.23,-704.57"/>
<polygon fill="#528b8b" stroke="#528b8b" stroke-width="2" points="593.41,-708.07 603.32,-704.33 593.23,-701.07 593.41,-708.07"/>
</g>
<!-- src/crypto/keypair.ts -->
<g id="node11" class="node">
<title>src/crypto/keypair.ts</title>
<path fill="#79cdcd" stroke="#79cdcd" d="M498.5,-682.93C498.5,-682.93 448.5,-682.93 448.5,-682.93 442.5,-682.93 436.5,-676.93 436.5,-670.93 436.5,-670.93 436.5,-658.93 436.5,-658.93 436.5,-652.93 442.5,-646.93 448.5,-646.93 448.5,-646.93 498.5,-646.93 498.5,-646.93 504.5,-646.93 510.5,-652.93 510.5,-658.93 510.5,-658.93 510.5,-670.93 510.5,-670.93 510.5,-676.93 504.5,-682.93 498.5,-682.93"/>
<text text-anchor="middle" x="473.5" y="-661.23" font-family="Helvetica,sans-Serif" font-size="14.00">keypair.ts</text>
</g>
<!-- src/crypto/crypto.ts&#45;&gt;src/crypto/keypair.ts -->
<g id="edge8" class="edge">
<title>src/crypto/crypto.ts&#45;&gt;src/crypto/keypair.ts</title>
<path fill="none" stroke="#528b8b" stroke-width="2" d="M284.16,-647.93C321.85,-651.33 383.62,-656.91 426.08,-660.74"/>
<polygon fill="#528b8b" stroke="#528b8b" stroke-width="2" points="425.89,-664.24 436.16,-661.65 426.52,-657.27 425.89,-664.24"/>
</g>
<!-- src/crypto/keypair.ts&#45;&gt;src/core&#45;validators/addresses.ts -->
<g id="edge12" class="edge">
<title>src/crypto/keypair.ts&#45;&gt;src/core&#45;validators/addresses.ts</title>
<path fill="none" stroke="#528b8b" stroke-width="2" d="M497.66,-646.66C529.66,-621.42 587.48,-575.8 623.27,-547.57"/>
<polygon fill="#528b8b" stroke="#528b8b" stroke-width="2" points="625.74,-550.08 631.43,-541.14 621.41,-544.58 625.74,-550.08"/>
</g>
<!-- src/crypto/keypair.ts&#45;&gt;src/crypto/base32.ts -->
<g id="edge10" class="edge">
<title>src/crypto/keypair.ts&#45;&gt;src/crypto/base32.ts</title>
<path fill="none" stroke="#528b8b" stroke-width="2" d="M510.93,-661.29C538.77,-658.51 577.37,-654.65 607.53,-651.63"/>
<polygon fill="#528b8b" stroke="#528b8b" stroke-width="2" points="608.22,-655.08 617.82,-650.6 607.52,-648.11 608.22,-655.08"/>
</g>
<!-- src/crypto/keypair.ts&#45;&gt;src/crypto/crypto&#45;types.ts -->
<g id="edge11" class="edge">
<title>src/crypto/keypair.ts&#45;&gt;src/crypto/crypto&#45;types.ts</title>
<path fill="none" stroke="#528b8b" stroke-width="2" d="M510.93,-672.42C534.62,-677.29 566.11,-683.76 593.56,-689.4"/>
<polygon fill="#528b8b" stroke="#528b8b" stroke-width="2" points="592.96,-692.86 603.46,-691.44 594.37,-686 592.96,-692.86"/>
</g>
<!-- src/format&#45;validators/format&#45;validator&#45;es4.ts&#45;&gt;src/core&#45;validators/addresses.ts -->
<g id="edge23" class="edge">
<title>src/format&#45;validators/format&#45;validator&#45;es4.ts&#45;&gt;src/core&#45;validators/addresses.ts</title>
<path fill="none" stroke="#528b8b" stroke-width="2" d="M326.11,-493.23C346.74,-497.24 369.16,-501.17 390,-503.93 461.82,-513.45 545.28,-518.45 598.94,-520.88"/>
<polygon fill="#528b8b" stroke="#528b8b" stroke-width="2" points="598.79,-524.38 608.93,-521.32 599.1,-517.39 598.79,-524.38"/>
</g>
<!-- src/format&#45;validators/format&#45;validator&#45;es4.ts&#45;&gt;src/core&#45;validators/characters.ts -->
<g id="edge21" class="edge">
<title>src/format&#45;validators/format&#45;validator&#45;es4.ts&#45;&gt;src/core&#45;validators/characters.ts</title>
<path fill="none" stroke="#528b8b" stroke-width="2" d="M305.47,-458.92C330.85,-451.43 361.65,-443.64 390,-439.93 534.55,-421.02 574.21,-417.92 718,-441.93 726.59,-443.37 735.51,-445.54 744.16,-448.05"/>
<polygon fill="#528b8b" stroke="#528b8b" stroke-width="2" points="743.2,-451.41 753.79,-450.99 745.25,-444.72 743.2,-451.41"/>
</g>
<!-- src/format&#45;validators/format&#45;validator&#45;es4.ts&#45;&gt;src/core&#45;validators/checkers.ts -->
<g id="edge22" class="edge">
<title>src/format&#45;validators/format&#45;validator&#45;es4.ts&#45;&gt;src/core&#45;validators/checkers.ts</title>
<path fill="none" stroke="#528b8b" stroke-width="2" d="M326,-459.63C346.63,-455.63 369.08,-451.95 390,-449.93 466.31,-442.59 486.23,-442.14 562.5,-449.93 575.56,-451.27 589.5,-453.64 602.48,-456.27"/>
<polygon fill="#528b8b" stroke="#528b8b" stroke-width="2" points="602.14,-459.77 612.64,-458.41 603.58,-452.92 602.14,-459.77"/>
</g>
<!-- src/format&#45;validators/format&#45;validator&#45;es4.ts&#45;&gt;src/crypto/crypto&#45;types.ts -->
<g id="edge20" class="edge">
<title>src/format&#45;validators/format&#45;validator&#45;es4.ts&#45;&gt;src/crypto/crypto&#45;types.ts</title>
<path fill="none" stroke="#528b8b" stroke-width="2" d="M299.24,-494.94C363.54,-520.41 478.92,-571.38 562.5,-637.93 578.9,-651 576.28,-661.28 593,-673.93 595.09,-675.51 597.28,-677.03 599.54,-678.48"/>
<polygon fill="#528b8b" stroke="#528b8b" stroke-width="2" points="598.14,-681.72 608.53,-683.77 601.68,-675.68 598.14,-681.72"/>
</g>
<!-- src/format&#45;validators/format&#45;validator&#45;types.ts -->
<g id="node13" class="node">
<title>src/format&#45;validators/format&#45;validator&#45;types.ts</title>
<path fill="#79cdcd" stroke="#79cdcd" d="M542.5,-494.93C542.5,-494.93 404.5,-494.93 404.5,-494.93 398.5,-494.93 392.5,-488.93 392.5,-482.93 392.5,-482.93 392.5,-470.93 392.5,-470.93 392.5,-464.93 398.5,-458.93 404.5,-458.93 404.5,-458.93 542.5,-458.93 542.5,-458.93 548.5,-458.93 554.5,-464.93 554.5,-470.93 554.5,-470.93 554.5,-482.93 554.5,-482.93 554.5,-488.93 548.5,-494.93 542.5,-494.93"/>
<text text-anchor="middle" x="473.5" y="-473.23" font-family="Helvetica,sans-Serif" font-size="14.00">format&#45;validator&#45;types.ts</text>
</g>
<!-- src/format&#45;validators/format&#45;validator&#45;es4.ts&#45;&gt;src/format&#45;validators/format&#45;validator&#45;types.ts -->
<g id="edge19" class="edge">
<title>src/format&#45;validators/format&#45;validator&#45;es4.ts&#45;&gt;src/format&#45;validators/format&#45;validator&#45;types.ts</title>
<path fill="none" stroke="#528b8b" stroke-width="2" d="M326.3,-476.93C344.29,-476.93 363.67,-476.93 382.26,-476.93"/>
<polygon fill="#528b8b" stroke="#528b8b" stroke-width="2" points="382.49,-480.43 392.49,-476.93 382.49,-473.43 382.49,-480.43"/>
</g>
<!-- src/format&#45;validators/format&#45;validator&#45;types.ts&#45;&gt;src/crypto/crypto&#45;types.ts -->
<g id="edge24" class="edge">
<title>src/format&#45;validators/format&#45;validator&#45;types.ts&#45;&gt;src/crypto/crypto&#45;types.ts</title>
<path fill="none" stroke="#528b8b" stroke-width="2" d="M492.61,-494.94C512.17,-515.26 543.13,-550.04 562.5,-584.93 582.8,-621.49 564.9,-642.97 593,-673.93 594.17,-675.22 595.4,-676.45 596.7,-677.62"/>
<polygon fill="#528b8b" stroke="#528b8b" stroke-width="2" points="594.61,-680.44 604.66,-683.8 598.9,-674.9 594.61,-680.44"/>
</g>
<!-- src/storage/compare.ts -->
<g id="node14" class="node">
<title>src/storage/compare.ts</title>
<path fill="#79cdcd" stroke="#79cdcd" d="M503.5,-323.93C503.5,-323.93 443.5,-323.93 443.5,-323.93 437.5,-323.93 431.5,-317.93 431.5,-311.93 431.5,-311.93 431.5,-299.93 431.5,-299.93 431.5,-293.93 437.5,-287.93 443.5,-287.93 443.5,-287.93 503.5,-287.93 503.5,-287.93 509.5,-287.93 515.5,-293.93 515.5,-299.93 515.5,-299.93 515.5,-311.93 515.5,-311.93 515.5,-317.93 509.5,-323.93 503.5,-323.93"/>
<text text-anchor="middle" x="473.5" y="-302.23" font-family="Helvetica,sans-Serif" font-size="14.00">compare.ts</text>
</g>
<!-- src/storage/util&#45;types.ts -->
<g id="node22" class="node">
<title>src/storage/util&#45;types.ts</title>
<path fill="#79cdcd" stroke="#79cdcd" d="M686,-294.93C686,-294.93 625,-294.93 625,-294.93 619,-294.93 613,-288.93 613,-282.93 613,-282.93 613,-270.93 613,-270.93 613,-264.93 619,-258.93 625,-258.93 625,-258.93 686,-258.93 686,-258.93 692,-258.93 698,-264.93 698,-270.93 698,-270.93 698,-282.93 698,-282.93 698,-288.93 692,-294.93 686,-294.93"/>
<text text-anchor="middle" x="655.5" y="-273.23" font-family="Helvetica,sans-Serif" font-size="14.00">util&#45;types.ts</text>
</g>
<!-- src/storage/compare.ts&#45;&gt;src/storage/util&#45;types.ts -->
<g id="edge25" class="edge">
<title>src/storage/compare.ts&#45;&gt;src/storage/util&#45;types.ts</title>
<path fill="none" stroke="#528b8b" stroke-width="2" d="M515.8,-299.28C541.68,-295.11 575.25,-289.7 602.89,-285.25"/>
<polygon fill="#528b8b" stroke="#528b8b" stroke-width="2" points="603.46,-288.7 612.77,-283.65 602.34,-281.79 603.46,-288.7"/>
</g>
<!-- src/storage/query&#45;types.ts -->
<g id="node17" class="node">
<title>src/storage/query&#45;types.ts</title>
<path fill="#79cdcd" stroke="#79cdcd" d="M694,-172.93C694,-172.93 617,-172.93 617,-172.93 611,-172.93 605,-166.93 605,-160.93 605,-160.93 605,-148.93 605,-148.93 605,-142.93 611,-136.93 617,-136.93 617,-136.93 694,-136.93 694,-136.93 700,-136.93 706,-142.93 706,-148.93 706,-148.93 706,-160.93 706,-160.93 706,-166.93 700,-172.93 694,-172.93"/>
<text text-anchor="middle" x="655.5" y="-151.23" font-family="Helvetica,sans-Serif" font-size="14.00">query&#45;types.ts</text>
</g>
<!-- src/storage/follower.ts&#45;&gt;src/storage/query&#45;types.ts -->
<g id="edge27" class="edge">
<title>src/storage/follower.ts&#45;&gt;src/storage/query&#45;types.ts</title>
<path fill="none" stroke="#528b8b" stroke-width="2" d="M288.9,-104.33C349.04,-84.97 469.1,-55.53 562.5,-90.93 579.43,-97.35 578.4,-107.22 593,-117.93 599.36,-122.6 606.33,-127.22 613.22,-131.53"/>
<polygon fill="#528b8b" stroke="#528b8b" stroke-width="2" points="611.5,-134.58 621.86,-136.81 615.15,-128.61 611.5,-134.58"/>
</g>
<!-- src/storage/storage&#45;types.ts -->
<g id="node21" class="node">
<title>src/storage/storage&#45;types.ts</title>
<path fill="#79cdcd" stroke="#79cdcd" d="M518,-135.93C518,-135.93 429,-135.93 429,-135.93 423,-135.93 417,-129.93 417,-123.93 417,-123.93 417,-111.93 417,-111.93 417,-105.93 423,-99.93 429,-99.93 429,-99.93 518,-99.93 518,-99.93 524,-99.93 530,-105.93 530,-111.93 530,-111.93 530,-123.93 530,-123.93 530,-129.93 524,-135.93 518,-135.93"/>
<text text-anchor="middle" x="473.5" y="-114.23" font-family="Helvetica,sans-Serif" font-size="14.00">storage&#45;types.ts</text>
</g>
<!-- src/storage/follower.ts&#45;&gt;src/storage/storage&#45;types.ts -->
<g id="edge28" class="edge">
<title>src/storage/follower.ts&#45;&gt;src/storage/storage&#45;types.ts</title>
<path fill="none" stroke="#528b8b" stroke-width="2" d="M288.57,-117.93C320.87,-117.93 368.18,-117.93 406.73,-117.93"/>
<polygon fill="#528b8b" stroke="#528b8b" stroke-width="2" points="406.84,-121.43 416.84,-117.93 406.84,-114.43 406.84,-121.43"/>
</g>
<!-- src/storage/follower.ts&#45;&gt;src/storage/util&#45;types.ts -->
<g id="edge26" class="edge">
<title>src/storage/follower.ts&#45;&gt;src/storage/util&#45;types.ts</title>
<path fill="none" stroke="#528b8b" stroke-width="2" d="M288.65,-125.44C368.89,-141.52 550.42,-178.35 562.5,-184.93 592.1,-201.05 618.44,-229.63 635.28,-250.67"/>
<polygon fill="#528b8b" stroke="#528b8b" stroke-width="2" points="632.55,-252.87 641.46,-258.6 638.07,-248.56 632.55,-252.87"/>
</g>
<!-- src/storage/follower.ts&#45;&gt;chalk -->
<g id="edge49" class="edge">
<title>src/storage/follower.ts&#45;&gt;chalk</title>
<path fill="none" stroke="#8b8878" stroke-width="1.5" stroke-dasharray="5,2" d="M282.81,-99.8C310.5,-84.54 352.03,-62.87 390,-47.93 405,-42.03 422.04,-36.84 436.72,-32.8"/>
<polygon fill="#8b8878" stroke="#8b8878" stroke-width="1.5" points="437.69,-36.16 446.45,-30.2 435.89,-29.4 437.69,-36.16"/>
</g>
<!-- src/storage/lock.ts -->
<g id="node16" class="node">
<title>src/storage/lock.ts</title>
<path fill="#79cdcd" stroke="#79cdcd" d="M671,-108.93C671,-108.93 640,-108.93 640,-108.93 634,-108.93 628,-102.93 628,-96.93 628,-96.93 628,-84.93 628,-84.93 628,-78.93 634,-72.93 640,-72.93 640,-72.93 671,-72.93 671,-72.93 677,-72.93 683,-78.93 683,-84.93 683,-84.93 683,-96.93 683,-96.93 683,-102.93 677,-108.93 671,-108.93"/>
<text text-anchor="middle" x="655.5" y="-87.23" font-family="Helvetica,sans-Serif" font-size="14.00">lock.ts</text>
</g>
<!-- src/storage/query.ts -->
<g id="node18" class="node">
<title>src/storage/query.ts</title>
<path fill="#79cdcd" stroke="#79cdcd" d="M493.5,-229.93C493.5,-229.93 453.5,-229.93 453.5,-229.93 447.5,-229.93 441.5,-223.93 441.5,-217.93 441.5,-217.93 441.5,-205.93 441.5,-205.93 441.5,-199.93 447.5,-193.93 453.5,-193.93 453.5,-193.93 493.5,-193.93 493.5,-193.93 499.5,-193.93 505.5,-199.93 505.5,-205.93 505.5,-205.93 505.5,-217.93 505.5,-217.93 505.5,-223.93 499.5,-229.93 493.5,-229.93"/>
<text text-anchor="middle" x="473.5" y="-208.23" font-family="Helvetica,sans-Serif" font-size="14.00">query.ts</text>
</g>
<!-- src/storage/query.ts&#45;&gt;src/storage/query&#45;types.ts -->
<g id="edge29" class="edge">
<title>src/storage/query.ts&#45;&gt;src/storage/query&#45;types.ts</title>
<path fill="none" stroke="#528b8b" stroke-width="2" d="M505.85,-202C530.38,-194.24 565.19,-183.21 594.96,-173.79"/>
<polygon fill="#528b8b" stroke="#528b8b" stroke-width="2" points="596.37,-177.01 604.85,-170.66 594.26,-170.34 596.37,-177.01"/>
</g>
<!-- src/storage/storage&#45;async.ts&#45;&gt;src/format&#45;validators/format&#45;validator&#45;types.ts -->
<g id="edge33" class="edge">
<title>src/storage/storage&#45;async.ts&#45;&gt;src/format&#45;validators/format&#45;validator&#45;types.ts</title>
<path fill="none" stroke="#528b8b" stroke-width="2" d="M272.24,-305.15C312.18,-339.41 398.51,-413.46 443.66,-452.19"/>
<polygon fill="#528b8b" stroke="#528b8b" stroke-width="2" points="441.46,-454.92 451.33,-458.77 446.01,-449.6 441.46,-454.92"/>
</g>
<!-- src/storage/storage&#45;async.ts&#45;&gt;src/storage/compare.ts -->
<g id="edge34" class="edge">
<title>src/storage/storage&#45;async.ts&#45;&gt;src/storage/compare.ts</title>
<path fill="none" stroke="#528b8b" stroke-width="2" d="M308.04,-291.83C343.01,-294.82 387.4,-298.63 421.24,-301.54"/>
<polygon fill="#528b8b" stroke="#528b8b" stroke-width="2" points="421.12,-305.04 431.39,-302.41 421.72,-298.06 421.12,-305.04"/>
</g>
<!-- src/storage/storage&#45;async.ts&#45;&gt;src/storage/query&#45;types.ts -->
<g id="edge31" class="edge">
<title>src/storage/storage&#45;async.ts&#45;&gt;src/storage/query&#45;types.ts</title>
<path fill="none" stroke="#528b8b" stroke-width="2" d="M308.22,-282.1C385.51,-274.91 518.64,-259.93 562.5,-238.93 590.84,-225.37 616.63,-200.15 633.65,-180.88"/>
<polygon fill="#528b8b" stroke="#528b8b" stroke-width="2" points="636.53,-182.9 640.39,-173.03 631.22,-178.34 636.53,-182.9"/>
</g>
<!-- src/storage/storage&#45;async.ts&#45;&gt;src/storage/storage&#45;types.ts -->
<g id="edge32" class="edge">
<title>src/storage/storage&#45;async.ts&#45;&gt;src/storage/storage&#45;types.ts</title>
<path fill="none" stroke="#528b8b" stroke-width="2" d="M281.25,-268.9C302.3,-255.89 330.66,-237.43 354,-218.93 371.25,-205.26 373.45,-199.43 390,-184.93 406.66,-170.33 425.84,-154.69 441.52,-142.19"/>
<polygon fill="#528b8b" stroke="#528b8b" stroke-width="2" points="443.7,-144.93 449.36,-135.97 439.35,-139.44 443.7,-144.93"/>
</g>
<!-- src/storage/storage&#45;async.ts&#45;&gt;src/storage/util&#45;types.ts -->
<g id="edge30" class="edge">
<title>src/storage/storage&#45;async.ts&#45;&gt;src/storage/util&#45;types.ts</title>
<path fill="none" stroke="#528b8b" stroke-width="2" d="M293.62,-304.98C320.68,-315.44 356.75,-327.57 390,-332.93 465.69,-345.13 488.68,-353.63 562.5,-332.93 584.88,-326.66 607.23,-313.27 624.29,-301.16"/>
<polygon fill="#528b8b" stroke="#528b8b" stroke-width="2" points="626.71,-303.72 632.7,-294.98 622.57,-298.08 626.71,-303.72"/>
</g>
<!-- src/storage/storage&#45;async.ts&#45;&gt;chalk -->
<g id="edge50" class="edge">
<title>src/storage/storage&#45;async.ts&#45;&gt;chalk</title>
<path fill="none" stroke="#8b8878" stroke-width="1.5" stroke-dasharray="5,2" d="M292.99,-268.86C314.42,-257.54 339.05,-240.9 354,-218.93 397.69,-154.72 337.2,-104.89 390,-47.93 401.73,-35.28 419.7,-29.16 435.88,-26.26"/>
<polygon fill="#8b8878" stroke="#8b8878" stroke-width="1.5" points="436.77,-29.66 446.17,-24.77 435.77,-22.73 436.77,-29.66"/>
</g>
<!-- src/storage/storage&#45;driver&#45;async&#45;memory.ts&#45;&gt;src/storage/compare.ts -->
<g id="edge38" class="edge">
<title>src/storage/storage&#45;driver&#45;async&#45;memory.ts&#45;&gt;src/storage/compare.ts</title>
<path fill="none" stroke="#528b8b" stroke-width="2" d="M286.1,-210C324.54,-229.78 386.29,-261.56 428.08,-283.07"/>
<polygon fill="#528b8b" stroke="#528b8b" stroke-width="2" points="426.71,-286.3 437.2,-287.76 429.91,-280.08 426.71,-286.3"/>
</g>
<!-- src/storage/storage&#45;driver&#45;async&#45;memory.ts&#45;&gt;src/storage/lock.ts -->
<g id="edge40" class="edge">
<title>src/storage/storage&#45;driver&#45;async&#45;memory.ts&#45;&gt;src/storage/lock.ts</title>
<path fill="none" stroke="#528b8b" stroke-width="2" d="M305.11,-173.91C321.93,-166.63 339.78,-157.04 354,-144.93 375.96,-126.23 364.57,-104.54 390,-90.93 463.03,-51.85 564.46,-67.84 618.01,-80.7"/>
<polygon fill="#528b8b" stroke="#528b8b" stroke-width="2" points="617.2,-84.1 627.75,-83.13 618.89,-77.31 617.2,-84.1"/>
</g>
<!-- src/storage/storage&#45;driver&#45;async&#45;memory.ts&#45;&gt;src/storage/query&#45;types.ts -->
<g id="edge36" class="edge">
<title>src/storage/storage&#45;driver&#45;async&#45;memory.ts&#45;&gt;src/storage/query&#45;types.ts</title>
<path fill="none" stroke="#528b8b" stroke-width="2" d="M354.13,-182.48C430.32,-175.49 531.41,-166.22 594.71,-160.41"/>
<polygon fill="#528b8b" stroke="#528b8b" stroke-width="2" points="595.28,-163.88 604.92,-159.48 594.64,-156.91 595.28,-163.88"/>
</g>
<!-- src/storage/storage&#45;driver&#45;async&#45;memory.ts&#45;&gt;src/storage/query.ts -->
<g id="edge39" class="edge">
<title>src/storage/storage&#45;driver&#45;async&#45;memory.ts&#45;&gt;src/storage/query.ts</title>
<path fill="none" stroke="#528b8b" stroke-width="2" d="M354.29,-201.26C381.43,-203.71 409.17,-206.21 430.95,-208.18"/>
<polygon fill="#528b8b" stroke="#528b8b" stroke-width="2" points="430.86,-211.69 441.14,-209.1 431.49,-204.71 430.86,-211.69"/>
</g>
<!-- src/storage/storage&#45;driver&#45;async&#45;memory.ts&#45;&gt;src/storage/storage&#45;types.ts -->
<g id="edge37" class="edge">
<title>src/storage/storage&#45;driver&#45;async&#45;memory.ts&#45;&gt;src/storage/storage&#45;types.ts</title>
<path fill="none" stroke="#528b8b" stroke-width="2" d="M304.9,-173.92C336.25,-163.45 375.95,-150.19 408.83,-139.2"/>
<polygon fill="#528b8b" stroke="#528b8b" stroke-width="2" points="409.98,-142.51 418.36,-136.02 407.76,-135.87 409.98,-142.51"/>
</g>
<!-- src/storage/storage&#45;driver&#45;async&#45;memory.ts&#45;&gt;src/storage/util&#45;types.ts -->
<g id="edge35" class="edge">
<title>src/storage/storage&#45;driver&#45;async&#45;memory.ts&#45;&gt;src/storage/util&#45;types.ts</title>
<path fill="none" stroke="#528b8b" stroke-width="2" d="M297.34,-209.98C324.08,-219.79 358.53,-231.42 390,-238.93 462.91,-256.34 549.16,-266.91 602.86,-272.34"/>
<polygon fill="#528b8b" stroke="#528b8b" stroke-width="2" points="602.53,-275.83 612.82,-273.33 603.22,-268.86 602.53,-275.83"/>
</g>
<!-- src/storage/storage&#45;driver&#45;async&#45;memory.ts&#45;&gt;chalk -->
<g id="edge51" class="edge">
<title>src/storage/storage&#45;driver&#45;async&#45;memory.ts&#45;&gt;chalk</title>
<path fill="none" stroke="#8b8878" stroke-width="1.5" stroke-dasharray="5,2" d="M311.17,-173.9C326.73,-166.9 342.36,-157.46 354,-144.93 385.31,-111.26 356.33,-79.25 390,-47.93 402.54,-36.26 420.44,-30.24 436.35,-27.13"/>
<polygon fill="#8b8878" stroke="#8b8878" stroke-width="1.5" points="437.15,-30.55 446.45,-25.49 436.02,-23.64 437.15,-30.55"/>
</g>
<!-- src/storage/storage&#45;types.ts&#45;&gt;src/storage/lock.ts -->
<g id="edge42" class="edge">
<title>src/storage/storage&#45;types.ts&#45;&gt;src/storage/lock.ts</title>
<path fill="none" stroke="#528b8b" stroke-width="2" d="M530.47,-109.54C558.82,-105.28 592.46,-100.24 617.55,-96.47"/>
<polygon fill="#528b8b" stroke="#528b8b" stroke-width="2" points="618.37,-99.89 627.74,-94.95 617.33,-92.97 618.37,-99.89"/>
</g>
<!-- src/storage/storage&#45;types.ts&#45;&gt;src/storage/query&#45;types.ts -->
<g id="edge41" class="edge">
<title>src/storage/storage&#45;types.ts&#45;&gt;src/storage/query&#45;types.ts</title>
<path fill="none" stroke="#528b8b" stroke-width="2" d="M530.47,-129.44C550.95,-133.65 574.2,-138.43 594.99,-142.7"/>
<polygon fill="#528b8b" stroke="#528b8b" stroke-width="2" points="594.47,-146.17 604.97,-144.75 595.88,-139.31 594.47,-146.17"/>
</g>
</g>
</svg>
