<?xml version="1.0" encoding="UTF-8" standalone="no"?>
<!DOCTYPE svg PUBLIC "-//W3C//DTD SVG 1.1//EN"
 "http://www.w3.org/Graphics/SVG/1.1/DTD/svg11.dtd">
<!-- Generated by graphviz version 2.44.1 (20200629.0846)
 -->
<!-- Title: G Pages: 1 -->
<svg width="422pt" height="189pt"
 viewBox="0.00 0.00 421.89 189.00" xmlns="http://www.w3.org/2000/svg" xmlns:xlink="http://www.w3.org/1999/xlink">
<g id="graph0" class="graph" transform="scale(1 1) rotate(0) translate(4 185)">
<title>G</title>
<polygon fill="white" stroke="transparent" points="-4,4 -4,-185 417.89,-185 417.89,4 -4,4"/>
<g id="clust1" class="cluster">
<title>cluster5063431199</title>
<path fill="none" stroke="#8b7d6b" stroke-width="2" d="M20,-44C20,-44 393.89,-44 393.89,-44 399.89,-44 405.89,-50 405.89,-56 405.89,-56 405.89,-161 405.89,-161 405.89,-167 399.89,-173 393.89,-173 393.89,-173 20,-173 20,-173 14,-173 8,-167 8,-161 8,-161 8,-56 8,-56 8,-50 14,-44 20,-44"/>
<text text-anchor="start" x="188.95" y="-158.8" font-family="Helvetica,sans-Serif" font-weight="bold" font-size="14.00">types</text>
</g>
<!-- src/types/docTypes.ts -->
<g id="node1" class="node">
<title>src/types/docTypes.ts</title>
<path fill="#79cdcd" stroke="#79cdcd" d="M385.89,-123C385.89,-123 320.89,-123 320.89,-123 314.89,-123 308.89,-117 308.89,-111 308.89,-111 308.89,-99 308.89,-99 308.89,-93 314.89,-87 320.89,-87 320.89,-87 385.89,-87 385.89,-87 391.89,-87 397.89,-93 397.89,-99 397.89,-99 397.89,-111 397.89,-111 397.89,-117 391.89,-123 385.89,-123"/>
<text text-anchor="middle" x="353.39" y="-101.3" font-family="Helvetica,sans-Serif" font-size="14.00">docTypes.ts</text>
</g>
<!-- src/types/queryTypes.ts -->
<g id="node2" class="node">
<title>src/types/queryTypes.ts</title>
<path fill="#79cdcd" stroke="#79cdcd" d="M257.45,-142C257.45,-142 180.45,-142 180.45,-142 174.45,-142 168.45,-136 168.45,-130 168.45,-130 168.45,-118 168.45,-118 168.45,-112 174.45,-106 180.45,-106 180.45,-106 257.45,-106 257.45,-106 263.45,-106 269.45,-112 269.45,-118 269.45,-118 269.45,-130 269.45,-130 269.45,-136 263.45,-142 257.45,-142"/>
<text text-anchor="middle" x="218.95" y="-120.3" font-family="Helvetica,sans-Serif" font-size="14.00">queryTypes.ts</text>
</g>
<!-- src/types/queryTypes.ts&#45;&gt;src/types/docTypes.ts -->
<g id="edge1" class="edge">
<title>src/types/queryTypes.ts&#45;&gt;src/types/docTypes.ts</title>
<path fill="none" stroke="#528b8b" stroke-width="2" d="M269.64,-116.87C279.02,-115.53 288.87,-114.11 298.38,-112.75"/>
<polygon fill="#528b8b" stroke="#528b8b" stroke-width="2" points="299.11,-116.18 308.51,-111.29 298.12,-109.25 299.11,-116.18"/>
</g>
<!-- src/types/storageTypes.ts -->
<g id="node3" class="node">
<title>src/types/storageTypes.ts</title>
<path fill="#79cdcd" stroke="#79cdcd" d="M117,-142C117,-142 28,-142 28,-142 22,-142 16,-136 16,-130 16,-130 16,-118 16,-118 16,-112 22,-106 28,-106 28,-106 117,-106 117,-106 123,-106 129,-112 129,-118 129,-118 129,-130 129,-130 129,-136 123,-142 117,-142"/>
<text text-anchor="middle" x="72.5" y="-120.3" font-family="Helvetica,sans-Serif" font-size="14.00">storageTypes.ts</text>
</g>
<!-- src/types/storageTypes.ts&#45;&gt;src/types/docTypes.ts -->
<g id="edge2" class="edge">
<title>src/types/storageTypes.ts&#45;&gt;src/types/docTypes.ts</title>
<path fill="none" stroke="#528b8b" stroke-width="2" d="M125.18,-105.95C138.03,-102.24 151.89,-98.89 165,-97 209.63,-90.55 260.81,-93.42 298.39,-97.41"/>
<polygon fill="#528b8b" stroke="#528b8b" stroke-width="2" points="298.29,-100.92 308.62,-98.56 299.07,-93.97 298.29,-100.92"/>
</g>
<!-- src/types/storageTypes.ts&#45;&gt;src/types/queryTypes.ts -->
<g id="edge3" class="edge">
<title>src/types/storageTypes.ts&#45;&gt;src/types/queryTypes.ts</title>
<path fill="none" stroke="#528b8b" stroke-width="2" d="M129.35,-124C138.79,-124 148.63,-124 158.17,-124"/>
<polygon fill="#528b8b" stroke="#528b8b" stroke-width="2" points="158.37,-127.5 168.37,-124 158.37,-120.5 158.37,-127.5"/>
</g>
<!-- src/util/lock -->
<g id="node5" class="node">
<title>src/util/lock</title>
<ellipse fill="none" stroke="black" cx="218.95" cy="-18" rx="53.89" ry="18"/>
<text text-anchor="middle" x="218.95" y="-14.3" font-family="Helvetica,sans-Serif" font-size="14.00">src/util/lock</text>
</g>
<!-- src/types/storageTypes.ts&#45;&gt;src/util/lock -->
<g id="edge4" class="edge">
<title>src/types/storageTypes.ts&#45;&gt;src/util/lock</title>
<path fill="none" stroke="#528b8b" stroke-width="2" d="M116.85,-105.94C121.18,-103.27 125.33,-100.29 129,-97 151.33,-77.02 142.1,-59.32 165,-40 166.93,-38.37 169,-36.85 171.16,-35.43"/>
<polygon fill="#528b8b" stroke="#528b8b" stroke-width="2" points="172.91,-38.46 179.84,-30.44 169.43,-32.39 172.91,-38.46"/>
</g>
<!-- src/types/utilTypes.ts -->
<g id="node4" class="node">
<title>src/types/utilTypes.ts</title>
<path fill="#79cdcd" stroke="#79cdcd" d="M103,-88C103,-88 42,-88 42,-88 36,-88 30,-82 30,-76 30,-76 30,-64 30,-64 30,-58 36,-52 42,-52 42,-52 103,-52 103,-52 109,-52 115,-58 115,-64 115,-64 115,-76 115,-76 115,-82 109,-88 103,-88"/>
<text text-anchor="middle" x="72.5" y="-66.3" font-family="Helvetica,sans-Serif" font-size="14.00">utilTypes.ts</text>
</g>
</g>
</svg>
