<?xml version="1.0" encoding="UTF-8" standalone="no"?>
<!DOCTYPE svg PUBLIC "-//W3C//DTD SVG 1.1//EN"
 "http://www.w3.org/Graphics/SVG/1.1/DTD/svg11.dtd">
<!-- Generated by graphviz version 2.44.1 (20200629.0846)
 -->
<!-- Title: G Pages: 1 -->
<svg width="1651pt" height="1336pt"
 viewBox="0.00 0.00 1651.00 1335.57" xmlns="http://www.w3.org/2000/svg" xmlns:xlink="http://www.w3.org/1999/xlink">
<g id="graph0" class="graph" transform="scale(1 1) rotate(0) translate(4 1331.57)">
<title>G</title>
<polygon fill="white" stroke="transparent" points="-4,4 -4,-1331.57 1647,-1331.57 1647,4 -4,4"/>
<!-- src/example&#45;app.ts -->
<g id="node1" class="node">
<title>src/example&#45;app.ts</title>
<path fill="#79cdcd" stroke="#79cdcd" d="M147,-696.02C147,-696.02 40,-696.02 40,-696.02 34,-696.02 28,-690.02 28,-684.02 28,-684.02 28,-672.02 28,-672.02 28,-666.02 34,-660.02 40,-660.02 40,-660.02 147,-660.02 147,-660.02 153,-660.02 159,-666.02 159,-672.02 159,-672.02 159,-684.02 159,-684.02 159,-690.02 153,-696.02 147,-696.02"/>
<text text-anchor="middle" x="93.5" y="-674.32" font-family="Helvetica,sans-Serif" font-size="14.00">src/example&#45;app.ts</text>
</g>
<!-- src/crypto/crypto&#45;driver&#45;tweetnacl.ts -->
<g id="node8" class="node">
<title>src/crypto/crypto&#45;driver&#45;tweetnacl.ts</title>
<path fill="#79cdcd" stroke="#79cdcd" d="M1038,-910.02C1038,-910.02 832,-910.02 832,-910.02 826,-910.02 820,-904.02 820,-898.02 820,-898.02 820,-886.02 820,-886.02 820,-880.02 826,-874.02 832,-874.02 832,-874.02 1038,-874.02 1038,-874.02 1044,-874.02 1050,-880.02 1050,-886.02 1050,-886.02 1050,-898.02 1050,-898.02 1050,-904.02 1044,-910.02 1038,-910.02"/>
<text text-anchor="middle" x="935" y="-888.32" font-family="Helvetica,sans-Serif" font-size="14.00">src/crypto/crypto&#45;driver&#45;tweetnacl.ts</text>
</g>
<!-- src/example&#45;app.ts&#45;&gt;src/crypto/crypto&#45;driver&#45;tweetnacl.ts -->
<g id="edge17" class="edge">
<title>src/example&#45;app.ts&#45;&gt;src/crypto/crypto&#45;driver&#45;tweetnacl.ts</title>
<path fill="none" stroke="#528b8b" stroke-width="2" d="M101.39,-696.09C116.7,-733.42 157.48,-818.5 223,-854.02 320.94,-907.11 633.45,-904.28 809.81,-897.95"/>
<polygon fill="#528b8b" stroke="#528b8b" stroke-width="2" points="810.06,-901.45 819.93,-897.58 809.8,-894.45 810.06,-901.45"/>
</g>
<!-- src/crypto/crypto.ts -->
<g id="node10" class="node">
<title>src/crypto/crypto.ts</title>
<path fill="#79cdcd" stroke="#79cdcd" d="M701.5,-994.02C701.5,-994.02 595.5,-994.02 595.5,-994.02 589.5,-994.02 583.5,-988.02 583.5,-982.02 583.5,-982.02 583.5,-970.02 583.5,-970.02 583.5,-964.02 589.5,-958.02 595.5,-958.02 595.5,-958.02 701.5,-958.02 701.5,-958.02 707.5,-958.02 713.5,-964.02 713.5,-970.02 713.5,-970.02 713.5,-982.02 713.5,-982.02 713.5,-988.02 707.5,-994.02 701.5,-994.02"/>
<text text-anchor="middle" x="648.5" y="-972.32" font-family="Helvetica,sans-Serif" font-size="14.00">src/crypto/crypto.ts</text>
</g>
<!-- src/example&#45;app.ts&#45;&gt;src/crypto/crypto.ts -->
<g id="edge16" class="edge">
<title>src/example&#45;app.ts&#45;&gt;src/crypto/crypto.ts</title>
<path fill="none" stroke="#528b8b" stroke-width="2" d="M99.16,-696.13C111.34,-739.54 148.47,-849.79 223,-902.02 327.85,-975.5 482.25,-983.8 573.07,-981.24"/>
<polygon fill="#528b8b" stroke="#528b8b" stroke-width="2" points="573.41,-984.73 583.28,-980.89 573.17,-977.73 573.41,-984.73"/>
</g>
<!-- src/format&#45;validators/format&#45;validator&#45;es4.ts -->
<g id="node12" class="node">
<title>src/format&#45;validators/format&#45;validator&#45;es4.ts</title>
<path fill="#79cdcd" stroke="#79cdcd" d="M1062,-1209.02C1062,-1209.02 808,-1209.02 808,-1209.02 802,-1209.02 796,-1203.02 796,-1197.02 796,-1197.02 796,-1185.02 796,-1185.02 796,-1179.02 802,-1173.02 808,-1173.02 808,-1173.02 1062,-1173.02 1062,-1173.02 1068,-1173.02 1074,-1179.02 1074,-1185.02 1074,-1185.02 1074,-1197.02 1074,-1197.02 1074,-1203.02 1068,-1209.02 1062,-1209.02"/>
<text text-anchor="middle" x="935" y="-1187.32" font-family="Helvetica,sans-Serif" font-size="14.00">src/format&#45;validators/format&#45;validator&#45;es4.ts</text>
</g>
<!-- src/example&#45;app.ts&#45;&gt;src/format&#45;validators/format&#45;validator&#45;es4.ts -->
<g id="edge13" class="edge">
<title>src/example&#45;app.ts&#45;&gt;src/format&#45;validators/format&#45;validator&#45;es4.ts</title>
<path fill="none" stroke="#528b8b" stroke-width="2" d="M97.75,-696.19C107.48,-745.29 140.92,-881.79 223,-955.02 381.95,-1096.82 628.53,-1153.78 785.55,-1176.41"/>
<polygon fill="#528b8b" stroke="#528b8b" stroke-width="2" points="785.38,-1179.92 795.77,-1177.85 786.35,-1172.99 785.38,-1179.92"/>
</g>
<!-- src/peer/peer.ts -->
<g id="node17" class="node">
<title>src/peer/peer.ts</title>
<path fill="#79cdcd" stroke="#79cdcd" d="M405,-696.02C405,-696.02 319,-696.02 319,-696.02 313,-696.02 307,-690.02 307,-684.02 307,-684.02 307,-672.02 307,-672.02 307,-666.02 313,-660.02 319,-660.02 319,-660.02 405,-660.02 405,-660.02 411,-660.02 417,-666.02 417,-672.02 417,-672.02 417,-684.02 417,-684.02 417,-690.02 411,-696.02 405,-696.02"/>
<text text-anchor="middle" x="362" y="-674.32" font-family="Helvetica,sans-Serif" font-size="14.00">src/peer/peer.ts</text>
</g>
<!-- src/example&#45;app.ts&#45;&gt;src/peer/peer.ts -->
<g id="edge19" class="edge">
<title>src/example&#45;app.ts&#45;&gt;src/peer/peer.ts</title>
<path fill="none" stroke="#528b8b" stroke-width="2" d="M159.01,-678.02C200.85,-678.02 255.14,-678.02 296.9,-678.02"/>
<polygon fill="#528b8b" stroke="#528b8b" stroke-width="2" points="296.96,-681.52 306.96,-678.02 296.96,-674.52 296.96,-681.52"/>
</g>
<!-- src/storage/query&#45;follower.ts -->
<g id="node21" class="node">
<title>src/storage/query&#45;follower.ts</title>
<path fill="#79cdcd" stroke="#79cdcd" d="M443,-265.02C443,-265.02 281,-265.02 281,-265.02 275,-265.02 269,-259.02 269,-253.02 269,-253.02 269,-241.02 269,-241.02 269,-235.02 275,-229.02 281,-229.02 281,-229.02 443,-229.02 443,-229.02 449,-229.02 455,-235.02 455,-241.02 455,-241.02 455,-253.02 455,-253.02 455,-259.02 449,-265.02 443,-265.02"/>
<text text-anchor="middle" x="362" y="-243.32" font-family="Helvetica,sans-Serif" font-size="14.00">src/storage/query&#45;follower.ts</text>
</g>
<!-- src/example&#45;app.ts&#45;&gt;src/storage/query&#45;follower.ts -->
<g id="edge18" class="edge">
<title>src/example&#45;app.ts&#45;&gt;src/storage/query&#45;follower.ts</title>
<path fill="none" stroke="#528b8b" stroke-width="2" d="M96.96,-659.71C105.25,-604.32 136.58,-435.87 223,-331.02 245.12,-304.18 278.18,-283.64 306.4,-269.59"/>
<polygon fill="#528b8b" stroke="#528b8b" stroke-width="2" points="308.28,-272.57 315.76,-265.07 305.23,-266.26 308.28,-272.57"/>
</g>
<!-- src/storage/storage&#45;async.ts -->
<g id="node24" class="node">
<title>src/storage/storage&#45;async.ts</title>
<path fill="#79cdcd" stroke="#79cdcd" d="M443,-376.02C443,-376.02 281,-376.02 281,-376.02 275,-376.02 269,-370.02 269,-364.02 269,-364.02 269,-352.02 269,-352.02 269,-346.02 275,-340.02 281,-340.02 281,-340.02 443,-340.02 443,-340.02 449,-340.02 455,-346.02 455,-352.02 455,-352.02 455,-364.02 455,-364.02 455,-370.02 449,-376.02 443,-376.02"/>
<text text-anchor="middle" x="362" y="-354.32" font-family="Helvetica,sans-Serif" font-size="14.00">src/storage/storage&#45;async.ts</text>
</g>
<!-- src/example&#45;app.ts&#45;&gt;src/storage/storage&#45;async.ts -->
<g id="edge15" class="edge">
<title>src/example&#45;app.ts&#45;&gt;src/storage/storage&#45;async.ts</title>
<path fill="none" stroke="#528b8b" stroke-width="2" d="M106.23,-659.82C127.86,-626.69 176.13,-554.82 223,-499.02 259,-456.16 305.26,-410.57 334.02,-383.2"/>
<polygon fill="#528b8b" stroke="#528b8b" stroke-width="2" points="336.44,-385.73 341.29,-376.31 331.63,-380.64 336.44,-385.73"/>
</g>
<!-- src/storage/storage&#45;driver&#45;async&#45;memory.ts -->
<g id="node26" class="node">
<title>src/storage/storage&#45;driver&#45;async&#45;memory.ts</title>
<path fill="#79cdcd" stroke="#79cdcd" d="M489,-544.02C489,-544.02 235,-544.02 235,-544.02 229,-544.02 223,-538.02 223,-532.02 223,-532.02 223,-520.02 223,-520.02 223,-514.02 229,-508.02 235,-508.02 235,-508.02 489,-508.02 489,-508.02 495,-508.02 501,-514.02 501,-520.02 501,-520.02 501,-532.02 501,-532.02 501,-538.02 495,-544.02 489,-544.02"/>
<text text-anchor="middle" x="362" y="-522.32" font-family="Helvetica,sans-Serif" font-size="14.00">src/storage/storage&#45;driver&#45;async&#45;memory.ts</text>
</g>
<!-- src/example&#45;app.ts&#45;&gt;src/storage/storage&#45;driver&#45;async&#45;memory.ts -->
<g id="edge14" class="edge">
<title>src/example&#45;app.ts&#45;&gt;src/storage/storage&#45;driver&#45;async&#45;memory.ts</title>
<path fill="none" stroke="#528b8b" stroke-width="2" d="M126.12,-659.99C174.6,-632.33 267.29,-579.47 320.59,-549.07"/>
<polygon fill="#528b8b" stroke="#528b8b" stroke-width="2" points="322.47,-552.02 329.42,-544.03 319,-545.94 322.47,-552.02"/>
</g>
<!-- src/core&#45;validators/addresses.ts -->
<g id="node2" class="node">
<title>src/core&#45;validators/addresses.ts</title>
<path fill="#79cdcd" stroke="#79cdcd" d="M1346,-1186.02C1346,-1186.02 1163,-1186.02 1163,-1186.02 1157,-1186.02 1151,-1180.02 1151,-1174.02 1151,-1174.02 1151,-1162.02 1151,-1162.02 1151,-1156.02 1157,-1150.02 1163,-1150.02 1163,-1150.02 1346,-1150.02 1346,-1150.02 1352,-1150.02 1358,-1156.02 1358,-1162.02 1358,-1162.02 1358,-1174.02 1358,-1174.02 1358,-1180.02 1352,-1186.02 1346,-1186.02"/>
<text text-anchor="middle" x="1254.5" y="-1164.32" font-family="Helvetica,sans-Serif" font-size="14.00">src/core&#45;validators/addresses.ts</text>
</g>
<!-- src/core&#45;validators/characters.ts -->
<g id="node3" class="node">
<title>src/core&#45;validators/characters.ts</title>
<path fill="#79cdcd" stroke="#79cdcd" d="M1631,-1301.02C1631,-1301.02 1447,-1301.02 1447,-1301.02 1441,-1301.02 1435,-1295.02 1435,-1289.02 1435,-1289.02 1435,-1277.02 1435,-1277.02 1435,-1271.02 1441,-1265.02 1447,-1265.02 1447,-1265.02 1631,-1265.02 1631,-1265.02 1637,-1265.02 1643,-1271.02 1643,-1277.02 1643,-1277.02 1643,-1289.02 1643,-1289.02 1643,-1295.02 1637,-1301.02 1631,-1301.02"/>
<text text-anchor="middle" x="1539" y="-1279.32" font-family="Helvetica,sans-Serif" font-size="14.00">src/core&#45;validators/characters.ts</text>
</g>
<!-- src/core&#45;validators/addresses.ts&#45;&gt;src/core&#45;validators/characters.ts -->
<g id="edge1" class="edge">
<title>src/core&#45;validators/addresses.ts&#45;&gt;src/core&#45;validators/characters.ts</title>
<path fill="none" stroke="#528b8b" stroke-width="2" d="M1299.95,-1186.11C1349.79,-1206.4 1430.6,-1239.3 1484.03,-1261.05"/>
<polygon fill="#528b8b" stroke="#528b8b" stroke-width="2" points="1482.76,-1264.31 1493.34,-1264.84 1485.4,-1257.83 1482.76,-1264.31"/>
</g>
<!-- src/core&#45;validators/checkers.ts -->
<g id="node4" class="node">
<title>src/core&#45;validators/checkers.ts</title>
<path fill="#79cdcd" stroke="#79cdcd" d="M1342,-1278.02C1342,-1278.02 1167,-1278.02 1167,-1278.02 1161,-1278.02 1155,-1272.02 1155,-1266.02 1155,-1266.02 1155,-1254.02 1155,-1254.02 1155,-1248.02 1161,-1242.02 1167,-1242.02 1167,-1242.02 1342,-1242.02 1342,-1242.02 1348,-1242.02 1354,-1248.02 1354,-1254.02 1354,-1254.02 1354,-1266.02 1354,-1266.02 1354,-1272.02 1348,-1278.02 1342,-1278.02"/>
<text text-anchor="middle" x="1254.5" y="-1256.32" font-family="Helvetica,sans-Serif" font-size="14.00">src/core&#45;validators/checkers.ts</text>
</g>
<!-- src/core&#45;validators/checkers.ts&#45;&gt;src/core&#45;validators/characters.ts -->
<g id="edge2" class="edge">
<title>src/core&#45;validators/checkers.ts&#45;&gt;src/core&#45;validators/characters.ts</title>
<path fill="none" stroke="#528b8b" stroke-width="2" d="M1354.3,-1268.06C1377.04,-1269.91 1401.38,-1271.9 1424.67,-1273.79"/>
<polygon fill="#528b8b" stroke="#528b8b" stroke-width="2" points="1424.69,-1277.3 1434.94,-1274.63 1425.25,-1270.33 1424.69,-1277.3"/>
</g>
<!-- src/crypto/base32.ts -->
<g id="node5" class="node">
<title>src/crypto/base32.ts</title>
<path fill="#79cdcd" stroke="#79cdcd" d="M1311,-986.02C1311,-986.02 1198,-986.02 1198,-986.02 1192,-986.02 1186,-980.02 1186,-974.02 1186,-974.02 1186,-962.02 1186,-962.02 1186,-956.02 1192,-950.02 1198,-950.02 1198,-950.02 1311,-950.02 1311,-950.02 1317,-950.02 1323,-956.02 1323,-962.02 1323,-962.02 1323,-974.02 1323,-974.02 1323,-980.02 1317,-986.02 1311,-986.02"/>
<text text-anchor="middle" x="1254.5" y="-964.32" font-family="Helvetica,sans-Serif" font-size="14.00">src/crypto/base32.ts</text>
</g>
<!-- src/crypto/crypto&#45;driver&#45;chloride.ts -->
<g id="node6" class="node">
<title>src/crypto/crypto&#45;driver&#45;chloride.ts</title>
<path fill="#79cdcd" stroke="#79cdcd" d="M1352.5,-1078.02C1352.5,-1078.02 1156.5,-1078.02 1156.5,-1078.02 1150.5,-1078.02 1144.5,-1072.02 1144.5,-1066.02 1144.5,-1066.02 1144.5,-1054.02 1144.5,-1054.02 1144.5,-1048.02 1150.5,-1042.02 1156.5,-1042.02 1156.5,-1042.02 1352.5,-1042.02 1352.5,-1042.02 1358.5,-1042.02 1364.5,-1048.02 1364.5,-1054.02 1364.5,-1054.02 1364.5,-1066.02 1364.5,-1066.02 1364.5,-1072.02 1358.5,-1078.02 1352.5,-1078.02"/>
<text text-anchor="middle" x="1254.5" y="-1056.32" font-family="Helvetica,sans-Serif" font-size="14.00">src/crypto/crypto&#45;driver&#45;chloride.ts</text>
</g>
<!-- src/crypto/crypto&#45;types.ts -->
<g id="node9" class="node">
<title>src/crypto/crypto&#45;types.ts</title>
<path fill="#79cdcd" stroke="#79cdcd" d="M1610.5,-921.02C1610.5,-921.02 1467.5,-921.02 1467.5,-921.02 1461.5,-921.02 1455.5,-915.02 1455.5,-909.02 1455.5,-909.02 1455.5,-897.02 1455.5,-897.02 1455.5,-891.02 1461.5,-885.02 1467.5,-885.02 1467.5,-885.02 1610.5,-885.02 1610.5,-885.02 1616.5,-885.02 1622.5,-891.02 1622.5,-897.02 1622.5,-897.02 1622.5,-909.02 1622.5,-909.02 1622.5,-915.02 1616.5,-921.02 1610.5,-921.02"/>
<text text-anchor="middle" x="1539" y="-899.32" font-family="Helvetica,sans-Serif" font-size="14.00">src/crypto/crypto&#45;types.ts</text>
</g>
<!-- src/crypto/crypto&#45;driver&#45;chloride.ts&#45;&gt;src/crypto/crypto&#45;types.ts -->
<g id="edge3" class="edge">
<title>src/crypto/crypto&#45;driver&#45;chloride.ts&#45;&gt;src/crypto/crypto&#45;types.ts</title>
<path fill="none" stroke="#528b8b" stroke-width="2" d="M1364.57,-1041.97C1376.5,-1038.17 1388.22,-1033.57 1399,-1028.02 1447.26,-1003.15 1491.79,-957.41 1516.87,-928.69"/>
<polygon fill="#528b8b" stroke="#528b8b" stroke-width="2" points="1519.55,-930.94 1523.42,-921.08 1514.24,-926.38 1519.55,-930.94"/>
</g>
<!-- src/crypto/crypto&#45;driver&#45;node.ts -->
<g id="node7" class="node">
<title>src/crypto/crypto&#45;driver&#45;node.ts</title>
<path fill="#79cdcd" stroke="#79cdcd" d="M1344,-1132.02C1344,-1132.02 1165,-1132.02 1165,-1132.02 1159,-1132.02 1153,-1126.02 1153,-1120.02 1153,-1120.02 1153,-1108.02 1153,-1108.02 1153,-1102.02 1159,-1096.02 1165,-1096.02 1165,-1096.02 1344,-1096.02 1344,-1096.02 1350,-1096.02 1356,-1102.02 1356,-1108.02 1356,-1108.02 1356,-1120.02 1356,-1120.02 1356,-1126.02 1350,-1132.02 1344,-1132.02"/>
<text text-anchor="middle" x="1254.5" y="-1110.32" font-family="Helvetica,sans-Serif" font-size="14.00">src/crypto/crypto&#45;driver&#45;node.ts</text>
</g>
<!-- src/crypto/crypto&#45;driver&#45;node.ts&#45;&gt;src/crypto/crypto&#45;types.ts -->
<g id="edge4" class="edge">
<title>src/crypto/crypto&#45;driver&#45;node.ts&#45;&gt;src/crypto/crypto&#45;types.ts</title>
<path fill="none" stroke="#528b8b" stroke-width="2" d="M1356.31,-1104.87C1371.32,-1100.77 1386.07,-1095.03 1399,-1087.02 1461.06,-1048.55 1505.24,-971.51 1525.52,-930.37"/>
<polygon fill="#528b8b" stroke="#528b8b" stroke-width="2" points="1528.75,-931.74 1529.94,-921.21 1522.44,-928.7 1528.75,-931.74"/>
</g>
<!-- src/crypto/crypto&#45;driver&#45;tweetnacl.ts&#45;&gt;src/crypto/crypto&#45;types.ts -->
<g id="edge5" class="edge">
<title>src/crypto/crypto&#45;driver&#45;tweetnacl.ts&#45;&gt;src/crypto/crypto&#45;types.ts</title>
<path fill="none" stroke="#528b8b" stroke-width="2" d="M1050.29,-894.11C1164.76,-896.2 1338.76,-899.38 1445.04,-901.32"/>
<polygon fill="#528b8b" stroke="#528b8b" stroke-width="2" points="1445.04,-904.82 1455.11,-901.5 1445.17,-897.82 1445.04,-904.82"/>
</g>
<!-- src/crypto/crypto.ts&#45;&gt;src/core&#45;validators/addresses.ts -->
<g id="edge9" class="edge">
<title>src/crypto/crypto.ts&#45;&gt;src/core&#45;validators/addresses.ts</title>
<path fill="none" stroke="#528b8b" stroke-width="2" d="M681.62,-994.1C710.81,-1010.02 755.39,-1033.1 796,-1049.02 931.39,-1102.1 968.59,-1107.09 1110,-1141.02 1119.99,-1143.42 1130.42,-1145.73 1140.9,-1147.93"/>
<polygon fill="#528b8b" stroke="#528b8b" stroke-width="2" points="1140.44,-1151.41 1150.94,-1150 1141.85,-1144.56 1140.44,-1151.41"/>
</g>
<!-- src/crypto/crypto.ts&#45;&gt;src/crypto/base32.ts -->
<g id="edge7" class="edge">
<title>src/crypto/crypto.ts&#45;&gt;src/crypto/base32.ts</title>
<path fill="none" stroke="#528b8b" stroke-width="2" d="M713.57,-975.17C825.23,-973.69 1055.07,-970.65 1175.69,-969.05"/>
<polygon fill="#528b8b" stroke="#528b8b" stroke-width="2" points="1176,-972.55 1185.96,-968.91 1175.91,-965.55 1176,-972.55"/>
</g>
<!-- src/crypto/crypto.ts&#45;&gt;src/crypto/crypto&#45;types.ts -->
<g id="edge6" class="edge">
<title>src/crypto/crypto.ts&#45;&gt;src/crypto/crypto&#45;types.ts</title>
<path fill="none" stroke="#528b8b" stroke-width="2" d="M713.76,-970.74C868.88,-957.99 1264.34,-925.5 1445.19,-910.64"/>
<polygon fill="#528b8b" stroke="#528b8b" stroke-width="2" points="1445.54,-914.13 1455.22,-909.82 1444.97,-907.15 1445.54,-914.13"/>
</g>
<!-- src/crypto/keypair.ts -->
<g id="node11" class="node">
<title>src/crypto/keypair.ts</title>
<path fill="#79cdcd" stroke="#79cdcd" d="M991.5,-1040.02C991.5,-1040.02 878.5,-1040.02 878.5,-1040.02 872.5,-1040.02 866.5,-1034.02 866.5,-1028.02 866.5,-1028.02 866.5,-1016.02 866.5,-1016.02 866.5,-1010.02 872.5,-1004.02 878.5,-1004.02 878.5,-1004.02 991.5,-1004.02 991.5,-1004.02 997.5,-1004.02 1003.5,-1010.02 1003.5,-1016.02 1003.5,-1016.02 1003.5,-1028.02 1003.5,-1028.02 1003.5,-1034.02 997.5,-1040.02 991.5,-1040.02"/>
<text text-anchor="middle" x="935" y="-1018.32" font-family="Helvetica,sans-Serif" font-size="14.00">src/crypto/keypair.ts</text>
</g>
<!-- src/crypto/crypto.ts&#45;&gt;src/crypto/keypair.ts -->
<g id="edge8" class="edge">
<title>src/crypto/crypto.ts&#45;&gt;src/crypto/keypair.ts</title>
<path fill="none" stroke="#528b8b" stroke-width="2" d="M713.7,-986.4C755.91,-993.22 811.39,-1002.19 856.11,-1009.43"/>
<polygon fill="#528b8b" stroke="#528b8b" stroke-width="2" points="855.63,-1012.89 866.06,-1011.03 856.75,-1005.98 855.63,-1012.89"/>
</g>
<!-- src/crypto/keypair.ts&#45;&gt;src/core&#45;validators/addresses.ts -->
<g id="edge12" class="edge">
<title>src/crypto/keypair.ts&#45;&gt;src/core&#45;validators/addresses.ts</title>
<path fill="none" stroke="#528b8b" stroke-width="2" d="M984.68,-1040.06C1012.73,-1052.01 1047.57,-1069.61 1074,-1092.02 1094.61,-1109.5 1087.13,-1126.63 1110,-1141.02 1119.54,-1147.02 1130.1,-1151.75 1141.03,-1155.48"/>
<polygon fill="#528b8b" stroke="#528b8b" stroke-width="2" points="1140.13,-1158.86 1150.72,-1158.49 1142.21,-1152.18 1140.13,-1158.86"/>
</g>
<!-- src/crypto/keypair.ts&#45;&gt;src/crypto/base32.ts -->
<g id="edge10" class="edge">
<title>src/crypto/keypair.ts&#45;&gt;src/crypto/base32.ts</title>
<path fill="none" stroke="#528b8b" stroke-width="2" d="M1003.72,-1010.5C1054.2,-1001.92 1123.21,-990.18 1175.91,-981.22"/>
<polygon fill="#528b8b" stroke="#528b8b" stroke-width="2" points="1176.61,-984.65 1185.88,-979.52 1175.44,-977.75 1176.61,-984.65"/>
</g>
<!-- src/crypto/keypair.ts&#45;&gt;src/crypto/crypto&#45;types.ts -->
<g id="edge11" class="edge">
<title>src/crypto/keypair.ts&#45;&gt;src/crypto/crypto&#45;types.ts</title>
<path fill="none" stroke="#528b8b" stroke-width="2" d="M1003.65,-1022.38C1114.02,-1022.24 1327.67,-1018.77 1399,-995.02 1441.8,-980.77 1484.01,-949.76 1510.48,-927.69"/>
<polygon fill="#528b8b" stroke="#528b8b" stroke-width="2" points="1512.82,-930.3 1518.18,-921.15 1508.29,-924.96 1512.82,-930.3"/>
</g>
<!-- src/format&#45;validators/format&#45;validator&#45;es4.ts&#45;&gt;src/core&#45;validators/addresses.ts -->
<g id="edge24" class="edge">
<title>src/format&#45;validators/format&#45;validator&#45;es4.ts&#45;&gt;src/core&#45;validators/addresses.ts</title>
<path fill="none" stroke="#528b8b" stroke-width="2" d="M1074.34,-1181C1096.55,-1179.39 1119.31,-1177.74 1140.83,-1176.18"/>
<polygon fill="#528b8b" stroke="#528b8b" stroke-width="2" points="1141.24,-1179.66 1150.96,-1175.45 1140.73,-1172.68 1141.24,-1179.66"/>
</g>
<!-- src/format&#45;validators/format&#45;validator&#45;es4.ts&#45;&gt;src/core&#45;validators/characters.ts -->
<g id="edge22" class="edge">
<title>src/format&#45;validators/format&#45;validator&#45;es4.ts&#45;&gt;src/core&#45;validators/characters.ts</title>
<path fill="none" stroke="#528b8b" stroke-width="2" d="M959.4,-1209.05C991.35,-1232.4 1051.36,-1271.92 1110,-1287.02 1214.11,-1313.83 1337.24,-1309.06 1424.64,-1299.84"/>
<polygon fill="#528b8b" stroke="#528b8b" stroke-width="2" points="1425.02,-1303.32 1434.59,-1298.76 1424.27,-1296.36 1425.02,-1303.32"/>
</g>
<!-- src/format&#45;validators/format&#45;validator&#45;es4.ts&#45;&gt;src/core&#45;validators/checkers.ts -->
<g id="edge23" class="edge">
<title>src/format&#45;validators/format&#45;validator&#45;es4.ts&#45;&gt;src/core&#45;validators/checkers.ts</title>
<path fill="none" stroke="#528b8b" stroke-width="2" d="M1019,-1209.06C1062.39,-1218.49 1115.64,-1230.06 1160.42,-1239.79"/>
<polygon fill="#528b8b" stroke="#528b8b" stroke-width="2" points="1159.91,-1243.26 1170.43,-1241.97 1161.4,-1236.42 1159.91,-1243.26"/>
</g>
<!-- src/format&#45;validators/format&#45;validator&#45;es4.ts&#45;&gt;src/crypto/crypto&#45;types.ts -->
<g id="edge21" class="edge">
<title>src/format&#45;validators/format&#45;validator&#45;es4.ts&#45;&gt;src/crypto/crypto&#45;types.ts</title>
<path fill="none" stroke="#528b8b" stroke-width="2" d="M1074.15,-1208.27C1190.76,-1219.96 1346.84,-1227.96 1399,-1195.02 1493.49,-1135.35 1525.08,-991.94 1534.45,-931.08"/>
<polygon fill="#528b8b" stroke="#528b8b" stroke-width="2" points="1537.94,-931.45 1535.91,-921.05 1531.01,-930.44 1537.94,-931.45"/>
</g>
<!-- src/format&#45;validators/format&#45;validator&#45;types.ts -->
<g id="node13" class="node">
<title>src/format&#45;validators/format&#45;validator&#45;types.ts</title>
<path fill="#79cdcd" stroke="#79cdcd" d="M1387,-626.02C1387,-626.02 1122,-626.02 1122,-626.02 1116,-626.02 1110,-620.02 1110,-614.02 1110,-614.02 1110,-602.02 1110,-602.02 1110,-596.02 1116,-590.02 1122,-590.02 1122,-590.02 1387,-590.02 1387,-590.02 1393,-590.02 1399,-596.02 1399,-602.02 1399,-602.02 1399,-614.02 1399,-614.02 1399,-620.02 1393,-626.02 1387,-626.02"/>
<text text-anchor="middle" x="1254.5" y="-604.32" font-family="Helvetica,sans-Serif" font-size="14.00">src/format&#45;validators/format&#45;validator&#45;types.ts</text>
</g>
<!-- src/format&#45;validators/format&#45;validator&#45;es4.ts&#45;&gt;src/format&#45;validators/format&#45;validator&#45;types.ts -->
<g id="edge20" class="edge">
<title>src/format&#45;validators/format&#45;validator&#45;es4.ts&#45;&gt;src/format&#45;validators/format&#45;validator&#45;types.ts</title>
<path fill="none" stroke="#528b8b" stroke-width="2" d="M962.29,-1172.96C994.9,-1148.92 1049.2,-1103.07 1074,-1049.02 1111.49,-967.3 1052.04,-714.76 1110,-646.02 1114.63,-640.52 1119.96,-635.78 1125.77,-631.68"/>
<polygon fill="#528b8b" stroke="#528b8b" stroke-width="2" points="1128,-634.41 1134.61,-626.12 1124.28,-628.48 1128,-634.41"/>
</g>
<!-- src/format&#45;validators/format&#45;validator&#45;types.ts&#45;&gt;src/crypto/crypto&#45;types.ts -->
<g id="edge25" class="edge">
<title>src/format&#45;validators/format&#45;validator&#45;types.ts&#45;&gt;src/crypto/crypto&#45;types.ts</title>
<path fill="none" stroke="#528b8b" stroke-width="2" d="M1363.58,-626.16C1376.3,-631.24 1388.47,-637.73 1399,-646.02 1475.97,-706.62 1515.92,-822.05 1530.89,-875.09"/>
<polygon fill="#528b8b" stroke="#528b8b" stroke-width="2" points="1527.54,-876.11 1533.56,-884.83 1534.3,-874.26 1527.54,-876.11"/>
</g>
<!-- src/peer/peer&#45;client.ts -->
<g id="node14" class="node">
<title>src/peer/peer&#45;client.ts</title>
<path fill="#79cdcd" stroke="#79cdcd" d="M423,-780.02C423,-780.02 301,-780.02 301,-780.02 295,-780.02 289,-774.02 289,-768.02 289,-768.02 289,-756.02 289,-756.02 289,-750.02 295,-744.02 301,-744.02 301,-744.02 423,-744.02 423,-744.02 429,-744.02 435,-750.02 435,-756.02 435,-756.02 435,-768.02 435,-768.02 435,-774.02 429,-780.02 423,-780.02"/>
<text text-anchor="middle" x="362" y="-758.32" font-family="Helvetica,sans-Serif" font-size="14.00">src/peer/peer&#45;client.ts</text>
</g>
<!-- src/peer/peer&#45;client.ts&#45;&gt;src/core&#45;validators/characters.ts -->
<g id="edge30" class="edge">
<title>src/peer/peer&#45;client.ts&#45;&gt;src/core&#45;validators/characters.ts</title>
<path fill="none" stroke="#528b8b" stroke-width="2" d="M435.28,-766.61C459.3,-771.73 484.18,-781.56 501,-800.02 562.7,-867.76 490.94,-923.81 537,-1003.02 612.21,-1132.34 664.03,-1147.56 796,-1218.02 1035.21,-1345.73 1129.17,-1337.93 1399,-1311.02 1416.4,-1309.28 1434.86,-1306.35 1452.43,-1303.03"/>
<polygon fill="#528b8b" stroke="#528b8b" stroke-width="2" points="1453.52,-1306.38 1462.67,-1301.03 1452.18,-1299.51 1453.52,-1306.38"/>
</g>
<!-- src/peer/peer&#45;client.ts&#45;&gt;src/crypto/crypto&#45;types.ts -->
<g id="edge26" class="edge">
<title>src/peer/peer&#45;client.ts&#45;&gt;src/crypto/crypto&#45;types.ts</title>
<path fill="none" stroke="#528b8b" stroke-width="2" d="M435.23,-774.36C466.46,-779.4 503.46,-784.98 537,-789.02 918.76,-834.97 1020.89,-793.07 1399,-863.02 1424.06,-867.65 1451.1,-874.9 1474.61,-881.96"/>
<polygon fill="#528b8b" stroke="#528b8b" stroke-width="2" points="1473.87,-885.39 1484.45,-884.97 1475.91,-878.7 1473.87,-885.39"/>
</g>
<!-- src/peer/peer&#45;types.ts -->
<g id="node16" class="node">
<title>src/peer/peer&#45;types.ts</title>
<path fill="#79cdcd" stroke="#79cdcd" d="M710,-780.02C710,-780.02 587,-780.02 587,-780.02 581,-780.02 575,-774.02 575,-768.02 575,-768.02 575,-756.02 575,-756.02 575,-750.02 581,-744.02 587,-744.02 587,-744.02 710,-744.02 710,-744.02 716,-744.02 722,-750.02 722,-756.02 722,-756.02 722,-768.02 722,-768.02 722,-774.02 716,-780.02 710,-780.02"/>
<text text-anchor="middle" x="648.5" y="-758.32" font-family="Helvetica,sans-Serif" font-size="14.00">src/peer/peer&#45;types.ts</text>
</g>
<!-- src/peer/peer&#45;client.ts&#45;&gt;src/peer/peer&#45;types.ts -->
<g id="edge28" class="edge">
<title>src/peer/peer&#45;client.ts&#45;&gt;src/peer/peer&#45;types.ts</title>
<path fill="none" stroke="#528b8b" stroke-width="2" d="M435.16,-762.02C474.62,-762.02 523.67,-762.02 564.68,-762.02"/>
<polygon fill="#528b8b" stroke="#528b8b" stroke-width="2" points="564.92,-765.52 574.92,-762.02 564.92,-758.52 564.92,-765.52"/>
</g>
<!-- src/storage/compare.ts -->
<g id="node18" class="node">
<title>src/storage/compare.ts</title>
<path fill="#79cdcd" stroke="#79cdcd" d="M714,-498.02C714,-498.02 583,-498.02 583,-498.02 577,-498.02 571,-492.02 571,-486.02 571,-486.02 571,-474.02 571,-474.02 571,-468.02 577,-462.02 583,-462.02 583,-462.02 714,-462.02 714,-462.02 720,-462.02 726,-468.02 726,-474.02 726,-474.02 726,-486.02 726,-486.02 726,-492.02 720,-498.02 714,-498.02"/>
<text text-anchor="middle" x="648.5" y="-476.32" font-family="Helvetica,sans-Serif" font-size="14.00">src/storage/compare.ts</text>
</g>
<!-- src/peer/peer&#45;client.ts&#45;&gt;src/storage/compare.ts -->
<g id="edge29" class="edge">
<title>src/peer/peer&#45;client.ts&#45;&gt;src/storage/compare.ts</title>
<path fill="none" stroke="#528b8b" stroke-width="2" d="M428.89,-743.93C453.33,-734.99 480.15,-722.32 501,-705.02 568.34,-649.14 615.7,-554.22 636.17,-507.57"/>
<polygon fill="#528b8b" stroke="#528b8b" stroke-width="2" points="639.5,-508.68 640.24,-498.11 633.07,-505.92 639.5,-508.68"/>
</g>
<!-- src/storage/storage&#45;types.ts -->
<g id="node27" class="node">
<title>src/storage/storage&#45;types.ts</title>
<path fill="#79cdcd" stroke="#79cdcd" d="M1014.5,-620.02C1014.5,-620.02 855.5,-620.02 855.5,-620.02 849.5,-620.02 843.5,-614.02 843.5,-608.02 843.5,-608.02 843.5,-596.02 843.5,-596.02 843.5,-590.02 849.5,-584.02 855.5,-584.02 855.5,-584.02 1014.5,-584.02 1014.5,-584.02 1020.5,-584.02 1026.5,-590.02 1026.5,-596.02 1026.5,-596.02 1026.5,-608.02 1026.5,-608.02 1026.5,-614.02 1020.5,-620.02 1014.5,-620.02"/>
<text text-anchor="middle" x="935" y="-598.32" font-family="Helvetica,sans-Serif" font-size="14.00">src/storage/storage&#45;types.ts</text>
</g>
<!-- src/peer/peer&#45;client.ts&#45;&gt;src/storage/storage&#45;types.ts -->
<g id="edge27" class="edge">
<title>src/peer/peer&#45;client.ts&#45;&gt;src/storage/storage&#45;types.ts</title>
<path fill="none" stroke="#528b8b" stroke-width="2" d="M431.28,-743.99C510.5,-722.96 644.95,-686.85 760,-654.02 794.76,-644.1 833.28,-632.64 865.22,-623"/>
<polygon fill="#528b8b" stroke="#528b8b" stroke-width="2" points="866.35,-626.32 874.91,-620.07 864.33,-619.61 866.35,-626.32"/>
</g>
<!-- src/peer/peer&#45;server.ts -->
<g id="node15" class="node">
<title>src/peer/peer&#45;server.ts</title>
<path fill="#79cdcd" stroke="#79cdcd" d="M426,-845.02C426,-845.02 298,-845.02 298,-845.02 292,-845.02 286,-839.02 286,-833.02 286,-833.02 286,-821.02 286,-821.02 286,-815.02 292,-809.02 298,-809.02 298,-809.02 426,-809.02 426,-809.02 432,-809.02 438,-815.02 438,-821.02 438,-821.02 438,-833.02 438,-833.02 438,-839.02 432,-845.02 426,-845.02"/>
<text text-anchor="middle" x="362" y="-823.32" font-family="Helvetica,sans-Serif" font-size="14.00">src/peer/peer&#45;server.ts</text>
</g>
<!-- src/peer/peer&#45;server.ts&#45;&gt;src/crypto/crypto&#45;types.ts -->
<g id="edge31" class="edge">
<title>src/peer/peer&#45;server.ts&#45;&gt;src/crypto/crypto&#45;types.ts</title>
<path fill="none" stroke="#528b8b" stroke-width="2" d="M438.02,-830.38C567.73,-836.32 842.28,-849.56 1074,-865.02 1218.58,-874.66 1254.59,-879.01 1399,-891.02 1413.95,-892.26 1429.8,-893.61 1445.24,-894.93"/>
<polygon fill="#528b8b" stroke="#528b8b" stroke-width="2" points="1445.06,-898.43 1455.32,-895.79 1445.66,-891.45 1445.06,-898.43"/>
</g>
<!-- src/peer/peer&#45;server.ts&#45;&gt;src/peer/peer&#45;types.ts -->
<g id="edge32" class="edge">
<title>src/peer/peer&#45;server.ts&#45;&gt;src/peer/peer&#45;types.ts</title>
<path fill="none" stroke="#528b8b" stroke-width="2" d="M438.12,-809.86C477.21,-800.93 525.07,-789.99 565.16,-780.83"/>
<polygon fill="#528b8b" stroke="#528b8b" stroke-width="2" points="565.94,-784.24 574.91,-778.6 564.38,-777.42 565.94,-784.24"/>
</g>
<!-- src/peer/peer&#45;types.ts&#45;&gt;src/crypto/crypto&#45;types.ts -->
<g id="edge34" class="edge">
<title>src/peer/peer&#45;types.ts&#45;&gt;src/crypto/crypto&#45;types.ts</title>
<path fill="none" stroke="#528b8b" stroke-width="2" d="M722.09,-750.84C859.33,-732.76 1164.13,-707.26 1399,-794.02 1446.13,-811.43 1489.86,-851.19 1515.25,-877.57"/>
<polygon fill="#528b8b" stroke="#528b8b" stroke-width="2" points="1512.81,-880.09 1522.21,-884.96 1517.9,-875.28 1512.81,-880.09"/>
</g>
<!-- src/peer/peer&#45;types.ts&#45;&gt;src/storage/storage&#45;types.ts -->
<g id="edge33" class="edge">
<title>src/peer/peer&#45;types.ts&#45;&gt;src/storage/storage&#45;types.ts</title>
<path fill="none" stroke="#528b8b" stroke-width="2" d="M722.22,-744.94C735.11,-740.8 748.18,-735.85 760,-730.02 816.59,-702.12 873.95,-655.61 906.63,-627"/>
<polygon fill="#528b8b" stroke="#528b8b" stroke-width="2" points="909.22,-629.38 914.39,-620.13 904.58,-624.13 909.22,-629.38"/>
</g>
<!-- src/peer/peer.ts&#45;&gt;src/peer/peer&#45;types.ts -->
<g id="edge36" class="edge">
<title>src/peer/peer.ts&#45;&gt;src/peer/peer&#45;types.ts</title>
<path fill="none" stroke="#528b8b" stroke-width="2" d="M417.18,-694.02C462.45,-707.38 527.33,-726.54 576.71,-741.12"/>
<polygon fill="#528b8b" stroke="#528b8b" stroke-width="2" points="575.78,-744.49 586.36,-743.97 577.76,-737.78 575.78,-744.49"/>
</g>
<!-- src/peer/peer.ts&#45;&gt;src/storage/storage&#45;types.ts -->
<g id="edge35" class="edge">
<title>src/peer/peer.ts&#45;&gt;src/storage/storage&#45;types.ts</title>
<path fill="none" stroke="#528b8b" stroke-width="2" d="M417.23,-670.8C512.68,-658.1 712.03,-631.56 833.32,-615.42"/>
<polygon fill="#528b8b" stroke="#528b8b" stroke-width="2" points="833.91,-618.87 843.36,-614.08 832.99,-611.93 833.91,-618.87"/>
</g>
<!-- src/storage/util&#45;types.ts -->
<g id="node28" class="node">
<title>src/storage/util&#45;types.ts</title>
<path fill="#79cdcd" stroke="#79cdcd" d="M1000.5,-395.02C1000.5,-395.02 869.5,-395.02 869.5,-395.02 863.5,-395.02 857.5,-389.02 857.5,-383.02 857.5,-383.02 857.5,-371.02 857.5,-371.02 857.5,-365.02 863.5,-359.02 869.5,-359.02 869.5,-359.02 1000.5,-359.02 1000.5,-359.02 1006.5,-359.02 1012.5,-365.02 1012.5,-371.02 1012.5,-371.02 1012.5,-383.02 1012.5,-383.02 1012.5,-389.02 1006.5,-395.02 1000.5,-395.02"/>
<text text-anchor="middle" x="935" y="-373.32" font-family="Helvetica,sans-Serif" font-size="14.00">src/storage/util&#45;types.ts</text>
</g>
<!-- src/storage/compare.ts&#45;&gt;src/storage/util&#45;types.ts -->
<g id="edge37" class="edge">
<title>src/storage/compare.ts&#45;&gt;src/storage/util&#45;types.ts</title>
<path fill="none" stroke="#528b8b" stroke-width="2" d="M699.38,-461.96C748.29,-444.25 822.86,-417.25 874.76,-398.47"/>
<polygon fill="#528b8b" stroke="#528b8b" stroke-width="2" points="875.96,-401.75 884.18,-395.06 873.58,-395.17 875.96,-401.75"/>
</g>
<!-- src/storage/lock.ts -->
<g id="node19" class="node">
<title>src/storage/lock.ts</title>
<path fill="#79cdcd" stroke="#79cdcd" d="M1305,-691.02C1305,-691.02 1204,-691.02 1204,-691.02 1198,-691.02 1192,-685.02 1192,-679.02 1192,-679.02 1192,-667.02 1192,-667.02 1192,-661.02 1198,-655.02 1204,-655.02 1204,-655.02 1305,-655.02 1305,-655.02 1311,-655.02 1317,-661.02 1317,-667.02 1317,-667.02 1317,-679.02 1317,-679.02 1317,-685.02 1311,-691.02 1305,-691.02"/>
<text text-anchor="middle" x="1254.5" y="-669.32" font-family="Helvetica,sans-Serif" font-size="14.00">src/storage/lock.ts</text>
</g>
<!-- src/storage/query&#45;follower&#45;types.ts -->
<g id="node20" class="node">
<title>src/storage/query&#45;follower&#45;types.ts</title>
<path fill="#79cdcd" stroke="#79cdcd" d="M748,-330.02C748,-330.02 549,-330.02 549,-330.02 543,-330.02 537,-324.02 537,-318.02 537,-318.02 537,-306.02 537,-306.02 537,-300.02 543,-294.02 549,-294.02 549,-294.02 748,-294.02 748,-294.02 754,-294.02 760,-300.02 760,-306.02 760,-306.02 760,-318.02 760,-318.02 760,-324.02 754,-330.02 748,-330.02"/>
<text text-anchor="middle" x="648.5" y="-308.32" font-family="Helvetica,sans-Serif" font-size="14.00">src/storage/query&#45;follower&#45;types.ts</text>
</g>
<!-- src/storage/query&#45;follower&#45;types.ts&#45;&gt;src/storage/storage&#45;types.ts -->
<g id="edge38" class="edge">
<title>src/storage/query&#45;follower&#45;types.ts&#45;&gt;src/storage/storage&#45;types.ts</title>
<path fill="none" stroke="#528b8b" stroke-width="2" d="M668.46,-330.17C690.62,-351.48 728.31,-387.98 760,-420.02 814.44,-475.06 876.83,-541.05 910.12,-576.5"/>
<polygon fill="#528b8b" stroke="#528b8b" stroke-width="2" points="907.76,-579.1 917.16,-584 912.87,-574.31 907.76,-579.1"/>
</g>
<!-- src/storage/query&#45;follower.ts&#45;&gt;src/storage/query&#45;follower&#45;types.ts -->
<g id="edge43" class="edge">
<title>src/storage/query&#45;follower.ts&#45;&gt;src/storage/query&#45;follower&#45;types.ts</title>
<path fill="none" stroke="#528b8b" stroke-width="2" d="M441.87,-265.04C478.1,-273.32 521.22,-283.17 558.6,-291.71"/>
<polygon fill="#528b8b" stroke="#528b8b" stroke-width="2" points="557.95,-295.15 568.48,-293.96 559.51,-288.32 557.95,-295.15"/>
</g>
<!-- src/storage/query&#45;types.ts -->
<g id="node22" class="node">
<title>src/storage/query&#45;types.ts</title>
<path fill="#79cdcd" stroke="#79cdcd" d="M1328.5,-147.02C1328.5,-147.02 1180.5,-147.02 1180.5,-147.02 1174.5,-147.02 1168.5,-141.02 1168.5,-135.02 1168.5,-135.02 1168.5,-123.02 1168.5,-123.02 1168.5,-117.02 1174.5,-111.02 1180.5,-111.02 1180.5,-111.02 1328.5,-111.02 1328.5,-111.02 1334.5,-111.02 1340.5,-117.02 1340.5,-123.02 1340.5,-123.02 1340.5,-135.02 1340.5,-135.02 1340.5,-141.02 1334.5,-147.02 1328.5,-147.02"/>
<text text-anchor="middle" x="1254.5" y="-125.32" font-family="Helvetica,sans-Serif" font-size="14.00">src/storage/query&#45;types.ts</text>
</g>
<!-- src/storage/query&#45;follower.ts&#45;&gt;src/storage/query&#45;types.ts -->
<g id="edge40" class="edge">
<title>src/storage/query&#45;follower.ts&#45;&gt;src/storage/query&#45;types.ts</title>
<path fill="none" stroke="#528b8b" stroke-width="2" d="M374.62,-228.74C399.23,-191.95 460.69,-109.85 537,-79.02 765.18,13.16 1067.38,-66.5 1193.85,-107.84"/>
<polygon fill="#528b8b" stroke="#528b8b" stroke-width="2" points="1192.78,-111.17 1203.38,-110.99 1194.98,-104.53 1192.78,-111.17"/>
</g>
<!-- src/storage/query.ts -->
<g id="node23" class="node">
<title>src/storage/query.ts</title>
<path fill="#79cdcd" stroke="#79cdcd" d="M703.5,-124.02C703.5,-124.02 593.5,-124.02 593.5,-124.02 587.5,-124.02 581.5,-118.02 581.5,-112.02 581.5,-112.02 581.5,-100.02 581.5,-100.02 581.5,-94.02 587.5,-88.02 593.5,-88.02 593.5,-88.02 703.5,-88.02 703.5,-88.02 709.5,-88.02 715.5,-94.02 715.5,-100.02 715.5,-100.02 715.5,-112.02 715.5,-112.02 715.5,-118.02 709.5,-124.02 703.5,-124.02"/>
<text text-anchor="middle" x="648.5" y="-102.32" font-family="Helvetica,sans-Serif" font-size="14.00">src/storage/query.ts</text>
</g>
<!-- src/storage/query&#45;follower.ts&#45;&gt;src/storage/query.ts -->
<g id="edge42" class="edge">
<title>src/storage/query&#45;follower.ts&#45;&gt;src/storage/query.ts</title>
<path fill="none" stroke="#528b8b" stroke-width="2" d="M408.22,-228.99C436.37,-216.62 472.5,-198.57 501,-177.02 519.82,-162.79 516.93,-150.42 537,-138.02 547.59,-131.47 559.57,-126.22 571.65,-122.01"/>
<polygon fill="#528b8b" stroke="#528b8b" stroke-width="2" points="572.9,-125.29 581.32,-118.86 570.73,-118.63 572.9,-125.29"/>
</g>
<!-- src/storage/query&#45;follower.ts&#45;&gt;src/storage/storage&#45;types.ts -->
<g id="edge41" class="edge">
<title>src/storage/query&#45;follower.ts&#45;&gt;src/storage/storage&#45;types.ts</title>
<path fill="none" stroke="#528b8b" stroke-width="2" d="M455.26,-250.49C565.17,-255.45 736.93,-266.13 760,-285.02 802.75,-320.03 771.9,-354.29 796,-404.02 828.22,-470.52 881.54,-539.36 911.6,-575.76"/>
<polygon fill="#528b8b" stroke="#528b8b" stroke-width="2" points="909.27,-578.43 918.36,-583.87 914.64,-573.95 909.27,-578.43"/>
</g>
<!-- src/storage/query&#45;follower.ts&#45;&gt;src/storage/util&#45;types.ts -->
<g id="edge39" class="edge">
<title>src/storage/query&#45;follower.ts&#45;&gt;src/storage/util&#45;types.ts</title>
<path fill="none" stroke="#528b8b" stroke-width="2" d="M455.03,-232.84C537.18,-223.73 659.66,-219.01 760,-252.02 820.59,-271.95 878.07,-321.26 909.43,-351.65"/>
<polygon fill="#528b8b" stroke="#528b8b" stroke-width="2" points="907.25,-354.41 916.83,-358.94 912.16,-349.43 907.25,-354.41"/>
</g>
<!-- src/storage/query.ts&#45;&gt;src/storage/query&#45;types.ts -->
<g id="edge44" class="edge">
<title>src/storage/query.ts&#45;&gt;src/storage/query&#45;types.ts</title>
<path fill="none" stroke="#528b8b" stroke-width="2" d="M715.58,-108.53C822.69,-112.61 1034.64,-120.68 1158.1,-125.39"/>
<polygon fill="#528b8b" stroke="#528b8b" stroke-width="2" points="1158.18,-128.89 1168.3,-125.77 1158.44,-121.9 1158.18,-128.89"/>
</g>
<!-- src/storage/storage&#45;async.ts&#45;&gt;src/format&#45;validators/format&#45;validator&#45;types.ts -->
<g id="edge48" class="edge">
<title>src/storage/storage&#45;async.ts&#45;&gt;src/format&#45;validators/format&#45;validator&#45;types.ts</title>
<path fill="none" stroke="#528b8b" stroke-width="2" d="M395.11,-339.95C429.11,-321.94 484.97,-295.49 537,-285.02 772.68,-237.58 873.37,-217.56 1074,-350.02 1162.34,-408.34 1219.87,-526.43 1242.56,-580.21"/>
<polygon fill="#528b8b" stroke="#528b8b" stroke-width="2" points="1239.46,-581.87 1246.51,-589.77 1245.93,-579.2 1239.46,-581.87"/>
</g>
<!-- src/storage/storage&#45;async.ts&#45;&gt;src/storage/compare.ts -->
<g id="edge49" class="edge">
<title>src/storage/storage&#45;async.ts&#45;&gt;src/storage/compare.ts</title>
<path fill="none" stroke="#528b8b" stroke-width="2" d="M393.57,-376.17C427.66,-395.85 484.88,-427.22 537,-448.02 546.87,-451.96 557.41,-455.64 567.92,-459"/>
<polygon fill="#528b8b" stroke="#528b8b" stroke-width="2" points="566.95,-462.37 577.54,-462 569.03,-455.69 566.95,-462.37"/>
</g>
<!-- src/storage/storage&#45;async.ts&#45;&gt;src/storage/query&#45;types.ts -->
<g id="edge46" class="edge">
<title>src/storage/storage&#45;async.ts&#45;&gt;src/storage/query&#45;types.ts</title>
<path fill="none" stroke="#528b8b" stroke-width="2" d="M408.26,-339.99C438.24,-325.99 476.42,-303.92 501,-274.02 530.47,-238.17 499.84,-203.81 537,-176.02 561.46,-157.73 968.54,-139.89 1157.96,-132.54"/>
<polygon fill="#528b8b" stroke="#528b8b" stroke-width="2" points="1158.33,-136.03 1168.19,-132.14 1158.06,-129.03 1158.33,-136.03"/>
</g>
<!-- src/storage/storage&#45;async.ts&#45;&gt;src/storage/storage&#45;types.ts -->
<g id="edge47" class="edge">
<title>src/storage/storage&#45;async.ts&#45;&gt;src/storage/storage&#45;types.ts</title>
<path fill="none" stroke="#528b8b" stroke-width="2" d="M455.37,-374.91C555.31,-394.09 707.44,-426.22 760,-453.02 821.99,-484.63 880.53,-542.63 911.37,-576.19"/>
<polygon fill="#528b8b" stroke="#528b8b" stroke-width="2" points="908.93,-578.71 918.24,-583.76 914.12,-574 908.93,-578.71"/>
</g>
<!-- src/storage/storage&#45;async.ts&#45;&gt;src/storage/util&#45;types.ts -->
<g id="edge45" class="edge">
<title>src/storage/storage&#45;async.ts&#45;&gt;src/storage/util&#45;types.ts</title>
<path fill="none" stroke="#528b8b" stroke-width="2" d="M455.06,-361.08C563.24,-364.68 741.37,-370.61 847.21,-374.13"/>
<polygon fill="#528b8b" stroke="#528b8b" stroke-width="2" points="847.11,-377.63 857.22,-374.46 847.34,-370.63 847.11,-377.63"/>
</g>
<!-- src/storage/storage&#45;cache.ts -->
<g id="node25" class="node">
<title>src/storage/storage&#45;cache.ts</title>
<path fill="#79cdcd" stroke="#79cdcd" d="M175,-265.02C175,-265.02 12,-265.02 12,-265.02 6,-265.02 0,-259.02 0,-253.02 0,-253.02 0,-241.02 0,-241.02 0,-235.02 6,-229.02 12,-229.02 12,-229.02 175,-229.02 175,-229.02 181,-229.02 187,-235.02 187,-241.02 187,-241.02 187,-253.02 187,-253.02 187,-259.02 181,-265.02 175,-265.02"/>
<text text-anchor="middle" x="93.5" y="-243.32" font-family="Helvetica,sans-Serif" font-size="14.00">src/storage/storage&#45;cache.ts</text>
</g>
<!-- src/storage/storage&#45;cache.ts&#45;&gt;src/storage/query&#45;follower.ts -->
<g id="edge51" class="edge">
<title>src/storage/storage&#45;cache.ts&#45;&gt;src/storage/query&#45;follower.ts</title>
<path fill="none" stroke="#528b8b" stroke-width="2" d="M187.33,-247.02C210.36,-247.02 235.17,-247.02 258.63,-247.02"/>
<polygon fill="#528b8b" stroke="#528b8b" stroke-width="2" points="258.95,-250.52 268.95,-247.02 258.95,-243.52 258.95,-250.52"/>
</g>
<!-- src/storage/storage&#45;cache.ts&#45;&gt;src/storage/query&#45;types.ts -->
<g id="edge52" class="edge">
<title>src/storage/storage&#45;cache.ts&#45;&gt;src/storage/query&#45;types.ts</title>
<path fill="none" stroke="#528b8b" stroke-width="2" d="M112.01,-228.67C135.35,-205.17 178.84,-164.55 223,-140.02 351.51,-68.62 391.86,-59.43 537,-36.02 772.62,1.99 842.12,20.48 1074,-36.02 1128.7,-49.35 1185.32,-82.49 1219.99,-105.38"/>
<polygon fill="#528b8b" stroke="#528b8b" stroke-width="2" points="1218.06,-108.3 1228.31,-110.96 1221.95,-102.48 1218.06,-108.3"/>
</g>
<!-- src/storage/storage&#45;cache.ts&#45;&gt;src/storage/query.ts -->
<g id="edge50" class="edge">
<title>src/storage/storage&#45;cache.ts&#45;&gt;src/storage/query.ts</title>
<path fill="none" stroke="#528b8b" stroke-width="2" d="M165.1,-229.02C269.43,-202.42 464,-152.81 571.4,-125.42"/>
<polygon fill="#528b8b" stroke="#528b8b" stroke-width="2" points="572.37,-128.79 581.2,-122.92 570.64,-122 572.37,-128.79"/>
</g>
<!-- src/storage/storage&#45;cache.ts&#45;&gt;src/storage/storage&#45;async.ts -->
<g id="edge53" class="edge">
<title>src/storage/storage&#45;cache.ts&#45;&gt;src/storage/storage&#45;async.ts</title>
<path fill="none" stroke="#528b8b" stroke-width="2" d="M137.91,-265.1C184.47,-284.49 258.41,-315.29 308.28,-336.06"/>
<polygon fill="#528b8b" stroke="#528b8b" stroke-width="2" points="307.03,-339.33 317.61,-339.95 309.72,-332.87 307.03,-339.33"/>
</g>
<!-- src/storage/storage&#45;cache.ts&#45;&gt;src/storage/storage&#45;types.ts -->
<g id="edge54" class="edge">
<title>src/storage/storage&#45;cache.ts&#45;&gt;src/storage/storage&#45;types.ts</title>
<path fill="none" stroke="#528b8b" stroke-width="2" d="M95.85,-265.07C100.97,-319.32 124.27,-481.58 223,-553.02 317.78,-621.6 660.51,-615.6 833.15,-607.78"/>
<polygon fill="#528b8b" stroke="#528b8b" stroke-width="2" points="833.43,-611.27 843.26,-607.31 833.11,-604.28 833.43,-611.27"/>
</g>
<!-- src/storage/storage&#45;driver&#45;async&#45;memory.ts&#45;&gt;src/storage/compare.ts -->
<g id="edge58" class="edge">
<title>src/storage/storage&#45;driver&#45;async&#45;memory.ts&#45;&gt;src/storage/compare.ts</title>
<path fill="none" stroke="#528b8b" stroke-width="2" d="M474.63,-507.97C503.2,-503.35 533.5,-498.45 560.63,-494.07"/>
<polygon fill="#528b8b" stroke="#528b8b" stroke-width="2" points="561.54,-497.46 570.85,-492.41 560.42,-490.55 561.54,-497.46"/>
</g>
<!-- src/storage/storage&#45;driver&#45;async&#45;memory.ts&#45;&gt;src/storage/lock.ts -->
<g id="edge60" class="edge">
<title>src/storage/storage&#45;driver&#45;async&#45;memory.ts&#45;&gt;src/storage/lock.ts</title>
<path fill="none" stroke="#528b8b" stroke-width="2" d="M418.65,-544.14C452.62,-554.82 497.06,-568.14 537,-578.02 650.89,-606.18 679.91,-612.05 796,-629.02 931.7,-648.86 1091.41,-661.89 1181.72,-668.31"/>
<polygon fill="#528b8b" stroke="#528b8b" stroke-width="2" points="1181.63,-671.82 1191.85,-669.03 1182.12,-664.83 1181.63,-671.82"/>
</g>
<!-- src/storage/storage&#45;driver&#45;async&#45;memory.ts&#45;&gt;src/storage/query&#45;types.ts -->
<g id="edge56" class="edge">
<title>src/storage/storage&#45;driver&#45;async&#45;memory.ts&#45;&gt;src/storage/query&#45;types.ts</title>
<path fill="none" stroke="#528b8b" stroke-width="2" d="M501.25,-538.23C656.46,-544.47 908.22,-531.29 1074,-404.02 1162.34,-336.2 1220.38,-211.76 1242.92,-156.6"/>
<polygon fill="#528b8b" stroke="#528b8b" stroke-width="2" points="1246.24,-157.72 1246.72,-147.13 1239.75,-155.11 1246.24,-157.72"/>
</g>
<!-- src/storage/storage&#45;driver&#45;async&#45;memory.ts&#45;&gt;src/storage/query.ts -->
<g id="edge59" class="edge">
<title>src/storage/storage&#45;driver&#45;async&#45;memory.ts&#45;&gt;src/storage/query.ts</title>
<path fill="none" stroke="#528b8b" stroke-width="2" d="M386.14,-507.86C416.36,-483.04 469.15,-435.8 501,-385.02 526.1,-345 516.48,-327.57 537,-285.02 564.38,-228.25 605.06,-166.67 628.67,-132.57"/>
<polygon fill="#528b8b" stroke="#528b8b" stroke-width="2" points="631.72,-134.31 634.56,-124.11 625.97,-130.31 631.72,-134.31"/>
</g>
<!-- src/storage/storage&#45;driver&#45;async&#45;memory.ts&#45;&gt;src/storage/storage&#45;types.ts -->
<g id="edge57" class="edge">
<title>src/storage/storage&#45;driver&#45;async&#45;memory.ts&#45;&gt;src/storage/storage&#45;types.ts</title>
<path fill="none" stroke="#528b8b" stroke-width="2" d="M498.32,-544.03C601.1,-557.71 740.17,-576.22 833.28,-588.61"/>
<polygon fill="#528b8b" stroke="#528b8b" stroke-width="2" points="832.9,-592.09 843.27,-589.94 833.82,-585.15 832.9,-592.09"/>
</g>
<!-- src/storage/storage&#45;driver&#45;async&#45;memory.ts&#45;&gt;src/storage/util&#45;types.ts -->
<g id="edge55" class="edge">
<title>src/storage/storage&#45;driver&#45;async&#45;memory.ts&#45;&gt;src/storage/util&#45;types.ts</title>
<path fill="none" stroke="#528b8b" stroke-width="2" d="M399.85,-507.91C434.51,-491.51 488.23,-467.74 537,-453.02 641.69,-421.41 766.03,-400.12 847.31,-388.3"/>
<polygon fill="#528b8b" stroke="#528b8b" stroke-width="2" points="848.1,-391.73 857.5,-386.84 847.1,-384.8 848.1,-391.73"/>
</g>
<!-- src/storage/storage&#45;types.ts&#45;&gt;src/format&#45;validators/format&#45;validator&#45;types.ts -->
<g id="edge62" class="edge">
<title>src/storage/storage&#45;types.ts&#45;&gt;src/format&#45;validators/format&#45;validator&#45;types.ts</title>
<path fill="none" stroke="#528b8b" stroke-width="2" d="M1026.56,-603.73C1049.35,-604.16 1074.46,-604.64 1099.42,-605.11"/>
<polygon fill="#528b8b" stroke="#528b8b" stroke-width="2" points="1099.66,-608.61 1109.72,-605.3 1099.79,-601.61 1099.66,-608.61"/>
</g>
<!-- src/storage/storage&#45;types.ts&#45;&gt;src/storage/lock.ts -->
<g id="edge63" class="edge">
<title>src/storage/storage&#45;types.ts&#45;&gt;src/storage/lock.ts</title>
<path fill="none" stroke="#528b8b" stroke-width="2" d="M1016.53,-620.03C1067.49,-631.42 1132.79,-646.02 1181.93,-657.01"/>
<polygon fill="#528b8b" stroke="#528b8b" stroke-width="2" points="1181.32,-660.46 1191.85,-659.23 1182.85,-653.63 1181.32,-660.46"/>
</g>
<!-- src/storage/storage&#45;types.ts&#45;&gt;src/storage/query&#45;types.ts -->
<g id="edge61" class="edge">
<title>src/storage/storage&#45;types.ts&#45;&gt;src/storage/query&#45;types.ts</title>
<path fill="none" stroke="#528b8b" stroke-width="2" d="M1001.39,-583.89C1026.62,-574.24 1054.14,-560.09 1074,-540.02 1186.52,-426.31 1234.05,-230.4 1248.43,-157.46"/>
<polygon fill="#528b8b" stroke="#528b8b" stroke-width="2" points="1251.95,-157.71 1250.39,-147.23 1245.07,-156.39 1251.95,-157.71"/>
</g>
</g>
</svg>
