<?xml version="1.0" encoding="UTF-8" standalone="no"?>
<!DOCTYPE svg PUBLIC "-//W3C//DTD SVG 1.1//EN"
 "http://www.w3.org/Graphics/SVG/1.1/DTD/svg11.dtd">
<!-- Generated by graphviz version 2.44.1 (20200629.0846)
 -->
<!-- Title: G Pages: 1 -->
<svg width="1212pt" height="1121pt"
 viewBox="0.00 0.00 1212.00 1121.00" xmlns="http://www.w3.org/2000/svg" xmlns:xlink="http://www.w3.org/1999/xlink">
<g id="graph0" class="graph" transform="scale(1 1) rotate(0) translate(4 1117)">
<title>G</title>
<polygon fill="white" stroke="transparent" points="-4,4 -4,-1117 1208,-1117 1208,4 -4,4"/>
<g id="clust1" class="cluster">
<title>cluster2936914699</title>
<path fill="bisque" stroke="#8b7d6b" stroke-width="2" d="M953,-478C953,-478 1184,-478 1184,-478 1190,-478 1196,-484 1196,-490 1196,-490 1196,-595 1196,-595 1196,-601 1190,-607 1184,-607 1184,-607 953,-607 953,-607 947,-607 941,-601 941,-595 941,-595 941,-490 941,-490 941,-484 947,-478 953,-478"/>
<text text-anchor="start" x="1020" y="-592.8" font-family="Helvetica,sans-Serif" font-weight="bold" font-size="14.00">core&#45;validators</text>
</g>
<g id="clust2" class="cluster">
<title>cluster6872782039</title>
<path fill="bisque" stroke="#8b7d6b" stroke-width="2" d="M588,-630C588,-630 1043.5,-630 1043.5,-630 1049.5,-630 1055.5,-636 1055.5,-642 1055.5,-642 1055.5,-895 1055.5,-895 1055.5,-901 1049.5,-907 1043.5,-907 1043.5,-907 588,-907 588,-907 582,-907 576,-901 576,-895 576,-895 576,-642 576,-642 576,-636 582,-630 588,-630"/>
<text text-anchor="start" x="794.75" y="-892.8" font-family="Helvetica,sans-Serif" font-weight="bold" font-size="14.00">crypto</text>
</g>
<g id="clust3" class="cluster">
<title>cluster5607067845</title>
<path fill="bisque" stroke="#8b7d6b" stroke-width="2" d="M546,-386C546,-386 890.5,-386 890.5,-386 896.5,-386 902.5,-392 902.5,-398 902.5,-398 902.5,-449 902.5,-449 902.5,-455 896.5,-461 890.5,-461 890.5,-461 546,-461 546,-461 540,-461 534,-455 534,-449 534,-449 534,-398 534,-398 534,-392 540,-386 546,-386"/>
<text text-anchor="start" x="662.25" y="-446.8" font-family="Helvetica,sans-Serif" font-weight="bold" font-size="14.00">format&#45;validators</text>
</g>
<g id="clust4" class="cluster">
<title>cluster8524025651</title>
<path fill="bisque" stroke="#8b7d6b" stroke-width="2" d="M150,-8C150,-8 860,-8 860,-8 866,-8 872,-14 872,-20 872,-20 872,-319 872,-319 872,-325 866,-331 860,-331 860,-331 150,-331 150,-331 144,-331 138,-325 138,-319 138,-319 138,-20 138,-20 138,-14 144,-8 150,-8"/>
<text text-anchor="start" x="480.5" y="-316.8" font-family="Helvetica,sans-Serif" font-weight="bold" font-size="14.00">storage</text>
</g>
<!-- src/example&#45;app.ts -->
<g id="node1" class="node">
<title>src/example&#45;app.ts</title>
<path fill="#79cdcd" stroke="#79cdcd" d="M98,-346C98,-346 12,-346 12,-346 6,-346 0,-340 0,-334 0,-334 0,-322 0,-322 0,-316 6,-310 12,-310 12,-310 98,-310 98,-310 104,-310 110,-316 110,-322 110,-322 110,-334 110,-334 110,-340 104,-346 98,-346"/>
<text text-anchor="middle" x="55" y="-324.3" font-family="Helvetica,sans-Serif" font-size="14.00">example&#45;app.ts</text>
</g>
<!-- src/crypto/crypto&#45;driver&#45;tweetnacl.ts -->
<g id="node8" class="node">
<title>src/crypto/crypto&#45;driver&#45;tweetnacl.ts</title>
<path fill="#79cdcd" stroke="#79cdcd" d="M885,-876C885,-876 742,-876 742,-876 736,-876 730,-870 730,-864 730,-864 730,-852 730,-852 730,-846 736,-840 742,-840 742,-840 885,-840 885,-840 891,-840 897,-846 897,-852 897,-852 897,-864 897,-864 897,-870 891,-876 885,-876"/>
<text text-anchor="middle" x="813.5" y="-854.3" font-family="Helvetica,sans-Serif" font-size="14.00">crypto&#45;driver&#45;tweetnacl.ts</text>
</g>
<!-- src/example&#45;app.ts&#45;&gt;src/crypto/crypto&#45;driver&#45;tweetnacl.ts -->
<g id="edge17" class="edge">
<title>src/example&#45;app.ts&#45;&gt;src/crypto/crypto&#45;driver&#45;tweetnacl.ts</title>
<path fill="none" stroke="#528b8b" stroke-width="2" d="M69.44,-346.02C84.87,-366.13 111.47,-399.1 138,-424 271.28,-549.09 694.24,-813.67 730,-831 733.74,-832.81 737.63,-834.55 741.59,-836.2"/>
<polygon fill="#528b8b" stroke="#528b8b" stroke-width="2" points="740.36,-839.48 750.94,-839.91 742.94,-832.97 740.36,-839.48"/>
</g>
<!-- src/crypto/crypto.ts -->
<g id="node10" class="node">
<title>src/crypto/crypto.ts</title>
<path fill="#79cdcd" stroke="#79cdcd" d="M640,-674C640,-674 596,-674 596,-674 590,-674 584,-668 584,-662 584,-662 584,-650 584,-650 584,-644 590,-638 596,-638 596,-638 640,-638 640,-638 646,-638 652,-644 652,-650 652,-650 652,-662 652,-662 652,-668 646,-674 640,-674"/>
<text text-anchor="middle" x="618" y="-652.3" font-family="Helvetica,sans-Serif" font-size="14.00">crypto.ts</text>
</g>
<!-- src/example&#45;app.ts&#45;&gt;src/crypto/crypto.ts -->
<g id="edge16" class="edge">
<title>src/example&#45;app.ts&#45;&gt;src/crypto/crypto.ts</title>
<path fill="none" stroke="#528b8b" stroke-width="2" d="M86.96,-346.1C182.27,-401.82 471.18,-570.74 577.33,-632.81"/>
<polygon fill="#528b8b" stroke="#528b8b" stroke-width="2" points="575.74,-635.93 586.13,-637.95 579.27,-629.89 575.74,-635.93"/>
</g>
<!-- src/format&#45;validators/format&#45;validator&#45;es4.ts -->
<g id="node12" class="node">
<title>src/format&#45;validators/format&#45;validator&#45;es4.ts</title>
<path fill="#79cdcd" stroke="#79cdcd" d="M682,-430C682,-430 554,-430 554,-430 548,-430 542,-424 542,-418 542,-418 542,-406 542,-406 542,-400 548,-394 554,-394 554,-394 682,-394 682,-394 688,-394 694,-400 694,-406 694,-406 694,-418 694,-418 694,-424 688,-430 682,-430"/>
<text text-anchor="middle" x="618" y="-408.3" font-family="Helvetica,sans-Serif" font-size="14.00">format&#45;validator&#45;es4.ts</text>
</g>
<!-- src/example&#45;app.ts&#45;&gt;src/format&#45;validators/format&#45;validator&#45;es4.ts -->
<g id="edge13" class="edge">
<title>src/example&#45;app.ts&#45;&gt;src/format&#45;validators/format&#45;validator&#45;es4.ts</title>
<path fill="none" stroke="#528b8b" stroke-width="2" d="M110.05,-336.09C207.84,-350.74 414.85,-381.73 531.84,-399.25"/>
<polygon fill="#528b8b" stroke="#528b8b" stroke-width="2" points="531.42,-402.73 541.83,-400.74 532.46,-395.8 531.42,-402.73"/>
</g>
<!-- src/storage/query&#45;follower.ts -->
<g id="node17" class="node">
<title>src/storage/query&#45;follower.ts</title>
<path fill="#79cdcd" stroke="#79cdcd" d="M250,-273C250,-273 158,-273 158,-273 152,-273 146,-267 146,-261 146,-261 146,-249 146,-249 146,-243 152,-237 158,-237 158,-237 250,-237 250,-237 256,-237 262,-243 262,-249 262,-249 262,-261 262,-261 262,-267 256,-273 250,-273"/>
<text text-anchor="middle" x="204" y="-251.3" font-family="Helvetica,sans-Serif" font-size="14.00">query&#45;follower.ts</text>
</g>
<!-- src/example&#45;app.ts&#45;&gt;src/storage/query&#45;follower.ts -->
<g id="edge18" class="edge">
<title>src/example&#45;app.ts&#45;&gt;src/storage/query&#45;follower.ts</title>
<path fill="none" stroke="#528b8b" stroke-width="2" d="M92.34,-309.96C112.04,-300.17 136.57,-287.99 157.53,-277.58"/>
<polygon fill="#528b8b" stroke="#528b8b" stroke-width="2" points="159.17,-280.67 166.57,-273.09 156.06,-274.4 159.17,-280.67"/>
</g>
<!-- src/storage/storage&#45;async.ts -->
<g id="node20" class="node">
<title>src/storage/storage&#45;async.ts</title>
<path fill="#79cdcd" stroke="#79cdcd" d="M448,-206C448,-206 356,-206 356,-206 350,-206 344,-200 344,-194 344,-194 344,-182 344,-182 344,-176 350,-170 356,-170 356,-170 448,-170 448,-170 454,-170 460,-176 460,-182 460,-182 460,-194 460,-194 460,-200 454,-206 448,-206"/>
<text text-anchor="middle" x="402" y="-184.3" font-family="Helvetica,sans-Serif" font-size="14.00">storage&#45;async.ts</text>
</g>
<!-- src/example&#45;app.ts&#45;&gt;src/storage/storage&#45;async.ts -->
<g id="edge15" class="edge">
<title>src/example&#45;app.ts&#45;&gt;src/storage/storage&#45;async.ts</title>
<path fill="none" stroke="#528b8b" stroke-width="2" d="M65.4,-309.74C78.37,-286.58 104.05,-247.32 138,-228 198.08,-193.8 277.82,-185.92 333.68,-185.27"/>
<polygon fill="#528b8b" stroke="#528b8b" stroke-width="2" points="333.84,-188.77 343.83,-185.23 333.81,-181.77 333.84,-188.77"/>
</g>
<!-- src/storage/storage&#45;driver&#45;async&#45;memory.ts -->
<g id="node21" class="node">
<title>src/storage/storage&#45;driver&#45;async&#45;memory.ts</title>
<path fill="#79cdcd" stroke="#79cdcd" d="M494,-132C494,-132 310,-132 310,-132 304,-132 298,-126 298,-120 298,-120 298,-108 298,-108 298,-102 304,-96 310,-96 310,-96 494,-96 494,-96 500,-96 506,-102 506,-108 506,-108 506,-120 506,-120 506,-126 500,-132 494,-132"/>
<text text-anchor="middle" x="402" y="-110.3" font-family="Helvetica,sans-Serif" font-size="14.00">storage&#45;driver&#45;async&#45;memory.ts</text>
</g>
<!-- src/example&#45;app.ts&#45;&gt;src/storage/storage&#45;driver&#45;async&#45;memory.ts -->
<g id="edge14" class="edge">
<title>src/example&#45;app.ts&#45;&gt;src/storage/storage&#45;driver&#45;async&#45;memory.ts</title>
<path fill="none" stroke="#528b8b" stroke-width="2" d="M61.58,-309.84C71.79,-279.64 96.34,-219.15 138,-186 180.45,-152.22 237.61,-134.25 287.79,-124.71"/>
<polygon fill="#528b8b" stroke="#528b8b" stroke-width="2" points="288.51,-128.14 297.73,-122.91 287.27,-121.25 288.51,-128.14"/>
</g>
<!-- src/core&#45;validators/addresses.ts -->
<g id="node2" class="node">
<title>src/core&#45;validators/addresses.ts</title>
<path fill="#79cdcd" stroke="#79cdcd" d="M1030,-576C1030,-576 961,-576 961,-576 955,-576 949,-570 949,-564 949,-564 949,-552 949,-552 949,-546 955,-540 961,-540 961,-540 1030,-540 1030,-540 1036,-540 1042,-546 1042,-552 1042,-552 1042,-564 1042,-564 1042,-570 1036,-576 1030,-576"/>
<text text-anchor="middle" x="995.5" y="-554.3" font-family="Helvetica,sans-Serif" font-size="14.00">addresses.ts</text>
</g>
<!-- src/core&#45;validators/characters.ts -->
<g id="node3" class="node">
<title>src/core&#45;validators/characters.ts</title>
<path fill="#79cdcd" stroke="#79cdcd" d="M1176,-522C1176,-522 1106,-522 1106,-522 1100,-522 1094,-516 1094,-510 1094,-510 1094,-498 1094,-498 1094,-492 1100,-486 1106,-486 1106,-486 1176,-486 1176,-486 1182,-486 1188,-492 1188,-498 1188,-498 1188,-510 1188,-510 1188,-516 1182,-522 1176,-522"/>
<text text-anchor="middle" x="1141" y="-500.3" font-family="Helvetica,sans-Serif" font-size="14.00">characters.ts</text>
</g>
<!-- src/core&#45;validators/addresses.ts&#45;&gt;src/core&#45;validators/characters.ts -->
<g id="edge1" class="edge">
<title>src/core&#45;validators/addresses.ts&#45;&gt;src/core&#45;validators/characters.ts</title>
<path fill="none" stroke="#528b8b" stroke-width="2" d="M1042.3,-540.77C1055.63,-535.75 1070.34,-530.21 1084.21,-524.99"/>
<polygon fill="#528b8b" stroke="#528b8b" stroke-width="2" points="1085.52,-528.24 1093.65,-521.44 1083.06,-521.69 1085.52,-528.24"/>
</g>
<!-- src/core&#45;validators/checkers.ts -->
<g id="node4" class="node">
<title>src/core&#45;validators/checkers.ts</title>
<path fill="#79cdcd" stroke="#79cdcd" d="M1026,-522C1026,-522 965,-522 965,-522 959,-522 953,-516 953,-510 953,-510 953,-498 953,-498 953,-492 959,-486 965,-486 965,-486 1026,-486 1026,-486 1032,-486 1038,-492 1038,-498 1038,-498 1038,-510 1038,-510 1038,-516 1032,-522 1026,-522"/>
<text text-anchor="middle" x="995.5" y="-500.3" font-family="Helvetica,sans-Serif" font-size="14.00">checkers.ts</text>
</g>
<!-- src/core&#45;validators/checkers.ts&#45;&gt;src/core&#45;validators/characters.ts -->
<g id="edge2" class="edge">
<title>src/core&#45;validators/checkers.ts&#45;&gt;src/core&#45;validators/characters.ts</title>
<path fill="none" stroke="#528b8b" stroke-width="2" d="M1038.01,-504C1052.2,-504 1068.32,-504 1083.49,-504"/>
<polygon fill="#528b8b" stroke="#528b8b" stroke-width="2" points="1083.8,-507.5 1093.8,-504 1083.8,-500.5 1083.8,-507.5"/>
</g>
<!-- src/crypto/base32.ts -->
<g id="node5" class="node">
<title>src/crypto/base32.ts</title>
<path fill="#79cdcd" stroke="#79cdcd" d="M1021,-675C1021,-675 970,-675 970,-675 964,-675 958,-669 958,-663 958,-663 958,-651 958,-651 958,-645 964,-639 970,-639 970,-639 1021,-639 1021,-639 1027,-639 1033,-645 1033,-651 1033,-651 1033,-663 1033,-663 1033,-669 1027,-675 1021,-675"/>
<text text-anchor="middle" x="995.5" y="-653.3" font-family="Helvetica,sans-Serif" font-size="14.00">base32.ts</text>
</g>
<!-- rfc4648 -->
<g id="node24" class="node">
<title>rfc4648</title>
<polygon fill="#cdc8b1" stroke="#8b8878" points="1172,-675 1114,-675 1110,-671 1110,-639 1168,-639 1172,-643 1172,-675"/>
<polyline fill="none" stroke="#8b8878" points="1168,-671 1110,-671 "/>
<polyline fill="none" stroke="#8b8878" points="1168,-671 1168,-639 "/>
<polyline fill="none" stroke="#8b8878" points="1168,-671 1172,-675 "/>
<text text-anchor="middle" x="1141" y="-653.3" font-family="Helvetica,sans-Serif" font-size="14.00">rfc4648</text>
</g>
<!-- src/crypto/base32.ts&#45;&gt;rfc4648 -->
<g id="edge47" class="edge">
<title>src/crypto/base32.ts&#45;&gt;rfc4648</title>
<path fill="none" stroke="#8b8878" stroke-width="1.5" stroke-dasharray="5,2" d="M1033.08,-657C1053.4,-657 1078.71,-657 1099.61,-657"/>
<polygon fill="#8b8878" stroke="#8b8878" stroke-width="1.5" points="1099.78,-660.5 1109.78,-657 1099.78,-653.5 1099.78,-660.5"/>
</g>
<!-- src/crypto/crypto&#45;driver&#45;chloride.ts -->
<g id="node6" class="node">
<title>src/crypto/crypto&#45;driver&#45;chloride.ts</title>
<path fill="#79cdcd" stroke="#79cdcd" d="M880.5,-822C880.5,-822 746.5,-822 746.5,-822 740.5,-822 734.5,-816 734.5,-810 734.5,-810 734.5,-798 734.5,-798 734.5,-792 740.5,-786 746.5,-786 746.5,-786 880.5,-786 880.5,-786 886.5,-786 892.5,-792 892.5,-798 892.5,-798 892.5,-810 892.5,-810 892.5,-816 886.5,-822 880.5,-822"/>
<text text-anchor="middle" x="813.5" y="-800.3" font-family="Helvetica,sans-Serif" font-size="14.00">crypto&#45;driver&#45;chloride.ts</text>
</g>
<!-- src/crypto/crypto&#45;types.ts -->
<g id="node9" class="node">
<title>src/crypto/crypto&#45;types.ts</title>
<path fill="#79cdcd" stroke="#79cdcd" d="M1035.5,-731C1035.5,-731 955.5,-731 955.5,-731 949.5,-731 943.5,-725 943.5,-719 943.5,-719 943.5,-707 943.5,-707 943.5,-701 949.5,-695 955.5,-695 955.5,-695 1035.5,-695 1035.5,-695 1041.5,-695 1047.5,-701 1047.5,-707 1047.5,-707 1047.5,-719 1047.5,-719 1047.5,-725 1041.5,-731 1035.5,-731"/>
<text text-anchor="middle" x="995.5" y="-709.3" font-family="Helvetica,sans-Serif" font-size="14.00">crypto&#45;types.ts</text>
</g>
<!-- src/crypto/crypto&#45;driver&#45;chloride.ts&#45;&gt;src/crypto/crypto&#45;types.ts -->
<g id="edge3" class="edge">
<title>src/crypto/crypto&#45;driver&#45;chloride.ts&#45;&gt;src/crypto/crypto&#45;types.ts</title>
<path fill="none" stroke="#528b8b" stroke-width="2" d="M881.19,-785.97C888.51,-783.27 895.75,-780.29 902.5,-777 924.6,-766.25 947.29,-750.52 964.61,-737.35"/>
<polygon fill="#528b8b" stroke="#528b8b" stroke-width="2" points="966.89,-740.01 972.66,-731.12 962.61,-734.48 966.89,-740.01"/>
</g>
<!-- chloride/small -->
<g id="node25" class="node">
<title>chloride/small</title>
<polygon fill="#cdc8b1" stroke="#8b8878" points="1045.5,-1005 949.5,-1005 945.5,-1001 945.5,-969 1041.5,-969 1045.5,-973 1045.5,-1005"/>
<polyline fill="none" stroke="#8b8878" points="1041.5,-1001 945.5,-1001 "/>
<polyline fill="none" stroke="#8b8878" points="1041.5,-1001 1041.5,-969 "/>
<polyline fill="none" stroke="#8b8878" points="1041.5,-1001 1045.5,-1005 "/>
<text text-anchor="middle" x="995.5" y="-983.3" font-family="Helvetica,sans-Serif" font-size="14.00">chloride/small</text>
</g>
<!-- src/crypto/crypto&#45;driver&#45;chloride.ts&#45;&gt;chloride/small -->
<g id="edge48" class="edge">
<title>src/crypto/crypto&#45;driver&#45;chloride.ts&#45;&gt;chloride/small</title>
<path fill="none" stroke="#8b8878" stroke-width="1.5" stroke-dasharray="5,2" d="M891.9,-822.06C895.75,-824.65 899.33,-827.62 902.5,-831 942.77,-874 895.29,-914.74 933,-960 934.32,-961.58 935.74,-963.07 937.26,-964.47"/>
<polygon fill="#8b8878" stroke="#8b8878" stroke-width="1.5" points="935.42,-967.48 945.47,-970.82 939.7,-961.93 935.42,-967.48"/>
</g>
<!-- src/crypto/crypto&#45;driver&#45;node.ts -->
<g id="node7" class="node">
<title>src/crypto/crypto&#45;driver&#45;node.ts</title>
<path fill="#79cdcd" stroke="#79cdcd" d="M871.5,-768C871.5,-768 755.5,-768 755.5,-768 749.5,-768 743.5,-762 743.5,-756 743.5,-756 743.5,-744 743.5,-744 743.5,-738 749.5,-732 755.5,-732 755.5,-732 871.5,-732 871.5,-732 877.5,-732 883.5,-738 883.5,-744 883.5,-744 883.5,-756 883.5,-756 883.5,-762 877.5,-768 871.5,-768"/>
<text text-anchor="middle" x="813.5" y="-746.3" font-family="Helvetica,sans-Serif" font-size="14.00">crypto&#45;driver&#45;node.ts</text>
</g>
<!-- src/crypto/crypto&#45;driver&#45;node.ts&#45;&gt;src/crypto/crypto&#45;types.ts -->
<g id="edge4" class="edge">
<title>src/crypto/crypto&#45;driver&#45;node.ts&#45;&gt;src/crypto/crypto&#45;types.ts</title>
<path fill="none" stroke="#528b8b" stroke-width="2" d="M883.58,-735.8C900.08,-732.41 917.58,-728.81 933.68,-725.5"/>
<polygon fill="#528b8b" stroke="#528b8b" stroke-width="2" points="934.41,-728.93 943.5,-723.48 933,-722.07 934.41,-728.93"/>
</g>
<!-- crypto -->
<g id="node26" class="node">
<title>crypto</title>
<polygon fill="#cdc8b1" stroke="#8b8878" points="1022.5,-951 972.5,-951 968.5,-947 968.5,-915 1018.5,-915 1022.5,-919 1022.5,-951"/>
<polyline fill="none" stroke="#8b8878" points="1018.5,-947 968.5,-947 "/>
<polyline fill="none" stroke="#8b8878" points="1018.5,-947 1018.5,-915 "/>
<polyline fill="none" stroke="#8b8878" points="1018.5,-947 1022.5,-951 "/>
<text text-anchor="middle" x="995.5" y="-929.3" font-family="Helvetica,sans-Serif" font-size="14.00">crypto</text>
</g>
<!-- src/crypto/crypto&#45;driver&#45;node.ts&#45;&gt;crypto -->
<g id="edge49" class="edge">
<title>src/crypto/crypto&#45;driver&#45;node.ts&#45;&gt;crypto</title>
<path fill="none" stroke="#8b8878" stroke-width="1.5" stroke-dasharray="5,2" d="M883.61,-763.16C890.66,-766.73 897.17,-771.26 902.5,-777 944.06,-821.76 892.47,-865.3 933,-911 939.65,-918.49 949.03,-923.43 958.46,-926.69"/>
<polygon fill="#8b8878" stroke="#8b8878" stroke-width="1.5" points="957.63,-930.09 968.21,-929.52 959.57,-923.37 957.63,-930.09"/>
</g>
<!-- src/crypto/crypto&#45;driver&#45;tweetnacl.ts&#45;&gt;src/crypto/crypto&#45;types.ts -->
<g id="edge5" class="edge">
<title>src/crypto/crypto&#45;driver&#45;tweetnacl.ts&#45;&gt;src/crypto/crypto&#45;types.ts</title>
<path fill="none" stroke="#528b8b" stroke-width="2" d="M886.83,-839.89C892.33,-837.3 897.63,-834.35 902.5,-831 936.95,-807.27 964.46,-766.71 980.13,-739.88"/>
<polygon fill="#528b8b" stroke="#528b8b" stroke-width="2" points="983.27,-741.44 985.17,-731.01 977.19,-737.98 983.27,-741.44"/>
</g>
<!-- tweetnacl -->
<g id="node27" class="node">
<title>tweetnacl</title>
<polygon fill="#cdc8b1" stroke="#8b8878" points="1032.5,-1113 962.5,-1113 958.5,-1109 958.5,-1077 1028.5,-1077 1032.5,-1081 1032.5,-1113"/>
<polyline fill="none" stroke="#8b8878" points="1028.5,-1109 958.5,-1109 "/>
<polyline fill="none" stroke="#8b8878" points="1028.5,-1109 1028.5,-1077 "/>
<polyline fill="none" stroke="#8b8878" points="1028.5,-1109 1032.5,-1113 "/>
<text text-anchor="middle" x="995.5" y="-1091.3" font-family="Helvetica,sans-Serif" font-size="14.00">tweetnacl</text>
</g>
<!-- src/crypto/crypto&#45;driver&#45;tweetnacl.ts&#45;&gt;tweetnacl -->
<g id="edge50" class="edge">
<title>src/crypto/crypto&#45;driver&#45;tweetnacl.ts&#45;&gt;tweetnacl</title>
<path fill="none" stroke="#8b8878" stroke-width="1.5" stroke-dasharray="5,2" d="M820.32,-876.28C833.88,-916.22 871.22,-1012.11 933,-1068 937.77,-1072.31 943.33,-1076.02 949.13,-1079.18"/>
<polygon fill="#8b8878" stroke="#8b8878" stroke-width="1.5" points="947.84,-1082.45 958.36,-1083.71 950.92,-1076.16 947.84,-1082.45"/>
</g>
<!-- sha256&#45;uint8array -->
<g id="node28" class="node">
<title>sha256&#45;uint8array</title>
<polygon fill="#cdc8b1" stroke="#8b8878" points="1058,-1059 937,-1059 933,-1055 933,-1023 1054,-1023 1058,-1027 1058,-1059"/>
<polyline fill="none" stroke="#8b8878" points="1054,-1055 933,-1055 "/>
<polyline fill="none" stroke="#8b8878" points="1054,-1055 1054,-1023 "/>
<polyline fill="none" stroke="#8b8878" points="1054,-1055 1058,-1059 "/>
<text text-anchor="middle" x="995.5" y="-1037.3" font-family="Helvetica,sans-Serif" font-size="14.00">sha256&#45;uint8array</text>
</g>
<!-- src/crypto/crypto&#45;driver&#45;tweetnacl.ts&#45;&gt;sha256&#45;uint8array -->
<g id="edge51" class="edge">
<title>src/crypto/crypto&#45;driver&#45;tweetnacl.ts&#45;&gt;sha256&#45;uint8array</title>
<path fill="none" stroke="#8b8878" stroke-width="1.5" stroke-dasharray="5,2" d="M824.09,-876.04C841.77,-907.79 882.38,-974.11 933,-1014 934.55,-1015.22 936.15,-1016.39 937.81,-1017.52"/>
<polygon fill="#8b8878" stroke="#8b8878" stroke-width="1.5" points="936.08,-1020.57 946.43,-1022.83 939.75,-1014.61 936.08,-1020.57"/>
</g>
<!-- src/crypto/crypto.ts&#45;&gt;src/core&#45;validators/addresses.ts -->
<g id="edge9" class="edge">
<title>src/crypto/crypto.ts&#45;&gt;src/core&#45;validators/addresses.ts</title>
<path fill="none" stroke="#528b8b" stroke-width="2" d="M652.32,-647.3C716.96,-630.43 859.93,-593.12 939.08,-572.46"/>
<polygon fill="#528b8b" stroke="#528b8b" stroke-width="2" points="940.09,-575.82 948.88,-569.91 938.32,-569.05 940.09,-575.82"/>
</g>
<!-- src/crypto/crypto.ts&#45;&gt;src/crypto/base32.ts -->
<g id="edge7" class="edge">
<title>src/crypto/crypto.ts&#45;&gt;src/crypto/base32.ts</title>
<path fill="none" stroke="#528b8b" stroke-width="2" d="M652,-653.37C674.07,-651.75 703.75,-649.83 730,-649 806.63,-646.59 825.91,-645.68 902.5,-649 917.19,-649.64 933.17,-650.85 947.62,-652.13"/>
<polygon fill="#528b8b" stroke="#528b8b" stroke-width="2" points="947.56,-655.64 957.84,-653.08 948.2,-648.67 947.56,-655.64"/>
</g>
<!-- src/crypto/crypto.ts&#45;&gt;src/crypto/crypto&#45;types.ts -->
<g id="edge6" class="edge">
<title>src/crypto/crypto.ts&#45;&gt;src/crypto/crypto&#45;types.ts</title>
<path fill="none" stroke="#528b8b" stroke-width="2" d="M652.43,-673.93C673.93,-684.5 702.83,-696.95 730,-703 798.26,-718.2 878.84,-718.87 932.97,-716.9"/>
<polygon fill="#528b8b" stroke="#528b8b" stroke-width="2" points="933.24,-720.39 943.09,-716.49 932.96,-713.4 933.24,-720.39"/>
</g>
<!-- src/crypto/keypair.ts -->
<g id="node11" class="node">
<title>src/crypto/keypair.ts</title>
<path fill="#79cdcd" stroke="#79cdcd" d="M838.5,-694C838.5,-694 788.5,-694 788.5,-694 782.5,-694 776.5,-688 776.5,-682 776.5,-682 776.5,-670 776.5,-670 776.5,-664 782.5,-658 788.5,-658 788.5,-658 838.5,-658 838.5,-658 844.5,-658 850.5,-664 850.5,-670 850.5,-670 850.5,-682 850.5,-682 850.5,-688 844.5,-694 838.5,-694"/>
<text text-anchor="middle" x="813.5" y="-672.3" font-family="Helvetica,sans-Serif" font-size="14.00">keypair.ts</text>
</g>
<!-- src/crypto/crypto.ts&#45;&gt;src/crypto/keypair.ts -->
<g id="edge8" class="edge">
<title>src/crypto/crypto.ts&#45;&gt;src/crypto/keypair.ts</title>
<path fill="none" stroke="#528b8b" stroke-width="2" d="M652.26,-659.44C683.74,-662.69 731.25,-667.6 766.38,-671.23"/>
<polygon fill="#528b8b" stroke="#528b8b" stroke-width="2" points="766.08,-674.72 776.39,-672.27 766.8,-667.76 766.08,-674.72"/>
</g>
<!-- src/crypto/keypair.ts&#45;&gt;src/core&#45;validators/addresses.ts -->
<g id="edge12" class="edge">
<title>src/crypto/keypair.ts&#45;&gt;src/core&#45;validators/addresses.ts</title>
<path fill="none" stroke="#528b8b" stroke-width="2" d="M842.23,-657.82C873.37,-637.41 924.02,-604.2 958.27,-581.75"/>
<polygon fill="#528b8b" stroke="#528b8b" stroke-width="2" points="960.59,-584.42 967.03,-576.01 956.75,-578.56 960.59,-584.42"/>
</g>
<!-- src/crypto/keypair.ts&#45;&gt;src/crypto/base32.ts -->
<g id="edge10" class="edge">
<title>src/crypto/keypair.ts&#45;&gt;src/crypto/base32.ts</title>
<path fill="none" stroke="#528b8b" stroke-width="2" d="M850.93,-672.16C878.77,-669.22 917.37,-665.14 947.53,-661.96"/>
<polygon fill="#528b8b" stroke="#528b8b" stroke-width="2" points="948.24,-665.4 957.82,-660.87 947.51,-658.44 948.24,-665.4"/>
</g>
<!-- src/crypto/keypair.ts&#45;&gt;src/crypto/crypto&#45;types.ts -->
<g id="edge11" class="edge">
<title>src/crypto/keypair.ts&#45;&gt;src/crypto/crypto&#45;types.ts</title>
<path fill="none" stroke="#528b8b" stroke-width="2" d="M850.93,-683.49C874.62,-688.36 906.11,-694.83 933.56,-700.47"/>
<polygon fill="#528b8b" stroke="#528b8b" stroke-width="2" points="932.96,-703.92 943.46,-702.51 934.37,-697.07 932.96,-703.92"/>
</g>
<!-- src/format&#45;validators/format&#45;validator&#45;es4.ts&#45;&gt;src/core&#45;validators/addresses.ts -->
<g id="edge23" class="edge">
<title>src/format&#45;validators/format&#45;validator&#45;es4.ts&#45;&gt;src/core&#45;validators/addresses.ts</title>
<path fill="none" stroke="#528b8b" stroke-width="2" d="M636.47,-430.13C656.97,-450.31 692.9,-482.39 730,-500 797.77,-532.16 883.82,-546.76 939.03,-553.2"/>
<polygon fill="#528b8b" stroke="#528b8b" stroke-width="2" points="938.64,-556.68 948.97,-554.31 939.42,-549.72 938.64,-556.68"/>
</g>
<!-- src/format&#45;validators/format&#45;validator&#45;es4.ts&#45;&gt;src/core&#45;validators/characters.ts -->
<g id="edge21" class="edge">
<title>src/format&#45;validators/format&#45;validator&#45;es4.ts&#45;&gt;src/core&#45;validators/characters.ts</title>
<path fill="none" stroke="#528b8b" stroke-width="2" d="M687.41,-430.04C701.43,-433.34 716.14,-436.52 730,-439 874.46,-464.84 914.68,-445.45 1058,-477 1066.51,-478.87 1075.38,-481.29 1084.01,-483.9"/>
<polygon fill="#528b8b" stroke="#528b8b" stroke-width="2" points="1083.03,-487.26 1093.62,-486.92 1085.13,-480.58 1083.03,-487.26"/>
</g>
<!-- src/format&#45;validators/format&#45;validator&#45;es4.ts&#45;&gt;src/core&#45;validators/checkers.ts -->
<g id="edge22" class="edge">
<title>src/format&#45;validators/format&#45;validator&#45;es4.ts&#45;&gt;src/core&#45;validators/checkers.ts</title>
<path fill="none" stroke="#528b8b" stroke-width="2" d="M645.54,-430.06C667.27,-443.9 699.31,-462.24 730,-472 801.43,-494.72 888.42,-501.5 942.64,-503.41"/>
<polygon fill="#528b8b" stroke="#528b8b" stroke-width="2" points="942.6,-506.91 952.71,-503.73 942.82,-499.92 942.6,-506.91"/>
</g>
<!-- src/format&#45;validators/format&#45;validator&#45;es4.ts&#45;&gt;src/crypto/crypto&#45;types.ts -->
<g id="edge20" class="edge">
<title>src/format&#45;validators/format&#45;validator&#45;es4.ts&#45;&gt;src/crypto/crypto&#45;types.ts</title>
<path fill="none" stroke="#528b8b" stroke-width="2" d="M632.73,-430.36C652.47,-456.04 690.83,-503.32 730,-537 799.31,-596.6 833.47,-589.08 902.5,-649 918.08,-662.53 916.54,-671.56 933,-684 935.64,-685.99 938.43,-687.9 941.32,-689.71"/>
<polygon fill="#528b8b" stroke="#528b8b" stroke-width="2" points="939.79,-692.87 950.2,-694.86 943.3,-686.81 939.79,-692.87"/>
</g>
<!-- src/format&#45;validators/format&#45;validator&#45;types.ts -->
<g id="node13" class="node">
<title>src/format&#45;validators/format&#45;validator&#45;types.ts</title>
<path fill="#79cdcd" stroke="#79cdcd" d="M882.5,-430C882.5,-430 744.5,-430 744.5,-430 738.5,-430 732.5,-424 732.5,-418 732.5,-418 732.5,-406 732.5,-406 732.5,-400 738.5,-394 744.5,-394 744.5,-394 882.5,-394 882.5,-394 888.5,-394 894.5,-400 894.5,-406 894.5,-406 894.5,-418 894.5,-418 894.5,-424 888.5,-430 882.5,-430"/>
<text text-anchor="middle" x="813.5" y="-408.3" font-family="Helvetica,sans-Serif" font-size="14.00">format&#45;validator&#45;types.ts</text>
</g>
<!-- src/format&#45;validators/format&#45;validator&#45;es4.ts&#45;&gt;src/format&#45;validators/format&#45;validator&#45;types.ts -->
<g id="edge19" class="edge">
<title>src/format&#45;validators/format&#45;validator&#45;es4.ts&#45;&gt;src/format&#45;validators/format&#45;validator&#45;types.ts</title>
<path fill="none" stroke="#528b8b" stroke-width="2" d="M694.09,-412C703.29,-412 712.78,-412 722.18,-412"/>
<polygon fill="#528b8b" stroke="#528b8b" stroke-width="2" points="722.33,-415.5 732.33,-412 722.33,-408.5 722.33,-415.5"/>
</g>
<!-- src/format&#45;validators/format&#45;validator&#45;types.ts&#45;&gt;src/crypto/crypto&#45;types.ts -->
<g id="edge24" class="edge">
<title>src/format&#45;validators/format&#45;validator&#45;types.ts&#45;&gt;src/crypto/crypto&#45;types.ts</title>
<path fill="none" stroke="#528b8b" stroke-width="2" d="M824.07,-430.23C841.03,-462.93 877,-533.93 902.5,-596 918.23,-634.29 905.34,-653.21 933,-684 934.51,-685.68 936.13,-687.26 937.85,-688.77"/>
<polygon fill="#528b8b" stroke="#528b8b" stroke-width="2" points="935.78,-691.6 945.87,-694.83 940,-686.01 935.78,-691.6"/>
</g>
<!-- src/storage/compare.ts -->
<g id="node14" class="node">
<title>src/storage/compare.ts</title>
<path fill="#79cdcd" stroke="#79cdcd" d="M648,-186C648,-186 588,-186 588,-186 582,-186 576,-180 576,-174 576,-174 576,-162 576,-162 576,-156 582,-150 588,-150 588,-150 648,-150 648,-150 654,-150 660,-156 660,-162 660,-162 660,-174 660,-174 660,-180 654,-186 648,-186"/>
<text text-anchor="middle" x="618" y="-164.3" font-family="Helvetica,sans-Serif" font-size="14.00">compare.ts</text>
</g>
<!-- src/storage/util&#45;types.ts -->
<g id="node23" class="node">
<title>src/storage/util&#45;types.ts</title>
<path fill="#79cdcd" stroke="#79cdcd" d="M844,-75C844,-75 783,-75 783,-75 777,-75 771,-69 771,-63 771,-63 771,-51 771,-51 771,-45 777,-39 783,-39 783,-39 844,-39 844,-39 850,-39 856,-45 856,-51 856,-51 856,-63 856,-63 856,-69 850,-75 844,-75"/>
<text text-anchor="middle" x="813.5" y="-53.3" font-family="Helvetica,sans-Serif" font-size="14.00">util&#45;types.ts</text>
</g>
<!-- src/storage/compare.ts&#45;&gt;src/storage/util&#45;types.ts -->
<g id="edge25" class="edge">
<title>src/storage/compare.ts&#45;&gt;src/storage/util&#45;types.ts</title>
<path fill="none" stroke="#528b8b" stroke-width="2" d="M660.28,-156.9C671.7,-152.85 683.76,-147.6 694,-141 713.29,-128.57 711.85,-118.04 730,-104 741.33,-95.23 754.48,-87 766.9,-79.95"/>
<polygon fill="#528b8b" stroke="#528b8b" stroke-width="2" points="768.72,-82.94 775.78,-75.04 765.33,-76.82 768.72,-82.94"/>
</g>
<!-- src/storage/lock.ts -->
<g id="node15" class="node">
<title>src/storage/lock.ts</title>
<path fill="#79cdcd" stroke="#79cdcd" d="M829,-149C829,-149 798,-149 798,-149 792,-149 786,-143 786,-137 786,-137 786,-125 786,-125 786,-119 792,-113 798,-113 798,-113 829,-113 829,-113 835,-113 841,-119 841,-125 841,-125 841,-137 841,-137 841,-143 835,-149 829,-149"/>
<text text-anchor="middle" x="813.5" y="-127.3" font-family="Helvetica,sans-Serif" font-size="14.00">lock.ts</text>
</g>
<!-- src/storage/query&#45;follower&#45;types.ts -->
<g id="node16" class="node">
<title>src/storage/query&#45;follower&#45;types.ts</title>
<path fill="#79cdcd" stroke="#79cdcd" d="M466,-280C466,-280 338,-280 338,-280 332,-280 326,-274 326,-268 326,-268 326,-256 326,-256 326,-250 332,-244 338,-244 338,-244 466,-244 466,-244 472,-244 478,-250 478,-256 478,-256 478,-268 478,-268 478,-274 472,-280 466,-280"/>
<text text-anchor="middle" x="402" y="-258.3" font-family="Helvetica,sans-Serif" font-size="14.00">query&#45;follower&#45;types.ts</text>
</g>
<!-- src/storage/storage&#45;types.ts -->
<g id="node22" class="node">
<title>src/storage/storage&#45;types.ts</title>
<path fill="#79cdcd" stroke="#79cdcd" d="M662.5,-300C662.5,-300 573.5,-300 573.5,-300 567.5,-300 561.5,-294 561.5,-288 561.5,-288 561.5,-276 561.5,-276 561.5,-270 567.5,-264 573.5,-264 573.5,-264 662.5,-264 662.5,-264 668.5,-264 674.5,-270 674.5,-276 674.5,-276 674.5,-288 674.5,-288 674.5,-294 668.5,-300 662.5,-300"/>
<text text-anchor="middle" x="618" y="-278.3" font-family="Helvetica,sans-Serif" font-size="14.00">storage&#45;types.ts</text>
</g>
<!-- src/storage/query&#45;follower&#45;types.ts&#45;&gt;src/storage/storage&#45;types.ts -->
<g id="edge26" class="edge">
<title>src/storage/query&#45;follower&#45;types.ts&#45;&gt;src/storage/storage&#45;types.ts</title>
<path fill="none" stroke="#528b8b" stroke-width="2" d="M478.15,-269.02C501.96,-271.25 528.09,-273.69 551.2,-275.85"/>
<polygon fill="#528b8b" stroke="#528b8b" stroke-width="2" points="550.96,-279.34 561.24,-276.79 551.61,-272.37 550.96,-279.34"/>
</g>
<!-- src/storage/query&#45;follower.ts&#45;&gt;src/storage/query&#45;follower&#45;types.ts -->
<g id="edge31" class="edge">
<title>src/storage/query&#45;follower.ts&#45;&gt;src/storage/query&#45;follower&#45;types.ts</title>
<path fill="none" stroke="#528b8b" stroke-width="2" d="M262.22,-257.04C278.92,-257.64 297.54,-258.31 315.59,-258.95"/>
<polygon fill="#528b8b" stroke="#528b8b" stroke-width="2" points="315.72,-262.46 325.83,-259.32 315.97,-255.46 315.72,-262.46"/>
</g>
<!-- src/storage/query&#45;types.ts -->
<g id="node18" class="node">
<title>src/storage/query&#45;types.ts</title>
<path fill="#79cdcd" stroke="#79cdcd" d="M852,-243C852,-243 775,-243 775,-243 769,-243 763,-237 763,-231 763,-231 763,-219 763,-219 763,-213 769,-207 775,-207 775,-207 852,-207 852,-207 858,-207 864,-213 864,-219 864,-219 864,-231 864,-231 864,-237 858,-243 852,-243"/>
<text text-anchor="middle" x="813.5" y="-221.3" font-family="Helvetica,sans-Serif" font-size="14.00">query&#45;types.ts</text>
</g>
<!-- src/storage/query&#45;follower.ts&#45;&gt;src/storage/query&#45;types.ts -->
<g id="edge28" class="edge">
<title>src/storage/query&#45;follower.ts&#45;&gt;src/storage/query&#45;types.ts</title>
<path fill="none" stroke="#528b8b" stroke-width="2" d="M262.26,-240.88C274.01,-238.49 286.35,-236.35 298,-235 384.36,-224.97 636.78,-224.41 752.86,-224.72"/>
<polygon fill="#528b8b" stroke="#528b8b" stroke-width="2" points="752.97,-228.22 762.98,-224.75 752.99,-221.22 752.97,-228.22"/>
</g>
<!-- src/storage/query.ts -->
<g id="node19" class="node">
<title>src/storage/query.ts</title>
<path fill="#79cdcd" stroke="#79cdcd" d="M638,-132C638,-132 598,-132 598,-132 592,-132 586,-126 586,-120 586,-120 586,-108 586,-108 586,-102 592,-96 598,-96 598,-96 638,-96 638,-96 644,-96 650,-102 650,-108 650,-108 650,-120 650,-120 650,-126 644,-132 638,-132"/>
<text text-anchor="middle" x="618" y="-110.3" font-family="Helvetica,sans-Serif" font-size="14.00">query.ts</text>
</g>
<!-- src/storage/query&#45;follower.ts&#45;&gt;src/storage/query.ts -->
<g id="edge30" class="edge">
<title>src/storage/query&#45;follower.ts&#45;&gt;src/storage/query.ts</title>
<path fill="none" stroke="#528b8b" stroke-width="2" d="M216.95,-236.75C232.61,-214.55 262.33,-177.94 298,-161 381.89,-121.17 414.42,-156.46 506,-141 529.36,-137.06 555.09,-130.91 575.89,-125.48"/>
<polygon fill="#528b8b" stroke="#528b8b" stroke-width="2" points="576.9,-128.84 585.67,-122.89 575.11,-122.07 576.9,-128.84"/>
</g>
<!-- src/storage/query&#45;follower.ts&#45;&gt;src/storage/storage&#45;types.ts -->
<g id="edge29" class="edge">
<title>src/storage/query&#45;follower.ts&#45;&gt;src/storage/storage&#45;types.ts</title>
<path fill="none" stroke="#528b8b" stroke-width="2" d="M244.89,-273.07C261.03,-279.45 280.06,-285.82 298,-289 384.6,-304.33 486.47,-297.96 551.37,-290.9"/>
<polygon fill="#528b8b" stroke="#528b8b" stroke-width="2" points="551.91,-294.36 561.46,-289.76 551.13,-287.4 551.91,-294.36"/>
</g>
<!-- src/storage/query&#45;follower.ts&#45;&gt;src/storage/util&#45;types.ts -->
<g id="edge27" class="edge">
<title>src/storage/query&#45;follower.ts&#45;&gt;src/storage/util&#45;types.ts</title>
<path fill="none" stroke="#528b8b" stroke-width="2" d="M209.52,-236.91C219.26,-201.91 245.7,-125.04 298,-87 438.26,15.02 661.1,-20.26 761.04,-43.4"/>
<polygon fill="#528b8b" stroke="#528b8b" stroke-width="2" points="760.36,-46.84 770.9,-45.74 761.97,-40.03 760.36,-46.84"/>
</g>
<!-- src/storage/query.ts&#45;&gt;src/storage/query&#45;types.ts -->
<g id="edge32" class="edge">
<title>src/storage/query.ts&#45;&gt;src/storage/query&#45;types.ts</title>
<path fill="none" stroke="#528b8b" stroke-width="2" d="M650.08,-123.09C663.9,-127.65 680.14,-133.76 694,-141 726.25,-157.84 759.79,-182.38 782.92,-200.59"/>
<polygon fill="#528b8b" stroke="#528b8b" stroke-width="2" points="780.95,-203.49 790.95,-206.99 785.31,-198.02 780.95,-203.49"/>
</g>
<!-- src/storage/storage&#45;async.ts&#45;&gt;src/format&#45;validators/format&#45;validator&#45;types.ts -->
<g id="edge36" class="edge">
<title>src/storage/storage&#45;async.ts&#45;&gt;src/format&#45;validators/format&#45;validator&#45;types.ts</title>
<path fill="none" stroke="#528b8b" stroke-width="2" d="M460.25,-203.66C477.06,-210.77 494.11,-220.86 506,-235 537.64,-272.62 499.07,-307.41 534,-342 537.55,-345.52 645.97,-372.1 726.46,-391.47"/>
<polygon fill="#528b8b" stroke="#528b8b" stroke-width="2" points="726.09,-394.98 736.63,-393.92 727.72,-388.18 726.09,-394.98"/>
</g>
<!-- src/storage/storage&#45;async.ts&#45;&gt;src/storage/compare.ts -->
<g id="edge37" class="edge">
<title>src/storage/storage&#45;async.ts&#45;&gt;src/storage/compare.ts</title>
<path fill="none" stroke="#528b8b" stroke-width="2" d="M460.07,-182.67C492.91,-179.6 533.85,-175.77 565.68,-172.8"/>
<polygon fill="#528b8b" stroke="#528b8b" stroke-width="2" points="566.04,-176.28 575.67,-171.86 565.39,-169.31 566.04,-176.28"/>
</g>
<!-- src/storage/storage&#45;async.ts&#45;&gt;src/storage/query&#45;types.ts -->
<g id="edge34" class="edge">
<title>src/storage/storage&#45;async.ts&#45;&gt;src/storage/query&#45;types.ts</title>
<path fill="none" stroke="#528b8b" stroke-width="2" d="M460.2,-199.04C483.07,-203.08 509.7,-207.31 534,-210 609.1,-218.3 696.12,-222.06 752.62,-223.72"/>
<polygon fill="#528b8b" stroke="#528b8b" stroke-width="2" points="752.71,-227.23 762.81,-224.01 752.91,-220.23 752.71,-227.23"/>
</g>
<!-- src/storage/storage&#45;async.ts&#45;&gt;src/storage/storage&#45;types.ts -->
<g id="edge35" class="edge">
<title>src/storage/storage&#45;async.ts&#45;&gt;src/storage/storage&#45;types.ts</title>
<path fill="none" stroke="#528b8b" stroke-width="2" d="M444.01,-206.01C478.92,-221.35 529.2,-243.43 566.56,-259.85"/>
<polygon fill="#528b8b" stroke="#528b8b" stroke-width="2" points="565.2,-263.07 575.77,-263.89 568.02,-256.66 565.2,-263.07"/>
</g>
<!-- src/storage/storage&#45;async.ts&#45;&gt;src/storage/util&#45;types.ts -->
<g id="edge33" class="edge">
<title>src/storage/storage&#45;async.ts&#45;&gt;src/storage/util&#45;types.ts</title>
<path fill="none" stroke="#528b8b" stroke-width="2" d="M460.03,-196.99C533.82,-207.35 657.27,-219.97 694,-195 729.97,-170.55 701.49,-136.85 730,-104 738.78,-93.88 750.3,-85.45 761.94,-78.65"/>
<polygon fill="#528b8b" stroke="#528b8b" stroke-width="2" points="763.74,-81.66 770.82,-73.78 760.37,-75.53 763.74,-81.66"/>
</g>
<!-- superbus -->
<g id="node29" class="node">
<title>superbus</title>
<polygon fill="#cdc8b1" stroke="#8b8878" points="849.5,-375 781.5,-375 777.5,-371 777.5,-339 845.5,-339 849.5,-343 849.5,-375"/>
<polyline fill="none" stroke="#8b8878" points="845.5,-371 777.5,-371 "/>
<polyline fill="none" stroke="#8b8878" points="845.5,-371 845.5,-339 "/>
<polyline fill="none" stroke="#8b8878" points="845.5,-371 849.5,-375 "/>
<text text-anchor="middle" x="813.5" y="-353.3" font-family="Helvetica,sans-Serif" font-size="14.00">superbus</text>
</g>
<!-- src/storage/storage&#45;async.ts&#45;&gt;superbus -->
<g id="edge52" class="edge">
<title>src/storage/storage&#45;async.ts&#45;&gt;superbus</title>
<path fill="none" stroke="#8b8878" stroke-width="1.5" stroke-dasharray="5,2" d="M460.17,-204.78C476.68,-211.91 493.58,-221.72 506,-235 530.03,-260.68 506.88,-286.62 534,-309 568.83,-337.74 697.53,-349.96 767.12,-354.57"/>
<polygon fill="#8b8878" stroke="#8b8878" stroke-width="1.5" points="767.15,-358.07 777.35,-355.22 767.59,-351.09 767.15,-358.07"/>
</g>
<!-- src/storage/storage&#45;driver&#45;async&#45;memory.ts&#45;&gt;src/storage/compare.ts -->
<g id="edge41" class="edge">
<title>src/storage/storage&#45;driver&#45;async&#45;memory.ts&#45;&gt;src/storage/compare.ts</title>
<path fill="none" stroke="#528b8b" stroke-width="2" d="M474.56,-132.06C504.53,-139.62 538.69,-148.24 566.04,-155.14"/>
<polygon fill="#528b8b" stroke="#528b8b" stroke-width="2" points="565.24,-158.55 575.79,-157.6 566.95,-151.76 565.24,-158.55"/>
</g>
<!-- src/storage/storage&#45;driver&#45;async&#45;memory.ts&#45;&gt;src/storage/lock.ts -->
<g id="edge43" class="edge">
<title>src/storage/storage&#45;driver&#45;async&#45;memory.ts&#45;&gt;src/storage/lock.ts</title>
<path fill="none" stroke="#528b8b" stroke-width="2" d="M447.33,-96C472.32,-86.82 504.39,-76.63 534,-72 604.26,-61.01 624.78,-55.72 694,-72 723.62,-78.97 754.31,-94.51 777.03,-107.9"/>
<polygon fill="#528b8b" stroke="#528b8b" stroke-width="2" points="775.26,-110.92 785.63,-113.09 778.88,-104.93 775.26,-110.92"/>
</g>
<!-- src/storage/storage&#45;driver&#45;async&#45;memory.ts&#45;&gt;src/storage/query&#45;types.ts -->
<g id="edge39" class="edge">
<title>src/storage/storage&#45;driver&#45;async&#45;memory.ts&#45;&gt;src/storage/query&#45;types.ts</title>
<path fill="none" stroke="#528b8b" stroke-width="2" d="M483.27,-95.94C557,-81.22 659.84,-66.02 694,-87 724.15,-105.52 707.78,-130.47 730,-158 743.1,-174.23 760.72,-189.2 776.31,-200.85"/>
<polygon fill="#528b8b" stroke="#528b8b" stroke-width="2" points="774.58,-203.91 784.73,-206.96 778.7,-198.25 774.58,-203.91"/>
</g>
<!-- src/storage/storage&#45;driver&#45;async&#45;memory.ts&#45;&gt;src/storage/query.ts -->
<g id="edge42" class="edge">
<title>src/storage/storage&#45;driver&#45;async&#45;memory.ts&#45;&gt;src/storage/query.ts</title>
<path fill="none" stroke="#528b8b" stroke-width="2" d="M506.24,-114C530.88,-114 555.79,-114 575.73,-114"/>
<polygon fill="#528b8b" stroke="#528b8b" stroke-width="2" points="575.97,-117.5 585.97,-114 575.97,-110.5 575.97,-117.5"/>
</g>
<!-- src/storage/storage&#45;driver&#45;async&#45;memory.ts&#45;&gt;src/storage/storage&#45;types.ts -->
<g id="edge40" class="edge">
<title>src/storage/storage&#45;driver&#45;async&#45;memory.ts&#45;&gt;src/storage/storage&#45;types.ts</title>
<path fill="none" stroke="#528b8b" stroke-width="2" d="M454.55,-132.09C471.86,-139.53 490.65,-149.21 506,-161 521.52,-172.92 521.01,-180.35 534,-195 552.74,-216.13 574.85,-239.22 591.54,-256.3"/>
<polygon fill="#528b8b" stroke="#528b8b" stroke-width="2" points="589.29,-259.01 598.79,-263.7 594.29,-254.11 589.29,-259.01"/>
</g>
<!-- src/storage/storage&#45;driver&#45;async&#45;memory.ts&#45;&gt;src/storage/util&#45;types.ts -->
<g id="edge38" class="edge">
<title>src/storage/storage&#45;driver&#45;async&#45;memory.ts&#45;&gt;src/storage/util&#45;types.ts</title>
<path fill="none" stroke="#528b8b" stroke-width="2" d="M434.35,-95.98C460.15,-82.24 498.18,-64.45 534,-57 611.76,-40.82 704.4,-45.4 760.81,-50.77"/>
<polygon fill="#528b8b" stroke="#528b8b" stroke-width="2" points="760.61,-54.26 770.91,-51.77 761.3,-47.3 760.61,-54.26"/>
</g>
<!-- src/storage/storage&#45;types.ts&#45;&gt;src/format&#45;validators/format&#45;validator&#45;types.ts -->
<g id="edge45" class="edge">
<title>src/storage/storage&#45;types.ts&#45;&gt;src/format&#45;validators/format&#45;validator&#45;types.ts</title>
<path fill="none" stroke="#528b8b" stroke-width="2" d="M638.19,-300.01C668.54,-328.46 724.77,-380.9 730,-384 733.42,-386.02 737,-387.93 740.68,-389.72"/>
<polygon fill="#528b8b" stroke="#528b8b" stroke-width="2" points="739.43,-392.99 749.98,-393.92 742.31,-386.61 739.43,-392.99"/>
</g>
<!-- src/storage/storage&#45;types.ts&#45;&gt;src/storage/lock.ts -->
<g id="edge46" class="edge">
<title>src/storage/storage&#45;types.ts&#45;&gt;src/storage/lock.ts</title>
<path fill="none" stroke="#528b8b" stroke-width="2" d="M642.34,-263.79C677.01,-236.73 742.19,-185.87 781.04,-155.55"/>
<polygon fill="#528b8b" stroke="#528b8b" stroke-width="2" points="783.65,-157.96 789.38,-149.04 779.34,-152.44 783.65,-157.96"/>
</g>
<!-- src/storage/storage&#45;types.ts&#45;&gt;src/storage/query&#45;types.ts -->
<g id="edge44" class="edge">
<title>src/storage/storage&#45;types.ts&#45;&gt;src/storage/query&#45;types.ts</title>
<path fill="none" stroke="#528b8b" stroke-width="2" d="M674.71,-265.59C699.25,-258.36 728.12,-249.86 753.07,-242.51"/>
<polygon fill="#528b8b" stroke="#528b8b" stroke-width="2" points="754.18,-245.83 762.79,-239.64 752.2,-239.11 754.18,-245.83"/>
</g>
<!-- src/storage/storage&#45;types.ts&#45;&gt;superbus -->
<g id="edge53" class="edge">
<title>src/storage/storage&#45;types.ts&#45;&gt;superbus</title>
<path fill="none" stroke="#8b8878" stroke-width="1.5" stroke-dasharray="5,2" d="M663.84,-300.05C673.87,-304.39 684.39,-309.17 694,-314 710.55,-322.32 712.9,-327.88 730,-335 741.88,-339.94 755.19,-344.06 767.59,-347.35"/>
<polygon fill="#8b8878" stroke="#8b8878" stroke-width="1.5" points="766.74,-350.75 777.3,-349.81 768.46,-343.96 766.74,-350.75"/>
</g>
</g>
</svg>
