<?xml version="1.0" encoding="UTF-8" standalone="no"?>
<!DOCTYPE svg PUBLIC "-//W3C//DTD SVG 1.1//EN"
 "http://www.w3.org/Graphics/SVG/1.1/DTD/svg11.dtd">
<!-- Generated by graphviz version 2.44.1 (20200629.0846)
 -->
<!-- Title: G Pages: 1 -->
<svg width="1765pt" height="1796pt"
 viewBox="0.00 0.00 1765.00 1795.87" xmlns="http://www.w3.org/2000/svg" xmlns:xlink="http://www.w3.org/1999/xlink">
<g id="graph0" class="graph" transform="scale(1 1) rotate(0) translate(4 1791.87)">
<title>G</title>
<polygon fill="white" stroke="transparent" points="-4,4 -4,-1791.87 1761,-1791.87 1761,4 -4,4"/>
<g id="clust1" class="cluster">
<title>cluster4987092070</title>
<path fill="none" stroke="#8b7d6b" stroke-width="2" d="M20,-559.87C20,-559.87 1679,-559.87 1679,-559.87 1685,-559.87 1691,-565.87 1691,-571.87 1691,-571.87 1691,-1767.87 1691,-1767.87 1691,-1773.87 1685,-1779.87 1679,-1779.87 1679,-1779.87 20,-1779.87 20,-1779.87 14,-1779.87 8,-1773.87 8,-1767.87 8,-1767.87 8,-571.87 8,-571.87 8,-565.87 14,-559.87 20,-559.87"/>
<text text-anchor="start" x="836" y="-1765.67" font-family="Helvetica,sans-Serif" font-weight="bold" font-size="14.00">root</text>
</g>
<g id="clust2" class="cluster">
<title>cluster3301597960</title>
<path fill="bisque" stroke="#8b7d6b" stroke-width="2" d="M28,-611.87C28,-611.87 1671,-611.87 1671,-611.87 1677,-611.87 1683,-617.87 1683,-623.87 1683,-623.87 1683,-1736.87 1683,-1736.87 1683,-1742.87 1677,-1748.87 1671,-1748.87 1671,-1748.87 28,-1748.87 28,-1748.87 22,-1748.87 16,-1742.87 16,-1736.87 16,-1736.87 16,-623.87 16,-623.87 16,-617.87 22,-611.87 28,-611.87"/>
<text text-anchor="start" x="839" y="-1734.67" font-family="Helvetica,sans-Serif" font-weight="bold" font-size="14.00">src</text>
</g>
<g id="clust3" class="cluster">
<title>cluster4947650830</title>
<path fill="bisque" stroke="#8b7d6b" stroke-width="2" d="M1315.5,-1588.87C1315.5,-1588.87 1658,-1588.87 1658,-1588.87 1664,-1588.87 1670,-1594.87 1670,-1600.87 1670,-1600.87 1670,-1705.87 1670,-1705.87 1670,-1711.87 1664,-1717.87 1658,-1717.87 1658,-1717.87 1315.5,-1717.87 1315.5,-1717.87 1309.5,-1717.87 1303.5,-1711.87 1303.5,-1705.87 1303.5,-1705.87 1303.5,-1600.87 1303.5,-1600.87 1303.5,-1594.87 1309.5,-1588.87 1315.5,-1588.87"/>
<text text-anchor="start" x="1438.25" y="-1703.67" font-family="Helvetica,sans-Serif" font-weight="bold" font-size="14.00">core&#45;validators</text>
</g>
<g id="clust4" class="cluster">
<title>cluster4160465302</title>
<path fill="bisque" stroke="#8b7d6b" stroke-width="2" d="M747,-1317.87C747,-1317.87 1663,-1317.87 1663,-1317.87 1669,-1317.87 1675,-1323.87 1675,-1329.87 1675,-1329.87 1675,-1568.87 1675,-1568.87 1675,-1574.87 1669,-1580.87 1663,-1580.87 1663,-1580.87 747,-1580.87 747,-1580.87 741,-1580.87 735,-1574.87 735,-1568.87 735,-1568.87 735,-1329.87 735,-1329.87 735,-1323.87 741,-1317.87 747,-1317.87"/>
<text text-anchor="start" x="1184" y="-1566.67" font-family="Helvetica,sans-Serif" font-weight="bold" font-size="14.00">crypto</text>
</g>
<g id="clust5" class="cluster">
<title>cluster8159908971</title>
<path fill="bisque" stroke="#8b7d6b" stroke-width="2" d="M512,-1588.87C512,-1588.87 854,-1588.87 854,-1588.87 860,-1588.87 866,-1594.87 866,-1600.87 866,-1600.87 866,-1651.87 866,-1651.87 866,-1657.87 860,-1663.87 854,-1663.87 854,-1663.87 512,-1663.87 512,-1663.87 506,-1663.87 500,-1657.87 500,-1651.87 500,-1651.87 500,-1600.87 500,-1600.87 500,-1594.87 506,-1588.87 512,-1588.87"/>
<text text-anchor="start" x="627" y="-1649.67" font-family="Helvetica,sans-Serif" font-weight="bold" font-size="14.00">format&#45;validators</text>
</g>
<g id="clust6" class="cluster">
<title>cluster4338305989</title>
<path fill="bisque" stroke="#8b7d6b" stroke-width="2" d="M95,-839.87C95,-839.87 408.5,-839.87 408.5,-839.87 414.5,-839.87 420.5,-845.87 420.5,-851.87 420.5,-851.87 420.5,-902.87 420.5,-902.87 420.5,-908.87 414.5,-914.87 408.5,-914.87 408.5,-914.87 95,-914.87 95,-914.87 89,-914.87 83,-908.87 83,-902.87 83,-902.87 83,-851.87 83,-851.87 83,-845.87 89,-839.87 95,-839.87"/>
<text text-anchor="start" x="235.25" y="-900.67" font-family="Helvetica,sans-Serif" font-weight="bold" font-size="14.00">node</text>
</g>
<g id="clust7" class="cluster">
<title>cluster6526622887</title>
<path fill="bisque" stroke="#8b7d6b" stroke-width="2" d="M322,-1346.87C322,-1346.87 627.5,-1346.87 627.5,-1346.87 633.5,-1346.87 639.5,-1352.87 639.5,-1358.87 639.5,-1358.87 639.5,-1517.87 639.5,-1517.87 639.5,-1523.87 633.5,-1529.87 627.5,-1529.87 627.5,-1529.87 322,-1529.87 322,-1529.87 316,-1529.87 310,-1523.87 310,-1517.87 310,-1517.87 310,-1358.87 310,-1358.87 310,-1352.87 316,-1346.87 322,-1346.87"/>
<text text-anchor="start" x="460.25" y="-1515.67" font-family="Helvetica,sans-Serif" font-weight="bold" font-size="14.00">peer</text>
</g>
<g id="clust8" class="cluster">
<title>cluster8338674442</title>
<path fill="bisque" stroke="#8b7d6b" stroke-width="2" d="M314,-922.87C314,-922.87 656,-922.87 656,-922.87 662,-922.87 668,-928.87 668,-934.87 668,-934.87 668,-985.87 668,-985.87 668,-991.87 662,-997.87 656,-997.87 656,-997.87 314,-997.87 314,-997.87 308,-997.87 302,-991.87 302,-985.87 302,-985.87 302,-934.87 302,-934.87 302,-928.87 308,-922.87 314,-922.87"/>
<text text-anchor="start" x="438" y="-983.67" font-family="Helvetica,sans-Serif" font-weight="bold" font-size="14.00">query&#45;follower</text>
</g>
<g id="clust9" class="cluster">
<title>cluster6772640789</title>
<path fill="bisque" stroke="#8b7d6b" stroke-width="2" d="M556,-1005.87C556,-1005.87 823.5,-1005.87 823.5,-1005.87 829.5,-1005.87 835.5,-1011.87 835.5,-1017.87 835.5,-1017.87 835.5,-1068.87 835.5,-1068.87 835.5,-1074.87 829.5,-1080.87 823.5,-1080.87 823.5,-1080.87 556,-1080.87 556,-1080.87 550,-1080.87 544,-1074.87 544,-1068.87 544,-1068.87 544,-1017.87 544,-1017.87 544,-1011.87 550,-1005.87 556,-1005.87"/>
<text text-anchor="start" x="671.25" y="-1066.67" font-family="Helvetica,sans-Serif" font-weight="bold" font-size="14.00">query</text>
</g>
<g id="clust10" class="cluster">
<title>cluster5602951009</title>
<path fill="bisque" stroke="#8b7d6b" stroke-width="2" d="M36,-1126.87C36,-1126.87 815.5,-1126.87 815.5,-1126.87 821.5,-1126.87 827.5,-1132.87 827.5,-1138.87 827.5,-1138.87 827.5,-1297.87 827.5,-1297.87 827.5,-1303.87 821.5,-1309.87 815.5,-1309.87 815.5,-1309.87 36,-1309.87 36,-1309.87 30,-1309.87 24,-1303.87 24,-1297.87 24,-1297.87 24,-1138.87 24,-1138.87 24,-1132.87 30,-1126.87 36,-1126.87"/>
<text text-anchor="start" x="401.25" y="-1295.67" font-family="Helvetica,sans-Serif" font-weight="bold" font-size="14.00">storage</text>
</g>
<g id="clust11" class="cluster">
<title>cluster6043231154</title>
<path fill="bisque" stroke="#8b7d6b" stroke-width="2" d="M88,-702.87C88,-702.87 172,-702.87 172,-702.87 178,-702.87 184,-708.87 184,-714.87 184,-714.87 184,-819.87 184,-819.87 184,-825.87 178,-831.87 172,-831.87 172,-831.87 88,-831.87 88,-831.87 82,-831.87 76,-825.87 76,-819.87 76,-819.87 76,-714.87 76,-714.87 76,-708.87 82,-702.87 88,-702.87"/>
<text text-anchor="start" x="99.5" y="-817.67" font-family="Helvetica,sans-Serif" font-weight="bold" font-size="14.00">superbus</text>
</g>
<g id="clust12" class="cluster">
<title>cluster2013896882</title>
<path fill="bisque" stroke="#8b7d6b" stroke-width="2" d="M73.5,-619.87C73.5,-619.87 186.5,-619.87 186.5,-619.87 192.5,-619.87 198.5,-625.87 198.5,-631.87 198.5,-631.87 198.5,-682.87 198.5,-682.87 198.5,-688.87 192.5,-694.87 186.5,-694.87 186.5,-694.87 73.5,-694.87 73.5,-694.87 67.5,-694.87 61.5,-688.87 61.5,-682.87 61.5,-682.87 61.5,-631.87 61.5,-631.87 61.5,-625.87 67.5,-619.87 73.5,-619.87"/>
<text text-anchor="start" x="81.5" y="-680.67" font-family="Helvetica,sans-Serif" font-weight="bold" font-size="14.00">superbus_map</text>
</g>
<!-- deps.ts -->
<g id="node1" class="node">
<title>deps.ts</title>
<path fill="#79cdcd" stroke="#79cdcd" d="M795,-603.87C795,-603.87 759,-603.87 759,-603.87 753,-603.87 747,-597.87 747,-591.87 747,-591.87 747,-579.87 747,-579.87 747,-573.87 753,-567.87 759,-567.87 759,-567.87 795,-567.87 795,-567.87 801,-567.87 807,-573.87 807,-579.87 807,-579.87 807,-591.87 807,-591.87 807,-597.87 801,-603.87 795,-603.87"/>
<text text-anchor="middle" x="777" y="-582.17" font-family="Helvetica,sans-Serif" font-size="14.00">deps.ts</text>
</g>
<!-- src/node/chloride.ts -->
<g id="node17" class="node">
<title>src/node/chloride.ts</title>
<path fill="#79cdcd" stroke="#79cdcd" d="M157,-883.87C157,-883.87 103,-883.87 103,-883.87 97,-883.87 91,-877.87 91,-871.87 91,-871.87 91,-859.87 91,-859.87 91,-853.87 97,-847.87 103,-847.87 103,-847.87 157,-847.87 157,-847.87 163,-847.87 169,-853.87 169,-859.87 169,-859.87 169,-871.87 169,-871.87 169,-877.87 163,-883.87 157,-883.87"/>
<text text-anchor="middle" x="130" y="-862.17" font-family="Helvetica,sans-Serif" font-size="14.00">chloride.ts</text>
</g>
<!-- deps.ts&#45;&gt;src/node/chloride.ts -->
<g id="edge4" class="edge">
<title>deps.ts&#45;&gt;src/node/chloride.ts</title>
<path fill="none" stroke="#528b8b" stroke-width="2" d="M770.44,-604.12C758.3,-640.66 725.8,-722.71 668,-762.87 517.96,-867.12 443.4,-804.27 264,-838.87 235.84,-844.3 204.39,-850.67 179.14,-855.86"/>
<polygon fill="#528b8b" stroke="#528b8b" stroke-width="2" points="178.17,-852.48 169.09,-857.93 179.59,-859.34 178.17,-852.48"/>
</g>
<!-- src/superbus/simplebus.ts -->
<g id="node34" class="node">
<title>src/superbus/simplebus.ts</title>
<path fill="#79cdcd" stroke="#79cdcd" d="M164,-800.87C164,-800.87 96,-800.87 96,-800.87 90,-800.87 84,-794.87 84,-788.87 84,-788.87 84,-776.87 84,-776.87 84,-770.87 90,-764.87 96,-764.87 96,-764.87 164,-764.87 164,-764.87 170,-764.87 176,-770.87 176,-776.87 176,-776.87 176,-788.87 176,-788.87 176,-794.87 170,-800.87 164,-800.87"/>
<text text-anchor="middle" x="130" y="-779.17" font-family="Helvetica,sans-Serif" font-size="14.00">simplebus.ts</text>
</g>
<!-- deps.ts&#45;&gt;src/superbus/simplebus.ts -->
<g id="edge2" class="edge">
<title>deps.ts&#45;&gt;src/superbus/simplebus.ts</title>
<path fill="none" stroke="#528b8b" stroke-width="2" d="M768.37,-604.09C753.99,-635.87 719.6,-700.81 668,-729.87 511.74,-817.86 288.91,-803.89 186.44,-791.25"/>
<polygon fill="#528b8b" stroke="#528b8b" stroke-width="2" points="186.68,-787.75 176.31,-789.95 185.79,-794.69 186.68,-787.75"/>
</g>
<!-- src/superbus/superbus.ts -->
<g id="node35" class="node">
<title>src/superbus/superbus.ts</title>
<path fill="#79cdcd" stroke="#79cdcd" d="M161,-746.87C161,-746.87 99,-746.87 99,-746.87 93,-746.87 87,-740.87 87,-734.87 87,-734.87 87,-722.87 87,-722.87 87,-716.87 93,-710.87 99,-710.87 99,-710.87 161,-710.87 161,-710.87 167,-710.87 173,-716.87 173,-722.87 173,-722.87 173,-734.87 173,-734.87 173,-740.87 167,-746.87 161,-746.87"/>
<text text-anchor="middle" x="130" y="-725.17" font-family="Helvetica,sans-Serif" font-size="14.00">superbus.ts</text>
</g>
<!-- deps.ts&#45;&gt;src/superbus/superbus.ts -->
<g id="edge1" class="edge">
<title>deps.ts&#45;&gt;src/superbus/superbus.ts</title>
<path fill="none" stroke="#528b8b" stroke-width="2" d="M746.77,-592.35C646.14,-614.66 313.16,-688.48 183.41,-717.25"/>
<polygon fill="#528b8b" stroke="#528b8b" stroke-width="2" points="182.33,-713.9 173.32,-719.48 183.84,-720.74 182.33,-713.9"/>
</g>
<!-- src/superbus_map/superbus_map.ts -->
<g id="node36" class="node">
<title>src/superbus_map/superbus_map.ts</title>
<path fill="#79cdcd" stroke="#79cdcd" d="M178.5,-663.87C178.5,-663.87 81.5,-663.87 81.5,-663.87 75.5,-663.87 69.5,-657.87 69.5,-651.87 69.5,-651.87 69.5,-639.87 69.5,-639.87 69.5,-633.87 75.5,-627.87 81.5,-627.87 81.5,-627.87 178.5,-627.87 178.5,-627.87 184.5,-627.87 190.5,-633.87 190.5,-639.87 190.5,-639.87 190.5,-651.87 190.5,-651.87 190.5,-657.87 184.5,-663.87 178.5,-663.87"/>
<text text-anchor="middle" x="130" y="-642.17" font-family="Helvetica,sans-Serif" font-size="14.00">superbus_map.ts</text>
</g>
<!-- deps.ts&#45;&gt;src/superbus_map/superbus_map.ts -->
<g id="edge3" class="edge">
<title>deps.ts&#45;&gt;src/superbus_map/superbus_map.ts</title>
<path fill="none" stroke="#528b8b" stroke-width="2" d="M746.77,-588.59C650.35,-597.56 340.58,-626.37 200.7,-639.38"/>
<polygon fill="#528b8b" stroke="#528b8b" stroke-width="2" points="200.16,-635.92 190.52,-640.33 200.81,-642.89 200.16,-635.92"/>
</g>
<!-- https://deno.land/x/crayon_chalk_aliases/index.ts -->
<g id="node37" class="node">
<title>https://deno.land/x/crayon_chalk_aliases/index.ts</title>
<polygon fill="#cdc8b1" stroke="#8b8878" points="1223.5,-65.87 917.5,-65.87 913.5,-61.87 913.5,-29.87 1219.5,-29.87 1223.5,-33.87 1223.5,-65.87"/>
<polyline fill="none" stroke="#8b8878" points="1219.5,-61.87 913.5,-61.87 "/>
<polyline fill="none" stroke="#8b8878" points="1219.5,-61.87 1219.5,-29.87 "/>
<polyline fill="none" stroke="#8b8878" points="1219.5,-61.87 1223.5,-65.87 "/>
<text text-anchor="middle" x="1068.5" y="-44.17" font-family="Helvetica,sans-Serif" font-size="14.00">https://deno.land/x/crayon_chalk_aliases/index.ts</text>
</g>
<!-- deps.ts&#45;&gt;https://deno.land/x/crayon_chalk_aliases/index.ts -->
<g id="edge85" class="edge">
<title>deps.ts&#45;&gt;https://deno.land/x/crayon_chalk_aliases/index.ts</title>
<path fill="none" stroke="#8b8878" stroke-width="1.5" stroke-dasharray="5,2" d="M779.45,-567.73C786.42,-485 819.35,-144.55 894,-74.87 897.41,-71.68 901.04,-68.78 904.84,-66.14"/>
<polygon fill="#8b8878" stroke="#8b8878" stroke-width="1.5" points="906.81,-69.04 913.43,-60.77 903.1,-63.1 906.81,-69.04"/>
</g>
<!-- https://esm.sh/fast&#45;deep&#45;equal@3.1.3 -->
<g id="node38" class="node">
<title>https://esm.sh/fast&#45;deep&#45;equal@3.1.3</title>
<polygon fill="#cdc8b1" stroke="#8b8878" points="1190,-551.87 951,-551.87 947,-547.87 947,-515.87 1186,-515.87 1190,-519.87 1190,-551.87"/>
<polyline fill="none" stroke="#8b8878" points="1186,-547.87 947,-547.87 "/>
<polyline fill="none" stroke="#8b8878" points="1186,-547.87 1186,-515.87 "/>
<polyline fill="none" stroke="#8b8878" points="1186,-547.87 1190,-551.87 "/>
<text text-anchor="middle" x="1068.5" y="-530.17" font-family="Helvetica,sans-Serif" font-size="14.00">https://esm.sh/fast&#45;deep&#45;equal@3.1.3</text>
</g>
<!-- deps.ts&#45;&gt;https://esm.sh/fast&#45;deep&#45;equal@3.1.3 -->
<g id="edge86" class="edge">
<title>deps.ts&#45;&gt;https://esm.sh/fast&#45;deep&#45;equal@3.1.3</title>
<path fill="none" stroke="#8b8878" stroke-width="1.5" stroke-dasharray="5,2" d="M807.33,-577.18C830.64,-570.54 864.17,-561.59 894,-555.87 907.81,-553.22 922.3,-550.81 936.78,-548.63"/>
<polygon fill="#8b8878" stroke="#8b8878" stroke-width="1.5" points="937.4,-552.08 946.79,-547.17 936.38,-545.15 937.4,-552.08"/>
</g>
<!-- https://esm.sh/rfdc@1.3.0?dts -->
<g id="node39" class="node">
<title>https://esm.sh/rfdc@1.3.0?dts</title>
<polygon fill="#cdc8b1" stroke="#8b8878" points="1167,-497.87 974,-497.87 970,-493.87 970,-461.87 1163,-461.87 1167,-465.87 1167,-497.87"/>
<polyline fill="none" stroke="#8b8878" points="1163,-493.87 970,-493.87 "/>
<polyline fill="none" stroke="#8b8878" points="1163,-493.87 1163,-461.87 "/>
<polyline fill="none" stroke="#8b8878" points="1163,-493.87 1167,-497.87 "/>
<text text-anchor="middle" x="1068.5" y="-476.17" font-family="Helvetica,sans-Serif" font-size="14.00">https://esm.sh/rfdc@1.3.0?dts</text>
</g>
<!-- deps.ts&#45;&gt;https://esm.sh/rfdc@1.3.0?dts -->
<g id="edge87" class="edge">
<title>deps.ts&#45;&gt;https://esm.sh/rfdc@1.3.0?dts</title>
<path fill="none" stroke="#8b8878" stroke-width="1.5" stroke-dasharray="5,2" d="M798.58,-567.6C820.59,-549.15 857.29,-521.37 894,-506.87 914.53,-498.76 937.33,-493.08 959.47,-489.1"/>
<polygon fill="#8b8878" stroke="#8b8878" stroke-width="1.5" points="960.31,-492.51 969.58,-487.39 959.14,-485.6 960.31,-492.51"/>
</g>
<!-- https://cdn.skypack.dev/dbly&#45;linked&#45;list@0.3.5 -->
<g id="node40" class="node">
<title>https://cdn.skypack.dev/dbly&#45;linked&#45;list@0.3.5</title>
<polygon fill="#cdc8b1" stroke="#8b8878" points="1213.5,-443.87 927.5,-443.87 923.5,-439.87 923.5,-407.87 1209.5,-407.87 1213.5,-411.87 1213.5,-443.87"/>
<polyline fill="none" stroke="#8b8878" points="1209.5,-439.87 923.5,-439.87 "/>
<polyline fill="none" stroke="#8b8878" points="1209.5,-439.87 1209.5,-407.87 "/>
<polyline fill="none" stroke="#8b8878" points="1209.5,-439.87 1213.5,-443.87 "/>
<text text-anchor="middle" x="1068.5" y="-422.17" font-family="Helvetica,sans-Serif" font-size="14.00">https://cdn.skypack.dev/dbly&#45;linked&#45;list@0.3.5</text>
</g>
<!-- deps.ts&#45;&gt;https://cdn.skypack.dev/dbly&#45;linked&#45;list@0.3.5 -->
<g id="edge88" class="edge">
<title>deps.ts&#45;&gt;https://cdn.skypack.dev/dbly&#45;linked&#45;list@0.3.5</title>
<path fill="none" stroke="#8b8878" stroke-width="1.5" stroke-dasharray="5,2" d="M788.08,-567.65C805.47,-538.13 844.1,-480.39 894,-452.87 900.33,-449.38 906.98,-446.3 913.83,-443.59"/>
<polygon fill="#8b8878" stroke="#8b8878" stroke-width="1.5" points="915.1,-446.85 923.29,-440.12 912.69,-440.28 915.1,-446.85"/>
</g>
<!-- https://esm.sh/fast&#45;json&#45;stable&#45;stringify@2.1.0 -->
<g id="node41" class="node">
<title>https://esm.sh/fast&#45;json&#45;stable&#45;stringify@2.1.0</title>
<polygon fill="#cdc8b1" stroke="#8b8878" points="1214.5,-389.87 926.5,-389.87 922.5,-385.87 922.5,-353.87 1210.5,-353.87 1214.5,-357.87 1214.5,-389.87"/>
<polyline fill="none" stroke="#8b8878" points="1210.5,-385.87 922.5,-385.87 "/>
<polyline fill="none" stroke="#8b8878" points="1210.5,-385.87 1210.5,-353.87 "/>
<polyline fill="none" stroke="#8b8878" points="1210.5,-385.87 1214.5,-389.87 "/>
<text text-anchor="middle" x="1068.5" y="-368.17" font-family="Helvetica,sans-Serif" font-size="14.00">https://esm.sh/fast&#45;json&#45;stable&#45;stringify@2.1.0</text>
</g>
<!-- deps.ts&#45;&gt;https://esm.sh/fast&#45;json&#45;stable&#45;stringify@2.1.0 -->
<g id="edge89" class="edge">
<title>deps.ts&#45;&gt;https://esm.sh/fast&#45;json&#45;stable&#45;stringify@2.1.0</title>
<path fill="none" stroke="#8b8878" stroke-width="1.5" stroke-dasharray="5,2" d="M783.45,-567.85C796.03,-529.66 830.93,-440.64 894,-398.87 899.89,-394.97 906.14,-391.55 912.63,-388.56"/>
<polygon fill="#8b8878" stroke="#8b8878" stroke-width="1.5" points="914.44,-391.6 922.3,-384.49 911.72,-385.15 914.44,-391.6"/>
</g>
<!-- https://esm.sh/rfc4648@1.5.0 -->
<g id="node42" class="node">
<title>https://esm.sh/rfc4648@1.5.0</title>
<polygon fill="#cdc8b1" stroke="#8b8878" points="1165.5,-335.87 975.5,-335.87 971.5,-331.87 971.5,-299.87 1161.5,-299.87 1165.5,-303.87 1165.5,-335.87"/>
<polyline fill="none" stroke="#8b8878" points="1161.5,-331.87 971.5,-331.87 "/>
<polyline fill="none" stroke="#8b8878" points="1161.5,-331.87 1161.5,-299.87 "/>
<polyline fill="none" stroke="#8b8878" points="1161.5,-331.87 1165.5,-335.87 "/>
<text text-anchor="middle" x="1068.5" y="-314.17" font-family="Helvetica,sans-Serif" font-size="14.00">https://esm.sh/rfc4648@1.5.0</text>
</g>
<!-- deps.ts&#45;&gt;https://esm.sh/rfc4648@1.5.0 -->
<g id="edge90" class="edge">
<title>deps.ts&#45;&gt;https://esm.sh/rfc4648@1.5.0</title>
<path fill="none" stroke="#8b8878" stroke-width="1.5" stroke-dasharray="5,2" d="M780.87,-567.74C789.15,-522.01 817.55,-401.58 894,-344.87 913.47,-330.42 937.6,-322.34 961.6,-318.08"/>
<polygon fill="#8b8878" stroke="#8b8878" stroke-width="1.5" points="962.16,-321.53 971.5,-316.52 961.08,-314.61 962.16,-321.53"/>
</g>
<!-- https://esm.sh/sha256&#45;uint8array@0.10.3 -->
<g id="node43" class="node">
<title>https://esm.sh/sha256&#45;uint8array@0.10.3</title>
<polygon fill="#cdc8b1" stroke="#8b8878" points="1201.5,-281.87 939.5,-281.87 935.5,-277.87 935.5,-245.87 1197.5,-245.87 1201.5,-249.87 1201.5,-281.87"/>
<polyline fill="none" stroke="#8b8878" points="1197.5,-277.87 935.5,-277.87 "/>
<polyline fill="none" stroke="#8b8878" points="1197.5,-277.87 1197.5,-245.87 "/>
<polyline fill="none" stroke="#8b8878" points="1197.5,-277.87 1201.5,-281.87 "/>
<text text-anchor="middle" x="1068.5" y="-260.17" font-family="Helvetica,sans-Serif" font-size="14.00">https://esm.sh/sha256&#45;uint8array@0.10.3</text>
</g>
<!-- deps.ts&#45;&gt;https://esm.sh/sha256&#45;uint8array@0.10.3 -->
<g id="edge91" class="edge">
<title>deps.ts&#45;&gt;https://esm.sh/sha256&#45;uint8array@0.10.3</title>
<path fill="none" stroke="#8b8878" stroke-width="1.5" stroke-dasharray="5,2" d="M779.15,-567.71C783.52,-515.34 803.79,-363.11 894,-290.87 903.48,-283.28 914.21,-277.39 925.58,-272.87"/>
<polygon fill="#8b8878" stroke="#8b8878" stroke-width="1.5" points="927.04,-276.06 935.26,-269.38 924.66,-269.48 927.04,-276.06"/>
</g>
<!-- https://deno.land/x/ed25519@1.3.3/mod.ts -->
<g id="node44" class="node">
<title>https://deno.land/x/ed25519@1.3.3/mod.ts</title>
<polygon fill="#cdc8b1" stroke="#8b8878" points="1204.5,-227.87 936.5,-227.87 932.5,-223.87 932.5,-191.87 1200.5,-191.87 1204.5,-195.87 1204.5,-227.87"/>
<polyline fill="none" stroke="#8b8878" points="1200.5,-223.87 932.5,-223.87 "/>
<polyline fill="none" stroke="#8b8878" points="1200.5,-223.87 1200.5,-191.87 "/>
<polyline fill="none" stroke="#8b8878" points="1200.5,-223.87 1204.5,-227.87 "/>
<text text-anchor="middle" x="1068.5" y="-206.17" font-family="Helvetica,sans-Serif" font-size="14.00">https://deno.land/x/ed25519@1.3.3/mod.ts</text>
</g>
<!-- deps.ts&#45;&gt;https://deno.land/x/ed25519@1.3.3/mod.ts -->
<g id="edge92" class="edge">
<title>deps.ts&#45;&gt;https://deno.land/x/ed25519@1.3.3/mod.ts</title>
<path fill="none" stroke="#8b8878" stroke-width="1.5" stroke-dasharray="5,2" d="M777.92,-567.48C778.76,-508.84 789.93,-324.91 894,-236.87 902.55,-229.63 912.23,-223.92 922.52,-219.44"/>
<polygon fill="#8b8878" stroke="#8b8878" stroke-width="1.5" points="924.11,-222.57 932.14,-215.66 921.55,-216.06 924.11,-222.57"/>
</g>
<!-- http://esm.sh/heap@0.2.7?dts -->
<g id="node45" class="node">
<title>http://esm.sh/heap@0.2.7?dts</title>
<polygon fill="#cdc8b1" stroke="#8b8878" points="1167.5,-173.87 973.5,-173.87 969.5,-169.87 969.5,-137.87 1163.5,-137.87 1167.5,-141.87 1167.5,-173.87"/>
<polyline fill="none" stroke="#8b8878" points="1163.5,-169.87 969.5,-169.87 "/>
<polyline fill="none" stroke="#8b8878" points="1163.5,-169.87 1163.5,-137.87 "/>
<polyline fill="none" stroke="#8b8878" points="1163.5,-169.87 1167.5,-173.87 "/>
<text text-anchor="middle" x="1068.5" y="-152.17" font-family="Helvetica,sans-Serif" font-size="14.00">http://esm.sh/heap@0.2.7?dts</text>
</g>
<!-- deps.ts&#45;&gt;http://esm.sh/heap@0.2.7?dts -->
<g id="edge93" class="edge">
<title>deps.ts&#45;&gt;http://esm.sh/heap@0.2.7?dts</title>
<path fill="none" stroke="#8b8878" stroke-width="1.5" stroke-dasharray="5,2" d="M780.6,-567.83C791.24,-496.57 833.78,-235.94 894,-182.87 912.01,-166.99 935.36,-158.33 959.05,-153.95"/>
<polygon fill="#8b8878" stroke="#8b8878" stroke-width="1.5" points="959.89,-157.36 969.22,-152.32 958.79,-150.44 959.89,-157.36"/>
</g>
<!-- https://cdn.skypack.dev/concurrency&#45;friends@5.2.0?dts -->
<g id="node46" class="node">
<title>https://cdn.skypack.dev/concurrency&#45;friends@5.2.0?dts</title>
<polygon fill="#cdc8b1" stroke="#8b8878" points="1243,-119.87 898,-119.87 894,-115.87 894,-83.87 1239,-83.87 1243,-87.87 1243,-119.87"/>
<polyline fill="none" stroke="#8b8878" points="1239,-115.87 894,-115.87 "/>
<polyline fill="none" stroke="#8b8878" points="1239,-115.87 1239,-83.87 "/>
<polyline fill="none" stroke="#8b8878" points="1239,-115.87 1243,-119.87 "/>
<text text-anchor="middle" x="1068.5" y="-98.17" font-family="Helvetica,sans-Serif" font-size="14.00">https://cdn.skypack.dev/concurrency&#45;friends@5.2.0?dts</text>
</g>
<!-- deps.ts&#45;&gt;https://cdn.skypack.dev/concurrency&#45;friends@5.2.0?dts -->
<g id="edge94" class="edge">
<title>deps.ts&#45;&gt;https://cdn.skypack.dev/concurrency&#45;friends@5.2.0?dts</title>
<path fill="none" stroke="#8b8878" stroke-width="1.5" stroke-dasharray="5,2" d="M779.95,-567.85C788.66,-490.8 826.57,-190.23 894,-128.87 895.01,-127.94 896.05,-127.05 897.1,-126.17"/>
<polygon fill="#8b8878" stroke="#8b8878" stroke-width="1.5" points="899.55,-128.7 905.46,-119.91 895.36,-123.1 899.55,-128.7"/>
</g>
<!-- src/example&#45;app.ts -->
<g id="node2" class="node">
<title>src/example&#45;app.ts</title>
<path fill="#79cdcd" stroke="#79cdcd" d="M173,-1353.87C173,-1353.87 87,-1353.87 87,-1353.87 81,-1353.87 75,-1347.87 75,-1341.87 75,-1341.87 75,-1329.87 75,-1329.87 75,-1323.87 81,-1317.87 87,-1317.87 87,-1317.87 173,-1317.87 173,-1317.87 179,-1317.87 185,-1323.87 185,-1329.87 185,-1329.87 185,-1341.87 185,-1341.87 185,-1347.87 179,-1353.87 173,-1353.87"/>
<text text-anchor="middle" x="130" y="-1332.17" font-family="Helvetica,sans-Serif" font-size="14.00">example&#45;app.ts</text>
</g>
<!-- src/crypto/crypto.ts -->
<g id="node11" class="node">
<title>src/crypto/crypto.ts</title>
<path fill="#79cdcd" stroke="#79cdcd" d="M799,-1510.87C799,-1510.87 755,-1510.87 755,-1510.87 749,-1510.87 743,-1504.87 743,-1498.87 743,-1498.87 743,-1486.87 743,-1486.87 743,-1480.87 749,-1474.87 755,-1474.87 755,-1474.87 799,-1474.87 799,-1474.87 805,-1474.87 811,-1480.87 811,-1486.87 811,-1486.87 811,-1498.87 811,-1498.87 811,-1504.87 805,-1510.87 799,-1510.87"/>
<text text-anchor="middle" x="777" y="-1489.17" font-family="Helvetica,sans-Serif" font-size="14.00">crypto.ts</text>
</g>
<!-- src/example&#45;app.ts&#45;&gt;src/crypto/crypto.ts -->
<g id="edge27" class="edge">
<title>src/example&#45;app.ts&#45;&gt;src/crypto/crypto.ts</title>
<path fill="none" stroke="#528b8b" stroke-width="2" d="M136.61,-1353.94C150.45,-1394.99 190.55,-1494.72 264,-1533.87 283.81,-1544.42 645.92,-1537.92 668,-1533.87 690.38,-1529.76 714.13,-1521.25 733.64,-1513.03"/>
<polygon fill="#528b8b" stroke="#528b8b" stroke-width="2" points="735.07,-1516.23 742.86,-1509.05 732.29,-1509.8 735.07,-1516.23"/>
</g>
<!-- src/format&#45;validators/format&#45;validator&#45;es4.ts -->
<g id="node14" class="node">
<title>src/format&#45;validators/format&#45;validator&#45;es4.ts</title>
<path fill="#79cdcd" stroke="#79cdcd" d="M648,-1632.87C648,-1632.87 520,-1632.87 520,-1632.87 514,-1632.87 508,-1626.87 508,-1620.87 508,-1620.87 508,-1608.87 508,-1608.87 508,-1602.87 514,-1596.87 520,-1596.87 520,-1596.87 648,-1596.87 648,-1596.87 654,-1596.87 660,-1602.87 660,-1608.87 660,-1608.87 660,-1620.87 660,-1620.87 660,-1626.87 654,-1632.87 648,-1632.87"/>
<text text-anchor="middle" x="584" y="-1611.17" font-family="Helvetica,sans-Serif" font-size="14.00">format&#45;validator&#45;es4.ts</text>
</g>
<!-- src/example&#45;app.ts&#45;&gt;src/format&#45;validators/format&#45;validator&#45;es4.ts -->
<g id="edge24" class="edge">
<title>src/example&#45;app.ts&#45;&gt;src/format&#45;validators/format&#45;validator&#45;es4.ts</title>
<path fill="none" stroke="#528b8b" stroke-width="2" d="M137.11,-1354.01C151.88,-1394.92 193.58,-1494.6 264,-1543.87 332.87,-1592.05 428.86,-1608.24 497.52,-1613.34"/>
<polygon fill="#528b8b" stroke="#528b8b" stroke-width="2" points="497.65,-1616.85 507.87,-1614.04 498.13,-1609.87 497.65,-1616.85"/>
</g>
<!-- src/peer/peer.ts -->
<g id="node21" class="node">
<title>src/peer/peer.ts</title>
<path fill="#79cdcd" stroke="#79cdcd" d="M385,-1390.87C385,-1390.87 351,-1390.87 351,-1390.87 345,-1390.87 339,-1384.87 339,-1378.87 339,-1378.87 339,-1366.87 339,-1366.87 339,-1360.87 345,-1354.87 351,-1354.87 351,-1354.87 385,-1354.87 385,-1354.87 391,-1354.87 397,-1360.87 397,-1366.87 397,-1366.87 397,-1378.87 397,-1378.87 397,-1384.87 391,-1390.87 385,-1390.87"/>
<text text-anchor="middle" x="368" y="-1369.17" font-family="Helvetica,sans-Serif" font-size="14.00">peer.ts</text>
</g>
<!-- src/example&#45;app.ts&#45;&gt;src/peer/peer.ts -->
<g id="edge29" class="edge">
<title>src/example&#45;app.ts&#45;&gt;src/peer/peer.ts</title>
<path fill="none" stroke="#528b8b" stroke-width="2" d="M185.14,-1344.36C229.12,-1351.25 290.02,-1360.8 328.97,-1366.9"/>
<polygon fill="#528b8b" stroke="#528b8b" stroke-width="2" points="328.43,-1370.36 338.86,-1368.45 329.52,-1363.45 328.43,-1370.36"/>
</g>
<!-- src/query&#45;follower/query&#45;follower.ts -->
<g id="node23" class="node">
<title>src/query&#45;follower/query&#45;follower.ts</title>
<path fill="#79cdcd" stroke="#79cdcd" d="M414,-966.87C414,-966.87 322,-966.87 322,-966.87 316,-966.87 310,-960.87 310,-954.87 310,-954.87 310,-942.87 310,-942.87 310,-936.87 316,-930.87 322,-930.87 322,-930.87 414,-930.87 414,-930.87 420,-930.87 426,-936.87 426,-942.87 426,-942.87 426,-954.87 426,-954.87 426,-960.87 420,-966.87 414,-966.87"/>
<text text-anchor="middle" x="368" y="-945.17" font-family="Helvetica,sans-Serif" font-size="14.00">query&#45;follower.ts</text>
</g>
<!-- src/example&#45;app.ts&#45;&gt;src/query&#45;follower/query&#45;follower.ts -->
<g id="edge28" class="edge">
<title>src/example&#45;app.ts&#45;&gt;src/query&#45;follower/query&#45;follower.ts</title>
<path fill="none" stroke="#528b8b" stroke-width="2" d="M185.09,-1334.58C200.84,-1331.56 216.79,-1325.49 228,-1313.87 287.95,-1251.67 233.54,-1203.7 264,-1122.87 285.14,-1066.78 323.9,-1008.11 347.37,-975.25"/>
<polygon fill="#528b8b" stroke="#528b8b" stroke-width="2" points="350.25,-977.23 353.27,-967.08 344.58,-973.13 350.25,-977.23"/>
</g>
<!-- src/storage/storage&#45;async.ts -->
<g id="node27" class="node">
<title>src/storage/storage&#45;async.ts</title>
<path fill="#79cdcd" stroke="#79cdcd" d="M414,-1278.87C414,-1278.87 322,-1278.87 322,-1278.87 316,-1278.87 310,-1272.87 310,-1266.87 310,-1266.87 310,-1254.87 310,-1254.87 310,-1248.87 316,-1242.87 322,-1242.87 322,-1242.87 414,-1242.87 414,-1242.87 420,-1242.87 426,-1248.87 426,-1254.87 426,-1254.87 426,-1266.87 426,-1266.87 426,-1272.87 420,-1278.87 414,-1278.87"/>
<text text-anchor="middle" x="368" y="-1257.17" font-family="Helvetica,sans-Serif" font-size="14.00">storage&#45;async.ts</text>
</g>
<!-- src/example&#45;app.ts&#45;&gt;src/storage/storage&#45;async.ts -->
<g id="edge26" class="edge">
<title>src/example&#45;app.ts&#45;&gt;src/storage/storage&#45;async.ts</title>
<path fill="none" stroke="#528b8b" stroke-width="2" d="M185.22,-1328.44C199.62,-1325.17 214.82,-1320.51 228,-1313.87 246.85,-1304.36 245.09,-1292.25 264,-1282.87 275.18,-1277.32 287.72,-1273.17 300.1,-1270.06"/>
<polygon fill="#528b8b" stroke="#528b8b" stroke-width="2" points="301.01,-1273.44 309.96,-1267.78 299.43,-1266.62 301.01,-1273.44"/>
</g>
<!-- src/storage/storage&#45;driver&#45;async&#45;memory.ts -->
<g id="node29" class="node">
<title>src/storage/storage&#45;driver&#45;async&#45;memory.ts</title>
<path fill="#79cdcd" stroke="#79cdcd" d="M460,-1224.87C460,-1224.87 276,-1224.87 276,-1224.87 270,-1224.87 264,-1218.87 264,-1212.87 264,-1212.87 264,-1200.87 264,-1200.87 264,-1194.87 270,-1188.87 276,-1188.87 276,-1188.87 460,-1188.87 460,-1188.87 466,-1188.87 472,-1194.87 472,-1200.87 472,-1200.87 472,-1212.87 472,-1212.87 472,-1218.87 466,-1224.87 460,-1224.87"/>
<text text-anchor="middle" x="368" y="-1203.17" font-family="Helvetica,sans-Serif" font-size="14.00">storage&#45;driver&#45;async&#45;memory.ts</text>
</g>
<!-- src/example&#45;app.ts&#45;&gt;src/storage/storage&#45;driver&#45;async&#45;memory.ts -->
<g id="edge25" class="edge">
<title>src/example&#45;app.ts&#45;&gt;src/storage/storage&#45;driver&#45;async&#45;memory.ts</title>
<path fill="none" stroke="#528b8b" stroke-width="2" d="M185.04,-1332.58C200.24,-1329.41 215.9,-1323.76 228,-1313.87 258.18,-1289.19 234.23,-1259.05 264,-1233.87 265.36,-1232.72 266.76,-1231.62 268.2,-1230.56"/>
<polygon fill="#528b8b" stroke="#528b8b" stroke-width="2" points="270.31,-1233.37 276.83,-1225.01 266.53,-1227.48 270.31,-1233.37"/>
</g>
<!-- src/storage/storage&#45;types.ts -->
<g id="node32" class="node">
<title>src/storage/storage&#45;types.ts</title>
<path fill="#79cdcd" stroke="#79cdcd" d="M628.5,-1204.87C628.5,-1204.87 539.5,-1204.87 539.5,-1204.87 533.5,-1204.87 527.5,-1198.87 527.5,-1192.87 527.5,-1192.87 527.5,-1180.87 527.5,-1180.87 527.5,-1174.87 533.5,-1168.87 539.5,-1168.87 539.5,-1168.87 628.5,-1168.87 628.5,-1168.87 634.5,-1168.87 640.5,-1174.87 640.5,-1180.87 640.5,-1180.87 640.5,-1192.87 640.5,-1192.87 640.5,-1198.87 634.5,-1204.87 628.5,-1204.87"/>
<text text-anchor="middle" x="584" y="-1183.17" font-family="Helvetica,sans-Serif" font-size="14.00">storage&#45;types.ts</text>
</g>
<!-- src/example&#45;app.ts&#45;&gt;src/storage/storage&#45;types.ts -->
<g id="edge30" class="edge">
<title>src/example&#45;app.ts&#45;&gt;src/storage/storage&#45;types.ts</title>
<path fill="none" stroke="#528b8b" stroke-width="2" d="M185.17,-1334.81C269.96,-1332.09 428.81,-1322.4 472,-1287.87 499.47,-1265.91 474.55,-1238.14 500,-1213.87 505.28,-1208.83 511.5,-1204.74 518.13,-1201.41"/>
<polygon fill="#528b8b" stroke="#528b8b" stroke-width="2" points="519.65,-1204.57 527.38,-1197.32 516.82,-1198.16 519.65,-1204.57"/>
</g>
<!-- src/core&#45;validators/addresses.ts -->
<g id="node3" class="node">
<title>src/core&#45;validators/addresses.ts</title>
<path fill="#79cdcd" stroke="#79cdcd" d="M1392.5,-1632.87C1392.5,-1632.87 1323.5,-1632.87 1323.5,-1632.87 1317.5,-1632.87 1311.5,-1626.87 1311.5,-1620.87 1311.5,-1620.87 1311.5,-1608.87 1311.5,-1608.87 1311.5,-1602.87 1317.5,-1596.87 1323.5,-1596.87 1323.5,-1596.87 1392.5,-1596.87 1392.5,-1596.87 1398.5,-1596.87 1404.5,-1602.87 1404.5,-1608.87 1404.5,-1608.87 1404.5,-1620.87 1404.5,-1620.87 1404.5,-1626.87 1398.5,-1632.87 1392.5,-1632.87"/>
<text text-anchor="middle" x="1358" y="-1611.17" font-family="Helvetica,sans-Serif" font-size="14.00">addresses.ts</text>
</g>
<!-- src/core&#45;validators/characters.ts -->
<g id="node4" class="node">
<title>src/core&#45;validators/characters.ts</title>
<path fill="#79cdcd" stroke="#79cdcd" d="M1650,-1686.87C1650,-1686.87 1580,-1686.87 1580,-1686.87 1574,-1686.87 1568,-1680.87 1568,-1674.87 1568,-1674.87 1568,-1662.87 1568,-1662.87 1568,-1656.87 1574,-1650.87 1580,-1650.87 1580,-1650.87 1650,-1650.87 1650,-1650.87 1656,-1650.87 1662,-1656.87 1662,-1662.87 1662,-1662.87 1662,-1674.87 1662,-1674.87 1662,-1680.87 1656,-1686.87 1650,-1686.87"/>
<text text-anchor="middle" x="1615" y="-1665.17" font-family="Helvetica,sans-Serif" font-size="14.00">characters.ts</text>
</g>
<!-- src/core&#45;validators/addresses.ts&#45;&gt;src/core&#45;validators/characters.ts -->
<g id="edge5" class="edge">
<title>src/core&#45;validators/addresses.ts&#45;&gt;src/core&#45;validators/characters.ts</title>
<path fill="none" stroke="#528b8b" stroke-width="2" d="M1404.59,-1624.52C1447.56,-1633.62 1512.07,-1647.28 1558.12,-1657.03"/>
<polygon fill="#528b8b" stroke="#528b8b" stroke-width="2" points="1557.44,-1660.47 1567.95,-1659.11 1558.89,-1653.62 1557.44,-1660.47"/>
</g>
<!-- src/core&#45;validators/checkers.ts -->
<g id="node5" class="node">
<title>src/core&#45;validators/checkers.ts</title>
<path fill="#79cdcd" stroke="#79cdcd" d="M1388.5,-1686.87C1388.5,-1686.87 1327.5,-1686.87 1327.5,-1686.87 1321.5,-1686.87 1315.5,-1680.87 1315.5,-1674.87 1315.5,-1674.87 1315.5,-1662.87 1315.5,-1662.87 1315.5,-1656.87 1321.5,-1650.87 1327.5,-1650.87 1327.5,-1650.87 1388.5,-1650.87 1388.5,-1650.87 1394.5,-1650.87 1400.5,-1656.87 1400.5,-1662.87 1400.5,-1662.87 1400.5,-1674.87 1400.5,-1674.87 1400.5,-1680.87 1394.5,-1686.87 1388.5,-1686.87"/>
<text text-anchor="middle" x="1358" y="-1665.17" font-family="Helvetica,sans-Serif" font-size="14.00">checkers.ts</text>
</g>
<!-- src/core&#45;validators/checkers.ts&#45;&gt;src/core&#45;validators/characters.ts -->
<g id="edge6" class="edge">
<title>src/core&#45;validators/checkers.ts&#45;&gt;src/core&#45;validators/characters.ts</title>
<path fill="none" stroke="#528b8b" stroke-width="2" d="M1400.54,-1668.87C1443.27,-1668.87 1510.11,-1668.87 1557.61,-1668.87"/>
<polygon fill="#528b8b" stroke="#528b8b" stroke-width="2" points="1557.73,-1672.37 1567.73,-1668.87 1557.73,-1665.37 1557.73,-1672.37"/>
</g>
<!-- src/crypto/base32.ts -->
<g id="node6" class="node">
<title>src/crypto/base32.ts</title>
<path fill="#79cdcd" stroke="#79cdcd" d="M1383.5,-1509.87C1383.5,-1509.87 1332.5,-1509.87 1332.5,-1509.87 1326.5,-1509.87 1320.5,-1503.87 1320.5,-1497.87 1320.5,-1497.87 1320.5,-1485.87 1320.5,-1485.87 1320.5,-1479.87 1326.5,-1473.87 1332.5,-1473.87 1332.5,-1473.87 1383.5,-1473.87 1383.5,-1473.87 1389.5,-1473.87 1395.5,-1479.87 1395.5,-1485.87 1395.5,-1485.87 1395.5,-1497.87 1395.5,-1497.87 1395.5,-1503.87 1389.5,-1509.87 1383.5,-1509.87"/>
<text text-anchor="middle" x="1358" y="-1488.17" font-family="Helvetica,sans-Serif" font-size="14.00">base32.ts</text>
</g>
<!-- src/crypto/base32.ts&#45;&gt;deps.ts -->
<g id="edge7" class="edge">
<title>src/crypto/base32.ts&#45;&gt;deps.ts</title>
<path fill="none" stroke="#528b8b" stroke-width="2" d="M1331.28,-1473.73C1314.91,-1461.3 1294.04,-1443.7 1279,-1424.87 1257.66,-1398.15 1264.52,-1383.45 1243,-1356.87 1115.75,-1199.67 1000.71,-1236.66 894,-1064.87 845.68,-987.08 797.07,-704.5 782.43,-613.97"/>
<polygon fill="#528b8b" stroke="#528b8b" stroke-width="2" points="785.86,-613.23 780.82,-603.91 778.95,-614.34 785.86,-613.23"/>
</g>
<!-- src/crypto/crypto&#45;driver&#45;chloride.ts -->
<g id="node7" class="node">
<title>src/crypto/crypto&#45;driver&#45;chloride.ts</title>
<path fill="#79cdcd" stroke="#79cdcd" d="M1425,-1361.87C1425,-1361.87 1291,-1361.87 1291,-1361.87 1285,-1361.87 1279,-1355.87 1279,-1349.87 1279,-1349.87 1279,-1337.87 1279,-1337.87 1279,-1331.87 1285,-1325.87 1291,-1325.87 1291,-1325.87 1425,-1325.87 1425,-1325.87 1431,-1325.87 1437,-1331.87 1437,-1337.87 1437,-1337.87 1437,-1349.87 1437,-1349.87 1437,-1355.87 1431,-1361.87 1425,-1361.87"/>
<text text-anchor="middle" x="1358" y="-1340.17" font-family="Helvetica,sans-Serif" font-size="14.00">crypto&#45;driver&#45;chloride.ts</text>
</g>
<!-- src/crypto/crypto&#45;driver&#45;chloride.ts&#45;&gt;deps.ts -->
<g id="edge8" class="edge">
<title>src/crypto/crypto&#45;driver&#45;chloride.ts&#45;&gt;deps.ts</title>
<path fill="none" stroke="#528b8b" stroke-width="2" d="M1352.77,-1325.83C1341,-1278.02 1304.6,-1145.26 1243,-1050.87 1114.81,-854.45 892.89,-673.81 810.24,-610.13"/>
<polygon fill="#528b8b" stroke="#528b8b" stroke-width="2" points="812.3,-607.29 802.23,-603.98 808.04,-612.85 812.3,-607.29"/>
</g>
<!-- src/crypto/crypto&#45;types.ts -->
<g id="node10" class="node">
<title>src/crypto/crypto&#45;types.ts</title>
<path fill="#79cdcd" stroke="#79cdcd" d="M1655,-1462.87C1655,-1462.87 1575,-1462.87 1575,-1462.87 1569,-1462.87 1563,-1456.87 1563,-1450.87 1563,-1450.87 1563,-1438.87 1563,-1438.87 1563,-1432.87 1569,-1426.87 1575,-1426.87 1575,-1426.87 1655,-1426.87 1655,-1426.87 1661,-1426.87 1667,-1432.87 1667,-1438.87 1667,-1438.87 1667,-1450.87 1667,-1450.87 1667,-1456.87 1661,-1462.87 1655,-1462.87"/>
<text text-anchor="middle" x="1615" y="-1441.17" font-family="Helvetica,sans-Serif" font-size="14.00">crypto&#45;types.ts</text>
</g>
<!-- src/crypto/crypto&#45;driver&#45;chloride.ts&#45;&gt;src/crypto/crypto&#45;types.ts -->
<g id="edge9" class="edge">
<title>src/crypto/crypto&#45;driver&#45;chloride.ts&#45;&gt;src/crypto/crypto&#45;types.ts</title>
<path fill="none" stroke="#528b8b" stroke-width="2" d="M1412.45,-1361.87C1420.7,-1364.79 1429.1,-1367.85 1437,-1370.87 1479.95,-1387.26 1528.04,-1407.49 1563.24,-1422.65"/>
<polygon fill="#528b8b" stroke="#528b8b" stroke-width="2" points="1562.24,-1426.03 1572.81,-1426.78 1565.02,-1419.61 1562.24,-1426.03"/>
</g>
<!-- https://deno.land/std@0.119.0/node/buffer.ts -->
<g id="node47" class="node">
<title>https://deno.land/std@0.119.0/node/buffer.ts</title>
<polygon fill="#cdc8b1" stroke="#8b8878" points="1757,-285.87 1477,-285.87 1473,-281.87 1473,-249.87 1753,-249.87 1757,-253.87 1757,-285.87"/>
<polyline fill="none" stroke="#8b8878" points="1753,-281.87 1473,-281.87 "/>
<polyline fill="none" stroke="#8b8878" points="1753,-281.87 1753,-249.87 "/>
<polyline fill="none" stroke="#8b8878" points="1753,-281.87 1757,-285.87 "/>
<text text-anchor="middle" x="1615" y="-264.17" font-family="Helvetica,sans-Serif" font-size="14.00">https://deno.land/std@0.119.0/node/buffer.ts</text>
</g>
<!-- src/crypto/crypto&#45;driver&#45;chloride.ts&#45;&gt;https://deno.land/std@0.119.0/node/buffer.ts -->
<g id="edge95" class="edge">
<title>src/crypto/crypto&#45;driver&#45;chloride.ts&#45;&gt;https://deno.land/std@0.119.0/node/buffer.ts</title>
<path fill="none" stroke="#8b8878" stroke-width="1.5" stroke-dasharray="5,2" d="M1363.32,-1325.64C1393.32,-1199.03 1570.59,-451.03 1607.34,-295.99"/>
<polygon fill="#8b8878" stroke="#8b8878" stroke-width="1.5" points="1610.74,-296.79 1609.64,-286.26 1603.93,-295.18 1610.74,-296.79"/>
</g>
<!-- src/crypto/crypto&#45;driver&#45;fake.ts -->
<g id="node8" class="node">
<title>src/crypto/crypto&#45;driver&#45;fake.ts</title>
<path fill="#79cdcd" stroke="#79cdcd" d="M1124.5,-1455.87C1124.5,-1455.87 1012.5,-1455.87 1012.5,-1455.87 1006.5,-1455.87 1000.5,-1449.87 1000.5,-1443.87 1000.5,-1443.87 1000.5,-1431.87 1000.5,-1431.87 1000.5,-1425.87 1006.5,-1419.87 1012.5,-1419.87 1012.5,-1419.87 1124.5,-1419.87 1124.5,-1419.87 1130.5,-1419.87 1136.5,-1425.87 1136.5,-1431.87 1136.5,-1431.87 1136.5,-1443.87 1136.5,-1443.87 1136.5,-1449.87 1130.5,-1455.87 1124.5,-1455.87"/>
<text text-anchor="middle" x="1068.5" y="-1434.17" font-family="Helvetica,sans-Serif" font-size="14.00">crypto&#45;driver&#45;fake.ts</text>
</g>
<!-- src/crypto/crypto&#45;driver&#45;fake.ts&#45;&gt;src/crypto/base32.ts -->
<g id="edge11" class="edge">
<title>src/crypto/crypto&#45;driver&#45;fake.ts&#45;&gt;src/crypto/base32.ts</title>
<path fill="none" stroke="#528b8b" stroke-width="2" d="M1136.67,-1450.12C1168.85,-1456.03 1207.94,-1463.25 1243,-1469.87 1265.11,-1474.04 1289.62,-1478.76 1310.23,-1482.75"/>
<polygon fill="#528b8b" stroke="#528b8b" stroke-width="2" points="1309.82,-1486.24 1320.31,-1484.71 1311.16,-1479.37 1309.82,-1486.24"/>
</g>
<!-- src/crypto/crypto&#45;driver&#45;fake.ts&#45;&gt;src/crypto/crypto&#45;types.ts -->
<g id="edge10" class="edge">
<title>src/crypto/crypto&#45;driver&#45;fake.ts&#45;&gt;src/crypto/crypto&#45;types.ts</title>
<path fill="none" stroke="#528b8b" stroke-width="2" d="M1136.54,-1438.73C1243.17,-1440.1 1449.84,-1442.76 1552.73,-1444.08"/>
<polygon fill="#528b8b" stroke="#528b8b" stroke-width="2" points="1552.91,-1447.58 1562.96,-1444.21 1553,-1440.58 1552.91,-1447.58"/>
</g>
<!-- src/crypto/crypto&#45;driver&#45;noble.ts -->
<g id="node9" class="node">
<title>src/crypto/crypto&#45;driver&#45;noble.ts</title>
<path fill="#79cdcd" stroke="#79cdcd" d="M1417.5,-1415.87C1417.5,-1415.87 1298.5,-1415.87 1298.5,-1415.87 1292.5,-1415.87 1286.5,-1409.87 1286.5,-1403.87 1286.5,-1403.87 1286.5,-1391.87 1286.5,-1391.87 1286.5,-1385.87 1292.5,-1379.87 1298.5,-1379.87 1298.5,-1379.87 1417.5,-1379.87 1417.5,-1379.87 1423.5,-1379.87 1429.5,-1385.87 1429.5,-1391.87 1429.5,-1391.87 1429.5,-1403.87 1429.5,-1403.87 1429.5,-1409.87 1423.5,-1415.87 1417.5,-1415.87"/>
<text text-anchor="middle" x="1358" y="-1394.17" font-family="Helvetica,sans-Serif" font-size="14.00">crypto&#45;driver&#45;noble.ts</text>
</g>
<!-- src/crypto/crypto&#45;driver&#45;noble.ts&#45;&gt;deps.ts -->
<g id="edge13" class="edge">
<title>src/crypto/crypto&#45;driver&#45;noble.ts&#45;&gt;deps.ts</title>
<path fill="none" stroke="#528b8b" stroke-width="2" d="M1290.01,-1379.87C1286,-1377.26 1282.27,-1374.28 1279,-1370.87 1240.46,-1330.68 1270.5,-1299.29 1243,-1250.87 1129.59,-1051.19 1016.89,-1063.86 894,-869.87 839.09,-783.19 801.13,-666.13 785.71,-613.51"/>
<polygon fill="#528b8b" stroke="#528b8b" stroke-width="2" points="789.06,-612.5 782.92,-603.87 782.33,-614.45 789.06,-612.5"/>
</g>
<!-- src/crypto/crypto&#45;driver&#45;noble.ts&#45;&gt;src/crypto/crypto&#45;types.ts -->
<g id="edge12" class="edge">
<title>src/crypto/crypto&#45;driver&#45;noble.ts&#45;&gt;src/crypto/crypto&#45;types.ts</title>
<path fill="none" stroke="#528b8b" stroke-width="2" d="M1429.69,-1410.9C1468.23,-1418 1515.46,-1426.7 1552.46,-1433.53"/>
<polygon fill="#528b8b" stroke="#528b8b" stroke-width="2" points="1552.14,-1437.03 1562.61,-1435.4 1553.41,-1430.14 1552.14,-1437.03"/>
</g>
<!-- src/crypto/crypto.ts&#45;&gt;src/core&#45;validators/addresses.ts -->
<g id="edge17" class="edge">
<title>src/crypto/crypto.ts&#45;&gt;src/core&#45;validators/addresses.ts</title>
<path fill="none" stroke="#528b8b" stroke-width="2" d="M805.84,-1511.12C828.61,-1525.13 862.12,-1543.74 894,-1553.87 1036.15,-1599.02 1213.1,-1610.78 1301.42,-1613.82"/>
<polygon fill="#528b8b" stroke="#528b8b" stroke-width="2" points="1301.38,-1617.32 1311.49,-1614.14 1301.6,-1610.33 1301.38,-1617.32"/>
</g>
<!-- src/crypto/crypto.ts&#45;&gt;src/crypto/base32.ts -->
<g id="edge15" class="edge">
<title>src/crypto/crypto.ts&#45;&gt;src/crypto/base32.ts</title>
<path fill="none" stroke="#528b8b" stroke-width="2" d="M811.22,-1489.97C834.4,-1488.09 866.06,-1485.83 894,-1484.87 1049.02,-1479.53 1087.96,-1480.11 1243,-1484.87 1265.13,-1485.55 1289.63,-1486.96 1310.24,-1488.35"/>
<polygon fill="#528b8b" stroke="#528b8b" stroke-width="2" points="1310.1,-1491.85 1320.32,-1489.04 1310.58,-1484.86 1310.1,-1491.85"/>
</g>
<!-- src/crypto/crypto.ts&#45;&gt;src/crypto/crypto&#45;types.ts -->
<g id="edge14" class="edge">
<title>src/crypto/crypto.ts&#45;&gt;src/crypto/crypto&#45;types.ts</title>
<path fill="none" stroke="#528b8b" stroke-width="2" d="M811.49,-1510.07C834.13,-1520.7 865.06,-1533.34 894,-1538.87 953.27,-1550.19 1378.49,-1544.62 1437,-1529.87 1488.13,-1516.97 1542.09,-1488.63 1576.79,-1468.21"/>
<polygon fill="#528b8b" stroke="#528b8b" stroke-width="2" points="1578.83,-1471.08 1585.62,-1462.95 1575.24,-1465.07 1578.83,-1471.08"/>
</g>
<!-- src/crypto/global&#45;crypto&#45;driver.ts -->
<g id="node12" class="node">
<title>src/crypto/global&#45;crypto&#45;driver.ts</title>
<path fill="#79cdcd" stroke="#79cdcd" d="M1129.5,-1401.87C1129.5,-1401.87 1007.5,-1401.87 1007.5,-1401.87 1001.5,-1401.87 995.5,-1395.87 995.5,-1389.87 995.5,-1389.87 995.5,-1377.87 995.5,-1377.87 995.5,-1371.87 1001.5,-1365.87 1007.5,-1365.87 1007.5,-1365.87 1129.5,-1365.87 1129.5,-1365.87 1135.5,-1365.87 1141.5,-1371.87 1141.5,-1377.87 1141.5,-1377.87 1141.5,-1389.87 1141.5,-1389.87 1141.5,-1395.87 1135.5,-1401.87 1129.5,-1401.87"/>
<text text-anchor="middle" x="1068.5" y="-1380.17" font-family="Helvetica,sans-Serif" font-size="14.00">global&#45;crypto&#45;driver.ts</text>
</g>
<!-- src/crypto/crypto.ts&#45;&gt;src/crypto/global&#45;crypto&#45;driver.ts -->
<g id="edge18" class="edge">
<title>src/crypto/crypto.ts&#45;&gt;src/crypto/global&#45;crypto&#45;driver.ts</title>
<path fill="none" stroke="#528b8b" stroke-width="2" d="M797.65,-1474.59C819.45,-1455.43 856.51,-1426.05 894,-1410.87 922.56,-1399.3 955.62,-1392.66 985.16,-1388.85"/>
<polygon fill="#528b8b" stroke="#528b8b" stroke-width="2" points="985.94,-1392.29 995.46,-1387.62 985.11,-1385.34 985.94,-1392.29"/>
</g>
<!-- src/crypto/keypair.ts -->
<g id="node13" class="node">
<title>src/crypto/keypair.ts</title>
<path fill="#79cdcd" stroke="#79cdcd" d="M1093.5,-1529.87C1093.5,-1529.87 1043.5,-1529.87 1043.5,-1529.87 1037.5,-1529.87 1031.5,-1523.87 1031.5,-1517.87 1031.5,-1517.87 1031.5,-1505.87 1031.5,-1505.87 1031.5,-1499.87 1037.5,-1493.87 1043.5,-1493.87 1043.5,-1493.87 1093.5,-1493.87 1093.5,-1493.87 1099.5,-1493.87 1105.5,-1499.87 1105.5,-1505.87 1105.5,-1505.87 1105.5,-1517.87 1105.5,-1517.87 1105.5,-1523.87 1099.5,-1529.87 1093.5,-1529.87"/>
<text text-anchor="middle" x="1068.5" y="-1508.17" font-family="Helvetica,sans-Serif" font-size="14.00">keypair.ts</text>
</g>
<!-- src/crypto/crypto.ts&#45;&gt;src/crypto/keypair.ts -->
<g id="edge16" class="edge">
<title>src/crypto/crypto.ts&#45;&gt;src/crypto/keypair.ts</title>
<path fill="none" stroke="#528b8b" stroke-width="2" d="M811.21,-1495.05C862.77,-1498.43 962.24,-1504.96 1020.94,-1508.81"/>
<polygon fill="#528b8b" stroke="#528b8b" stroke-width="2" points="1020.85,-1512.31 1031.05,-1509.48 1021.31,-1505.33 1020.85,-1512.31"/>
</g>
<!-- src/crypto/global&#45;crypto&#45;driver.ts&#45;&gt;src/crypto/crypto&#45;driver&#45;noble.ts -->
<g id="edge19" class="edge">
<title>src/crypto/global&#45;crypto&#45;driver.ts&#45;&gt;src/crypto/crypto&#45;driver&#45;noble.ts</title>
<path fill="none" stroke="#528b8b" stroke-width="2" d="M1141.68,-1387.38C1182.55,-1389.37 1233.79,-1391.87 1276.03,-1393.92"/>
<polygon fill="#528b8b" stroke="#528b8b" stroke-width="2" points="1276.13,-1397.43 1286.29,-1394.42 1276.47,-1390.44 1276.13,-1397.43"/>
</g>
<!-- src/crypto/global&#45;crypto&#45;driver.ts&#45;&gt;src/crypto/crypto&#45;types.ts -->
<g id="edge20" class="edge">
<title>src/crypto/global&#45;crypto&#45;driver.ts&#45;&gt;src/crypto/crypto&#45;types.ts</title>
<path fill="none" stroke="#528b8b" stroke-width="2" d="M1141.56,-1391.53C1173.03,-1395.78 1210.18,-1402.04 1243,-1410.87 1259.58,-1415.32 1262.23,-1421.2 1279,-1424.87 1329.42,-1435.89 1470.51,-1441.24 1552.61,-1443.48"/>
<polygon fill="#528b8b" stroke="#528b8b" stroke-width="2" points="1552.72,-1446.99 1562.81,-1443.75 1552.91,-1439.99 1552.72,-1446.99"/>
</g>
<!-- src/crypto/keypair.ts&#45;&gt;src/core&#45;validators/addresses.ts -->
<g id="edge23" class="edge">
<title>src/crypto/keypair.ts&#45;&gt;src/core&#45;validators/addresses.ts</title>
<path fill="none" stroke="#528b8b" stroke-width="2" d="M1105.62,-1524.81C1154.95,-1542.48 1243.84,-1574.33 1301.62,-1595.03"/>
<polygon fill="#528b8b" stroke="#528b8b" stroke-width="2" points="1300.72,-1598.42 1311.32,-1598.5 1303.08,-1591.83 1300.72,-1598.42"/>
</g>
<!-- src/crypto/keypair.ts&#45;&gt;src/crypto/base32.ts -->
<g id="edge21" class="edge">
<title>src/crypto/keypair.ts&#45;&gt;src/crypto/base32.ts</title>
<path fill="none" stroke="#528b8b" stroke-width="2" d="M1105.62,-1509.35C1157.44,-1505.75 1252.93,-1499.11 1310.13,-1495.13"/>
<polygon fill="#528b8b" stroke="#528b8b" stroke-width="2" points="1310.61,-1498.6 1320.35,-1494.42 1310.13,-1491.62 1310.61,-1498.6"/>
</g>
<!-- src/crypto/keypair.ts&#45;&gt;src/crypto/crypto&#45;types.ts -->
<g id="edge22" class="edge">
<title>src/crypto/keypair.ts&#45;&gt;src/crypto/crypto&#45;types.ts</title>
<path fill="none" stroke="#528b8b" stroke-width="2" d="M1105.69,-1517.67C1172.13,-1527.19 1317.65,-1542.81 1437,-1518.87 1485.71,-1509.09 1537.75,-1485.59 1572.7,-1467.67"/>
<polygon fill="#528b8b" stroke="#528b8b" stroke-width="2" points="1574.4,-1470.73 1581.65,-1463.01 1571.16,-1464.52 1574.4,-1470.73"/>
</g>
<!-- src/format&#45;validators/format&#45;validator&#45;es4.ts&#45;&gt;src/core&#45;validators/addresses.ts -->
<g id="edge35" class="edge">
<title>src/format&#45;validators/format&#45;validator&#45;es4.ts&#45;&gt;src/core&#45;validators/addresses.ts</title>
<path fill="none" stroke="#528b8b" stroke-width="2" d="M647.92,-1632.93C663.5,-1636.63 680.25,-1639.98 696,-1641.87 918.83,-1668.58 1186.59,-1638.78 1300.88,-1623.18"/>
<polygon fill="#528b8b" stroke="#528b8b" stroke-width="2" points="1301.7,-1626.6 1311.12,-1621.76 1300.74,-1619.67 1301.7,-1626.6"/>
</g>
<!-- src/format&#45;validators/format&#45;validator&#45;es4.ts&#45;&gt;src/core&#45;validators/characters.ts -->
<g id="edge33" class="edge">
<title>src/format&#45;validators/format&#45;validator&#45;es4.ts&#45;&gt;src/core&#45;validators/characters.ts</title>
<path fill="none" stroke="#528b8b" stroke-width="2" d="M615.91,-1633.07C637.56,-1644.88 667.6,-1659.41 696,-1666.87 1014.77,-1750.6 1108.36,-1720.79 1437,-1695.87 1477.62,-1692.79 1523.04,-1685.78 1557.7,-1679.68"/>
<polygon fill="#528b8b" stroke="#528b8b" stroke-width="2" points="1558.41,-1683.11 1567.64,-1677.91 1557.18,-1676.22 1558.41,-1683.11"/>
</g>
<!-- src/format&#45;validators/format&#45;validator&#45;es4.ts&#45;&gt;src/core&#45;validators/checkers.ts -->
<g id="edge34" class="edge">
<title>src/format&#45;validators/format&#45;validator&#45;es4.ts&#45;&gt;src/core&#45;validators/checkers.ts</title>
<path fill="none" stroke="#528b8b" stroke-width="2" d="M629.05,-1632.89C649.11,-1640.23 673.39,-1647.9 696,-1651.87 919.95,-1691.17 1193.04,-1679.83 1305.17,-1672.69"/>
<polygon fill="#528b8b" stroke="#528b8b" stroke-width="2" points="1305.45,-1676.18 1315.2,-1672.03 1304.99,-1669.19 1305.45,-1676.18"/>
</g>
<!-- src/format&#45;validators/format&#45;validator&#45;es4.ts&#45;&gt;src/crypto/crypto.ts -->
<g id="edge32" class="edge">
<title>src/format&#45;validators/format&#45;validator&#45;es4.ts&#45;&gt;src/crypto/crypto.ts</title>
<path fill="none" stroke="#528b8b" stroke-width="2" d="M660.32,-1596.72C662.95,-1595.52 665.52,-1594.23 668,-1592.87 702.45,-1573.91 734.5,-1541.62 754.59,-1518.87"/>
<polygon fill="#528b8b" stroke="#528b8b" stroke-width="2" points="757.28,-1521.11 761.18,-1511.26 751.99,-1516.53 757.28,-1521.11"/>
</g>
<!-- src/format&#45;validators/format&#45;validator&#45;types.ts -->
<g id="node15" class="node">
<title>src/format&#45;validators/format&#45;validator&#45;types.ts</title>
<path fill="#79cdcd" stroke="#79cdcd" d="M846,-1632.87C846,-1632.87 708,-1632.87 708,-1632.87 702,-1632.87 696,-1626.87 696,-1620.87 696,-1620.87 696,-1608.87 696,-1608.87 696,-1602.87 702,-1596.87 708,-1596.87 708,-1596.87 846,-1596.87 846,-1596.87 852,-1596.87 858,-1602.87 858,-1608.87 858,-1608.87 858,-1620.87 858,-1620.87 858,-1626.87 852,-1632.87 846,-1632.87"/>
<text text-anchor="middle" x="777" y="-1611.17" font-family="Helvetica,sans-Serif" font-size="14.00">format&#45;validator&#45;types.ts</text>
</g>
<!-- src/format&#45;validators/format&#45;validator&#45;es4.ts&#45;&gt;src/format&#45;validators/format&#45;validator&#45;types.ts -->
<g id="edge31" class="edge">
<title>src/format&#45;validators/format&#45;validator&#45;es4.ts&#45;&gt;src/format&#45;validators/format&#45;validator&#45;types.ts</title>
<path fill="none" stroke="#528b8b" stroke-width="2" d="M660.21,-1614.87C668.62,-1614.87 677.24,-1614.87 685.81,-1614.87"/>
<polygon fill="#528b8b" stroke="#528b8b" stroke-width="2" points="685.82,-1618.37 695.82,-1614.87 685.82,-1611.37 685.82,-1618.37"/>
</g>
<!-- src/node/chloride.d.ts -->
<g id="node16" class="node">
<title>src/node/chloride.d.ts</title>
<path fill="#79cdcd" stroke="#79cdcd" d="M400.5,-883.87C400.5,-883.87 335.5,-883.87 335.5,-883.87 329.5,-883.87 323.5,-877.87 323.5,-871.87 323.5,-871.87 323.5,-859.87 323.5,-859.87 323.5,-853.87 329.5,-847.87 335.5,-847.87 335.5,-847.87 400.5,-847.87 400.5,-847.87 406.5,-847.87 412.5,-853.87 412.5,-859.87 412.5,-859.87 412.5,-871.87 412.5,-871.87 412.5,-877.87 406.5,-883.87 400.5,-883.87"/>
<text text-anchor="middle" x="368" y="-862.17" font-family="Helvetica,sans-Serif" font-size="14.00">chloride.d.ts</text>
</g>
<!-- src/node/chloride.d.ts&#45;&gt;https://deno.land/std@0.119.0/node/buffer.ts -->
<g id="edge96" class="edge">
<title>src/node/chloride.d.ts&#45;&gt;https://deno.land/std@0.119.0/node/buffer.ts</title>
<path fill="none" stroke="#8b8878" stroke-width="1.5" stroke-dasharray="5,2" d="M368.9,-847.82C369.26,-723.75 388.01,-1.87 776,-1.87 776,-1.87 776,-1.87 1069.5,-1.87 1147.07,-1.87 1170.08,5.6 1243,-20.87 1386.45,-72.94 1529.07,-191.38 1587,-243.02"/>
<polygon fill="#8b8878" stroke="#8b8878" stroke-width="1.5" points="1584.82,-245.77 1594.6,-249.85 1589.5,-240.56 1584.82,-245.77"/>
</g>
<!-- src/node/chloride.ts&#45;&gt;src/node/chloride.d.ts -->
<g id="edge36" class="edge">
<title>src/node/chloride.ts&#45;&gt;src/node/chloride.d.ts</title>
<path fill="none" stroke="#528b8b" stroke-width="2" d="M169.18,-865.87C208.19,-865.87 269.11,-865.87 313.04,-865.87"/>
<polygon fill="#528b8b" stroke="#528b8b" stroke-width="2" points="313.26,-869.37 323.26,-865.87 313.26,-862.37 313.26,-869.37"/>
</g>
<!-- src/peer/peer&#45;client.ts -->
<g id="node18" class="node">
<title>src/peer/peer&#45;client.ts</title>
<path fill="#79cdcd" stroke="#79cdcd" d="M403,-1444.87C403,-1444.87 333,-1444.87 333,-1444.87 327,-1444.87 321,-1438.87 321,-1432.87 321,-1432.87 321,-1420.87 321,-1420.87 321,-1414.87 327,-1408.87 333,-1408.87 333,-1408.87 403,-1408.87 403,-1408.87 409,-1408.87 415,-1414.87 415,-1420.87 415,-1420.87 415,-1432.87 415,-1432.87 415,-1438.87 409,-1444.87 403,-1444.87"/>
<text text-anchor="middle" x="368" y="-1423.17" font-family="Helvetica,sans-Serif" font-size="14.00">peer&#45;client.ts</text>
</g>
<!-- src/peer/peer&#45;types.ts -->
<g id="node20" class="node">
<title>src/peer/peer&#45;types.ts</title>
<path fill="#79cdcd" stroke="#79cdcd" d="M619.5,-1418.87C619.5,-1418.87 548.5,-1418.87 548.5,-1418.87 542.5,-1418.87 536.5,-1412.87 536.5,-1406.87 536.5,-1406.87 536.5,-1394.87 536.5,-1394.87 536.5,-1388.87 542.5,-1382.87 548.5,-1382.87 548.5,-1382.87 619.5,-1382.87 619.5,-1382.87 625.5,-1382.87 631.5,-1388.87 631.5,-1394.87 631.5,-1394.87 631.5,-1406.87 631.5,-1406.87 631.5,-1412.87 625.5,-1418.87 619.5,-1418.87"/>
<text text-anchor="middle" x="584" y="-1397.17" font-family="Helvetica,sans-Serif" font-size="14.00">peer&#45;types.ts</text>
</g>
<!-- src/peer/peer&#45;client.ts&#45;&gt;src/peer/peer&#45;types.ts -->
<g id="edge38" class="edge">
<title>src/peer/peer&#45;client.ts&#45;&gt;src/peer/peer&#45;types.ts</title>
<path fill="none" stroke="#528b8b" stroke-width="2" d="M415.17,-1421.26C447.71,-1417.3 491.5,-1411.98 526.19,-1407.77"/>
<polygon fill="#528b8b" stroke="#528b8b" stroke-width="2" points="526.67,-1411.24 536.17,-1406.56 525.82,-1404.29 526.67,-1411.24"/>
</g>
<!-- src/storage/compare.ts -->
<g id="node26" class="node">
<title>src/storage/compare.ts</title>
<path fill="#79cdcd" stroke="#79cdcd" d="M614,-1258.87C614,-1258.87 554,-1258.87 554,-1258.87 548,-1258.87 542,-1252.87 542,-1246.87 542,-1246.87 542,-1234.87 542,-1234.87 542,-1228.87 548,-1222.87 554,-1222.87 554,-1222.87 614,-1222.87 614,-1222.87 620,-1222.87 626,-1228.87 626,-1234.87 626,-1234.87 626,-1246.87 626,-1246.87 626,-1252.87 620,-1258.87 614,-1258.87"/>
<text text-anchor="middle" x="584" y="-1237.17" font-family="Helvetica,sans-Serif" font-size="14.00">compare.ts</text>
</g>
<!-- src/peer/peer&#45;client.ts&#45;&gt;src/storage/compare.ts -->
<g id="edge39" class="edge">
<title>src/peer/peer&#45;client.ts&#45;&gt;src/storage/compare.ts</title>
<path fill="none" stroke="#528b8b" stroke-width="2" d="M415.15,-1423.24C434.44,-1419.72 456.04,-1412.91 472,-1399.87 493.85,-1382 484.77,-1366.63 500,-1342.87 517.65,-1315.33 541.53,-1286.67 559.15,-1266.77"/>
<polygon fill="#528b8b" stroke="#528b8b" stroke-width="2" points="561.98,-1268.85 566.05,-1259.07 556.77,-1264.18 561.98,-1268.85"/>
</g>
<!-- src/peer/peer&#45;client.ts&#45;&gt;src/storage/storage&#45;types.ts -->
<g id="edge37" class="edge">
<title>src/peer/peer&#45;client.ts&#45;&gt;src/storage/storage&#45;types.ts</title>
<path fill="none" stroke="#528b8b" stroke-width="2" d="M415.13,-1425.75C435.37,-1422.8 457.73,-1415.75 472,-1399.87 527.87,-1337.68 445.96,-1277.65 500,-1213.87 504.92,-1208.06 511.09,-1203.5 517.85,-1199.91"/>
<polygon fill="#528b8b" stroke="#528b8b" stroke-width="2" points="519.7,-1202.91 527.36,-1195.59 516.81,-1196.54 519.7,-1202.91"/>
</g>
<!-- src/peer/peer&#45;server.ts -->
<g id="node19" class="node">
<title>src/peer/peer&#45;server.ts</title>
<path fill="#79cdcd" stroke="#79cdcd" d="M406,-1498.87C406,-1498.87 330,-1498.87 330,-1498.87 324,-1498.87 318,-1492.87 318,-1486.87 318,-1486.87 318,-1474.87 318,-1474.87 318,-1468.87 324,-1462.87 330,-1462.87 330,-1462.87 406,-1462.87 406,-1462.87 412,-1462.87 418,-1468.87 418,-1474.87 418,-1474.87 418,-1486.87 418,-1486.87 418,-1492.87 412,-1498.87 406,-1498.87"/>
<text text-anchor="middle" x="368" y="-1477.17" font-family="Helvetica,sans-Serif" font-size="14.00">peer&#45;server.ts</text>
</g>
<!-- src/peer/peer&#45;server.ts&#45;&gt;src/peer/peer&#45;types.ts -->
<g id="edge40" class="edge">
<title>src/peer/peer&#45;server.ts&#45;&gt;src/peer/peer&#45;types.ts</title>
<path fill="none" stroke="#528b8b" stroke-width="2" d="M418.22,-1474C436.07,-1470 455.81,-1463.71 472,-1453.87 487.86,-1444.22 484.15,-1432.53 500,-1422.87 508.12,-1417.91 517.36,-1414.06 526.64,-1411.07"/>
<polygon fill="#528b8b" stroke="#528b8b" stroke-width="2" points="527.67,-1414.42 536.29,-1408.26 525.71,-1407.7 527.67,-1414.42"/>
</g>
<!-- src/peer/peer&#45;types.ts&#45;&gt;src/crypto/crypto.ts -->
<g id="edge43" class="edge">
<title>src/peer/peer&#45;types.ts&#45;&gt;src/crypto/crypto.ts</title>
<path fill="none" stroke="#528b8b" stroke-width="2" d="M631.55,-1410.45C643.68,-1413.68 656.55,-1417.79 668,-1422.87 695.47,-1435.04 723.88,-1453.74 744.66,-1468.75"/>
<polygon fill="#528b8b" stroke="#528b8b" stroke-width="2" points="742.67,-1471.62 752.8,-1474.72 746.81,-1465.98 742.67,-1471.62"/>
</g>
<!-- src/query/query&#45;types.ts -->
<g id="node24" class="node">
<title>src/query/query&#45;types.ts</title>
<path fill="#79cdcd" stroke="#79cdcd" d="M815.5,-1049.87C815.5,-1049.87 738.5,-1049.87 738.5,-1049.87 732.5,-1049.87 726.5,-1043.87 726.5,-1037.87 726.5,-1037.87 726.5,-1025.87 726.5,-1025.87 726.5,-1019.87 732.5,-1013.87 738.5,-1013.87 738.5,-1013.87 815.5,-1013.87 815.5,-1013.87 821.5,-1013.87 827.5,-1019.87 827.5,-1025.87 827.5,-1025.87 827.5,-1037.87 827.5,-1037.87 827.5,-1043.87 821.5,-1049.87 815.5,-1049.87"/>
<text text-anchor="middle" x="777" y="-1028.17" font-family="Helvetica,sans-Serif" font-size="14.00">query&#45;types.ts</text>
</g>
<!-- src/peer/peer&#45;types.ts&#45;&gt;src/query/query&#45;types.ts -->
<g id="edge42" class="edge">
<title>src/peer/peer&#45;types.ts&#45;&gt;src/query/query&#45;types.ts</title>
<path fill="none" stroke="#528b8b" stroke-width="2" d="M609.23,-1382.63C628.49,-1366.71 654.37,-1341.82 668,-1313.87 705.61,-1236.75 659.97,-1200.73 696,-1122.87 707.72,-1097.54 728.78,-1074.02 746.35,-1057.24"/>
<polygon fill="#528b8b" stroke="#528b8b" stroke-width="2" points="749.18,-1059.39 754.13,-1050.02 744.42,-1054.26 749.18,-1059.39"/>
</g>
<!-- src/peer/peer&#45;types.ts&#45;&gt;src/storage/storage&#45;types.ts -->
<g id="edge41" class="edge">
<title>src/peer/peer&#45;types.ts&#45;&gt;src/storage/storage&#45;types.ts</title>
<path fill="none" stroke="#528b8b" stroke-width="2" d="M540.18,-1382.75C519.8,-1371.83 497.54,-1355.74 486,-1333.87 474.49,-1312.05 474.18,-1244.52 486,-1222.87 492.78,-1210.45 504.54,-1202.26 517.6,-1196.87"/>
<polygon fill="#528b8b" stroke="#528b8b" stroke-width="2" points="519.05,-1200.07 527.3,-1193.42 516.7,-1193.47 519.05,-1200.07"/>
</g>
<!-- src/peer/peer.ts&#45;&gt;deps.ts -->
<g id="edge44" class="edge">
<title>src/peer/peer.ts&#45;&gt;deps.ts</title>
<path fill="none" stroke="#528b8b" stroke-width="2" d="M397.46,-1364.87C421.72,-1356.43 455.23,-1340.57 472,-1313.87 518.79,-1239.34 440.22,-983.44 500,-918.87 551.29,-863.47 609.81,-941.96 668,-893.87 754.94,-822.02 771.98,-675.69 775.25,-614.15"/>
<polygon fill="#528b8b" stroke="#528b8b" stroke-width="2" points="778.75,-614.16 775.71,-604.01 771.76,-613.85 778.75,-614.16"/>
</g>
<!-- src/peer/peer.ts&#45;&gt;src/peer/peer&#45;types.ts -->
<g id="edge46" class="edge">
<title>src/peer/peer.ts&#45;&gt;src/peer/peer&#45;types.ts</title>
<path fill="none" stroke="#528b8b" stroke-width="2" d="M397.42,-1376.59C430.19,-1380.87 484.88,-1388.03 526.42,-1393.46"/>
<polygon fill="#528b8b" stroke="#528b8b" stroke-width="2" points="526.04,-1396.94 536.41,-1394.77 526.95,-1390 526.04,-1396.94"/>
</g>
<!-- src/peer/peer.ts&#45;&gt;src/storage/storage&#45;types.ts -->
<g id="edge45" class="edge">
<title>src/peer/peer.ts&#45;&gt;src/storage/storage&#45;types.ts</title>
<path fill="none" stroke="#528b8b" stroke-width="2" d="M397.42,-1374.69C420.65,-1374.55 452.69,-1370.35 472,-1350.87 515.75,-1306.73 458.6,-1260.22 500,-1213.87 505,-1208.27 511.16,-1203.83 517.86,-1200.31"/>
<polygon fill="#528b8b" stroke="#528b8b" stroke-width="2" points="519.6,-1203.36 527.27,-1196.05 516.71,-1196.99 519.6,-1203.36"/>
</g>
<!-- src/query&#45;follower/query&#45;follower&#45;types.ts -->
<g id="node22" class="node">
<title>src/query&#45;follower/query&#45;follower&#45;types.ts</title>
<path fill="#79cdcd" stroke="#79cdcd" d="M648,-966.87C648,-966.87 520,-966.87 520,-966.87 514,-966.87 508,-960.87 508,-954.87 508,-954.87 508,-942.87 508,-942.87 508,-936.87 514,-930.87 520,-930.87 520,-930.87 648,-930.87 648,-930.87 654,-930.87 660,-936.87 660,-942.87 660,-942.87 660,-954.87 660,-954.87 660,-960.87 654,-966.87 648,-966.87"/>
<text text-anchor="middle" x="584" y="-945.17" font-family="Helvetica,sans-Serif" font-size="14.00">query&#45;follower&#45;types.ts</text>
</g>
<!-- src/query&#45;follower/query&#45;follower&#45;types.ts&#45;&gt;deps.ts -->
<g id="edge47" class="edge">
<title>src/query&#45;follower/query&#45;follower&#45;types.ts&#45;&gt;deps.ts</title>
<path fill="none" stroke="#528b8b" stroke-width="2" d="M660.32,-933C663.05,-931.17 665.63,-929.13 668,-926.87 758.28,-840.78 773.38,-679.83 775.69,-614.51"/>
<polygon fill="#528b8b" stroke="#528b8b" stroke-width="2" points="779.2,-614.26 775.98,-604.17 772.2,-614.07 779.2,-614.26"/>
</g>
<!-- src/query&#45;follower/query&#45;follower&#45;types.ts&#45;&gt;src/query/query&#45;types.ts -->
<g id="edge48" class="edge">
<title>src/query&#45;follower/query&#45;follower&#45;types.ts&#45;&gt;src/query/query&#45;types.ts</title>
<path fill="none" stroke="#528b8b" stroke-width="2" d="M633.74,-966.92C645.34,-972.04 657.41,-978.1 668,-984.87 682.05,-993.86 681.35,-1001.89 696,-1009.87 702.44,-1013.37 709.47,-1016.35 716.62,-1018.88"/>
<polygon fill="#528b8b" stroke="#528b8b" stroke-width="2" points="715.79,-1022.29 726.38,-1022.05 717.95,-1015.63 715.79,-1022.29"/>
</g>
<!-- src/query&#45;follower/query&#45;follower&#45;types.ts&#45;&gt;src/storage/storage&#45;types.ts -->
<g id="edge49" class="edge">
<title>src/query&#45;follower/query&#45;follower&#45;types.ts&#45;&gt;src/storage/storage&#45;types.ts</title>
<path fill="none" stroke="#528b8b" stroke-width="2" d="M535.86,-967C516.73,-976.86 496.76,-991.16 486,-1010.87 471.62,-1037.2 471.62,-1119.54 486,-1145.87 492.97,-1158.63 504.93,-1167.41 518.16,-1173.47"/>
<polygon fill="#528b8b" stroke="#528b8b" stroke-width="2" points="516.89,-1176.73 527.47,-1177.24 519.51,-1170.24 516.89,-1176.73"/>
</g>
<!-- src/query&#45;follower/query&#45;follower.ts&#45;&gt;deps.ts -->
<g id="edge50" class="edge">
<title>src/query&#45;follower/query&#45;follower.ts&#45;&gt;deps.ts</title>
<path fill="none" stroke="#528b8b" stroke-width="2" d="M426.21,-940.94C442.34,-936.52 459.02,-929.62 472,-918.87 493.13,-901.37 478.3,-880.65 500,-863.87 560.48,-817.09 608.7,-875.13 668,-826.87 735.89,-771.61 762.59,-664.73 771.77,-613.96"/>
<polygon fill="#528b8b" stroke="#528b8b" stroke-width="2" points="775.24,-614.46 773.48,-604.02 768.34,-613.28 775.24,-614.46"/>
</g>
<!-- src/query&#45;follower/query&#45;follower.ts&#45;&gt;src/query&#45;follower/query&#45;follower&#45;types.ts -->
<g id="edge55" class="edge">
<title>src/query&#45;follower/query&#45;follower.ts&#45;&gt;src/query&#45;follower/query&#45;follower&#45;types.ts</title>
<path fill="none" stroke="#528b8b" stroke-width="2" d="M426.07,-948.87C448.06,-948.87 473.68,-948.87 497.77,-948.87"/>
<polygon fill="#528b8b" stroke="#528b8b" stroke-width="2" points="497.98,-952.37 507.98,-948.87 497.98,-945.37 497.98,-952.37"/>
</g>
<!-- src/query&#45;follower/query&#45;follower.ts&#45;&gt;src/query/query&#45;types.ts -->
<g id="edge52" class="edge">
<title>src/query&#45;follower/query&#45;follower.ts&#45;&gt;src/query/query&#45;types.ts</title>
<path fill="none" stroke="#528b8b" stroke-width="2" d="M426.31,-961.1C449.2,-965.87 475.82,-971.29 500,-975.87 574.45,-989.96 593.86,-989.22 668,-1004.87 683.75,-1008.19 700.67,-1012.21 716.35,-1016.12"/>
<polygon fill="#528b8b" stroke="#528b8b" stroke-width="2" points="715.89,-1019.61 726.44,-1018.66 717.6,-1012.82 715.89,-1019.61"/>
</g>
<!-- src/query/query.ts -->
<g id="node25" class="node">
<title>src/query/query.ts</title>
<path fill="#79cdcd" stroke="#79cdcd" d="M604,-1049.87C604,-1049.87 564,-1049.87 564,-1049.87 558,-1049.87 552,-1043.87 552,-1037.87 552,-1037.87 552,-1025.87 552,-1025.87 552,-1019.87 558,-1013.87 564,-1013.87 564,-1013.87 604,-1013.87 604,-1013.87 610,-1013.87 616,-1019.87 616,-1025.87 616,-1025.87 616,-1037.87 616,-1037.87 616,-1043.87 610,-1049.87 604,-1049.87"/>
<text text-anchor="middle" x="584" y="-1028.17" font-family="Helvetica,sans-Serif" font-size="14.00">query.ts</text>
</g>
<!-- src/query&#45;follower/query&#45;follower.ts&#45;&gt;src/query/query.ts -->
<g id="edge54" class="edge">
<title>src/query&#45;follower/query&#45;follower.ts&#45;&gt;src/query/query.ts</title>
<path fill="none" stroke="#528b8b" stroke-width="2" d="M412.5,-966.95C437.92,-977.39 470.67,-990.64 500,-1001.87 513.7,-1007.11 528.77,-1012.63 542.26,-1017.49"/>
<polygon fill="#528b8b" stroke="#528b8b" stroke-width="2" points="541.17,-1020.81 551.76,-1020.89 543.53,-1014.22 541.17,-1020.81"/>
</g>
<!-- src/query&#45;follower/query&#45;follower.ts&#45;&gt;src/storage/storage&#45;types.ts -->
<g id="edge53" class="edge">
<title>src/query&#45;follower/query&#45;follower.ts&#45;&gt;src/storage/storage&#45;types.ts</title>
<path fill="none" stroke="#528b8b" stroke-width="2" d="M385.53,-967.32C410.36,-995.03 458.77,-1049.04 500,-1094.87 520.14,-1117.26 543.08,-1142.67 559.73,-1161.11"/>
<polygon fill="#528b8b" stroke="#528b8b" stroke-width="2" points="557.15,-1163.48 566.45,-1168.55 562.35,-1158.79 557.15,-1163.48"/>
</g>
<!-- src/storage/util&#45;types.ts -->
<g id="node33" class="node">
<title>src/storage/util&#45;types.ts</title>
<path fill="#79cdcd" stroke="#79cdcd" d="M807.5,-1204.87C807.5,-1204.87 746.5,-1204.87 746.5,-1204.87 740.5,-1204.87 734.5,-1198.87 734.5,-1192.87 734.5,-1192.87 734.5,-1180.87 734.5,-1180.87 734.5,-1174.87 740.5,-1168.87 746.5,-1168.87 746.5,-1168.87 807.5,-1168.87 807.5,-1168.87 813.5,-1168.87 819.5,-1174.87 819.5,-1180.87 819.5,-1180.87 819.5,-1192.87 819.5,-1192.87 819.5,-1198.87 813.5,-1204.87 807.5,-1204.87"/>
<text text-anchor="middle" x="777" y="-1183.17" font-family="Helvetica,sans-Serif" font-size="14.00">util&#45;types.ts</text>
</g>
<!-- src/query&#45;follower/query&#45;follower.ts&#45;&gt;src/storage/util&#45;types.ts -->
<g id="edge51" class="edge">
<title>src/query&#45;follower/query&#45;follower.ts&#45;&gt;src/storage/util&#45;types.ts</title>
<path fill="none" stroke="#528b8b" stroke-width="2" d="M381.86,-966.88C403.28,-995.66 448.97,-1052.09 500,-1084.87 566.59,-1127.63 593.89,-1116.11 668,-1143.87 686.58,-1150.82 706.81,-1158.78 724.69,-1165.94"/>
<polygon fill="#528b8b" stroke="#528b8b" stroke-width="2" points="723.77,-1169.34 734.36,-1169.82 726.38,-1162.85 723.77,-1169.34"/>
</g>
<!-- src/query/query.ts&#45;&gt;src/query/query&#45;types.ts -->
<g id="edge56" class="edge">
<title>src/query/query.ts&#45;&gt;src/query/query&#45;types.ts</title>
<path fill="none" stroke="#528b8b" stroke-width="2" d="M616.11,-1031.87C643.13,-1031.87 683.01,-1031.87 716.18,-1031.87"/>
<polygon fill="#528b8b" stroke="#528b8b" stroke-width="2" points="716.24,-1035.37 726.24,-1031.87 716.24,-1028.37 716.24,-1035.37"/>
</g>
<!-- src/storage/compare.ts&#45;&gt;src/storage/util&#45;types.ts -->
<g id="edge57" class="edge">
<title>src/storage/compare.ts&#45;&gt;src/storage/util&#45;types.ts</title>
<path fill="none" stroke="#528b8b" stroke-width="2" d="M626.44,-1229.15C655.25,-1221.01 693.85,-1210.09 724.62,-1201.4"/>
<polygon fill="#528b8b" stroke="#528b8b" stroke-width="2" points="725.64,-1204.74 734.31,-1198.65 723.73,-1198.01 725.64,-1204.74"/>
</g>
<!-- src/storage/storage&#45;async.ts&#45;&gt;deps.ts -->
<g id="edge58" class="edge">
<title>src/storage/storage&#45;async.ts&#45;&gt;deps.ts</title>
<path fill="none" stroke="#528b8b" stroke-width="2" d="M426.02,-1258.32C443.23,-1254.63 460.57,-1247.44 472,-1233.87 519.12,-1177.91 451.32,-960.47 500,-905.87 550.7,-849.01 609.97,-921.22 668,-871.87 747.39,-804.36 768.53,-672.17 774.07,-614.22"/>
<polygon fill="#528b8b" stroke="#528b8b" stroke-width="2" points="777.58,-614.25 774.96,-603.98 770.61,-613.64 777.58,-614.25"/>
</g>
<!-- src/storage/storage&#45;async.ts&#45;&gt;src/crypto/crypto.ts -->
<g id="edge64" class="edge">
<title>src/storage/storage&#45;async.ts&#45;&gt;src/crypto/crypto.ts</title>
<path fill="none" stroke="#528b8b" stroke-width="2" d="M419.87,-1278.92C443.95,-1287.02 473.23,-1296.22 500,-1302.87 573.61,-1321.15 604.43,-1291.5 668,-1332.87 717.43,-1365.03 749.93,-1428.57 765.42,-1465.16"/>
<polygon fill="#528b8b" stroke="#528b8b" stroke-width="2" points="762.31,-1466.79 769.34,-1474.71 768.79,-1464.13 762.31,-1466.79"/>
</g>
<!-- src/storage/storage&#45;async.ts&#45;&gt;src/format&#45;validators/format&#45;validator&#45;types.ts -->
<g id="edge62" class="edge">
<title>src/storage/storage&#45;async.ts&#45;&gt;src/format&#45;validators/format&#45;validator&#45;types.ts</title>
<path fill="none" stroke="#528b8b" stroke-width="2" d="M399.64,-1278.87C425.51,-1293.2 463.97,-1312.5 500,-1322.87 536.13,-1333.27 641.46,-1316.24 668,-1342.87 744.43,-1419.55 629.31,-1499.57 696,-1584.87 697.48,-1586.77 699.1,-1588.55 700.83,-1590.21"/>
<polygon fill="#528b8b" stroke="#528b8b" stroke-width="2" points="699.07,-1593.28 709.05,-1596.82 703.45,-1587.83 699.07,-1593.28"/>
</g>
<!-- src/storage/storage&#45;async.ts&#45;&gt;src/query/query&#45;types.ts -->
<g id="edge60" class="edge">
<title>src/storage/storage&#45;async.ts&#45;&gt;src/query/query&#45;types.ts</title>
<path fill="none" stroke="#528b8b" stroke-width="2" d="M426.09,-1255.83C442.5,-1251.93 459.36,-1245.24 472,-1233.87 498.14,-1210.35 474.19,-1183.75 500,-1159.87 557.1,-1107.05 598.23,-1145.23 668,-1110.87 697.44,-1096.37 727.27,-1073.82 748.1,-1056.52"/>
<polygon fill="#528b8b" stroke="#528b8b" stroke-width="2" points="750.51,-1059.06 755.9,-1049.93 746,-1053.71 750.51,-1059.06"/>
</g>
<!-- src/storage/storage&#45;async.ts&#45;&gt;src/query/query.ts -->
<g id="edge65" class="edge">
<title>src/storage/storage&#45;async.ts&#45;&gt;src/query/query.ts</title>
<path fill="none" stroke="#528b8b" stroke-width="2" d="M426.11,-1256.88C442.82,-1253.06 459.83,-1246.15 472,-1233.87 507.81,-1197.72 475.91,-1167.68 500,-1122.87 513.64,-1097.49 535.92,-1073.61 553.96,-1056.69"/>
<polygon fill="#528b8b" stroke="#528b8b" stroke-width="2" points="556.39,-1059.22 561.4,-1049.88 551.66,-1054.06 556.39,-1059.22"/>
</g>
<!-- src/storage/storage&#45;async.ts&#45;&gt;src/storage/compare.ts -->
<g id="edge63" class="edge">
<title>src/storage/storage&#45;async.ts&#45;&gt;src/storage/compare.ts</title>
<path fill="none" stroke="#528b8b" stroke-width="2" d="M426.07,-1255.53C458.91,-1252.46 499.85,-1248.64 531.68,-1245.66"/>
<polygon fill="#528b8b" stroke="#528b8b" stroke-width="2" points="532.04,-1249.15 541.67,-1244.73 531.39,-1242.18 532.04,-1249.15"/>
</g>
<!-- src/storage/storage&#45;async.ts&#45;&gt;src/storage/storage&#45;types.ts -->
<g id="edge61" class="edge">
<title>src/storage/storage&#45;async.ts&#45;&gt;src/storage/storage&#45;types.ts</title>
<path fill="none" stroke="#528b8b" stroke-width="2" d="M426.16,-1249.82C441.45,-1245.81 457.69,-1240.58 472,-1233.87 485.85,-1227.38 486.35,-1220.76 500,-1213.87 505.59,-1211.04 511.54,-1208.43 517.59,-1206.03"/>
<polygon fill="#528b8b" stroke="#528b8b" stroke-width="2" points="519.01,-1209.23 527.14,-1202.43 516.55,-1202.68 519.01,-1209.23"/>
</g>
<!-- src/storage/storage&#45;async.ts&#45;&gt;src/storage/util&#45;types.ts -->
<g id="edge59" class="edge">
<title>src/storage/storage&#45;async.ts&#45;&gt;src/storage/util&#45;types.ts</title>
<path fill="none" stroke="#528b8b" stroke-width="2" d="M426.07,-1273.41C487.53,-1284.38 587.34,-1294.75 668,-1267.87 700.93,-1256.89 731.9,-1231.51 752.16,-1212.06"/>
<polygon fill="#528b8b" stroke="#528b8b" stroke-width="2" points="754.72,-1214.46 759.38,-1204.94 749.8,-1209.47 754.72,-1214.46"/>
</g>
<!-- src/storage/storage&#45;cache.ts -->
<g id="node28" class="node">
<title>src/storage/storage&#45;cache.ts</title>
<path fill="#79cdcd" stroke="#79cdcd" d="M414,-1170.87C414,-1170.87 322,-1170.87 322,-1170.87 316,-1170.87 310,-1164.87 310,-1158.87 310,-1158.87 310,-1146.87 310,-1146.87 310,-1140.87 316,-1134.87 322,-1134.87 322,-1134.87 414,-1134.87 414,-1134.87 420,-1134.87 426,-1140.87 426,-1146.87 426,-1146.87 426,-1158.87 426,-1158.87 426,-1164.87 420,-1170.87 414,-1170.87"/>
<text text-anchor="middle" x="368" y="-1149.17" font-family="Helvetica,sans-Serif" font-size="14.00">storage&#45;cache.ts</text>
</g>
<!-- src/storage/storage&#45;cache.ts&#45;&gt;deps.ts -->
<g id="edge66" class="edge">
<title>src/storage/storage&#45;cache.ts&#45;&gt;deps.ts</title>
<path fill="none" stroke="#528b8b" stroke-width="2" d="M384.73,-1134.65C407.35,-1107.53 448.88,-1054.1 472,-1001.87 493.64,-952.98 461.64,-922.11 500,-884.87 554.72,-831.74 609.37,-898.65 668,-849.87 741.88,-788.4 765.81,-668.42 773.07,-613.96"/>
<polygon fill="#528b8b" stroke="#528b8b" stroke-width="2" points="776.55,-614.33 774.31,-603.98 769.6,-613.47 776.55,-614.33"/>
</g>
<!-- src/storage/storage&#45;cache.ts&#45;&gt;src/crypto/crypto.ts -->
<g id="edge71" class="edge">
<title>src/storage/storage&#45;cache.ts&#45;&gt;src/crypto/crypto.ts</title>
<path fill="none" stroke="#528b8b" stroke-width="2" d="M426.2,-1157.43C442.71,-1161.3 459.6,-1168.09 472,-1179.87 501.76,-1208.13 469.53,-1240.37 500,-1267.87 556.63,-1318.96 606.36,-1257.95 668,-1302.87 724.09,-1343.74 755.17,-1423.21 768.33,-1465.25"/>
<polygon fill="#528b8b" stroke="#528b8b" stroke-width="2" points="764.99,-1466.28 771.23,-1474.84 771.69,-1464.26 764.99,-1466.28"/>
</g>
<!-- src/storage/storage&#45;cache.ts&#45;&gt;src/query&#45;follower/query&#45;follower.ts -->
<g id="edge68" class="edge">
<title>src/storage/storage&#45;cache.ts&#45;&gt;src/query&#45;follower/query&#45;follower.ts</title>
<path fill="none" stroke="#528b8b" stroke-width="2" d="M368,-1134.74C368,-1082.27 368,-1029.8 368,-977.34"/>
<polygon fill="#528b8b" stroke="#528b8b" stroke-width="2" points="371.5,-977.2 368,-967.2 364.5,-977.2 371.5,-977.2"/>
</g>
<!-- src/storage/storage&#45;cache.ts&#45;&gt;src/query/query&#45;types.ts -->
<g id="edge69" class="edge">
<title>src/storage/storage&#45;cache.ts&#45;&gt;src/query/query&#45;types.ts</title>
<path fill="none" stroke="#528b8b" stroke-width="2" d="M415.02,-1134.82C439.97,-1125.33 471.47,-1113.85 500,-1104.87 540.11,-1092.25 648.27,-1064.29 716.67,-1046.87"/>
<polygon fill="#528b8b" stroke="#528b8b" stroke-width="2" points="717.64,-1050.24 726.47,-1044.38 715.91,-1043.45 717.64,-1050.24"/>
</g>
<!-- src/storage/storage&#45;cache.ts&#45;&gt;src/query/query.ts -->
<g id="edge67" class="edge">
<title>src/storage/storage&#45;cache.ts&#45;&gt;src/query/query.ts</title>
<path fill="none" stroke="#528b8b" stroke-width="2" d="M392.12,-1134.75C417.53,-1115.43 460.05,-1084.78 500,-1063.87 513.32,-1056.89 528.52,-1050.59 542.23,-1045.47"/>
<polygon fill="#528b8b" stroke="#528b8b" stroke-width="2" points="543.71,-1048.65 551.91,-1041.95 541.32,-1042.08 543.71,-1048.65"/>
</g>
<!-- src/storage/storage&#45;cache.ts&#45;&gt;src/storage/storage&#45;types.ts -->
<g id="edge70" class="edge">
<title>src/storage/storage&#45;cache.ts&#45;&gt;src/storage/storage&#45;types.ts</title>
<path fill="none" stroke="#528b8b" stroke-width="2" d="M426.07,-1161.93C454.09,-1166.39 488,-1171.77 517.12,-1176.4"/>
<polygon fill="#528b8b" stroke="#528b8b" stroke-width="2" points="516.78,-1179.89 527.2,-1178 517.88,-1172.98 516.78,-1179.89"/>
</g>
<!-- src/storage/storage&#45;driver&#45;async&#45;memory.ts&#45;&gt;src/query/query&#45;types.ts -->
<g id="edge73" class="edge">
<title>src/storage/storage&#45;driver&#45;async&#45;memory.ts&#45;&gt;src/query/query&#45;types.ts</title>
<path fill="none" stroke="#528b8b" stroke-width="2" d="M458.49,-1188.76C463.27,-1186.18 467.83,-1183.23 472,-1179.87 493.36,-1162.66 478.3,-1141.65 500,-1124.87 560.48,-1078.09 596.12,-1113.91 668,-1087.87 691.94,-1079.2 717.28,-1066.28 737.39,-1055.03"/>
<polygon fill="#528b8b" stroke="#528b8b" stroke-width="2" points="739.27,-1057.98 746.24,-1050 735.82,-1051.9 739.27,-1057.98"/>
</g>
<!-- src/storage/storage&#45;driver&#45;async&#45;memory.ts&#45;&gt;src/query/query.ts -->
<g id="edge76" class="edge">
<title>src/storage/storage&#45;driver&#45;async&#45;memory.ts&#45;&gt;src/query/query.ts</title>
<path fill="none" stroke="#528b8b" stroke-width="2" d="M459.92,-1188.74C464.23,-1186.16 468.3,-1183.21 472,-1179.87 498.4,-1156.01 479.81,-1134.17 500,-1104.87 512.89,-1086.16 531.6,-1069.15 548,-1056.26"/>
<polygon fill="#528b8b" stroke="#528b8b" stroke-width="2" points="550.5,-1058.76 556.32,-1049.91 546.25,-1053.2 550.5,-1058.76"/>
</g>
<!-- src/storage/storage&#45;driver&#45;async&#45;memory.ts&#45;&gt;src/storage/compare.ts -->
<g id="edge75" class="edge">
<title>src/storage/storage&#45;driver&#45;async&#45;memory.ts&#45;&gt;src/storage/compare.ts</title>
<path fill="none" stroke="#528b8b" stroke-width="2" d="M472.24,-1223.27C492.97,-1226.56 513.9,-1229.89 531.89,-1232.75"/>
<polygon fill="#528b8b" stroke="#528b8b" stroke-width="2" points="531.42,-1236.22 541.84,-1234.33 532.52,-1229.3 531.42,-1236.22"/>
</g>
<!-- src/storage/storage&#45;driver&#45;async&#45;memory.ts&#45;&gt;src/storage/storage&#45;types.ts -->
<g id="edge74" class="edge">
<title>src/storage/storage&#45;driver&#45;async&#45;memory.ts&#45;&gt;src/storage/storage&#45;types.ts</title>
<path fill="none" stroke="#528b8b" stroke-width="2" d="M472.24,-1197.22C487.55,-1195.79 502.96,-1194.35 517.22,-1193.02"/>
<polygon fill="#528b8b" stroke="#528b8b" stroke-width="2" points="517.75,-1196.48 527.38,-1192.07 517.1,-1189.51 517.75,-1196.48"/>
</g>
<!-- src/storage/storage&#45;driver&#45;async&#45;memory.ts&#45;&gt;src/storage/util&#45;types.ts -->
<g id="edge72" class="edge">
<title>src/storage/storage&#45;driver&#45;async&#45;memory.ts&#45;&gt;src/storage/util&#45;types.ts</title>
<path fill="none" stroke="#528b8b" stroke-width="2" d="M449.58,-1188.81C457.3,-1186.17 464.89,-1183.2 472,-1179.87 485.85,-1173.38 485.44,-1164.53 500,-1159.87 575.47,-1135.68 668.01,-1153.76 724.45,-1169.76"/>
<polygon fill="#528b8b" stroke="#528b8b" stroke-width="2" points="723.64,-1173.16 734.22,-1172.6 725.6,-1166.44 723.64,-1173.16"/>
</g>
<!-- src/storage/storage&#45;driver&#45;indexeddb.ts -->
<g id="node30" class="node">
<title>src/storage/storage&#45;driver&#45;indexeddb.ts</title>
<path fill="#79cdcd" stroke="#79cdcd" d="M208.5,-1197.87C208.5,-1197.87 51.5,-1197.87 51.5,-1197.87 45.5,-1197.87 39.5,-1191.87 39.5,-1185.87 39.5,-1185.87 39.5,-1173.87 39.5,-1173.87 39.5,-1167.87 45.5,-1161.87 51.5,-1161.87 51.5,-1161.87 208.5,-1161.87 208.5,-1161.87 214.5,-1161.87 220.5,-1167.87 220.5,-1173.87 220.5,-1173.87 220.5,-1185.87 220.5,-1185.87 220.5,-1191.87 214.5,-1197.87 208.5,-1197.87"/>
<text text-anchor="middle" x="130" y="-1176.17" font-family="Helvetica,sans-Serif" font-size="14.00">storage&#45;driver&#45;indexeddb.ts</text>
</g>
<!-- src/storage/storage&#45;driver&#45;indexeddb.ts&#45;&gt;src/storage/storage&#45;driver&#45;async&#45;memory.ts -->
<g id="edge77" class="edge">
<title>src/storage/storage&#45;driver&#45;indexeddb.ts&#45;&gt;src/storage/storage&#45;driver&#45;async&#45;memory.ts</title>
<path fill="none" stroke="#528b8b" stroke-width="2" d="M220.56,-1190.11C231.34,-1191.35 242.46,-1192.62 253.52,-1193.89"/>
<polygon fill="#528b8b" stroke="#528b8b" stroke-width="2" points="253.33,-1197.39 263.66,-1195.04 254.12,-1190.43 253.33,-1197.39"/>
</g>
<!-- src/storage/storage&#45;driver&#45;local&#45;storage.ts -->
<g id="node31" class="node">
<title>src/storage/storage&#45;driver&#45;local&#45;storage.ts</title>
<path fill="#79cdcd" stroke="#79cdcd" d="M216,-1251.87C216,-1251.87 44,-1251.87 44,-1251.87 38,-1251.87 32,-1245.87 32,-1239.87 32,-1239.87 32,-1227.87 32,-1227.87 32,-1221.87 38,-1215.87 44,-1215.87 44,-1215.87 216,-1215.87 216,-1215.87 222,-1215.87 228,-1221.87 228,-1227.87 228,-1227.87 228,-1239.87 228,-1239.87 228,-1245.87 222,-1251.87 216,-1251.87"/>
<text text-anchor="middle" x="130" y="-1230.17" font-family="Helvetica,sans-Serif" font-size="14.00">storage&#45;driver&#45;local&#45;storage.ts</text>
</g>
<!-- src/storage/storage&#45;driver&#45;local&#45;storage.ts&#45;&gt;src/storage/storage&#45;driver&#45;async&#45;memory.ts -->
<g id="edge78" class="edge">
<title>src/storage/storage&#45;driver&#45;local&#45;storage.ts&#45;&gt;src/storage/storage&#45;driver&#45;async&#45;memory.ts</title>
<path fill="none" stroke="#528b8b" stroke-width="2" d="M228.01,-1222.77C236.51,-1221.8 245.16,-1220.81 253.77,-1219.82"/>
<polygon fill="#528b8b" stroke="#528b8b" stroke-width="2" points="254.32,-1223.28 263.86,-1218.67 253.52,-1216.33 254.32,-1223.28"/>
</g>
<!-- src/storage/storage&#45;types.ts&#45;&gt;deps.ts -->
<g id="edge82" class="edge">
<title>src/storage/storage&#45;types.ts&#45;&gt;deps.ts</title>
<path fill="none" stroke="#528b8b" stroke-width="2" d="M604.23,-1168.84C623.35,-1149.8 652.07,-1118 668,-1084.87 709.23,-999.09 757.29,-706.09 771.7,-613.88"/>
<polygon fill="#528b8b" stroke="#528b8b" stroke-width="2" points="775.18,-614.32 773.25,-603.9 768.26,-613.24 775.18,-614.32"/>
</g>
<!-- src/storage/storage&#45;types.ts&#45;&gt;src/format&#45;validators/format&#45;validator&#45;types.ts -->
<g id="edge80" class="edge">
<title>src/storage/storage&#45;types.ts&#45;&gt;src/format&#45;validators/format&#45;validator&#45;types.ts</title>
<path fill="none" stroke="#528b8b" stroke-width="2" d="M640.7,-1195.03C651.22,-1199.07 661.07,-1205.05 668,-1213.87 719.07,-1278.89 646.38,-1518.73 696,-1584.87 697.41,-1586.75 698.95,-1588.51 700.61,-1590.16"/>
<polygon fill="#528b8b" stroke="#528b8b" stroke-width="2" points="698.56,-1593.01 708.49,-1596.72 703.04,-1587.63 698.56,-1593.01"/>
</g>
<!-- src/storage/storage&#45;types.ts&#45;&gt;src/query/query&#45;types.ts -->
<g id="edge79" class="edge">
<title>src/storage/storage&#45;types.ts&#45;&gt;src/query/query&#45;types.ts</title>
<path fill="none" stroke="#528b8b" stroke-width="2" d="M617.14,-1168.8C632.97,-1159.39 652.02,-1147.28 668,-1134.87 698.93,-1110.83 730.99,-1079.26 752.06,-1057.44"/>
<polygon fill="#528b8b" stroke="#528b8b" stroke-width="2" points="754.65,-1059.8 759.04,-1050.16 749.59,-1054.96 754.65,-1059.8"/>
</g>
<!-- src/storage/storage&#45;types.ts&#45;&gt;src/storage/util&#45;types.ts -->
<g id="edge81" class="edge">
<title>src/storage/storage&#45;types.ts&#45;&gt;src/storage/util&#45;types.ts</title>
<path fill="none" stroke="#528b8b" stroke-width="2" d="M640.5,-1186.87C666.95,-1186.87 698.39,-1186.87 724.33,-1186.87"/>
<polygon fill="#528b8b" stroke="#528b8b" stroke-width="2" points="724.34,-1190.37 734.34,-1186.87 724.34,-1183.37 724.34,-1190.37"/>
</g>
<!-- src/superbus/simplebus.ts&#45;&gt;deps.ts -->
<g id="edge83" class="edge">
<title>src/superbus/simplebus.ts&#45;&gt;deps.ts</title>
<path fill="none" stroke="#528b8b" stroke-width="2" d="M176.21,-772.48C269.42,-750.58 489.23,-696.41 668,-632.87 691.45,-624.53 717.02,-613.5 737.39,-604.21"/>
<polygon fill="#528b8b" stroke="#528b8b" stroke-width="2" points="739.02,-607.31 746.65,-599.95 736.1,-600.96 739.02,-607.31"/>
</g>
<!-- src/superbus_map/superbus_map.ts&#45;&gt;deps.ts -->
<g id="edge84" class="edge">
<title>src/superbus_map/superbus_map.ts&#45;&gt;deps.ts</title>
<path fill="none" stroke="#528b8b" stroke-width="2" d="M188.41,-627.79C211.66,-621.14 238.89,-614.18 264,-609.87 438.27,-579.91 650.48,-582 736.74,-584.43"/>
<polygon fill="#528b8b" stroke="#528b8b" stroke-width="2" points="736.76,-587.94 746.86,-584.74 736.97,-580.94 736.76,-587.94"/>
</g>
</g>
</svg>
