<?xml version="1.0" encoding="UTF-8" standalone="no"?>
<!DOCTYPE svg PUBLIC "-//W3C//DTD SVG 1.1//EN"
 "http://www.w3.org/Graphics/SVG/1.1/DTD/svg11.dtd">
<!-- Generated by graphviz version 2.44.1 (20200629.0846)
 -->
<!-- Title: G Pages: 1 -->
<svg width="1531pt" height="721pt"
 viewBox="0.00 0.00 1531.00 720.79" xmlns="http://www.w3.org/2000/svg" xmlns:xlink="http://www.w3.org/1999/xlink">
<g id="graph0" class="graph" transform="scale(1 1) rotate(0) translate(4 716.79)">
<title>G</title>
<polygon fill="white" stroke="transparent" points="-4,4 -4,-716.79 1527,-716.79 1527,4 -4,4"/>
<!-- src/example&#45;app.ts -->
<g id="node1" class="node">
<title>src/example&#45;app.ts</title>
<path fill="#79cdcd" stroke="#79cdcd" d="M119,-325.79C119,-325.79 12,-325.79 12,-325.79 6,-325.79 0,-319.79 0,-313.79 0,-313.79 0,-301.79 0,-301.79 0,-295.79 6,-289.79 12,-289.79 12,-289.79 119,-289.79 119,-289.79 125,-289.79 131,-295.79 131,-301.79 131,-301.79 131,-313.79 131,-313.79 131,-319.79 125,-325.79 119,-325.79"/>
<text text-anchor="middle" x="65.5" y="-304.09" font-family="Helvetica,sans-Serif" font-size="14.00">src/example&#45;app.ts</text>
</g>
<!-- src/format&#45;validators/format&#45;validator&#45;es4.ts -->
<g id="node12" class="node">
<title>src/format&#45;validators/format&#45;validator&#45;es4.ts</title>
<path fill="#79cdcd" stroke="#79cdcd" d="M433,-598.79C433,-598.79 179,-598.79 179,-598.79 173,-598.79 167,-592.79 167,-586.79 167,-586.79 167,-574.79 167,-574.79 167,-568.79 173,-562.79 179,-562.79 179,-562.79 433,-562.79 433,-562.79 439,-562.79 445,-568.79 445,-574.79 445,-574.79 445,-586.79 445,-586.79 445,-592.79 439,-598.79 433,-598.79"/>
<text text-anchor="middle" x="306" y="-577.09" font-family="Helvetica,sans-Serif" font-size="14.00">src/format&#45;validators/format&#45;validator&#45;es4.ts</text>
</g>
<!-- src/example&#45;app.ts&#45;&gt;src/format&#45;validators/format&#45;validator&#45;es4.ts -->
<g id="edge16" class="edge">
<title>src/example&#45;app.ts&#45;&gt;src/format&#45;validators/format&#45;validator&#45;es4.ts</title>
<path fill="none" stroke="#528b8b" stroke-width="2" d="M82.52,-326.12C123.93,-373.52 234.63,-500.23 282.46,-554.99"/>
<polygon fill="#528b8b" stroke="#528b8b" stroke-width="2" points="279.84,-557.3 289.05,-562.53 285.11,-552.7 279.84,-557.3"/>
</g>
<!-- src/storage/follower.ts -->
<g id="node15" class="node">
<title>src/storage/follower.ts</title>
<path fill="#79cdcd" stroke="#79cdcd" d="M368,-260.79C368,-260.79 244,-260.79 244,-260.79 238,-260.79 232,-254.79 232,-248.79 232,-248.79 232,-236.79 232,-236.79 232,-230.79 238,-224.79 244,-224.79 244,-224.79 368,-224.79 368,-224.79 374,-224.79 380,-230.79 380,-236.79 380,-236.79 380,-248.79 380,-248.79 380,-254.79 374,-260.79 368,-260.79"/>
<text text-anchor="middle" x="306" y="-239.09" font-family="Helvetica,sans-Serif" font-size="14.00">src/storage/follower.ts</text>
</g>
<!-- src/example&#45;app.ts&#45;&gt;src/storage/follower.ts -->
<g id="edge19" class="edge">
<title>src/example&#45;app.ts&#45;&gt;src/storage/follower.ts</title>
<path fill="none" stroke="#528b8b" stroke-width="2" d="M131.04,-290.2C161.17,-281.99 197.24,-272.15 228.7,-263.58"/>
<polygon fill="#528b8b" stroke="#528b8b" stroke-width="2" points="230.02,-266.85 238.75,-260.84 228.18,-260.1 230.02,-266.85"/>
</g>
<!-- src/storage/storage&#45;async.ts -->
<g id="node19" class="node">
<title>src/storage/storage&#45;async.ts</title>
<path fill="#79cdcd" stroke="#79cdcd" d="M387,-371.79C387,-371.79 225,-371.79 225,-371.79 219,-371.79 213,-365.79 213,-359.79 213,-359.79 213,-347.79 213,-347.79 213,-341.79 219,-335.79 225,-335.79 225,-335.79 387,-335.79 387,-335.79 393,-335.79 399,-341.79 399,-347.79 399,-347.79 399,-359.79 399,-359.79 399,-365.79 393,-371.79 387,-371.79"/>
<text text-anchor="middle" x="306" y="-350.09" font-family="Helvetica,sans-Serif" font-size="14.00">src/storage/storage&#45;async.ts</text>
</g>
<!-- src/example&#45;app.ts&#45;&gt;src/storage/storage&#45;async.ts -->
<g id="edge18" class="edge">
<title>src/example&#45;app.ts&#45;&gt;src/storage/storage&#45;async.ts</title>
<path fill="none" stroke="#528b8b" stroke-width="2" d="M131.04,-320.23C153.11,-324.49 178.37,-329.36 202.67,-334.05"/>
<polygon fill="#528b8b" stroke="#528b8b" stroke-width="2" points="202.17,-337.52 212.65,-335.97 203.49,-330.64 202.17,-337.52"/>
</g>
<!-- src/storage/storage&#45;driver&#45;async&#45;memory.ts -->
<g id="node20" class="node">
<title>src/storage/storage&#45;driver&#45;async&#45;memory.ts</title>
<path fill="#79cdcd" stroke="#79cdcd" d="M433,-149.79C433,-149.79 179,-149.79 179,-149.79 173,-149.79 167,-143.79 167,-137.79 167,-137.79 167,-125.79 167,-125.79 167,-119.79 173,-113.79 179,-113.79 179,-113.79 433,-113.79 433,-113.79 439,-113.79 445,-119.79 445,-125.79 445,-125.79 445,-137.79 445,-137.79 445,-143.79 439,-149.79 433,-149.79"/>
<text text-anchor="middle" x="306" y="-128.09" font-family="Helvetica,sans-Serif" font-size="14.00">src/storage/storage&#45;driver&#45;async&#45;memory.ts</text>
</g>
<!-- src/example&#45;app.ts&#45;&gt;src/storage/storage&#45;driver&#45;async&#45;memory.ts -->
<g id="edge17" class="edge">
<title>src/example&#45;app.ts&#45;&gt;src/storage/storage&#45;driver&#45;async&#45;memory.ts</title>
<path fill="none" stroke="#528b8b" stroke-width="2" d="M84.09,-289.71C103.46,-270.28 135.98,-239.08 167,-215.79 197.46,-192.92 234.44,-170.67 262.45,-154.83"/>
<polygon fill="#528b8b" stroke="#528b8b" stroke-width="2" points="264.2,-157.86 271.2,-149.91 260.77,-151.75 264.2,-157.86"/>
</g>
<!-- src/core&#45;validators/addresses.ts -->
<g id="node2" class="node">
<title>src/core&#45;validators/addresses.ts</title>
<path fill="#79cdcd" stroke="#79cdcd" d="M1267,-605.79C1267,-605.79 1084,-605.79 1084,-605.79 1078,-605.79 1072,-599.79 1072,-593.79 1072,-593.79 1072,-581.79 1072,-581.79 1072,-575.79 1078,-569.79 1084,-569.79 1084,-569.79 1267,-569.79 1267,-569.79 1273,-569.79 1279,-575.79 1279,-581.79 1279,-581.79 1279,-593.79 1279,-593.79 1279,-599.79 1273,-605.79 1267,-605.79"/>
<text text-anchor="middle" x="1175.5" y="-584.09" font-family="Helvetica,sans-Serif" font-size="14.00">src/core&#45;validators/addresses.ts</text>
</g>
<!-- src/core&#45;validators/characters.ts -->
<g id="node3" class="node">
<title>src/core&#45;validators/characters.ts</title>
<path fill="#79cdcd" stroke="#79cdcd" d="M1511,-666.79C1511,-666.79 1327,-666.79 1327,-666.79 1321,-666.79 1315,-660.79 1315,-654.79 1315,-654.79 1315,-642.79 1315,-642.79 1315,-636.79 1321,-630.79 1327,-630.79 1327,-630.79 1511,-630.79 1511,-630.79 1517,-630.79 1523,-636.79 1523,-642.79 1523,-642.79 1523,-654.79 1523,-654.79 1523,-660.79 1517,-666.79 1511,-666.79"/>
<text text-anchor="middle" x="1419" y="-645.09" font-family="Helvetica,sans-Serif" font-size="14.00">src/core&#45;validators/characters.ts</text>
</g>
<!-- src/core&#45;validators/addresses.ts&#45;&gt;src/core&#45;validators/characters.ts -->
<g id="edge1" class="edge">
<title>src/core&#45;validators/addresses.ts&#45;&gt;src/core&#45;validators/characters.ts</title>
<path fill="none" stroke="#528b8b" stroke-width="2" d="M1247.98,-605.84C1275.85,-612.88 1307.94,-620.99 1336.69,-628.25"/>
<polygon fill="#528b8b" stroke="#528b8b" stroke-width="2" points="1336.15,-631.72 1346.71,-630.78 1337.87,-624.94 1336.15,-631.72"/>
</g>
<!-- src/core&#45;validators/checkers.ts -->
<g id="node4" class="node">
<title>src/core&#45;validators/checkers.ts</title>
<path fill="#79cdcd" stroke="#79cdcd" d="M1263,-712.79C1263,-712.79 1088,-712.79 1088,-712.79 1082,-712.79 1076,-706.79 1076,-700.79 1076,-700.79 1076,-688.79 1076,-688.79 1076,-682.79 1082,-676.79 1088,-676.79 1088,-676.79 1263,-676.79 1263,-676.79 1269,-676.79 1275,-682.79 1275,-688.79 1275,-688.79 1275,-700.79 1275,-700.79 1275,-706.79 1269,-712.79 1263,-712.79"/>
<text text-anchor="middle" x="1175.5" y="-691.09" font-family="Helvetica,sans-Serif" font-size="14.00">src/core&#45;validators/checkers.ts</text>
</g>
<!-- src/core&#45;validators/checkers.ts&#45;&gt;src/core&#45;validators/characters.ts -->
<g id="edge2" class="edge">
<title>src/core&#45;validators/checkers.ts&#45;&gt;src/core&#45;validators/characters.ts</title>
<path fill="none" stroke="#528b8b" stroke-width="2" d="M1271.25,-676.74C1284.97,-674.12 1299.16,-671.42 1313.06,-668.77"/>
<polygon fill="#528b8b" stroke="#528b8b" stroke-width="2" points="1313.95,-672.17 1323.12,-666.86 1312.64,-665.29 1313.95,-672.17"/>
</g>
<!-- src/crypto/base32.ts -->
<g id="node5" class="node">
<title>src/crypto/base32.ts</title>
<path fill="#79cdcd" stroke="#79cdcd" d="M1232,-521.79C1232,-521.79 1119,-521.79 1119,-521.79 1113,-521.79 1107,-515.79 1107,-509.79 1107,-509.79 1107,-497.79 1107,-497.79 1107,-491.79 1113,-485.79 1119,-485.79 1119,-485.79 1232,-485.79 1232,-485.79 1238,-485.79 1244,-491.79 1244,-497.79 1244,-497.79 1244,-509.79 1244,-509.79 1244,-515.79 1238,-521.79 1232,-521.79"/>
<text text-anchor="middle" x="1175.5" y="-500.09" font-family="Helvetica,sans-Serif" font-size="14.00">src/crypto/base32.ts</text>
</g>
<!-- src/crypto/crypto&#45;driver&#45;chloride.ts -->
<g id="node6" class="node">
<title>src/crypto/crypto&#45;driver&#45;chloride.ts</title>
<path fill="#79cdcd" stroke="#79cdcd" d="M1019,-360.79C1019,-360.79 823,-360.79 823,-360.79 817,-360.79 811,-354.79 811,-348.79 811,-348.79 811,-336.79 811,-336.79 811,-330.79 817,-324.79 823,-324.79 823,-324.79 1019,-324.79 1019,-324.79 1025,-324.79 1031,-330.79 1031,-336.79 1031,-336.79 1031,-348.79 1031,-348.79 1031,-354.79 1025,-360.79 1019,-360.79"/>
<text text-anchor="middle" x="921" y="-339.09" font-family="Helvetica,sans-Serif" font-size="14.00">src/crypto/crypto&#45;driver&#45;chloride.ts</text>
</g>
<!-- src/crypto/crypto&#45;types.ts -->
<g id="node9" class="node">
<title>src/crypto/crypto&#45;types.ts</title>
<path fill="#79cdcd" stroke="#79cdcd" d="M1247,-406.79C1247,-406.79 1104,-406.79 1104,-406.79 1098,-406.79 1092,-400.79 1092,-394.79 1092,-394.79 1092,-382.79 1092,-382.79 1092,-376.79 1098,-370.79 1104,-370.79 1104,-370.79 1247,-370.79 1247,-370.79 1253,-370.79 1259,-376.79 1259,-382.79 1259,-382.79 1259,-394.79 1259,-394.79 1259,-400.79 1253,-406.79 1247,-406.79"/>
<text text-anchor="middle" x="1175.5" y="-385.09" font-family="Helvetica,sans-Serif" font-size="14.00">src/crypto/crypto&#45;types.ts</text>
</g>
<!-- src/crypto/crypto&#45;driver&#45;chloride.ts&#45;&gt;src/crypto/crypto&#45;types.ts -->
<g id="edge3" class="edge">
<title>src/crypto/crypto&#45;driver&#45;chloride.ts&#45;&gt;src/crypto/crypto&#45;types.ts</title>
<path fill="none" stroke="#528b8b" stroke-width="2" d="M1021.07,-360.83C1041.04,-364.47 1061.97,-368.29 1081.72,-371.88"/>
<polygon fill="#528b8b" stroke="#528b8b" stroke-width="2" points="1081.16,-375.34 1091.62,-373.69 1082.41,-368.45 1081.16,-375.34"/>
</g>
<!-- src/crypto/crypto&#45;driver&#45;node.ts -->
<g id="node7" class="node">
<title>src/crypto/crypto&#45;driver&#45;node.ts</title>
<path fill="#79cdcd" stroke="#79cdcd" d="M1010.5,-306.79C1010.5,-306.79 831.5,-306.79 831.5,-306.79 825.5,-306.79 819.5,-300.79 819.5,-294.79 819.5,-294.79 819.5,-282.79 819.5,-282.79 819.5,-276.79 825.5,-270.79 831.5,-270.79 831.5,-270.79 1010.5,-270.79 1010.5,-270.79 1016.5,-270.79 1022.5,-276.79 1022.5,-282.79 1022.5,-282.79 1022.5,-294.79 1022.5,-294.79 1022.5,-300.79 1016.5,-306.79 1010.5,-306.79"/>
<text text-anchor="middle" x="921" y="-285.09" font-family="Helvetica,sans-Serif" font-size="14.00">src/crypto/crypto&#45;driver&#45;node.ts</text>
</g>
<!-- src/crypto/crypto&#45;driver&#45;node.ts&#45;&gt;src/crypto/crypto&#45;types.ts -->
<g id="edge4" class="edge">
<title>src/crypto/crypto&#45;driver&#45;node.ts&#45;&gt;src/crypto/crypto&#45;types.ts</title>
<path fill="none" stroke="#528b8b" stroke-width="2" d="M1008.6,-306.85C1017.95,-309.52 1027.24,-312.5 1036,-315.79 1071.55,-329.12 1109.55,-349.64 1136.74,-365.53"/>
<polygon fill="#528b8b" stroke="#528b8b" stroke-width="2" points="1135.13,-368.65 1145.52,-370.73 1138.69,-362.63 1135.13,-368.65"/>
</g>
<!-- src/crypto/crypto&#45;driver&#45;tweetnacl.ts -->
<g id="node8" class="node">
<title>src/crypto/crypto&#45;driver&#45;tweetnacl.ts</title>
<path fill="#79cdcd" stroke="#79cdcd" d="M1024,-452.79C1024,-452.79 818,-452.79 818,-452.79 812,-452.79 806,-446.79 806,-440.79 806,-440.79 806,-428.79 806,-428.79 806,-422.79 812,-416.79 818,-416.79 818,-416.79 1024,-416.79 1024,-416.79 1030,-416.79 1036,-422.79 1036,-428.79 1036,-428.79 1036,-440.79 1036,-440.79 1036,-446.79 1030,-452.79 1024,-452.79"/>
<text text-anchor="middle" x="921" y="-431.09" font-family="Helvetica,sans-Serif" font-size="14.00">src/crypto/crypto&#45;driver&#45;tweetnacl.ts</text>
</g>
<!-- src/crypto/crypto&#45;driver&#45;tweetnacl.ts&#45;&gt;src/crypto/crypto&#45;types.ts -->
<g id="edge5" class="edge">
<title>src/crypto/crypto&#45;driver&#45;tweetnacl.ts&#45;&gt;src/crypto/crypto&#45;types.ts</title>
<path fill="none" stroke="#528b8b" stroke-width="2" d="M1021.07,-416.74C1041.04,-413.1 1061.97,-409.29 1081.72,-405.69"/>
<polygon fill="#528b8b" stroke="#528b8b" stroke-width="2" points="1082.41,-409.12 1091.62,-403.88 1081.16,-402.23 1082.41,-409.12"/>
</g>
<!-- src/crypto/crypto.ts -->
<g id="node10" class="node">
<title>src/crypto/crypto.ts</title>
<path fill="#79cdcd" stroke="#79cdcd" d="M678.5,-455.79C678.5,-455.79 572.5,-455.79 572.5,-455.79 566.5,-455.79 560.5,-449.79 560.5,-443.79 560.5,-443.79 560.5,-431.79 560.5,-431.79 560.5,-425.79 566.5,-419.79 572.5,-419.79 572.5,-419.79 678.5,-419.79 678.5,-419.79 684.5,-419.79 690.5,-425.79 690.5,-431.79 690.5,-431.79 690.5,-443.79 690.5,-443.79 690.5,-449.79 684.5,-455.79 678.5,-455.79"/>
<text text-anchor="middle" x="625.5" y="-434.09" font-family="Helvetica,sans-Serif" font-size="14.00">src/crypto/crypto.ts</text>
</g>
<!-- src/crypto/crypto.ts&#45;&gt;src/core&#45;validators/addresses.ts -->
<g id="edge12" class="edge">
<title>src/crypto/crypto.ts&#45;&gt;src/core&#45;validators/addresses.ts</title>
<path fill="none" stroke="#528b8b" stroke-width="2" d="M690.57,-453.47C717.25,-462.34 747.25,-475.61 770,-494.79 793.48,-514.59 779.93,-537.53 806,-553.79 847.38,-579.59 969.27,-586.74 1061.63,-588.3"/>
<polygon fill="#528b8b" stroke="#528b8b" stroke-width="2" points="1061.84,-591.8 1071.89,-588.45 1061.94,-584.8 1061.84,-591.8"/>
</g>
<!-- src/crypto/crypto.ts&#45;&gt;src/crypto/base32.ts -->
<g id="edge10" class="edge">
<title>src/crypto/crypto.ts&#45;&gt;src/crypto/base32.ts</title>
<path fill="none" stroke="#528b8b" stroke-width="2" d="M690.85,-446.7C725.03,-451.35 767.78,-457.05 806,-461.79 906.24,-474.2 1022,-487.17 1096.62,-495.35"/>
<polygon fill="#528b8b" stroke="#528b8b" stroke-width="2" points="1096.55,-498.87 1106.87,-496.48 1097.31,-491.91 1096.55,-498.87"/>
</g>
<!-- src/crypto/crypto.ts&#45;&gt;src/crypto/crypto&#45;driver&#45;chloride.ts -->
<g id="edge6" class="edge">
<title>src/crypto/crypto.ts&#45;&gt;src/crypto/crypto&#45;driver&#45;chloride.ts</title>
<path fill="none" stroke="#528b8b" stroke-width="2" d="M690.58,-430.4C716.24,-425.71 745.48,-418.09 770,-405.79 788.87,-396.31 787.39,-384.77 806,-374.79 813.36,-370.84 821.25,-367.34 829.32,-364.25"/>
<polygon fill="#528b8b" stroke="#528b8b" stroke-width="2" points="830.64,-367.49 838.86,-360.8 828.26,-360.91 830.64,-367.49"/>
</g>
<!-- src/crypto/crypto.ts&#45;&gt;src/crypto/crypto&#45;driver&#45;node.ts -->
<g id="edge7" class="edge">
<title>src/crypto/crypto.ts&#45;&gt;src/crypto/crypto&#45;driver&#45;node.ts</title>
<path fill="none" stroke="#528b8b" stroke-width="2" d="M690.6,-436.43C717.77,-432.82 748.13,-424.39 770,-405.79 802.82,-377.87 773.37,-343.91 806,-315.79 807.53,-314.47 809.11,-313.21 810.75,-312.01"/>
<polygon fill="#528b8b" stroke="#528b8b" stroke-width="2" points="812.77,-314.87 819.25,-306.49 808.96,-309 812.77,-314.87"/>
</g>
<!-- src/crypto/crypto.ts&#45;&gt;src/crypto/crypto&#45;driver&#45;tweetnacl.ts -->
<g id="edge8" class="edge">
<title>src/crypto/crypto.ts&#45;&gt;src/crypto/crypto&#45;driver&#45;tweetnacl.ts</title>
<path fill="none" stroke="#528b8b" stroke-width="2" d="M690.55,-437.13C721.38,-436.82 759.45,-436.43 795.66,-436.06"/>
<polygon fill="#528b8b" stroke="#528b8b" stroke-width="2" points="795.85,-439.56 805.81,-435.95 795.77,-432.56 795.85,-439.56"/>
</g>
<!-- src/crypto/crypto.ts&#45;&gt;src/crypto/crypto&#45;types.ts -->
<g id="edge9" class="edge">
<title>src/crypto/crypto.ts&#45;&gt;src/crypto/crypto&#45;types.ts</title>
<path fill="none" stroke="#528b8b" stroke-width="2" d="M690.64,-425.24C724.77,-419.03 767.52,-411.98 806,-407.79 899.52,-397.59 1006.99,-392.84 1081.65,-390.64"/>
<polygon fill="#528b8b" stroke="#528b8b" stroke-width="2" points="1082.06,-394.13 1091.96,-390.35 1081.86,-387.14 1082.06,-394.13"/>
</g>
<!-- src/crypto/keypair.ts -->
<g id="node11" class="node">
<title>src/crypto/keypair.ts</title>
<path fill="#79cdcd" stroke="#79cdcd" d="M977.5,-544.79C977.5,-544.79 864.5,-544.79 864.5,-544.79 858.5,-544.79 852.5,-538.79 852.5,-532.79 852.5,-532.79 852.5,-520.79 852.5,-520.79 852.5,-514.79 858.5,-508.79 864.5,-508.79 864.5,-508.79 977.5,-508.79 977.5,-508.79 983.5,-508.79 989.5,-514.79 989.5,-520.79 989.5,-520.79 989.5,-532.79 989.5,-532.79 989.5,-538.79 983.5,-544.79 977.5,-544.79"/>
<text text-anchor="middle" x="921" y="-523.09" font-family="Helvetica,sans-Serif" font-size="14.00">src/crypto/keypair.ts</text>
</g>
<!-- src/crypto/crypto.ts&#45;&gt;src/crypto/keypair.ts -->
<g id="edge11" class="edge">
<title>src/crypto/crypto.ts&#45;&gt;src/crypto/keypair.ts</title>
<path fill="none" stroke="#528b8b" stroke-width="2" d="M681.74,-455.86C717.16,-467.32 764.18,-482.28 806,-494.79 818.4,-498.49 831.59,-502.31 844.44,-505.96"/>
<polygon fill="#528b8b" stroke="#528b8b" stroke-width="2" points="843.61,-509.37 854.18,-508.72 845.51,-502.63 843.61,-509.37"/>
</g>
<!-- src/crypto/keypair.ts&#45;&gt;src/core&#45;validators/addresses.ts -->
<g id="edge15" class="edge">
<title>src/crypto/keypair.ts&#45;&gt;src/core&#45;validators/addresses.ts</title>
<path fill="none" stroke="#528b8b" stroke-width="2" d="M989.67,-543.13C1020.51,-550.58 1057.35,-559.48 1090,-567.37"/>
<polygon fill="#528b8b" stroke="#528b8b" stroke-width="2" points="1089.44,-570.84 1099.98,-569.78 1091.08,-564.03 1089.44,-570.84"/>
</g>
<!-- src/crypto/keypair.ts&#45;&gt;src/crypto/base32.ts -->
<g id="edge13" class="edge">
<title>src/crypto/keypair.ts&#45;&gt;src/crypto/base32.ts</title>
<path fill="none" stroke="#528b8b" stroke-width="2" d="M989.67,-520.62C1022.64,-517.62 1062.46,-513.99 1096.69,-510.87"/>
<polygon fill="#528b8b" stroke="#528b8b" stroke-width="2" points="1097.01,-514.36 1106.65,-509.97 1096.37,-507.39 1097.01,-514.36"/>
</g>
<!-- src/crypto/keypair.ts&#45;&gt;src/crypto/crypto&#45;types.ts -->
<g id="edge14" class="edge">
<title>src/crypto/keypair.ts&#45;&gt;src/crypto/crypto&#45;types.ts</title>
<path fill="none" stroke="#528b8b" stroke-width="2" d="M955.01,-508.74C1000.57,-483.85 1082.72,-438.95 1132.57,-411.7"/>
<polygon fill="#528b8b" stroke="#528b8b" stroke-width="2" points="1134.39,-414.7 1141.48,-406.83 1131.03,-408.56 1134.39,-414.7"/>
</g>
<!-- src/format&#45;validators/format&#45;validator&#45;es4.ts&#45;&gt;src/core&#45;validators/addresses.ts -->
<g id="edge23" class="edge">
<title>src/format&#45;validators/format&#45;validator&#45;es4.ts&#45;&gt;src/core&#45;validators/addresses.ts</title>
<path fill="none" stroke="#528b8b" stroke-width="2" d="M445.42,-581.9C616.27,-583.28 903.53,-585.6 1061.66,-586.88"/>
<polygon fill="#528b8b" stroke="#528b8b" stroke-width="2" points="1061.86,-590.38 1071.89,-586.96 1061.92,-583.38 1061.86,-590.38"/>
</g>
<!-- src/format&#45;validators/format&#45;validator&#45;es4.ts&#45;&gt;src/core&#45;validators/characters.ts -->
<g id="edge21" class="edge">
<title>src/format&#45;validators/format&#45;validator&#45;es4.ts&#45;&gt;src/core&#45;validators/characters.ts</title>
<path fill="none" stroke="#528b8b" stroke-width="2" d="M445.15,-593.95C457.27,-594.97 469.35,-595.93 481,-596.79 778.06,-618.68 1128.72,-635.82 1304.91,-643.84"/>
<polygon fill="#528b8b" stroke="#528b8b" stroke-width="2" points="1304.82,-647.33 1314.97,-644.29 1305.14,-640.34 1304.82,-647.33"/>
</g>
<!-- src/format&#45;validators/format&#45;validator&#45;es4.ts&#45;&gt;src/core&#45;validators/checkers.ts -->
<g id="edge22" class="edge">
<title>src/format&#45;validators/format&#45;validator&#45;es4.ts&#45;&gt;src/core&#45;validators/checkers.ts</title>
<path fill="none" stroke="#528b8b" stroke-width="2" d="M336.14,-598.93C369.66,-618.73 427.03,-649.39 481,-662.79 682.86,-712.88 927.68,-709.98 1065.83,-702.77"/>
<polygon fill="#528b8b" stroke="#528b8b" stroke-width="2" points="1066.2,-706.25 1076,-702.22 1065.82,-699.26 1066.2,-706.25"/>
</g>
<!-- src/format&#45;validators/format&#45;validator&#45;es4.ts&#45;&gt;src/crypto/crypto.ts -->
<g id="edge24" class="edge">
<title>src/format&#45;validators/format&#45;validator&#45;es4.ts&#45;&gt;src/crypto/crypto.ts</title>
<path fill="none" stroke="#528b8b" stroke-width="2" d="M341.6,-562.65C376.43,-544.64 431.89,-516.63 481,-494.79 508.92,-482.36 540.43,-469.7 566.8,-459.48"/>
<polygon fill="#528b8b" stroke="#528b8b" stroke-width="2" points="568.19,-462.69 576.26,-455.83 565.67,-456.16 568.19,-462.69"/>
</g>
<!-- src/format&#45;validators/format&#45;validator&#45;types.ts -->
<g id="node13" class="node">
<title>src/format&#45;validators/format&#45;validator&#45;types.ts</title>
<path fill="#79cdcd" stroke="#79cdcd" d="M758,-539.79C758,-539.79 493,-539.79 493,-539.79 487,-539.79 481,-533.79 481,-527.79 481,-527.79 481,-515.79 481,-515.79 481,-509.79 487,-503.79 493,-503.79 493,-503.79 758,-503.79 758,-503.79 764,-503.79 770,-509.79 770,-515.79 770,-515.79 770,-527.79 770,-527.79 770,-533.79 764,-539.79 758,-539.79"/>
<text text-anchor="middle" x="625.5" y="-518.09" font-family="Helvetica,sans-Serif" font-size="14.00">src/format&#45;validators/format&#45;validator&#45;types.ts</text>
</g>
<!-- src/format&#45;validators/format&#45;validator&#45;es4.ts&#45;&gt;src/format&#45;validators/format&#45;validator&#45;types.ts -->
<g id="edge20" class="edge">
<title>src/format&#45;validators/format&#45;validator&#45;es4.ts&#45;&gt;src/format&#45;validators/format&#45;validator&#45;types.ts</title>
<path fill="none" stroke="#528b8b" stroke-width="2" d="M403.99,-562.76C439.82,-556.1 480.64,-548.52 517.33,-541.7"/>
<polygon fill="#528b8b" stroke="#528b8b" stroke-width="2" points="518.37,-545.07 527.56,-539.8 517.09,-538.19 518.37,-545.07"/>
</g>
<!-- src/storage/compare.ts -->
<g id="node14" class="node">
<title>src/storage/compare.ts</title>
<path fill="#79cdcd" stroke="#79cdcd" d="M691,-325.79C691,-325.79 560,-325.79 560,-325.79 554,-325.79 548,-319.79 548,-313.79 548,-313.79 548,-301.79 548,-301.79 548,-295.79 554,-289.79 560,-289.79 560,-289.79 691,-289.79 691,-289.79 697,-289.79 703,-295.79 703,-301.79 703,-301.79 703,-313.79 703,-313.79 703,-319.79 697,-325.79 691,-325.79"/>
<text text-anchor="middle" x="625.5" y="-304.09" font-family="Helvetica,sans-Serif" font-size="14.00">src/storage/compare.ts</text>
</g>
<!-- src/storage/util&#45;types.ts -->
<g id="node22" class="node">
<title>src/storage/util&#45;types.ts</title>
<path fill="#79cdcd" stroke="#79cdcd" d="M986.5,-252.79C986.5,-252.79 855.5,-252.79 855.5,-252.79 849.5,-252.79 843.5,-246.79 843.5,-240.79 843.5,-240.79 843.5,-228.79 843.5,-228.79 843.5,-222.79 849.5,-216.79 855.5,-216.79 855.5,-216.79 986.5,-216.79 986.5,-216.79 992.5,-216.79 998.5,-222.79 998.5,-228.79 998.5,-228.79 998.5,-240.79 998.5,-240.79 998.5,-246.79 992.5,-252.79 986.5,-252.79"/>
<text text-anchor="middle" x="921" y="-231.09" font-family="Helvetica,sans-Serif" font-size="14.00">src/storage/util&#45;types.ts</text>
</g>
<!-- src/storage/compare.ts&#45;&gt;src/storage/util&#45;types.ts -->
<g id="edge25" class="edge">
<title>src/storage/compare.ts&#45;&gt;src/storage/util&#45;types.ts</title>
<path fill="none" stroke="#528b8b" stroke-width="2" d="M703.02,-292.97C724.84,-288.14 748.51,-282.32 770,-275.79 786.42,-270.79 789.61,-266.89 806,-261.79 814.86,-259.03 824.19,-256.39 833.54,-253.93"/>
<polygon fill="#528b8b" stroke="#528b8b" stroke-width="2" points="834.45,-257.31 843.26,-251.42 832.7,-250.53 834.45,-257.31"/>
</g>
<!-- src/storage/query&#45;types.ts -->
<g id="node17" class="node">
<title>src/storage/query&#45;types.ts</title>
<path fill="#79cdcd" stroke="#79cdcd" d="M995,-195.79C995,-195.79 847,-195.79 847,-195.79 841,-195.79 835,-189.79 835,-183.79 835,-183.79 835,-171.79 835,-171.79 835,-165.79 841,-159.79 847,-159.79 847,-159.79 995,-159.79 995,-159.79 1001,-159.79 1007,-165.79 1007,-171.79 1007,-171.79 1007,-183.79 1007,-183.79 1007,-189.79 1001,-195.79 995,-195.79"/>
<text text-anchor="middle" x="921" y="-174.09" font-family="Helvetica,sans-Serif" font-size="14.00">src/storage/query&#45;types.ts</text>
</g>
<!-- src/storage/follower.ts&#45;&gt;src/storage/query&#45;types.ts -->
<g id="edge27" class="edge">
<title>src/storage/follower.ts&#45;&gt;src/storage/query&#45;types.ts</title>
<path fill="none" stroke="#528b8b" stroke-width="2" d="M380.2,-238.96C471.67,-233.68 632.85,-222.72 770,-204.79 787.82,-202.46 806.74,-199.46 824.93,-196.32"/>
<polygon fill="#528b8b" stroke="#528b8b" stroke-width="2" points="825.7,-199.74 834.95,-194.56 824.49,-192.84 825.7,-199.74"/>
</g>
<!-- src/storage/storage&#45;types.ts -->
<g id="node21" class="node">
<title>src/storage/storage&#45;types.ts</title>
<path fill="#79cdcd" stroke="#79cdcd" d="M705,-195.79C705,-195.79 546,-195.79 546,-195.79 540,-195.79 534,-189.79 534,-183.79 534,-183.79 534,-171.79 534,-171.79 534,-165.79 540,-159.79 546,-159.79 546,-159.79 705,-159.79 705,-159.79 711,-159.79 717,-165.79 717,-171.79 717,-171.79 717,-183.79 717,-183.79 717,-189.79 711,-195.79 705,-195.79"/>
<text text-anchor="middle" x="625.5" y="-174.09" font-family="Helvetica,sans-Serif" font-size="14.00">src/storage/storage&#45;types.ts</text>
</g>
<!-- src/storage/follower.ts&#45;&gt;src/storage/storage&#45;types.ts -->
<g id="edge28" class="edge">
<title>src/storage/follower.ts&#45;&gt;src/storage/storage&#45;types.ts</title>
<path fill="none" stroke="#528b8b" stroke-width="2" d="M380.24,-227.79C423.67,-218.9 479.26,-207.52 526.44,-197.86"/>
<polygon fill="#528b8b" stroke="#528b8b" stroke-width="2" points="527.28,-201.26 536.37,-195.83 525.87,-194.4 527.28,-201.26"/>
</g>
<!-- src/storage/follower.ts&#45;&gt;src/storage/util&#45;types.ts -->
<g id="edge26" class="edge">
<title>src/storage/follower.ts&#45;&gt;src/storage/util&#45;types.ts</title>
<path fill="none" stroke="#528b8b" stroke-width="2" d="M380.38,-242.2C471.68,-241.43 632.35,-239.91 770,-237.79 790.48,-237.47 812.53,-237.07 833.25,-236.66"/>
<polygon fill="#528b8b" stroke="#528b8b" stroke-width="2" points="833.38,-240.15 843.31,-236.46 833.24,-233.16 833.38,-240.15"/>
</g>
<!-- src/storage/lock.ts -->
<g id="node16" class="node">
<title>src/storage/lock.ts</title>
<path fill="#79cdcd" stroke="#79cdcd" d="M971.5,-80.79C971.5,-80.79 870.5,-80.79 870.5,-80.79 864.5,-80.79 858.5,-74.79 858.5,-68.79 858.5,-68.79 858.5,-56.79 858.5,-56.79 858.5,-50.79 864.5,-44.79 870.5,-44.79 870.5,-44.79 971.5,-44.79 971.5,-44.79 977.5,-44.79 983.5,-50.79 983.5,-56.79 983.5,-56.79 983.5,-68.79 983.5,-68.79 983.5,-74.79 977.5,-80.79 971.5,-80.79"/>
<text text-anchor="middle" x="921" y="-59.09" font-family="Helvetica,sans-Serif" font-size="14.00">src/storage/lock.ts</text>
</g>
<!-- src/storage/query.ts -->
<g id="node18" class="node">
<title>src/storage/query.ts</title>
<path fill="#79cdcd" stroke="#79cdcd" d="M680.5,-65.79C680.5,-65.79 570.5,-65.79 570.5,-65.79 564.5,-65.79 558.5,-59.79 558.5,-53.79 558.5,-53.79 558.5,-41.79 558.5,-41.79 558.5,-35.79 564.5,-29.79 570.5,-29.79 570.5,-29.79 680.5,-29.79 680.5,-29.79 686.5,-29.79 692.5,-35.79 692.5,-41.79 692.5,-41.79 692.5,-53.79 692.5,-53.79 692.5,-59.79 686.5,-65.79 680.5,-65.79"/>
<text text-anchor="middle" x="625.5" y="-44.09" font-family="Helvetica,sans-Serif" font-size="14.00">src/storage/query.ts</text>
</g>
<!-- src/storage/query.ts&#45;&gt;src/storage/query&#45;types.ts -->
<g id="edge29" class="edge">
<title>src/storage/query.ts&#45;&gt;src/storage/query&#45;types.ts</title>
<path fill="none" stroke="#528b8b" stroke-width="2" d="M692.68,-57.4C717.54,-62.33 745.66,-69.52 770,-79.79 814.87,-98.71 860.96,-131.13 889.99,-153.47"/>
<polygon fill="#528b8b" stroke="#528b8b" stroke-width="2" points="888.03,-156.39 898.07,-159.77 892.34,-150.86 888.03,-156.39"/>
</g>
<!-- src/storage/storage&#45;async.ts&#45;&gt;src/crypto/crypto.ts -->
<g id="edge35" class="edge">
<title>src/storage/storage&#45;async.ts&#45;&gt;src/crypto/crypto.ts</title>
<path fill="none" stroke="#528b8b" stroke-width="2" d="M363.53,-371.79C397.43,-382.3 441.49,-395.49 481,-405.79 503.48,-411.64 528.12,-417.38 550.54,-422.35"/>
<polygon fill="#528b8b" stroke="#528b8b" stroke-width="2" points="549.81,-425.77 560.33,-424.5 551.32,-418.93 549.81,-425.77"/>
</g>
<!-- src/storage/storage&#45;async.ts&#45;&gt;src/format&#45;validators/format&#45;validator&#45;types.ts -->
<g id="edge33" class="edge">
<title>src/storage/storage&#45;async.ts&#45;&gt;src/format&#45;validators/format&#45;validator&#45;types.ts</title>
<path fill="none" stroke="#528b8b" stroke-width="2" d="M332.04,-371.91C365.06,-395.31 425.5,-436.38 481,-464.79 507.03,-478.1 536.92,-490.42 562.67,-500.17"/>
<polygon fill="#528b8b" stroke="#528b8b" stroke-width="2" points="561.72,-503.55 572.32,-503.78 564.18,-497 561.72,-503.55"/>
</g>
<!-- src/storage/storage&#45;async.ts&#45;&gt;src/storage/compare.ts -->
<g id="edge34" class="edge">
<title>src/storage/storage&#45;async.ts&#45;&gt;src/storage/compare.ts</title>
<path fill="none" stroke="#528b8b" stroke-width="2" d="M399.26,-340.42C442.91,-334.1 494.74,-326.59 537.67,-320.37"/>
<polygon fill="#528b8b" stroke="#528b8b" stroke-width="2" points="538.42,-323.79 547.82,-318.9 537.42,-316.87 538.42,-323.79"/>
</g>
<!-- src/storage/storage&#45;async.ts&#45;&gt;src/storage/query&#45;types.ts -->
<g id="edge31" class="edge">
<title>src/storage/storage&#45;async.ts&#45;&gt;src/storage/query&#45;types.ts</title>
<path fill="none" stroke="#528b8b" stroke-width="2" d="M399.26,-355.71C526.03,-357.49 741.69,-357.11 770,-334.79 816.07,-298.46 764.13,-248.88 806,-207.79 811.75,-202.14 818.43,-197.52 825.62,-193.75"/>
<polygon fill="#528b8b" stroke="#528b8b" stroke-width="2" points="827.36,-196.8 834.96,-189.41 824.41,-190.45 827.36,-196.8"/>
</g>
<!-- src/storage/storage&#45;async.ts&#45;&gt;src/storage/storage&#45;types.ts -->
<g id="edge32" class="edge">
<title>src/storage/storage&#45;async.ts&#45;&gt;src/storage/storage&#45;types.ts</title>
<path fill="none" stroke="#528b8b" stroke-width="2" d="M339.49,-335.78C397.48,-303.63 518.75,-236.41 582.8,-200.9"/>
<polygon fill="#528b8b" stroke="#528b8b" stroke-width="2" points="584.77,-203.81 591.82,-195.9 581.38,-197.69 584.77,-203.81"/>
</g>
<!-- src/storage/storage&#45;async.ts&#45;&gt;src/storage/util&#45;types.ts -->
<g id="edge30" class="edge">
<title>src/storage/storage&#45;async.ts&#45;&gt;src/storage/util&#45;types.ts</title>
<path fill="none" stroke="#528b8b" stroke-width="2" d="M399.04,-369.34C516.88,-387.12 712.72,-408.83 770,-367.79 810.44,-338.81 769.19,-295.26 806,-261.79 814.01,-254.5 823.61,-249.08 833.8,-245.06"/>
<polygon fill="#528b8b" stroke="#528b8b" stroke-width="2" points="835.01,-248.35 843.3,-241.75 832.7,-241.74 835.01,-248.35"/>
</g>
<!-- src/storage/storage&#45;driver&#45;async&#45;memory.ts&#45;&gt;src/storage/compare.ts -->
<g id="edge39" class="edge">
<title>src/storage/storage&#45;driver&#45;async&#45;memory.ts&#45;&gt;src/storage/compare.ts</title>
<path fill="none" stroke="#528b8b" stroke-width="2" d="M339.49,-149.79C397.48,-181.94 518.75,-249.16 582.8,-284.67"/>
<polygon fill="#528b8b" stroke="#528b8b" stroke-width="2" points="581.38,-287.88 591.82,-289.67 584.77,-281.76 581.38,-287.88"/>
</g>
<!-- src/storage/storage&#45;driver&#45;async&#45;memory.ts&#45;&gt;src/storage/lock.ts -->
<g id="edge41" class="edge">
<title>src/storage/storage&#45;driver&#45;async&#45;memory.ts&#45;&gt;src/storage/lock.ts</title>
<path fill="none" stroke="#528b8b" stroke-width="2" d="M326.77,-113.68C357.2,-87.18 418.57,-39 481,-20.79 604.3,15.19 642.75,-3.31 770,-20.79 799.95,-24.9 832.34,-33.43 859.33,-41.73"/>
<polygon fill="#528b8b" stroke="#528b8b" stroke-width="2" points="858.43,-45.12 869.02,-44.77 860.52,-38.44 858.43,-45.12"/>
</g>
<!-- src/storage/storage&#45;driver&#45;async&#45;memory.ts&#45;&gt;src/storage/query&#45;types.ts -->
<g id="edge37" class="edge">
<title>src/storage/storage&#45;driver&#45;async&#45;memory.ts&#45;&gt;src/storage/query&#45;types.ts</title>
<path fill="none" stroke="#528b8b" stroke-width="2" d="M428.07,-113.74C522.17,-103.15 655.5,-95.73 770,-117.79 807.4,-124.99 847.33,-141.43 876.59,-155.29"/>
<polygon fill="#528b8b" stroke="#528b8b" stroke-width="2" points="875.16,-158.49 885.69,-159.68 878.2,-152.18 875.16,-158.49"/>
</g>
<!-- src/storage/storage&#45;driver&#45;async&#45;memory.ts&#45;&gt;src/storage/query.ts -->
<g id="edge40" class="edge">
<title>src/storage/storage&#45;driver&#45;async&#45;memory.ts&#45;&gt;src/storage/query.ts</title>
<path fill="none" stroke="#528b8b" stroke-width="2" d="M363.53,-113.78C397.43,-103.27 441.49,-90.08 481,-79.79 502.74,-74.12 526.5,-68.57 548.31,-63.72"/>
<polygon fill="#528b8b" stroke="#528b8b" stroke-width="2" points="549.17,-67.12 558.18,-61.55 547.66,-60.28 549.17,-67.12"/>
</g>
<!-- src/storage/storage&#45;driver&#45;async&#45;memory.ts&#45;&gt;src/storage/storage&#45;types.ts -->
<g id="edge38" class="edge">
<title>src/storage/storage&#45;driver&#45;async&#45;memory.ts&#45;&gt;src/storage/storage&#45;types.ts</title>
<path fill="none" stroke="#528b8b" stroke-width="2" d="M431.57,-149.83C462.03,-154.25 494.25,-158.92 523.46,-163.15"/>
<polygon fill="#528b8b" stroke="#528b8b" stroke-width="2" points="523.26,-166.65 533.66,-164.62 524.26,-159.73 523.26,-166.65"/>
</g>
<!-- src/storage/storage&#45;driver&#45;async&#45;memory.ts&#45;&gt;src/storage/util&#45;types.ts -->
<g id="edge36" class="edge">
<title>src/storage/storage&#45;driver&#45;async&#45;memory.ts&#45;&gt;src/storage/util&#45;types.ts</title>
<path fill="none" stroke="#528b8b" stroke-width="2" d="M445.2,-123.91C561.19,-119.74 716.3,-120.61 770,-150.79 795.15,-164.91 782.53,-188.02 806,-204.79 814.39,-210.78 823.9,-215.57 833.76,-219.41"/>
<polygon fill="#528b8b" stroke="#528b8b" stroke-width="2" points="832.69,-222.75 843.29,-222.81 835.04,-216.16 832.69,-222.75"/>
</g>
<!-- src/storage/storage&#45;types.ts&#45;&gt;src/storage/lock.ts -->
<g id="edge43" class="edge">
<title>src/storage/storage&#45;types.ts&#45;&gt;src/storage/lock.ts</title>
<path fill="none" stroke="#528b8b" stroke-width="2" d="M672.68,-159.69C724.57,-139.36 808.77,-106.37 864.27,-84.62"/>
<polygon fill="#528b8b" stroke="#528b8b" stroke-width="2" points="865.57,-87.87 873.6,-80.97 863.02,-81.35 865.57,-87.87"/>
</g>
<!-- src/storage/storage&#45;types.ts&#45;&gt;src/storage/query&#45;types.ts -->
<g id="edge42" class="edge">
<title>src/storage/storage&#45;types.ts&#45;&gt;src/storage/query&#45;types.ts</title>
<path fill="none" stroke="#528b8b" stroke-width="2" d="M717.36,-177.79C751.37,-177.79 790.1,-177.79 824.52,-177.79"/>
<polygon fill="#528b8b" stroke="#528b8b" stroke-width="2" points="824.58,-181.29 834.58,-177.79 824.58,-174.29 824.58,-181.29"/>
</g>
</g>
</svg>
