<?xml version="1.0" encoding="UTF-8" standalone="no"?>
<!DOCTYPE svg PUBLIC "-//W3C//DTD SVG 1.1//EN"
 "http://www.w3.org/Graphics/SVG/1.1/DTD/svg11.dtd">
<!-- Generated by graphviz version 2.44.1 (20200629.0846)
 -->
<!-- Title: G Pages: 1 -->
<svg width="1215pt" height="838pt"
 viewBox="0.00 0.00 1215.00 838.00" xmlns="http://www.w3.org/2000/svg" xmlns:xlink="http://www.w3.org/1999/xlink">
<g id="graph0" class="graph" transform="scale(1 1) rotate(0) translate(4 834)">
<title>G</title>
<polygon fill="white" stroke="transparent" points="-4,4 -4,-834 1211,-834 1211,4 -4,4"/>
<g id="clust1" class="cluster">
<title>cluster5283925628</title>
<path fill="none" stroke="#8b7d6b" stroke-width="2" d="M20,-8C20,-8 1187,-8 1187,-8 1193,-8 1199,-14 1199,-20 1199,-20 1199,-810 1199,-810 1199,-816 1193,-822 1187,-822 1187,-822 20,-822 20,-822 14,-822 8,-816 8,-810 8,-810 8,-20 8,-20 8,-14 14,-8 20,-8"/>
<text text-anchor="start" x="593" y="-807.8" font-family="Helvetica,sans-Serif" font-weight="bold" font-size="14.00">src</text>
</g>
<g id="clust2" class="cluster">
<title>cluster2403726625</title>
<path fill="bisque" stroke="#8b7d6b" stroke-width="2" d="M958.5,-28C958.5,-28 1179,-28 1179,-28 1185,-28 1191,-34 1191,-40 1191,-40 1191,-145 1191,-145 1191,-151 1185,-157 1179,-157 1179,-157 958.5,-157 958.5,-157 952.5,-157 946.5,-151 946.5,-145 946.5,-145 946.5,-40 946.5,-40 946.5,-34 952.5,-28 958.5,-28"/>
<text text-anchor="start" x="1020.25" y="-142.8" font-family="Helvetica,sans-Serif" font-weight="bold" font-size="14.00">core&#45;validators</text>
</g>
<g id="clust3" class="cluster">
<title>cluster9642433281</title>
<path fill="bisque" stroke="#8b7d6b" stroke-width="2" d="M604,-514C604,-514 1049,-514 1049,-514 1055,-514 1061,-520 1061,-526 1061,-526 1061,-779 1061,-779 1061,-785 1055,-791 1049,-791 1049,-791 604,-791 604,-791 598,-791 592,-785 592,-779 592,-779 592,-526 592,-526 592,-520 598,-514 604,-514"/>
<text text-anchor="start" x="805.5" y="-776.8" font-family="Helvetica,sans-Serif" font-weight="bold" font-size="14.00">crypto</text>
</g>
<g id="clust4" class="cluster">
<title>cluster5170774827</title>
<path fill="bisque" stroke="#8b7d6b" stroke-width="2" d="M562,-88C562,-88 906.5,-88 906.5,-88 912.5,-88 918.5,-94 918.5,-100 918.5,-100 918.5,-151 918.5,-151 918.5,-157 912.5,-163 906.5,-163 906.5,-163 562,-163 562,-163 556,-163 550,-157 550,-151 550,-151 550,-100 550,-100 550,-94 556,-88 562,-88"/>
<text text-anchor="start" x="678.25" y="-148.8" font-family="Helvetica,sans-Serif" font-weight="bold" font-size="14.00">format&#45;validators</text>
</g>
<g id="clust5" class="cluster">
<title>cluster4488928319</title>
<path fill="bisque" stroke="#8b7d6b" stroke-width="2" d="M166,-171C166,-171 876,-171 876,-171 882,-171 888,-177 888,-183 888,-183 888,-482 888,-482 888,-488 882,-494 876,-494 876,-494 166,-494 166,-494 160,-494 154,-488 154,-482 154,-482 154,-183 154,-183 154,-177 160,-171 166,-171"/>
<text text-anchor="start" x="496.5" y="-479.8" font-family="Helvetica,sans-Serif" font-weight="bold" font-size="14.00">storage</text>
</g>
<!-- src/example&#45;app.ts -->
<g id="node1" class="node">
<title>src/example&#45;app.ts</title>
<path fill="#79cdcd" stroke="#79cdcd" d="M114,-398C114,-398 28,-398 28,-398 22,-398 16,-392 16,-386 16,-386 16,-374 16,-374 16,-368 22,-362 28,-362 28,-362 114,-362 114,-362 120,-362 126,-368 126,-374 126,-374 126,-386 126,-386 126,-392 120,-398 114,-398"/>
<text text-anchor="middle" x="71" y="-376.3" font-family="Helvetica,sans-Serif" font-size="14.00">example&#45;app.ts</text>
</g>
<!-- src/crypto/crypto&#45;driver&#45;tweetnacl.ts -->
<g id="node8" class="node">
<title>src/crypto/crypto&#45;driver&#45;tweetnacl.ts</title>
<path fill="#79cdcd" stroke="#79cdcd" d="M901,-558C901,-558 758,-558 758,-558 752,-558 746,-552 746,-546 746,-546 746,-534 746,-534 746,-528 752,-522 758,-522 758,-522 901,-522 901,-522 907,-522 913,-528 913,-534 913,-534 913,-546 913,-546 913,-552 907,-558 901,-558"/>
<text text-anchor="middle" x="829.5" y="-536.3" font-family="Helvetica,sans-Serif" font-size="14.00">crypto&#45;driver&#45;tweetnacl.ts</text>
</g>
<!-- src/example&#45;app.ts&#45;&gt;src/crypto/crypto&#45;driver&#45;tweetnacl.ts -->
<g id="edge17" class="edge">
<title>src/example&#45;app.ts&#45;&gt;src/crypto/crypto&#45;driver&#45;tweetnacl.ts</title>
<path fill="none" stroke="#528b8b" stroke-width="2" d="M78.68,-398.29C89.68,-425.48 114.44,-475.72 154,-498 203.4,-525.82 562.67,-535.57 735.76,-538.68"/>
<polygon fill="#528b8b" stroke="#528b8b" stroke-width="2" points="735.82,-542.18 745.88,-538.86 735.94,-535.18 735.82,-542.18"/>
</g>
<!-- src/crypto/crypto.ts -->
<g id="node10" class="node">
<title>src/crypto/crypto.ts</title>
<path fill="#79cdcd" stroke="#79cdcd" d="M656,-720C656,-720 612,-720 612,-720 606,-720 600,-714 600,-708 600,-708 600,-696 600,-696 600,-690 606,-684 612,-684 612,-684 656,-684 656,-684 662,-684 668,-690 668,-696 668,-696 668,-708 668,-708 668,-714 662,-720 656,-720"/>
<text text-anchor="middle" x="634" y="-698.3" font-family="Helvetica,sans-Serif" font-size="14.00">crypto.ts</text>
</g>
<!-- src/example&#45;app.ts&#45;&gt;src/crypto/crypto.ts -->
<g id="edge16" class="edge">
<title>src/example&#45;app.ts&#45;&gt;src/crypto/crypto.ts</title>
<path fill="none" stroke="#528b8b" stroke-width="2" d="M77.71,-398.33C88.12,-428.88 112.95,-490.36 154,-526 286.05,-640.65 499.25,-683.13 589.94,-696.58"/>
<polygon fill="#528b8b" stroke="#528b8b" stroke-width="2" points="589.48,-700.05 599.87,-698 590.47,-693.12 589.48,-700.05"/>
</g>
<!-- src/format&#45;validators/format&#45;validator&#45;es4.ts -->
<g id="node12" class="node">
<title>src/format&#45;validators/format&#45;validator&#45;es4.ts</title>
<path fill="#79cdcd" stroke="#79cdcd" d="M698,-132C698,-132 570,-132 570,-132 564,-132 558,-126 558,-120 558,-120 558,-108 558,-108 558,-102 564,-96 570,-96 570,-96 698,-96 698,-96 704,-96 710,-102 710,-108 710,-108 710,-120 710,-120 710,-126 704,-132 698,-132"/>
<text text-anchor="middle" x="634" y="-110.3" font-family="Helvetica,sans-Serif" font-size="14.00">format&#45;validator&#45;es4.ts</text>
</g>
<!-- src/example&#45;app.ts&#45;&gt;src/format&#45;validators/format&#45;validator&#45;es4.ts -->
<g id="edge13" class="edge">
<title>src/example&#45;app.ts&#45;&gt;src/format&#45;validators/format&#45;validator&#45;es4.ts</title>
<path fill="none" stroke="#528b8b" stroke-width="2" d="M72.97,-361.78C76.27,-319.72 90.77,-215.75 154,-167 267.51,-79.5 443.57,-85.37 547.66,-98.83"/>
<polygon fill="#528b8b" stroke="#528b8b" stroke-width="2" points="547.44,-102.33 557.81,-100.2 548.37,-95.39 547.44,-102.33"/>
</g>
<!-- src/storage/query&#45;follower.ts -->
<g id="node17" class="node">
<title>src/storage/query&#45;follower.ts</title>
<path fill="#79cdcd" stroke="#79cdcd" d="M266,-380C266,-380 174,-380 174,-380 168,-380 162,-374 162,-368 162,-368 162,-356 162,-356 162,-350 168,-344 174,-344 174,-344 266,-344 266,-344 272,-344 278,-350 278,-356 278,-356 278,-368 278,-368 278,-374 272,-380 266,-380"/>
<text text-anchor="middle" x="220" y="-358.3" font-family="Helvetica,sans-Serif" font-size="14.00">query&#45;follower.ts</text>
</g>
<!-- src/example&#45;app.ts&#45;&gt;src/storage/query&#45;follower.ts -->
<g id="edge18" class="edge">
<title>src/example&#45;app.ts&#45;&gt;src/storage/query&#45;follower.ts</title>
<path fill="none" stroke="#528b8b" stroke-width="2" d="M126.32,-373.35C134.67,-372.33 143.37,-371.26 151.95,-370.21"/>
<polygon fill="#528b8b" stroke="#528b8b" stroke-width="2" points="152.45,-373.68 161.95,-368.99 151.6,-366.73 152.45,-373.68"/>
</g>
<!-- src/storage/storage&#45;async.ts -->
<g id="node20" class="node">
<title>src/storage/storage&#45;async.ts</title>
<path fill="#79cdcd" stroke="#79cdcd" d="M464,-289C464,-289 372,-289 372,-289 366,-289 360,-283 360,-277 360,-277 360,-265 360,-265 360,-259 366,-253 372,-253 372,-253 464,-253 464,-253 470,-253 476,-259 476,-265 476,-265 476,-277 476,-277 476,-283 470,-289 464,-289"/>
<text text-anchor="middle" x="418" y="-267.3" font-family="Helvetica,sans-Serif" font-size="14.00">storage&#45;async.ts</text>
</g>
<!-- src/example&#45;app.ts&#45;&gt;src/storage/storage&#45;async.ts -->
<g id="edge15" class="edge">
<title>src/example&#45;app.ts&#45;&gt;src/storage/storage&#45;async.ts</title>
<path fill="none" stroke="#528b8b" stroke-width="2" d="M122.77,-398.03C167.55,-410.5 232.56,-419.89 278,-389 313.97,-364.55 281.45,-326.85 314,-298 324.09,-289.06 336.78,-283.02 349.79,-278.96"/>
<polygon fill="#528b8b" stroke="#528b8b" stroke-width="2" points="351.03,-282.24 359.75,-276.22 349.18,-275.49 351.03,-282.24"/>
</g>
<!-- src/storage/storage&#45;driver&#45;async&#45;memory.ts -->
<g id="node21" class="node">
<title>src/storage/storage&#45;driver&#45;async&#45;memory.ts</title>
<path fill="#79cdcd" stroke="#79cdcd" d="M510,-343C510,-343 326,-343 326,-343 320,-343 314,-337 314,-331 314,-331 314,-319 314,-319 314,-313 320,-307 326,-307 326,-307 510,-307 510,-307 516,-307 522,-313 522,-319 522,-319 522,-331 522,-331 522,-337 516,-343 510,-343"/>
<text text-anchor="middle" x="418" y="-321.3" font-family="Helvetica,sans-Serif" font-size="14.00">storage&#45;driver&#45;async&#45;memory.ts</text>
</g>
<!-- src/example&#45;app.ts&#45;&gt;src/storage/storage&#45;driver&#45;async&#45;memory.ts -->
<g id="edge14" class="edge">
<title>src/example&#45;app.ts&#45;&gt;src/storage/storage&#45;driver&#45;async&#45;memory.ts</title>
<path fill="none" stroke="#528b8b" stroke-width="2" d="M97.61,-361.89C113.15,-351.97 133.81,-340.59 154,-335 201.9,-321.75 256.57,-317.95 303.62,-317.97"/>
<polygon fill="#528b8b" stroke="#528b8b" stroke-width="2" points="303.82,-321.47 313.84,-318.03 303.87,-314.47 303.82,-321.47"/>
</g>
<!-- src/core&#45;validators/addresses.ts -->
<g id="node2" class="node">
<title>src/core&#45;validators/addresses.ts</title>
<path fill="#79cdcd" stroke="#79cdcd" d="M1035.5,-126C1035.5,-126 966.5,-126 966.5,-126 960.5,-126 954.5,-120 954.5,-114 954.5,-114 954.5,-102 954.5,-102 954.5,-96 960.5,-90 966.5,-90 966.5,-90 1035.5,-90 1035.5,-90 1041.5,-90 1047.5,-96 1047.5,-102 1047.5,-102 1047.5,-114 1047.5,-114 1047.5,-120 1041.5,-126 1035.5,-126"/>
<text text-anchor="middle" x="1001" y="-104.3" font-family="Helvetica,sans-Serif" font-size="14.00">addresses.ts</text>
</g>
<!-- src/core&#45;validators/characters.ts -->
<g id="node3" class="node">
<title>src/core&#45;validators/characters.ts</title>
<path fill="#79cdcd" stroke="#79cdcd" d="M1171,-72C1171,-72 1101,-72 1101,-72 1095,-72 1089,-66 1089,-60 1089,-60 1089,-48 1089,-48 1089,-42 1095,-36 1101,-36 1101,-36 1171,-36 1171,-36 1177,-36 1183,-42 1183,-48 1183,-48 1183,-60 1183,-60 1183,-66 1177,-72 1171,-72"/>
<text text-anchor="middle" x="1136" y="-50.3" font-family="Helvetica,sans-Serif" font-size="14.00">characters.ts</text>
</g>
<!-- src/core&#45;validators/addresses.ts&#45;&gt;src/core&#45;validators/characters.ts -->
<g id="edge1" class="edge">
<title>src/core&#45;validators/addresses.ts&#45;&gt;src/core&#45;validators/characters.ts</title>
<path fill="none" stroke="#528b8b" stroke-width="2" d="M1046.66,-89.87C1057.62,-85.42 1069.48,-80.6 1080.84,-75.99"/>
<polygon fill="#528b8b" stroke="#528b8b" stroke-width="2" points="1082.29,-79.18 1090.23,-72.18 1079.65,-72.69 1082.29,-79.18"/>
</g>
<!-- src/core&#45;validators/checkers.ts -->
<g id="node4" class="node">
<title>src/core&#45;validators/checkers.ts</title>
<path fill="#79cdcd" stroke="#79cdcd" d="M1031.5,-72C1031.5,-72 970.5,-72 970.5,-72 964.5,-72 958.5,-66 958.5,-60 958.5,-60 958.5,-48 958.5,-48 958.5,-42 964.5,-36 970.5,-36 970.5,-36 1031.5,-36 1031.5,-36 1037.5,-36 1043.5,-42 1043.5,-48 1043.5,-48 1043.5,-60 1043.5,-60 1043.5,-66 1037.5,-72 1031.5,-72"/>
<text text-anchor="middle" x="1001" y="-50.3" font-family="Helvetica,sans-Serif" font-size="14.00">checkers.ts</text>
</g>
<!-- src/core&#45;validators/checkers.ts&#45;&gt;src/core&#45;validators/characters.ts -->
<g id="edge2" class="edge">
<title>src/core&#45;validators/checkers.ts&#45;&gt;src/core&#45;validators/characters.ts</title>
<path fill="none" stroke="#528b8b" stroke-width="2" d="M1043.72,-54C1054.79,-54 1066.94,-54 1078.66,-54"/>
<polygon fill="#528b8b" stroke="#528b8b" stroke-width="2" points="1078.81,-57.5 1088.81,-54 1078.81,-50.5 1078.81,-57.5"/>
</g>
<!-- src/crypto/base32.ts -->
<g id="node5" class="node">
<title>src/crypto/base32.ts</title>
<path fill="#79cdcd" stroke="#79cdcd" d="M1026.5,-740C1026.5,-740 975.5,-740 975.5,-740 969.5,-740 963.5,-734 963.5,-728 963.5,-728 963.5,-716 963.5,-716 963.5,-710 969.5,-704 975.5,-704 975.5,-704 1026.5,-704 1026.5,-704 1032.5,-704 1038.5,-710 1038.5,-716 1038.5,-716 1038.5,-728 1038.5,-728 1038.5,-734 1032.5,-740 1026.5,-740"/>
<text text-anchor="middle" x="1001" y="-718.3" font-family="Helvetica,sans-Serif" font-size="14.00">base32.ts</text>
</g>
<!-- src/crypto/crypto&#45;driver&#45;chloride.ts -->
<g id="node6" class="node">
<title>src/crypto/crypto&#45;driver&#45;chloride.ts</title>
<path fill="#79cdcd" stroke="#79cdcd" d="M896.5,-666C896.5,-666 762.5,-666 762.5,-666 756.5,-666 750.5,-660 750.5,-654 750.5,-654 750.5,-642 750.5,-642 750.5,-636 756.5,-630 762.5,-630 762.5,-630 896.5,-630 896.5,-630 902.5,-630 908.5,-636 908.5,-642 908.5,-642 908.5,-654 908.5,-654 908.5,-660 902.5,-666 896.5,-666"/>
<text text-anchor="middle" x="829.5" y="-644.3" font-family="Helvetica,sans-Serif" font-size="14.00">crypto&#45;driver&#45;chloride.ts</text>
</g>
<!-- src/crypto/crypto&#45;types.ts -->
<g id="node9" class="node">
<title>src/crypto/crypto&#45;types.ts</title>
<path fill="#79cdcd" stroke="#79cdcd" d="M1041,-612C1041,-612 961,-612 961,-612 955,-612 949,-606 949,-600 949,-600 949,-588 949,-588 949,-582 955,-576 961,-576 961,-576 1041,-576 1041,-576 1047,-576 1053,-582 1053,-588 1053,-588 1053,-600 1053,-600 1053,-606 1047,-612 1041,-612"/>
<text text-anchor="middle" x="1001" y="-590.3" font-family="Helvetica,sans-Serif" font-size="14.00">crypto&#45;types.ts</text>
</g>
<!-- src/crypto/crypto&#45;driver&#45;chloride.ts&#45;&gt;src/crypto/crypto&#45;types.ts -->
<g id="edge3" class="edge">
<title>src/crypto/crypto&#45;driver&#45;chloride.ts&#45;&gt;src/crypto/crypto&#45;types.ts</title>
<path fill="none" stroke="#528b8b" stroke-width="2" d="M890.2,-629.88C899.68,-626.95 909.37,-623.91 918.5,-621 925.08,-618.9 931.95,-616.67 938.79,-614.44"/>
<polygon fill="#528b8b" stroke="#528b8b" stroke-width="2" points="940.35,-617.61 948.76,-611.17 938.16,-610.96 940.35,-617.61"/>
</g>
<!-- src/crypto/crypto&#45;driver&#45;node.ts -->
<g id="node7" class="node">
<title>src/crypto/crypto&#45;driver&#45;node.ts</title>
<path fill="#79cdcd" stroke="#79cdcd" d="M887.5,-612C887.5,-612 771.5,-612 771.5,-612 765.5,-612 759.5,-606 759.5,-600 759.5,-600 759.5,-588 759.5,-588 759.5,-582 765.5,-576 771.5,-576 771.5,-576 887.5,-576 887.5,-576 893.5,-576 899.5,-582 899.5,-588 899.5,-588 899.5,-600 899.5,-600 899.5,-606 893.5,-612 887.5,-612"/>
<text text-anchor="middle" x="829.5" y="-590.3" font-family="Helvetica,sans-Serif" font-size="14.00">crypto&#45;driver&#45;node.ts</text>
</g>
<!-- src/crypto/crypto&#45;driver&#45;node.ts&#45;&gt;src/crypto/crypto&#45;types.ts -->
<g id="edge4" class="edge">
<title>src/crypto/crypto&#45;driver&#45;node.ts&#45;&gt;src/crypto/crypto&#45;types.ts</title>
<path fill="none" stroke="#528b8b" stroke-width="2" d="M899.93,-594C912.72,-594 925.98,-594 938.51,-594"/>
<polygon fill="#528b8b" stroke="#528b8b" stroke-width="2" points="938.84,-597.5 948.84,-594 938.84,-590.5 938.84,-597.5"/>
</g>
<!-- src/crypto/crypto&#45;driver&#45;tweetnacl.ts&#45;&gt;src/crypto/crypto&#45;types.ts -->
<g id="edge5" class="edge">
<title>src/crypto/crypto&#45;driver&#45;tweetnacl.ts&#45;&gt;src/crypto/crypto&#45;types.ts</title>
<path fill="none" stroke="#528b8b" stroke-width="2" d="M890.2,-558.12C899.68,-561.05 909.37,-564.09 918.5,-567 925.08,-569.1 931.95,-571.33 938.79,-573.56"/>
<polygon fill="#528b8b" stroke="#528b8b" stroke-width="2" points="938.16,-577.04 948.76,-576.83 940.35,-570.39 938.16,-577.04"/>
</g>
<!-- src/crypto/crypto.ts&#45;&gt;src/core&#45;validators/addresses.ts -->
<g id="edge9" class="edge">
<title>src/crypto/crypto.ts&#45;&gt;src/core&#45;validators/addresses.ts</title>
<path fill="none" stroke="#528b8b" stroke-width="2" d="M639.62,-683.78C650.57,-644.75 682.13,-553.33 746,-513 778.53,-492.46 889.72,-523.54 918.5,-498 972.84,-449.78 992.88,-218.09 998.32,-136.5"/>
<polygon fill="#528b8b" stroke="#528b8b" stroke-width="2" points="1001.82,-136.65 998.97,-126.45 994.83,-136.21 1001.82,-136.65"/>
</g>
<!-- src/crypto/crypto.ts&#45;&gt;src/crypto/base32.ts -->
<g id="edge7" class="edge">
<title>src/crypto/crypto.ts&#45;&gt;src/crypto/base32.ts</title>
<path fill="none" stroke="#528b8b" stroke-width="2" d="M668.1,-718.14C689.7,-727.76 718.84,-739.03 746,-744 821.42,-757.79 842.5,-754.08 918.5,-744 930.07,-742.47 942.34,-739.76 953.74,-736.75"/>
<polygon fill="#528b8b" stroke="#528b8b" stroke-width="2" points="954.79,-740.09 963.5,-734.06 952.93,-733.34 954.79,-740.09"/>
</g>
<!-- src/crypto/crypto.ts&#45;&gt;src/crypto/crypto&#45;types.ts -->
<g id="edge6" class="edge">
<title>src/crypto/crypto.ts&#45;&gt;src/crypto/crypto&#45;types.ts</title>
<path fill="none" stroke="#528b8b" stroke-width="2" d="M668.13,-712.26C690,-718.48 719.42,-725.81 746,-729 784.06,-733.56 885.12,-747.84 918.5,-729 929.21,-722.95 965.07,-658.83 985.47,-621.18"/>
<polygon fill="#528b8b" stroke="#528b8b" stroke-width="2" points="988.63,-622.69 990.3,-612.22 982.47,-619.36 988.63,-622.69"/>
</g>
<!-- src/crypto/keypair.ts -->
<g id="node11" class="node">
<title>src/crypto/keypair.ts</title>
<path fill="#79cdcd" stroke="#79cdcd" d="M854.5,-720C854.5,-720 804.5,-720 804.5,-720 798.5,-720 792.5,-714 792.5,-708 792.5,-708 792.5,-696 792.5,-696 792.5,-690 798.5,-684 804.5,-684 804.5,-684 854.5,-684 854.5,-684 860.5,-684 866.5,-690 866.5,-696 866.5,-696 866.5,-708 866.5,-708 866.5,-714 860.5,-720 854.5,-720"/>
<text text-anchor="middle" x="829.5" y="-698.3" font-family="Helvetica,sans-Serif" font-size="14.00">keypair.ts</text>
</g>
<!-- src/crypto/crypto.ts&#45;&gt;src/crypto/keypair.ts -->
<g id="edge8" class="edge">
<title>src/crypto/crypto.ts&#45;&gt;src/crypto/keypair.ts</title>
<path fill="none" stroke="#528b8b" stroke-width="2" d="M668.26,-702C699.74,-702 747.25,-702 782.38,-702"/>
<polygon fill="#528b8b" stroke="#528b8b" stroke-width="2" points="782.39,-705.5 792.39,-702 782.39,-698.5 782.39,-705.5"/>
</g>
<!-- src/crypto/keypair.ts&#45;&gt;src/core&#45;validators/addresses.ts -->
<g id="edge12" class="edge">
<title>src/crypto/keypair.ts&#45;&gt;src/core&#45;validators/addresses.ts</title>
<path fill="none" stroke="#528b8b" stroke-width="2" d="M866.73,-699.8C884.9,-696.75 905.72,-689.93 918.5,-675 927.44,-664.56 981.74,-249.15 996.37,-136.13"/>
<polygon fill="#528b8b" stroke="#528b8b" stroke-width="2" points="999.85,-136.53 997.66,-126.16 992.91,-135.63 999.85,-136.53"/>
</g>
<!-- src/crypto/keypair.ts&#45;&gt;src/crypto/base32.ts -->
<g id="edge10" class="edge">
<title>src/crypto/keypair.ts&#45;&gt;src/crypto/base32.ts</title>
<path fill="none" stroke="#528b8b" stroke-width="2" d="M866.86,-706.29C892.13,-709.27 926.04,-713.27 953.31,-716.49"/>
<polygon fill="#528b8b" stroke="#528b8b" stroke-width="2" points="953.06,-719.99 963.41,-717.68 953.89,-713.03 953.06,-719.99"/>
</g>
<!-- src/crypto/keypair.ts&#45;&gt;src/crypto/crypto&#45;types.ts -->
<g id="edge11" class="edge">
<title>src/crypto/keypair.ts&#45;&gt;src/crypto/crypto&#45;types.ts</title>
<path fill="none" stroke="#528b8b" stroke-width="2" d="M866.83,-695.05C883.38,-690.86 902.74,-684.45 918.5,-675 942.54,-660.59 964.74,-637.6 979.88,-619.79"/>
<polygon fill="#528b8b" stroke="#528b8b" stroke-width="2" points="982.63,-621.95 986.32,-612.02 977.24,-617.49 982.63,-621.95"/>
</g>
<!-- src/format&#45;validators/format&#45;validator&#45;es4.ts&#45;&gt;src/core&#45;validators/addresses.ts -->
<g id="edge23" class="edge">
<title>src/format&#45;validators/format&#45;validator&#45;es4.ts&#45;&gt;src/core&#45;validators/addresses.ts</title>
<path fill="none" stroke="#528b8b" stroke-width="2" d="M672.55,-95.9C693.61,-86.76 720.66,-76.63 746,-72 821.42,-58.21 843.49,-56.17 918.5,-72 925.95,-73.57 939.72,-79.26 953.85,-85.66"/>
<polygon fill="#528b8b" stroke="#528b8b" stroke-width="2" points="952.58,-88.93 963.12,-89.94 955.51,-82.57 952.58,-88.93"/>
</g>
<!-- src/format&#45;validators/format&#45;validator&#45;es4.ts&#45;&gt;src/core&#45;validators/characters.ts -->
<g id="edge21" class="edge">
<title>src/format&#45;validators/format&#45;validator&#45;es4.ts&#45;&gt;src/core&#45;validators/characters.ts</title>
<path fill="none" stroke="#528b8b" stroke-width="2" d="M654.47,-95.98C675.35,-77.92 710.32,-51.1 746,-39 878.68,6 923.04,-2.62 1061,-27 1068.49,-28.32 1076.22,-30.35 1083.73,-32.7"/>
<polygon fill="#528b8b" stroke="#528b8b" stroke-width="2" points="1082.85,-36.1 1093.44,-35.96 1085.07,-29.46 1082.85,-36.1"/>
</g>
<!-- src/format&#45;validators/format&#45;validator&#45;es4.ts&#45;&gt;src/core&#45;validators/checkers.ts -->
<g id="edge22" class="edge">
<title>src/format&#45;validators/format&#45;validator&#45;es4.ts&#45;&gt;src/core&#45;validators/checkers.ts</title>
<path fill="none" stroke="#528b8b" stroke-width="2" d="M660.93,-95.9C682.56,-81.96 714.78,-63.8 746,-56 814.39,-38.92 896.4,-42.39 948.36,-47.41"/>
<polygon fill="#528b8b" stroke="#528b8b" stroke-width="2" points="948.04,-50.89 958.34,-48.42 948.75,-43.93 948.04,-50.89"/>
</g>
<!-- src/format&#45;validators/format&#45;validator&#45;es4.ts&#45;&gt;src/crypto/crypto&#45;types.ts -->
<g id="edge20" class="edge">
<title>src/format&#45;validators/format&#45;validator&#45;es4.ts&#45;&gt;src/crypto/crypto&#45;types.ts</title>
<path fill="none" stroke="#528b8b" stroke-width="2" d="M697.92,-95.94C713.5,-92.23 730.25,-88.89 746,-87 784.06,-82.44 889.32,-62.14 918.5,-87 955.45,-118.49 988.52,-463.42 997.57,-565.62"/>
<polygon fill="#528b8b" stroke="#528b8b" stroke-width="2" points="994.1,-566.15 998.46,-575.8 1001.07,-565.54 994.1,-566.15"/>
</g>
<!-- src/format&#45;validators/format&#45;validator&#45;types.ts -->
<g id="node13" class="node">
<title>src/format&#45;validators/format&#45;validator&#45;types.ts</title>
<path fill="#79cdcd" stroke="#79cdcd" d="M898.5,-132C898.5,-132 760.5,-132 760.5,-132 754.5,-132 748.5,-126 748.5,-120 748.5,-120 748.5,-108 748.5,-108 748.5,-102 754.5,-96 760.5,-96 760.5,-96 898.5,-96 898.5,-96 904.5,-96 910.5,-102 910.5,-108 910.5,-108 910.5,-120 910.5,-120 910.5,-126 904.5,-132 898.5,-132"/>
<text text-anchor="middle" x="829.5" y="-110.3" font-family="Helvetica,sans-Serif" font-size="14.00">format&#45;validator&#45;types.ts</text>
</g>
<!-- src/format&#45;validators/format&#45;validator&#45;es4.ts&#45;&gt;src/format&#45;validators/format&#45;validator&#45;types.ts -->
<g id="edge19" class="edge">
<title>src/format&#45;validators/format&#45;validator&#45;es4.ts&#45;&gt;src/format&#45;validators/format&#45;validator&#45;types.ts</title>
<path fill="none" stroke="#528b8b" stroke-width="2" d="M710.09,-114C719.29,-114 728.78,-114 738.18,-114"/>
<polygon fill="#528b8b" stroke="#528b8b" stroke-width="2" points="738.33,-117.5 748.33,-114 738.33,-110.5 738.33,-117.5"/>
</g>
<!-- src/format&#45;validators/format&#45;validator&#45;types.ts&#45;&gt;src/crypto/crypto&#45;types.ts -->
<g id="edge24" class="edge">
<title>src/format&#45;validators/format&#45;validator&#45;types.ts&#45;&gt;src/crypto/crypto&#45;types.ts</title>
<path fill="none" stroke="#528b8b" stroke-width="2" d="M875.97,-132.02C891.7,-140.41 908,-151.93 918.5,-167 964.08,-232.4 989.93,-480.61 997.58,-565.4"/>
<polygon fill="#528b8b" stroke="#528b8b" stroke-width="2" points="994.11,-565.93 998.48,-575.58 1001.08,-565.31 994.11,-565.93"/>
</g>
<!-- src/storage/compare.ts -->
<g id="node14" class="node">
<title>src/storage/compare.ts</title>
<path fill="#79cdcd" stroke="#79cdcd" d="M664,-309C664,-309 604,-309 604,-309 598,-309 592,-303 592,-297 592,-297 592,-285 592,-285 592,-279 598,-273 604,-273 604,-273 664,-273 664,-273 670,-273 676,-279 676,-285 676,-285 676,-297 676,-297 676,-303 670,-309 664,-309"/>
<text text-anchor="middle" x="634" y="-287.3" font-family="Helvetica,sans-Serif" font-size="14.00">compare.ts</text>
</g>
<!-- src/storage/util&#45;types.ts -->
<g id="node23" class="node">
<title>src/storage/util&#45;types.ts</title>
<path fill="#79cdcd" stroke="#79cdcd" d="M860,-327C860,-327 799,-327 799,-327 793,-327 787,-321 787,-315 787,-315 787,-303 787,-303 787,-297 793,-291 799,-291 799,-291 860,-291 860,-291 866,-291 872,-297 872,-303 872,-303 872,-315 872,-315 872,-321 866,-327 860,-327"/>
<text text-anchor="middle" x="829.5" y="-305.3" font-family="Helvetica,sans-Serif" font-size="14.00">util&#45;types.ts</text>
</g>
<!-- src/storage/compare.ts&#45;&gt;src/storage/util&#45;types.ts -->
<g id="edge25" class="edge">
<title>src/storage/compare.ts&#45;&gt;src/storage/util&#45;types.ts</title>
<path fill="none" stroke="#528b8b" stroke-width="2" d="M676.04,-294.82C705.34,-297.54 744.99,-301.23 776.51,-304.16"/>
<polygon fill="#528b8b" stroke="#528b8b" stroke-width="2" points="776.57,-307.68 786.86,-305.13 777.22,-300.71 776.57,-307.68"/>
</g>
<!-- src/storage/lock.ts -->
<g id="node15" class="node">
<title>src/storage/lock.ts</title>
<path fill="#79cdcd" stroke="#79cdcd" d="M845,-234C845,-234 814,-234 814,-234 808,-234 802,-228 802,-222 802,-222 802,-210 802,-210 802,-204 808,-198 814,-198 814,-198 845,-198 845,-198 851,-198 857,-204 857,-210 857,-210 857,-222 857,-222 857,-228 851,-234 845,-234"/>
<text text-anchor="middle" x="829.5" y="-212.3" font-family="Helvetica,sans-Serif" font-size="14.00">lock.ts</text>
</g>
<!-- src/storage/query&#45;follower&#45;types.ts -->
<g id="node16" class="node">
<title>src/storage/query&#45;follower&#45;types.ts</title>
<path fill="#79cdcd" stroke="#79cdcd" d="M482,-215C482,-215 354,-215 354,-215 348,-215 342,-209 342,-203 342,-203 342,-191 342,-191 342,-185 348,-179 354,-179 354,-179 482,-179 482,-179 488,-179 494,-185 494,-191 494,-191 494,-203 494,-203 494,-209 488,-215 482,-215"/>
<text text-anchor="middle" x="418" y="-193.3" font-family="Helvetica,sans-Serif" font-size="14.00">query&#45;follower&#45;types.ts</text>
</g>
<!-- src/storage/storage&#45;types.ts -->
<g id="node22" class="node">
<title>src/storage/storage&#45;types.ts</title>
<path fill="#79cdcd" stroke="#79cdcd" d="M678.5,-215C678.5,-215 589.5,-215 589.5,-215 583.5,-215 577.5,-209 577.5,-203 577.5,-203 577.5,-191 577.5,-191 577.5,-185 583.5,-179 589.5,-179 589.5,-179 678.5,-179 678.5,-179 684.5,-179 690.5,-185 690.5,-191 690.5,-191 690.5,-203 690.5,-203 690.5,-209 684.5,-215 678.5,-215"/>
<text text-anchor="middle" x="634" y="-193.3" font-family="Helvetica,sans-Serif" font-size="14.00">storage&#45;types.ts</text>
</g>
<!-- src/storage/query&#45;follower&#45;types.ts&#45;&gt;src/storage/storage&#45;types.ts -->
<g id="edge26" class="edge">
<title>src/storage/query&#45;follower&#45;types.ts&#45;&gt;src/storage/storage&#45;types.ts</title>
<path fill="none" stroke="#528b8b" stroke-width="2" d="M494.15,-197C517.96,-197 544.09,-197 567.2,-197"/>
<polygon fill="#528b8b" stroke="#528b8b" stroke-width="2" points="567.24,-200.5 577.24,-197 567.24,-193.5 567.24,-200.5"/>
</g>
<!-- src/storage/query&#45;follower.ts&#45;&gt;src/storage/query&#45;follower&#45;types.ts -->
<g id="edge31" class="edge">
<title>src/storage/query&#45;follower.ts&#45;&gt;src/storage/query&#45;follower&#45;types.ts</title>
<path fill="none" stroke="#528b8b" stroke-width="2" d="M273.79,-343.91C275.28,-342.69 276.69,-341.39 278,-340 313.66,-302.34 277.1,-265.44 314,-229 319.4,-223.66 325.68,-219.21 332.42,-215.5"/>
<polygon fill="#528b8b" stroke="#528b8b" stroke-width="2" points="334.41,-218.43 341.86,-210.89 331.33,-212.14 334.41,-218.43"/>
</g>
<!-- src/storage/query&#45;types.ts -->
<g id="node18" class="node">
<title>src/storage/query&#45;types.ts</title>
<path fill="#79cdcd" stroke="#79cdcd" d="M868,-406C868,-406 791,-406 791,-406 785,-406 779,-400 779,-394 779,-394 779,-382 779,-382 779,-376 785,-370 791,-370 791,-370 868,-370 868,-370 874,-370 880,-376 880,-382 880,-382 880,-394 880,-394 880,-400 874,-406 868,-406"/>
<text text-anchor="middle" x="829.5" y="-384.3" font-family="Helvetica,sans-Serif" font-size="14.00">query&#45;types.ts</text>
</g>
<!-- src/storage/query&#45;follower.ts&#45;&gt;src/storage/query&#45;types.ts -->
<g id="edge28" class="edge">
<title>src/storage/query&#45;follower.ts&#45;&gt;src/storage/query&#45;types.ts</title>
<path fill="none" stroke="#528b8b" stroke-width="2" d="M278.29,-367.32C343.88,-373.15 454.58,-382.18 550,-386 625.39,-389.02 712.34,-389.1 768.75,-388.7"/>
<polygon fill="#528b8b" stroke="#528b8b" stroke-width="2" points="768.95,-392.2 778.92,-388.62 768.9,-385.2 768.95,-392.2"/>
</g>
<!-- src/storage/query.ts -->
<g id="node19" class="node">
<title>src/storage/query.ts</title>
<path fill="#79cdcd" stroke="#79cdcd" d="M654,-463C654,-463 614,-463 614,-463 608,-463 602,-457 602,-451 602,-451 602,-439 602,-439 602,-433 608,-427 614,-427 614,-427 654,-427 654,-427 660,-427 666,-433 666,-439 666,-439 666,-451 666,-451 666,-457 660,-463 654,-463"/>
<text text-anchor="middle" x="634" y="-441.3" font-family="Helvetica,sans-Serif" font-size="14.00">query.ts</text>
</g>
<!-- src/storage/query&#45;follower.ts&#45;&gt;src/storage/query.ts -->
<g id="edge30" class="edge">
<title>src/storage/query&#45;follower.ts&#45;&gt;src/storage/query.ts</title>
<path fill="none" stroke="#528b8b" stroke-width="2" d="M270.57,-380.03C273.12,-381.3 275.61,-382.62 278,-384 295.8,-394.27 294.99,-405.21 314,-413 363.21,-433.17 516.71,-441.06 591.38,-443.76"/>
<polygon fill="#528b8b" stroke="#528b8b" stroke-width="2" points="591.69,-447.28 601.8,-444.12 591.93,-440.28 591.69,-447.28"/>
</g>
<!-- src/storage/query&#45;follower.ts&#45;&gt;src/storage/storage&#45;types.ts -->
<g id="edge29" class="edge">
<title>src/storage/query&#45;follower.ts&#45;&gt;src/storage/storage&#45;types.ts</title>
<path fill="none" stroke="#528b8b" stroke-width="2" d="M273.71,-343.83C275.22,-342.63 276.66,-341.36 278,-340 310.07,-307.62 277.83,-271.72 314,-244 350.86,-215.75 476.21,-231.73 522,-224 536.78,-221.51 552.5,-218.13 567.33,-214.61"/>
<polygon fill="#528b8b" stroke="#528b8b" stroke-width="2" points="568.53,-217.92 577.42,-212.17 566.88,-211.12 568.53,-217.92"/>
</g>
<!-- src/storage/query&#45;follower.ts&#45;&gt;src/storage/util&#45;types.ts -->
<g id="edge27" class="edge">
<title>src/storage/query&#45;follower.ts&#45;&gt;src/storage/util&#45;types.ts</title>
<path fill="none" stroke="#528b8b" stroke-width="2" d="M278.25,-361.9C338.89,-361.38 437.35,-359.32 522,-352 611.82,-344.23 715.57,-328.17 776.4,-318.03"/>
<polygon fill="#528b8b" stroke="#528b8b" stroke-width="2" points="777.24,-321.44 786.52,-316.33 776.08,-314.54 777.24,-321.44"/>
</g>
<!-- src/storage/query.ts&#45;&gt;src/storage/query&#45;types.ts -->
<g id="edge32" class="edge">
<title>src/storage/query.ts&#45;&gt;src/storage/query&#45;types.ts</title>
<path fill="none" stroke="#528b8b" stroke-width="2" d="M666.09,-435.84C693.8,-427.68 735.12,-415.51 769.15,-405.48"/>
<polygon fill="#528b8b" stroke="#528b8b" stroke-width="2" points="770.39,-408.77 778.99,-402.58 768.41,-402.05 770.39,-408.77"/>
</g>
<!-- src/storage/storage&#45;async.ts&#45;&gt;src/format&#45;validators/format&#45;validator&#45;types.ts -->
<g id="edge36" class="edge">
<title>src/storage/storage&#45;async.ts&#45;&gt;src/format&#45;validators/format&#45;validator&#45;types.ts</title>
<path fill="none" stroke="#528b8b" stroke-width="2" d="M476.05,-252.96C492.28,-245.83 509.04,-236.33 522,-224 541.59,-205.37 528.25,-186.06 550,-170 608.14,-127.08 639.19,-155.48 710,-141 720.37,-138.88 731.22,-136.56 741.97,-134.19"/>
<polygon fill="#528b8b" stroke="#528b8b" stroke-width="2" points="742.79,-137.59 751.8,-132 741.28,-130.76 742.79,-137.59"/>
</g>
<!-- src/storage/storage&#45;async.ts&#45;&gt;src/storage/compare.ts -->
<g id="edge37" class="edge">
<title>src/storage/storage&#45;async.ts&#45;&gt;src/storage/compare.ts</title>
<path fill="none" stroke="#528b8b" stroke-width="2" d="M476.07,-276.33C508.91,-279.4 549.85,-283.23 581.68,-286.2"/>
<polygon fill="#528b8b" stroke="#528b8b" stroke-width="2" points="581.39,-289.69 591.67,-287.14 582.04,-282.72 581.39,-289.69"/>
</g>
<!-- src/storage/storage&#45;async.ts&#45;&gt;src/storage/query&#45;types.ts -->
<g id="edge34" class="edge">
<title>src/storage/storage&#45;async.ts&#45;&gt;src/storage/query&#45;types.ts</title>
<path fill="none" stroke="#528b8b" stroke-width="2" d="M476.16,-282.05C491.45,-286.05 507.69,-291.29 522,-298 535.85,-304.49 536.12,-311.58 550,-318 621.5,-351.07 710.84,-369.99 768.75,-379.62"/>
<polygon fill="#528b8b" stroke="#528b8b" stroke-width="2" points="768.4,-383.11 778.83,-381.26 769.52,-376.2 768.4,-383.11"/>
</g>
<!-- src/storage/storage&#45;async.ts&#45;&gt;src/storage/storage&#45;types.ts -->
<g id="edge35" class="edge">
<title>src/storage/storage&#45;async.ts&#45;&gt;src/storage/storage&#45;types.ts</title>
<path fill="none" stroke="#528b8b" stroke-width="2" d="M476.14,-253.92C491.12,-249.26 507.22,-244.09 522,-239 532.78,-235.29 554.97,-226.94 576.7,-218.66"/>
<polygon fill="#528b8b" stroke="#528b8b" stroke-width="2" points="578.18,-221.84 586.27,-215 575.68,-215.3 578.18,-221.84"/>
</g>
<!-- src/storage/storage&#45;async.ts&#45;&gt;src/storage/util&#45;types.ts -->
<g id="edge33" class="edge">
<title>src/storage/storage&#45;async.ts&#45;&gt;src/storage/util&#45;types.ts</title>
<path fill="none" stroke="#528b8b" stroke-width="2" d="M476.14,-262.79C535.21,-255.89 629.85,-249.29 710,-264 734.61,-268.51 760.73,-277.89 782.16,-286.93"/>
<polygon fill="#528b8b" stroke="#528b8b" stroke-width="2" points="780.78,-290.14 791.35,-290.9 783.56,-283.72 780.78,-290.14"/>
</g>
<!-- src/storage/storage&#45;driver&#45;async&#45;memory.ts&#45;&gt;src/storage/compare.ts -->
<g id="edge41" class="edge">
<title>src/storage/storage&#45;driver&#45;async&#45;memory.ts&#45;&gt;src/storage/compare.ts</title>
<path fill="none" stroke="#528b8b" stroke-width="2" d="M522.24,-308.6C542.97,-305.3 563.9,-301.98 581.89,-299.12"/>
<polygon fill="#528b8b" stroke="#528b8b" stroke-width="2" points="582.52,-302.56 591.84,-297.54 581.42,-295.65 582.52,-302.56"/>
</g>
<!-- src/storage/storage&#45;driver&#45;async&#45;memory.ts&#45;&gt;src/storage/lock.ts -->
<g id="edge43" class="edge">
<title>src/storage/storage&#45;driver&#45;async&#45;memory.ts&#45;&gt;src/storage/lock.ts</title>
<path fill="none" stroke="#528b8b" stroke-width="2" d="M505.09,-306.94C511,-304.35 516.71,-301.39 522,-298 538.49,-287.45 533.07,-273.83 550,-264 590.49,-240.48 725.42,-225.35 791.46,-219.17"/>
<polygon fill="#528b8b" stroke="#528b8b" stroke-width="2" points="792.18,-222.62 801.82,-218.22 791.54,-215.65 792.18,-222.62"/>
</g>
<!-- src/storage/storage&#45;driver&#45;async&#45;memory.ts&#45;&gt;src/storage/query&#45;types.ts -->
<g id="edge39" class="edge">
<title>src/storage/storage&#45;driver&#45;async&#45;memory.ts&#45;&gt;src/storage/query&#45;types.ts</title>
<path fill="none" stroke="#528b8b" stroke-width="2" d="M458.81,-343.11C484.32,-353.82 518.44,-366.52 550,-373 624.23,-388.24 711.79,-390.45 768.64,-389.87"/>
<polygon fill="#528b8b" stroke="#528b8b" stroke-width="2" points="768.93,-393.37 778.89,-389.73 768.84,-386.37 768.93,-393.37"/>
</g>
<!-- src/storage/storage&#45;driver&#45;async&#45;memory.ts&#45;&gt;src/storage/query.ts -->
<g id="edge42" class="edge">
<title>src/storage/storage&#45;driver&#45;async&#45;memory.ts&#45;&gt;src/storage/query.ts</title>
<path fill="none" stroke="#528b8b" stroke-width="2" d="M451.5,-343.23C489.44,-364.5 552.18,-399.68 593.06,-422.6"/>
<polygon fill="#528b8b" stroke="#528b8b" stroke-width="2" points="591.5,-425.74 601.93,-427.58 594.92,-419.64 591.5,-425.74"/>
</g>
<!-- src/storage/storage&#45;driver&#45;async&#45;memory.ts&#45;&gt;src/storage/storage&#45;types.ts -->
<g id="edge40" class="edge">
<title>src/storage/storage&#45;driver&#45;async&#45;memory.ts&#45;&gt;src/storage/storage&#45;types.ts</title>
<path fill="none" stroke="#528b8b" stroke-width="2" d="M509.8,-306.75C514.15,-304.19 518.25,-301.29 522,-298 546.86,-276.16 526.39,-252.2 550,-229 555.3,-223.79 561.54,-219.41 568.18,-215.73"/>
<polygon fill="#528b8b" stroke="#528b8b" stroke-width="2" points="570.04,-218.72 577.43,-211.13 566.92,-212.45 570.04,-218.72"/>
</g>
<!-- src/storage/storage&#45;driver&#45;async&#45;memory.ts&#45;&gt;src/storage/util&#45;types.ts -->
<g id="edge38" class="edge">
<title>src/storage/storage&#45;driver&#45;async&#45;memory.ts&#45;&gt;src/storage/util&#45;types.ts</title>
<path fill="none" stroke="#528b8b" stroke-width="2" d="M522.07,-323.82C577.75,-322.85 647.67,-321.11 710,-318 731.86,-316.91 755.95,-315.18 776.67,-313.52"/>
<polygon fill="#528b8b" stroke="#528b8b" stroke-width="2" points="777.17,-316.99 786.85,-312.69 776.6,-310.01 777.17,-316.99"/>
</g>
<!-- src/storage/storage&#45;types.ts&#45;&gt;src/format&#45;validators/format&#45;validator&#45;types.ts -->
<g id="edge45" class="edge">
<title>src/storage/storage&#45;types.ts&#45;&gt;src/format&#45;validators/format&#45;validator&#45;types.ts</title>
<path fill="none" stroke="#528b8b" stroke-width="2" d="M681.13,-178.89C690.7,-175.03 700.7,-170.94 710,-167 733.14,-157.2 758.6,-145.88 779.97,-136.23"/>
<polygon fill="#528b8b" stroke="#528b8b" stroke-width="2" points="781.51,-139.38 789.17,-132.06 778.62,-133 781.51,-139.38"/>
</g>
<!-- src/storage/storage&#45;types.ts&#45;&gt;src/storage/lock.ts -->
<g id="edge46" class="edge">
<title>src/storage/storage&#45;types.ts&#45;&gt;src/storage/lock.ts</title>
<path fill="none" stroke="#528b8b" stroke-width="2" d="M690.71,-202.47C723.22,-205.66 763.33,-209.6 791.87,-212.4"/>
<polygon fill="#528b8b" stroke="#528b8b" stroke-width="2" points="791.54,-215.89 801.83,-213.38 792.22,-208.92 791.54,-215.89"/>
</g>
<!-- src/storage/storage&#45;types.ts&#45;&gt;src/storage/query&#45;types.ts -->
<g id="edge44" class="edge">
<title>src/storage/storage&#45;types.ts&#45;&gt;src/storage/query&#45;types.ts</title>
<path fill="none" stroke="#528b8b" stroke-width="2" d="M659.83,-215.2C675.61,-227.67 695.69,-245.27 710,-264 731.73,-292.42 721.98,-309.48 746,-336 756.07,-347.11 769.04,-356.76 781.71,-364.63"/>
<polygon fill="#528b8b" stroke="#528b8b" stroke-width="2" points="780,-367.68 790.39,-369.78 783.58,-361.67 780,-367.68"/>
</g>
</g>
</svg>
