<?xml version="1.0" encoding="UTF-8" standalone="no"?>
<!DOCTYPE svg PUBLIC "-//W3C//DTD SVG 1.1//EN"
 "http://www.w3.org/Graphics/SVG/1.1/DTD/svg11.dtd">
<!-- Generated by graphviz version 2.44.1 (20200629.0846)
 -->
<!-- Title: G Pages: 1 -->
<svg width="1521pt" height="1064pt"
 viewBox="0.00 0.00 1521.00 1063.89" xmlns="http://www.w3.org/2000/svg" xmlns:xlink="http://www.w3.org/1999/xlink">
<g id="graph0" class="graph" transform="scale(1 1) rotate(0) translate(4 1059.89)">
<title>G</title>
<polygon fill="white" stroke="transparent" points="-4,4 -4,-1059.89 1517,-1059.89 1517,4 -4,4"/>
<!-- src/example&#45;app.ts -->
<g id="node1" class="node">
<title>src/example&#45;app.ts</title>
<path fill="#79cdcd" stroke="#79cdcd" d="M119,-491.14C119,-491.14 12,-491.14 12,-491.14 6,-491.14 0,-485.14 0,-479.14 0,-479.14 0,-467.14 0,-467.14 0,-461.14 6,-455.14 12,-455.14 12,-455.14 119,-455.14 119,-455.14 125,-455.14 131,-461.14 131,-467.14 131,-467.14 131,-479.14 131,-479.14 131,-485.14 125,-491.14 119,-491.14"/>
<text text-anchor="middle" x="65.5" y="-469.44" font-family="Helvetica,sans-Serif" font-size="14.00">src/example&#45;app.ts</text>
</g>
<!-- src/format&#45;validators/format&#45;validator&#45;es4.ts -->
<g id="node11" class="node">
<title>src/format&#45;validators/format&#45;validator&#45;es4.ts</title>
<path fill="#79cdcd" stroke="#79cdcd" d="M433,-865.14C433,-865.14 179,-865.14 179,-865.14 173,-865.14 167,-859.14 167,-853.14 167,-853.14 167,-841.14 167,-841.14 167,-835.14 173,-829.14 179,-829.14 179,-829.14 433,-829.14 433,-829.14 439,-829.14 445,-835.14 445,-841.14 445,-841.14 445,-853.14 445,-853.14 445,-859.14 439,-865.14 433,-865.14"/>
<text text-anchor="middle" x="306" y="-843.44" font-family="Helvetica,sans-Serif" font-size="14.00">src/format&#45;validators/format&#45;validator&#45;es4.ts</text>
</g>
<!-- src/example&#45;app.ts&#45;&gt;src/format&#45;validators/format&#45;validator&#45;es4.ts -->
<g id="edge19" class="edge">
<title>src/example&#45;app.ts&#45;&gt;src/format&#45;validators/format&#45;validator&#45;es4.ts</title>
<path fill="none" stroke="#528b8b" stroke-width="2" d="M78,-491.18C116.64,-551.77 241.91,-748.21 287.88,-820.3"/>
<polygon fill="#528b8b" stroke="#528b8b" stroke-width="2" points="285,-822.3 293.33,-828.85 290.91,-818.53 285,-822.3"/>
</g>
<!-- src/storage/follower.ts -->
<g id="node14" class="node">
<title>src/storage/follower.ts</title>
<path fill="#79cdcd" stroke="#79cdcd" d="M368,-155.14C368,-155.14 244,-155.14 244,-155.14 238,-155.14 232,-149.14 232,-143.14 232,-143.14 232,-131.14 232,-131.14 232,-125.14 238,-119.14 244,-119.14 244,-119.14 368,-119.14 368,-119.14 374,-119.14 380,-125.14 380,-131.14 380,-131.14 380,-143.14 380,-143.14 380,-149.14 374,-155.14 368,-155.14"/>
<text text-anchor="middle" x="306" y="-133.44" font-family="Helvetica,sans-Serif" font-size="14.00">src/storage/follower.ts</text>
</g>
<!-- src/example&#45;app.ts&#45;&gt;src/storage/follower.ts -->
<g id="edge22" class="edge">
<title>src/example&#45;app.ts&#45;&gt;src/storage/follower.ts</title>
<path fill="none" stroke="#528b8b" stroke-width="2" d="M70.58,-455.05C80.78,-412.91 110.74,-306.46 167,-236.14 192.54,-204.22 230.9,-177.83 260.7,-160.35"/>
<polygon fill="#528b8b" stroke="#528b8b" stroke-width="2" points="262.71,-163.23 269.64,-155.22 259.23,-157.16 262.71,-163.23"/>
</g>
<!-- src/storage/storage&#45;async.ts -->
<g id="node18" class="node">
<title>src/storage/storage&#45;async.ts</title>
<path fill="#79cdcd" stroke="#79cdcd" d="M387,-491.14C387,-491.14 225,-491.14 225,-491.14 219,-491.14 213,-485.14 213,-479.14 213,-479.14 213,-467.14 213,-467.14 213,-461.14 219,-455.14 225,-455.14 225,-455.14 387,-455.14 387,-455.14 393,-455.14 399,-461.14 399,-467.14 399,-467.14 399,-479.14 399,-479.14 399,-485.14 393,-491.14 387,-491.14"/>
<text text-anchor="middle" x="306" y="-469.44" font-family="Helvetica,sans-Serif" font-size="14.00">src/storage/storage&#45;async.ts</text>
</g>
<!-- src/example&#45;app.ts&#45;&gt;src/storage/storage&#45;async.ts -->
<g id="edge21" class="edge">
<title>src/example&#45;app.ts&#45;&gt;src/storage/storage&#45;async.ts</title>
<path fill="none" stroke="#528b8b" stroke-width="2" d="M131.04,-473.14C153.01,-473.14 178.14,-473.14 202.34,-473.14"/>
<polygon fill="#528b8b" stroke="#528b8b" stroke-width="2" points="202.65,-476.64 212.65,-473.14 202.65,-469.64 202.65,-476.64"/>
</g>
<!-- src/storage/storage&#45;driver&#45;async&#45;memory.ts -->
<g id="node19" class="node">
<title>src/storage/storage&#45;driver&#45;async&#45;memory.ts</title>
<path fill="#79cdcd" stroke="#79cdcd" d="M433,-281.14C433,-281.14 179,-281.14 179,-281.14 173,-281.14 167,-275.14 167,-269.14 167,-269.14 167,-257.14 167,-257.14 167,-251.14 173,-245.14 179,-245.14 179,-245.14 433,-245.14 433,-245.14 439,-245.14 445,-251.14 445,-257.14 445,-257.14 445,-269.14 445,-269.14 445,-275.14 439,-281.14 433,-281.14"/>
<text text-anchor="middle" x="306" y="-259.44" font-family="Helvetica,sans-Serif" font-size="14.00">src/storage/storage&#45;driver&#45;async&#45;memory.ts</text>
</g>
<!-- src/example&#45;app.ts&#45;&gt;src/storage/storage&#45;driver&#45;async&#45;memory.ts -->
<g id="edge20" class="edge">
<title>src/example&#45;app.ts&#45;&gt;src/storage/storage&#45;driver&#45;async&#45;memory.ts</title>
<path fill="none" stroke="#528b8b" stroke-width="2" d="M87.25,-454.87C130.08,-417.16 228.34,-330.64 276.85,-287.93"/>
<polygon fill="#528b8b" stroke="#528b8b" stroke-width="2" points="279.28,-290.45 284.47,-281.22 274.65,-285.2 279.28,-290.45"/>
</g>
<!-- src/types/doc&#45;types.ts -->
<g id="node22" class="node">
<title>src/types/doc&#45;types.ts</title>
<path fill="#79cdcd" stroke="#79cdcd" d="M1470.5,-567.14C1470.5,-567.14 1347.5,-567.14 1347.5,-567.14 1341.5,-567.14 1335.5,-561.14 1335.5,-555.14 1335.5,-555.14 1335.5,-543.14 1335.5,-543.14 1335.5,-537.14 1341.5,-531.14 1347.5,-531.14 1347.5,-531.14 1470.5,-531.14 1470.5,-531.14 1476.5,-531.14 1482.5,-537.14 1482.5,-543.14 1482.5,-543.14 1482.5,-555.14 1482.5,-555.14 1482.5,-561.14 1476.5,-567.14 1470.5,-567.14"/>
<text text-anchor="middle" x="1409" y="-545.44" font-family="Helvetica,sans-Serif" font-size="14.00">src/types/doc&#45;types.ts</text>
</g>
<!-- src/example&#45;app.ts&#45;&gt;src/types/doc&#45;types.ts -->
<g id="edge18" class="edge">
<title>src/example&#45;app.ts&#45;&gt;src/types/doc&#45;types.ts</title>
<path fill="none" stroke="#528b8b" stroke-width="2" d="M116.68,-491.18C193.78,-517.82 346.57,-566.47 481,-584.14 790.68,-624.85 1163.17,-583.79 1325.58,-561.49"/>
<polygon fill="#528b8b" stroke="#528b8b" stroke-width="2" points="1326.07,-564.96 1335.5,-560.12 1325.11,-558.02 1326.07,-564.96"/>
</g>
<!-- src/core&#45;validators/addresses.ts -->
<g id="node2" class="node">
<title>src/core&#45;validators/addresses.ts</title>
<path fill="#79cdcd" stroke="#79cdcd" d="M1257,-878.14C1257,-878.14 1074,-878.14 1074,-878.14 1068,-878.14 1062,-872.14 1062,-866.14 1062,-866.14 1062,-854.14 1062,-854.14 1062,-848.14 1068,-842.14 1074,-842.14 1074,-842.14 1257,-842.14 1257,-842.14 1263,-842.14 1269,-848.14 1269,-854.14 1269,-854.14 1269,-866.14 1269,-866.14 1269,-872.14 1263,-878.14 1257,-878.14"/>
<text text-anchor="middle" x="1165.5" y="-856.44" font-family="Helvetica,sans-Serif" font-size="14.00">src/core&#45;validators/addresses.ts</text>
</g>
<!-- src/core&#45;validators/characters.ts -->
<g id="node3" class="node">
<title>src/core&#45;validators/characters.ts</title>
<path fill="#79cdcd" stroke="#79cdcd" d="M1501,-1001.14C1501,-1001.14 1317,-1001.14 1317,-1001.14 1311,-1001.14 1305,-995.14 1305,-989.14 1305,-989.14 1305,-977.14 1305,-977.14 1305,-971.14 1311,-965.14 1317,-965.14 1317,-965.14 1501,-965.14 1501,-965.14 1507,-965.14 1513,-971.14 1513,-977.14 1513,-977.14 1513,-989.14 1513,-989.14 1513,-995.14 1507,-1001.14 1501,-1001.14"/>
<text text-anchor="middle" x="1409" y="-979.44" font-family="Helvetica,sans-Serif" font-size="14.00">src/core&#45;validators/characters.ts</text>
</g>
<!-- src/core&#45;validators/addresses.ts&#45;&gt;src/core&#45;validators/characters.ts -->
<g id="edge2" class="edge">
<title>src/core&#45;validators/addresses.ts&#45;&gt;src/core&#45;validators/characters.ts</title>
<path fill="none" stroke="#528b8b" stroke-width="2" d="M1201.87,-878.16C1244.74,-899.99 1317,-936.79 1363.57,-960.51"/>
<polygon fill="#528b8b" stroke="#528b8b" stroke-width="2" points="1362.03,-963.66 1372.53,-965.08 1365.21,-957.42 1362.03,-963.66"/>
</g>
<!-- src/core&#45;validators/addresses.ts&#45;&gt;src/types/doc&#45;types.ts -->
<g id="edge1" class="edge">
<title>src/core&#45;validators/addresses.ts&#45;&gt;src/types/doc&#45;types.ts</title>
<path fill="none" stroke="#528b8b" stroke-width="2" d="M1217.89,-842.07C1235.61,-834.02 1254.6,-823.13 1269,-809.14 1339.42,-740.75 1382.34,-628.91 1399.44,-577.1"/>
<polygon fill="#528b8b" stroke="#528b8b" stroke-width="2" points="1402.87,-577.87 1402.61,-567.28 1396.21,-575.73 1402.87,-577.87"/>
</g>
<!-- src/core&#45;validators/checkers.ts -->
<g id="node4" class="node">
<title>src/core&#45;validators/checkers.ts</title>
<path fill="#79cdcd" stroke="#79cdcd" d="M1253,-1001.14C1253,-1001.14 1078,-1001.14 1078,-1001.14 1072,-1001.14 1066,-995.14 1066,-989.14 1066,-989.14 1066,-977.14 1066,-977.14 1066,-971.14 1072,-965.14 1078,-965.14 1078,-965.14 1253,-965.14 1253,-965.14 1259,-965.14 1265,-971.14 1265,-977.14 1265,-977.14 1265,-989.14 1265,-989.14 1265,-995.14 1259,-1001.14 1253,-1001.14"/>
<text text-anchor="middle" x="1165.5" y="-979.44" font-family="Helvetica,sans-Serif" font-size="14.00">src/core&#45;validators/checkers.ts</text>
</g>
<!-- src/core&#45;validators/checkers.ts&#45;&gt;src/core&#45;validators/characters.ts -->
<g id="edge3" class="edge">
<title>src/core&#45;validators/checkers.ts&#45;&gt;src/core&#45;validators/characters.ts</title>
<path fill="none" stroke="#528b8b" stroke-width="2" d="M1265.08,-983.14C1274.76,-983.14 1284.63,-983.14 1294.45,-983.14"/>
<polygon fill="#528b8b" stroke="#528b8b" stroke-width="2" points="1294.64,-986.64 1304.64,-983.14 1294.64,-979.64 1294.64,-986.64"/>
</g>
<!-- src/crypto/base32.ts -->
<g id="node5" class="node">
<title>src/crypto/base32.ts</title>
<path fill="#79cdcd" stroke="#79cdcd" d="M1222,-689.14C1222,-689.14 1109,-689.14 1109,-689.14 1103,-689.14 1097,-683.14 1097,-677.14 1097,-677.14 1097,-665.14 1097,-665.14 1097,-659.14 1103,-653.14 1109,-653.14 1109,-653.14 1222,-653.14 1222,-653.14 1228,-653.14 1234,-659.14 1234,-665.14 1234,-665.14 1234,-677.14 1234,-677.14 1234,-683.14 1228,-689.14 1222,-689.14"/>
<text text-anchor="middle" x="1165.5" y="-667.44" font-family="Helvetica,sans-Serif" font-size="14.00">src/crypto/base32.ts</text>
</g>
<!-- src/crypto/base32.ts&#45;&gt;src/types/doc&#45;types.ts -->
<g id="edge4" class="edge">
<title>src/crypto/base32.ts&#45;&gt;src/types/doc&#45;types.ts</title>
<path fill="none" stroke="#528b8b" stroke-width="2" d="M1233.67,-653.06C1245.65,-649.02 1257.86,-644.37 1269,-639.14 1307.99,-620.85 1348.94,-593.16 1376.21,-573.32"/>
<polygon fill="#528b8b" stroke="#528b8b" stroke-width="2" points="1378.58,-575.92 1384.56,-567.18 1374.43,-570.28 1378.58,-575.92"/>
</g>
<!-- src/crypto/crypto&#45;driver&#45;chloride.ts -->
<g id="node6" class="node">
<title>src/crypto/crypto&#45;driver&#45;chloride.ts</title>
<path fill="#79cdcd" stroke="#79cdcd" d="M1014,-873.14C1014,-873.14 818,-873.14 818,-873.14 812,-873.14 806,-867.14 806,-861.14 806,-861.14 806,-849.14 806,-849.14 806,-843.14 812,-837.14 818,-837.14 818,-837.14 1014,-837.14 1014,-837.14 1020,-837.14 1026,-843.14 1026,-849.14 1026,-849.14 1026,-861.14 1026,-861.14 1026,-867.14 1020,-873.14 1014,-873.14"/>
<text text-anchor="middle" x="916" y="-851.44" font-family="Helvetica,sans-Serif" font-size="14.00">src/crypto/crypto&#45;driver&#45;chloride.ts</text>
</g>
<!-- src/crypto/crypto&#45;types.ts -->
<g id="node8" class="node">
<title>src/crypto/crypto&#45;types.ts</title>
<path fill="#79cdcd" stroke="#79cdcd" d="M1237,-800.14C1237,-800.14 1094,-800.14 1094,-800.14 1088,-800.14 1082,-794.14 1082,-788.14 1082,-788.14 1082,-776.14 1082,-776.14 1082,-770.14 1088,-764.14 1094,-764.14 1094,-764.14 1237,-764.14 1237,-764.14 1243,-764.14 1249,-770.14 1249,-776.14 1249,-776.14 1249,-788.14 1249,-788.14 1249,-794.14 1243,-800.14 1237,-800.14"/>
<text text-anchor="middle" x="1165.5" y="-778.44" font-family="Helvetica,sans-Serif" font-size="14.00">src/crypto/crypto&#45;types.ts</text>
</g>
<!-- src/crypto/crypto&#45;driver&#45;chloride.ts&#45;&gt;src/crypto/crypto&#45;types.ts -->
<g id="edge5" class="edge">
<title>src/crypto/crypto&#45;driver&#45;chloride.ts&#45;&gt;src/crypto/crypto&#45;types.ts</title>
<path fill="none" stroke="#528b8b" stroke-width="2" d="M993.14,-837.09C1004.2,-834.23 1015.42,-831.2 1026,-828.14 1051.56,-820.74 1079.46,-811.67 1103.48,-803.55"/>
<polygon fill="#528b8b" stroke="#528b8b" stroke-width="2" points="1104.83,-806.79 1113.17,-800.25 1102.57,-800.16 1104.83,-806.79"/>
</g>
<!-- src/crypto/crypto&#45;driver&#45;node.ts -->
<g id="node7" class="node">
<title>src/crypto/crypto&#45;driver&#45;node.ts</title>
<path fill="#79cdcd" stroke="#79cdcd" d="M1005.5,-819.14C1005.5,-819.14 826.5,-819.14 826.5,-819.14 820.5,-819.14 814.5,-813.14 814.5,-807.14 814.5,-807.14 814.5,-795.14 814.5,-795.14 814.5,-789.14 820.5,-783.14 826.5,-783.14 826.5,-783.14 1005.5,-783.14 1005.5,-783.14 1011.5,-783.14 1017.5,-789.14 1017.5,-795.14 1017.5,-795.14 1017.5,-807.14 1017.5,-807.14 1017.5,-813.14 1011.5,-819.14 1005.5,-819.14"/>
<text text-anchor="middle" x="916" y="-797.44" font-family="Helvetica,sans-Serif" font-size="14.00">src/crypto/crypto&#45;driver&#45;node.ts</text>
</g>
<!-- src/crypto/crypto&#45;driver&#45;node.ts&#45;&gt;src/crypto/crypto&#45;types.ts -->
<g id="edge6" class="edge">
<title>src/crypto/crypto&#45;driver&#45;node.ts&#45;&gt;src/crypto/crypto&#45;types.ts</title>
<path fill="none" stroke="#528b8b" stroke-width="2" d="M1017.67,-793.41C1035.46,-792.05 1053.9,-790.63 1071.47,-789.28"/>
<polygon fill="#528b8b" stroke="#528b8b" stroke-width="2" points="1072,-792.75 1081.7,-788.5 1071.46,-785.77 1072,-792.75"/>
</g>
<!-- src/crypto/crypto.ts -->
<g id="node9" class="node">
<title>src/crypto/crypto.ts</title>
<path fill="#79cdcd" stroke="#79cdcd" d="M678.5,-773.14C678.5,-773.14 572.5,-773.14 572.5,-773.14 566.5,-773.14 560.5,-767.14 560.5,-761.14 560.5,-761.14 560.5,-749.14 560.5,-749.14 560.5,-743.14 566.5,-737.14 572.5,-737.14 572.5,-737.14 678.5,-737.14 678.5,-737.14 684.5,-737.14 690.5,-743.14 690.5,-749.14 690.5,-749.14 690.5,-761.14 690.5,-761.14 690.5,-767.14 684.5,-773.14 678.5,-773.14"/>
<text text-anchor="middle" x="625.5" y="-751.44" font-family="Helvetica,sans-Serif" font-size="14.00">src/crypto/crypto.ts</text>
</g>
<!-- src/crypto/crypto.ts&#45;&gt;src/core&#45;validators/addresses.ts -->
<g id="edge13" class="edge">
<title>src/crypto/crypto.ts&#45;&gt;src/core&#45;validators/addresses.ts</title>
<path fill="none" stroke="#528b8b" stroke-width="2" d="M644.25,-773.61C674.24,-803.33 738.33,-860.62 806,-882.14 899.93,-912.01 1014.54,-896.61 1088.48,-880.45"/>
<polygon fill="#528b8b" stroke="#528b8b" stroke-width="2" points="1089.65,-883.78 1098.64,-878.17 1088.12,-876.95 1089.65,-883.78"/>
</g>
<!-- src/crypto/crypto.ts&#45;&gt;src/crypto/base32.ts -->
<g id="edge11" class="edge">
<title>src/crypto/crypto.ts&#45;&gt;src/crypto/base32.ts</title>
<path fill="none" stroke="#528b8b" stroke-width="2" d="M660.42,-737.08C695.67,-719.33 753.01,-693.35 806,-682.14 901.13,-662.02 1013.6,-662.35 1086.85,-665.67"/>
<polygon fill="#528b8b" stroke="#528b8b" stroke-width="2" points="1086.76,-669.17 1096.92,-666.16 1087.1,-662.18 1086.76,-669.17"/>
</g>
<!-- src/crypto/crypto.ts&#45;&gt;src/crypto/crypto&#45;driver&#45;chloride.ts -->
<g id="edge7" class="edge">
<title>src/crypto/crypto.ts&#45;&gt;src/crypto/crypto&#45;driver&#45;chloride.ts</title>
<path fill="none" stroke="#528b8b" stroke-width="2" d="M666.17,-773.2C702.14,-789.1 756.89,-812.17 806,-828.14 812.54,-830.27 819.35,-832.32 826.22,-834.28"/>
<polygon fill="#528b8b" stroke="#528b8b" stroke-width="2" points="825.75,-837.78 836.32,-837.09 827.62,-831.04 825.75,-837.78"/>
</g>
<!-- src/crypto/crypto.ts&#45;&gt;src/crypto/crypto&#45;driver&#45;node.ts -->
<g id="edge8" class="edge">
<title>src/crypto/crypto.ts&#45;&gt;src/crypto/crypto&#45;driver&#45;node.ts</title>
<path fill="none" stroke="#528b8b" stroke-width="2" d="M690.53,-765.35C723.9,-770.67 765.67,-777.33 804.1,-783.46"/>
<polygon fill="#528b8b" stroke="#528b8b" stroke-width="2" points="803.89,-786.97 814.32,-785.09 804.99,-780.06 803.89,-786.97"/>
</g>
<!-- src/crypto/crypto.ts&#45;&gt;src/crypto/crypto&#45;types.ts -->
<g id="edge10" class="edge">
<title>src/crypto/crypto.ts&#45;&gt;src/crypto/crypto&#45;types.ts</title>
<path fill="none" stroke="#528b8b" stroke-width="2" d="M690.51,-757.99C769.42,-761.54 907.6,-767.91 1026,-774.14 1040.66,-774.91 1056.18,-775.77 1071.34,-776.63"/>
<polygon fill="#528b8b" stroke="#528b8b" stroke-width="2" points="1071.57,-780.15 1081.75,-777.22 1071.97,-773.16 1071.57,-780.15"/>
</g>
<!-- src/crypto/keypair.ts -->
<g id="node10" class="node">
<title>src/crypto/keypair.ts</title>
<path fill="#79cdcd" stroke="#79cdcd" d="M972.5,-727.14C972.5,-727.14 859.5,-727.14 859.5,-727.14 853.5,-727.14 847.5,-721.14 847.5,-715.14 847.5,-715.14 847.5,-703.14 847.5,-703.14 847.5,-697.14 853.5,-691.14 859.5,-691.14 859.5,-691.14 972.5,-691.14 972.5,-691.14 978.5,-691.14 984.5,-697.14 984.5,-703.14 984.5,-703.14 984.5,-715.14 984.5,-715.14 984.5,-721.14 978.5,-727.14 972.5,-727.14"/>
<text text-anchor="middle" x="916" y="-705.44" font-family="Helvetica,sans-Serif" font-size="14.00">src/crypto/keypair.ts</text>
</g>
<!-- src/crypto/crypto.ts&#45;&gt;src/crypto/keypair.ts -->
<g id="edge12" class="edge">
<title>src/crypto/crypto.ts&#45;&gt;src/crypto/keypair.ts</title>
<path fill="none" stroke="#528b8b" stroke-width="2" d="M690.53,-744.93C733.91,-738.02 791.48,-728.84 837.46,-721.51"/>
<polygon fill="#528b8b" stroke="#528b8b" stroke-width="2" points="838.06,-724.95 847.39,-719.92 836.96,-718.04 838.06,-724.95"/>
</g>
<!-- src/crypto/crypto.ts&#45;&gt;src/types/doc&#45;types.ts -->
<g id="edge9" class="edge">
<title>src/crypto/crypto.ts&#45;&gt;src/types/doc&#45;types.ts</title>
<path fill="none" stroke="#528b8b" stroke-width="2" d="M652.79,-737.06C686.6,-714.78 747.9,-677.61 806,-659.14 1003.64,-596.3 1067.62,-650.7 1269,-601.14 1299.3,-593.68 1332.05,-581.64 1358.14,-571.02"/>
<polygon fill="#528b8b" stroke="#528b8b" stroke-width="2" points="1359.53,-574.24 1367.44,-567.19 1356.86,-567.77 1359.53,-574.24"/>
</g>
<!-- src/crypto/keypair.ts&#45;&gt;src/core&#45;validators/addresses.ts -->
<g id="edge17" class="edge">
<title>src/crypto/keypair.ts&#45;&gt;src/core&#45;validators/addresses.ts</title>
<path fill="none" stroke="#528b8b" stroke-width="2" d="M952.21,-727.38C974.24,-739.46 1002.75,-756.3 1026,-774.14 1043.7,-787.73 1043.79,-796.24 1062,-809.14 1077.33,-820 1095.3,-829.79 1111.89,-837.83"/>
<polygon fill="#528b8b" stroke="#528b8b" stroke-width="2" points="1110.4,-840.99 1120.93,-842.1 1113.39,-834.66 1110.4,-840.99"/>
</g>
<!-- src/crypto/keypair.ts&#45;&gt;src/crypto/base32.ts -->
<g id="edge15" class="edge">
<title>src/crypto/keypair.ts&#45;&gt;src/crypto/base32.ts</title>
<path fill="none" stroke="#528b8b" stroke-width="2" d="M984.63,-698.76C1016.28,-693.9 1054.14,-688.09 1086.95,-683.05"/>
<polygon fill="#528b8b" stroke="#528b8b" stroke-width="2" points="1087.6,-686.49 1096.95,-681.51 1086.54,-679.57 1087.6,-686.49"/>
</g>
<!-- src/crypto/keypair.ts&#45;&gt;src/crypto/crypto&#45;types.ts -->
<g id="edge16" class="edge">
<title>src/crypto/keypair.ts&#45;&gt;src/crypto/crypto&#45;types.ts</title>
<path fill="none" stroke="#528b8b" stroke-width="2" d="M978.69,-727.23C994.14,-731.76 1010.68,-736.62 1026,-741.14 1048.01,-747.63 1071.97,-754.72 1093.69,-761.15"/>
<polygon fill="#528b8b" stroke="#528b8b" stroke-width="2" points="1092.91,-764.57 1103.49,-764.05 1094.9,-757.85 1092.91,-764.57"/>
</g>
<!-- src/crypto/keypair.ts&#45;&gt;src/types/doc&#45;types.ts -->
<g id="edge14" class="edge">
<title>src/crypto/keypair.ts&#45;&gt;src/types/doc&#45;types.ts</title>
<path fill="none" stroke="#528b8b" stroke-width="2" d="M984.65,-721.85C1058.18,-732.37 1177.4,-739.67 1269,-698.14 1325.79,-672.39 1370.27,-611.47 1392.47,-576.02"/>
<polygon fill="#528b8b" stroke="#528b8b" stroke-width="2" points="1395.65,-577.52 1397.88,-567.16 1389.68,-573.87 1395.65,-577.52"/>
</g>
<!-- src/format&#45;validators/format&#45;validator&#45;es4.ts&#45;&gt;src/core&#45;validators/characters.ts -->
<g id="edge25" class="edge">
<title>src/format&#45;validators/format&#45;validator&#45;es4.ts&#45;&gt;src/core&#45;validators/characters.ts</title>
<path fill="none" stroke="#528b8b" stroke-width="2" d="M322.23,-865.37C350,-897.13 412.36,-961.8 481,-989.14 773.35,-1105.6 1159.9,-1040.66 1326.2,-1003.48"/>
<polygon fill="#528b8b" stroke="#528b8b" stroke-width="2" points="1327.38,-1006.8 1336.36,-1001.18 1325.83,-999.98 1327.38,-1006.8"/>
</g>
<!-- src/format&#45;validators/format&#45;validator&#45;es4.ts&#45;&gt;src/core&#45;validators/checkers.ts -->
<g id="edge26" class="edge">
<title>src/format&#45;validators/format&#45;validator&#45;es4.ts&#45;&gt;src/core&#45;validators/checkers.ts</title>
<path fill="none" stroke="#528b8b" stroke-width="2" d="M328.58,-865.35C359.83,-890.47 420.6,-934.75 481,-953.14 676.66,-1012.7 918.34,-1005.71 1055.61,-994.75"/>
<polygon fill="#528b8b" stroke="#528b8b" stroke-width="2" points="1056.04,-998.23 1065.72,-993.92 1055.46,-991.25 1056.04,-998.23"/>
</g>
<!-- src/format&#45;validators/format&#45;validator&#45;es4.ts&#45;&gt;src/crypto/crypto.ts -->
<g id="edge27" class="edge">
<title>src/format&#45;validators/format&#45;validator&#45;es4.ts&#45;&gt;src/crypto/crypto.ts</title>
<path fill="none" stroke="#528b8b" stroke-width="2" d="M369.35,-829.08C421.99,-813.82 497.4,-791.97 552.58,-775.98"/>
<polygon fill="#528b8b" stroke="#528b8b" stroke-width="2" points="553.66,-779.31 562.29,-773.17 551.71,-772.59 553.66,-779.31"/>
</g>
<!-- src/format&#45;validators/format&#45;validator&#45;types.ts -->
<g id="node12" class="node">
<title>src/format&#45;validators/format&#45;validator&#45;types.ts</title>
<path fill="#79cdcd" stroke="#79cdcd" d="M758,-575.14C758,-575.14 493,-575.14 493,-575.14 487,-575.14 481,-569.14 481,-563.14 481,-563.14 481,-551.14 481,-551.14 481,-545.14 487,-539.14 493,-539.14 493,-539.14 758,-539.14 758,-539.14 764,-539.14 770,-545.14 770,-551.14 770,-551.14 770,-563.14 770,-563.14 770,-569.14 764,-575.14 758,-575.14"/>
<text text-anchor="middle" x="625.5" y="-553.44" font-family="Helvetica,sans-Serif" font-size="14.00">src/format&#45;validators/format&#45;validator&#45;types.ts</text>
</g>
<!-- src/format&#45;validators/format&#45;validator&#45;es4.ts&#45;&gt;src/format&#45;validators/format&#45;validator&#45;types.ts -->
<g id="edge24" class="edge">
<title>src/format&#45;validators/format&#45;validator&#45;es4.ts&#45;&gt;src/format&#45;validators/format&#45;validator&#45;types.ts</title>
<path fill="none" stroke="#528b8b" stroke-width="2" d="M326.86,-829C381.54,-779.06 534.38,-639.45 597.11,-582.16"/>
<polygon fill="#528b8b" stroke="#528b8b" stroke-width="2" points="599.62,-584.6 604.65,-575.28 594.9,-579.44 599.62,-584.6"/>
</g>
<!-- src/format&#45;validators/format&#45;validator&#45;es4.ts&#45;&gt;src/types/doc&#45;types.ts -->
<g id="edge23" class="edge">
<title>src/format&#45;validators/format&#45;validator&#45;es4.ts&#45;&gt;src/types/doc&#45;types.ts</title>
<path fill="none" stroke="#528b8b" stroke-width="2" d="M400.67,-865.21C614.86,-904.33 1132.45,-985.71 1269,-887.14 1373.04,-812.04 1399.45,-644.65 1405.95,-577.66"/>
<polygon fill="#528b8b" stroke="#528b8b" stroke-width="2" points="1409.46,-577.71 1406.86,-567.44 1402.49,-577.09 1409.46,-577.71"/>
</g>
<!-- src/format&#45;validators/format&#45;validator&#45;types.ts&#45;&gt;src/types/doc&#45;types.ts -->
<g id="edge28" class="edge">
<title>src/format&#45;validators/format&#45;validator&#45;types.ts&#45;&gt;src/types/doc&#45;types.ts</title>
<path fill="none" stroke="#528b8b" stroke-width="2" d="M770.29,-555.67C933.24,-554 1193.27,-551.34 1325.29,-549.99"/>
<polygon fill="#528b8b" stroke="#528b8b" stroke-width="2" points="1325.38,-553.49 1335.34,-549.89 1325.3,-546.49 1325.38,-553.49"/>
</g>
<!-- src/storage/compare.ts -->
<g id="node13" class="node">
<title>src/storage/compare.ts</title>
<path fill="#79cdcd" stroke="#79cdcd" d="M691,-445.14C691,-445.14 560,-445.14 560,-445.14 554,-445.14 548,-439.14 548,-433.14 548,-433.14 548,-421.14 548,-421.14 548,-415.14 554,-409.14 560,-409.14 560,-409.14 691,-409.14 691,-409.14 697,-409.14 703,-415.14 703,-421.14 703,-421.14 703,-433.14 703,-433.14 703,-439.14 697,-445.14 691,-445.14"/>
<text text-anchor="middle" x="625.5" y="-423.44" font-family="Helvetica,sans-Serif" font-size="14.00">src/storage/compare.ts</text>
</g>
<!-- src/storage/util&#45;types.ts -->
<g id="node21" class="node">
<title>src/storage/util&#45;types.ts</title>
<path fill="#79cdcd" stroke="#79cdcd" d="M981.5,-422.14C981.5,-422.14 850.5,-422.14 850.5,-422.14 844.5,-422.14 838.5,-416.14 838.5,-410.14 838.5,-410.14 838.5,-398.14 838.5,-398.14 838.5,-392.14 844.5,-386.14 850.5,-386.14 850.5,-386.14 981.5,-386.14 981.5,-386.14 987.5,-386.14 993.5,-392.14 993.5,-398.14 993.5,-398.14 993.5,-410.14 993.5,-410.14 993.5,-416.14 987.5,-422.14 981.5,-422.14"/>
<text text-anchor="middle" x="916" y="-400.44" font-family="Helvetica,sans-Serif" font-size="14.00">src/storage/util&#45;types.ts</text>
</g>
<!-- src/storage/compare.ts&#45;&gt;src/storage/util&#45;types.ts -->
<g id="edge29" class="edge">
<title>src/storage/compare.ts&#45;&gt;src/storage/util&#45;types.ts</title>
<path fill="none" stroke="#528b8b" stroke-width="2" d="M703.06,-421.04C741.6,-417.97 788.5,-414.23 828.36,-411.05"/>
<polygon fill="#528b8b" stroke="#528b8b" stroke-width="2" points="828.65,-414.54 838.34,-410.25 828.09,-407.56 828.65,-414.54"/>
</g>
<!-- src/storage/query&#45;types.ts -->
<g id="node16" class="node">
<title>src/storage/query&#45;types.ts</title>
<path fill="#79cdcd" stroke="#79cdcd" d="M990,-225.14C990,-225.14 842,-225.14 842,-225.14 836,-225.14 830,-219.14 830,-213.14 830,-213.14 830,-201.14 830,-201.14 830,-195.14 836,-189.14 842,-189.14 842,-189.14 990,-189.14 990,-189.14 996,-189.14 1002,-195.14 1002,-201.14 1002,-201.14 1002,-213.14 1002,-213.14 1002,-219.14 996,-225.14 990,-225.14"/>
<text text-anchor="middle" x="916" y="-203.44" font-family="Helvetica,sans-Serif" font-size="14.00">src/storage/query&#45;types.ts</text>
</g>
<!-- src/storage/follower.ts&#45;&gt;src/storage/query&#45;types.ts -->
<g id="edge32" class="edge">
<title>src/storage/follower.ts&#45;&gt;src/storage/query&#45;types.ts</title>
<path fill="none" stroke="#528b8b" stroke-width="2" d="M380.28,-140.8C471.82,-145.98 633.09,-157.14 770,-177.14 788.33,-179.82 807.82,-183.37 826.38,-187.08"/>
<polygon fill="#528b8b" stroke="#528b8b" stroke-width="2" points="825.78,-190.53 836.28,-189.1 827.18,-183.67 825.78,-190.53"/>
</g>
<!-- src/storage/storage&#45;types.ts -->
<g id="node20" class="node">
<title>src/storage/storage&#45;types.ts</title>
<path fill="#79cdcd" stroke="#79cdcd" d="M705,-109.14C705,-109.14 546,-109.14 546,-109.14 540,-109.14 534,-103.14 534,-97.14 534,-97.14 534,-85.14 534,-85.14 534,-79.14 540,-73.14 546,-73.14 546,-73.14 705,-73.14 705,-73.14 711,-73.14 717,-79.14 717,-85.14 717,-85.14 717,-97.14 717,-97.14 717,-103.14 711,-109.14 705,-109.14"/>
<text text-anchor="middle" x="625.5" y="-87.44" font-family="Helvetica,sans-Serif" font-size="14.00">src/storage/storage&#45;types.ts</text>
</g>
<!-- src/storage/follower.ts&#45;&gt;src/storage/storage&#45;types.ts -->
<g id="edge33" class="edge">
<title>src/storage/follower.ts&#45;&gt;src/storage/storage&#45;types.ts</title>
<path fill="none" stroke="#528b8b" stroke-width="2" d="M380.24,-126.53C422.81,-120.36 477.07,-112.5 523.63,-105.76"/>
<polygon fill="#528b8b" stroke="#528b8b" stroke-width="2" points="524.36,-109.19 533.75,-104.29 523.35,-102.26 524.36,-109.19"/>
</g>
<!-- src/storage/follower.ts&#45;&gt;src/storage/util&#45;types.ts -->
<g id="edge30" class="edge">
<title>src/storage/follower.ts&#45;&gt;src/storage/util&#45;types.ts</title>
<path fill="none" stroke="#528b8b" stroke-width="2" d="M331.33,-155.15C364.07,-178.78 424.71,-220.5 481,-248.14 547.84,-280.96 746.66,-348.44 850.39,-382.89"/>
<polygon fill="#528b8b" stroke="#528b8b" stroke-width="2" points="849.53,-386.29 860.12,-386.12 851.73,-379.65 849.53,-386.29"/>
</g>
<!-- src/storage/follower.ts&#45;&gt;src/types/doc&#45;types.ts -->
<g id="edge31" class="edge">
<title>src/storage/follower.ts&#45;&gt;src/types/doc&#45;types.ts</title>
<path fill="none" stroke="#528b8b" stroke-width="2" d="M329.76,-118.97C361.46,-94.95 421.7,-53.83 481,-38.14 715.18,23.82 788.25,1.28 1026,-45.14 1139.19,-67.24 1188.84,-53.23 1269,-136.14 1377.29,-248.14 1401.31,-447.2 1406.56,-520.78"/>
<polygon fill="#528b8b" stroke="#528b8b" stroke-width="2" points="1403.08,-521.34 1407.22,-531.09 1410.07,-520.88 1403.08,-521.34"/>
</g>
<!-- src/storage/lock.ts -->
<g id="node15" class="node">
<title>src/storage/lock.ts</title>
<path fill="#79cdcd" stroke="#79cdcd" d="M966.5,-90.14C966.5,-90.14 865.5,-90.14 865.5,-90.14 859.5,-90.14 853.5,-84.14 853.5,-78.14 853.5,-78.14 853.5,-66.14 853.5,-66.14 853.5,-60.14 859.5,-54.14 865.5,-54.14 865.5,-54.14 966.5,-54.14 966.5,-54.14 972.5,-54.14 978.5,-60.14 978.5,-66.14 978.5,-66.14 978.5,-78.14 978.5,-78.14 978.5,-84.14 972.5,-90.14 966.5,-90.14"/>
<text text-anchor="middle" x="916" y="-68.44" font-family="Helvetica,sans-Serif" font-size="14.00">src/storage/lock.ts</text>
</g>
<!-- src/storage/query&#45;types.ts&#45;&gt;src/types/doc&#45;types.ts -->
<g id="edge34" class="edge">
<title>src/storage/query&#45;types.ts&#45;&gt;src/types/doc&#45;types.ts</title>
<path fill="none" stroke="#528b8b" stroke-width="2" d="M1002.36,-192.31C1079.24,-183.81 1191.71,-183.97 1269,-239.14 1364.98,-307.66 1395.82,-458.24 1404.73,-520.91"/>
<polygon fill="#528b8b" stroke="#528b8b" stroke-width="2" points="1401.27,-521.42 1406.06,-530.87 1408.21,-520.49 1401.27,-521.42"/>
</g>
<!-- src/storage/query.ts -->
<g id="node17" class="node">
<title>src/storage/query.ts</title>
<path fill="#79cdcd" stroke="#79cdcd" d="M680.5,-239.14C680.5,-239.14 570.5,-239.14 570.5,-239.14 564.5,-239.14 558.5,-233.14 558.5,-227.14 558.5,-227.14 558.5,-215.14 558.5,-215.14 558.5,-209.14 564.5,-203.14 570.5,-203.14 570.5,-203.14 680.5,-203.14 680.5,-203.14 686.5,-203.14 692.5,-209.14 692.5,-215.14 692.5,-215.14 692.5,-227.14 692.5,-227.14 692.5,-233.14 686.5,-239.14 680.5,-239.14"/>
<text text-anchor="middle" x="625.5" y="-217.44" font-family="Helvetica,sans-Serif" font-size="14.00">src/storage/query.ts</text>
</g>
<!-- src/storage/query.ts&#45;&gt;src/storage/query&#45;types.ts -->
<g id="edge36" class="edge">
<title>src/storage/query.ts&#45;&gt;src/storage/query&#45;types.ts</title>
<path fill="none" stroke="#528b8b" stroke-width="2" d="M692.69,-217.93C730.34,-216.1 778.15,-213.78 819.77,-211.76"/>
<polygon fill="#528b8b" stroke="#528b8b" stroke-width="2" points="820.12,-215.25 829.94,-211.27 819.78,-208.26 820.12,-215.25"/>
</g>
<!-- src/storage/query.ts&#45;&gt;src/types/doc&#45;types.ts -->
<g id="edge35" class="edge">
<title>src/storage/query.ts&#45;&gt;src/types/doc&#45;types.ts</title>
<path fill="none" stroke="#528b8b" stroke-width="2" d="M692.61,-226.68C851.85,-240.24 1245.28,-275.17 1269,-291.14 1350.9,-346.29 1388.51,-466.09 1401.91,-520.83"/>
<polygon fill="#528b8b" stroke="#528b8b" stroke-width="2" points="1398.58,-521.94 1404.27,-530.87 1405.39,-520.33 1398.58,-521.94"/>
</g>
<!-- src/storage/storage&#45;async.ts&#45;&gt;src/crypto/crypto.ts -->
<g id="edge43" class="edge">
<title>src/storage/storage&#45;async.ts&#45;&gt;src/crypto/crypto.ts</title>
<path fill="none" stroke="#528b8b" stroke-width="2" d="M327.34,-491.21C382.21,-539.94 533.31,-674.15 596.33,-730.12"/>
<polygon fill="#528b8b" stroke="#528b8b" stroke-width="2" points="594.11,-732.83 603.91,-736.86 598.76,-727.6 594.11,-732.83"/>
</g>
<!-- src/storage/storage&#45;async.ts&#45;&gt;src/format&#45;validators/format&#45;validator&#45;types.ts -->
<g id="edge41" class="edge">
<title>src/storage/storage&#45;async.ts&#45;&gt;src/format&#45;validators/format&#45;validator&#45;types.ts</title>
<path fill="none" stroke="#528b8b" stroke-width="2" d="M363.53,-491.14C397.43,-501.66 441.49,-514.85 481,-525.14 496.44,-529.17 512.9,-533.13 528.96,-536.83"/>
<polygon fill="#528b8b" stroke="#528b8b" stroke-width="2" points="528.37,-540.29 538.9,-539.1 529.92,-533.46 528.37,-540.29"/>
</g>
<!-- src/storage/storage&#45;async.ts&#45;&gt;src/storage/compare.ts -->
<g id="edge42" class="edge">
<title>src/storage/storage&#45;async.ts&#45;&gt;src/storage/compare.ts</title>
<path fill="none" stroke="#528b8b" stroke-width="2" d="M399.26,-459.78C442.91,-453.45 494.74,-445.94 537.67,-439.72"/>
<polygon fill="#528b8b" stroke="#528b8b" stroke-width="2" points="538.42,-443.15 547.82,-438.25 537.42,-436.22 538.42,-443.15"/>
</g>
<!-- src/storage/storage&#45;async.ts&#45;&gt;src/storage/query&#45;types.ts -->
<g id="edge39" class="edge">
<title>src/storage/storage&#45;async.ts&#45;&gt;src/storage/query&#45;types.ts</title>
<path fill="none" stroke="#528b8b" stroke-width="2" d="M348.31,-455.07C456.31,-407.82 746.78,-280.74 864.46,-229.25"/>
<polygon fill="#528b8b" stroke="#528b8b" stroke-width="2" points="865.87,-232.46 873.63,-225.24 863.07,-226.04 865.87,-232.46"/>
</g>
<!-- src/storage/storage&#45;async.ts&#45;&gt;src/storage/storage&#45;types.ts -->
<g id="edge40" class="edge">
<title>src/storage/storage&#45;async.ts&#45;&gt;src/storage/storage&#45;types.ts</title>
<path fill="none" stroke="#528b8b" stroke-width="2" d="M323.64,-454.89C351.74,-423.3 409.07,-355.53 445,-290.14 466.94,-250.21 453.3,-230.32 481,-194.14 507.13,-160.02 547.67,-132.38 579,-114.36"/>
<polygon fill="#528b8b" stroke="#528b8b" stroke-width="2" points="580.98,-117.26 587.99,-109.31 577.55,-111.16 580.98,-117.26"/>
</g>
<!-- src/storage/storage&#45;async.ts&#45;&gt;src/storage/util&#45;types.ts -->
<g id="edge37" class="edge">
<title>src/storage/storage&#45;async.ts&#45;&gt;src/storage/util&#45;types.ts</title>
<path fill="none" stroke="#528b8b" stroke-width="2" d="M399.25,-477.18C493.34,-479.48 643.12,-478.09 770,-454.14 801.95,-448.11 836.41,-436.46 863.71,-425.92"/>
<polygon fill="#528b8b" stroke="#528b8b" stroke-width="2" points="865.03,-429.16 873.06,-422.25 862.47,-422.65 865.03,-429.16"/>
</g>
<!-- src/storage/storage&#45;async.ts&#45;&gt;src/types/doc&#45;types.ts -->
<g id="edge38" class="edge">
<title>src/storage/storage&#45;async.ts&#45;&gt;src/types/doc&#45;types.ts</title>
<path fill="none" stroke="#528b8b" stroke-width="2" d="M399.45,-479.52C610.21,-494.07 1123.59,-529.51 1324.98,-543.41"/>
<polygon fill="#528b8b" stroke="#528b8b" stroke-width="2" points="1324.98,-546.92 1335.2,-544.12 1325.46,-539.94 1324.98,-546.92"/>
</g>
<!-- src/storage/storage&#45;driver&#45;async&#45;memory.ts&#45;&gt;src/storage/compare.ts -->
<g id="edge48" class="edge">
<title>src/storage/storage&#45;driver&#45;async&#45;memory.ts&#45;&gt;src/storage/compare.ts</title>
<path fill="none" stroke="#528b8b" stroke-width="2" d="M325.04,-281.16C354.83,-309.84 417.36,-365.63 481,-395.14 498.65,-403.33 518.51,-409.47 537.7,-414.07"/>
<polygon fill="#528b8b" stroke="#528b8b" stroke-width="2" points="537.13,-417.53 547.66,-416.34 538.68,-410.71 537.13,-417.53"/>
</g>
<!-- src/storage/storage&#45;driver&#45;async&#45;memory.ts&#45;&gt;src/storage/lock.ts -->
<g id="edge50" class="edge">
<title>src/storage/storage&#45;driver&#45;async&#45;memory.ts&#45;&gt;src/storage/lock.ts</title>
<path fill="none" stroke="#528b8b" stroke-width="2" d="M343.44,-245.11C374.4,-228.1 417.98,-199.9 445,-164.14 473.48,-126.45 442.35,-91.3 481,-64.14 537.44,-24.47 735.15,-45.64 843.18,-60.91"/>
<polygon fill="#528b8b" stroke="#528b8b" stroke-width="2" points="842.96,-64.42 853.35,-62.37 843.95,-57.49 842.96,-64.42"/>
</g>
<!-- src/storage/storage&#45;driver&#45;async&#45;memory.ts&#45;&gt;src/storage/query&#45;types.ts -->
<g id="edge46" class="edge">
<title>src/storage/storage&#45;driver&#45;async&#45;memory.ts&#45;&gt;src/storage/query&#45;types.ts</title>
<path fill="none" stroke="#528b8b" stroke-width="2" d="M341.15,-245.11C375.42,-228.11 430.25,-203.84 481,-194.14 595.96,-172.18 731.12,-181.64 819.69,-192.49"/>
<polygon fill="#528b8b" stroke="#528b8b" stroke-width="2" points="819.36,-195.97 829.72,-193.74 820.23,-189.03 819.36,-195.97"/>
</g>
<!-- src/storage/storage&#45;driver&#45;async&#45;memory.ts&#45;&gt;src/storage/query.ts -->
<g id="edge49" class="edge">
<title>src/storage/storage&#45;driver&#45;async&#45;memory.ts&#45;&gt;src/storage/query.ts</title>
<path fill="none" stroke="#528b8b" stroke-width="2" d="M443.49,-245.09C479.43,-240.33 516.93,-235.37 548.41,-231.21"/>
<polygon fill="#528b8b" stroke="#528b8b" stroke-width="2" points="548.96,-234.67 558.41,-229.88 548.04,-227.73 548.96,-234.67"/>
</g>
<!-- src/storage/storage&#45;driver&#45;async&#45;memory.ts&#45;&gt;src/storage/storage&#45;types.ts -->
<g id="edge47" class="edge">
<title>src/storage/storage&#45;driver&#45;async&#45;memory.ts&#45;&gt;src/storage/storage&#45;types.ts</title>
<path fill="none" stroke="#528b8b" stroke-width="2" d="M336.17,-245.12C370.42,-224.18 429.15,-188.93 481,-161.14 512.28,-144.38 548.16,-126.87 576.22,-113.56"/>
<polygon fill="#528b8b" stroke="#528b8b" stroke-width="2" points="577.87,-116.65 585.42,-109.22 574.88,-110.32 577.87,-116.65"/>
</g>
<!-- src/storage/storage&#45;driver&#45;async&#45;memory.ts&#45;&gt;src/storage/util&#45;types.ts -->
<g id="edge44" class="edge">
<title>src/storage/storage&#45;driver&#45;async&#45;memory.ts&#45;&gt;src/storage/util&#45;types.ts</title>
<path fill="none" stroke="#528b8b" stroke-width="2" d="M332.69,-281.2C365.45,-303.2 424.61,-339.6 481,-357.14 543.74,-376.66 720.62,-391.3 828.22,-398.72"/>
<polygon fill="#528b8b" stroke="#528b8b" stroke-width="2" points="828.19,-402.22 838.41,-399.41 828.67,-395.24 828.19,-402.22"/>
</g>
<!-- src/storage/storage&#45;driver&#45;async&#45;memory.ts&#45;&gt;src/types/doc&#45;types.ts -->
<g id="edge45" class="edge">
<title>src/storage/storage&#45;driver&#45;async&#45;memory.ts&#45;&gt;src/types/doc&#45;types.ts</title>
<path fill="none" stroke="#528b8b" stroke-width="2" d="M445.25,-274.08C591.82,-288.19 828.91,-318.29 1026,-377.14 1155.46,-415.8 1298.18,-488.92 1366.75,-526.13"/>
<polygon fill="#528b8b" stroke="#528b8b" stroke-width="2" points="1365.47,-529.42 1375.92,-531.14 1368.82,-523.28 1365.47,-529.42"/>
</g>
<!-- src/storage/storage&#45;types.ts&#45;&gt;src/storage/lock.ts -->
<g id="edge53" class="edge">
<title>src/storage/storage&#45;types.ts&#45;&gt;src/storage/lock.ts</title>
<path fill="none" stroke="#528b8b" stroke-width="2" d="M717.39,-85.16C758.02,-82.48 805.23,-79.37 843.31,-76.86"/>
<polygon fill="#528b8b" stroke="#528b8b" stroke-width="2" points="843.55,-80.36 853.29,-76.21 843.09,-73.37 843.55,-80.36"/>
</g>
<!-- src/storage/storage&#45;types.ts&#45;&gt;src/storage/query&#45;types.ts -->
<g id="edge52" class="edge">
<title>src/storage/storage&#45;types.ts&#45;&gt;src/storage/query&#45;types.ts</title>
<path fill="none" stroke="#528b8b" stroke-width="2" d="M717.09,-102.99C735.33,-107.64 753.84,-114.12 770,-123.14 790.03,-134.33 787.1,-147.13 806,-160.14 820.19,-169.91 836.73,-178.31 852.58,-185.2"/>
<polygon fill="#528b8b" stroke="#528b8b" stroke-width="2" points="851.23,-188.43 861.81,-189.08 853.95,-181.98 851.23,-188.43"/>
</g>
<!-- src/storage/storage&#45;types.ts&#45;&gt;src/types/doc&#45;types.ts -->
<g id="edge51" class="edge">
<title>src/storage/storage&#45;types.ts&#45;&gt;src/types/doc&#45;types.ts</title>
<path fill="none" stroke="#528b8b" stroke-width="2" d="M717.02,-99.3C883.82,-115.07 1226.61,-151.17 1269,-185.14 1376.72,-271.48 1401.03,-451.49 1406.46,-520.95"/>
<polygon fill="#528b8b" stroke="#528b8b" stroke-width="2" points="1402.98,-521.39 1407.18,-531.12 1409.96,-520.9 1402.98,-521.39"/>
</g>
</g>
</svg>
