<?xml version="1.0" encoding="UTF-8" standalone="no"?>
<!DOCTYPE svg PUBLIC "-//W3C//DTD SVG 1.1//EN"
 "http://www.w3.org/Graphics/SVG/1.1/DTD/svg11.dtd">
<!-- Generated by graphviz version 2.44.1 (20200629.0846)
 -->
<!-- Title: G Pages: 1 -->
<svg width="927pt" height="342pt"
 viewBox="0.00 0.00 927.00 342.00" xmlns="http://www.w3.org/2000/svg" xmlns:xlink="http://www.w3.org/1999/xlink">
<g id="graph0" class="graph" transform="scale(1 1) rotate(0) translate(4 338)">
<title>G</title>
<polygon fill="white" stroke="transparent" points="-4,4 -4,-338 923,-338 923,4 -4,4"/>
<g id="clust1" class="cluster">
<title>cluster8803529267</title>
<path fill="none" stroke="#8b7d6b" stroke-width="2" d="M20,-8C20,-8 899,-8 899,-8 905,-8 911,-14 911,-20 911,-20 911,-314 911,-314 911,-320 905,-326 899,-326 899,-326 20,-326 20,-326 14,-326 8,-320 8,-314 8,-314 8,-20 8,-20 8,-14 14,-8 20,-8"/>
<text text-anchor="start" x="449" y="-311.8" font-family="Helvetica,sans-Serif" font-weight="bold" font-size="14.00">src</text>
</g>
<g id="clust2" class="cluster">
<title>cluster7183007513</title>
<path fill="bisque" stroke="#8b7d6b" stroke-width="2" d="M676,-28C676,-28 891,-28 891,-28 897,-28 903,-34 903,-40 903,-40 903,-145 903,-145 903,-151 897,-157 891,-157 891,-157 676,-157 676,-157 670,-157 664,-151 664,-145 664,-145 664,-40 664,-40 664,-34 670,-28 676,-28"/>
<text text-anchor="start" x="736.5" y="-142.8" font-family="Helvetica,sans-Serif" font-weight="bold" font-size="14.00">coreValidators</text>
</g>
<g id="clust3" class="cluster">
<title>cluster9137571748</title>
<path fill="bisque" stroke="#8b7d6b" stroke-width="2" d="M400,-68C400,-68 632,-68 632,-68 638,-68 644,-74 644,-80 644,-80 644,-185 644,-185 644,-191 638,-197 632,-197 632,-197 400,-197 400,-197 394,-197 388,-191 388,-185 388,-185 388,-80 388,-80 388,-74 394,-68 400,-68"/>
<text text-anchor="start" x="495" y="-182.8" font-family="Helvetica,sans-Serif" font-weight="bold" font-size="14.00">crypto</text>
</g>
<g id="clust4" class="cluster">
<title>cluster1025479157</title>
<path fill="bisque" stroke="#8b7d6b" stroke-width="2" d="M220,-62C220,-62 302,-62 302,-62 308,-62 314,-68 314,-74 314,-74 314,-125 314,-125 314,-131 308,-137 302,-137 302,-137 220,-137 220,-137 214,-137 208,-131 208,-125 208,-125 208,-74 208,-74 208,-68 214,-62 220,-62"/>
<text text-anchor="start" x="216" y="-122.8" font-family="Helvetica,sans-Serif" font-weight="bold" font-size="14.00">docValidators</text>
</g>
<g id="clust5" class="cluster">
<title>cluster9571430713</title>
<path fill="bisque" stroke="#8b7d6b" stroke-width="2" d="M166,-145C166,-145 356,-145 356,-145 362,-145 368,-151 368,-157 368,-157 368,-262 368,-262 368,-268 362,-274 356,-274 356,-274 166,-274 166,-274 160,-274 154,-268 154,-262 154,-262 154,-157 154,-157 154,-151 160,-145 166,-145"/>
<text text-anchor="start" x="236.5" y="-259.8" font-family="Helvetica,sans-Serif" font-weight="bold" font-size="14.00">storage</text>
</g>
<!-- src/base32.ts -->
<g id="node1" class="node">
<title>src/base32.ts</title>
<path fill="#79cdcd" stroke="#79cdcd" d="M744,-201C744,-201 693,-201 693,-201 687,-201 681,-195 681,-189 681,-189 681,-177 681,-177 681,-171 687,-165 693,-165 693,-165 744,-165 744,-165 750,-165 756,-171 756,-177 756,-177 756,-189 756,-189 756,-195 750,-201 744,-201"/>
<text text-anchor="middle" x="718.5" y="-179.3" font-family="Helvetica,sans-Serif" font-size="14.00">base32.ts</text>
</g>
<!-- src/example&#45;app.ts -->
<g id="node2" class="node">
<title>src/example&#45;app.ts</title>
<path fill="#79cdcd" stroke="#79cdcd" d="M114,-147C114,-147 28,-147 28,-147 22,-147 16,-141 16,-135 16,-135 16,-123 16,-123 16,-117 22,-111 28,-111 28,-111 114,-111 114,-111 120,-111 126,-117 126,-123 126,-123 126,-135 126,-135 126,-141 120,-147 114,-147"/>
<text text-anchor="middle" x="71" y="-125.3" font-family="Helvetica,sans-Serif" font-size="14.00">example&#45;app.ts</text>
</g>
<!-- src/follower.ts -->
<g id="node3" class="node">
<title>src/follower.ts</title>
<path fill="#79cdcd" stroke="#79cdcd" d="M287.5,-52C287.5,-52 234.5,-52 234.5,-52 228.5,-52 222.5,-46 222.5,-40 222.5,-40 222.5,-28 222.5,-28 222.5,-22 228.5,-16 234.5,-16 234.5,-16 287.5,-16 287.5,-16 293.5,-16 299.5,-22 299.5,-28 299.5,-28 299.5,-40 299.5,-40 299.5,-46 293.5,-52 287.5,-52"/>
<text text-anchor="middle" x="261" y="-30.3" font-family="Helvetica,sans-Serif" font-size="14.00">follower.ts</text>
</g>
<!-- src/example&#45;app.ts&#45;&gt;src/follower.ts -->
<g id="edge15" class="edge">
<title>src/example&#45;app.ts&#45;&gt;src/follower.ts</title>
<path fill="none" stroke="#528b8b" stroke-width="2" d="M88.06,-110.72C103.39,-94.42 127.95,-71.17 154,-58 171.98,-48.91 193.41,-43.22 212.28,-39.69"/>
<polygon fill="#528b8b" stroke="#528b8b" stroke-width="2" points="212.91,-43.13 222.17,-37.98 211.72,-36.23 212.91,-43.13"/>
</g>
<!-- src/docValidators/es4.ts -->
<g id="node12" class="node">
<title>src/docValidators/es4.ts</title>
<path fill="#79cdcd" stroke="#79cdcd" d="M276,-106C276,-106 246,-106 246,-106 240,-106 234,-100 234,-94 234,-94 234,-82 234,-82 234,-76 240,-70 246,-70 246,-70 276,-70 276,-70 282,-70 288,-76 288,-82 288,-82 288,-94 288,-94 288,-100 282,-106 276,-106"/>
<text text-anchor="middle" x="261" y="-84.3" font-family="Helvetica,sans-Serif" font-size="14.00">es4.ts</text>
</g>
<!-- src/example&#45;app.ts&#45;&gt;src/docValidators/es4.ts -->
<g id="edge12" class="edge">
<title>src/example&#45;app.ts&#45;&gt;src/docValidators/es4.ts</title>
<path fill="none" stroke="#528b8b" stroke-width="2" d="M126.13,-117.2C157.48,-110.36 196.11,-101.93 223.79,-95.9"/>
<polygon fill="#528b8b" stroke="#528b8b" stroke-width="2" points="224.81,-99.26 233.83,-93.71 223.32,-92.42 224.81,-99.26"/>
</g>
<!-- src/storage/storageAsync.ts -->
<g id="node13" class="node">
<title>src/storage/storageAsync.ts</title>
<path fill="#79cdcd" stroke="#79cdcd" d="M305.5,-189C305.5,-189 216.5,-189 216.5,-189 210.5,-189 204.5,-183 204.5,-177 204.5,-177 204.5,-165 204.5,-165 204.5,-159 210.5,-153 216.5,-153 216.5,-153 305.5,-153 305.5,-153 311.5,-153 317.5,-159 317.5,-165 317.5,-165 317.5,-177 317.5,-177 317.5,-183 311.5,-189 305.5,-189"/>
<text text-anchor="middle" x="261" y="-167.3" font-family="Helvetica,sans-Serif" font-size="14.00">storageAsync.ts</text>
</g>
<!-- src/example&#45;app.ts&#45;&gt;src/storage/storageAsync.ts -->
<g id="edge14" class="edge">
<title>src/example&#45;app.ts&#45;&gt;src/storage/storageAsync.ts</title>
<path fill="none" stroke="#528b8b" stroke-width="2" d="M126.13,-141.09C147.38,-145.84 171.98,-151.34 194.25,-156.31"/>
<polygon fill="#528b8b" stroke="#528b8b" stroke-width="2" points="193.78,-159.79 204.3,-158.56 195.3,-152.96 193.78,-159.79"/>
</g>
<!-- src/storage/storageDriverAsyncMemory.ts -->
<g id="node14" class="node">
<title>src/storage/storageDriverAsyncMemory.ts</title>
<path fill="#79cdcd" stroke="#79cdcd" d="M348,-243C348,-243 174,-243 174,-243 168,-243 162,-237 162,-231 162,-231 162,-219 162,-219 162,-213 168,-207 174,-207 174,-207 348,-207 348,-207 354,-207 360,-213 360,-219 360,-219 360,-231 360,-231 360,-237 354,-243 348,-243"/>
<text text-anchor="middle" x="261" y="-221.3" font-family="Helvetica,sans-Serif" font-size="14.00">storageDriverAsyncMemory.ts</text>
</g>
<!-- src/example&#45;app.ts&#45;&gt;src/storage/storageDriverAsyncMemory.ts -->
<g id="edge13" class="edge">
<title>src/example&#45;app.ts&#45;&gt;src/storage/storageDriverAsyncMemory.ts</title>
<path fill="none" stroke="#528b8b" stroke-width="2" d="M88.84,-147.21C104.33,-162.89 128.68,-184.99 154,-198 157.71,-199.9 161.55,-201.68 165.5,-203.33"/>
<polygon fill="#528b8b" stroke="#528b8b" stroke-width="2" points="164.24,-206.6 174.83,-206.98 166.79,-200.08 164.24,-206.6"/>
</g>
<!-- src/lock.ts -->
<g id="node4" class="node">
<title>src/lock.ts</title>
<path fill="#79cdcd" stroke="#79cdcd" d="M445.5,-295C445.5,-295 414.5,-295 414.5,-295 408.5,-295 402.5,-289 402.5,-283 402.5,-283 402.5,-271 402.5,-271 402.5,-265 408.5,-259 414.5,-259 414.5,-259 445.5,-259 445.5,-259 451.5,-259 457.5,-265 457.5,-271 457.5,-271 457.5,-283 457.5,-283 457.5,-289 451.5,-295 445.5,-295"/>
<text text-anchor="middle" x="430" y="-273.3" font-family="Helvetica,sans-Serif" font-size="14.00">lock.ts</text>
</g>
<!-- src/query.ts -->
<g id="node5" class="node">
<title>src/query.ts</title>
<path fill="#79cdcd" stroke="#79cdcd" d="M450,-241C450,-241 410,-241 410,-241 404,-241 398,-235 398,-229 398,-229 398,-217 398,-217 398,-211 404,-205 410,-205 410,-205 450,-205 450,-205 456,-205 462,-211 462,-217 462,-217 462,-229 462,-229 462,-235 456,-241 450,-241"/>
<text text-anchor="middle" x="430" y="-219.3" font-family="Helvetica,sans-Serif" font-size="14.00">query.ts</text>
</g>
<!-- src/coreValidators/addresses.ts -->
<g id="node6" class="node">
<title>src/coreValidators/addresses.ts</title>
<path fill="#79cdcd" stroke="#79cdcd" d="M753,-126C753,-126 684,-126 684,-126 678,-126 672,-120 672,-114 672,-114 672,-102 672,-102 672,-96 678,-90 684,-90 684,-90 753,-90 753,-90 759,-90 765,-96 765,-102 765,-102 765,-114 765,-114 765,-120 759,-126 753,-126"/>
<text text-anchor="middle" x="718.5" y="-104.3" font-family="Helvetica,sans-Serif" font-size="14.00">addresses.ts</text>
</g>
<!-- src/coreValidators/characters.ts -->
<g id="node7" class="node">
<title>src/coreValidators/characters.ts</title>
<path fill="#79cdcd" stroke="#79cdcd" d="M883,-72C883,-72 813,-72 813,-72 807,-72 801,-66 801,-60 801,-60 801,-48 801,-48 801,-42 807,-36 813,-36 813,-36 883,-36 883,-36 889,-36 895,-42 895,-48 895,-48 895,-60 895,-60 895,-66 889,-72 883,-72"/>
<text text-anchor="middle" x="848" y="-50.3" font-family="Helvetica,sans-Serif" font-size="14.00">characters.ts</text>
</g>
<!-- src/coreValidators/checkers.ts -->
<g id="node8" class="node">
<title>src/coreValidators/checkers.ts</title>
<path fill="#79cdcd" stroke="#79cdcd" d="M749,-72C749,-72 688,-72 688,-72 682,-72 676,-66 676,-60 676,-60 676,-48 676,-48 676,-42 682,-36 688,-36 688,-36 749,-36 749,-36 755,-36 761,-42 761,-48 761,-48 761,-60 761,-60 761,-66 755,-72 749,-72"/>
<text text-anchor="middle" x="718.5" y="-50.3" font-family="Helvetica,sans-Serif" font-size="14.00">checkers.ts</text>
</g>
<!-- src/coreValidators/checkers.ts&#45;&gt;src/coreValidators/characters.ts -->
<g id="edge1" class="edge">
<title>src/coreValidators/checkers.ts&#45;&gt;src/coreValidators/characters.ts</title>
<path fill="none" stroke="#528b8b" stroke-width="2" d="M761.25,-54C770.63,-54 780.73,-54 790.6,-54"/>
<polygon fill="#528b8b" stroke="#528b8b" stroke-width="2" points="790.75,-57.5 800.75,-54 790.75,-50.5 790.75,-57.5"/>
</g>
<!-- src/crypto/crypto.ts -->
<g id="node9" class="node">
<title>src/crypto/crypto.ts</title>
<path fill="#79cdcd" stroke="#79cdcd" d="M452,-139C452,-139 408,-139 408,-139 402,-139 396,-133 396,-127 396,-127 396,-115 396,-115 396,-109 402,-103 408,-103 408,-103 452,-103 452,-103 458,-103 464,-109 464,-115 464,-115 464,-127 464,-127 464,-133 458,-139 452,-139"/>
<text text-anchor="middle" x="430" y="-117.3" font-family="Helvetica,sans-Serif" font-size="14.00">crypto.ts</text>
</g>
<!-- src/crypto/crypto.ts&#45;&gt;src/base32.ts -->
<g id="edge3" class="edge">
<title>src/crypto/crypto.ts&#45;&gt;src/base32.ts</title>
<path fill="none" stroke="#528b8b" stroke-width="2" d="M458.92,-139.21C460.66,-140.47 462.36,-141.74 464,-143 480.95,-156.08 480.13,-167.03 500,-175 555.47,-197.26 625.43,-195.07 670.79,-190.14"/>
<polygon fill="#528b8b" stroke="#528b8b" stroke-width="2" points="671.41,-193.59 680.93,-188.95 670.59,-186.64 671.41,-193.59"/>
</g>
<!-- src/crypto/crypto.ts&#45;&gt;src/coreValidators/addresses.ts -->
<g id="edge5" class="edge">
<title>src/crypto/crypto.ts&#45;&gt;src/coreValidators/addresses.ts</title>
<path fill="none" stroke="#528b8b" stroke-width="2" d="M447.44,-102.87C460.32,-90.11 479.44,-74.09 500,-67 560.5,-46.14 582.96,-47.76 644,-67 654.35,-70.26 654.69,-75.43 664,-81 666.31,-82.38 668.69,-83.76 671.12,-85.11"/>
<polygon fill="#528b8b" stroke="#528b8b" stroke-width="2" points="669.54,-88.24 680,-89.94 672.88,-82.09 669.54,-88.24"/>
</g>
<!-- src/crypto/cryptoDriverNode.ts -->
<g id="node10" class="node">
<title>src/crypto/cryptoDriverNode.ts</title>
<path fill="#79cdcd" stroke="#79cdcd" d="M624,-166C624,-166 512,-166 512,-166 506,-166 500,-160 500,-154 500,-154 500,-142 500,-142 500,-136 506,-130 512,-130 512,-130 624,-130 624,-130 630,-130 636,-136 636,-142 636,-142 636,-154 636,-154 636,-160 630,-166 624,-166"/>
<text text-anchor="middle" x="568" y="-144.3" font-family="Helvetica,sans-Serif" font-size="14.00">cryptoDriverNode.ts</text>
</g>
<!-- src/crypto/crypto.ts&#45;&gt;src/crypto/cryptoDriverNode.ts -->
<g id="edge2" class="edge">
<title>src/crypto/crypto.ts&#45;&gt;src/crypto/cryptoDriverNode.ts</title>
<path fill="none" stroke="#528b8b" stroke-width="2" d="M464.27,-127.6C472.1,-129.16 480.76,-130.88 489.65,-132.64"/>
<polygon fill="#528b8b" stroke="#528b8b" stroke-width="2" points="489.25,-136.13 499.74,-134.65 490.61,-129.27 489.25,-136.13"/>
</g>
<!-- src/crypto/encoding.ts -->
<g id="node11" class="node">
<title>src/crypto/encoding.ts</title>
<path fill="#79cdcd" stroke="#79cdcd" d="M599,-112C599,-112 537,-112 537,-112 531,-112 525,-106 525,-100 525,-100 525,-88 525,-88 525,-82 531,-76 537,-76 537,-76 599,-76 599,-76 605,-76 611,-82 611,-88 611,-88 611,-100 611,-100 611,-106 605,-112 599,-112"/>
<text text-anchor="middle" x="568" y="-90.3" font-family="Helvetica,sans-Serif" font-size="14.00">encoding.ts</text>
</g>
<!-- src/crypto/crypto.ts&#45;&gt;src/crypto/encoding.ts -->
<g id="edge4" class="edge">
<title>src/crypto/crypto.ts&#45;&gt;src/crypto/encoding.ts</title>
<path fill="none" stroke="#528b8b" stroke-width="2" d="M464.27,-114.4C479.52,-111.37 497.96,-107.71 514.98,-104.33"/>
<polygon fill="#528b8b" stroke="#528b8b" stroke-width="2" points="515.67,-107.76 524.8,-102.38 514.31,-100.89 515.67,-107.76"/>
</g>
<!-- src/crypto/cryptoDriverNode.ts&#45;&gt;src/base32.ts -->
<g id="edge6" class="edge">
<title>src/crypto/cryptoDriverNode.ts&#45;&gt;src/base32.ts</title>
<path fill="none" stroke="#528b8b" stroke-width="2" d="M636.3,-163.86C648.05,-166.63 660.03,-169.46 671.06,-172.06"/>
<polygon fill="#528b8b" stroke="#528b8b" stroke-width="2" points="670.35,-175.48 680.89,-174.37 671.96,-168.67 670.35,-175.48"/>
</g>
<!-- src/crypto/encoding.ts&#45;&gt;src/base32.ts -->
<g id="edge7" class="edge">
<title>src/crypto/encoding.ts&#45;&gt;src/base32.ts</title>
<path fill="none" stroke="#528b8b" stroke-width="2" d="M611.35,-103.04C622.92,-107.06 634.79,-112.82 644,-121 658.86,-134.2 649.44,-147.47 664,-161 666.43,-163.26 669.12,-165.3 671.96,-167.14"/>
<polygon fill="#528b8b" stroke="#528b8b" stroke-width="2" points="670.42,-170.28 680.86,-172.09 673.82,-164.17 670.42,-170.28"/>
</g>
<!-- src/crypto/encoding.ts&#45;&gt;src/coreValidators/addresses.ts -->
<g id="edge8" class="edge">
<title>src/crypto/encoding.ts&#45;&gt;src/coreValidators/addresses.ts</title>
<path fill="none" stroke="#528b8b" stroke-width="2" d="M611.16,-97.97C626.85,-99.45 644.91,-101.16 661.64,-102.73"/>
<polygon fill="#528b8b" stroke="#528b8b" stroke-width="2" points="661.57,-106.24 671.86,-103.7 662.23,-99.27 661.57,-106.24"/>
</g>
<!-- src/docValidators/es4.ts&#45;&gt;src/coreValidators/characters.ts -->
<g id="edge9" class="edge">
<title>src/docValidators/es4.ts&#45;&gt;src/coreValidators/characters.ts</title>
<path fill="none" stroke="#528b8b" stroke-width="2" d="M288.26,-86.74C310.63,-84.71 343.03,-79.48 368,-66 379.06,-60.03 376.56,-51.21 388,-46 540.7,23.49 599.35,-0.43 765,-27 773.6,-28.38 782.52,-30.52 791.18,-33.02"/>
<polygon fill="#528b8b" stroke="#528b8b" stroke-width="2" points="790.22,-36.38 800.81,-35.95 792.26,-29.69 790.22,-36.38"/>
</g>
<!-- src/docValidators/es4.ts&#45;&gt;src/coreValidators/checkers.ts -->
<g id="edge10" class="edge">
<title>src/docValidators/es4.ts&#45;&gt;src/coreValidators/checkers.ts</title>
<path fill="none" stroke="#528b8b" stroke-width="2" d="M288.01,-82.75C313.45,-77.68 353.32,-69.93 388,-64 437.63,-55.51 449.79,-50.79 500,-47 563.82,-42.18 580.07,-43.96 644,-47 651.05,-47.33 658.47,-47.85 665.77,-48.45"/>
<polygon fill="#528b8b" stroke="#528b8b" stroke-width="2" points="665.69,-51.96 675.96,-49.35 666.3,-44.98 665.69,-51.96"/>
</g>
<!-- src/docValidators/es4.ts&#45;&gt;src/crypto/crypto.ts -->
<g id="edge11" class="edge">
<title>src/docValidators/es4.ts&#45;&gt;src/crypto/crypto.ts</title>
<path fill="none" stroke="#528b8b" stroke-width="2" d="M288.09,-93.16C314.22,-98.32 354.88,-106.35 385.82,-112.47"/>
<polygon fill="#528b8b" stroke="#528b8b" stroke-width="2" points="385.42,-115.96 395.91,-114.46 386.77,-109.09 385.42,-115.96"/>
</g>
<!-- src/storage/storageAsync.ts&#45;&gt;src/crypto/crypto.ts -->
<g id="edge16" class="edge">
<title>src/storage/storageAsync.ts&#45;&gt;src/crypto/crypto.ts</title>
<path fill="none" stroke="#528b8b" stroke-width="2" d="M317.69,-155.7C333.95,-151.11 351.72,-145.97 368,-141 373.8,-139.23 379.9,-137.3 385.9,-135.38"/>
<polygon fill="#528b8b" stroke="#528b8b" stroke-width="2" points="387.41,-138.57 395.84,-132.15 385.24,-131.91 387.41,-138.57"/>
</g>
<!-- src/storage/storageDriverAsyncMemory.ts&#45;&gt;src/lock.ts -->
<g id="edge18" class="edge">
<title>src/storage/storageDriverAsyncMemory.ts&#45;&gt;src/lock.ts</title>
<path fill="none" stroke="#528b8b" stroke-width="2" d="M319.94,-243.04C344.18,-250.59 371.59,-259.12 392.87,-265.75"/>
<polygon fill="#528b8b" stroke="#528b8b" stroke-width="2" points="391.89,-269.11 402.48,-268.74 393.97,-262.43 391.89,-269.11"/>
</g>
<!-- src/storage/storageDriverAsyncMemory.ts&#45;&gt;src/query.ts -->
<g id="edge17" class="edge">
<title>src/storage/storageDriverAsyncMemory.ts&#45;&gt;src/query.ts</title>
<path fill="none" stroke="#528b8b" stroke-width="2" d="M360.11,-223.83C369.8,-223.71 379.22,-223.6 387.83,-223.49"/>
<polygon fill="#528b8b" stroke="#528b8b" stroke-width="2" points="387.92,-226.99 397.88,-223.37 387.84,-219.99 387.92,-226.99"/>
</g>
</g>
</svg>
