<?xml version="1.0" encoding="UTF-8" standalone="no"?>
<!DOCTYPE svg PUBLIC "-//W3C//DTD SVG 1.1//EN"
 "http://www.w3.org/Graphics/SVG/1.1/DTD/svg11.dtd">
<!-- Generated by graphviz version 2.44.1 (20200629.0846)
 -->
<!-- Title: G Pages: 1 -->
<svg width="872pt" height="1095pt"
 viewBox="0.00 0.00 872.00 1094.51" xmlns="http://www.w3.org/2000/svg" xmlns:xlink="http://www.w3.org/1999/xlink">
<g id="graph0" class="graph" transform="scale(1 1) rotate(0) translate(4 1090.51)">
<title>G</title>
<polygon fill="white" stroke="transparent" points="-4,4 -4,-1090.51 868,-1090.51 868,4 -4,4"/>
<g id="clust1" class="cluster">
<title>cluster2357047193</title>
<path fill="bisque" stroke="#8b7d6b" stroke-width="2" d="M613,-481.51C613,-481.51 844,-481.51 844,-481.51 850,-481.51 856,-487.51 856,-493.51 856,-493.51 856,-598.51 856,-598.51 856,-604.51 850,-610.51 844,-610.51 844,-610.51 613,-610.51 613,-610.51 607,-610.51 601,-604.51 601,-598.51 601,-598.51 601,-493.51 601,-493.51 601,-487.51 607,-481.51 613,-481.51"/>
<text text-anchor="start" x="680" y="-596.31" font-family="Helvetica,sans-Serif" font-weight="bold" font-size="14.00">core&#45;validators</text>
</g>
<g id="clust2" class="cluster">
<title>cluster7820366590</title>
<path fill="bisque" stroke="#8b7d6b" stroke-width="2" d="M220,-657.51C220,-657.51 703.5,-657.51 703.5,-657.51 709.5,-657.51 715.5,-663.51 715.5,-669.51 715.5,-669.51 715.5,-922.51 715.5,-922.51 715.5,-928.51 709.5,-934.51 703.5,-934.51 703.5,-934.51 220,-934.51 220,-934.51 214,-934.51 208,-928.51 208,-922.51 208,-922.51 208,-669.51 208,-669.51 208,-663.51 214,-657.51 220,-657.51"/>
<text text-anchor="start" x="440.75" y="-920.31" font-family="Helvetica,sans-Serif" font-weight="bold" font-size="14.00">crypto</text>
</g>
<g id="clust3" class="cluster">
<title>cluster3739504422</title>
<path fill="bisque" stroke="#8b7d6b" stroke-width="2" d="M178,-489.51C178,-489.51 550.5,-489.51 550.5,-489.51 556.5,-489.51 562.5,-495.51 562.5,-501.51 562.5,-501.51 562.5,-552.51 562.5,-552.51 562.5,-558.51 556.5,-564.51 550.5,-564.51 550.5,-564.51 178,-564.51 178,-564.51 172,-564.51 166,-558.51 166,-552.51 166,-552.51 166,-501.51 166,-501.51 166,-495.51 172,-489.51 178,-489.51"/>
<text text-anchor="start" x="308.25" y="-550.31" font-family="Helvetica,sans-Serif" font-weight="bold" font-size="14.00">format&#45;validators</text>
</g>
<g id="clust4" class="cluster">
<title>cluster7118039287</title>
<path fill="bisque" stroke="#8b7d6b" stroke-width="2" d="M150,-52.51C150,-52.51 702,-52.51 702,-52.51 708,-52.51 714,-58.51 714,-64.51 714,-64.51 714,-363.51 714,-363.51 714,-369.51 708,-375.51 702,-375.51 702,-375.51 150,-375.51 150,-375.51 144,-375.51 138,-369.51 138,-363.51 138,-363.51 138,-64.51 138,-64.51 138,-58.51 144,-52.51 150,-52.51"/>
<text text-anchor="start" x="401.5" y="-361.31" font-family="Helvetica,sans-Serif" font-weight="bold" font-size="14.00">storage</text>
</g>
<!-- src/example&#45;app.ts -->
<g id="node1" class="node">
<title>src/example&#45;app.ts</title>
<path fill="#79cdcd" stroke="#79cdcd" d="M98,-324.51C98,-324.51 12,-324.51 12,-324.51 6,-324.51 0,-318.51 0,-312.51 0,-312.51 0,-300.51 0,-300.51 0,-294.51 6,-288.51 12,-288.51 12,-288.51 98,-288.51 98,-288.51 104,-288.51 110,-294.51 110,-300.51 110,-300.51 110,-312.51 110,-312.51 110,-318.51 104,-324.51 98,-324.51"/>
<text text-anchor="middle" x="55" y="-302.81" font-family="Helvetica,sans-Serif" font-size="14.00">example&#45;app.ts</text>
</g>
<!-- src/crypto/crypto&#45;driver&#45;tweetnacl.ts -->
<g id="node8" class="node">
<title>src/crypto/crypto&#45;driver&#45;tweetnacl.ts</title>
<path fill="#79cdcd" stroke="#79cdcd" d="M545,-795.51C545,-795.51 402,-795.51 402,-795.51 396,-795.51 390,-789.51 390,-783.51 390,-783.51 390,-771.51 390,-771.51 390,-765.51 396,-759.51 402,-759.51 402,-759.51 545,-759.51 545,-759.51 551,-759.51 557,-765.51 557,-771.51 557,-771.51 557,-783.51 557,-783.51 557,-789.51 551,-795.51 545,-795.51"/>
<text text-anchor="middle" x="473.5" y="-773.81" font-family="Helvetica,sans-Serif" font-size="14.00">crypto&#45;driver&#45;tweetnacl.ts</text>
</g>
<!-- src/example&#45;app.ts&#45;&gt;src/crypto/crypto&#45;driver&#45;tweetnacl.ts -->
<g id="edge18" class="edge">
<title>src/example&#45;app.ts&#45;&gt;src/crypto/crypto&#45;driver&#45;tweetnacl.ts</title>
<path fill="none" stroke="#528b8b" stroke-width="2" d="M57.1,-324.93C61.76,-396.51 82.26,-654.92 138,-710.51 200.68,-773.03 304.2,-785.38 379.5,-784.84"/>
<polygon fill="#528b8b" stroke="#528b8b" stroke-width="2" points="379.98,-788.33 389.93,-784.68 379.87,-781.33 379.98,-788.33"/>
</g>
<!-- src/crypto/crypto.ts -->
<g id="node10" class="node">
<title>src/crypto/crypto.ts</title>
<path fill="#79cdcd" stroke="#79cdcd" d="M272,-701.51C272,-701.51 228,-701.51 228,-701.51 222,-701.51 216,-695.51 216,-689.51 216,-689.51 216,-677.51 216,-677.51 216,-671.51 222,-665.51 228,-665.51 228,-665.51 272,-665.51 272,-665.51 278,-665.51 284,-671.51 284,-677.51 284,-677.51 284,-689.51 284,-689.51 284,-695.51 278,-701.51 272,-701.51"/>
<text text-anchor="middle" x="250" y="-679.81" font-family="Helvetica,sans-Serif" font-size="14.00">crypto.ts</text>
</g>
<!-- src/example&#45;app.ts&#45;&gt;src/crypto/crypto.ts -->
<g id="edge17" class="edge">
<title>src/example&#45;app.ts&#45;&gt;src/crypto/crypto.ts</title>
<path fill="none" stroke="#528b8b" stroke-width="2" d="M58.69,-324.52C65.88,-368.74 88.51,-485.1 138,-568.51 159.08,-604.04 193.19,-637.14 218.04,-658.62"/>
<polygon fill="#528b8b" stroke="#528b8b" stroke-width="2" points="215.86,-661.37 225.75,-665.17 220.4,-656.03 215.86,-661.37"/>
</g>
<!-- src/format&#45;validators/format&#45;validator&#45;es4.ts -->
<g id="node12" class="node">
<title>src/format&#45;validators/format&#45;validator&#45;es4.ts</title>
<path fill="#79cdcd" stroke="#79cdcd" d="M314,-533.51C314,-533.51 186,-533.51 186,-533.51 180,-533.51 174,-527.51 174,-521.51 174,-521.51 174,-509.51 174,-509.51 174,-503.51 180,-497.51 186,-497.51 186,-497.51 314,-497.51 314,-497.51 320,-497.51 326,-503.51 326,-509.51 326,-509.51 326,-521.51 326,-521.51 326,-527.51 320,-533.51 314,-533.51"/>
<text text-anchor="middle" x="250" y="-511.81" font-family="Helvetica,sans-Serif" font-size="14.00">format&#45;validator&#45;es4.ts</text>
</g>
<!-- src/example&#45;app.ts&#45;&gt;src/format&#45;validators/format&#45;validator&#45;es4.ts -->
<g id="edge13" class="edge">
<title>src/example&#45;app.ts&#45;&gt;src/format&#45;validators/format&#45;validator&#45;es4.ts</title>
<path fill="none" stroke="#528b8b" stroke-width="2" d="M72.79,-324.69C107.15,-361.9 185.59,-446.84 225.19,-489.73"/>
<polygon fill="#528b8b" stroke="#528b8b" stroke-width="2" points="222.76,-492.25 232.11,-497.22 227.9,-487.5 222.76,-492.25"/>
</g>
<!-- src/storage/follower.ts -->
<g id="node15" class="node">
<title>src/storage/follower.ts</title>
<path fill="#79cdcd" stroke="#79cdcd" d="M276.5,-136.51C276.5,-136.51 223.5,-136.51 223.5,-136.51 217.5,-136.51 211.5,-130.51 211.5,-124.51 211.5,-124.51 211.5,-112.51 211.5,-112.51 211.5,-106.51 217.5,-100.51 223.5,-100.51 223.5,-100.51 276.5,-100.51 276.5,-100.51 282.5,-100.51 288.5,-106.51 288.5,-112.51 288.5,-112.51 288.5,-124.51 288.5,-124.51 288.5,-130.51 282.5,-136.51 276.5,-136.51"/>
<text text-anchor="middle" x="250" y="-114.81" font-family="Helvetica,sans-Serif" font-size="14.00">follower.ts</text>
</g>
<!-- src/example&#45;app.ts&#45;&gt;src/storage/follower.ts -->
<g id="edge16" class="edge">
<title>src/example&#45;app.ts&#45;&gt;src/storage/follower.ts</title>
<path fill="none" stroke="#528b8b" stroke-width="2" d="M62.18,-288.46C73.1,-258.99 98.48,-200.33 138,-165.51 156.18,-149.49 180.61,-138.35 201.93,-130.95"/>
<polygon fill="#528b8b" stroke="#528b8b" stroke-width="2" points="203.07,-134.26 211.47,-127.81 200.88,-127.61 203.07,-134.26"/>
</g>
<!-- src/storage/storage&#45;async.ts -->
<g id="node19" class="node">
<title>src/storage/storage&#45;async.ts</title>
<path fill="#79cdcd" stroke="#79cdcd" d="M296,-324.51C296,-324.51 204,-324.51 204,-324.51 198,-324.51 192,-318.51 192,-312.51 192,-312.51 192,-300.51 192,-300.51 192,-294.51 198,-288.51 204,-288.51 204,-288.51 296,-288.51 296,-288.51 302,-288.51 308,-294.51 308,-300.51 308,-300.51 308,-312.51 308,-312.51 308,-318.51 302,-324.51 296,-324.51"/>
<text text-anchor="middle" x="250" y="-302.81" font-family="Helvetica,sans-Serif" font-size="14.00">storage&#45;async.ts</text>
</g>
<!-- src/example&#45;app.ts&#45;&gt;src/storage/storage&#45;async.ts -->
<g id="edge15" class="edge">
<title>src/example&#45;app.ts&#45;&gt;src/storage/storage&#45;async.ts</title>
<path fill="none" stroke="#528b8b" stroke-width="2" d="M110.02,-306.51C132.26,-306.51 158.27,-306.51 181.73,-306.51"/>
<polygon fill="#528b8b" stroke="#528b8b" stroke-width="2" points="181.96,-310.01 191.96,-306.51 181.96,-303.01 181.96,-310.01"/>
</g>
<!-- src/storage/storage&#45;driver&#45;async&#45;memory.ts -->
<g id="node20" class="node">
<title>src/storage/storage&#45;driver&#45;async&#45;memory.ts</title>
<path fill="#79cdcd" stroke="#79cdcd" d="M342,-210.51C342,-210.51 158,-210.51 158,-210.51 152,-210.51 146,-204.51 146,-198.51 146,-198.51 146,-186.51 146,-186.51 146,-180.51 152,-174.51 158,-174.51 158,-174.51 342,-174.51 342,-174.51 348,-174.51 354,-180.51 354,-186.51 354,-186.51 354,-198.51 354,-198.51 354,-204.51 348,-210.51 342,-210.51"/>
<text text-anchor="middle" x="250" y="-188.81" font-family="Helvetica,sans-Serif" font-size="14.00">storage&#45;driver&#45;async&#45;memory.ts</text>
</g>
<!-- src/example&#45;app.ts&#45;&gt;src/storage/storage&#45;driver&#45;async&#45;memory.ts -->
<g id="edge14" class="edge">
<title>src/example&#45;app.ts&#45;&gt;src/storage/storage&#45;driver&#45;async&#45;memory.ts</title>
<path fill="none" stroke="#528b8b" stroke-width="2" d="M86.58,-288.45C119.8,-268.83 172.98,-237.42 209.37,-215.92"/>
<polygon fill="#528b8b" stroke="#528b8b" stroke-width="2" points="211.41,-218.78 218.24,-210.68 207.85,-212.75 211.41,-218.78"/>
</g>
<!-- chalk -->
<g id="node28" class="node">
<title>chalk</title>
<polygon fill="#cdc8b1" stroke="#8b8878" points="500.5,-42.51 450.5,-42.51 446.5,-38.51 446.5,-6.51 496.5,-6.51 500.5,-10.51 500.5,-42.51"/>
<polyline fill="none" stroke="#8b8878" points="496.5,-38.51 446.5,-38.51 "/>
<polyline fill="none" stroke="#8b8878" points="496.5,-38.51 496.5,-6.51 "/>
<polyline fill="none" stroke="#8b8878" points="496.5,-38.51 500.5,-42.51 "/>
<text text-anchor="middle" x="473.5" y="-20.81" font-family="Helvetica,sans-Serif" font-size="14.00">chalk</text>
</g>
<!-- src/example&#45;app.ts&#45;&gt;chalk -->
<g id="edge48" class="edge">
<title>src/example&#45;app.ts&#45;&gt;chalk</title>
<path fill="none" stroke="#8b8878" stroke-width="1.5" stroke-dasharray="5,2" d="M55.46,-288.39C55.13,-240.25 61.58,-108.72 138,-48.51 225.69,20.58 369.67,-0.36 436.43,-15.23"/>
<polygon fill="#8b8878" stroke="#8b8878" stroke-width="1.5" points="435.93,-18.71 446.46,-17.55 437.51,-11.89 435.93,-18.71"/>
</g>
<!-- src/core&#45;validators/addresses.ts -->
<g id="node2" class="node">
<title>src/core&#45;validators/addresses.ts</title>
<path fill="#79cdcd" stroke="#79cdcd" d="M690,-579.51C690,-579.51 621,-579.51 621,-579.51 615,-579.51 609,-573.51 609,-567.51 609,-567.51 609,-555.51 609,-555.51 609,-549.51 615,-543.51 621,-543.51 621,-543.51 690,-543.51 690,-543.51 696,-543.51 702,-549.51 702,-555.51 702,-555.51 702,-567.51 702,-567.51 702,-573.51 696,-579.51 690,-579.51"/>
<text text-anchor="middle" x="655.5" y="-557.81" font-family="Helvetica,sans-Serif" font-size="14.00">addresses.ts</text>
</g>
<!-- src/core&#45;validators/characters.ts -->
<g id="node3" class="node">
<title>src/core&#45;validators/characters.ts</title>
<path fill="#79cdcd" stroke="#79cdcd" d="M836,-525.51C836,-525.51 766,-525.51 766,-525.51 760,-525.51 754,-519.51 754,-513.51 754,-513.51 754,-501.51 754,-501.51 754,-495.51 760,-489.51 766,-489.51 766,-489.51 836,-489.51 836,-489.51 842,-489.51 848,-495.51 848,-501.51 848,-501.51 848,-513.51 848,-513.51 848,-519.51 842,-525.51 836,-525.51"/>
<text text-anchor="middle" x="801" y="-503.81" font-family="Helvetica,sans-Serif" font-size="14.00">characters.ts</text>
</g>
<!-- src/core&#45;validators/addresses.ts&#45;&gt;src/core&#45;validators/characters.ts -->
<g id="edge1" class="edge">
<title>src/core&#45;validators/addresses.ts&#45;&gt;src/core&#45;validators/characters.ts</title>
<path fill="none" stroke="#528b8b" stroke-width="2" d="M702.3,-544.28C715.63,-539.26 730.34,-533.73 744.21,-528.51"/>
<polygon fill="#528b8b" stroke="#528b8b" stroke-width="2" points="745.52,-531.75 753.65,-524.95 743.06,-525.2 745.52,-531.75"/>
</g>
<!-- src/core&#45;validators/checkers.ts -->
<g id="node4" class="node">
<title>src/core&#45;validators/checkers.ts</title>
<path fill="#79cdcd" stroke="#79cdcd" d="M686,-525.51C686,-525.51 625,-525.51 625,-525.51 619,-525.51 613,-519.51 613,-513.51 613,-513.51 613,-501.51 613,-501.51 613,-495.51 619,-489.51 625,-489.51 625,-489.51 686,-489.51 686,-489.51 692,-489.51 698,-495.51 698,-501.51 698,-501.51 698,-513.51 698,-513.51 698,-519.51 692,-525.51 686,-525.51"/>
<text text-anchor="middle" x="655.5" y="-503.81" font-family="Helvetica,sans-Serif" font-size="14.00">checkers.ts</text>
</g>
<!-- src/core&#45;validators/checkers.ts&#45;&gt;src/core&#45;validators/characters.ts -->
<g id="edge2" class="edge">
<title>src/core&#45;validators/checkers.ts&#45;&gt;src/core&#45;validators/characters.ts</title>
<path fill="none" stroke="#528b8b" stroke-width="2" d="M698.01,-507.51C712.2,-507.51 728.32,-507.51 743.49,-507.51"/>
<polygon fill="#528b8b" stroke="#528b8b" stroke-width="2" points="743.8,-511.01 753.8,-507.51 743.8,-504.01 743.8,-511.01"/>
</g>
<!-- src/crypto/base32.ts -->
<g id="node5" class="node">
<title>src/crypto/base32.ts</title>
<path fill="#79cdcd" stroke="#79cdcd" d="M681,-703.51C681,-703.51 630,-703.51 630,-703.51 624,-703.51 618,-697.51 618,-691.51 618,-691.51 618,-679.51 618,-679.51 618,-673.51 624,-667.51 630,-667.51 630,-667.51 681,-667.51 681,-667.51 687,-667.51 693,-673.51 693,-679.51 693,-679.51 693,-691.51 693,-691.51 693,-697.51 687,-703.51 681,-703.51"/>
<text text-anchor="middle" x="655.5" y="-681.81" font-family="Helvetica,sans-Serif" font-size="14.00">base32.ts</text>
</g>
<!-- rfc4648 -->
<g id="node23" class="node">
<title>rfc4648</title>
<polygon fill="#cdc8b1" stroke="#8b8878" points="832,-703.51 774,-703.51 770,-699.51 770,-667.51 828,-667.51 832,-671.51 832,-703.51"/>
<polyline fill="none" stroke="#8b8878" points="828,-699.51 770,-699.51 "/>
<polyline fill="none" stroke="#8b8878" points="828,-699.51 828,-667.51 "/>
<polyline fill="none" stroke="#8b8878" points="828,-699.51 832,-703.51 "/>
<text text-anchor="middle" x="801" y="-681.81" font-family="Helvetica,sans-Serif" font-size="14.00">rfc4648</text>
</g>
<!-- src/crypto/base32.ts&#45;&gt;rfc4648 -->
<g id="edge43" class="edge">
<title>src/crypto/base32.ts&#45;&gt;rfc4648</title>
<path fill="none" stroke="#8b8878" stroke-width="1.5" stroke-dasharray="5,2" d="M693.08,-685.51C713.4,-685.51 738.71,-685.51 759.61,-685.51"/>
<polygon fill="#8b8878" stroke="#8b8878" stroke-width="1.5" points="759.78,-689.01 769.78,-685.51 759.78,-682.01 759.78,-689.01"/>
</g>
<!-- src/crypto/crypto&#45;driver&#45;chloride.ts -->
<g id="node6" class="node">
<title>src/crypto/crypto&#45;driver&#45;chloride.ts</title>
<path fill="#79cdcd" stroke="#79cdcd" d="M540.5,-903.51C540.5,-903.51 406.5,-903.51 406.5,-903.51 400.5,-903.51 394.5,-897.51 394.5,-891.51 394.5,-891.51 394.5,-879.51 394.5,-879.51 394.5,-873.51 400.5,-867.51 406.5,-867.51 406.5,-867.51 540.5,-867.51 540.5,-867.51 546.5,-867.51 552.5,-873.51 552.5,-879.51 552.5,-879.51 552.5,-891.51 552.5,-891.51 552.5,-897.51 546.5,-903.51 540.5,-903.51"/>
<text text-anchor="middle" x="473.5" y="-881.81" font-family="Helvetica,sans-Serif" font-size="14.00">crypto&#45;driver&#45;chloride.ts</text>
</g>
<!-- src/crypto/crypto&#45;types.ts -->
<g id="node9" class="node">
<title>src/crypto/crypto&#45;types.ts</title>
<path fill="#79cdcd" stroke="#79cdcd" d="M695.5,-758.51C695.5,-758.51 615.5,-758.51 615.5,-758.51 609.5,-758.51 603.5,-752.51 603.5,-746.51 603.5,-746.51 603.5,-734.51 603.5,-734.51 603.5,-728.51 609.5,-722.51 615.5,-722.51 615.5,-722.51 695.5,-722.51 695.5,-722.51 701.5,-722.51 707.5,-728.51 707.5,-734.51 707.5,-734.51 707.5,-746.51 707.5,-746.51 707.5,-752.51 701.5,-758.51 695.5,-758.51"/>
<text text-anchor="middle" x="655.5" y="-736.81" font-family="Helvetica,sans-Serif" font-size="14.00">crypto&#45;types.ts</text>
</g>
<!-- src/crypto/crypto&#45;driver&#45;chloride.ts&#45;&gt;src/crypto/crypto&#45;types.ts -->
<g id="edge3" class="edge">
<title>src/crypto/crypto&#45;driver&#45;chloride.ts&#45;&gt;src/crypto/crypto&#45;types.ts</title>
<path fill="none" stroke="#528b8b" stroke-width="2" d="M546.83,-867.4C552.33,-864.81 557.63,-861.87 562.5,-858.51 596.95,-834.79 624.46,-794.22 640.13,-767.39"/>
<polygon fill="#528b8b" stroke="#528b8b" stroke-width="2" points="643.27,-768.95 645.17,-758.52 637.19,-765.49 643.27,-768.95"/>
</g>
<!-- chloride/small -->
<g id="node24" class="node">
<title>chloride/small</title>
<polygon fill="#cdc8b1" stroke="#8b8878" points="705.5,-1086.51 609.5,-1086.51 605.5,-1082.51 605.5,-1050.51 701.5,-1050.51 705.5,-1054.51 705.5,-1086.51"/>
<polyline fill="none" stroke="#8b8878" points="701.5,-1082.51 605.5,-1082.51 "/>
<polyline fill="none" stroke="#8b8878" points="701.5,-1082.51 701.5,-1050.51 "/>
<polyline fill="none" stroke="#8b8878" points="701.5,-1082.51 705.5,-1086.51 "/>
<text text-anchor="middle" x="655.5" y="-1064.81" font-family="Helvetica,sans-Serif" font-size="14.00">chloride/small</text>
</g>
<!-- src/crypto/crypto&#45;driver&#45;chloride.ts&#45;&gt;chloride/small -->
<g id="edge44" class="edge">
<title>src/crypto/crypto&#45;driver&#45;chloride.ts&#45;&gt;chloride/small</title>
<path fill="none" stroke="#8b8878" stroke-width="1.5" stroke-dasharray="5,2" d="M484.09,-903.55C501.77,-935.31 542.38,-1001.62 593,-1041.51 594.55,-1042.73 596.15,-1043.9 597.81,-1045.04"/>
<polygon fill="#8b8878" stroke="#8b8878" stroke-width="1.5" points="596.08,-1048.08 606.43,-1050.34 599.75,-1042.12 596.08,-1048.08"/>
</g>
<!-- src/crypto/crypto&#45;driver&#45;node.ts -->
<g id="node7" class="node">
<title>src/crypto/crypto&#45;driver&#45;node.ts</title>
<path fill="#79cdcd" stroke="#79cdcd" d="M531.5,-849.51C531.5,-849.51 415.5,-849.51 415.5,-849.51 409.5,-849.51 403.5,-843.51 403.5,-837.51 403.5,-837.51 403.5,-825.51 403.5,-825.51 403.5,-819.51 409.5,-813.51 415.5,-813.51 415.5,-813.51 531.5,-813.51 531.5,-813.51 537.5,-813.51 543.5,-819.51 543.5,-825.51 543.5,-825.51 543.5,-837.51 543.5,-837.51 543.5,-843.51 537.5,-849.51 531.5,-849.51"/>
<text text-anchor="middle" x="473.5" y="-827.81" font-family="Helvetica,sans-Serif" font-size="14.00">crypto&#45;driver&#45;node.ts</text>
</g>
<!-- src/crypto/crypto&#45;driver&#45;node.ts&#45;&gt;src/crypto/crypto&#45;types.ts -->
<g id="edge4" class="edge">
<title>src/crypto/crypto&#45;driver&#45;node.ts&#45;&gt;src/crypto/crypto&#45;types.ts</title>
<path fill="none" stroke="#528b8b" stroke-width="2" d="M541.19,-813.48C548.51,-810.79 555.75,-807.8 562.5,-804.51 584.6,-793.76 607.29,-778.03 624.61,-764.86"/>
<polygon fill="#528b8b" stroke="#528b8b" stroke-width="2" points="626.89,-767.52 632.66,-758.63 622.61,-761.99 626.89,-767.52"/>
</g>
<!-- crypto -->
<g id="node25" class="node">
<title>crypto</title>
<polygon fill="#cdc8b1" stroke="#8b8878" points="682.5,-1032.51 632.5,-1032.51 628.5,-1028.51 628.5,-996.51 678.5,-996.51 682.5,-1000.51 682.5,-1032.51"/>
<polyline fill="none" stroke="#8b8878" points="678.5,-1028.51 628.5,-1028.51 "/>
<polyline fill="none" stroke="#8b8878" points="678.5,-1028.51 678.5,-996.51 "/>
<polyline fill="none" stroke="#8b8878" points="678.5,-1028.51 682.5,-1032.51 "/>
<text text-anchor="middle" x="655.5" y="-1010.81" font-family="Helvetica,sans-Serif" font-size="14.00">crypto</text>
</g>
<!-- src/crypto/crypto&#45;driver&#45;node.ts&#45;&gt;crypto -->
<g id="edge45" class="edge">
<title>src/crypto/crypto&#45;driver&#45;node.ts&#45;&gt;crypto</title>
<path fill="none" stroke="#8b8878" stroke-width="1.5" stroke-dasharray="5,2" d="M543.56,-844.71C550.62,-848.28 557.15,-852.8 562.5,-858.51 602.77,-901.51 555.29,-942.25 593,-987.51 599.72,-995.57 609.31,-1001.3 618.93,-1005.35"/>
<polygon fill="#8b8878" stroke="#8b8878" stroke-width="1.5" points="617.86,-1008.68 628.45,-1008.85 620.28,-1002.11 617.86,-1008.68"/>
</g>
<!-- src/crypto/crypto&#45;driver&#45;tweetnacl.ts&#45;&gt;src/crypto/crypto&#45;types.ts -->
<g id="edge5" class="edge">
<title>src/crypto/crypto&#45;driver&#45;tweetnacl.ts&#45;&gt;src/crypto/crypto&#45;types.ts</title>
<path fill="none" stroke="#528b8b" stroke-width="2" d="M557.12,-760.53C569.35,-758.01 581.75,-755.46 593.43,-753.06"/>
<polygon fill="#528b8b" stroke="#528b8b" stroke-width="2" points="594.39,-756.44 603.49,-751 592.99,-749.58 594.39,-756.44"/>
</g>
<!-- tweetnacl -->
<g id="node26" class="node">
<title>tweetnacl</title>
<polygon fill="#cdc8b1" stroke="#8b8878" points="692.5,-464.51 622.5,-464.51 618.5,-460.51 618.5,-428.51 688.5,-428.51 692.5,-432.51 692.5,-464.51"/>
<polyline fill="none" stroke="#8b8878" points="688.5,-460.51 618.5,-460.51 "/>
<polyline fill="none" stroke="#8b8878" points="688.5,-460.51 688.5,-428.51 "/>
<polyline fill="none" stroke="#8b8878" points="688.5,-460.51 692.5,-464.51 "/>
<text text-anchor="middle" x="655.5" y="-442.81" font-family="Helvetica,sans-Serif" font-size="14.00">tweetnacl</text>
</g>
<!-- src/crypto/crypto&#45;driver&#45;tweetnacl.ts&#45;&gt;tweetnacl -->
<g id="edge46" class="edge">
<title>src/crypto/crypto&#45;driver&#45;tweetnacl.ts&#45;&gt;tweetnacl</title>
<path fill="none" stroke="#8b8878" stroke-width="1.5" stroke-dasharray="5,2" d="M527.79,-759.37C541.1,-752.36 553.99,-742.95 562.5,-730.51 626.46,-637.04 527.94,-570.22 593,-477.51 597.25,-471.46 603.04,-466.52 609.37,-462.51"/>
<polygon fill="#8b8878" stroke="#8b8878" stroke-width="1.5" points="611.2,-465.5 618.26,-457.6 607.81,-459.37 611.2,-465.5"/>
</g>
<!-- sha256&#45;uint8array -->
<g id="node27" class="node">
<title>sha256&#45;uint8array</title>
<polygon fill="#cdc8b1" stroke="#8b8878" points="718,-978.51 597,-978.51 593,-974.51 593,-942.51 714,-942.51 718,-946.51 718,-978.51"/>
<polyline fill="none" stroke="#8b8878" points="714,-974.51 593,-974.51 "/>
<polyline fill="none" stroke="#8b8878" points="714,-974.51 714,-942.51 "/>
<polyline fill="none" stroke="#8b8878" points="714,-974.51 718,-978.51 "/>
<text text-anchor="middle" x="655.5" y="-956.81" font-family="Helvetica,sans-Serif" font-size="14.00">sha256&#45;uint8array</text>
</g>
<!-- src/crypto/crypto&#45;driver&#45;tweetnacl.ts&#45;&gt;sha256&#45;uint8array -->
<g id="edge47" class="edge">
<title>src/crypto/crypto&#45;driver&#45;tweetnacl.ts&#45;&gt;sha256&#45;uint8array</title>
<path fill="none" stroke="#8b8878" stroke-width="1.5" stroke-dasharray="5,2" d="M551.93,-795.54C555.78,-798.14 559.35,-801.12 562.5,-804.51 601.79,-846.82 557.84,-888.05 590.41,-934.27"/>
<polygon fill="#8b8878" stroke="#8b8878" stroke-width="1.5" points="587.89,-936.71 596.86,-942.34 593.35,-932.34 587.89,-936.71"/>
</g>
<!-- src/crypto/crypto.ts&#45;&gt;src/core&#45;validators/addresses.ts -->
<g id="edge9" class="edge">
<title>src/crypto/crypto.ts&#45;&gt;src/core&#45;validators/addresses.ts</title>
<path fill="none" stroke="#528b8b" stroke-width="2" d="M284.02,-673.53C353.18,-652.62 513.89,-604.02 599.12,-578.25"/>
<polygon fill="#528b8b" stroke="#528b8b" stroke-width="2" points="600.32,-581.55 608.88,-575.3 598.3,-574.85 600.32,-581.55"/>
</g>
<!-- src/crypto/crypto.ts&#45;&gt;src/crypto/base32.ts -->
<g id="edge7" class="edge">
<title>src/crypto/crypto.ts&#45;&gt;src/crypto/base32.ts</title>
<path fill="none" stroke="#528b8b" stroke-width="2" d="M284.21,-681.21C341.18,-677.62 461.2,-671.57 562.5,-676.51 577.2,-677.23 593.18,-678.59 607.64,-680.04"/>
<polygon fill="#528b8b" stroke="#528b8b" stroke-width="2" points="607.54,-683.55 617.85,-681.1 608.27,-676.58 607.54,-683.55"/>
</g>
<!-- src/crypto/crypto.ts&#45;&gt;src/crypto/crypto&#45;types.ts -->
<g id="edge6" class="edge">
<title>src/crypto/crypto.ts&#45;&gt;src/crypto/crypto&#45;types.ts</title>
<path fill="none" stroke="#528b8b" stroke-width="2" d="M284.27,-697.79C311.98,-708.95 352.8,-723.67 390,-730.51 458.78,-743.16 539.26,-744.31 593.23,-743.15"/>
<polygon fill="#528b8b" stroke="#528b8b" stroke-width="2" points="593.41,-746.65 603.32,-742.9 593.23,-739.65 593.41,-746.65"/>
</g>
<!-- src/crypto/keypair.ts -->
<g id="node11" class="node">
<title>src/crypto/keypair.ts</title>
<path fill="#79cdcd" stroke="#79cdcd" d="M498.5,-721.51C498.5,-721.51 448.5,-721.51 448.5,-721.51 442.5,-721.51 436.5,-715.51 436.5,-709.51 436.5,-709.51 436.5,-697.51 436.5,-697.51 436.5,-691.51 442.5,-685.51 448.5,-685.51 448.5,-685.51 498.5,-685.51 498.5,-685.51 504.5,-685.51 510.5,-691.51 510.5,-697.51 510.5,-697.51 510.5,-709.51 510.5,-709.51 510.5,-715.51 504.5,-721.51 498.5,-721.51"/>
<text text-anchor="middle" x="473.5" y="-699.81" font-family="Helvetica,sans-Serif" font-size="14.00">keypair.ts</text>
</g>
<!-- src/crypto/crypto.ts&#45;&gt;src/crypto/keypair.ts -->
<g id="edge8" class="edge">
<title>src/crypto/crypto.ts&#45;&gt;src/crypto/keypair.ts</title>
<path fill="none" stroke="#528b8b" stroke-width="2" d="M284.16,-686.51C321.85,-689.91 383.62,-695.49 426.08,-699.32"/>
<polygon fill="#528b8b" stroke="#528b8b" stroke-width="2" points="425.89,-702.82 436.16,-700.23 426.52,-695.85 425.89,-702.82"/>
</g>
<!-- src/crypto/keypair.ts&#45;&gt;src/core&#45;validators/addresses.ts -->
<g id="edge12" class="edge">
<title>src/crypto/keypair.ts&#45;&gt;src/core&#45;validators/addresses.ts</title>
<path fill="none" stroke="#528b8b" stroke-width="2" d="M497.66,-685.24C529.66,-660 587.48,-614.38 623.27,-586.15"/>
<polygon fill="#528b8b" stroke="#528b8b" stroke-width="2" points="625.74,-588.66 631.43,-579.71 621.41,-583.16 625.74,-588.66"/>
</g>
<!-- src/crypto/keypair.ts&#45;&gt;src/crypto/base32.ts -->
<g id="edge10" class="edge">
<title>src/crypto/keypair.ts&#45;&gt;src/crypto/base32.ts</title>
<path fill="none" stroke="#528b8b" stroke-width="2" d="M510.93,-699.87C538.77,-697.08 577.37,-693.22 607.53,-690.21"/>
<polygon fill="#528b8b" stroke="#528b8b" stroke-width="2" points="608.22,-693.66 617.82,-689.18 607.52,-686.69 608.22,-693.66"/>
</g>
<!-- src/crypto/keypair.ts&#45;&gt;src/crypto/crypto&#45;types.ts -->
<g id="edge11" class="edge">
<title>src/crypto/keypair.ts&#45;&gt;src/crypto/crypto&#45;types.ts</title>
<path fill="none" stroke="#528b8b" stroke-width="2" d="M510.93,-711C534.62,-715.87 566.11,-722.34 593.56,-727.98"/>
<polygon fill="#528b8b" stroke="#528b8b" stroke-width="2" points="592.96,-731.44 603.46,-730.02 594.37,-724.58 592.96,-731.44"/>
</g>
<!-- src/format&#45;validators/format&#45;validator&#45;es4.ts&#45;&gt;src/core&#45;validators/addresses.ts -->
<g id="edge23" class="edge">
<title>src/format&#45;validators/format&#45;validator&#45;es4.ts&#45;&gt;src/core&#45;validators/addresses.ts</title>
<path fill="none" stroke="#528b8b" stroke-width="2" d="M326.11,-531.81C346.74,-535.82 369.16,-539.75 390,-542.51 461.82,-552.03 545.28,-557.03 598.94,-559.46"/>
<polygon fill="#528b8b" stroke="#528b8b" stroke-width="2" points="598.79,-562.96 608.93,-559.9 599.1,-555.97 598.79,-562.96"/>
</g>
<!-- src/format&#45;validators/format&#45;validator&#45;es4.ts&#45;&gt;src/core&#45;validators/characters.ts -->
<g id="edge21" class="edge">
<title>src/format&#45;validators/format&#45;validator&#45;es4.ts&#45;&gt;src/core&#45;validators/characters.ts</title>
<path fill="none" stroke="#528b8b" stroke-width="2" d="M280.97,-497.38C357.04,-453.85 562.59,-351.9 718,-419.51 746.48,-431.9 769.55,-459.6 783.88,-480.64"/>
<polygon fill="#528b8b" stroke="#528b8b" stroke-width="2" points="781.07,-482.74 789.48,-489.18 786.93,-478.9 781.07,-482.74"/>
</g>
<!-- src/format&#45;validators/format&#45;validator&#45;es4.ts&#45;&gt;src/core&#45;validators/checkers.ts -->
<g id="edge22" class="edge">
<title>src/format&#45;validators/format&#45;validator&#45;es4.ts&#45;&gt;src/core&#45;validators/checkers.ts</title>
<path fill="none" stroke="#528b8b" stroke-width="2" d="M326,-498.21C346.63,-494.2 369.08,-490.52 390,-488.51 466.31,-481.17 486.23,-480.72 562.5,-488.51 575.56,-489.85 589.5,-492.22 602.48,-494.85"/>
<polygon fill="#528b8b" stroke="#528b8b" stroke-width="2" points="602.14,-498.35 612.64,-496.99 603.58,-491.5 602.14,-498.35"/>
</g>
<!-- src/format&#45;validators/format&#45;validator&#45;es4.ts&#45;&gt;src/crypto/crypto&#45;types.ts -->
<g id="edge20" class="edge">
<title>src/format&#45;validators/format&#45;validator&#45;es4.ts&#45;&gt;src/crypto/crypto&#45;types.ts</title>
<path fill="none" stroke="#528b8b" stroke-width="2" d="M299.24,-533.52C363.54,-558.99 478.92,-609.96 562.5,-676.51 578.9,-689.57 576.28,-699.86 593,-712.51 595.09,-714.09 597.28,-715.61 599.54,-717.06"/>
<polygon fill="#528b8b" stroke="#528b8b" stroke-width="2" points="598.14,-720.29 608.53,-722.35 601.68,-714.26 598.14,-720.29"/>
</g>
<!-- src/format&#45;validators/format&#45;validator&#45;types.ts -->
<g id="node13" class="node">
<title>src/format&#45;validators/format&#45;validator&#45;types.ts</title>
<path fill="#79cdcd" stroke="#79cdcd" d="M542.5,-533.51C542.5,-533.51 404.5,-533.51 404.5,-533.51 398.5,-533.51 392.5,-527.51 392.5,-521.51 392.5,-521.51 392.5,-509.51 392.5,-509.51 392.5,-503.51 398.5,-497.51 404.5,-497.51 404.5,-497.51 542.5,-497.51 542.5,-497.51 548.5,-497.51 554.5,-503.51 554.5,-509.51 554.5,-509.51 554.5,-521.51 554.5,-521.51 554.5,-527.51 548.5,-533.51 542.5,-533.51"/>
<text text-anchor="middle" x="473.5" y="-511.81" font-family="Helvetica,sans-Serif" font-size="14.00">format&#45;validator&#45;types.ts</text>
</g>
<!-- src/format&#45;validators/format&#45;validator&#45;es4.ts&#45;&gt;src/format&#45;validators/format&#45;validator&#45;types.ts -->
<g id="edge19" class="edge">
<title>src/format&#45;validators/format&#45;validator&#45;es4.ts&#45;&gt;src/format&#45;validators/format&#45;validator&#45;types.ts</title>
<path fill="none" stroke="#528b8b" stroke-width="2" d="M326.3,-515.51C344.29,-515.51 363.67,-515.51 382.26,-515.51"/>
<polygon fill="#528b8b" stroke="#528b8b" stroke-width="2" points="382.49,-519.01 392.49,-515.51 382.49,-512.01 382.49,-519.01"/>
</g>
<!-- src/format&#45;validators/format&#45;validator&#45;types.ts&#45;&gt;src/crypto/crypto&#45;types.ts -->
<g id="edge24" class="edge">
<title>src/format&#45;validators/format&#45;validator&#45;types.ts&#45;&gt;src/crypto/crypto&#45;types.ts</title>
<path fill="none" stroke="#528b8b" stroke-width="2" d="M492.61,-533.52C512.17,-553.84 543.13,-588.62 562.5,-623.51 582.8,-660.07 564.9,-681.54 593,-712.51 594.17,-713.8 595.4,-715.02 596.7,-716.2"/>
<polygon fill="#528b8b" stroke="#528b8b" stroke-width="2" points="594.61,-719.02 604.66,-722.37 598.9,-713.48 594.61,-719.02"/>
</g>
<!-- src/storage/compare.ts -->
<g id="node14" class="node">
<title>src/storage/compare.ts</title>
<path fill="#79cdcd" stroke="#79cdcd" d="M503.5,-324.51C503.5,-324.51 443.5,-324.51 443.5,-324.51 437.5,-324.51 431.5,-318.51 431.5,-312.51 431.5,-312.51 431.5,-300.51 431.5,-300.51 431.5,-294.51 437.5,-288.51 443.5,-288.51 443.5,-288.51 503.5,-288.51 503.5,-288.51 509.5,-288.51 515.5,-294.51 515.5,-300.51 515.5,-300.51 515.5,-312.51 515.5,-312.51 515.5,-318.51 509.5,-324.51 503.5,-324.51"/>
<text text-anchor="middle" x="473.5" y="-302.81" font-family="Helvetica,sans-Serif" font-size="14.00">compare.ts</text>
</g>
<!-- src/storage/util&#45;types.ts -->
<g id="node22" class="node">
<title>src/storage/util&#45;types.ts</title>
<path fill="#79cdcd" stroke="#79cdcd" d="M686,-295.51C686,-295.51 625,-295.51 625,-295.51 619,-295.51 613,-289.51 613,-283.51 613,-283.51 613,-271.51 613,-271.51 613,-265.51 619,-259.51 625,-259.51 625,-259.51 686,-259.51 686,-259.51 692,-259.51 698,-265.51 698,-271.51 698,-271.51 698,-283.51 698,-283.51 698,-289.51 692,-295.51 686,-295.51"/>
<text text-anchor="middle" x="655.5" y="-273.81" font-family="Helvetica,sans-Serif" font-size="14.00">util&#45;types.ts</text>
</g>
<!-- src/storage/compare.ts&#45;&gt;src/storage/util&#45;types.ts -->
<g id="edge25" class="edge">
<title>src/storage/compare.ts&#45;&gt;src/storage/util&#45;types.ts</title>
<path fill="none" stroke="#528b8b" stroke-width="2" d="M515.8,-299.86C541.68,-295.69 575.25,-290.28 602.89,-285.83"/>
<polygon fill="#528b8b" stroke="#528b8b" stroke-width="2" points="603.46,-289.28 612.77,-284.23 602.34,-282.37 603.46,-289.28"/>
</g>
<!-- src/storage/query&#45;types.ts -->
<g id="node17" class="node">
<title>src/storage/query&#45;types.ts</title>
<path fill="#79cdcd" stroke="#79cdcd" d="M694,-173.51C694,-173.51 617,-173.51 617,-173.51 611,-173.51 605,-167.51 605,-161.51 605,-161.51 605,-149.51 605,-149.51 605,-143.51 611,-137.51 617,-137.51 617,-137.51 694,-137.51 694,-137.51 700,-137.51 706,-143.51 706,-149.51 706,-149.51 706,-161.51 706,-161.51 706,-167.51 700,-173.51 694,-173.51"/>
<text text-anchor="middle" x="655.5" y="-151.81" font-family="Helvetica,sans-Serif" font-size="14.00">query&#45;types.ts</text>
</g>
<!-- src/storage/follower.ts&#45;&gt;src/storage/query&#45;types.ts -->
<g id="edge27" class="edge">
<title>src/storage/follower.ts&#45;&gt;src/storage/query&#45;types.ts</title>
<path fill="none" stroke="#528b8b" stroke-width="2" d="M288.9,-104.9C349.04,-85.55 469.1,-56.11 562.5,-91.51 579.43,-97.93 578.4,-107.8 593,-118.51 599.36,-123.18 606.33,-127.8 613.22,-132.11"/>
<polygon fill="#528b8b" stroke="#528b8b" stroke-width="2" points="611.5,-135.16 621.86,-137.38 615.15,-129.19 611.5,-135.16"/>
</g>
<!-- src/storage/storage&#45;types.ts -->
<g id="node21" class="node">
<title>src/storage/storage&#45;types.ts</title>
<path fill="#79cdcd" stroke="#79cdcd" d="M518,-136.51C518,-136.51 429,-136.51 429,-136.51 423,-136.51 417,-130.51 417,-124.51 417,-124.51 417,-112.51 417,-112.51 417,-106.51 423,-100.51 429,-100.51 429,-100.51 518,-100.51 518,-100.51 524,-100.51 530,-106.51 530,-112.51 530,-112.51 530,-124.51 530,-124.51 530,-130.51 524,-136.51 518,-136.51"/>
<text text-anchor="middle" x="473.5" y="-114.81" font-family="Helvetica,sans-Serif" font-size="14.00">storage&#45;types.ts</text>
</g>
<!-- src/storage/follower.ts&#45;&gt;src/storage/storage&#45;types.ts -->
<g id="edge28" class="edge">
<title>src/storage/follower.ts&#45;&gt;src/storage/storage&#45;types.ts</title>
<path fill="none" stroke="#528b8b" stroke-width="2" d="M288.57,-118.51C320.87,-118.51 368.18,-118.51 406.73,-118.51"/>
<polygon fill="#528b8b" stroke="#528b8b" stroke-width="2" points="406.84,-122.01 416.84,-118.51 406.84,-115.01 406.84,-122.01"/>
</g>
<!-- src/storage/follower.ts&#45;&gt;src/storage/util&#45;types.ts -->
<g id="edge26" class="edge">
<title>src/storage/follower.ts&#45;&gt;src/storage/util&#45;types.ts</title>
<path fill="none" stroke="#528b8b" stroke-width="2" d="M288.65,-126.02C368.89,-142.1 550.42,-178.93 562.5,-185.51 592.1,-201.63 618.44,-230.21 635.28,-251.25"/>
<polygon fill="#528b8b" stroke="#528b8b" stroke-width="2" points="632.55,-253.45 641.46,-259.18 638.07,-249.14 632.55,-253.45"/>
</g>
<!-- src/storage/follower.ts&#45;&gt;chalk -->
<g id="edge49" class="edge">
<title>src/storage/follower.ts&#45;&gt;chalk</title>
<path fill="none" stroke="#8b8878" stroke-width="1.5" stroke-dasharray="5,2" d="M282.81,-100.38C310.5,-85.12 352.03,-63.45 390,-48.51 405,-42.61 422.04,-37.41 436.72,-33.38"/>
<polygon fill="#8b8878" stroke="#8b8878" stroke-width="1.5" points="437.69,-36.74 446.45,-30.78 435.89,-29.98 437.69,-36.74"/>
</g>
<!-- src/storage/lock.ts -->
<g id="node16" class="node">
<title>src/storage/lock.ts</title>
<path fill="#79cdcd" stroke="#79cdcd" d="M671,-109.51C671,-109.51 640,-109.51 640,-109.51 634,-109.51 628,-103.51 628,-97.51 628,-97.51 628,-85.51 628,-85.51 628,-79.51 634,-73.51 640,-73.51 640,-73.51 671,-73.51 671,-73.51 677,-73.51 683,-79.51 683,-85.51 683,-85.51 683,-97.51 683,-97.51 683,-103.51 677,-109.51 671,-109.51"/>
<text text-anchor="middle" x="655.5" y="-87.81" font-family="Helvetica,sans-Serif" font-size="14.00">lock.ts</text>
</g>
<!-- src/storage/query.ts -->
<g id="node18" class="node">
<title>src/storage/query.ts</title>
<path fill="#79cdcd" stroke="#79cdcd" d="M493.5,-230.51C493.5,-230.51 453.5,-230.51 453.5,-230.51 447.5,-230.51 441.5,-224.51 441.5,-218.51 441.5,-218.51 441.5,-206.51 441.5,-206.51 441.5,-200.51 447.5,-194.51 453.5,-194.51 453.5,-194.51 493.5,-194.51 493.5,-194.51 499.5,-194.51 505.5,-200.51 505.5,-206.51 505.5,-206.51 505.5,-218.51 505.5,-218.51 505.5,-224.51 499.5,-230.51 493.5,-230.51"/>
<text text-anchor="middle" x="473.5" y="-208.81" font-family="Helvetica,sans-Serif" font-size="14.00">query.ts</text>
</g>
<!-- src/storage/query.ts&#45;&gt;src/storage/query&#45;types.ts -->
<g id="edge29" class="edge">
<title>src/storage/query.ts&#45;&gt;src/storage/query&#45;types.ts</title>
<path fill="none" stroke="#528b8b" stroke-width="2" d="M505.85,-202.58C530.38,-194.82 565.19,-183.79 594.96,-174.36"/>
<polygon fill="#528b8b" stroke="#528b8b" stroke-width="2" points="596.37,-177.59 604.85,-171.24 594.26,-170.92 596.37,-177.59"/>
</g>
<!-- src/storage/storage&#45;async.ts&#45;&gt;src/format&#45;validators/format&#45;validator&#45;types.ts -->
<g id="edge33" class="edge">
<title>src/storage/storage&#45;async.ts&#45;&gt;src/format&#45;validators/format&#45;validator&#45;types.ts</title>
<path fill="none" stroke="#528b8b" stroke-width="2" d="M268.1,-324.53C293.9,-351.5 344.57,-403.65 390,-445.51 406.82,-461.01 426.31,-477.6 442.12,-490.74"/>
<polygon fill="#528b8b" stroke="#528b8b" stroke-width="2" points="440.08,-493.6 450.01,-497.27 444.54,-488.2 440.08,-493.6"/>
</g>
<!-- src/storage/storage&#45;async.ts&#45;&gt;src/storage/compare.ts -->
<g id="edge34" class="edge">
<title>src/storage/storage&#45;async.ts&#45;&gt;src/storage/compare.ts</title>
<path fill="none" stroke="#528b8b" stroke-width="2" d="M308.04,-306.51C343.01,-306.51 387.4,-306.51 421.24,-306.51"/>
<polygon fill="#528b8b" stroke="#528b8b" stroke-width="2" points="421.39,-310.01 431.39,-306.51 421.39,-303.01 421.39,-310.01"/>
</g>
<!-- src/storage/storage&#45;async.ts&#45;&gt;src/storage/query&#45;types.ts -->
<g id="edge31" class="edge">
<title>src/storage/storage&#45;async.ts&#45;&gt;src/storage/query&#45;types.ts</title>
<path fill="none" stroke="#528b8b" stroke-width="2" d="M308.02,-295.05C394.79,-277.49 551.18,-245.35 562.5,-239.51 590.26,-225.2 615.97,-200.32 633.11,-181.34"/>
<polygon fill="#528b8b" stroke="#528b8b" stroke-width="2" points="635.93,-183.43 639.91,-173.61 630.68,-178.8 635.93,-183.43"/>
</g>
<!-- src/storage/storage&#45;async.ts&#45;&gt;src/storage/storage&#45;types.ts -->
<g id="edge32" class="edge">
<title>src/storage/storage&#45;async.ts&#45;&gt;src/storage/storage&#45;types.ts</title>
<path fill="none" stroke="#528b8b" stroke-width="2" d="M273.41,-288.19C294.48,-270.82 326.77,-243.84 354,-219.51 370.41,-204.85 373.45,-200.01 390,-185.51 406.66,-170.91 425.84,-155.27 441.52,-142.77"/>
<polygon fill="#528b8b" stroke="#528b8b" stroke-width="2" points="443.7,-145.5 449.36,-136.55 439.35,-140.02 443.7,-145.5"/>
</g>
<!-- src/storage/storage&#45;async.ts&#45;&gt;src/storage/util&#45;types.ts -->
<g id="edge30" class="edge">
<title>src/storage/storage&#45;async.ts&#45;&gt;src/storage/util&#45;types.ts</title>
<path fill="none" stroke="#528b8b" stroke-width="2" d="M308.12,-323.42C371.47,-339.43 476.13,-357.73 562.5,-333.51 584.88,-327.23 607.23,-313.85 624.29,-301.73"/>
<polygon fill="#528b8b" stroke="#528b8b" stroke-width="2" points="626.71,-304.3 632.7,-295.56 622.57,-298.66 626.71,-304.3"/>
</g>
<!-- src/storage/storage&#45;async.ts&#45;&gt;tweetnacl -->
<g id="edge51" class="edge">
<title>src/storage/storage&#45;async.ts&#45;&gt;tweetnacl</title>
<path fill="none" stroke="#8b8878" stroke-width="1.5" stroke-dasharray="5,2" d="M302.92,-324.53C382.37,-352.09 532.82,-404.29 608.53,-430.56"/>
<polygon fill="#8b8878" stroke="#8b8878" stroke-width="1.5" points="607.67,-433.97 618.27,-433.94 609.97,-427.36 607.67,-433.97"/>
</g>
<!-- src/storage/storage&#45;async.ts&#45;&gt;chalk -->
<g id="edge50" class="edge">
<title>src/storage/storage&#45;async.ts&#45;&gt;chalk</title>
<path fill="none" stroke="#8b8878" stroke-width="1.5" stroke-dasharray="5,2" d="M282,-288.38C305.44,-273.02 336.47,-248.85 354,-219.51 393.83,-152.83 337.2,-105.47 390,-48.51 401.73,-35.86 419.7,-29.74 435.88,-26.83"/>
<polygon fill="#8b8878" stroke="#8b8878" stroke-width="1.5" points="436.77,-30.24 446.17,-25.35 435.77,-23.31 436.77,-30.24"/>
</g>
<!-- src/storage/storage&#45;driver&#45;async&#45;memory.ts&#45;&gt;src/storage/compare.ts -->
<g id="edge38" class="edge">
<title>src/storage/storage&#45;driver&#45;async&#45;memory.ts&#45;&gt;src/storage/compare.ts</title>
<path fill="none" stroke="#528b8b" stroke-width="2" d="M286.1,-210.57C324.54,-230.36 386.29,-262.14 428.08,-283.65"/>
<polygon fill="#528b8b" stroke="#528b8b" stroke-width="2" points="426.71,-286.88 437.2,-288.34 429.91,-280.66 426.71,-286.88"/>
</g>
<!-- src/storage/storage&#45;driver&#45;async&#45;memory.ts&#45;&gt;src/storage/lock.ts -->
<g id="edge40" class="edge">
<title>src/storage/storage&#45;driver&#45;async&#45;memory.ts&#45;&gt;src/storage/lock.ts</title>
<path fill="none" stroke="#528b8b" stroke-width="2" d="M305.11,-174.49C321.93,-167.21 339.78,-157.62 354,-145.51 375.96,-126.81 364.57,-105.12 390,-91.51 463.03,-52.43 564.46,-68.42 618.01,-81.28"/>
<polygon fill="#528b8b" stroke="#528b8b" stroke-width="2" points="617.2,-84.68 627.75,-83.71 618.89,-77.89 617.2,-84.68"/>
</g>
<!-- src/storage/storage&#45;driver&#45;async&#45;memory.ts&#45;&gt;src/storage/query&#45;types.ts -->
<g id="edge36" class="edge">
<title>src/storage/storage&#45;driver&#45;async&#45;memory.ts&#45;&gt;src/storage/query&#45;types.ts</title>
<path fill="none" stroke="#528b8b" stroke-width="2" d="M354.13,-183.05C430.32,-176.07 531.41,-166.8 594.71,-160.99"/>
<polygon fill="#528b8b" stroke="#528b8b" stroke-width="2" points="595.28,-164.46 604.92,-160.06 594.64,-157.49 595.28,-164.46"/>
</g>
<!-- src/storage/storage&#45;driver&#45;async&#45;memory.ts&#45;&gt;src/storage/query.ts -->
<g id="edge39" class="edge">
<title>src/storage/storage&#45;driver&#45;async&#45;memory.ts&#45;&gt;src/storage/query.ts</title>
<path fill="none" stroke="#528b8b" stroke-width="2" d="M354.29,-201.84C381.43,-204.29 409.17,-206.79 430.95,-208.76"/>
<polygon fill="#528b8b" stroke="#528b8b" stroke-width="2" points="430.86,-212.27 441.14,-209.68 431.49,-205.29 430.86,-212.27"/>
</g>
<!-- src/storage/storage&#45;driver&#45;async&#45;memory.ts&#45;&gt;src/storage/storage&#45;types.ts -->
<g id="edge37" class="edge">
<title>src/storage/storage&#45;driver&#45;async&#45;memory.ts&#45;&gt;src/storage/storage&#45;types.ts</title>
<path fill="none" stroke="#528b8b" stroke-width="2" d="M304.9,-174.5C336.25,-164.03 375.95,-150.77 408.83,-139.78"/>
<polygon fill="#528b8b" stroke="#528b8b" stroke-width="2" points="409.98,-143.09 418.36,-136.6 407.76,-136.45 409.98,-143.09"/>
</g>
<!-- src/storage/storage&#45;driver&#45;async&#45;memory.ts&#45;&gt;src/storage/util&#45;types.ts -->
<g id="edge35" class="edge">
<title>src/storage/storage&#45;driver&#45;async&#45;memory.ts&#45;&gt;src/storage/util&#45;types.ts</title>
<path fill="none" stroke="#528b8b" stroke-width="2" d="M297.34,-210.56C324.08,-220.37 358.53,-232 390,-239.51 462.91,-256.92 549.16,-267.49 602.86,-272.92"/>
<polygon fill="#528b8b" stroke="#528b8b" stroke-width="2" points="602.53,-276.41 612.82,-273.91 603.22,-269.44 602.53,-276.41"/>
</g>
<!-- src/storage/storage&#45;driver&#45;async&#45;memory.ts&#45;&gt;chalk -->
<g id="edge52" class="edge">
<title>src/storage/storage&#45;driver&#45;async&#45;memory.ts&#45;&gt;chalk</title>
<path fill="none" stroke="#8b8878" stroke-width="1.5" stroke-dasharray="5,2" d="M311.17,-174.48C326.73,-167.47 342.36,-158.03 354,-145.51 385.31,-111.83 356.33,-79.83 390,-48.51 402.54,-36.84 420.44,-30.81 436.35,-27.71"/>
<polygon fill="#8b8878" stroke="#8b8878" stroke-width="1.5" points="437.15,-31.13 446.45,-26.07 436.02,-24.22 437.15,-31.13"/>
</g>
<!-- src/storage/storage&#45;types.ts&#45;&gt;src/storage/lock.ts -->
<g id="edge42" class="edge">
<title>src/storage/storage&#45;types.ts&#45;&gt;src/storage/lock.ts</title>
<path fill="none" stroke="#528b8b" stroke-width="2" d="M530.47,-110.12C558.82,-105.86 592.46,-100.82 617.55,-97.05"/>
<polygon fill="#528b8b" stroke="#528b8b" stroke-width="2" points="618.37,-100.47 627.74,-95.53 617.33,-93.55 618.37,-100.47"/>
</g>
<!-- src/storage/storage&#45;types.ts&#45;&gt;src/storage/query&#45;types.ts -->
<g id="edge41" class="edge">
<title>src/storage/storage&#45;types.ts&#45;&gt;src/storage/query&#45;types.ts</title>
<path fill="none" stroke="#528b8b" stroke-width="2" d="M530.47,-130.02C550.95,-134.23 574.2,-139.01 594.99,-143.28"/>
<polygon fill="#528b8b" stroke="#528b8b" stroke-width="2" points="594.47,-146.74 604.97,-145.33 595.88,-139.89 594.47,-146.74"/>
</g>
</g>
</svg>
