<?xml version="1.0" encoding="UTF-8" standalone="no"?>
<!DOCTYPE svg PUBLIC "-//W3C//DTD SVG 1.1//EN"
 "http://www.w3.org/Graphics/SVG/1.1/DTD/svg11.dtd">
<!-- Generated by graphviz version 2.44.1 (20200629.0846)
 -->
<!-- Title: G Pages: 1 -->
<svg width="875pt" height="825pt"
 viewBox="0.00 0.00 875.00 825.00" xmlns="http://www.w3.org/2000/svg" xmlns:xlink="http://www.w3.org/1999/xlink">
<g id="graph0" class="graph" transform="scale(1 1) rotate(0) translate(4 821)">
<title>G</title>
<polygon fill="white" stroke="transparent" points="-4,4 -4,-821 871,-821 871,4 -4,4"/>
<g id="clust1" class="cluster">
<title>cluster2691704624</title>
<path fill="none" stroke="#8b7d6b" stroke-width="2" d="M20,-8C20,-8 847,-8 847,-8 853,-8 859,-14 859,-20 859,-20 859,-797 859,-797 859,-803 853,-809 847,-809 847,-809 20,-809 20,-809 14,-809 8,-803 8,-797 8,-797 8,-20 8,-20 8,-14 14,-8 20,-8"/>
<text text-anchor="start" x="423" y="-794.8" font-family="Helvetica,sans-Serif" font-weight="bold" font-size="14.00">src</text>
</g>
<g id="clust2" class="cluster">
<title>cluster8025855749</title>
<path fill="bisque" stroke="#8b7d6b" stroke-width="2" d="M618.5,-301C618.5,-301 839,-301 839,-301 845,-301 851,-307 851,-313 851,-313 851,-418 851,-418 851,-424 845,-430 839,-430 839,-430 618.5,-430 618.5,-430 612.5,-430 606.5,-424 606.5,-418 606.5,-418 606.5,-313 606.5,-313 606.5,-307 612.5,-301 618.5,-301"/>
<text text-anchor="start" x="680.25" y="-415.8" font-family="Helvetica,sans-Serif" font-weight="bold" font-size="14.00">core&#45;validators</text>
</g>
<g id="clust3" class="cluster">
<title>cluster6419407341</title>
<path fill="bisque" stroke="#8b7d6b" stroke-width="2" d="M236,-16C236,-16 709,-16 709,-16 715,-16 721,-22 721,-28 721,-28 721,-281 721,-281 721,-287 715,-293 709,-293 709,-293 236,-293 236,-293 230,-293 224,-287 224,-281 224,-281 224,-28 224,-28 224,-22 230,-16 236,-16"/>
<text text-anchor="start" x="451.5" y="-278.8" font-family="Helvetica,sans-Serif" font-weight="bold" font-size="14.00">crypto</text>
</g>
<g id="clust4" class="cluster">
<title>cluster7621744471</title>
<path fill="bisque" stroke="#8b7d6b" stroke-width="2" d="M194,-372C194,-372 566.5,-372 566.5,-372 572.5,-372 578.5,-378 578.5,-384 578.5,-384 578.5,-435 578.5,-435 578.5,-441 572.5,-447 566.5,-447 566.5,-447 194,-447 194,-447 188,-447 182,-441 182,-435 182,-435 182,-384 182,-384 182,-378 188,-372 194,-372"/>
<text text-anchor="start" x="324.25" y="-432.8" font-family="Helvetica,sans-Serif" font-weight="bold" font-size="14.00">format&#45;validators</text>
</g>
<g id="clust5" class="cluster">
<title>cluster3184927956</title>
<path fill="bisque" stroke="#8b7d6b" stroke-width="2" d="M166,-455C166,-455 707.5,-455 707.5,-455 713.5,-455 719.5,-461 719.5,-467 719.5,-467 719.5,-766 719.5,-766 719.5,-772 713.5,-778 707.5,-778 707.5,-778 166,-778 166,-778 160,-778 154,-772 154,-766 154,-766 154,-467 154,-467 154,-461 160,-455 166,-455"/>
<text text-anchor="start" x="412.25" y="-763.8" font-family="Helvetica,sans-Serif" font-weight="bold" font-size="14.00">storage</text>
</g>
<!-- src/example&#45;app.ts -->
<g id="node1" class="node">
<title>src/example&#45;app.ts</title>
<path fill="#79cdcd" stroke="#79cdcd" d="M114,-458C114,-458 28,-458 28,-458 22,-458 16,-452 16,-446 16,-446 16,-434 16,-434 16,-428 22,-422 28,-422 28,-422 114,-422 114,-422 120,-422 126,-428 126,-434 126,-434 126,-446 126,-446 126,-452 120,-458 114,-458"/>
<text text-anchor="middle" x="71" y="-436.3" font-family="Helvetica,sans-Serif" font-size="14.00">example&#45;app.ts</text>
</g>
<!-- src/crypto/crypto&#45;driver&#45;tweetnacl.ts -->
<g id="node8" class="node">
<title>src/crypto/crypto&#45;driver&#45;tweetnacl.ts</title>
<path fill="#79cdcd" stroke="#79cdcd" d="M561,-60C561,-60 418,-60 418,-60 412,-60 406,-54 406,-48 406,-48 406,-36 406,-36 406,-30 412,-24 418,-24 418,-24 561,-24 561,-24 567,-24 573,-30 573,-36 573,-36 573,-48 573,-48 573,-54 567,-60 561,-60"/>
<text text-anchor="middle" x="489.5" y="-38.3" font-family="Helvetica,sans-Serif" font-size="14.00">crypto&#45;driver&#45;tweetnacl.ts</text>
</g>
<!-- src/example&#45;app.ts&#45;&gt;src/crypto/crypto&#45;driver&#45;tweetnacl.ts -->
<g id="edge18" class="edge">
<title>src/example&#45;app.ts&#45;&gt;src/crypto/crypto&#45;driver&#45;tweetnacl.ts</title>
<path fill="none" stroke="#528b8b" stroke-width="2" d="M73.95,-421.95C81.06,-359.4 107.67,-153.28 154,-109 217.79,-48.03 320.63,-35.33 395.46,-35.37"/>
<polygon fill="#528b8b" stroke="#528b8b" stroke-width="2" points="395.8,-38.88 405.83,-35.46 395.86,-31.88 395.8,-38.88"/>
</g>
<!-- src/crypto/crypto.ts -->
<g id="node10" class="node">
<title>src/crypto/crypto.ts</title>
<path fill="#79cdcd" stroke="#79cdcd" d="M288,-154C288,-154 244,-154 244,-154 238,-154 232,-148 232,-142 232,-142 232,-130 232,-130 232,-124 238,-118 244,-118 244,-118 288,-118 288,-118 294,-118 300,-124 300,-130 300,-130 300,-142 300,-142 300,-148 294,-154 288,-154"/>
<text text-anchor="middle" x="266" y="-132.3" font-family="Helvetica,sans-Serif" font-size="14.00">crypto.ts</text>
</g>
<!-- src/example&#45;app.ts&#45;&gt;src/crypto/crypto.ts -->
<g id="edge17" class="edge">
<title>src/example&#45;app.ts&#45;&gt;src/crypto/crypto.ts</title>
<path fill="none" stroke="#528b8b" stroke-width="2" d="M83.5,-421.89C116.15,-370.46 209.57,-223.32 248.08,-162.65"/>
<polygon fill="#528b8b" stroke="#528b8b" stroke-width="2" points="251.16,-164.33 253.57,-154.01 245.25,-160.58 251.16,-164.33"/>
</g>
<!-- src/format&#45;validators/format&#45;validator&#45;es4.ts -->
<g id="node12" class="node">
<title>src/format&#45;validators/format&#45;validator&#45;es4.ts</title>
<path fill="#79cdcd" stroke="#79cdcd" d="M330,-416C330,-416 202,-416 202,-416 196,-416 190,-410 190,-404 190,-404 190,-392 190,-392 190,-386 196,-380 202,-380 202,-380 330,-380 330,-380 336,-380 342,-386 342,-392 342,-392 342,-404 342,-404 342,-410 336,-416 330,-416"/>
<text text-anchor="middle" x="266" y="-394.3" font-family="Helvetica,sans-Serif" font-size="14.00">format&#45;validator&#45;es4.ts</text>
</g>
<!-- src/example&#45;app.ts&#45;&gt;src/format&#45;validators/format&#45;validator&#45;es4.ts -->
<g id="edge13" class="edge">
<title>src/example&#45;app.ts&#45;&gt;src/format&#45;validators/format&#45;validator&#45;es4.ts</title>
<path fill="none" stroke="#528b8b" stroke-width="2" d="M126.02,-428.24C142.75,-424.6 161.61,-420.5 179.91,-416.52"/>
<polygon fill="#528b8b" stroke="#528b8b" stroke-width="2" points="180.69,-419.93 189.71,-414.38 179.2,-413.09 180.69,-419.93"/>
</g>
<!-- src/storage/follower.ts -->
<g id="node15" class="node">
<title>src/storage/follower.ts</title>
<path fill="#79cdcd" stroke="#79cdcd" d="M292.5,-576C292.5,-576 239.5,-576 239.5,-576 233.5,-576 227.5,-570 227.5,-564 227.5,-564 227.5,-552 227.5,-552 227.5,-546 233.5,-540 239.5,-540 239.5,-540 292.5,-540 292.5,-540 298.5,-540 304.5,-546 304.5,-552 304.5,-552 304.5,-564 304.5,-564 304.5,-570 298.5,-576 292.5,-576"/>
<text text-anchor="middle" x="266" y="-554.3" font-family="Helvetica,sans-Serif" font-size="14.00">follower.ts</text>
</g>
<!-- src/example&#45;app.ts&#45;&gt;src/storage/follower.ts -->
<g id="edge16" class="edge">
<title>src/example&#45;app.ts&#45;&gt;src/storage/follower.ts</title>
<path fill="none" stroke="#528b8b" stroke-width="2" d="M89.96,-458.12C105.79,-473.38 130.01,-495.05 154,-510 173.92,-522.42 197.61,-533.14 217.98,-541.29"/>
<polygon fill="#528b8b" stroke="#528b8b" stroke-width="2" points="216.79,-544.58 227.38,-544.96 219.34,-538.06 216.79,-544.58"/>
</g>
<!-- src/storage/storage&#45;async.ts -->
<g id="node19" class="node">
<title>src/storage/storage&#45;async.ts</title>
<path fill="#79cdcd" stroke="#79cdcd" d="M312,-501C312,-501 220,-501 220,-501 214,-501 208,-495 208,-489 208,-489 208,-477 208,-477 208,-471 214,-465 220,-465 220,-465 312,-465 312,-465 318,-465 324,-471 324,-477 324,-477 324,-489 324,-489 324,-495 318,-501 312,-501"/>
<text text-anchor="middle" x="266" y="-479.3" font-family="Helvetica,sans-Serif" font-size="14.00">storage&#45;async.ts</text>
</g>
<!-- src/example&#45;app.ts&#45;&gt;src/storage/storage&#45;async.ts -->
<g id="edge15" class="edge">
<title>src/example&#45;app.ts&#45;&gt;src/storage/storage&#45;async.ts</title>
<path fill="none" stroke="#528b8b" stroke-width="2" d="M126.02,-452.04C148.36,-457.01 174.5,-462.84 198.05,-468.08"/>
<polygon fill="#528b8b" stroke="#528b8b" stroke-width="2" points="197.44,-471.53 207.96,-470.29 198.96,-464.7 197.44,-471.53"/>
</g>
<!-- src/storage/storage&#45;driver&#45;async&#45;memory.ts -->
<g id="node20" class="node">
<title>src/storage/storage&#45;driver&#45;async&#45;memory.ts</title>
<path fill="#79cdcd" stroke="#79cdcd" d="M358,-670C358,-670 174,-670 174,-670 168,-670 162,-664 162,-658 162,-658 162,-646 162,-646 162,-640 168,-634 174,-634 174,-634 358,-634 358,-634 364,-634 370,-640 370,-646 370,-646 370,-658 370,-658 370,-664 364,-670 358,-670"/>
<text text-anchor="middle" x="266" y="-648.3" font-family="Helvetica,sans-Serif" font-size="14.00">storage&#45;driver&#45;async&#45;memory.ts</text>
</g>
<!-- src/example&#45;app.ts&#45;&gt;src/storage/storage&#45;driver&#45;async&#45;memory.ts -->
<g id="edge14" class="edge">
<title>src/example&#45;app.ts&#45;&gt;src/storage/storage&#45;driver&#45;async&#45;memory.ts</title>
<path fill="none" stroke="#528b8b" stroke-width="2" d="M78.82,-458.42C90.49,-488 116.71,-546.63 154,-585 171.49,-603 194.8,-618.03 215.55,-629.26"/>
<polygon fill="#528b8b" stroke="#528b8b" stroke-width="2" points="214.08,-632.44 224.56,-634 217.34,-626.25 214.08,-632.44"/>
</g>
<!-- src/core&#45;validators/addresses.ts -->
<g id="node2" class="node">
<title>src/core&#45;validators/addresses.ts</title>
<path fill="#79cdcd" stroke="#79cdcd" d="M695.5,-345C695.5,-345 626.5,-345 626.5,-345 620.5,-345 614.5,-339 614.5,-333 614.5,-333 614.5,-321 614.5,-321 614.5,-315 620.5,-309 626.5,-309 626.5,-309 695.5,-309 695.5,-309 701.5,-309 707.5,-315 707.5,-321 707.5,-321 707.5,-333 707.5,-333 707.5,-339 701.5,-345 695.5,-345"/>
<text text-anchor="middle" x="661" y="-323.3" font-family="Helvetica,sans-Serif" font-size="14.00">addresses.ts</text>
</g>
<!-- src/core&#45;validators/characters.ts -->
<g id="node3" class="node">
<title>src/core&#45;validators/characters.ts</title>
<path fill="#79cdcd" stroke="#79cdcd" d="M831,-399C831,-399 761,-399 761,-399 755,-399 749,-393 749,-387 749,-387 749,-375 749,-375 749,-369 755,-363 761,-363 761,-363 831,-363 831,-363 837,-363 843,-369 843,-375 843,-375 843,-387 843,-387 843,-393 837,-399 831,-399"/>
<text text-anchor="middle" x="796" y="-377.3" font-family="Helvetica,sans-Serif" font-size="14.00">characters.ts</text>
</g>
<!-- src/core&#45;validators/addresses.ts&#45;&gt;src/core&#45;validators/characters.ts -->
<g id="edge1" class="edge">
<title>src/core&#45;validators/addresses.ts&#45;&gt;src/core&#45;validators/characters.ts</title>
<path fill="none" stroke="#528b8b" stroke-width="2" d="M706.66,-345.13C717.62,-349.58 729.48,-354.4 740.84,-359.01"/>
<polygon fill="#528b8b" stroke="#528b8b" stroke-width="2" points="739.65,-362.31 750.23,-362.82 742.29,-355.82 739.65,-362.31"/>
</g>
<!-- src/core&#45;validators/checkers.ts -->
<g id="node4" class="node">
<title>src/core&#45;validators/checkers.ts</title>
<path fill="#79cdcd" stroke="#79cdcd" d="M691.5,-399C691.5,-399 630.5,-399 630.5,-399 624.5,-399 618.5,-393 618.5,-387 618.5,-387 618.5,-375 618.5,-375 618.5,-369 624.5,-363 630.5,-363 630.5,-363 691.5,-363 691.5,-363 697.5,-363 703.5,-369 703.5,-375 703.5,-375 703.5,-387 703.5,-387 703.5,-393 697.5,-399 691.5,-399"/>
<text text-anchor="middle" x="661" y="-377.3" font-family="Helvetica,sans-Serif" font-size="14.00">checkers.ts</text>
</g>
<!-- src/core&#45;validators/checkers.ts&#45;&gt;src/core&#45;validators/characters.ts -->
<g id="edge2" class="edge">
<title>src/core&#45;validators/checkers.ts&#45;&gt;src/core&#45;validators/characters.ts</title>
<path fill="none" stroke="#528b8b" stroke-width="2" d="M703.72,-381C714.79,-381 726.94,-381 738.66,-381"/>
<polygon fill="#528b8b" stroke="#528b8b" stroke-width="2" points="738.81,-384.5 748.81,-381 738.81,-377.5 738.81,-384.5"/>
</g>
<!-- src/crypto/base32.ts -->
<g id="node5" class="node">
<title>src/crypto/base32.ts</title>
<path fill="#79cdcd" stroke="#79cdcd" d="M686.5,-125C686.5,-125 635.5,-125 635.5,-125 629.5,-125 623.5,-119 623.5,-113 623.5,-113 623.5,-101 623.5,-101 623.5,-95 629.5,-89 635.5,-89 635.5,-89 686.5,-89 686.5,-89 692.5,-89 698.5,-95 698.5,-101 698.5,-101 698.5,-113 698.5,-113 698.5,-119 692.5,-125 686.5,-125"/>
<text text-anchor="middle" x="661" y="-103.3" font-family="Helvetica,sans-Serif" font-size="14.00">base32.ts</text>
</g>
<!-- src/crypto/crypto&#45;driver&#45;chloride.ts -->
<g id="node6" class="node">
<title>src/crypto/crypto&#45;driver&#45;chloride.ts</title>
<path fill="#79cdcd" stroke="#79cdcd" d="M556.5,-262C556.5,-262 422.5,-262 422.5,-262 416.5,-262 410.5,-256 410.5,-250 410.5,-250 410.5,-238 410.5,-238 410.5,-232 416.5,-226 422.5,-226 422.5,-226 556.5,-226 556.5,-226 562.5,-226 568.5,-232 568.5,-238 568.5,-238 568.5,-250 568.5,-250 568.5,-256 562.5,-262 556.5,-262"/>
<text text-anchor="middle" x="489.5" y="-240.3" font-family="Helvetica,sans-Serif" font-size="14.00">crypto&#45;driver&#45;chloride.ts</text>
</g>
<!-- src/crypto/crypto&#45;types.ts -->
<g id="node9" class="node">
<title>src/crypto/crypto&#45;types.ts</title>
<path fill="#79cdcd" stroke="#79cdcd" d="M701,-208C701,-208 621,-208 621,-208 615,-208 609,-202 609,-196 609,-196 609,-184 609,-184 609,-178 615,-172 621,-172 621,-172 701,-172 701,-172 707,-172 713,-178 713,-184 713,-184 713,-196 713,-196 713,-202 707,-208 701,-208"/>
<text text-anchor="middle" x="661" y="-186.3" font-family="Helvetica,sans-Serif" font-size="14.00">crypto&#45;types.ts</text>
</g>
<!-- src/crypto/crypto&#45;driver&#45;chloride.ts&#45;&gt;src/crypto/crypto&#45;types.ts -->
<g id="edge3" class="edge">
<title>src/crypto/crypto&#45;driver&#45;chloride.ts&#45;&gt;src/crypto/crypto&#45;types.ts</title>
<path fill="none" stroke="#528b8b" stroke-width="2" d="M550.2,-225.88C559.68,-222.95 569.37,-219.91 578.5,-217 585.08,-214.9 591.95,-212.67 598.79,-210.44"/>
<polygon fill="#528b8b" stroke="#528b8b" stroke-width="2" points="600.35,-213.61 608.76,-207.17 598.16,-206.96 600.35,-213.61"/>
</g>
<!-- src/crypto/crypto&#45;driver&#45;node.ts -->
<g id="node7" class="node">
<title>src/crypto/crypto&#45;driver&#45;node.ts</title>
<path fill="#79cdcd" stroke="#79cdcd" d="M547.5,-208C547.5,-208 431.5,-208 431.5,-208 425.5,-208 419.5,-202 419.5,-196 419.5,-196 419.5,-184 419.5,-184 419.5,-178 425.5,-172 431.5,-172 431.5,-172 547.5,-172 547.5,-172 553.5,-172 559.5,-178 559.5,-184 559.5,-184 559.5,-196 559.5,-196 559.5,-202 553.5,-208 547.5,-208"/>
<text text-anchor="middle" x="489.5" y="-186.3" font-family="Helvetica,sans-Serif" font-size="14.00">crypto&#45;driver&#45;node.ts</text>
</g>
<!-- src/crypto/crypto&#45;driver&#45;node.ts&#45;&gt;src/crypto/crypto&#45;types.ts -->
<g id="edge4" class="edge">
<title>src/crypto/crypto&#45;driver&#45;node.ts&#45;&gt;src/crypto/crypto&#45;types.ts</title>
<path fill="none" stroke="#528b8b" stroke-width="2" d="M559.93,-190C572.72,-190 585.98,-190 598.51,-190"/>
<polygon fill="#528b8b" stroke="#528b8b" stroke-width="2" points="598.84,-193.5 608.84,-190 598.84,-186.5 598.84,-193.5"/>
</g>
<!-- src/crypto/crypto&#45;driver&#45;tweetnacl.ts&#45;&gt;src/crypto/crypto&#45;types.ts -->
<g id="edge5" class="edge">
<title>src/crypto/crypto&#45;driver&#45;tweetnacl.ts&#45;&gt;src/crypto/crypto&#45;types.ts</title>
<path fill="none" stroke="#528b8b" stroke-width="2" d="M528.86,-60.03C545.25,-68.86 563.92,-80.5 578.5,-94 594.42,-108.74 592.74,-117.22 606.5,-134 615.11,-144.5 625.25,-155.43 634.38,-164.82"/>
<polygon fill="#528b8b" stroke="#528b8b" stroke-width="2" points="631.92,-167.31 641.43,-171.98 636.91,-162.4 631.92,-167.31"/>
</g>
<!-- src/crypto/crypto.ts&#45;&gt;src/core&#45;validators/addresses.ts -->
<g id="edge9" class="edge">
<title>src/crypto/crypto.ts&#45;&gt;src/core&#45;validators/addresses.ts</title>
<path fill="none" stroke="#528b8b" stroke-width="2" d="M280.14,-154.11C302.49,-183.51 350.91,-241.34 406,-271 468.75,-304.79 550.67,-318.2 604.27,-323.52"/>
<polygon fill="#528b8b" stroke="#528b8b" stroke-width="2" points="603.99,-327 614.27,-324.45 604.64,-320.03 603.99,-327"/>
</g>
<!-- src/crypto/crypto.ts&#45;&gt;src/crypto/base32.ts -->
<g id="edge7" class="edge">
<title>src/crypto/crypto.ts&#45;&gt;src/crypto/base32.ts</title>
<path fill="none" stroke="#528b8b" stroke-width="2" d="M300.18,-131.48C320.72,-128.06 347.4,-122.47 370,-114 387.14,-107.57 388.28,-98.59 406,-94 480.22,-74.77 502.07,-87.94 578.5,-94 589.76,-94.89 601.82,-96.47 613.12,-98.22"/>
<polygon fill="#528b8b" stroke="#528b8b" stroke-width="2" points="612.8,-101.72 623.23,-99.87 613.92,-94.81 612.8,-101.72"/>
</g>
<!-- src/crypto/crypto.ts&#45;&gt;src/crypto/crypto&#45;types.ts -->
<g id="edge6" class="edge">
<title>src/crypto/crypto.ts&#45;&gt;src/crypto/crypto&#45;types.ts</title>
<path fill="none" stroke="#528b8b" stroke-width="2" d="M300.18,-128.79C334.53,-121.47 385.93,-110.93 406,-109 482.31,-101.66 507.62,-79.77 578.5,-109 582.16,-110.51 612.64,-141.32 635.26,-164.49"/>
<polygon fill="#528b8b" stroke="#528b8b" stroke-width="2" points="632.8,-166.98 642.29,-171.7 637.82,-162.1 632.8,-166.98"/>
</g>
<!-- src/crypto/keypair.ts -->
<g id="node11" class="node">
<title>src/crypto/keypair.ts</title>
<path fill="#79cdcd" stroke="#79cdcd" d="M514.5,-154C514.5,-154 464.5,-154 464.5,-154 458.5,-154 452.5,-148 452.5,-142 452.5,-142 452.5,-130 452.5,-130 452.5,-124 458.5,-118 464.5,-118 464.5,-118 514.5,-118 514.5,-118 520.5,-118 526.5,-124 526.5,-130 526.5,-130 526.5,-142 526.5,-142 526.5,-148 520.5,-154 514.5,-154"/>
<text text-anchor="middle" x="489.5" y="-132.3" font-family="Helvetica,sans-Serif" font-size="14.00">keypair.ts</text>
</g>
<!-- src/crypto/crypto.ts&#45;&gt;src/crypto/keypair.ts -->
<g id="edge8" class="edge">
<title>src/crypto/crypto.ts&#45;&gt;src/crypto/keypair.ts</title>
<path fill="none" stroke="#528b8b" stroke-width="2" d="M300.16,-136C337.85,-136 399.62,-136 442.08,-136"/>
<polygon fill="#528b8b" stroke="#528b8b" stroke-width="2" points="442.16,-139.5 452.16,-136 442.16,-132.5 442.16,-139.5"/>
</g>
<!-- src/crypto/keypair.ts&#45;&gt;src/core&#45;validators/addresses.ts -->
<g id="edge12" class="edge">
<title>src/crypto/keypair.ts&#45;&gt;src/core&#45;validators/addresses.ts</title>
<path fill="none" stroke="#528b8b" stroke-width="2" d="M526.79,-138.61C544.76,-141.79 565.36,-148.6 578.5,-163 619.5,-207.95 570.51,-247.94 606.5,-297 607.86,-298.85 609.36,-300.6 610.98,-302.25"/>
<polygon fill="#528b8b" stroke="#528b8b" stroke-width="2" points="608.86,-305.04 618.73,-308.91 613.43,-299.74 608.86,-305.04"/>
</g>
<!-- src/crypto/keypair.ts&#45;&gt;src/crypto/base32.ts -->
<g id="edge10" class="edge">
<title>src/crypto/keypair.ts&#45;&gt;src/crypto/base32.ts</title>
<path fill="none" stroke="#528b8b" stroke-width="2" d="M526.86,-129.78C552.13,-125.45 586.04,-119.65 613.31,-114.99"/>
<polygon fill="#528b8b" stroke="#528b8b" stroke-width="2" points="614.14,-118.4 623.41,-113.26 612.96,-111.5 614.14,-118.4"/>
</g>
<!-- src/crypto/keypair.ts&#45;&gt;src/crypto/crypto&#45;types.ts -->
<g id="edge11" class="edge">
<title>src/crypto/keypair.ts&#45;&gt;src/crypto/crypto&#45;types.ts</title>
<path fill="none" stroke="#528b8b" stroke-width="2" d="M526.52,-146.85C542.47,-151.71 561.45,-157.56 578.5,-163 585.08,-165.1 591.95,-167.33 598.79,-169.56"/>
<polygon fill="#528b8b" stroke="#528b8b" stroke-width="2" points="598.16,-173.04 608.76,-172.83 600.35,-166.39 598.16,-173.04"/>
</g>
<!-- src/format&#45;validators/format&#45;validator&#45;es4.ts&#45;&gt;src/core&#45;validators/addresses.ts -->
<g id="edge23" class="edge">
<title>src/format&#45;validators/format&#45;validator&#45;es4.ts&#45;&gt;src/core&#45;validators/addresses.ts</title>
<path fill="none" stroke="#528b8b" stroke-width="2" d="M303.46,-379.91C330.93,-367.19 369.91,-351.06 406,-343 473.11,-328 552.49,-325.33 604.43,-325.53"/>
<polygon fill="#528b8b" stroke="#528b8b" stroke-width="2" points="604.41,-329.03 614.43,-325.61 604.46,-322.03 604.41,-329.03"/>
</g>
<!-- src/format&#45;validators/format&#45;validator&#45;es4.ts&#45;&gt;src/core&#45;validators/characters.ts -->
<g id="edge21" class="edge">
<title>src/format&#45;validators/format&#45;validator&#45;es4.ts&#45;&gt;src/core&#45;validators/characters.ts</title>
<path fill="none" stroke="#528b8b" stroke-width="2" d="M342,-380.7C362.63,-376.69 385.08,-373.01 406,-371 444.16,-367.33 544.18,-353.93 578.5,-371 596.97,-380.18 588.03,-398.82 606.5,-408 652.07,-430.66 670.89,-416.86 721,-408 728.49,-406.68 736.22,-404.65 743.73,-402.3"/>
<polygon fill="#528b8b" stroke="#528b8b" stroke-width="2" points="745.07,-405.54 753.44,-399.04 742.85,-398.9 745.07,-405.54"/>
</g>
<!-- src/format&#45;validators/format&#45;validator&#45;es4.ts&#45;&gt;src/core&#45;validators/checkers.ts -->
<g id="edge22" class="edge">
<title>src/format&#45;validators/format&#45;validator&#45;es4.ts&#45;&gt;src/core&#45;validators/checkers.ts</title>
<path fill="none" stroke="#528b8b" stroke-width="2" d="M314.14,-379.99C340.68,-370.81 374.7,-360.63 406,-356 481.84,-344.79 502.68,-344.63 578.5,-356 588.38,-357.48 598.72,-359.92 608.58,-362.71"/>
<polygon fill="#528b8b" stroke="#528b8b" stroke-width="2" points="607.67,-366.09 618.25,-365.59 609.67,-359.38 607.67,-366.09"/>
</g>
<!-- src/format&#45;validators/format&#45;validator&#45;es4.ts&#45;&gt;src/crypto/crypto&#45;types.ts -->
<g id="edge20" class="edge">
<title>src/format&#45;validators/format&#45;validator&#45;es4.ts&#45;&gt;src/crypto/crypto&#45;types.ts</title>
<path fill="none" stroke="#528b8b" stroke-width="2" d="M295.08,-379.98C322.51,-362.98 365.88,-337.68 406,-321 479.71,-290.36 509.72,-311.51 578.5,-271 602.65,-256.78 624.84,-233.77 639.94,-215.91"/>
<polygon fill="#528b8b" stroke="#528b8b" stroke-width="2" points="642.71,-218.05 646.37,-208.11 637.31,-213.6 642.71,-218.05"/>
</g>
<!-- src/format&#45;validators/format&#45;validator&#45;types.ts -->
<g id="node13" class="node">
<title>src/format&#45;validators/format&#45;validator&#45;types.ts</title>
<path fill="#79cdcd" stroke="#79cdcd" d="M558.5,-416C558.5,-416 420.5,-416 420.5,-416 414.5,-416 408.5,-410 408.5,-404 408.5,-404 408.5,-392 408.5,-392 408.5,-386 414.5,-380 420.5,-380 420.5,-380 558.5,-380 558.5,-380 564.5,-380 570.5,-386 570.5,-392 570.5,-392 570.5,-404 570.5,-404 570.5,-410 564.5,-416 558.5,-416"/>
<text text-anchor="middle" x="489.5" y="-394.3" font-family="Helvetica,sans-Serif" font-size="14.00">format&#45;validator&#45;types.ts</text>
</g>
<!-- src/format&#45;validators/format&#45;validator&#45;es4.ts&#45;&gt;src/format&#45;validators/format&#45;validator&#45;types.ts -->
<g id="edge19" class="edge">
<title>src/format&#45;validators/format&#45;validator&#45;es4.ts&#45;&gt;src/format&#45;validators/format&#45;validator&#45;types.ts</title>
<path fill="none" stroke="#528b8b" stroke-width="2" d="M342.3,-398C360.29,-398 379.67,-398 398.26,-398"/>
<polygon fill="#528b8b" stroke="#528b8b" stroke-width="2" points="398.49,-401.5 408.49,-398 398.49,-394.5 398.49,-401.5"/>
</g>
<!-- src/format&#45;validators/format&#45;validator&#45;types.ts&#45;&gt;src/crypto/crypto&#45;types.ts -->
<g id="edge24" class="edge">
<title>src/format&#45;validators/format&#45;validator&#45;types.ts&#45;&gt;src/crypto/crypto&#45;types.ts</title>
<path fill="none" stroke="#528b8b" stroke-width="2" d="M509.57,-379.74C528,-361.7 556.33,-332.98 578.5,-306 602.47,-276.83 626.98,-240.97 642.77,-216.9"/>
<polygon fill="#528b8b" stroke="#528b8b" stroke-width="2" points="645.85,-218.59 648.38,-208.3 639.99,-214.77 645.85,-218.59"/>
</g>
<!-- src/storage/compare.ts -->
<g id="node14" class="node">
<title>src/storage/compare.ts</title>
<path fill="#79cdcd" stroke="#79cdcd" d="M519.5,-559C519.5,-559 459.5,-559 459.5,-559 453.5,-559 447.5,-553 447.5,-547 447.5,-547 447.5,-535 447.5,-535 447.5,-529 453.5,-523 459.5,-523 459.5,-523 519.5,-523 519.5,-523 525.5,-523 531.5,-529 531.5,-535 531.5,-535 531.5,-547 531.5,-547 531.5,-553 525.5,-559 519.5,-559"/>
<text text-anchor="middle" x="489.5" y="-537.3" font-family="Helvetica,sans-Serif" font-size="14.00">compare.ts</text>
</g>
<!-- src/storage/util&#45;types.ts -->
<g id="node22" class="node">
<title>src/storage/util&#45;types.ts</title>
<path fill="#79cdcd" stroke="#79cdcd" d="M691.5,-540C691.5,-540 630.5,-540 630.5,-540 624.5,-540 618.5,-534 618.5,-528 618.5,-528 618.5,-516 618.5,-516 618.5,-510 624.5,-504 630.5,-504 630.5,-504 691.5,-504 691.5,-504 697.5,-504 703.5,-510 703.5,-516 703.5,-516 703.5,-528 703.5,-528 703.5,-534 697.5,-540 691.5,-540"/>
<text text-anchor="middle" x="661" y="-518.3" font-family="Helvetica,sans-Serif" font-size="14.00">util&#45;types.ts</text>
</g>
<!-- src/storage/compare.ts&#45;&gt;src/storage/util&#45;types.ts -->
<g id="edge25" class="edge">
<title>src/storage/compare.ts&#45;&gt;src/storage/util&#45;types.ts</title>
<path fill="none" stroke="#528b8b" stroke-width="2" d="M531.53,-536.4C554.59,-533.82 583.6,-530.56 608.21,-527.8"/>
<polygon fill="#528b8b" stroke="#528b8b" stroke-width="2" points="608.92,-531.25 618.46,-526.66 608.14,-524.29 608.92,-531.25"/>
</g>
<!-- src/storage/query&#45;types.ts -->
<g id="node17" class="node">
<title>src/storage/query&#45;types.ts</title>
<path fill="#79cdcd" stroke="#79cdcd" d="M699.5,-633C699.5,-633 622.5,-633 622.5,-633 616.5,-633 610.5,-627 610.5,-621 610.5,-621 610.5,-609 610.5,-609 610.5,-603 616.5,-597 622.5,-597 622.5,-597 699.5,-597 699.5,-597 705.5,-597 711.5,-603 711.5,-609 711.5,-609 711.5,-621 711.5,-621 711.5,-627 705.5,-633 699.5,-633"/>
<text text-anchor="middle" x="661" y="-611.3" font-family="Helvetica,sans-Serif" font-size="14.00">query&#45;types.ts</text>
</g>
<!-- src/storage/follower.ts&#45;&gt;src/storage/query&#45;types.ts -->
<g id="edge27" class="edge">
<title>src/storage/follower.ts&#45;&gt;src/storage/query&#45;types.ts</title>
<path fill="none" stroke="#528b8b" stroke-width="2" d="M304.71,-560.57C375.81,-565.59 527.13,-577.16 578.5,-588 586.09,-589.6 593.96,-591.67 601.68,-593.94"/>
<polygon fill="#528b8b" stroke="#528b8b" stroke-width="2" points="600.77,-597.32 611.36,-596.92 602.83,-590.63 600.77,-597.32"/>
</g>
<!-- src/storage/storage&#45;types.ts -->
<g id="node21" class="node">
<title>src/storage/storage&#45;types.ts</title>
<path fill="#79cdcd" stroke="#79cdcd" d="M534,-633C534,-633 445,-633 445,-633 439,-633 433,-627 433,-621 433,-621 433,-609 433,-609 433,-603 439,-597 445,-597 445,-597 534,-597 534,-597 540,-597 546,-603 546,-609 546,-609 546,-621 546,-621 546,-627 540,-633 534,-633"/>
<text text-anchor="middle" x="489.5" y="-611.3" font-family="Helvetica,sans-Serif" font-size="14.00">storage&#45;types.ts</text>
</g>
<!-- src/storage/follower.ts&#45;&gt;src/storage/storage&#45;types.ts -->
<g id="edge28" class="edge">
<title>src/storage/follower.ts&#45;&gt;src/storage/storage&#45;types.ts</title>
<path fill="none" stroke="#528b8b" stroke-width="2" d="M304.57,-567.67C336.87,-575.98 384.18,-588.15 422.73,-598.08"/>
<polygon fill="#528b8b" stroke="#528b8b" stroke-width="2" points="422.28,-601.57 432.84,-600.68 424.03,-594.8 422.28,-601.57"/>
</g>
<!-- src/storage/follower.ts&#45;&gt;src/storage/util&#45;types.ts -->
<g id="edge26" class="edge">
<title>src/storage/follower.ts&#45;&gt;src/storage/util&#45;types.ts</title>
<path fill="none" stroke="#528b8b" stroke-width="2" d="M304.6,-542.64C332.14,-532.24 370.73,-519.45 406,-514 481.77,-502.29 501.93,-510.25 578.5,-514 588.09,-514.47 598.29,-515.25 608.12,-516.14"/>
<polygon fill="#528b8b" stroke="#528b8b" stroke-width="2" points="607.89,-519.63 618.18,-517.1 608.56,-512.67 607.89,-519.63"/>
</g>
<!-- src/storage/lock.ts -->
<g id="node16" class="node">
<title>src/storage/lock.ts</title>
<path fill="#79cdcd" stroke="#79cdcd" d="M676.5,-717C676.5,-717 645.5,-717 645.5,-717 639.5,-717 633.5,-711 633.5,-705 633.5,-705 633.5,-693 633.5,-693 633.5,-687 639.5,-681 645.5,-681 645.5,-681 676.5,-681 676.5,-681 682.5,-681 688.5,-687 688.5,-693 688.5,-693 688.5,-705 688.5,-705 688.5,-711 682.5,-717 676.5,-717"/>
<text text-anchor="middle" x="661" y="-695.3" font-family="Helvetica,sans-Serif" font-size="14.00">lock.ts</text>
</g>
<!-- src/storage/query.ts -->
<g id="node18" class="node">
<title>src/storage/query.ts</title>
<path fill="#79cdcd" stroke="#79cdcd" d="M509.5,-707C509.5,-707 469.5,-707 469.5,-707 463.5,-707 457.5,-701 457.5,-695 457.5,-695 457.5,-683 457.5,-683 457.5,-677 463.5,-671 469.5,-671 469.5,-671 509.5,-671 509.5,-671 515.5,-671 521.5,-677 521.5,-683 521.5,-683 521.5,-695 521.5,-695 521.5,-701 515.5,-707 509.5,-707"/>
<text text-anchor="middle" x="489.5" y="-685.3" font-family="Helvetica,sans-Serif" font-size="14.00">query.ts</text>
</g>
<!-- src/storage/query.ts&#45;&gt;src/storage/query&#45;types.ts -->
<g id="edge29" class="edge">
<title>src/storage/query.ts&#45;&gt;src/storage/query&#45;types.ts</title>
<path fill="none" stroke="#528b8b" stroke-width="2" d="M521.83,-678.69C538.81,-672.84 560.03,-665.08 578.5,-657 591.64,-651.25 605.63,-644.34 618.25,-637.81"/>
<polygon fill="#528b8b" stroke="#528b8b" stroke-width="2" points="619.92,-640.88 627.15,-633.14 616.67,-634.68 619.92,-640.88"/>
</g>
<!-- src/storage/storage&#45;async.ts&#45;&gt;src/format&#45;validators/format&#45;validator&#45;types.ts -->
<g id="edge33" class="edge">
<title>src/storage/storage&#45;async.ts&#45;&gt;src/format&#45;validators/format&#45;validator&#45;types.ts</title>
<path fill="none" stroke="#528b8b" stroke-width="2" d="M324.08,-466.6C339.14,-461.91 355.28,-456.55 370,-451 394.06,-441.92 420.22,-430.4 441.82,-420.43"/>
<polygon fill="#528b8b" stroke="#528b8b" stroke-width="2" points="443.5,-423.5 451.09,-416.11 440.55,-417.16 443.5,-423.5"/>
</g>
<!-- src/storage/storage&#45;async.ts&#45;&gt;src/storage/compare.ts -->
<g id="edge34" class="edge">
<title>src/storage/storage&#45;async.ts&#45;&gt;src/storage/compare.ts</title>
<path fill="none" stroke="#528b8b" stroke-width="2" d="M324.04,-497.94C359.16,-507.13 403.78,-518.82 437.68,-527.69"/>
<polygon fill="#528b8b" stroke="#528b8b" stroke-width="2" points="436.83,-531.09 447.39,-530.23 438.6,-524.32 436.83,-531.09"/>
</g>
<!-- src/storage/storage&#45;async.ts&#45;&gt;src/storage/query&#45;types.ts -->
<g id="edge31" class="edge">
<title>src/storage/storage&#45;async.ts&#45;&gt;src/storage/query&#45;types.ts</title>
<path fill="none" stroke="#528b8b" stroke-width="2" d="M324.29,-483.45C402,-484.94 536,-490.91 578.5,-514 596,-523.51 594.01,-533.48 606.5,-549 617.1,-562.16 628.93,-576.76 638.76,-588.87"/>
<polygon fill="#528b8b" stroke="#528b8b" stroke-width="2" points="636.19,-591.26 645.21,-596.82 641.62,-586.85 636.19,-591.26"/>
</g>
<!-- src/storage/storage&#45;async.ts&#45;&gt;src/storage/storage&#45;types.ts -->
<g id="edge32" class="edge">
<title>src/storage/storage&#45;async.ts&#45;&gt;src/storage/storage&#45;types.ts</title>
<path fill="none" stroke="#528b8b" stroke-width="2" d="M315.12,-501.11C333.14,-508.97 353.27,-519.12 370,-531 388.71,-544.29 387.85,-553.96 406,-568 417.33,-576.77 430.48,-585 442.9,-592.05"/>
<polygon fill="#528b8b" stroke="#528b8b" stroke-width="2" points="441.33,-595.18 451.78,-596.96 444.72,-589.06 441.33,-595.18"/>
</g>
<!-- src/storage/storage&#45;async.ts&#45;&gt;src/storage/util&#45;types.ts -->
<g id="edge30" class="edge">
<title>src/storage/storage&#45;async.ts&#45;&gt;src/storage/util&#45;types.ts</title>
<path fill="none" stroke="#528b8b" stroke-width="2" d="M324.26,-473.71C387.51,-465.41 491.88,-457.55 578.5,-479 594.68,-483.01 611.19,-490.87 625.08,-498.79"/>
<polygon fill="#528b8b" stroke="#528b8b" stroke-width="2" points="623.41,-501.88 633.8,-503.97 626.98,-495.86 623.41,-501.88"/>
</g>
<!-- src/storage/storage&#45;driver&#45;async&#45;memory.ts&#45;&gt;src/storage/compare.ts -->
<g id="edge38" class="edge">
<title>src/storage/storage&#45;driver&#45;async&#45;memory.ts&#45;&gt;src/storage/compare.ts</title>
<path fill="none" stroke="#528b8b" stroke-width="2" d="M303.08,-633.92C341.37,-614.73 401.96,-584.37 443.38,-563.61"/>
<polygon fill="#528b8b" stroke="#528b8b" stroke-width="2" points="445.06,-566.68 452.43,-559.07 441.93,-560.42 445.06,-566.68"/>
</g>
<!-- src/storage/storage&#45;driver&#45;async&#45;memory.ts&#45;&gt;src/storage/lock.ts -->
<g id="edge40" class="edge">
<title>src/storage/storage&#45;driver&#45;async&#45;memory.ts&#45;&gt;src/storage/lock.ts</title>
<path fill="none" stroke="#528b8b" stroke-width="2" d="M290.46,-670.18C316.85,-689.39 361.83,-718.45 406,-730 480.17,-749.39 503.1,-743.86 578.5,-730 593.72,-727.2 609.77,-721.7 623.57,-716.1"/>
<polygon fill="#528b8b" stroke="#528b8b" stroke-width="2" points="625.33,-719.15 633.18,-712.03 622.6,-712.71 625.33,-719.15"/>
</g>
<!-- src/storage/storage&#45;driver&#45;async&#45;memory.ts&#45;&gt;src/storage/query&#45;types.ts -->
<g id="edge36" class="edge">
<title>src/storage/storage&#45;driver&#45;async&#45;memory.ts&#45;&gt;src/storage/query&#45;types.ts</title>
<path fill="none" stroke="#528b8b" stroke-width="2" d="M296,-670.25C353.46,-703.88 484.37,-767.67 578.5,-716 598.82,-704.85 592.28,-690.31 606.5,-672 614.91,-661.17 625.01,-650.02 634.16,-640.48"/>
<polygon fill="#528b8b" stroke="#528b8b" stroke-width="2" points="636.77,-642.81 641.24,-633.21 631.75,-637.93 636.77,-642.81"/>
</g>
<!-- src/storage/storage&#45;driver&#45;async&#45;memory.ts&#45;&gt;src/storage/query.ts -->
<g id="edge39" class="edge">
<title>src/storage/storage&#45;driver&#45;async&#45;memory.ts&#45;&gt;src/storage/query.ts</title>
<path fill="none" stroke="#528b8b" stroke-width="2" d="M370.29,-669.25C397.55,-673.81 425.42,-678.46 447.25,-682.11"/>
<polygon fill="#528b8b" stroke="#528b8b" stroke-width="2" points="446.7,-685.57 457.14,-683.76 447.85,-678.66 446.7,-685.57"/>
</g>
<!-- src/storage/storage&#45;driver&#45;async&#45;memory.ts&#45;&gt;src/storage/storage&#45;types.ts -->
<g id="edge37" class="edge">
<title>src/storage/storage&#45;driver&#45;async&#45;memory.ts&#45;&gt;src/storage/storage&#45;types.ts</title>
<path fill="none" stroke="#528b8b" stroke-width="2" d="M370.29,-634.75C388.13,-631.77 406.23,-628.74 422.73,-625.99"/>
<polygon fill="#528b8b" stroke="#528b8b" stroke-width="2" points="423.49,-629.41 432.77,-624.31 422.33,-622.5 423.49,-629.41"/>
</g>
<!-- src/storage/storage&#45;driver&#45;async&#45;memory.ts&#45;&gt;src/storage/util&#45;types.ts -->
<g id="edge35" class="edge">
<title>src/storage/storage&#45;driver&#45;async&#45;memory.ts&#45;&gt;src/storage/util&#45;types.ts</title>
<path fill="none" stroke="#528b8b" stroke-width="2" d="M370.03,-659.64C447.14,-663.35 544.85,-663.2 578.5,-642 601.37,-627.59 591.69,-610.62 606.5,-588 615.63,-574.06 627.11,-559.58 637.1,-547.74"/>
<polygon fill="#528b8b" stroke="#528b8b" stroke-width="2" points="639.88,-549.88 643.73,-540.01 634.56,-545.32 639.88,-549.88"/>
</g>
<!-- src/storage/storage&#45;types.ts&#45;&gt;src/storage/lock.ts -->
<g id="edge42" class="edge">
<title>src/storage/storage&#45;types.ts&#45;&gt;src/storage/lock.ts</title>
<path fill="none" stroke="#528b8b" stroke-width="2" d="M526.86,-633.02C555.62,-647.27 595.54,-667.06 624.16,-681.24"/>
<polygon fill="#528b8b" stroke="#528b8b" stroke-width="2" points="622.88,-684.51 633.4,-685.82 625.99,-678.24 622.88,-684.51"/>
</g>
<!-- src/storage/storage&#45;types.ts&#45;&gt;src/storage/query&#45;types.ts -->
<g id="edge41" class="edge">
<title>src/storage/storage&#45;types.ts&#45;&gt;src/storage/query&#45;types.ts</title>
<path fill="none" stroke="#528b8b" stroke-width="2" d="M546,-615C563.35,-615 582.57,-615 600.2,-615"/>
<polygon fill="#528b8b" stroke="#528b8b" stroke-width="2" points="600.38,-618.5 610.38,-615 600.38,-611.5 600.38,-618.5"/>
</g>
</g>
</svg>
