<?xml version="1.0" encoding="UTF-8" standalone="no"?>
<!DOCTYPE svg PUBLIC "-//W3C//DTD SVG 1.1//EN"
 "http://www.w3.org/Graphics/SVG/1.1/DTD/svg11.dtd">
<!-- Generated by graphviz version 2.44.1 (20200629.0846)
 -->
<!-- Title: G Pages: 1 -->
<svg width="1126pt" height="1338pt"
 viewBox="0.00 0.00 1126.00 1338.33" xmlns="http://www.w3.org/2000/svg" xmlns:xlink="http://www.w3.org/1999/xlink">
<g id="graph0" class="graph" transform="scale(1 1) rotate(0) translate(4 1334.33)">
<title>G</title>
<polygon fill="white" stroke="transparent" points="-4,4 -4,-1334.33 1122,-1334.33 1122,4 -4,4"/>
<g id="clust3" class="cluster">
<title>cluster4963276430</title>
<path fill="bisque" stroke="#8b7d6b" stroke-width="2" d="M618.5,-568.33C618.5,-568.33 968,-568.33 968,-568.33 974,-568.33 980,-574.33 980,-580.33 980,-580.33 980,-631.33 980,-631.33 980,-637.33 974,-643.33 968,-643.33 968,-643.33 618.5,-643.33 618.5,-643.33 612.5,-643.33 606.5,-637.33 606.5,-631.33 606.5,-631.33 606.5,-580.33 606.5,-580.33 606.5,-574.33 612.5,-568.33 618.5,-568.33"/>
<text text-anchor="start" x="737.25" y="-629.13" font-family="Helvetica,sans-Serif" font-weight="bold" font-size="14.00">format&#45;validators</text>
</g>
<g id="clust2" class="cluster">
<title>cluster2665625277</title>
<path fill="bisque" stroke="#8b7d6b" stroke-width="2" d="M437,-847.33C437,-847.33 939,-847.33 939,-847.33 945,-847.33 951,-853.33 951,-859.33 951,-859.33 951,-1112.33 951,-1112.33 951,-1118.33 945,-1124.33 939,-1124.33 939,-1124.33 437,-1124.33 437,-1124.33 431,-1124.33 425,-1118.33 425,-1112.33 425,-1112.33 425,-859.33 425,-859.33 425,-853.33 431,-847.33 437,-847.33"/>
<text text-anchor="start" x="667" y="-1110.13" font-family="Helvetica,sans-Serif" font-weight="bold" font-size="14.00">crypto</text>
</g>
<g id="clust4" class="cluster">
<title>cluster5016901172</title>
<path fill="bisque" stroke="#8b7d6b" stroke-width="2" d="M201.5,-536.33C201.5,-536.33 510.5,-536.33 510.5,-536.33 516.5,-536.33 522.5,-542.33 522.5,-548.33 522.5,-548.33 522.5,-707.33 522.5,-707.33 522.5,-713.33 516.5,-719.33 510.5,-719.33 510.5,-719.33 201.5,-719.33 201.5,-719.33 195.5,-719.33 189.5,-713.33 189.5,-707.33 189.5,-707.33 189.5,-548.33 189.5,-548.33 189.5,-542.33 195.5,-536.33 201.5,-536.33"/>
<text text-anchor="start" x="341.5" y="-705.13" font-family="Helvetica,sans-Serif" font-weight="bold" font-size="14.00">peer</text>
</g>
<g id="clust5" class="cluster">
<title>cluster5054336180</title>
<path fill="bisque" stroke="#8b7d6b" stroke-width="2" d="M20,-185.33C20,-185.33 937.5,-185.33 937.5,-185.33 943.5,-185.33 949.5,-191.33 949.5,-197.33 949.5,-197.33 949.5,-516.33 949.5,-516.33 949.5,-522.33 943.5,-528.33 937.5,-528.33 937.5,-528.33 20,-528.33 20,-528.33 14,-528.33 8,-522.33 8,-516.33 8,-516.33 8,-197.33 8,-197.33 8,-191.33 14,-185.33 20,-185.33"/>
<text text-anchor="start" x="454.25" y="-514.13" font-family="Helvetica,sans-Serif" font-weight="bold" font-size="14.00">storage</text>
</g>
<g id="clust1" class="cluster">
<title>cluster1972685206</title>
<path fill="bisque" stroke="#8b7d6b" stroke-width="2" d="M848.5,-660.33C848.5,-660.33 1098,-660.33 1098,-660.33 1104,-660.33 1110,-666.33 1110,-672.33 1110,-672.33 1110,-777.33 1110,-777.33 1110,-783.33 1104,-789.33 1098,-789.33 1098,-789.33 848.5,-789.33 848.5,-789.33 842.5,-789.33 836.5,-783.33 836.5,-777.33 836.5,-777.33 836.5,-672.33 836.5,-672.33 836.5,-666.33 842.5,-660.33 848.5,-660.33"/>
<text text-anchor="start" x="924.75" y="-775.13" font-family="Helvetica,sans-Serif" font-weight="bold" font-size="14.00">core&#45;validators</text>
</g>
<!-- src/example&#45;app.ts -->
<g id="node1" class="node">
<title>src/example&#45;app.ts</title>
<path fill="#79cdcd" stroke="#79cdcd" d="M117,-634.33C117,-634.33 31,-634.33 31,-634.33 25,-634.33 19,-628.33 19,-622.33 19,-622.33 19,-610.33 19,-610.33 19,-604.33 25,-598.33 31,-598.33 31,-598.33 117,-598.33 117,-598.33 123,-598.33 129,-604.33 129,-610.33 129,-610.33 129,-622.33 129,-622.33 129,-628.33 123,-634.33 117,-634.33"/>
<text text-anchor="middle" x="74" y="-612.63" font-family="Helvetica,sans-Serif" font-size="14.00">example&#45;app.ts</text>
</g>
<!-- src/crypto/crypto&#45;driver&#45;tweetnacl.ts -->
<g id="node8" class="node">
<title>src/crypto/crypto&#45;driver&#45;tweetnacl.ts</title>
<path fill="#79cdcd" stroke="#79cdcd" d="M762,-985.33C762,-985.33 619,-985.33 619,-985.33 613,-985.33 607,-979.33 607,-973.33 607,-973.33 607,-961.33 607,-961.33 607,-955.33 613,-949.33 619,-949.33 619,-949.33 762,-949.33 762,-949.33 768,-949.33 774,-955.33 774,-961.33 774,-961.33 774,-973.33 774,-973.33 774,-979.33 768,-985.33 762,-985.33"/>
<text text-anchor="middle" x="690.5" y="-963.63" font-family="Helvetica,sans-Serif" font-size="14.00">crypto&#45;driver&#45;tweetnacl.ts</text>
</g>
<!-- src/example&#45;app.ts&#45;&gt;src/crypto/crypto&#45;driver&#45;tweetnacl.ts -->
<g id="edge17" class="edge">
<title>src/example&#45;app.ts&#45;&gt;src/crypto/crypto&#45;driver&#45;tweetnacl.ts</title>
<path fill="none" stroke="#528b8b" stroke-width="2" d="M75.45,-634.53C77.71,-682.95 90.98,-815.63 168,-880.33 288.75,-981.77 482.33,-986.24 596.58,-978.2"/>
<polygon fill="#528b8b" stroke="#528b8b" stroke-width="2" points="596.99,-981.68 606.7,-977.45 596.47,-974.7 596.99,-981.68"/>
</g>
<!-- src/crypto/crypto.ts -->
<g id="node10" class="node">
<title>src/crypto/crypto.ts</title>
<path fill="#79cdcd" stroke="#79cdcd" d="M489,-893.33C489,-893.33 445,-893.33 445,-893.33 439,-893.33 433,-887.33 433,-881.33 433,-881.33 433,-869.33 433,-869.33 433,-863.33 439,-857.33 445,-857.33 445,-857.33 489,-857.33 489,-857.33 495,-857.33 501,-863.33 501,-869.33 501,-869.33 501,-881.33 501,-881.33 501,-887.33 495,-893.33 489,-893.33"/>
<text text-anchor="middle" x="467" y="-871.63" font-family="Helvetica,sans-Serif" font-size="14.00">crypto.ts</text>
</g>
<!-- src/example&#45;app.ts&#45;&gt;src/crypto/crypto.ts -->
<g id="edge16" class="edge">
<title>src/example&#45;app.ts&#45;&gt;src/crypto/crypto.ts</title>
<path fill="none" stroke="#528b8b" stroke-width="2" d="M76.39,-634.49C80.82,-678.53 98.72,-791.26 168,-843.33 242.87,-899.59 359.76,-892.56 422.58,-883.43"/>
<polygon fill="#528b8b" stroke="#528b8b" stroke-width="2" points="423.2,-886.87 432.55,-881.89 422.13,-879.95 423.2,-886.87"/>
</g>
<!-- src/format&#45;validators/format&#45;validator&#45;es4.ts -->
<g id="node12" class="node">
<title>src/format&#45;validators/format&#45;validator&#45;es4.ts</title>
<path fill="#79cdcd" stroke="#79cdcd" d="M754.5,-612.33C754.5,-612.33 626.5,-612.33 626.5,-612.33 620.5,-612.33 614.5,-606.33 614.5,-600.33 614.5,-600.33 614.5,-588.33 614.5,-588.33 614.5,-582.33 620.5,-576.33 626.5,-576.33 626.5,-576.33 754.5,-576.33 754.5,-576.33 760.5,-576.33 766.5,-582.33 766.5,-588.33 766.5,-588.33 766.5,-600.33 766.5,-600.33 766.5,-606.33 760.5,-612.33 754.5,-612.33"/>
<text text-anchor="middle" x="690.5" y="-590.63" font-family="Helvetica,sans-Serif" font-size="14.00">format&#45;validator&#45;es4.ts</text>
</g>
<!-- src/example&#45;app.ts&#45;&gt;src/format&#45;validators/format&#45;validator&#45;es4.ts -->
<g id="edge13" class="edge">
<title>src/example&#45;app.ts&#45;&gt;src/format&#45;validators/format&#45;validator&#45;es4.ts</title>
<path fill="none" stroke="#528b8b" stroke-width="2" d="M85.76,-634.51C100.97,-658.59 131.09,-700.66 168,-723.33 321.75,-817.75 411.95,-857.52 571,-772.33 630.71,-740.35 665.5,-663.54 680.56,-622.04"/>
<polygon fill="#528b8b" stroke="#528b8b" stroke-width="2" points="683.89,-623.14 683.89,-612.55 677.28,-620.83 683.89,-623.14"/>
</g>
<!-- src/peer/peer.ts -->
<g id="node17" class="node">
<title>src/peer/peer.ts</title>
<path fill="#79cdcd" stroke="#79cdcd" d="M264.5,-634.33C264.5,-634.33 230.5,-634.33 230.5,-634.33 224.5,-634.33 218.5,-628.33 218.5,-622.33 218.5,-622.33 218.5,-610.33 218.5,-610.33 218.5,-604.33 224.5,-598.33 230.5,-598.33 230.5,-598.33 264.5,-598.33 264.5,-598.33 270.5,-598.33 276.5,-604.33 276.5,-610.33 276.5,-610.33 276.5,-622.33 276.5,-622.33 276.5,-628.33 270.5,-634.33 264.5,-634.33"/>
<text text-anchor="middle" x="247.5" y="-612.63" font-family="Helvetica,sans-Serif" font-size="14.00">peer.ts</text>
</g>
<!-- src/example&#45;app.ts&#45;&gt;src/peer/peer.ts -->
<g id="edge19" class="edge">
<title>src/example&#45;app.ts&#45;&gt;src/peer/peer.ts</title>
<path fill="none" stroke="#528b8b" stroke-width="2" d="M129.26,-616.33C154.96,-616.33 185.05,-616.33 208.3,-616.33"/>
<polygon fill="#528b8b" stroke="#528b8b" stroke-width="2" points="208.47,-619.83 218.47,-616.33 208.47,-612.83 208.47,-619.83"/>
</g>
<!-- src/storage/query&#45;follower.ts -->
<g id="node21" class="node">
<title>src/storage/query&#45;follower.ts</title>
<path fill="#79cdcd" stroke="#79cdcd" d="M293.5,-290.33C293.5,-290.33 201.5,-290.33 201.5,-290.33 195.5,-290.33 189.5,-284.33 189.5,-278.33 189.5,-278.33 189.5,-266.33 189.5,-266.33 189.5,-260.33 195.5,-254.33 201.5,-254.33 201.5,-254.33 293.5,-254.33 293.5,-254.33 299.5,-254.33 305.5,-260.33 305.5,-266.33 305.5,-266.33 305.5,-278.33 305.5,-278.33 305.5,-284.33 299.5,-290.33 293.5,-290.33"/>
<text text-anchor="middle" x="247.5" y="-268.63" font-family="Helvetica,sans-Serif" font-size="14.00">query&#45;follower.ts</text>
</g>
<!-- src/example&#45;app.ts&#45;&gt;src/storage/query&#45;follower.ts -->
<g id="edge18" class="edge">
<title>src/example&#45;app.ts&#45;&gt;src/storage/query&#45;follower.ts</title>
<path fill="none" stroke="#528b8b" stroke-width="2" d="M88.68,-598.26C100.9,-581.65 118.86,-556.08 132,-532.33 177.04,-450.95 217.86,-348.38 236.23,-300"/>
<polygon fill="#528b8b" stroke="#528b8b" stroke-width="2" points="239.55,-301.11 239.81,-290.52 233,-298.64 239.55,-301.11"/>
</g>
<!-- src/storage/storage&#45;async.ts -->
<g id="node24" class="node">
<title>src/storage/storage&#45;async.ts</title>
<path fill="#79cdcd" stroke="#79cdcd" d="M513,-477.33C513,-477.33 421,-477.33 421,-477.33 415,-477.33 409,-471.33 409,-465.33 409,-465.33 409,-453.33 409,-453.33 409,-447.33 415,-441.33 421,-441.33 421,-441.33 513,-441.33 513,-441.33 519,-441.33 525,-447.33 525,-453.33 525,-453.33 525,-465.33 525,-465.33 525,-471.33 519,-477.33 513,-477.33"/>
<text text-anchor="middle" x="467" y="-455.63" font-family="Helvetica,sans-Serif" font-size="14.00">storage&#45;async.ts</text>
</g>
<!-- src/example&#45;app.ts&#45;&gt;src/storage/storage&#45;async.ts -->
<g id="edge15" class="edge">
<title>src/example&#45;app.ts&#45;&gt;src/storage/storage&#45;async.ts</title>
<path fill="none" stroke="#528b8b" stroke-width="2" d="M90.19,-598.06C107.17,-578.82 136.47,-549.04 168,-532.33 178.31,-526.86 314.25,-494.65 398.92,-474.89"/>
<polygon fill="#528b8b" stroke="#528b8b" stroke-width="2" points="399.78,-478.28 408.72,-472.6 398.19,-471.46 399.78,-478.28"/>
</g>
<!-- src/storage/storage&#45;driver&#45;async&#45;memory.ts -->
<g id="node26" class="node">
<title>src/storage/storage&#45;driver&#45;async&#45;memory.ts</title>
<path fill="#79cdcd" stroke="#79cdcd" d="M559,-363.33C559,-363.33 375,-363.33 375,-363.33 369,-363.33 363,-357.33 363,-351.33 363,-351.33 363,-339.33 363,-339.33 363,-333.33 369,-327.33 375,-327.33 375,-327.33 559,-327.33 559,-327.33 565,-327.33 571,-333.33 571,-339.33 571,-339.33 571,-351.33 571,-351.33 571,-357.33 565,-363.33 559,-363.33"/>
<text text-anchor="middle" x="467" y="-341.63" font-family="Helvetica,sans-Serif" font-size="14.00">storage&#45;driver&#45;async&#45;memory.ts</text>
</g>
<!-- src/example&#45;app.ts&#45;&gt;src/storage/storage&#45;driver&#45;async&#45;memory.ts -->
<g id="edge14" class="edge">
<title>src/example&#45;app.ts&#45;&gt;src/storage/storage&#45;driver&#45;async&#45;memory.ts</title>
<path fill="none" stroke="#528b8b" stroke-width="2" d="M87.04,-597.84C107.41,-566.97 148.35,-506.68 168,-490.33 238.36,-431.79 336.35,-390.02 400.46,-366.77"/>
<polygon fill="#528b8b" stroke="#528b8b" stroke-width="2" points="401.82,-370 410.06,-363.34 399.46,-363.41 401.82,-370"/>
</g>
<!-- src/core&#45;validators/addresses.ts -->
<g id="node2" class="node">
<title>src/core&#45;validators/addresses.ts</title>
<path fill="#79cdcd" stroke="#79cdcd" d="M925.5,-758.33C925.5,-758.33 856.5,-758.33 856.5,-758.33 850.5,-758.33 844.5,-752.33 844.5,-746.33 844.5,-746.33 844.5,-734.33 844.5,-734.33 844.5,-728.33 850.5,-722.33 856.5,-722.33 856.5,-722.33 925.5,-722.33 925.5,-722.33 931.5,-722.33 937.5,-728.33 937.5,-734.33 937.5,-734.33 937.5,-746.33 937.5,-746.33 937.5,-752.33 931.5,-758.33 925.5,-758.33"/>
<text text-anchor="middle" x="891" y="-736.63" font-family="Helvetica,sans-Serif" font-size="14.00">addresses.ts</text>
</g>
<!-- src/core&#45;validators/characters.ts -->
<g id="node3" class="node">
<title>src/core&#45;validators/characters.ts</title>
<path fill="#79cdcd" stroke="#79cdcd" d="M1090,-704.33C1090,-704.33 1020,-704.33 1020,-704.33 1014,-704.33 1008,-698.33 1008,-692.33 1008,-692.33 1008,-680.33 1008,-680.33 1008,-674.33 1014,-668.33 1020,-668.33 1020,-668.33 1090,-668.33 1090,-668.33 1096,-668.33 1102,-674.33 1102,-680.33 1102,-680.33 1102,-692.33 1102,-692.33 1102,-698.33 1096,-704.33 1090,-704.33"/>
<text text-anchor="middle" x="1055" y="-682.63" font-family="Helvetica,sans-Serif" font-size="14.00">characters.ts</text>
</g>
<!-- src/core&#45;validators/addresses.ts&#45;&gt;src/core&#45;validators/characters.ts -->
<g id="edge1" class="edge">
<title>src/core&#45;validators/addresses.ts&#45;&gt;src/core&#45;validators/characters.ts</title>
<path fill="none" stroke="#528b8b" stroke-width="2" d="M937.82,-726.77C951.44,-722.6 966.36,-717.91 980,-713.33 985.96,-711.33 992.16,-709.18 998.32,-707"/>
<polygon fill="#528b8b" stroke="#528b8b" stroke-width="2" points="999.71,-710.22 1007.95,-703.56 997.35,-703.63 999.71,-710.22"/>
</g>
<!-- src/core&#45;validators/checkers.ts -->
<g id="node4" class="node">
<title>src/core&#45;validators/checkers.ts</title>
<path fill="#79cdcd" stroke="#79cdcd" d="M921.5,-704.33C921.5,-704.33 860.5,-704.33 860.5,-704.33 854.5,-704.33 848.5,-698.33 848.5,-692.33 848.5,-692.33 848.5,-680.33 848.5,-680.33 848.5,-674.33 854.5,-668.33 860.5,-668.33 860.5,-668.33 921.5,-668.33 921.5,-668.33 927.5,-668.33 933.5,-674.33 933.5,-680.33 933.5,-680.33 933.5,-692.33 933.5,-692.33 933.5,-698.33 927.5,-704.33 921.5,-704.33"/>
<text text-anchor="middle" x="891" y="-682.63" font-family="Helvetica,sans-Serif" font-size="14.00">checkers.ts</text>
</g>
<!-- src/core&#45;validators/checkers.ts&#45;&gt;src/core&#45;validators/characters.ts -->
<g id="edge2" class="edge">
<title>src/core&#45;validators/checkers.ts&#45;&gt;src/core&#45;validators/characters.ts</title>
<path fill="none" stroke="#528b8b" stroke-width="2" d="M933.72,-686.33C953.22,-686.33 976.72,-686.33 997.76,-686.33"/>
<polygon fill="#528b8b" stroke="#528b8b" stroke-width="2" points="997.86,-689.83 1007.86,-686.33 997.86,-682.83 997.86,-689.83"/>
</g>
<!-- src/crypto/base32.ts -->
<g id="node5" class="node">
<title>src/crypto/base32.ts</title>
<path fill="#79cdcd" stroke="#79cdcd" d="M916.5,-946.33C916.5,-946.33 865.5,-946.33 865.5,-946.33 859.5,-946.33 853.5,-940.33 853.5,-934.33 853.5,-934.33 853.5,-922.33 853.5,-922.33 853.5,-916.33 859.5,-910.33 865.5,-910.33 865.5,-910.33 916.5,-910.33 916.5,-910.33 922.5,-910.33 928.5,-916.33 928.5,-922.33 928.5,-922.33 928.5,-934.33 928.5,-934.33 928.5,-940.33 922.5,-946.33 916.5,-946.33"/>
<text text-anchor="middle" x="891" y="-924.63" font-family="Helvetica,sans-Serif" font-size="14.00">base32.ts</text>
</g>
<!-- rfc4648 -->
<g id="node29" class="node">
<title>rfc4648</title>
<polygon fill="#cdc8b1" stroke="#8b8878" points="1086,-946.33 1028,-946.33 1024,-942.33 1024,-910.33 1082,-910.33 1086,-914.33 1086,-946.33"/>
<polyline fill="none" stroke="#8b8878" points="1082,-942.33 1024,-942.33 "/>
<polyline fill="none" stroke="#8b8878" points="1082,-942.33 1082,-910.33 "/>
<polyline fill="none" stroke="#8b8878" points="1082,-942.33 1086,-946.33 "/>
<text text-anchor="middle" x="1055" y="-924.63" font-family="Helvetica,sans-Serif" font-size="14.00">rfc4648</text>
</g>
<!-- src/crypto/base32.ts&#45;&gt;rfc4648 -->
<g id="edge64" class="edge">
<title>src/crypto/base32.ts&#45;&gt;rfc4648</title>
<path fill="none" stroke="#8b8878" stroke-width="1.5" stroke-dasharray="5,2" d="M928.76,-928.33C954.03,-928.33 987.59,-928.33 1013.61,-928.33"/>
<polygon fill="#8b8878" stroke="#8b8878" stroke-width="1.5" points="1013.89,-931.83 1023.89,-928.33 1013.89,-924.83 1013.89,-931.83"/>
</g>
<!-- src/crypto/crypto&#45;driver&#45;chloride.ts -->
<g id="node6" class="node">
<title>src/crypto/crypto&#45;driver&#45;chloride.ts</title>
<path fill="#79cdcd" stroke="#79cdcd" d="M757.5,-1093.33C757.5,-1093.33 623.5,-1093.33 623.5,-1093.33 617.5,-1093.33 611.5,-1087.33 611.5,-1081.33 611.5,-1081.33 611.5,-1069.33 611.5,-1069.33 611.5,-1063.33 617.5,-1057.33 623.5,-1057.33 623.5,-1057.33 757.5,-1057.33 757.5,-1057.33 763.5,-1057.33 769.5,-1063.33 769.5,-1069.33 769.5,-1069.33 769.5,-1081.33 769.5,-1081.33 769.5,-1087.33 763.5,-1093.33 757.5,-1093.33"/>
<text text-anchor="middle" x="690.5" y="-1071.63" font-family="Helvetica,sans-Serif" font-size="14.00">crypto&#45;driver&#45;chloride.ts</text>
</g>
<!-- src/crypto/crypto&#45;types.ts -->
<g id="node9" class="node">
<title>src/crypto/crypto&#45;types.ts</title>
<path fill="#79cdcd" stroke="#79cdcd" d="M931,-891.33C931,-891.33 851,-891.33 851,-891.33 845,-891.33 839,-885.33 839,-879.33 839,-879.33 839,-867.33 839,-867.33 839,-861.33 845,-855.33 851,-855.33 851,-855.33 931,-855.33 931,-855.33 937,-855.33 943,-861.33 943,-867.33 943,-867.33 943,-879.33 943,-879.33 943,-885.33 937,-891.33 931,-891.33"/>
<text text-anchor="middle" x="891" y="-869.63" font-family="Helvetica,sans-Serif" font-size="14.00">crypto&#45;types.ts</text>
</g>
<!-- src/crypto/crypto&#45;driver&#45;chloride.ts&#45;&gt;src/crypto/crypto&#45;types.ts -->
<g id="edge3" class="edge">
<title>src/crypto/crypto&#45;driver&#45;chloride.ts&#45;&gt;src/crypto/crypto&#45;types.ts</title>
<path fill="none" stroke="#528b8b" stroke-width="2" d="M763.68,-1057.11C767.44,-1054.56 770.93,-1051.65 774,-1048.33 819.72,-998.99 764.79,-951.13 810,-901.33 815.42,-895.36 822.2,-890.66 829.49,-886.96"/>
<polygon fill="#528b8b" stroke="#528b8b" stroke-width="2" points="831.21,-890.03 838.94,-882.79 828.38,-883.62 831.21,-890.03"/>
</g>
<!-- chloride -->
<g id="node30" class="node">
<title>chloride</title>
<polygon fill="#cdc8b1" stroke="#8b8878" points="923,-1330.33 863,-1330.33 859,-1326.33 859,-1294.33 919,-1294.33 923,-1298.33 923,-1330.33"/>
<polyline fill="none" stroke="#8b8878" points="919,-1326.33 859,-1326.33 "/>
<polyline fill="none" stroke="#8b8878" points="919,-1326.33 919,-1294.33 "/>
<polyline fill="none" stroke="#8b8878" points="919,-1326.33 923,-1330.33 "/>
<text text-anchor="middle" x="891" y="-1308.63" font-family="Helvetica,sans-Serif" font-size="14.00">chloride</text>
</g>
<!-- src/crypto/crypto&#45;driver&#45;chloride.ts&#45;&gt;chloride -->
<g id="edge65" class="edge">
<title>src/crypto/crypto&#45;driver&#45;chloride.ts&#45;&gt;chloride</title>
<path fill="none" stroke="#8b8878" stroke-width="1.5" stroke-dasharray="5,2" d="M696.77,-1093.42C709.45,-1133.81 745.5,-1231.96 810,-1285.33 821.18,-1294.58 835.67,-1300.71 849.24,-1304.76"/>
<polygon fill="#8b8878" stroke="#8b8878" stroke-width="1.5" points="848.34,-1308.14 858.91,-1307.35 850.15,-1301.38 848.34,-1308.14"/>
</g>
<!-- src/crypto/crypto&#45;driver&#45;node.ts -->
<g id="node7" class="node">
<title>src/crypto/crypto&#45;driver&#45;node.ts</title>
<path fill="#79cdcd" stroke="#79cdcd" d="M748.5,-1039.33C748.5,-1039.33 632.5,-1039.33 632.5,-1039.33 626.5,-1039.33 620.5,-1033.33 620.5,-1027.33 620.5,-1027.33 620.5,-1015.33 620.5,-1015.33 620.5,-1009.33 626.5,-1003.33 632.5,-1003.33 632.5,-1003.33 748.5,-1003.33 748.5,-1003.33 754.5,-1003.33 760.5,-1009.33 760.5,-1015.33 760.5,-1015.33 760.5,-1027.33 760.5,-1027.33 760.5,-1033.33 754.5,-1039.33 748.5,-1039.33"/>
<text text-anchor="middle" x="690.5" y="-1017.63" font-family="Helvetica,sans-Serif" font-size="14.00">crypto&#45;driver&#45;node.ts</text>
</g>
<!-- src/crypto/crypto&#45;driver&#45;node.ts&#45;&gt;src/crypto/crypto&#45;types.ts -->
<g id="edge4" class="edge">
<title>src/crypto/crypto&#45;driver&#45;node.ts&#45;&gt;src/crypto/crypto&#45;types.ts</title>
<path fill="none" stroke="#528b8b" stroke-width="2" d="M760.84,-1004.05C765.6,-1001.28 770.06,-998.06 774,-994.33 806.16,-963.83 778.15,-932.16 810,-901.33 815.65,-895.86 822.43,-891.46 829.61,-887.91"/>
<polygon fill="#528b8b" stroke="#528b8b" stroke-width="2" points="831.12,-891.07 838.88,-883.86 828.32,-884.66 831.12,-891.07"/>
</g>
<!-- crypto -->
<g id="node31" class="node">
<title>crypto</title>
<polygon fill="#cdc8b1" stroke="#8b8878" points="918,-1276.33 868,-1276.33 864,-1272.33 864,-1240.33 914,-1240.33 918,-1244.33 918,-1276.33"/>
<polyline fill="none" stroke="#8b8878" points="914,-1272.33 864,-1272.33 "/>
<polyline fill="none" stroke="#8b8878" points="914,-1272.33 914,-1240.33 "/>
<polyline fill="none" stroke="#8b8878" points="914,-1272.33 918,-1276.33 "/>
<text text-anchor="middle" x="891" y="-1254.63" font-family="Helvetica,sans-Serif" font-size="14.00">crypto</text>
</g>
<!-- src/crypto/crypto&#45;driver&#45;node.ts&#45;&gt;crypto -->
<g id="edge66" class="edge">
<title>src/crypto/crypto&#45;driver&#45;node.ts&#45;&gt;crypto</title>
<path fill="none" stroke="#8b8878" stroke-width="1.5" stroke-dasharray="5,2" d="M760.83,-1037.39C765.72,-1040.43 770.21,-1044.04 774,-1048.33 828.93,-1110.41 755.36,-1169 810,-1231.33 821.1,-1243.99 838.34,-1250.73 853.98,-1254.3"/>
<polygon fill="#8b8878" stroke="#8b8878" stroke-width="1.5" points="853.46,-1257.77 863.94,-1256.23 854.79,-1250.9 853.46,-1257.77"/>
</g>
<!-- src/crypto/crypto&#45;driver&#45;tweetnacl.ts&#45;&gt;src/crypto/crypto&#45;types.ts -->
<g id="edge5" class="edge">
<title>src/crypto/crypto&#45;driver&#45;tweetnacl.ts&#45;&gt;src/crypto/crypto&#45;types.ts</title>
<path fill="none" stroke="#528b8b" stroke-width="2" d="M720.96,-949.05C744.51,-934.91 778.64,-915.43 810,-901.33 816.13,-898.58 822.62,-895.91 829.15,-893.39"/>
<polygon fill="#528b8b" stroke="#528b8b" stroke-width="2" points="830.56,-896.6 838.7,-889.82 828.11,-890.05 830.56,-896.6"/>
</g>
<!-- tweetnacl -->
<g id="node32" class="node">
<title>tweetnacl</title>
<polygon fill="#cdc8b1" stroke="#8b8878" points="928,-1222.33 858,-1222.33 854,-1218.33 854,-1186.33 924,-1186.33 928,-1190.33 928,-1222.33"/>
<polyline fill="none" stroke="#8b8878" points="924,-1218.33 854,-1218.33 "/>
<polyline fill="none" stroke="#8b8878" points="924,-1218.33 924,-1186.33 "/>
<polyline fill="none" stroke="#8b8878" points="924,-1218.33 928,-1222.33 "/>
<text text-anchor="middle" x="891" y="-1200.63" font-family="Helvetica,sans-Serif" font-size="14.00">tweetnacl</text>
</g>
<!-- src/crypto/crypto&#45;driver&#45;tweetnacl.ts&#45;&gt;tweetnacl -->
<g id="edge67" class="edge">
<title>src/crypto/crypto&#45;driver&#45;tweetnacl.ts&#45;&gt;tweetnacl</title>
<path fill="none" stroke="#8b8878" stroke-width="1.5" stroke-dasharray="5,2" d="M763.86,-985.39C767.58,-987.98 771,-990.95 774,-994.33 828.93,-1056.41 755.36,-1115 810,-1177.33 818.69,-1187.25 831.15,-1193.53 843.66,-1197.5"/>
<polygon fill="#8b8878" stroke="#8b8878" stroke-width="1.5" points="843.06,-1200.97 853.63,-1200.22 844.91,-1194.22 843.06,-1200.97"/>
</g>
<!-- sha256&#45;uint8array -->
<g id="node33" class="node">
<title>sha256&#45;uint8array</title>
<polygon fill="#cdc8b1" stroke="#8b8878" points="953.5,-1168.33 832.5,-1168.33 828.5,-1164.33 828.5,-1132.33 949.5,-1132.33 953.5,-1136.33 953.5,-1168.33"/>
<polyline fill="none" stroke="#8b8878" points="949.5,-1164.33 828.5,-1164.33 "/>
<polyline fill="none" stroke="#8b8878" points="949.5,-1164.33 949.5,-1132.33 "/>
<polyline fill="none" stroke="#8b8878" points="949.5,-1164.33 953.5,-1168.33 "/>
<text text-anchor="middle" x="891" y="-1146.63" font-family="Helvetica,sans-Serif" font-size="14.00">sha256&#45;uint8array</text>
</g>
<!-- src/crypto/crypto&#45;driver&#45;tweetnacl.ts&#45;&gt;sha256&#45;uint8array -->
<g id="edge68" class="edge">
<title>src/crypto/crypto&#45;driver&#45;tweetnacl.ts&#45;&gt;sha256&#45;uint8array</title>
<path fill="none" stroke="#8b8878" stroke-width="1.5" stroke-dasharray="5,2" d="M763.22,-985.38C767.14,-987.97 770.79,-990.94 774,-994.33 816.42,-1039.09 766.52,-1084.6 810,-1128.33 812.83,-1131.18 816,-1133.67 819.39,-1135.84"/>
<polygon fill="#8b8878" stroke="#8b8878" stroke-width="1.5" points="817.76,-1138.94 828.22,-1140.63 821.09,-1132.79 817.76,-1138.94"/>
</g>
<!-- src/crypto/crypto.ts&#45;&gt;src/core&#45;validators/addresses.ts -->
<g id="edge9" class="edge">
<title>src/crypto/crypto.ts&#45;&gt;src/core&#45;validators/addresses.ts</title>
<path fill="none" stroke="#528b8b" stroke-width="2" d="M501.43,-865.05C521.6,-858.82 547.79,-850.68 571,-843.33 663.56,-814.01 770.95,-779.17 834.54,-758.45"/>
<polygon fill="#528b8b" stroke="#528b8b" stroke-width="2" points="835.93,-761.67 844.36,-755.24 833.76,-755.02 835.93,-761.67"/>
</g>
<!-- src/crypto/crypto.ts&#45;&gt;src/crypto/base32.ts -->
<g id="edge7" class="edge">
<title>src/crypto/crypto.ts&#45;&gt;src/crypto/base32.ts</title>
<path fill="none" stroke="#528b8b" stroke-width="2" d="M501.03,-884.47C528.92,-891.82 570.02,-901.8 606.5,-907.33 689.19,-919.87 786.62,-925.01 843.05,-927.05"/>
<polygon fill="#528b8b" stroke="#528b8b" stroke-width="2" points="842.99,-930.55 853.1,-927.4 843.23,-923.56 842.99,-930.55"/>
</g>
<!-- src/crypto/crypto.ts&#45;&gt;src/crypto/crypto&#45;types.ts -->
<g id="edge6" class="edge">
<title>src/crypto/crypto.ts&#45;&gt;src/crypto/crypto&#45;types.ts</title>
<path fill="none" stroke="#528b8b" stroke-width="2" d="M501.08,-883.02C528.99,-889.1 570.12,-897.07 606.5,-900.33 680.65,-906.97 700.04,-908.83 774,-900.33 791.94,-898.27 811.15,-894.47 828.67,-890.36"/>
<polygon fill="#528b8b" stroke="#528b8b" stroke-width="2" points="829.87,-893.67 838.76,-887.92 828.22,-886.87 829.87,-893.67"/>
</g>
<!-- src/crypto/keypair.ts -->
<g id="node11" class="node">
<title>src/crypto/keypair.ts</title>
<path fill="#79cdcd" stroke="#79cdcd" d="M715.5,-891.33C715.5,-891.33 665.5,-891.33 665.5,-891.33 659.5,-891.33 653.5,-885.33 653.5,-879.33 653.5,-879.33 653.5,-867.33 653.5,-867.33 653.5,-861.33 659.5,-855.33 665.5,-855.33 665.5,-855.33 715.5,-855.33 715.5,-855.33 721.5,-855.33 727.5,-861.33 727.5,-867.33 727.5,-867.33 727.5,-879.33 727.5,-879.33 727.5,-885.33 721.5,-891.33 715.5,-891.33"/>
<text text-anchor="middle" x="690.5" y="-869.63" font-family="Helvetica,sans-Serif" font-size="14.00">keypair.ts</text>
</g>
<!-- src/crypto/crypto.ts&#45;&gt;src/crypto/keypair.ts -->
<g id="edge8" class="edge">
<title>src/crypto/crypto.ts&#45;&gt;src/crypto/keypair.ts</title>
<path fill="none" stroke="#528b8b" stroke-width="2" d="M501.16,-875.03C538.85,-874.69 600.62,-874.13 643.08,-873.75"/>
<polygon fill="#528b8b" stroke="#528b8b" stroke-width="2" points="643.19,-877.25 653.16,-873.66 643.13,-870.25 643.19,-877.25"/>
</g>
<!-- src/crypto/keypair.ts&#45;&gt;src/core&#45;validators/addresses.ts -->
<g id="edge12" class="edge">
<title>src/crypto/keypair.ts&#45;&gt;src/core&#45;validators/addresses.ts</title>
<path fill="none" stroke="#528b8b" stroke-width="2" d="M727.69,-862.36C742.58,-857.07 759.67,-849.99 774,-841.33 809.12,-820.13 843.86,-788 866.04,-765.69"/>
<polygon fill="#528b8b" stroke="#528b8b" stroke-width="2" points="868.55,-768.13 873.06,-758.54 863.55,-763.22 868.55,-768.13"/>
</g>
<!-- src/crypto/keypair.ts&#45;&gt;src/crypto/base32.ts -->
<g id="edge10" class="edge">
<title>src/crypto/keypair.ts&#45;&gt;src/crypto/base32.ts</title>
<path fill="none" stroke="#528b8b" stroke-width="2" d="M727.91,-883.42C760.4,-892.42 808.17,-905.66 843.44,-915.43"/>
<polygon fill="#528b8b" stroke="#528b8b" stroke-width="2" points="842.92,-918.92 853.49,-918.21 844.78,-912.17 842.92,-918.92"/>
</g>
<!-- src/crypto/keypair.ts&#45;&gt;src/crypto/crypto&#45;types.ts -->
<g id="edge11" class="edge">
<title>src/crypto/keypair.ts&#45;&gt;src/crypto/crypto&#45;types.ts</title>
<path fill="none" stroke="#528b8b" stroke-width="2" d="M727.91,-873.33C756.11,-873.33 795.8,-873.33 828.85,-873.33"/>
<polygon fill="#528b8b" stroke="#528b8b" stroke-width="2" points="828.87,-876.83 838.87,-873.33 828.87,-869.83 828.87,-876.83"/>
</g>
<!-- src/format&#45;validators/format&#45;validator&#45;es4.ts&#45;&gt;src/core&#45;validators/addresses.ts -->
<g id="edge24" class="edge">
<title>src/format&#45;validators/format&#45;validator&#45;es4.ts&#45;&gt;src/core&#45;validators/addresses.ts</title>
<path fill="none" stroke="#528b8b" stroke-width="2" d="M728.11,-612.53C743.59,-621.49 761.01,-633.37 774,-647.33 796.76,-671.79 784.41,-691.85 810,-713.33 817.17,-719.35 825.75,-724.05 834.58,-727.71"/>
<polygon fill="#528b8b" stroke="#528b8b" stroke-width="2" points="833.61,-731.09 844.21,-731.29 836.05,-724.53 833.61,-731.09"/>
</g>
<!-- src/format&#45;validators/format&#45;validator&#45;es4.ts&#45;&gt;src/core&#45;validators/characters.ts -->
<g id="edge22" class="edge">
<title>src/format&#45;validators/format&#45;validator&#45;es4.ts&#45;&gt;src/core&#45;validators/characters.ts</title>
<path fill="none" stroke="#528b8b" stroke-width="2" d="M766.71,-611.52C781.08,-614.79 796,-618.17 810,-621.33 885.52,-638.38 905.7,-637.57 980,-659.33 985.94,-661.07 992.1,-663.04 998.21,-665.1"/>
<polygon fill="#528b8b" stroke="#528b8b" stroke-width="2" points="997.13,-668.44 1007.73,-668.4 999.42,-661.82 997.13,-668.44"/>
</g>
<!-- src/format&#45;validators/format&#45;validator&#45;es4.ts&#45;&gt;src/core&#45;validators/checkers.ts -->
<g id="edge23" class="edge">
<title>src/format&#45;validators/format&#45;validator&#45;es4.ts&#45;&gt;src/core&#45;validators/checkers.ts</title>
<path fill="none" stroke="#528b8b" stroke-width="2" d="M730.72,-612.51C762.53,-627.25 807.51,-648.1 841.57,-663.88"/>
<polygon fill="#528b8b" stroke="#528b8b" stroke-width="2" points="840.32,-667.16 850.86,-668.19 843.26,-660.81 840.32,-667.16"/>
</g>
<!-- src/format&#45;validators/format&#45;validator&#45;es4.ts&#45;&gt;src/crypto/crypto&#45;types.ts -->
<g id="edge21" class="edge">
<title>src/format&#45;validators/format&#45;validator&#45;es4.ts&#45;&gt;src/crypto/crypto&#45;types.ts</title>
<path fill="none" stroke="#528b8b" stroke-width="2" d="M732.47,-612.48C747.56,-621.04 763.5,-632.65 774,-647.33 812.87,-701.7 777.17,-735.12 810,-793.33 822.02,-814.65 841.3,-834.17 857.91,-848.59"/>
<polygon fill="#528b8b" stroke="#528b8b" stroke-width="2" points="855.91,-851.48 865.81,-855.24 860.42,-846.13 855.91,-851.48"/>
</g>
<!-- src/format&#45;validators/format&#45;validator&#45;types.ts -->
<g id="node13" class="node">
<title>src/format&#45;validators/format&#45;validator&#45;types.ts</title>
<path fill="#79cdcd" stroke="#79cdcd" d="M960,-612.33C960,-612.33 822,-612.33 822,-612.33 816,-612.33 810,-606.33 810,-600.33 810,-600.33 810,-588.33 810,-588.33 810,-582.33 816,-576.33 822,-576.33 822,-576.33 960,-576.33 960,-576.33 966,-576.33 972,-582.33 972,-588.33 972,-588.33 972,-600.33 972,-600.33 972,-606.33 966,-612.33 960,-612.33"/>
<text text-anchor="middle" x="891" y="-590.63" font-family="Helvetica,sans-Serif" font-size="14.00">format&#45;validator&#45;types.ts</text>
</g>
<!-- src/format&#45;validators/format&#45;validator&#45;es4.ts&#45;&gt;src/format&#45;validators/format&#45;validator&#45;types.ts -->
<g id="edge20" class="edge">
<title>src/format&#45;validators/format&#45;validator&#45;es4.ts&#45;&gt;src/format&#45;validators/format&#45;validator&#45;types.ts</title>
<path fill="none" stroke="#528b8b" stroke-width="2" d="M766.54,-594.33C777.39,-594.33 788.64,-594.33 799.74,-594.33"/>
<polygon fill="#528b8b" stroke="#528b8b" stroke-width="2" points="799.88,-597.83 809.88,-594.33 799.88,-590.83 799.88,-597.83"/>
</g>
<!-- src/format&#45;validators/format&#45;validator&#45;types.ts&#45;&gt;src/crypto/crypto&#45;types.ts -->
<g id="edge25" class="edge">
<title>src/format&#45;validators/format&#45;validator&#45;types.ts&#45;&gt;src/crypto/crypto&#45;types.ts</title>
<path fill="none" stroke="#528b8b" stroke-width="2" d="M849.5,-612.46C828.15,-624.19 804.12,-641.72 792,-665.33 767.84,-712.38 770.47,-736.02 792,-784.33 804.13,-811.54 829.14,-833.91 850.99,-849.42"/>
<polygon fill="#528b8b" stroke="#528b8b" stroke-width="2" points="849.25,-852.47 859.48,-855.23 853.2,-846.69 849.25,-852.47"/>
</g>
<!-- src/peer/peer&#45;client.ts -->
<g id="node14" class="node">
<title>src/peer/peer&#45;client.ts</title>
<path fill="#79cdcd" stroke="#79cdcd" d="M282.5,-580.33C282.5,-580.33 212.5,-580.33 212.5,-580.33 206.5,-580.33 200.5,-574.33 200.5,-568.33 200.5,-568.33 200.5,-556.33 200.5,-556.33 200.5,-550.33 206.5,-544.33 212.5,-544.33 212.5,-544.33 282.5,-544.33 282.5,-544.33 288.5,-544.33 294.5,-550.33 294.5,-556.33 294.5,-556.33 294.5,-568.33 294.5,-568.33 294.5,-574.33 288.5,-580.33 282.5,-580.33"/>
<text text-anchor="middle" x="247.5" y="-558.63" font-family="Helvetica,sans-Serif" font-size="14.00">peer&#45;client.ts</text>
</g>
<!-- src/peer/peer&#45;client.ts&#45;&gt;src/core&#45;validators/characters.ts -->
<g id="edge30" class="edge">
<title>src/peer/peer&#45;client.ts&#45;&gt;src/core&#45;validators/characters.ts</title>
<path fill="none" stroke="#528b8b" stroke-width="2" d="M294.64,-553.99C306.94,-549.55 319.01,-542.75 327,-532.33 422.4,-407.87 259.87,-299.47 363,-181.33 544.33,26.4 772.85,65.66 980,-116.33 1021.26,-152.58 1046.29,-548.08 1052.48,-658.09"/>
<polygon fill="#528b8b" stroke="#528b8b" stroke-width="2" points="1048.99,-658.31 1053.04,-668.1 1055.98,-657.92 1048.99,-658.31"/>
</g>
<!-- src/peer/peer&#45;client.ts&#45;&gt;src/crypto/crypto&#45;types.ts -->
<g id="edge26" class="edge">
<title>src/peer/peer&#45;client.ts&#45;&gt;src/crypto/crypto&#45;types.ts</title>
<path fill="none" stroke="#528b8b" stroke-width="2" d="M294.63,-571.98C306.09,-575.97 317.73,-581.55 327,-589.33 352.3,-610.56 337.36,-633.52 363,-654.33 438.1,-715.28 481.01,-682.87 571,-718.33 673.23,-758.62 787.94,-818.06 848.06,-850.37"/>
<polygon fill="#528b8b" stroke="#528b8b" stroke-width="2" points="846.77,-853.65 857.23,-855.32 850.09,-847.49 846.77,-853.65"/>
</g>
<!-- src/peer/peer&#45;types.ts -->
<g id="node16" class="node">
<title>src/peer/peer&#45;types.ts</title>
<path fill="#79cdcd" stroke="#79cdcd" d="M502.5,-645.33C502.5,-645.33 431.5,-645.33 431.5,-645.33 425.5,-645.33 419.5,-639.33 419.5,-633.33 419.5,-633.33 419.5,-621.33 419.5,-621.33 419.5,-615.33 425.5,-609.33 431.5,-609.33 431.5,-609.33 502.5,-609.33 502.5,-609.33 508.5,-609.33 514.5,-615.33 514.5,-621.33 514.5,-621.33 514.5,-633.33 514.5,-633.33 514.5,-639.33 508.5,-645.33 502.5,-645.33"/>
<text text-anchor="middle" x="467" y="-623.63" font-family="Helvetica,sans-Serif" font-size="14.00">peer&#45;types.ts</text>
</g>
<!-- src/peer/peer&#45;client.ts&#45;&gt;src/peer/peer&#45;types.ts -->
<g id="edge28" class="edge">
<title>src/peer/peer&#45;client.ts&#45;&gt;src/peer/peer&#45;types.ts</title>
<path fill="none" stroke="#528b8b" stroke-width="2" d="M294.63,-576.12C328.14,-586.13 373.68,-599.74 409.4,-610.42"/>
<polygon fill="#528b8b" stroke="#528b8b" stroke-width="2" points="408.61,-613.83 419.19,-613.34 410.61,-607.13 408.61,-613.83"/>
</g>
<!-- src/storage/compare.ts -->
<g id="node18" class="node">
<title>src/storage/compare.ts</title>
<path fill="#79cdcd" stroke="#79cdcd" d="M720.5,-477.33C720.5,-477.33 660.5,-477.33 660.5,-477.33 654.5,-477.33 648.5,-471.33 648.5,-465.33 648.5,-465.33 648.5,-453.33 648.5,-453.33 648.5,-447.33 654.5,-441.33 660.5,-441.33 660.5,-441.33 720.5,-441.33 720.5,-441.33 726.5,-441.33 732.5,-447.33 732.5,-453.33 732.5,-453.33 732.5,-465.33 732.5,-465.33 732.5,-471.33 726.5,-477.33 720.5,-477.33"/>
<text text-anchor="middle" x="690.5" y="-455.63" font-family="Helvetica,sans-Serif" font-size="14.00">compare.ts</text>
</g>
<!-- src/peer/peer&#45;client.ts&#45;&gt;src/storage/compare.ts -->
<g id="edge29" class="edge">
<title>src/peer/peer&#45;client.ts&#45;&gt;src/storage/compare.ts</title>
<path fill="none" stroke="#528b8b" stroke-width="2" d="M294.67,-561.02C358.23,-558.13 475.64,-548.9 571,-519.33 599.26,-510.57 628.97,-495.52 651.56,-482.68"/>
<polygon fill="#528b8b" stroke="#528b8b" stroke-width="2" points="653.57,-485.56 660.48,-477.52 650.07,-479.5 653.57,-485.56"/>
</g>
<!-- src/storage/storage&#45;types.ts -->
<g id="node27" class="node">
<title>src/storage/storage&#45;types.ts</title>
<path fill="#79cdcd" stroke="#79cdcd" d="M735,-403.33C735,-403.33 646,-403.33 646,-403.33 640,-403.33 634,-397.33 634,-391.33 634,-391.33 634,-379.33 634,-379.33 634,-373.33 640,-367.33 646,-367.33 646,-367.33 735,-367.33 735,-367.33 741,-367.33 747,-373.33 747,-379.33 747,-379.33 747,-391.33 747,-391.33 747,-397.33 741,-403.33 735,-403.33"/>
<text text-anchor="middle" x="690.5" y="-381.63" font-family="Helvetica,sans-Serif" font-size="14.00">storage&#45;types.ts</text>
</g>
<!-- src/peer/peer&#45;client.ts&#45;&gt;src/storage/storage&#45;types.ts -->
<g id="edge27" class="edge">
<title>src/peer/peer&#45;client.ts&#45;&gt;src/storage/storage&#45;types.ts</title>
<path fill="none" stroke="#528b8b" stroke-width="2" d="M294.55,-544.8C324.77,-533.33 359.37,-520.29 363,-519.33 453.5,-495.42 492.36,-537.1 571,-486.33 595.13,-470.75 585.53,-451.96 606.5,-432.33 616.33,-423.13 628.28,-415.04 640.02,-408.27"/>
<polygon fill="#528b8b" stroke="#528b8b" stroke-width="2" points="641.85,-411.26 648.92,-403.36 638.47,-405.13 641.85,-411.26"/>
</g>
<!-- src/peer/peer&#45;server.ts -->
<g id="node15" class="node">
<title>src/peer/peer&#45;server.ts</title>
<path fill="#79cdcd" stroke="#79cdcd" d="M285.5,-688.33C285.5,-688.33 209.5,-688.33 209.5,-688.33 203.5,-688.33 197.5,-682.33 197.5,-676.33 197.5,-676.33 197.5,-664.33 197.5,-664.33 197.5,-658.33 203.5,-652.33 209.5,-652.33 209.5,-652.33 285.5,-652.33 285.5,-652.33 291.5,-652.33 297.5,-658.33 297.5,-664.33 297.5,-664.33 297.5,-676.33 297.5,-676.33 297.5,-682.33 291.5,-688.33 285.5,-688.33"/>
<text text-anchor="middle" x="247.5" y="-666.63" font-family="Helvetica,sans-Serif" font-size="14.00">peer&#45;server.ts</text>
</g>
<!-- src/peer/peer&#45;server.ts&#45;&gt;src/crypto/crypto&#45;types.ts -->
<g id="edge31" class="edge">
<title>src/peer/peer&#45;server.ts&#45;&gt;src/crypto/crypto&#45;types.ts</title>
<path fill="none" stroke="#528b8b" stroke-width="2" d="M263.05,-688.38C282.98,-711.77 321.11,-751.94 363,-772.33 529.89,-853.55 592.22,-808.84 774,-846.33 791.77,-850 811,-854.32 828.59,-858.43"/>
<polygon fill="#528b8b" stroke="#528b8b" stroke-width="2" points="828.19,-861.93 838.73,-860.81 829.79,-855.12 828.19,-861.93"/>
</g>
<!-- src/peer/peer&#45;server.ts&#45;&gt;src/peer/peer&#45;types.ts -->
<g id="edge32" class="edge">
<title>src/peer/peer&#45;server.ts&#45;&gt;src/peer/peer&#45;types.ts</title>
<path fill="none" stroke="#528b8b" stroke-width="2" d="M297.58,-660.63C330.77,-654.07 374.69,-645.38 409.35,-638.53"/>
<polygon fill="#528b8b" stroke="#528b8b" stroke-width="2" points="410.2,-641.93 419.33,-636.56 408.84,-635.06 410.2,-641.93"/>
</g>
<!-- src/peer/peer&#45;types.ts&#45;&gt;src/crypto/crypto&#45;types.ts -->
<g id="edge34" class="edge">
<title>src/peer/peer&#45;types.ts&#45;&gt;src/crypto/crypto&#45;types.ts</title>
<path fill="none" stroke="#528b8b" stroke-width="2" d="M514.63,-634.9C597.86,-648.58 764.25,-676.81 774,-685.33 812.1,-718.62 783.4,-750.29 810,-793.33 822.96,-814.3 842.43,-833.93 858.92,-848.5"/>
<polygon fill="#528b8b" stroke="#528b8b" stroke-width="2" points="856.87,-851.35 866.73,-855.23 861.44,-846.05 856.87,-851.35"/>
</g>
<!-- src/peer/peer&#45;types.ts&#45;&gt;src/storage/storage&#45;types.ts -->
<g id="edge33" class="edge">
<title>src/peer/peer&#45;types.ts&#45;&gt;src/storage/storage&#45;types.ts</title>
<path fill="none" stroke="#528b8b" stroke-width="2" d="M514.6,-623.24C534.57,-619.13 556.57,-611.07 571,-595.33 621.1,-540.68 562.52,-492.02 606.5,-432.33 613.56,-422.75 623.2,-414.84 633.41,-408.43"/>
<polygon fill="#528b8b" stroke="#528b8b" stroke-width="2" points="635.2,-411.44 642.08,-403.38 631.68,-405.39 635.2,-411.44"/>
</g>
<!-- src/peer/peer.ts&#45;&gt;src/peer/peer&#45;types.ts -->
<g id="edge36" class="edge">
<title>src/peer/peer.ts&#45;&gt;src/peer/peer&#45;types.ts</title>
<path fill="none" stroke="#528b8b" stroke-width="2" d="M276.93,-617.77C310.34,-619.46 366.58,-622.3 409.06,-624.45"/>
<polygon fill="#528b8b" stroke="#528b8b" stroke-width="2" points="409.1,-627.96 419.27,-624.97 409.46,-620.97 409.1,-627.96"/>
</g>
<!-- src/peer/peer.ts&#45;&gt;src/storage/storage&#45;types.ts -->
<g id="edge35" class="edge">
<title>src/peer/peer.ts&#45;&gt;src/storage/storage&#45;types.ts</title>
<path fill="none" stroke="#528b8b" stroke-width="2" d="M276.75,-610.76C346.89,-596.43 526.51,-556.61 571,-516.33 601.04,-489.13 579.54,-462.6 606.5,-432.33 614.84,-422.96 625.52,-415.03 636.41,-408.49"/>
<polygon fill="#528b8b" stroke="#528b8b" stroke-width="2" points="638.17,-411.52 645.15,-403.55 634.73,-405.42 638.17,-411.52"/>
</g>
<!-- superbus&#45;map -->
<g id="node34" class="node">
<title>superbus&#45;map</title>
<polygon fill="#cdc8b1" stroke="#8b8878" points="519,-763.33 419,-763.33 415,-759.33 415,-727.33 515,-727.33 519,-731.33 519,-763.33"/>
<polyline fill="none" stroke="#8b8878" points="515,-759.33 415,-759.33 "/>
<polyline fill="none" stroke="#8b8878" points="515,-759.33 515,-727.33 "/>
<polyline fill="none" stroke="#8b8878" points="515,-759.33 519,-763.33 "/>
<text text-anchor="middle" x="467" y="-741.63" font-family="Helvetica,sans-Serif" font-size="14.00">superbus&#45;map</text>
</g>
<!-- src/peer/peer.ts&#45;&gt;superbus&#45;map -->
<g id="edge69" class="edge">
<title>src/peer/peer.ts&#45;&gt;superbus&#45;map</title>
<path fill="none" stroke="#8b8878" stroke-width="1.5" stroke-dasharray="5,2" d="M276.77,-620.34C293.13,-623.94 313.16,-630.7 327,-643.33 355.8,-669.61 332.66,-698.84 363,-723.33 374.79,-732.85 389.74,-738.51 404.57,-741.82"/>
<polygon fill="#8b8878" stroke="#8b8878" stroke-width="1.5" points="404.3,-745.33 414.78,-743.75 405.6,-738.45 404.3,-745.33"/>
</g>
<!-- src/storage/util&#45;types.ts -->
<g id="node28" class="node">
<title>src/storage/util&#45;types.ts</title>
<path fill="#79cdcd" stroke="#79cdcd" d="M921.5,-452.33C921.5,-452.33 860.5,-452.33 860.5,-452.33 854.5,-452.33 848.5,-446.33 848.5,-440.33 848.5,-440.33 848.5,-428.33 848.5,-428.33 848.5,-422.33 854.5,-416.33 860.5,-416.33 860.5,-416.33 921.5,-416.33 921.5,-416.33 927.5,-416.33 933.5,-422.33 933.5,-428.33 933.5,-428.33 933.5,-440.33 933.5,-440.33 933.5,-446.33 927.5,-452.33 921.5,-452.33"/>
<text text-anchor="middle" x="891" y="-430.63" font-family="Helvetica,sans-Serif" font-size="14.00">util&#45;types.ts</text>
</g>
<!-- src/storage/compare.ts&#45;&gt;src/storage/util&#45;types.ts -->
<g id="edge37" class="edge">
<title>src/storage/compare.ts&#45;&gt;src/storage/util&#45;types.ts</title>
<path fill="none" stroke="#528b8b" stroke-width="2" d="M732.63,-454.15C763.16,-450.31 805.03,-445.03 837.91,-440.89"/>
<polygon fill="#528b8b" stroke="#528b8b" stroke-width="2" points="838.76,-444.31 848.24,-439.59 837.88,-437.37 838.76,-444.31"/>
</g>
<!-- src/storage/lock.ts -->
<g id="node19" class="node">
<title>src/storage/lock.ts</title>
<path fill="#79cdcd" stroke="#79cdcd" d="M906.5,-350.33C906.5,-350.33 875.5,-350.33 875.5,-350.33 869.5,-350.33 863.5,-344.33 863.5,-338.33 863.5,-338.33 863.5,-326.33 863.5,-326.33 863.5,-320.33 869.5,-314.33 875.5,-314.33 875.5,-314.33 906.5,-314.33 906.5,-314.33 912.5,-314.33 918.5,-320.33 918.5,-326.33 918.5,-326.33 918.5,-338.33 918.5,-338.33 918.5,-344.33 912.5,-350.33 906.5,-350.33"/>
<text text-anchor="middle" x="891" y="-328.63" font-family="Helvetica,sans-Serif" font-size="14.00">lock.ts</text>
</g>
<!-- src/storage/query&#45;follower&#45;types.ts -->
<g id="node20" class="node">
<title>src/storage/query&#45;follower&#45;types.ts</title>
<path fill="#79cdcd" stroke="#79cdcd" d="M531,-309.33C531,-309.33 403,-309.33 403,-309.33 397,-309.33 391,-303.33 391,-297.33 391,-297.33 391,-285.33 391,-285.33 391,-279.33 397,-273.33 403,-273.33 403,-273.33 531,-273.33 531,-273.33 537,-273.33 543,-279.33 543,-285.33 543,-285.33 543,-297.33 543,-297.33 543,-303.33 537,-309.33 531,-309.33"/>
<text text-anchor="middle" x="467" y="-287.63" font-family="Helvetica,sans-Serif" font-size="14.00">query&#45;follower&#45;types.ts</text>
</g>
<!-- src/storage/query&#45;follower&#45;types.ts&#45;&gt;src/storage/storage&#45;types.ts -->
<g id="edge38" class="edge">
<title>src/storage/query&#45;follower&#45;types.ts&#45;&gt;src/storage/storage&#45;types.ts</title>
<path fill="none" stroke="#528b8b" stroke-width="2" d="M543.01,-308.56C552.55,-311.46 562.09,-314.72 571,-318.33 600,-330.1 630.7,-347.62 653.59,-361.79"/>
<polygon fill="#528b8b" stroke="#528b8b" stroke-width="2" points="651.94,-364.89 662.27,-367.24 655.66,-358.96 651.94,-364.89"/>
</g>
<!-- superbus -->
<g id="node35" class="node">
<title>superbus</title>
<polygon fill="#cdc8b1" stroke="#8b8878" points="927,-161.33 859,-161.33 855,-157.33 855,-125.33 923,-125.33 927,-129.33 927,-161.33"/>
<polyline fill="none" stroke="#8b8878" points="923,-157.33 855,-157.33 "/>
<polyline fill="none" stroke="#8b8878" points="923,-157.33 923,-125.33 "/>
<polyline fill="none" stroke="#8b8878" points="923,-157.33 927,-161.33 "/>
<text text-anchor="middle" x="891" y="-139.63" font-family="Helvetica,sans-Serif" font-size="14.00">superbus</text>
</g>
<!-- src/storage/query&#45;follower&#45;types.ts&#45;&gt;superbus -->
<g id="edge70" class="edge">
<title>src/storage/query&#45;follower&#45;types.ts&#45;&gt;superbus</title>
<path fill="none" stroke="#8b8878" stroke-width="1.5" stroke-dasharray="5,2" d="M479.15,-273.12C499.73,-241.45 547.07,-177.13 606.5,-151.33 684.69,-117.4 786.76,-125.7 844.67,-134.63"/>
<polygon fill="#8b8878" stroke="#8b8878" stroke-width="1.5" points="844.18,-138.1 854.61,-136.24 845.29,-131.19 844.18,-138.1"/>
</g>
<!-- src/storage/query&#45;follower.ts&#45;&gt;src/storage/query&#45;follower&#45;types.ts -->
<g id="edge43" class="edge">
<title>src/storage/query&#45;follower.ts&#45;&gt;src/storage/query&#45;follower&#45;types.ts</title>
<path fill="none" stroke="#528b8b" stroke-width="2" d="M305.65,-277.32C328.54,-279.32 355.42,-281.67 380.55,-283.87"/>
<polygon fill="#528b8b" stroke="#528b8b" stroke-width="2" points="380.55,-287.38 390.82,-284.76 381.16,-280.41 380.55,-287.38"/>
</g>
<!-- src/storage/query&#45;types.ts -->
<g id="node22" class="node">
<title>src/storage/query&#45;types.ts</title>
<path fill="#79cdcd" stroke="#79cdcd" d="M929.5,-270.33C929.5,-270.33 852.5,-270.33 852.5,-270.33 846.5,-270.33 840.5,-264.33 840.5,-258.33 840.5,-258.33 840.5,-246.33 840.5,-246.33 840.5,-240.33 846.5,-234.33 852.5,-234.33 852.5,-234.33 929.5,-234.33 929.5,-234.33 935.5,-234.33 941.5,-240.33 941.5,-246.33 941.5,-246.33 941.5,-258.33 941.5,-258.33 941.5,-264.33 935.5,-270.33 929.5,-270.33"/>
<text text-anchor="middle" x="891" y="-248.63" font-family="Helvetica,sans-Serif" font-size="14.00">query&#45;types.ts</text>
</g>
<!-- src/storage/query&#45;follower.ts&#45;&gt;src/storage/query&#45;types.ts -->
<g id="edge40" class="edge">
<title>src/storage/query&#45;follower.ts&#45;&gt;src/storage/query&#45;types.ts</title>
<path fill="none" stroke="#528b8b" stroke-width="2" d="M305.76,-259.26C402.44,-238.94 604.11,-204.12 774,-224.33 792.57,-226.54 812.47,-230.67 830.45,-235.1"/>
<polygon fill="#528b8b" stroke="#528b8b" stroke-width="2" points="829.67,-238.51 840.23,-237.58 831.39,-231.73 829.67,-238.51"/>
</g>
<!-- src/storage/query.ts -->
<g id="node23" class="node">
<title>src/storage/query.ts</title>
<path fill="#79cdcd" stroke="#79cdcd" d="M710.5,-269.33C710.5,-269.33 670.5,-269.33 670.5,-269.33 664.5,-269.33 658.5,-263.33 658.5,-257.33 658.5,-257.33 658.5,-245.33 658.5,-245.33 658.5,-239.33 664.5,-233.33 670.5,-233.33 670.5,-233.33 710.5,-233.33 710.5,-233.33 716.5,-233.33 722.5,-239.33 722.5,-245.33 722.5,-245.33 722.5,-257.33 722.5,-257.33 722.5,-263.33 716.5,-269.33 710.5,-269.33"/>
<text text-anchor="middle" x="690.5" y="-247.63" font-family="Helvetica,sans-Serif" font-size="14.00">query.ts</text>
</g>
<!-- src/storage/query&#45;follower.ts&#45;&gt;src/storage/query.ts -->
<g id="edge42" class="edge">
<title>src/storage/query&#45;follower.ts&#45;&gt;src/storage/query.ts</title>
<path fill="none" stroke="#528b8b" stroke-width="2" d="M305.55,-268.01C323.89,-266.71 344.3,-265.36 363,-264.33 465.54,-258.71 586.33,-254.54 648.28,-252.58"/>
<polygon fill="#528b8b" stroke="#528b8b" stroke-width="2" points="648.54,-256.07 658.42,-252.26 648.32,-249.07 648.54,-256.07"/>
</g>
<!-- src/storage/query&#45;follower.ts&#45;&gt;src/storage/storage&#45;types.ts -->
<g id="edge41" class="edge">
<title>src/storage/query&#45;follower.ts&#45;&gt;src/storage/storage&#45;types.ts</title>
<path fill="none" stroke="#528b8b" stroke-width="2" d="M259.8,-290.67C277.75,-317.83 315.65,-367.66 363,-387.33 447.64,-422.5 555.62,-412.44 623.69,-400.26"/>
<polygon fill="#528b8b" stroke="#528b8b" stroke-width="2" points="624.65,-403.64 633.84,-398.38 623.37,-396.76 624.65,-403.64"/>
</g>
<!-- src/storage/query&#45;follower.ts&#45;&gt;src/storage/util&#45;types.ts -->
<g id="edge39" class="edge">
<title>src/storage/query&#45;follower.ts&#45;&gt;src/storage/util&#45;types.ts</title>
<path fill="none" stroke="#528b8b" stroke-width="2" d="M261.99,-290.33C281.27,-314.4 319.26,-355.92 363,-372.33 406.28,-388.57 525.59,-380.96 571,-372.33 587.66,-369.16 589.84,-361.5 606.5,-358.33 679.64,-344.43 702.66,-337.04 774,-358.33 807.55,-368.34 840.42,-391.5 862.55,-409.65"/>
<polygon fill="#528b8b" stroke="#528b8b" stroke-width="2" points="860.58,-412.56 870.48,-416.31 865.08,-407.2 860.58,-412.56"/>
</g>
<!-- src/storage/query&#45;follower.ts&#45;&gt;superbus -->
<g id="edge71" class="edge">
<title>src/storage/query&#45;follower.ts&#45;&gt;superbus</title>
<path fill="none" stroke="#8b8878" stroke-width="1.5" stroke-dasharray="5,2" d="M279.18,-254.19C339.39,-219.8 478.35,-146.44 606.5,-122.33 689.6,-106.69 788.46,-121.4 844.75,-132.83"/>
<polygon fill="#8b8878" stroke="#8b8878" stroke-width="1.5" points="844.25,-136.3 854.76,-134.92 845.68,-129.45 844.25,-136.3"/>
</g>
<!-- src/storage/query.ts&#45;&gt;src/storage/query&#45;types.ts -->
<g id="edge44" class="edge">
<title>src/storage/query.ts&#45;&gt;src/storage/query&#45;types.ts</title>
<path fill="none" stroke="#528b8b" stroke-width="2" d="M722.52,-251.49C751.2,-251.63 794.61,-251.85 830.05,-252.03"/>
<polygon fill="#528b8b" stroke="#528b8b" stroke-width="2" points="830.28,-255.53 840.29,-252.08 830.31,-248.53 830.28,-255.53"/>
</g>
<!-- src/storage/storage&#45;async.ts&#45;&gt;src/format&#45;validators/format&#45;validator&#45;types.ts -->
<g id="edge48" class="edge">
<title>src/storage/storage&#45;async.ts&#45;&gt;src/format&#45;validators/format&#45;validator&#45;types.ts</title>
<path fill="none" stroke="#528b8b" stroke-width="2" d="M524.47,-477.4C602.06,-502.22 741.35,-546.78 823.76,-573.14"/>
<polygon fill="#528b8b" stroke="#528b8b" stroke-width="2" points="822.93,-576.55 833.52,-576.26 825.06,-569.88 822.93,-576.55"/>
</g>
<!-- src/storage/storage&#45;async.ts&#45;&gt;src/storage/compare.ts -->
<g id="edge49" class="edge">
<title>src/storage/storage&#45;async.ts&#45;&gt;src/storage/compare.ts</title>
<path fill="none" stroke="#528b8b" stroke-width="2" d="M525.04,-459.33C560.01,-459.33 604.4,-459.33 638.24,-459.33"/>
<polygon fill="#528b8b" stroke="#528b8b" stroke-width="2" points="638.39,-462.83 648.39,-459.33 638.39,-455.83 638.39,-462.83"/>
</g>
<!-- src/storage/storage&#45;async.ts&#45;&gt;src/storage/query&#45;types.ts -->
<g id="edge46" class="edge">
<title>src/storage/storage&#45;async.ts&#45;&gt;src/storage/query&#45;types.ts</title>
<path fill="none" stroke="#528b8b" stroke-width="2" d="M525.11,-447.22C550.03,-442.18 579.64,-436.55 606.5,-432.33 643.53,-426.52 744.91,-435.98 774,-412.33 812.93,-380.68 779.43,-345.12 810,-305.33 818.9,-293.74 831.1,-283.87 843.28,-275.91"/>
<polygon fill="#528b8b" stroke="#528b8b" stroke-width="2" points="845.44,-278.68 852.1,-270.44 841.76,-272.73 845.44,-278.68"/>
</g>
<!-- src/storage/storage&#45;async.ts&#45;&gt;src/storage/storage&#45;types.ts -->
<g id="edge47" class="edge">
<title>src/storage/storage&#45;async.ts&#45;&gt;src/storage/storage&#45;types.ts</title>
<path fill="none" stroke="#528b8b" stroke-width="2" d="M525.06,-442.04C540.05,-437.38 556.16,-432.26 571,-427.33 590.4,-420.88 611.47,-413.53 630.39,-406.8"/>
<polygon fill="#528b8b" stroke="#528b8b" stroke-width="2" points="631.83,-410 640.07,-403.34 629.47,-403.41 631.83,-410"/>
</g>
<!-- src/storage/storage&#45;async.ts&#45;&gt;src/storage/util&#45;types.ts -->
<g id="edge45" class="edge">
<title>src/storage/storage&#45;async.ts&#45;&gt;src/storage/util&#45;types.ts</title>
<path fill="none" stroke="#528b8b" stroke-width="2" d="M525.02,-474.37C586.94,-488.4 688.47,-504.62 774,-486.33 800.63,-480.64 828.53,-468.35 850.3,-457.15"/>
<polygon fill="#528b8b" stroke="#528b8b" stroke-width="2" points="852.02,-460.21 859.23,-452.44 848.75,-454.01 852.02,-460.21"/>
</g>
<!-- src/storage/storage&#45;async.ts&#45;&gt;superbus -->
<g id="edge72" class="edge">
<title>src/storage/storage&#45;async.ts&#45;&gt;superbus</title>
<path fill="none" stroke="#8b8878" stroke-width="1.5" stroke-dasharray="5,2" d="M498.78,-441.06C522.09,-425.63 553.07,-401.42 571,-372.33 606.5,-314.75 559.71,-273.18 606.5,-224.33 639.32,-190.07 773.27,-162.95 844.68,-150.6"/>
<polygon fill="#8b8878" stroke="#8b8878" stroke-width="1.5" points="845.47,-154.02 854.74,-148.89 844.29,-147.12 845.47,-154.02"/>
</g>
<!-- src/storage/storage&#45;cache.ts -->
<g id="node25" class="node">
<title>src/storage/storage&#45;cache.ts</title>
<path fill="#79cdcd" stroke="#79cdcd" d="M120,-232.33C120,-232.33 28,-232.33 28,-232.33 22,-232.33 16,-226.33 16,-220.33 16,-220.33 16,-208.33 16,-208.33 16,-202.33 22,-196.33 28,-196.33 28,-196.33 120,-196.33 120,-196.33 126,-196.33 132,-202.33 132,-208.33 132,-208.33 132,-220.33 132,-220.33 132,-226.33 126,-232.33 120,-232.33"/>
<text text-anchor="middle" x="74" y="-210.63" font-family="Helvetica,sans-Serif" font-size="14.00">storage&#45;cache.ts</text>
</g>
<!-- src/storage/storage&#45;cache.ts&#45;&gt;src/storage/query&#45;follower.ts -->
<g id="edge51" class="edge">
<title>src/storage/storage&#45;cache.ts&#45;&gt;src/storage/query&#45;follower.ts</title>
<path fill="none" stroke="#528b8b" stroke-width="2" d="M128.32,-232.37C145.83,-238.28 165.44,-244.92 183.59,-251.06"/>
<polygon fill="#528b8b" stroke="#528b8b" stroke-width="2" points="182.62,-254.42 193.21,-254.31 184.86,-247.79 182.62,-254.42"/>
</g>
<!-- src/storage/storage&#45;cache.ts&#45;&gt;src/storage/query&#45;types.ts -->
<g id="edge52" class="edge">
<title>src/storage/storage&#45;cache.ts&#45;&gt;src/storage/query&#45;types.ts</title>
<path fill="none" stroke="#528b8b" stroke-width="2" d="M132.13,-208C252.05,-196.08 538.37,-174.78 774,-213.33 795.44,-216.84 818.27,-223.77 837.94,-230.83"/>
<polygon fill="#528b8b" stroke="#528b8b" stroke-width="2" points="836.74,-234.11 847.33,-234.29 839.16,-227.54 836.74,-234.11"/>
</g>
<!-- src/storage/storage&#45;cache.ts&#45;&gt;src/storage/query.ts -->
<g id="edge50" class="edge">
<title>src/storage/storage&#45;cache.ts&#45;&gt;src/storage/query.ts</title>
<path fill="none" stroke="#528b8b" stroke-width="2" d="M132.26,-217.78C255.09,-225.18 541.41,-242.42 648.29,-248.85"/>
<polygon fill="#528b8b" stroke="#528b8b" stroke-width="2" points="648.17,-252.35 658.36,-249.46 648.59,-245.36 648.17,-252.35"/>
</g>
<!-- src/storage/storage&#45;cache.ts&#45;&gt;src/storage/storage&#45;async.ts -->
<g id="edge53" class="edge">
<title>src/storage/storage&#45;cache.ts&#45;&gt;src/storage/storage&#45;async.ts</title>
<path fill="none" stroke="#528b8b" stroke-width="2" d="M76.94,-232.64C82.47,-274.89 102.45,-379.23 168,-427.33 234.7,-476.28 333.5,-476.77 398.79,-470.11"/>
<polygon fill="#528b8b" stroke="#528b8b" stroke-width="2" points="399.42,-473.56 408.97,-468.99 398.65,-466.61 399.42,-473.56"/>
</g>
<!-- src/storage/storage&#45;cache.ts&#45;&gt;src/storage/storage&#45;types.ts -->
<g id="edge54" class="edge">
<title>src/storage/storage&#45;cache.ts&#45;&gt;src/storage/storage&#45;types.ts</title>
<path fill="none" stroke="#528b8b" stroke-width="2" d="M92.05,-232.34C109.9,-250.58 139.28,-278.95 168,-299.33 248.27,-356.3 267.55,-380.27 363,-404.33 451.37,-426.61 557.28,-413.48 623.99,-400.59"/>
<polygon fill="#528b8b" stroke="#528b8b" stroke-width="2" points="624.83,-403.99 633.95,-398.61 623.46,-397.13 624.83,-403.99"/>
</g>
<!-- fast&#45;deep&#45;equal -->
<g id="node36" class="node">
<title>fast&#45;deep&#45;equal</title>
<polygon fill="#cdc8b1" stroke="#8b8878" points="302.5,-175.33 196.5,-175.33 192.5,-171.33 192.5,-139.33 298.5,-139.33 302.5,-143.33 302.5,-175.33"/>
<polyline fill="none" stroke="#8b8878" points="298.5,-171.33 192.5,-171.33 "/>
<polyline fill="none" stroke="#8b8878" points="298.5,-171.33 298.5,-139.33 "/>
<polyline fill="none" stroke="#8b8878" points="298.5,-171.33 302.5,-175.33 "/>
<text text-anchor="middle" x="247.5" y="-153.63" font-family="Helvetica,sans-Serif" font-size="14.00">fast&#45;deep&#45;equal</text>
</g>
<!-- src/storage/storage&#45;cache.ts&#45;&gt;fast&#45;deep&#45;equal -->
<g id="edge73" class="edge">
<title>src/storage/storage&#45;cache.ts&#45;&gt;fast&#45;deep&#45;equal</title>
<path fill="none" stroke="#8b8878" stroke-width="1.5" stroke-dasharray="5,2" d="M124.57,-196.28C138.57,-191.31 153.85,-186 168,-181.33 172.78,-179.75 177.74,-178.15 182.74,-176.57"/>
<polygon fill="#8b8878" stroke="#8b8878" stroke-width="1.5" points="183.86,-179.88 192.35,-173.54 181.76,-173.2 183.86,-179.88"/>
</g>
<!-- fast&#45;json&#45;stable&#45;stringify -->
<g id="node37" class="node">
<title>fast&#45;json&#45;stable&#45;stringify</title>
<polygon fill="#cdc8b1" stroke="#8b8878" points="327,-121.33 172,-121.33 168,-117.33 168,-85.33 323,-85.33 327,-89.33 327,-121.33"/>
<polyline fill="none" stroke="#8b8878" points="323,-117.33 168,-117.33 "/>
<polyline fill="none" stroke="#8b8878" points="323,-117.33 323,-85.33 "/>
<polyline fill="none" stroke="#8b8878" points="323,-117.33 327,-121.33 "/>
<text text-anchor="middle" x="247.5" y="-99.63" font-family="Helvetica,sans-Serif" font-size="14.00">fast&#45;json&#45;stable&#45;stringify</text>
</g>
<!-- src/storage/storage&#45;cache.ts&#45;&gt;fast&#45;json&#45;stable&#45;stringify -->
<g id="edge74" class="edge">
<title>src/storage/storage&#45;cache.ts&#45;&gt;fast&#45;json&#45;stable&#45;stringify</title>
<path fill="none" stroke="#8b8878" stroke-width="1.5" stroke-dasharray="5,2" d="M90.81,-196.26C108.1,-177.48 137.45,-148.35 168,-130.33 170.79,-128.68 173.7,-127.12 176.68,-125.63"/>
<polygon fill="#8b8878" stroke="#8b8878" stroke-width="1.5" points="178.2,-128.78 185.81,-121.41 175.26,-122.43 178.2,-128.78"/>
</g>
<!-- src/storage/storage&#45;driver&#45;async&#45;memory.ts&#45;&gt;src/storage/compare.ts -->
<g id="edge58" class="edge">
<title>src/storage/storage&#45;driver&#45;async&#45;memory.ts&#45;&gt;src/storage/compare.ts</title>
<path fill="none" stroke="#528b8b" stroke-width="2" d="M503.1,-363.4C541.54,-383.18 603.29,-414.96 645.08,-436.47"/>
<polygon fill="#528b8b" stroke="#528b8b" stroke-width="2" points="643.71,-439.7 654.2,-441.16 646.91,-433.48 643.71,-439.7"/>
</g>
<!-- src/storage/storage&#45;driver&#45;async&#45;memory.ts&#45;&gt;src/storage/lock.ts -->
<g id="edge60" class="edge">
<title>src/storage/storage&#45;driver&#45;async&#45;memory.ts&#45;&gt;src/storage/lock.ts</title>
<path fill="none" stroke="#528b8b" stroke-width="2" d="M569.89,-327.28C582.19,-325.66 594.61,-324.27 606.5,-323.33 680.71,-317.47 699.61,-320.45 774,-323.33 800.49,-324.36 830.3,-326.7 853.06,-328.73"/>
<polygon fill="#528b8b" stroke="#528b8b" stroke-width="2" points="853.03,-332.24 863.31,-329.67 853.67,-325.27 853.03,-332.24"/>
</g>
<!-- src/storage/storage&#45;driver&#45;async&#45;memory.ts&#45;&gt;src/storage/query&#45;types.ts -->
<g id="edge56" class="edge">
<title>src/storage/storage&#45;driver&#45;async&#45;memory.ts&#45;&gt;src/storage/query&#45;types.ts</title>
<path fill="none" stroke="#528b8b" stroke-width="2" d="M550.82,-327.31C612.4,-313.89 698.47,-295.06 774,-278.33 792.36,-274.26 812.35,-269.8 830.48,-265.73"/>
<polygon fill="#528b8b" stroke="#528b8b" stroke-width="2" points="831.35,-269.12 840.34,-263.52 829.81,-262.29 831.35,-269.12"/>
</g>
<!-- src/storage/storage&#45;driver&#45;async&#45;memory.ts&#45;&gt;src/storage/query.ts -->
<g id="edge59" class="edge">
<title>src/storage/storage&#45;driver&#45;async&#45;memory.ts&#45;&gt;src/storage/query.ts</title>
<path fill="none" stroke="#528b8b" stroke-width="2" d="M552.12,-327.29C558.68,-324.68 565.06,-321.71 571,-318.33 590.26,-307.37 587.88,-295.35 606.5,-283.33 619.47,-274.96 634.96,-268.25 649.03,-263.18"/>
<polygon fill="#528b8b" stroke="#528b8b" stroke-width="2" points="650.17,-266.49 658.49,-259.93 647.9,-259.87 650.17,-266.49"/>
</g>
<!-- src/storage/storage&#45;driver&#45;async&#45;memory.ts&#45;&gt;src/storage/storage&#45;types.ts -->
<g id="edge57" class="edge">
<title>src/storage/storage&#45;driver&#45;async&#45;memory.ts&#45;&gt;src/storage/storage&#45;types.ts</title>
<path fill="none" stroke="#528b8b" stroke-width="2" d="M567.73,-363.34C586.74,-366.77 606.18,-370.29 623.79,-373.47"/>
<polygon fill="#528b8b" stroke="#528b8b" stroke-width="2" points="623.47,-376.96 633.93,-375.3 624.72,-370.08 623.47,-376.96"/>
</g>
<!-- src/storage/storage&#45;driver&#45;async&#45;memory.ts&#45;&gt;src/storage/util&#45;types.ts -->
<g id="edge55" class="edge">
<title>src/storage/storage&#45;driver&#45;async&#45;memory.ts&#45;&gt;src/storage/util&#45;types.ts</title>
<path fill="none" stroke="#528b8b" stroke-width="2" d="M571.03,-327.86C631.73,-321.64 709.1,-320.91 774,-343.33 811.22,-356.19 845.6,-386.46 867.11,-408.57"/>
<polygon fill="#528b8b" stroke="#528b8b" stroke-width="2" points="864.75,-411.16 874.17,-416.01 869.83,-406.35 864.75,-411.16"/>
</g>
<!-- src/storage/storage&#45;types.ts&#45;&gt;src/format&#45;validators/format&#45;validator&#45;types.ts -->
<g id="edge62" class="edge">
<title>src/storage/storage&#45;types.ts&#45;&gt;src/format&#45;validators/format&#45;validator&#45;types.ts</title>
<path fill="none" stroke="#528b8b" stroke-width="2" d="M736.39,-403.5C749.96,-410.78 763.92,-420.35 774,-432.33 804.4,-468.48 782.23,-494.12 810,-532.33 820.8,-547.18 836.11,-560.24 850.45,-570.49"/>
<polygon fill="#528b8b" stroke="#528b8b" stroke-width="2" points="848.52,-573.41 858.74,-576.2 852.49,-567.65 848.52,-573.41"/>
</g>
<!-- src/storage/storage&#45;types.ts&#45;&gt;src/storage/lock.ts -->
<g id="edge63" class="edge">
<title>src/storage/storage&#45;types.ts&#45;&gt;src/storage/lock.ts</title>
<path fill="none" stroke="#528b8b" stroke-width="2" d="M747.06,-370.5C781.02,-361.43 823.5,-350.09 853.3,-342.13"/>
<polygon fill="#528b8b" stroke="#528b8b" stroke-width="2" points="854.51,-345.43 863.27,-339.47 852.71,-338.67 854.51,-345.43"/>
</g>
<!-- src/storage/storage&#45;types.ts&#45;&gt;src/storage/query&#45;types.ts -->
<g id="edge61" class="edge">
<title>src/storage/storage&#45;types.ts&#45;&gt;src/storage/query&#45;types.ts</title>
<path fill="none" stroke="#528b8b" stroke-width="2" d="M718.28,-367.15C742.27,-350.9 778.43,-326.44 810,-305.33 824.31,-295.76 840.11,-285.28 853.86,-276.18"/>
<polygon fill="#528b8b" stroke="#528b8b" stroke-width="2" points="856.15,-278.86 862.56,-270.42 852.29,-273.02 856.15,-278.86"/>
</g>
<!-- src/storage/storage&#45;types.ts&#45;&gt;superbus -->
<g id="edge75" class="edge">
<title>src/storage/storage&#45;types.ts&#45;&gt;superbus</title>
<path fill="none" stroke="#8b8878" stroke-width="1.5" stroke-dasharray="5,2" d="M708.25,-367.22C726.39,-346.85 755.24,-312.18 774,-278.33 796.29,-238.11 778.95,-215.25 810,-181.33 819.61,-170.84 832.72,-162.96 845.56,-157.19"/>
<polygon fill="#8b8878" stroke="#8b8878" stroke-width="1.5" points="846.9,-160.42 854.79,-153.35 844.22,-153.96 846.9,-160.42"/>
</g>
</g>
</svg>
