<?xml version="1.0" encoding="UTF-8" standalone="no"?>
<!DOCTYPE svg PUBLIC "-//W3C//DTD SVG 1.1//EN"
 "http://www.w3.org/Graphics/SVG/1.1/DTD/svg11.dtd">
<!-- Generated by graphviz version 2.44.1 (20200629.0846)
 -->
<!-- Title: G Pages: 1 -->
<svg width="964pt" height="415pt"
 viewBox="0.00 0.00 964.00 414.72" xmlns="http://www.w3.org/2000/svg" xmlns:xlink="http://www.w3.org/1999/xlink">
<g id="graph0" class="graph" transform="scale(1 1) rotate(0) translate(4 410.72)">
<title>G</title>
<polygon fill="white" stroke="transparent" points="-4,4 -4,-410.72 960,-410.72 960,4 -4,4"/>
<g id="clust1" class="cluster">
<title>cluster8399484277</title>
<path fill="none" stroke="#8b7d6b" stroke-width="2" d="M20,-26.72C20,-26.72 936,-26.72 936,-26.72 942,-26.72 948,-32.72 948,-38.72 948,-38.72 948,-386.72 948,-386.72 948,-392.72 942,-398.72 936,-398.72 936,-398.72 20,-398.72 20,-398.72 14,-398.72 8,-392.72 8,-386.72 8,-386.72 8,-38.72 8,-38.72 8,-32.72 14,-26.72 20,-26.72"/>
<text text-anchor="start" x="467.5" y="-384.52" font-family="Helvetica,sans-Serif" font-weight="bold" font-size="14.00">src</text>
</g>
<g id="clust2" class="cluster">
<title>cluster6205599490</title>
<path fill="bisque" stroke="#8b7d6b" stroke-width="2" d="M713,-46.72C713,-46.72 928,-46.72 928,-46.72 934,-46.72 940,-52.72 940,-58.72 940,-58.72 940,-163.72 940,-163.72 940,-169.72 934,-175.72 928,-175.72 928,-175.72 713,-175.72 713,-175.72 707,-175.72 701,-169.72 701,-163.72 701,-163.72 701,-58.72 701,-58.72 701,-52.72 707,-46.72 713,-46.72"/>
<text text-anchor="start" x="772" y="-161.52" font-family="Helvetica,sans-Serif" font-weight="bold" font-size="14.00">core&#45;validators</text>
</g>
<g id="clust3" class="cluster">
<title>cluster2721400318</title>
<path fill="bisque" stroke="#8b7d6b" stroke-width="2" d="M415,-86.72C415,-86.72 669,-86.72 669,-86.72 675,-86.72 681,-92.72 681,-98.72 681,-98.72 681,-257.72 681,-257.72 681,-263.72 675,-269.72 669,-269.72 669,-269.72 415,-269.72 415,-269.72 409,-269.72 403,-263.72 403,-257.72 403,-257.72 403,-98.72 403,-98.72 403,-92.72 409,-86.72 415,-86.72"/>
<text text-anchor="start" x="521" y="-255.52" font-family="Helvetica,sans-Serif" font-weight="bold" font-size="14.00">crypto</text>
</g>
<g id="clust4" class="cluster">
<title>cluster1490336643</title>
<path fill="bisque" stroke="#8b7d6b" stroke-width="2" d="M199,-127.72C199,-127.72 343,-127.72 343,-127.72 349,-127.72 355,-133.72 355,-139.72 355,-139.72 355,-190.72 355,-190.72 355,-196.72 349,-202.72 343,-202.72 343,-202.72 199,-202.72 199,-202.72 193,-202.72 187,-196.72 187,-190.72 187,-190.72 187,-139.72 187,-139.72 187,-133.72 193,-127.72 199,-127.72"/>
<text text-anchor="start" x="215" y="-188.52" font-family="Helvetica,sans-Serif" font-weight="bold" font-size="14.00">format&#45;validators</text>
</g>
<g id="clust5" class="cluster">
<title>cluster6041864124</title>
<path fill="bisque" stroke="#8b7d6b" stroke-width="2" d="M171,-210.72C171,-210.72 371,-210.72 371,-210.72 377,-210.72 383,-216.72 383,-222.72 383,-222.72 383,-327.72 383,-327.72 383,-333.72 377,-339.72 371,-339.72 371,-339.72 171,-339.72 171,-339.72 165,-339.72 159,-333.72 159,-327.72 159,-327.72 159,-222.72 159,-222.72 159,-216.72 165,-210.72 171,-210.72"/>
<text text-anchor="start" x="246.5" y="-325.52" font-family="Helvetica,sans-Serif" font-weight="bold" font-size="14.00">storage</text>
</g>
<!-- src/base32.ts -->
<g id="node1" class="node">
<title>src/base32.ts</title>
<path fill="#79cdcd" stroke="#79cdcd" d="M781,-256.72C781,-256.72 730,-256.72 730,-256.72 724,-256.72 718,-250.72 718,-244.72 718,-244.72 718,-232.72 718,-232.72 718,-226.72 724,-220.72 730,-220.72 730,-220.72 781,-220.72 781,-220.72 787,-220.72 793,-226.72 793,-232.72 793,-232.72 793,-244.72 793,-244.72 793,-250.72 787,-256.72 781,-256.72"/>
<text text-anchor="middle" x="755.5" y="-235.02" font-family="Helvetica,sans-Serif" font-size="14.00">base32.ts</text>
</g>
<!-- src/decls.d.ts -->
<g id="node2" class="node">
<title>src/decls.d.ts</title>
<path fill="#79cdcd" stroke="#79cdcd" d="M98.5,-334.72C98.5,-334.72 48.5,-334.72 48.5,-334.72 42.5,-334.72 36.5,-328.72 36.5,-322.72 36.5,-322.72 36.5,-310.72 36.5,-310.72 36.5,-304.72 42.5,-298.72 48.5,-298.72 48.5,-298.72 98.5,-298.72 98.5,-298.72 104.5,-298.72 110.5,-304.72 110.5,-310.72 110.5,-310.72 110.5,-322.72 110.5,-322.72 110.5,-328.72 104.5,-334.72 98.5,-334.72"/>
<text text-anchor="middle" x="73.5" y="-313.02" font-family="Helvetica,sans-Serif" font-size="14.00">decls.d.ts</text>
</g>
<!-- src/example&#45;app.ts -->
<g id="node3" class="node">
<title>src/example&#45;app.ts</title>
<path fill="#79cdcd" stroke="#79cdcd" d="M116.5,-248.72C116.5,-248.72 30.5,-248.72 30.5,-248.72 24.5,-248.72 18.5,-242.72 18.5,-236.72 18.5,-236.72 18.5,-224.72 18.5,-224.72 18.5,-218.72 24.5,-212.72 30.5,-212.72 30.5,-212.72 116.5,-212.72 116.5,-212.72 122.5,-212.72 128.5,-218.72 128.5,-224.72 128.5,-224.72 128.5,-236.72 128.5,-236.72 128.5,-242.72 122.5,-248.72 116.5,-248.72"/>
<text text-anchor="middle" x="73.5" y="-227.02" font-family="Helvetica,sans-Serif" font-size="14.00">example&#45;app.ts</text>
</g>
<!-- src/follower.ts -->
<g id="node4" class="node">
<title>src/follower.ts</title>
<path fill="#79cdcd" stroke="#79cdcd" d="M297.5,-117.72C297.5,-117.72 244.5,-117.72 244.5,-117.72 238.5,-117.72 232.5,-111.72 232.5,-105.72 232.5,-105.72 232.5,-93.72 232.5,-93.72 232.5,-87.72 238.5,-81.72 244.5,-81.72 244.5,-81.72 297.5,-81.72 297.5,-81.72 303.5,-81.72 309.5,-87.72 309.5,-93.72 309.5,-93.72 309.5,-105.72 309.5,-105.72 309.5,-111.72 303.5,-117.72 297.5,-117.72"/>
<text text-anchor="middle" x="271" y="-96.02" font-family="Helvetica,sans-Serif" font-size="14.00">follower.ts</text>
</g>
<!-- src/example&#45;app.ts&#45;&gt;src/follower.ts -->
<g id="edge13" class="edge">
<title>src/example&#45;app.ts&#45;&gt;src/follower.ts</title>
<path fill="none" stroke="#528b8b" stroke-width="2" d="M109.47,-212.6C117.31,-207.32 125.06,-200.98 131,-193.72 152.22,-167.79 133.41,-145.35 159,-123.72 176.41,-109.01 200.72,-102.69 222.16,-100.19"/>
<polygon fill="#528b8b" stroke="#528b8b" stroke-width="2" points="222.77,-103.64 232.41,-99.24 222.13,-96.67 222.77,-103.64"/>
</g>
<!-- src/format&#45;validators/format&#45;validator&#45;es4.ts -->
<g id="node16" class="node">
<title>src/format&#45;validators/format&#45;validator&#45;es4.ts</title>
<path fill="#79cdcd" stroke="#79cdcd" d="M335,-171.72C335,-171.72 207,-171.72 207,-171.72 201,-171.72 195,-165.72 195,-159.72 195,-159.72 195,-147.72 195,-147.72 195,-141.72 201,-135.72 207,-135.72 207,-135.72 335,-135.72 335,-135.72 341,-135.72 347,-141.72 347,-147.72 347,-147.72 347,-159.72 347,-159.72 347,-165.72 341,-171.72 335,-171.72"/>
<text text-anchor="middle" x="271" y="-150.02" font-family="Helvetica,sans-Serif" font-size="14.00">format&#45;validator&#45;es4.ts</text>
</g>
<!-- src/example&#45;app.ts&#45;&gt;src/format&#45;validators/format&#45;validator&#45;es4.ts -->
<g id="edge10" class="edge">
<title>src/example&#45;app.ts&#45;&gt;src/format&#45;validators/format&#45;validator&#45;es4.ts</title>
<path fill="none" stroke="#528b8b" stroke-width="2" d="M120.34,-212.67C148.55,-201.56 184.88,-187.25 214.68,-175.51"/>
<polygon fill="#528b8b" stroke="#528b8b" stroke-width="2" points="216.09,-178.72 224.11,-171.79 213.53,-172.2 216.09,-178.72"/>
</g>
<!-- src/storage/storage&#45;async.ts -->
<g id="node17" class="node">
<title>src/storage/storage&#45;async.ts</title>
<path fill="#79cdcd" stroke="#79cdcd" d="M317,-254.72C317,-254.72 225,-254.72 225,-254.72 219,-254.72 213,-248.72 213,-242.72 213,-242.72 213,-230.72 213,-230.72 213,-224.72 219,-218.72 225,-218.72 225,-218.72 317,-218.72 317,-218.72 323,-218.72 329,-224.72 329,-230.72 329,-230.72 329,-242.72 329,-242.72 329,-248.72 323,-254.72 317,-254.72"/>
<text text-anchor="middle" x="271" y="-233.02" font-family="Helvetica,sans-Serif" font-size="14.00">storage&#45;async.ts</text>
</g>
<!-- src/example&#45;app.ts&#45;&gt;src/storage/storage&#45;async.ts -->
<g id="edge12" class="edge">
<title>src/example&#45;app.ts&#45;&gt;src/storage/storage&#45;async.ts</title>
<path fill="none" stroke="#528b8b" stroke-width="2" d="M128.7,-232.38C151.64,-233.09 178.6,-233.92 202.79,-234.66"/>
<polygon fill="#528b8b" stroke="#528b8b" stroke-width="2" points="202.86,-238.16 212.96,-234.97 203.08,-231.17 202.86,-238.16"/>
</g>
<!-- src/storage/storage&#45;driver&#45;async&#45;memory.ts -->
<g id="node18" class="node">
<title>src/storage/storage&#45;driver&#45;async&#45;memory.ts</title>
<path fill="#79cdcd" stroke="#79cdcd" d="M363,-308.72C363,-308.72 179,-308.72 179,-308.72 173,-308.72 167,-302.72 167,-296.72 167,-296.72 167,-284.72 167,-284.72 167,-278.72 173,-272.72 179,-272.72 179,-272.72 363,-272.72 363,-272.72 369,-272.72 375,-278.72 375,-284.72 375,-284.72 375,-296.72 375,-296.72 375,-302.72 369,-308.72 363,-308.72"/>
<text text-anchor="middle" x="271" y="-287.02" font-family="Helvetica,sans-Serif" font-size="14.00">storage&#45;driver&#45;async&#45;memory.ts</text>
</g>
<!-- src/example&#45;app.ts&#45;&gt;src/storage/storage&#45;driver&#45;async&#45;memory.ts -->
<g id="edge11" class="edge">
<title>src/example&#45;app.ts&#45;&gt;src/storage/storage&#45;driver&#45;async&#45;memory.ts</title>
<path fill="none" stroke="#528b8b" stroke-width="2" d="M117.52,-248.8C130.7,-254 145.33,-259.41 159,-263.72 165.89,-265.89 173.07,-268 180.32,-270"/>
<polygon fill="#528b8b" stroke="#528b8b" stroke-width="2" points="179.65,-273.45 190.21,-272.68 181.47,-266.69 179.65,-273.45"/>
</g>
<!-- src/index.browser.ts -->
<g id="node5" class="node">
<title>src/index.browser.ts</title>
<path fill="#79cdcd" stroke="#79cdcd" d="M119,-184.72C119,-184.72 28,-184.72 28,-184.72 22,-184.72 16,-178.72 16,-172.72 16,-172.72 16,-160.72 16,-160.72 16,-154.72 22,-148.72 28,-148.72 28,-148.72 119,-148.72 119,-148.72 125,-148.72 131,-154.72 131,-160.72 131,-160.72 131,-172.72 131,-172.72 131,-178.72 125,-184.72 119,-184.72"/>
<text text-anchor="middle" x="73.5" y="-163.02" font-family="Helvetica,sans-Serif" font-size="14.00">index.browser.ts</text>
</g>
<!-- src/index.ts -->
<g id="node6" class="node">
<title>src/index.ts</title>
<path fill="#79cdcd" stroke="#79cdcd" d="M93,-110.72C93,-110.72 54,-110.72 54,-110.72 48,-110.72 42,-104.72 42,-98.72 42,-98.72 42,-86.72 42,-86.72 42,-80.72 48,-74.72 54,-74.72 54,-74.72 93,-74.72 93,-74.72 99,-74.72 105,-80.72 105,-86.72 105,-86.72 105,-98.72 105,-98.72 105,-104.72 99,-110.72 93,-110.72"/>
<text text-anchor="middle" x="73.5" y="-89.02" font-family="Helvetica,sans-Serif" font-size="14.00">index.ts</text>
</g>
<!-- src/lock.ts -->
<g id="node7" class="node">
<title>src/lock.ts</title>
<path fill="#79cdcd" stroke="#79cdcd" d="M460.5,-367.72C460.5,-367.72 429.5,-367.72 429.5,-367.72 423.5,-367.72 417.5,-361.72 417.5,-355.72 417.5,-355.72 417.5,-343.72 417.5,-343.72 417.5,-337.72 423.5,-331.72 429.5,-331.72 429.5,-331.72 460.5,-331.72 460.5,-331.72 466.5,-331.72 472.5,-337.72 472.5,-343.72 472.5,-343.72 472.5,-355.72 472.5,-355.72 472.5,-361.72 466.5,-367.72 460.5,-367.72"/>
<text text-anchor="middle" x="445" y="-346.02" font-family="Helvetica,sans-Serif" font-size="14.00">lock.ts</text>
</g>
<!-- src/query.ts -->
<g id="node8" class="node">
<title>src/query.ts</title>
<path fill="#79cdcd" stroke="#79cdcd" d="M465,-313.72C465,-313.72 425,-313.72 425,-313.72 419,-313.72 413,-307.72 413,-301.72 413,-301.72 413,-289.72 413,-289.72 413,-283.72 419,-277.72 425,-277.72 425,-277.72 465,-277.72 465,-277.72 471,-277.72 477,-283.72 477,-289.72 477,-289.72 477,-301.72 477,-301.72 477,-307.72 471,-313.72 465,-313.72"/>
<text text-anchor="middle" x="445" y="-292.02" font-family="Helvetica,sans-Serif" font-size="14.00">query.ts</text>
</g>
<!-- src/core&#45;validators/addresses.ts -->
<g id="node9" class="node">
<title>src/core&#45;validators/addresses.ts</title>
<path fill="#79cdcd" stroke="#79cdcd" d="M790,-144.72C790,-144.72 721,-144.72 721,-144.72 715,-144.72 709,-138.72 709,-132.72 709,-132.72 709,-120.72 709,-120.72 709,-114.72 715,-108.72 721,-108.72 721,-108.72 790,-108.72 790,-108.72 796,-108.72 802,-114.72 802,-120.72 802,-120.72 802,-132.72 802,-132.72 802,-138.72 796,-144.72 790,-144.72"/>
<text text-anchor="middle" x="755.5" y="-123.02" font-family="Helvetica,sans-Serif" font-size="14.00">addresses.ts</text>
</g>
<!-- src/core&#45;validators/characters.ts -->
<g id="node10" class="node">
<title>src/core&#45;validators/characters.ts</title>
<path fill="#79cdcd" stroke="#79cdcd" d="M920,-90.72C920,-90.72 850,-90.72 850,-90.72 844,-90.72 838,-84.72 838,-78.72 838,-78.72 838,-66.72 838,-66.72 838,-60.72 844,-54.72 850,-54.72 850,-54.72 920,-54.72 920,-54.72 926,-54.72 932,-60.72 932,-66.72 932,-66.72 932,-78.72 932,-78.72 932,-84.72 926,-90.72 920,-90.72"/>
<text text-anchor="middle" x="885" y="-69.02" font-family="Helvetica,sans-Serif" font-size="14.00">characters.ts</text>
</g>
<!-- src/core&#45;validators/addresses.ts&#45;&gt;src/core&#45;validators/characters.ts -->
<g id="edge1" class="edge">
<title>src/core&#45;validators/addresses.ts&#45;&gt;src/core&#45;validators/characters.ts</title>
<path fill="none" stroke="#528b8b" stroke-width="2" d="M799.31,-108.59C809.72,-104.18 820.96,-99.42 831.75,-94.85"/>
<polygon fill="#528b8b" stroke="#528b8b" stroke-width="2" points="833.24,-98.02 841.09,-90.9 830.51,-91.57 833.24,-98.02"/>
</g>
<!-- src/core&#45;validators/checkers.ts -->
<g id="node11" class="node">
<title>src/core&#45;validators/checkers.ts</title>
<path fill="#79cdcd" stroke="#79cdcd" d="M786,-90.72C786,-90.72 725,-90.72 725,-90.72 719,-90.72 713,-84.72 713,-78.72 713,-78.72 713,-66.72 713,-66.72 713,-60.72 719,-54.72 725,-54.72 725,-54.72 786,-54.72 786,-54.72 792,-54.72 798,-60.72 798,-66.72 798,-66.72 798,-78.72 798,-78.72 798,-84.72 792,-90.72 786,-90.72"/>
<text text-anchor="middle" x="755.5" y="-69.02" font-family="Helvetica,sans-Serif" font-size="14.00">checkers.ts</text>
</g>
<!-- src/core&#45;validators/checkers.ts&#45;&gt;src/core&#45;validators/characters.ts -->
<g id="edge2" class="edge">
<title>src/core&#45;validators/checkers.ts&#45;&gt;src/core&#45;validators/characters.ts</title>
<path fill="none" stroke="#528b8b" stroke-width="2" d="M798.25,-72.72C807.63,-72.72 817.73,-72.72 827.6,-72.72"/>
<polygon fill="#528b8b" stroke="#528b8b" stroke-width="2" points="827.75,-76.22 837.75,-72.72 827.75,-69.22 827.75,-76.22"/>
</g>
<!-- src/crypto/crypto&#45;driver&#45;chloride.ts -->
<g id="node12" class="node">
<title>src/crypto/crypto&#45;driver&#45;chloride.ts</title>
<path fill="#79cdcd" stroke="#79cdcd" d="M661,-130.72C661,-130.72 527,-130.72 527,-130.72 521,-130.72 515,-124.72 515,-118.72 515,-118.72 515,-106.72 515,-106.72 515,-100.72 521,-94.72 527,-94.72 527,-94.72 661,-94.72 661,-94.72 667,-94.72 673,-100.72 673,-106.72 673,-106.72 673,-118.72 673,-118.72 673,-124.72 667,-130.72 661,-130.72"/>
<text text-anchor="middle" x="594" y="-109.02" font-family="Helvetica,sans-Serif" font-size="14.00">crypto&#45;driver&#45;chloride.ts</text>
</g>
<!-- src/crypto/crypto&#45;driver&#45;node.ts -->
<g id="node13" class="node">
<title>src/crypto/crypto&#45;driver&#45;node.ts</title>
<path fill="#79cdcd" stroke="#79cdcd" d="M652,-184.72C652,-184.72 536,-184.72 536,-184.72 530,-184.72 524,-178.72 524,-172.72 524,-172.72 524,-160.72 524,-160.72 524,-154.72 530,-148.72 536,-148.72 536,-148.72 652,-148.72 652,-148.72 658,-148.72 664,-154.72 664,-160.72 664,-160.72 664,-172.72 664,-172.72 664,-178.72 658,-184.72 652,-184.72"/>
<text text-anchor="middle" x="594" y="-163.02" font-family="Helvetica,sans-Serif" font-size="14.00">crypto&#45;driver&#45;node.ts</text>
</g>
<!-- src/crypto/crypto.ts -->
<g id="node14" class="node">
<title>src/crypto/crypto.ts</title>
<path fill="#79cdcd" stroke="#79cdcd" d="M467,-184.72C467,-184.72 423,-184.72 423,-184.72 417,-184.72 411,-178.72 411,-172.72 411,-172.72 411,-160.72 411,-160.72 411,-154.72 417,-148.72 423,-148.72 423,-148.72 467,-148.72 467,-148.72 473,-148.72 479,-154.72 479,-160.72 479,-160.72 479,-172.72 479,-172.72 479,-178.72 473,-184.72 467,-184.72"/>
<text text-anchor="middle" x="445" y="-163.02" font-family="Helvetica,sans-Serif" font-size="14.00">crypto.ts</text>
</g>
<!-- src/crypto/crypto.ts&#45;&gt;src/base32.ts -->
<g id="edge5" class="edge">
<title>src/crypto/crypto.ts&#45;&gt;src/base32.ts</title>
<path fill="none" stroke="#528b8b" stroke-width="2" d="M475.04,-184.96C476.43,-186.17 477.76,-187.43 479,-188.72 500.28,-210.87 488.21,-232.69 515,-247.72 574.87,-281.33 657.06,-267.87 707.92,-254.06"/>
<polygon fill="#528b8b" stroke="#528b8b" stroke-width="2" points="708.99,-257.4 717.66,-251.31 707.09,-250.66 708.99,-257.4"/>
</g>
<!-- src/crypto/crypto.ts&#45;&gt;src/core&#45;validators/addresses.ts -->
<g id="edge7" class="edge">
<title>src/crypto/crypto.ts&#45;&gt;src/core&#45;validators/addresses.ts</title>
<path fill="none" stroke="#528b8b" stroke-width="2" d="M455.27,-148.49C466.41,-128.82 487.16,-98.58 515,-85.72 581.98,-54.79 610.64,-63.54 681,-85.72 691.35,-88.98 691.69,-94.15 701,-99.72 703.31,-101.1 705.69,-102.48 708.12,-103.84"/>
<polygon fill="#528b8b" stroke="#528b8b" stroke-width="2" points="706.54,-106.96 717,-108.66 709.88,-100.81 706.54,-106.96"/>
</g>
<!-- src/crypto/crypto.ts&#45;&gt;src/crypto/crypto&#45;driver&#45;chloride.ts -->
<g id="edge3" class="edge">
<title>src/crypto/crypto.ts&#45;&gt;src/crypto/crypto&#45;driver&#45;chloride.ts</title>
<path fill="none" stroke="#528b8b" stroke-width="2" d="M479.24,-153.41C490.55,-148.96 503.29,-144.04 515,-139.72 520.04,-137.86 525.28,-135.97 530.55,-134.09"/>
<polygon fill="#528b8b" stroke="#528b8b" stroke-width="2" points="531.77,-137.37 540.03,-130.74 529.44,-130.77 531.77,-137.37"/>
</g>
<!-- src/crypto/crypto.ts&#45;&gt;src/crypto/crypto&#45;driver&#45;node.ts -->
<g id="edge4" class="edge">
<title>src/crypto/crypto.ts&#45;&gt;src/crypto/crypto&#45;driver&#45;node.ts</title>
<path fill="none" stroke="#528b8b" stroke-width="2" d="M479.36,-166.72C489.68,-166.72 501.53,-166.72 513.59,-166.72"/>
<polygon fill="#528b8b" stroke="#528b8b" stroke-width="2" points="513.74,-170.22 523.74,-166.72 513.74,-163.22 513.74,-170.22"/>
</g>
<!-- src/crypto/keypair.ts -->
<g id="node15" class="node">
<title>src/crypto/keypair.ts</title>
<path fill="#79cdcd" stroke="#79cdcd" d="M619,-238.72C619,-238.72 569,-238.72 569,-238.72 563,-238.72 557,-232.72 557,-226.72 557,-226.72 557,-214.72 557,-214.72 557,-208.72 563,-202.72 569,-202.72 569,-202.72 619,-202.72 619,-202.72 625,-202.72 631,-208.72 631,-214.72 631,-214.72 631,-226.72 631,-226.72 631,-232.72 625,-238.72 619,-238.72"/>
<text text-anchor="middle" x="594" y="-217.02" font-family="Helvetica,sans-Serif" font-size="14.00">keypair.ts</text>
</g>
<!-- src/crypto/crypto.ts&#45;&gt;src/crypto/keypair.ts -->
<g id="edge6" class="edge">
<title>src/crypto/crypto.ts&#45;&gt;src/crypto/keypair.ts</title>
<path fill="none" stroke="#528b8b" stroke-width="2" d="M479.24,-180.04C490.55,-184.48 503.29,-189.41 515,-193.72 525.4,-197.55 536.63,-201.53 547.25,-205.22"/>
<polygon fill="#528b8b" stroke="#528b8b" stroke-width="2" points="546.18,-208.56 556.78,-208.52 548.47,-201.94 546.18,-208.56"/>
</g>
<!-- src/crypto/keypair.ts&#45;&gt;src/base32.ts -->
<g id="edge8" class="edge">
<title>src/crypto/keypair.ts&#45;&gt;src/base32.ts</title>
<path fill="none" stroke="#528b8b" stroke-width="2" d="M631.19,-224.81C653.87,-227.37 683.33,-230.69 707.77,-233.45"/>
<polygon fill="#528b8b" stroke="#528b8b" stroke-width="2" points="707.57,-236.95 717.9,-234.59 708.35,-229.99 707.57,-236.95"/>
</g>
<!-- src/crypto/keypair.ts&#45;&gt;src/core&#45;validators/addresses.ts -->
<g id="edge9" class="edge">
<title>src/crypto/keypair.ts&#45;&gt;src/core&#45;validators/addresses.ts</title>
<path fill="none" stroke="#528b8b" stroke-width="2" d="M631.02,-216.36C647.87,-212.71 667.22,-206.01 681,-193.72 697.33,-179.15 685.31,-163.98 701,-148.72 701.15,-148.58 701.3,-148.43 701.45,-148.29"/>
<polygon fill="#528b8b" stroke="#528b8b" stroke-width="2" points="703.16,-151.4 708.85,-142.46 698.83,-145.9 703.16,-151.4"/>
</g>
<!-- src/format&#45;validators/format&#45;validator&#45;es4.ts&#45;&gt;src/core&#45;validators/characters.ts -->
<g id="edge14" class="edge">
<title>src/format&#45;validators/format&#45;validator&#45;es4.ts&#45;&gt;src/core&#45;validators/characters.ts</title>
<path fill="none" stroke="#528b8b" stroke-width="2" d="M347.06,-150.6C360.32,-146.97 373.05,-141.07 383,-131.72 408.45,-107.8 375.72,-77.54 403,-55.72 528.08,44.31 735.49,-14.98 831.84,-51.09"/>
<polygon fill="#528b8b" stroke="#528b8b" stroke-width="2" points="830.77,-54.43 841.36,-54.72 833.26,-47.89 830.77,-54.43"/>
</g>
<!-- src/format&#45;validators/format&#45;validator&#45;es4.ts&#45;&gt;src/core&#45;validators/checkers.ts -->
<g id="edge15" class="edge">
<title>src/format&#45;validators/format&#45;validator&#45;es4.ts&#45;&gt;src/core&#45;validators/checkers.ts</title>
<path fill="none" stroke="#528b8b" stroke-width="2" d="M347.28,-149.22C360.21,-145.67 372.77,-140.16 383,-131.72 401.15,-116.76 384.77,-97.59 403,-82.72 451.01,-43.56 619.22,-57.12 681,-61.72 687.92,-62.24 695.17,-63.02 702.31,-63.94"/>
<polygon fill="#528b8b" stroke="#528b8b" stroke-width="2" points="702.26,-67.46 712.64,-65.36 703.21,-60.53 702.26,-67.46"/>
</g>
<!-- src/format&#45;validators/format&#45;validator&#45;es4.ts&#45;&gt;src/crypto/crypto.ts -->
<g id="edge16" class="edge">
<title>src/format&#45;validators/format&#45;validator&#45;es4.ts&#45;&gt;src/crypto/crypto.ts</title>
<path fill="none" stroke="#528b8b" stroke-width="2" d="M347.19,-159.4C365.43,-160.78 384.33,-162.21 400.54,-163.44"/>
<polygon fill="#528b8b" stroke="#528b8b" stroke-width="2" points="400.53,-166.95 410.77,-164.21 401.06,-159.97 400.53,-166.95"/>
</g>
<!-- src/storage/storage&#45;async.ts&#45;&gt;src/crypto/crypto.ts -->
<g id="edge17" class="edge">
<title>src/storage/storage&#45;async.ts&#45;&gt;src/crypto/crypto.ts</title>
<path fill="none" stroke="#528b8b" stroke-width="2" d="M329.01,-226.73C346.97,-222.19 366.43,-215.74 383,-206.72 391.53,-202.08 392.94,-197.64 402.66,-189.68"/>
<polygon fill="#528b8b" stroke="#528b8b" stroke-width="2" points="404.96,-192.34 410.91,-183.57 400.79,-186.72 404.96,-192.34"/>
</g>
<!-- src/storage/storage&#45;driver&#45;async&#45;memory.ts&#45;&gt;src/lock.ts -->
<g id="edge19" class="edge">
<title>src/storage/storage&#45;driver&#45;async&#45;memory.ts&#45;&gt;src/lock.ts</title>
<path fill="none" stroke="#528b8b" stroke-width="2" d="M324.54,-308.74C351.46,-317.98 383.56,-328.99 407.7,-337.27"/>
<polygon fill="#528b8b" stroke="#528b8b" stroke-width="2" points="406.6,-340.59 417.19,-340.52 408.87,-333.97 406.6,-340.59"/>
</g>
<!-- src/storage/storage&#45;driver&#45;async&#45;memory.ts&#45;&gt;src/query.ts -->
<g id="edge18" class="edge">
<title>src/storage/storage&#45;driver&#45;async&#45;memory.ts&#45;&gt;src/query.ts</title>
<path fill="none" stroke="#528b8b" stroke-width="2" d="M375.03,-293.72C384.8,-294 394.26,-294.28 402.88,-294.53"/>
<polygon fill="#528b8b" stroke="#528b8b" stroke-width="2" points="402.85,-298.03 412.95,-294.82 403.06,-291.03 402.85,-298.03"/>
</g>
</g>
</svg>
