<?xml version="1.0" encoding="UTF-8" standalone="no"?>
<!DOCTYPE svg PUBLIC "-//W3C//DTD SVG 1.1//EN"
 "http://www.w3.org/Graphics/SVG/1.1/DTD/svg11.dtd">
<!-- Generated by graphviz version 2.44.1 (20200629.0846)
 -->
<!-- Title: G Pages: 1 -->
<svg width="494pt" height="245pt"
 viewBox="0.00 0.00 494.49 245.00" xmlns="http://www.w3.org/2000/svg" xmlns:xlink="http://www.w3.org/1999/xlink">
<g id="graph0" class="graph" transform="scale(1 1) rotate(0) translate(4 241)">
<title>G</title>
<polygon fill="white" stroke="transparent" points="-4,4 -4,-241 490.49,-241 490.49,4 -4,4"/>
<g id="clust1" class="cluster">
<title>cluster7168928061</title>
<path fill="none" stroke="#8b7d6b" stroke-width="2" d="M20,-46C20,-46 465.24,-46 465.24,-46 471.24,-46 477.24,-52 477.24,-58 477.24,-58 477.24,-217 477.24,-217 477.24,-223 471.24,-229 465.24,-229 465.24,-229 20,-229 20,-229 14,-229 8,-223 8,-217 8,-217 8,-58 8,-58 8,-52 14,-46 20,-46"/>
<text text-anchor="start" x="224.62" y="-214.8" font-family="Helvetica,sans-Serif" font-weight="bold" font-size="14.00">types</text>
</g>
<!-- src/types/crypto&#45;types.ts -->
<g id="node1" class="node">
<title>src/types/crypto&#45;types.ts</title>
<path fill="#79cdcd" stroke="#79cdcd" d="M112.5,-198C112.5,-198 32.5,-198 32.5,-198 26.5,-198 20.5,-192 20.5,-186 20.5,-186 20.5,-174 20.5,-174 20.5,-168 26.5,-162 32.5,-162 32.5,-162 112.5,-162 112.5,-162 118.5,-162 124.5,-168 124.5,-174 124.5,-174 124.5,-186 124.5,-186 124.5,-192 118.5,-198 112.5,-198"/>
<text text-anchor="middle" x="72.5" y="-176.3" font-family="Helvetica,sans-Serif" font-size="14.00">crypto&#45;types.ts</text>
</g>
<!-- src/types/doc&#45;types.ts -->
<g id="node2" class="node">
<title>src/types/doc&#45;types.ts</title>
<path fill="#79cdcd" stroke="#79cdcd" d="M457.24,-144C457.24,-144 392.24,-144 392.24,-144 386.24,-144 380.24,-138 380.24,-132 380.24,-132 380.24,-120 380.24,-120 380.24,-114 386.24,-108 392.24,-108 392.24,-108 457.24,-108 457.24,-108 463.24,-108 469.24,-114 469.24,-120 469.24,-120 469.24,-132 469.24,-132 469.24,-138 463.24,-144 457.24,-144"/>
<text text-anchor="middle" x="424.74" y="-122.3" font-family="Helvetica,sans-Serif" font-size="14.00">doc&#45;types.ts</text>
</g>
<!-- src/types/format&#45;validator&#45;types.ts -->
<g id="node3" class="node">
<title>src/types/format&#45;validator&#45;types.ts</title>
<path fill="#79cdcd" stroke="#79cdcd" d="M315,-90C315,-90 177,-90 177,-90 171,-90 165,-84 165,-78 165,-78 165,-66 165,-66 165,-60 171,-54 177,-54 177,-54 315,-54 315,-54 321,-54 327,-60 327,-66 327,-66 327,-78 327,-78 327,-84 321,-90 315,-90"/>
<text text-anchor="middle" x="246" y="-68.3" font-family="Helvetica,sans-Serif" font-size="14.00">format&#45;validator&#45;types.ts</text>
</g>
<!-- src/types/format&#45;validator&#45;types.ts&#45;&gt;src/types/doc&#45;types.ts -->
<g id="edge1" class="edge">
<title>src/types/format&#45;validator&#45;types.ts&#45;&gt;src/types/doc&#45;types.ts</title>
<path fill="none" stroke="#528b8b" stroke-width="2" d="M306.35,-90.13C327.12,-96.48 350.29,-103.56 370.53,-109.74"/>
<polygon fill="#528b8b" stroke="#528b8b" stroke-width="2" points="369.62,-113.12 380.2,-112.7 371.66,-106.43 369.62,-113.12"/>
</g>
<!-- src/util/errors -->
<g id="node7" class="node">
<title>src/util/errors</title>
<ellipse fill="none" stroke="black" cx="424.74" cy="-20" rx="61.99" ry="18"/>
<text text-anchor="middle" x="424.74" y="-16.3" font-family="Helvetica,sans-Serif" font-size="14.00">src/util/errors</text>
</g>
<!-- src/types/format&#45;validator&#45;types.ts&#45;&gt;src/util/errors -->
<g id="edge2" class="edge">
<title>src/types/format&#45;validator&#45;types.ts&#45;&gt;src/util/errors</title>
<path fill="none" stroke="#528b8b" stroke-width="2" d="M308.32,-53.96C328.71,-47.96 351.22,-41.34 370.9,-35.55"/>
<polygon fill="#528b8b" stroke="#528b8b" stroke-width="2" points="372.01,-38.87 380.62,-32.69 370.04,-32.15 372.01,-38.87"/>
</g>
<!-- src/types/query&#45;types.ts -->
<g id="node4" class="node">
<title>src/types/query&#45;types.ts</title>
<path fill="#79cdcd" stroke="#79cdcd" d="M284.5,-144C284.5,-144 207.5,-144 207.5,-144 201.5,-144 195.5,-138 195.5,-132 195.5,-132 195.5,-120 195.5,-120 195.5,-114 201.5,-108 207.5,-108 207.5,-108 284.5,-108 284.5,-108 290.5,-108 296.5,-114 296.5,-120 296.5,-120 296.5,-132 296.5,-132 296.5,-138 290.5,-144 284.5,-144"/>
<text text-anchor="middle" x="246" y="-122.3" font-family="Helvetica,sans-Serif" font-size="14.00">query&#45;types.ts</text>
</g>
<!-- src/types/query&#45;types.ts&#45;&gt;src/types/doc&#45;types.ts -->
<g id="edge3" class="edge">
<title>src/types/query&#45;types.ts&#45;&gt;src/types/doc&#45;types.ts</title>
<path fill="none" stroke="#528b8b" stroke-width="2" d="M296.7,-126C319.56,-126 346.72,-126 370.05,-126"/>
<polygon fill="#528b8b" stroke="#528b8b" stroke-width="2" points="370.12,-129.5 380.12,-126 370.12,-122.5 370.12,-129.5"/>
</g>
<!-- src/types/storage&#45;types.ts -->
<g id="node5" class="node">
<title>src/types/storage&#45;types.ts</title>
<path fill="#79cdcd" stroke="#79cdcd" d="M117,-144C117,-144 28,-144 28,-144 22,-144 16,-138 16,-132 16,-132 16,-120 16,-120 16,-114 22,-108 28,-108 28,-108 117,-108 117,-108 123,-108 129,-114 129,-120 129,-120 129,-132 129,-132 129,-138 123,-144 117,-144"/>
<text text-anchor="middle" x="72.5" y="-122.3" font-family="Helvetica,sans-Serif" font-size="14.00">storage&#45;types.ts</text>
</g>
<!-- src/types/storage&#45;types.ts&#45;&gt;src/types/doc&#45;types.ts -->
<g id="edge4" class="edge">
<title>src/types/storage&#45;types.ts&#45;&gt;src/types/doc&#45;types.ts</title>
<path fill="none" stroke="#528b8b" stroke-width="2" d="M125.18,-144.05C138.03,-147.76 151.89,-151.11 165,-153 236.26,-163.29 255.67,-162.77 327,-153 341.18,-151.06 356.21,-147.59 370.09,-143.76"/>
<polygon fill="#528b8b" stroke="#528b8b" stroke-width="2" points="371.32,-147.05 379.97,-140.94 369.39,-140.33 371.32,-147.05"/>
</g>
<!-- src/types/storage&#45;types.ts&#45;&gt;src/types/query&#45;types.ts -->
<g id="edge5" class="edge">
<title>src/types/storage&#45;types.ts&#45;&gt;src/types/query&#45;types.ts</title>
<path fill="none" stroke="#528b8b" stroke-width="2" d="M129.18,-126C147.09,-126 167,-126 185.19,-126"/>
<polygon fill="#528b8b" stroke="#528b8b" stroke-width="2" points="185.38,-129.5 195.38,-126 185.38,-122.5 185.38,-129.5"/>
</g>
<!-- src/lock -->
<g id="node8" class="node">
<title>src/lock</title>
<ellipse fill="none" stroke="black" cx="246" cy="-18" rx="40.09" ry="18"/>
<text text-anchor="middle" x="246" y="-14.3" font-family="Helvetica,sans-Serif" font-size="14.00">src/lock</text>
</g>
<!-- src/types/storage&#45;types.ts&#45;&gt;src/lock -->
<g id="edge6" class="edge">
<title>src/types/storage&#45;types.ts&#45;&gt;src/lock</title>
<path fill="none" stroke="#528b8b" stroke-width="2" d="M116.85,-107.94C121.18,-105.27 125.33,-102.29 129,-99 151.33,-79.02 141.14,-60.12 165,-42 174.47,-34.81 186.08,-29.76 197.48,-26.23"/>
<polygon fill="#528b8b" stroke="#528b8b" stroke-width="2" points="198.69,-29.52 207.4,-23.49 196.83,-22.78 198.69,-29.52"/>
</g>
<!-- src/types/util&#45;types.ts -->
<g id="node6" class="node">
<title>src/types/util&#45;types.ts</title>
<path fill="#79cdcd" stroke="#79cdcd" d="M103,-90C103,-90 42,-90 42,-90 36,-90 30,-84 30,-78 30,-78 30,-66 30,-66 30,-60 36,-54 42,-54 42,-54 103,-54 103,-54 109,-54 115,-60 115,-66 115,-66 115,-78 115,-78 115,-84 109,-90 103,-90"/>
<text text-anchor="middle" x="72.5" y="-68.3" font-family="Helvetica,sans-Serif" font-size="14.00">util&#45;types.ts</text>
</g>
</g>
</svg>
