<?xml version="1.0" encoding="UTF-8" standalone="no"?>
<!DOCTYPE svg PUBLIC "-//W3C//DTD SVG 1.1//EN"
 "http://www.w3.org/Graphics/SVG/1.1/DTD/svg11.dtd">
<!-- Generated by graphviz version 2.44.1 (20200629.0846)
 -->
<!-- Title: G Pages: 1 -->
<svg width="1088pt" height="930pt"
 viewBox="0.00 0.00 1088.00 930.00" xmlns="http://www.w3.org/2000/svg" xmlns:xlink="http://www.w3.org/1999/xlink">
<g id="graph0" class="graph" transform="scale(1 1) rotate(0) translate(4 926)">
<title>G</title>
<polygon fill="white" stroke="transparent" points="-4,4 -4,-926 1084,-926 1084,4 -4,4"/>
<g id="clust1" class="cluster">
<title>cluster2351233740</title>
<path fill="bisque" stroke="#8b7d6b" stroke-width="2" d="M829,-785C829,-785 1060,-785 1060,-785 1066,-785 1072,-791 1072,-797 1072,-797 1072,-902 1072,-902 1072,-908 1066,-914 1060,-914 1060,-914 829,-914 829,-914 823,-914 817,-908 817,-902 817,-902 817,-797 817,-797 817,-791 823,-785 829,-785"/>
<text text-anchor="start" x="896" y="-899.8" font-family="Helvetica,sans-Serif" font-weight="bold" font-size="14.00">core&#45;validators</text>
</g>
<g id="clust2" class="cluster">
<title>cluster9778582570</title>
<path fill="bisque" stroke="#8b7d6b" stroke-width="2" d="M416,-526C416,-526 905,-526 905,-526 911,-526 917,-532 917,-538 917,-538 917,-697 917,-697 917,-703 911,-709 905,-709 905,-709 416,-709 416,-709 410,-709 404,-703 404,-697 404,-697 404,-538 404,-538 404,-532 410,-526 416,-526"/>
<text text-anchor="start" x="639.5" y="-694.8" font-family="Helvetica,sans-Serif" font-weight="bold" font-size="14.00">crypto</text>
</g>
<g id="clust3" class="cluster">
<title>cluster8573374882</title>
<path fill="bisque" stroke="#8b7d6b" stroke-width="2" d="M200,-809C200,-809 344,-809 344,-809 350,-809 356,-815 356,-821 356,-821 356,-872 356,-872 356,-878 350,-884 344,-884 344,-884 200,-884 200,-884 194,-884 188,-878 188,-872 188,-872 188,-821 188,-821 188,-815 194,-809 200,-809"/>
<text text-anchor="start" x="216" y="-869.8" font-family="Helvetica,sans-Serif" font-weight="bold" font-size="14.00">format&#45;validators</text>
</g>
<g id="clust4" class="cluster">
<title>cluster794025908</title>
<path fill="bisque" stroke="#8b7d6b" stroke-width="2" d="M226,-358C226,-358 318,-358 318,-358 324,-358 330,-364 330,-370 330,-370 330,-529 330,-529 330,-535 324,-541 318,-541 318,-541 226,-541 226,-541 220,-541 214,-535 214,-529 214,-529 214,-370 214,-370 214,-364 220,-358 226,-358"/>
<text text-anchor="start" x="257.5" y="-526.8" font-family="Helvetica,sans-Serif" font-weight="bold" font-size="14.00">peer</text>
</g>
<g id="clust5" class="cluster">
<title>cluster6085644162</title>
<path fill="bisque" stroke="#8b7d6b" stroke-width="2" d="M218,-138C218,-138 326,-138 326,-138 332,-138 338,-144 338,-150 338,-150 338,-201 338,-201 338,-207 332,-213 326,-213 326,-213 218,-213 218,-213 212,-213 206,-207 206,-201 206,-201 206,-150 206,-150 206,-144 212,-138 218,-138"/>
<text text-anchor="start" x="225" y="-198.8" font-family="Helvetica,sans-Serif" font-weight="bold" font-size="14.00">query&#45;follower</text>
</g>
<g id="clust6" class="cluster">
<title>cluster4226488934</title>
<path fill="bisque" stroke="#8b7d6b" stroke-width="2" d="M463,-92C463,-92 519,-92 519,-92 525,-92 531,-98 531,-104 531,-104 531,-155 531,-155 531,-161 525,-167 519,-167 519,-167 463,-167 463,-167 457,-167 451,-161 451,-155 451,-155 451,-104 451,-104 451,-98 457,-92 463,-92"/>
<text text-anchor="start" x="472.5" y="-152.8" font-family="Helvetica,sans-Serif" font-weight="bold" font-size="14.00">query</text>
</g>
<g id="clust7" class="cluster">
<title>cluster2393717517</title>
<path fill="bisque" stroke="#8b7d6b" stroke-width="2" d="M20,-221C20,-221 529,-221 529,-221 535,-221 541,-227 541,-233 541,-233 541,-338 541,-338 541,-344 535,-350 529,-350 529,-350 20,-350 20,-350 14,-350 8,-344 8,-338 8,-338 8,-233 8,-233 8,-227 14,-221 20,-221"/>
<text text-anchor="start" x="250" y="-335.8" font-family="Helvetica,sans-Serif" font-weight="bold" font-size="14.00">storage</text>
</g>
<!-- src/example&#45;app.ts -->
<g id="node1" class="node">
<title>src/example&#45;app.ts</title>
<path fill="#79cdcd" stroke="#79cdcd" d="M117,-452C117,-452 31,-452 31,-452 25,-452 19,-446 19,-440 19,-440 19,-428 19,-428 19,-422 25,-416 31,-416 31,-416 117,-416 117,-416 123,-416 129,-422 129,-428 129,-428 129,-440 129,-440 129,-446 123,-452 117,-452"/>
<text text-anchor="middle" x="74" y="-430.3" font-family="Helvetica,sans-Serif" font-size="14.00">example&#45;app.ts</text>
</g>
<!-- src/crypto/crypto.ts -->
<g id="node9" class="node">
<title>src/crypto/crypto.ts</title>
<path fill="#79cdcd" stroke="#79cdcd" d="M513,-570C513,-570 469,-570 469,-570 463,-570 457,-564 457,-558 457,-558 457,-546 457,-546 457,-540 463,-534 469,-534 469,-534 513,-534 513,-534 519,-534 525,-540 525,-546 525,-546 525,-558 525,-558 525,-564 519,-570 513,-570"/>
<text text-anchor="middle" x="491" y="-548.3" font-family="Helvetica,sans-Serif" font-size="14.00">crypto.ts</text>
</g>
<!-- src/example&#45;app.ts&#45;&gt;src/crypto/crypto.ts -->
<g id="edge12" class="edge">
<title>src/example&#45;app.ts&#45;&gt;src/crypto/crypto.ts</title>
<path fill="none" stroke="#528b8b" stroke-width="2" d="M80.83,-452.27C91.97,-483.7 119.6,-547.15 168,-573 249.54,-616.55 283.94,-581.41 376,-573 399.6,-570.84 425.6,-566.23 446.81,-561.87"/>
<polygon fill="#528b8b" stroke="#528b8b" stroke-width="2" points="447.74,-565.26 456.8,-559.77 446.29,-558.41 447.74,-565.26"/>
</g>
<!-- src/format&#45;validators/format&#45;validator&#45;es4.ts -->
<g id="node11" class="node">
<title>src/format&#45;validators/format&#45;validator&#45;es4.ts</title>
<path fill="#79cdcd" stroke="#79cdcd" d="M336,-853C336,-853 208,-853 208,-853 202,-853 196,-847 196,-841 196,-841 196,-829 196,-829 196,-823 202,-817 208,-817 208,-817 336,-817 336,-817 342,-817 348,-823 348,-829 348,-829 348,-841 348,-841 348,-847 342,-853 336,-853"/>
<text text-anchor="middle" x="272" y="-831.3" font-family="Helvetica,sans-Serif" font-size="14.00">format&#45;validator&#45;es4.ts</text>
</g>
<!-- src/example&#45;app.ts&#45;&gt;src/format&#45;validators/format&#45;validator&#45;es4.ts -->
<g id="edge9" class="edge">
<title>src/example&#45;app.ts&#45;&gt;src/format&#45;validators/format&#45;validator&#45;es4.ts</title>
<path fill="none" stroke="#528b8b" stroke-width="2" d="M83.8,-452.01C114.95,-515.73 220.06,-730.79 257.57,-807.52"/>
<polygon fill="#528b8b" stroke="#528b8b" stroke-width="2" points="254.46,-809.13 262,-816.58 260.75,-806.06 254.46,-809.13"/>
</g>
<!-- src/peer/peer.ts -->
<g id="node14" class="node">
<title>src/peer/peer.ts</title>
<path fill="#79cdcd" stroke="#79cdcd" d="M289,-510C289,-510 255,-510 255,-510 249,-510 243,-504 243,-498 243,-498 243,-486 243,-486 243,-480 249,-474 255,-474 255,-474 289,-474 289,-474 295,-474 301,-480 301,-486 301,-486 301,-498 301,-498 301,-504 295,-510 289,-510"/>
<text text-anchor="middle" x="272" y="-488.3" font-family="Helvetica,sans-Serif" font-size="14.00">peer.ts</text>
</g>
<!-- src/example&#45;app.ts&#45;&gt;src/peer/peer.ts -->
<g id="edge14" class="edge">
<title>src/example&#45;app.ts&#45;&gt;src/peer/peer.ts</title>
<path fill="none" stroke="#528b8b" stroke-width="2" d="M127.44,-452.14C140.62,-456.52 154.79,-461.07 168,-465 189.43,-471.37 213.59,-477.75 233.13,-482.7"/>
<polygon fill="#528b8b" stroke="#528b8b" stroke-width="2" points="232.33,-486.11 242.88,-485.16 234.04,-479.32 232.33,-486.11"/>
</g>
<!-- src/query&#45;follower/query&#45;follower.ts -->
<g id="node15" class="node">
<title>src/query&#45;follower/query&#45;follower.ts</title>
<path fill="#79cdcd" stroke="#79cdcd" d="M318,-182C318,-182 226,-182 226,-182 220,-182 214,-176 214,-170 214,-170 214,-158 214,-158 214,-152 220,-146 226,-146 226,-146 318,-146 318,-146 324,-146 330,-152 330,-158 330,-158 330,-170 330,-170 330,-176 324,-182 318,-182"/>
<text text-anchor="middle" x="272" y="-160.3" font-family="Helvetica,sans-Serif" font-size="14.00">query&#45;follower.ts</text>
</g>
<!-- src/example&#45;app.ts&#45;&gt;src/query&#45;follower/query&#45;follower.ts -->
<g id="edge13" class="edge">
<title>src/example&#45;app.ts&#45;&gt;src/query&#45;follower/query&#45;follower.ts</title>
<path fill="none" stroke="#528b8b" stroke-width="2" d="M90.9,-415.82C103.68,-400.34 121.22,-377.01 132,-354 158.7,-296.99 128.6,-266.1 168,-217 178.21,-204.27 192.3,-194.29 206.79,-186.58"/>
<polygon fill="#528b8b" stroke="#528b8b" stroke-width="2" points="208.43,-189.67 215.82,-182.08 205.31,-183.41 208.43,-189.67"/>
</g>
<!-- src/storage/storage&#45;async.ts -->
<g id="node19" class="node">
<title>src/storage/storage&#45;async.ts</title>
<path fill="#79cdcd" stroke="#79cdcd" d="M318,-319C318,-319 226,-319 226,-319 220,-319 214,-313 214,-307 214,-307 214,-295 214,-295 214,-289 220,-283 226,-283 226,-283 318,-283 318,-283 324,-283 330,-289 330,-295 330,-295 330,-307 330,-307 330,-313 324,-319 318,-319"/>
<text text-anchor="middle" x="272" y="-297.3" font-family="Helvetica,sans-Serif" font-size="14.00">storage&#45;async.ts</text>
</g>
<!-- src/example&#45;app.ts&#45;&gt;src/storage/storage&#45;async.ts -->
<g id="edge11" class="edge">
<title>src/example&#45;app.ts&#45;&gt;src/storage/storage&#45;async.ts</title>
<path fill="none" stroke="#528b8b" stroke-width="2" d="M93.53,-415.74C111.57,-398.54 140.27,-372.68 168,-354 184.61,-342.81 203.87,-332.31 221.22,-323.65"/>
<polygon fill="#528b8b" stroke="#528b8b" stroke-width="2" points="223.2,-326.59 230.63,-319.04 220.11,-320.3 223.2,-326.59"/>
</g>
<!-- src/storage/storage&#45;driver&#45;async&#45;memory.ts -->
<g id="node21" class="node">
<title>src/storage/storage&#45;driver&#45;async&#45;memory.ts</title>
<path fill="#79cdcd" stroke="#79cdcd" d="M364,-265C364,-265 180,-265 180,-265 174,-265 168,-259 168,-253 168,-253 168,-241 168,-241 168,-235 174,-229 180,-229 180,-229 364,-229 364,-229 370,-229 376,-235 376,-241 376,-241 376,-253 376,-253 376,-259 370,-265 364,-265"/>
<text text-anchor="middle" x="272" y="-243.3" font-family="Helvetica,sans-Serif" font-size="14.00">storage&#45;driver&#45;async&#45;memory.ts</text>
</g>
<!-- src/example&#45;app.ts&#45;&gt;src/storage/storage&#45;driver&#45;async&#45;memory.ts -->
<g id="edge10" class="edge">
<title>src/example&#45;app.ts&#45;&gt;src/storage/storage&#45;driver&#45;async&#45;memory.ts</title>
<path fill="none" stroke="#528b8b" stroke-width="2" d="M89.43,-415.94C101.66,-400.15 119.18,-376.33 132,-354 151.41,-320.18 138.23,-299.18 168,-274 169.36,-272.85 170.76,-271.75 172.2,-270.7"/>
<polygon fill="#528b8b" stroke="#528b8b" stroke-width="2" points="174.31,-273.5 180.83,-265.15 170.53,-267.61 174.31,-273.5"/>
</g>
<!-- src/core&#45;validators/addresses.ts -->
<g id="node2" class="node">
<title>src/core&#45;validators/addresses.ts</title>
<path fill="#79cdcd" stroke="#79cdcd" d="M906,-829C906,-829 837,-829 837,-829 831,-829 825,-823 825,-817 825,-817 825,-805 825,-805 825,-799 831,-793 837,-793 837,-793 906,-793 906,-793 912,-793 918,-799 918,-805 918,-805 918,-817 918,-817 918,-823 912,-829 906,-829"/>
<text text-anchor="middle" x="871.5" y="-807.3" font-family="Helvetica,sans-Serif" font-size="14.00">addresses.ts</text>
</g>
<!-- src/core&#45;validators/characters.ts -->
<g id="node3" class="node">
<title>src/core&#45;validators/characters.ts</title>
<path fill="#79cdcd" stroke="#79cdcd" d="M1052,-883C1052,-883 982,-883 982,-883 976,-883 970,-877 970,-871 970,-871 970,-859 970,-859 970,-853 976,-847 982,-847 982,-847 1052,-847 1052,-847 1058,-847 1064,-853 1064,-859 1064,-859 1064,-871 1064,-871 1064,-877 1058,-883 1052,-883"/>
<text text-anchor="middle" x="1017" y="-861.3" font-family="Helvetica,sans-Serif" font-size="14.00">characters.ts</text>
</g>
<!-- src/core&#45;validators/addresses.ts&#45;&gt;src/core&#45;validators/characters.ts -->
<g id="edge1" class="edge">
<title>src/core&#45;validators/addresses.ts&#45;&gt;src/core&#45;validators/characters.ts</title>
<path fill="none" stroke="#528b8b" stroke-width="2" d="M918.3,-828.23C931.63,-833.25 946.34,-838.79 960.21,-844.01"/>
<polygon fill="#528b8b" stroke="#528b8b" stroke-width="2" points="959.06,-847.31 969.65,-847.56 961.52,-840.76 959.06,-847.31"/>
</g>
<!-- src/core&#45;validators/checkers.ts -->
<g id="node4" class="node">
<title>src/core&#45;validators/checkers.ts</title>
<path fill="#79cdcd" stroke="#79cdcd" d="M902,-883C902,-883 841,-883 841,-883 835,-883 829,-877 829,-871 829,-871 829,-859 829,-859 829,-853 835,-847 841,-847 841,-847 902,-847 902,-847 908,-847 914,-853 914,-859 914,-859 914,-871 914,-871 914,-877 908,-883 902,-883"/>
<text text-anchor="middle" x="871.5" y="-861.3" font-family="Helvetica,sans-Serif" font-size="14.00">checkers.ts</text>
</g>
<!-- src/core&#45;validators/checkers.ts&#45;&gt;src/core&#45;validators/characters.ts -->
<g id="edge2" class="edge">
<title>src/core&#45;validators/checkers.ts&#45;&gt;src/core&#45;validators/characters.ts</title>
<path fill="none" stroke="#528b8b" stroke-width="2" d="M914.01,-865C928.2,-865 944.32,-865 959.49,-865"/>
<polygon fill="#528b8b" stroke="#528b8b" stroke-width="2" points="959.8,-868.5 969.8,-865 959.8,-861.5 959.8,-868.5"/>
</g>
<!-- src/crypto/base32.ts -->
<g id="node5" class="node">
<title>src/crypto/base32.ts</title>
<path fill="#79cdcd" stroke="#79cdcd" d="M897,-612C897,-612 846,-612 846,-612 840,-612 834,-606 834,-600 834,-600 834,-588 834,-588 834,-582 840,-576 846,-576 846,-576 897,-576 897,-576 903,-576 909,-582 909,-588 909,-588 909,-600 909,-600 909,-606 903,-612 897,-612"/>
<text text-anchor="middle" x="871.5" y="-590.3" font-family="Helvetica,sans-Serif" font-size="14.00">base32.ts</text>
</g>
<!-- rfc4648 -->
<g id="node22" class="node">
<title>rfc4648</title>
<polygon fill="#cdc8b1" stroke="#8b8878" points="1048,-612 990,-612 986,-608 986,-576 1044,-576 1048,-580 1048,-612"/>
<polyline fill="none" stroke="#8b8878" points="1044,-608 986,-608 "/>
<polyline fill="none" stroke="#8b8878" points="1044,-608 1044,-576 "/>
<polyline fill="none" stroke="#8b8878" points="1044,-608 1048,-612 "/>
<text text-anchor="middle" x="1017" y="-590.3" font-family="Helvetica,sans-Serif" font-size="14.00">rfc4648</text>
</g>
<!-- src/crypto/base32.ts&#45;&gt;rfc4648 -->
<g id="edge30" class="edge">
<title>src/crypto/base32.ts&#45;&gt;rfc4648</title>
<path fill="none" stroke="#8b8878" stroke-width="1.5" stroke-dasharray="5,2" d="M909.08,-594C929.4,-594 954.71,-594 975.61,-594"/>
<polygon fill="#8b8878" stroke="#8b8878" stroke-width="1.5" points="975.78,-597.5 985.78,-594 975.78,-590.5 975.78,-597.5"/>
</g>
<!-- src/crypto/crypto&#45;driver&#45;chloride.ts -->
<g id="node6" class="node">
<title>src/crypto/crypto&#45;driver&#45;chloride.ts</title>
<path fill="#79cdcd" stroke="#79cdcd" d="M558,-678C558,-678 424,-678 424,-678 418,-678 412,-672 412,-666 412,-666 412,-654 412,-654 412,-648 418,-642 424,-642 424,-642 558,-642 558,-642 564,-642 570,-648 570,-654 570,-654 570,-666 570,-666 570,-672 564,-678 558,-678"/>
<text text-anchor="middle" x="491" y="-656.3" font-family="Helvetica,sans-Serif" font-size="14.00">crypto&#45;driver&#45;chloride.ts</text>
</g>
<!-- chloride -->
<g id="node23" class="node">
<title>chloride</title>
<polygon fill="#cdc8b1" stroke="#8b8878" points="721.5,-807 661.5,-807 657.5,-803 657.5,-771 717.5,-771 721.5,-775 721.5,-807"/>
<polyline fill="none" stroke="#8b8878" points="717.5,-803 657.5,-803 "/>
<polyline fill="none" stroke="#8b8878" points="717.5,-803 717.5,-771 "/>
<polyline fill="none" stroke="#8b8878" points="717.5,-803 721.5,-807 "/>
<text text-anchor="middle" x="689.5" y="-785.3" font-family="Helvetica,sans-Serif" font-size="14.00">chloride</text>
</g>
<!-- src/crypto/crypto&#45;driver&#45;chloride.ts&#45;&gt;chloride -->
<g id="edge31" class="edge">
<title>src/crypto/crypto&#45;driver&#45;chloride.ts&#45;&gt;chloride</title>
<path fill="none" stroke="#8b8878" stroke-width="1.5" stroke-dasharray="5,2" d="M507.99,-678.37C528.57,-700.98 566.43,-739.18 606,-762 618.82,-769.39 633.94,-775.08 647.71,-779.29"/>
<polygon fill="#8b8878" stroke="#8b8878" stroke-width="1.5" points="646.87,-782.69 657.44,-782.1 648.8,-775.97 646.87,-782.69"/>
</g>
<!-- src/crypto/crypto&#45;driver&#45;node.ts -->
<g id="node7" class="node">
<title>src/crypto/crypto&#45;driver&#45;node.ts</title>
<path fill="#79cdcd" stroke="#79cdcd" d="M549,-624C549,-624 433,-624 433,-624 427,-624 421,-618 421,-612 421,-612 421,-600 421,-600 421,-594 427,-588 433,-588 433,-588 549,-588 549,-588 555,-588 561,-594 561,-600 561,-600 561,-612 561,-612 561,-618 555,-624 549,-624"/>
<text text-anchor="middle" x="491" y="-602.3" font-family="Helvetica,sans-Serif" font-size="14.00">crypto&#45;driver&#45;node.ts</text>
</g>
<!-- crypto -->
<g id="node24" class="node">
<title>crypto</title>
<polygon fill="#cdc8b1" stroke="#8b8878" points="716.5,-753 666.5,-753 662.5,-749 662.5,-717 712.5,-717 716.5,-721 716.5,-753"/>
<polyline fill="none" stroke="#8b8878" points="712.5,-749 662.5,-749 "/>
<polyline fill="none" stroke="#8b8878" points="712.5,-749 712.5,-717 "/>
<polyline fill="none" stroke="#8b8878" points="712.5,-749 716.5,-753 "/>
<text text-anchor="middle" x="689.5" y="-731.3" font-family="Helvetica,sans-Serif" font-size="14.00">crypto</text>
</g>
<!-- src/crypto/crypto&#45;driver&#45;node.ts&#45;&gt;crypto -->
<g id="edge32" class="edge">
<title>src/crypto/crypto&#45;driver&#45;node.ts&#45;&gt;crypto</title>
<path fill="none" stroke="#8b8878" stroke-width="1.5" stroke-dasharray="5,2" d="M557.75,-624.06C562.15,-626.65 566.3,-629.62 570,-633 598.78,-659.31 576.29,-687.75 606,-713 618.88,-723.94 636.65,-729.5 652.41,-732.3"/>
<polygon fill="#8b8878" stroke="#8b8878" stroke-width="1.5" points="651.99,-735.78 662.39,-733.77 653.01,-728.85 651.99,-735.78"/>
</g>
<!-- src/crypto/crypto&#45;driver&#45;tweetnacl.ts -->
<g id="node8" class="node">
<title>src/crypto/crypto&#45;driver&#45;tweetnacl.ts</title>
<path fill="#79cdcd" stroke="#79cdcd" d="M761,-598C761,-598 618,-598 618,-598 612,-598 606,-592 606,-586 606,-586 606,-574 606,-574 606,-568 612,-562 618,-562 618,-562 761,-562 761,-562 767,-562 773,-568 773,-574 773,-574 773,-586 773,-586 773,-592 767,-598 761,-598"/>
<text text-anchor="middle" x="689.5" y="-576.3" font-family="Helvetica,sans-Serif" font-size="14.00">crypto&#45;driver&#45;tweetnacl.ts</text>
</g>
<!-- tweetnacl -->
<g id="node25" class="node">
<title>tweetnacl</title>
<polygon fill="#cdc8b1" stroke="#8b8878" points="908.5,-518 838.5,-518 834.5,-514 834.5,-482 904.5,-482 908.5,-486 908.5,-518"/>
<polyline fill="none" stroke="#8b8878" points="904.5,-514 834.5,-514 "/>
<polyline fill="none" stroke="#8b8878" points="904.5,-514 904.5,-482 "/>
<polyline fill="none" stroke="#8b8878" points="904.5,-514 908.5,-518 "/>
<text text-anchor="middle" x="871.5" y="-496.3" font-family="Helvetica,sans-Serif" font-size="14.00">tweetnacl</text>
</g>
<!-- src/crypto/crypto&#45;driver&#45;tweetnacl.ts&#45;&gt;tweetnacl -->
<g id="edge33" class="edge">
<title>src/crypto/crypto&#45;driver&#45;tweetnacl.ts&#45;&gt;tweetnacl</title>
<path fill="none" stroke="#8b8878" stroke-width="1.5" stroke-dasharray="5,2" d="M724.77,-561.96C748.18,-549.95 780.09,-534.2 809,-522 814.09,-519.85 819.48,-517.72 824.86,-515.68"/>
<polygon fill="#8b8878" stroke="#8b8878" stroke-width="1.5" points="826.3,-518.88 834.47,-512.13 823.87,-512.32 826.3,-518.88"/>
</g>
<!-- sha256&#45;uint8array -->
<g id="node26" class="node">
<title>sha256&#45;uint8array</title>
<polygon fill="#cdc8b1" stroke="#8b8878" points="934,-753 813,-753 809,-749 809,-717 930,-717 934,-721 934,-753"/>
<polyline fill="none" stroke="#8b8878" points="930,-749 809,-749 "/>
<polyline fill="none" stroke="#8b8878" points="930,-749 930,-717 "/>
<polyline fill="none" stroke="#8b8878" points="930,-749 934,-753 "/>
<text text-anchor="middle" x="871.5" y="-731.3" font-family="Helvetica,sans-Serif" font-size="14.00">sha256&#45;uint8array</text>
</g>
<!-- src/crypto/crypto&#45;driver&#45;tweetnacl.ts&#45;&gt;sha256&#45;uint8array -->
<g id="edge34" class="edge">
<title>src/crypto/crypto&#45;driver&#45;tweetnacl.ts&#45;&gt;sha256&#45;uint8array</title>
<path fill="none" stroke="#8b8878" stroke-width="1.5" stroke-dasharray="5,2" d="M761.58,-598.05C765.71,-600.64 769.57,-603.61 773,-607 806.03,-639.66 778.35,-672.82 806.43,-709.08"/>
<polygon fill="#8b8878" stroke="#8b8878" stroke-width="1.5" points="804.07,-711.7 813.31,-716.87 809.31,-707.06 804.07,-711.7"/>
</g>
<!-- src/crypto/crypto.ts&#45;&gt;src/core&#45;validators/addresses.ts -->
<g id="edge5" class="edge">
<title>src/crypto/crypto.ts&#45;&gt;src/core&#45;validators/addresses.ts</title>
<path fill="none" stroke="#528b8b" stroke-width="2" d="M525.12,-557.18C540.33,-561.01 557.68,-567.63 570,-579 599.25,-605.99 575.96,-634.88 606,-661 664.19,-711.59 710.63,-662.66 773,-708 796.33,-724.96 789.49,-740.76 809,-762 817.07,-770.79 826.8,-779.28 836.11,-786.67"/>
<polygon fill="#528b8b" stroke="#528b8b" stroke-width="2" points="834.08,-789.52 844.14,-792.85 838.35,-783.97 834.08,-789.52"/>
</g>
<!-- src/crypto/crypto.ts&#45;&gt;src/crypto/base32.ts -->
<g id="edge3" class="edge">
<title>src/crypto/crypto.ts&#45;&gt;src/crypto/base32.ts</title>
<path fill="none" stroke="#528b8b" stroke-width="2" d="M525.31,-547.94C578.36,-542.41 685.04,-535.1 773,-553 791.5,-556.77 810.87,-564.12 827.42,-571.57"/>
<polygon fill="#528b8b" stroke="#528b8b" stroke-width="2" points="826.27,-574.9 836.82,-575.95 829.23,-568.55 826.27,-574.9"/>
</g>
<!-- src/crypto/crypto.ts&#45;&gt;src/crypto/crypto&#45;driver&#45;tweetnacl.ts -->
<g id="edge6" class="edge">
<title>src/crypto/crypto.ts&#45;&gt;src/crypto/crypto&#45;driver&#45;tweetnacl.ts</title>
<path fill="none" stroke="#528b8b" stroke-width="2" d="M525.33,-556.75C544.86,-559.53 570.58,-563.2 595.81,-566.79"/>
<polygon fill="#528b8b" stroke="#528b8b" stroke-width="2" points="595.42,-570.27 605.81,-568.22 596.41,-563.34 595.42,-570.27"/>
</g>
<!-- src/crypto/keypair.ts -->
<g id="node10" class="node">
<title>src/crypto/keypair.ts</title>
<path fill="#79cdcd" stroke="#79cdcd" d="M714.5,-652C714.5,-652 664.5,-652 664.5,-652 658.5,-652 652.5,-646 652.5,-640 652.5,-640 652.5,-628 652.5,-628 652.5,-622 658.5,-616 664.5,-616 664.5,-616 714.5,-616 714.5,-616 720.5,-616 726.5,-622 726.5,-628 726.5,-628 726.5,-640 726.5,-640 726.5,-646 720.5,-652 714.5,-652"/>
<text text-anchor="middle" x="689.5" y="-630.3" font-family="Helvetica,sans-Serif" font-size="14.00">keypair.ts</text>
</g>
<!-- src/crypto/crypto.ts&#45;&gt;src/crypto/keypair.ts -->
<g id="edge4" class="edge">
<title>src/crypto/crypto.ts&#45;&gt;src/crypto/keypair.ts</title>
<path fill="none" stroke="#528b8b" stroke-width="2" d="M525.27,-560.87C539.5,-565.33 556.02,-571.41 570,-579 587.82,-588.67 588.1,-597.48 606,-607 617.44,-613.08 630.51,-618.13 642.82,-622.14"/>
<polygon fill="#528b8b" stroke="#528b8b" stroke-width="2" points="641.89,-625.52 652.48,-625.14 643.97,-618.84 641.89,-625.52"/>
</g>
<!-- src/crypto/keypair.ts&#45;&gt;src/core&#45;validators/addresses.ts -->
<g id="edge8" class="edge">
<title>src/crypto/keypair.ts&#45;&gt;src/core&#45;validators/addresses.ts</title>
<path fill="none" stroke="#528b8b" stroke-width="2" d="M726.67,-642.95C742.63,-648.47 760.54,-657.05 773,-670 803.44,-701.64 782.94,-726.66 809,-762 815.76,-771.17 824.65,-779.57 833.56,-786.72"/>
<polygon fill="#528b8b" stroke="#528b8b" stroke-width="2" points="831.62,-789.64 841.69,-792.93 835.87,-784.08 831.62,-789.64"/>
</g>
<!-- src/crypto/keypair.ts&#45;&gt;src/crypto/base32.ts -->
<g id="edge7" class="edge">
<title>src/crypto/keypair.ts&#45;&gt;src/crypto/base32.ts</title>
<path fill="none" stroke="#528b8b" stroke-width="2" d="M726.93,-625.91C754.89,-619.69 793.71,-611.07 823.93,-604.35"/>
<polygon fill="#528b8b" stroke="#528b8b" stroke-width="2" points="824.82,-607.74 833.82,-602.15 823.3,-600.9 824.82,-607.74"/>
</g>
<!-- src/format&#45;validators/format&#45;validator&#45;es4.ts&#45;&gt;src/core&#45;validators/addresses.ts -->
<g id="edge18" class="edge">
<title>src/format&#45;validators/format&#45;validator&#45;es4.ts&#45;&gt;src/core&#45;validators/addresses.ts</title>
<path fill="none" stroke="#528b8b" stroke-width="2" d="M348.4,-832.45C446.29,-829.06 622.43,-822.72 773,-816 786.49,-815.4 801.03,-814.69 814.66,-813.99"/>
<polygon fill="#528b8b" stroke="#528b8b" stroke-width="2" points="815.07,-817.47 824.87,-813.47 814.71,-810.48 815.07,-817.47"/>
</g>
<!-- src/format&#45;validators/format&#45;validator&#45;es4.ts&#45;&gt;src/core&#45;validators/characters.ts -->
<g id="edge16" class="edge">
<title>src/format&#45;validators/format&#45;validator&#45;es4.ts&#45;&gt;src/core&#45;validators/characters.ts</title>
<path fill="none" stroke="#528b8b" stroke-width="2" d="M348.3,-850.13C366.48,-853.41 385.89,-856.61 404,-859 583.04,-882.64 628.55,-884.66 809,-892 864.51,-894.26 879.15,-900.8 934,-892 942.6,-890.62 951.52,-888.48 960.18,-885.98"/>
<polygon fill="#528b8b" stroke="#528b8b" stroke-width="2" points="961.26,-889.31 969.81,-883.05 959.22,-882.62 961.26,-889.31"/>
</g>
<!-- src/format&#45;validators/format&#45;validator&#45;es4.ts&#45;&gt;src/core&#45;validators/checkers.ts -->
<g id="edge17" class="edge">
<title>src/format&#45;validators/format&#45;validator&#45;es4.ts&#45;&gt;src/core&#45;validators/checkers.ts</title>
<path fill="none" stroke="#528b8b" stroke-width="2" d="M348.07,-838.77C471.22,-844.95 713.03,-857.09 818.85,-862.41"/>
<polygon fill="#528b8b" stroke="#528b8b" stroke-width="2" points="818.79,-865.91 828.96,-862.91 819.15,-858.92 818.79,-865.91"/>
</g>
<!-- src/format&#45;validators/format&#45;validator&#45;es4.ts&#45;&gt;src/crypto/crypto.ts -->
<g id="edge15" class="edge">
<title>src/format&#45;validators/format&#45;validator&#45;es4.ts&#45;&gt;src/crypto/crypto.ts</title>
<path fill="none" stroke="#528b8b" stroke-width="2" d="M280.14,-816.83C301.15,-764.13 363.84,-612.89 404,-579 416.05,-568.83 431.93,-562.48 446.77,-558.53"/>
<polygon fill="#528b8b" stroke="#528b8b" stroke-width="2" points="447.89,-561.86 456.81,-556.15 446.28,-555.05 447.89,-561.86"/>
</g>
<!-- src/peer/peer&#45;client.ts -->
<g id="node12" class="node">
<title>src/peer/peer&#45;client.ts</title>
<path fill="#79cdcd" stroke="#79cdcd" d="M307,-402C307,-402 237,-402 237,-402 231,-402 225,-396 225,-390 225,-390 225,-378 225,-378 225,-372 231,-366 237,-366 237,-366 307,-366 307,-366 313,-366 319,-372 319,-378 319,-378 319,-390 319,-390 319,-396 313,-402 307,-402"/>
<text text-anchor="middle" x="272" y="-380.3" font-family="Helvetica,sans-Serif" font-size="14.00">peer&#45;client.ts</text>
</g>
<!-- src/storage/compare.ts -->
<g id="node17" class="node">
<title>src/storage/compare.ts</title>
<path fill="#79cdcd" stroke="#79cdcd" d="M521,-319C521,-319 461,-319 461,-319 455,-319 449,-313 449,-307 449,-307 449,-295 449,-295 449,-289 455,-283 461,-283 461,-283 521,-283 521,-283 527,-283 533,-289 533,-295 533,-295 533,-307 533,-307 533,-313 527,-319 521,-319"/>
<text text-anchor="middle" x="491" y="-297.3" font-family="Helvetica,sans-Serif" font-size="14.00">compare.ts</text>
</g>
<!-- src/peer/peer&#45;client.ts&#45;&gt;src/storage/compare.ts -->
<g id="edge19" class="edge">
<title>src/peer/peer&#45;client.ts&#45;&gt;src/storage/compare.ts</title>
<path fill="none" stroke="#528b8b" stroke-width="2" d="M319.12,-372.18C337.08,-367.16 357.69,-360.88 376,-354 399.48,-345.18 424.85,-333.6 445.68,-323.52"/>
<polygon fill="#528b8b" stroke="#528b8b" stroke-width="2" points="447.46,-326.54 454.91,-319 444.39,-320.25 447.46,-326.54"/>
</g>
<!-- src/peer/peer&#45;server.ts -->
<g id="node13" class="node">
<title>src/peer/peer&#45;server.ts</title>
<path fill="#79cdcd" stroke="#79cdcd" d="M310,-456C310,-456 234,-456 234,-456 228,-456 222,-450 222,-444 222,-444 222,-432 222,-432 222,-426 228,-420 234,-420 234,-420 310,-420 310,-420 316,-420 322,-426 322,-432 322,-432 322,-444 322,-444 322,-450 316,-456 310,-456"/>
<text text-anchor="middle" x="272" y="-434.3" font-family="Helvetica,sans-Serif" font-size="14.00">peer&#45;server.ts</text>
</g>
<!-- superbus&#45;map -->
<g id="node27" class="node">
<title>superbus&#45;map</title>
<polygon fill="#cdc8b1" stroke="#8b8878" points="543,-510 443,-510 439,-506 439,-474 539,-474 543,-478 543,-510"/>
<polyline fill="none" stroke="#8b8878" points="539,-506 439,-506 "/>
<polyline fill="none" stroke="#8b8878" points="539,-506 539,-474 "/>
<polyline fill="none" stroke="#8b8878" points="539,-506 543,-510 "/>
<text text-anchor="middle" x="491" y="-488.3" font-family="Helvetica,sans-Serif" font-size="14.00">superbus&#45;map</text>
</g>
<!-- src/peer/peer.ts&#45;&gt;superbus&#45;map -->
<g id="edge35" class="edge">
<title>src/peer/peer.ts&#45;&gt;superbus&#45;map</title>
<path fill="none" stroke="#8b8878" stroke-width="1.5" stroke-dasharray="5,2" d="M301.37,-492C333.53,-492 386.9,-492 428.69,-492"/>
<polygon fill="#8b8878" stroke="#8b8878" stroke-width="1.5" points="428.77,-495.5 438.77,-492 428.77,-488.5 428.77,-495.5"/>
</g>
<!-- src/query/query.ts -->
<g id="node16" class="node">
<title>src/query/query.ts</title>
<path fill="#79cdcd" stroke="#79cdcd" d="M511,-136C511,-136 471,-136 471,-136 465,-136 459,-130 459,-124 459,-124 459,-112 459,-112 459,-106 465,-100 471,-100 471,-100 511,-100 511,-100 517,-100 523,-106 523,-112 523,-112 523,-124 523,-124 523,-130 517,-136 511,-136"/>
<text text-anchor="middle" x="491" y="-114.3" font-family="Helvetica,sans-Serif" font-size="14.00">query.ts</text>
</g>
<!-- src/query&#45;follower/query&#45;follower.ts&#45;&gt;src/query/query.ts -->
<g id="edge20" class="edge">
<title>src/query&#45;follower/query&#45;follower.ts&#45;&gt;src/query/query.ts</title>
<path fill="none" stroke="#528b8b" stroke-width="2" d="M330.01,-151.91C367.34,-144 415.25,-133.85 448.87,-126.72"/>
<polygon fill="#528b8b" stroke="#528b8b" stroke-width="2" points="449.77,-130.11 458.82,-124.61 448.31,-123.26 449.77,-130.11"/>
</g>
<!-- superbus -->
<g id="node28" class="node">
<title>superbus</title>
<polygon fill="#cdc8b1" stroke="#8b8878" points="527,-211 459,-211 455,-207 455,-175 523,-175 527,-179 527,-211"/>
<polyline fill="none" stroke="#8b8878" points="523,-207 455,-207 "/>
<polyline fill="none" stroke="#8b8878" points="523,-207 523,-175 "/>
<polyline fill="none" stroke="#8b8878" points="523,-207 527,-211 "/>
<text text-anchor="middle" x="491" y="-189.3" font-family="Helvetica,sans-Serif" font-size="14.00">superbus</text>
</g>
<!-- src/query&#45;follower/query&#45;follower.ts&#45;&gt;superbus -->
<g id="edge36" class="edge">
<title>src/query&#45;follower/query&#45;follower.ts&#45;&gt;superbus</title>
<path fill="none" stroke="#8b8878" stroke-width="1.5" stroke-dasharray="5,2" d="M330.01,-171.62C365.86,-176.41 411.47,-182.51 444.81,-186.96"/>
<polygon fill="#8b8878" stroke="#8b8878" stroke-width="1.5" points="444.36,-190.43 454.74,-188.29 445.29,-183.49 444.36,-190.43"/>
</g>
<!-- src/storage/lock.ts -->
<g id="node18" class="node">
<title>src/storage/lock.ts</title>
<path fill="#79cdcd" stroke="#79cdcd" d="M506.5,-265C506.5,-265 475.5,-265 475.5,-265 469.5,-265 463.5,-259 463.5,-253 463.5,-253 463.5,-241 463.5,-241 463.5,-235 469.5,-229 475.5,-229 475.5,-229 506.5,-229 506.5,-229 512.5,-229 518.5,-235 518.5,-241 518.5,-241 518.5,-253 518.5,-253 518.5,-259 512.5,-265 506.5,-265"/>
<text text-anchor="middle" x="491" y="-243.3" font-family="Helvetica,sans-Serif" font-size="14.00">lock.ts</text>
</g>
<!-- src/storage/storage&#45;async.ts&#45;&gt;src/crypto/crypto.ts -->
<g id="edge22" class="edge">
<title>src/storage/storage&#45;async.ts&#45;&gt;src/crypto/crypto.ts</title>
<path fill="none" stroke="#528b8b" stroke-width="2" d="M330.05,-318.97C347.26,-327.07 364.6,-338.42 376,-354 419.93,-414.02 356.87,-461.46 404,-519 414.64,-531.99 431.02,-539.88 446.64,-544.66"/>
<polygon fill="#528b8b" stroke="#528b8b" stroke-width="2" points="446.16,-548.16 456.73,-547.38 447.98,-541.4 446.16,-548.16"/>
</g>
<!-- src/storage/storage&#45;async.ts&#45;&gt;src/storage/compare.ts -->
<g id="edge21" class="edge">
<title>src/storage/storage&#45;async.ts&#45;&gt;src/storage/compare.ts</title>
<path fill="none" stroke="#528b8b" stroke-width="2" d="M330.01,-301C363.67,-301 405.92,-301 438.56,-301"/>
<polygon fill="#528b8b" stroke="#528b8b" stroke-width="2" points="438.79,-304.5 448.79,-301 438.79,-297.5 438.79,-304.5"/>
</g>
<!-- src/storage/storage&#45;async.ts&#45;&gt;superbus -->
<g id="edge37" class="edge">
<title>src/storage/storage&#45;async.ts&#45;&gt;superbus</title>
<path fill="none" stroke="#8b8878" stroke-width="1.5" stroke-dasharray="5,2" d="M330.24,-295.01C346.38,-291.06 363.05,-284.59 376,-274 397.85,-256.14 382.29,-235.04 404,-217 415.42,-207.52 430.33,-201.77 444.52,-198.29"/>
<polygon fill="#8b8878" stroke="#8b8878" stroke-width="1.5" points="445.61,-201.64 454.66,-196.14 444.15,-194.79 445.61,-201.64"/>
</g>
<!-- src/storage/storage&#45;cache.ts -->
<g id="node20" class="node">
<title>src/storage/storage&#45;cache.ts</title>
<path fill="#79cdcd" stroke="#79cdcd" d="M120,-265C120,-265 28,-265 28,-265 22,-265 16,-259 16,-253 16,-253 16,-241 16,-241 16,-235 22,-229 28,-229 28,-229 120,-229 120,-229 126,-229 132,-235 132,-241 132,-241 132,-253 132,-253 132,-259 126,-265 120,-265"/>
<text text-anchor="middle" x="74" y="-243.3" font-family="Helvetica,sans-Serif" font-size="14.00">storage&#45;cache.ts</text>
</g>
<!-- src/storage/storage&#45;cache.ts&#45;&gt;src/crypto/crypto.ts -->
<g id="edge26" class="edge">
<title>src/storage/storage&#45;cache.ts&#45;&gt;src/crypto/crypto.ts</title>
<path fill="none" stroke="#528b8b" stroke-width="2" d="M82.02,-265.06C93.33,-294.52 115.95,-354.86 132,-407 150.65,-467.58 118.26,-505.7 168,-545 209.99,-578.18 369.2,-565.65 446.86,-557.22"/>
<polygon fill="#528b8b" stroke="#528b8b" stroke-width="2" points="447.26,-560.7 456.81,-556.12 446.49,-553.74 447.26,-560.7"/>
</g>
<!-- src/storage/storage&#45;cache.ts&#45;&gt;src/query&#45;follower/query&#45;follower.ts -->
<g id="edge24" class="edge">
<title>src/storage/storage&#45;cache.ts&#45;&gt;src/query&#45;follower/query&#45;follower.ts</title>
<path fill="none" stroke="#528b8b" stroke-width="2" d="M117.53,-228.99C147.22,-216.42 187.04,-199.55 218.68,-186.16"/>
<polygon fill="#528b8b" stroke="#528b8b" stroke-width="2" points="220.37,-189.24 228.22,-182.12 217.64,-182.79 220.37,-189.24"/>
</g>
<!-- src/storage/storage&#45;cache.ts&#45;&gt;src/query/query.ts -->
<g id="edge23" class="edge">
<title>src/storage/storage&#45;cache.ts&#45;&gt;src/query/query.ts</title>
<path fill="none" stroke="#528b8b" stroke-width="2" d="M78.93,-228.98C87.76,-193.47 112.85,-115.13 168,-83 257.43,-30.91 384.71,-71.81 449.19,-98.92"/>
<polygon fill="#528b8b" stroke="#528b8b" stroke-width="2" points="448.04,-102.23 458.61,-102.97 450.8,-95.8 448.04,-102.23"/>
</g>
<!-- src/storage/storage&#45;cache.ts&#45;&gt;src/storage/storage&#45;async.ts -->
<g id="edge25" class="edge">
<title>src/storage/storage&#45;cache.ts&#45;&gt;src/storage/storage&#45;async.ts</title>
<path fill="none" stroke="#528b8b" stroke-width="2" d="M132.48,-263.94C144.22,-267.33 156.49,-270.82 168,-274 179.62,-277.21 192.01,-280.54 204.02,-283.71"/>
<polygon fill="#528b8b" stroke="#528b8b" stroke-width="2" points="203.43,-287.18 213.99,-286.34 205.21,-280.41 203.43,-287.18"/>
</g>
<!-- fast&#45;deep&#45;equal -->
<g id="node29" class="node">
<title>fast&#45;deep&#45;equal</title>
<polygon fill="#cdc8b1" stroke="#8b8878" points="327,-128 221,-128 217,-124 217,-92 323,-92 327,-96 327,-128"/>
<polyline fill="none" stroke="#8b8878" points="323,-124 217,-124 "/>
<polyline fill="none" stroke="#8b8878" points="323,-124 323,-92 "/>
<polyline fill="none" stroke="#8b8878" points="323,-124 327,-128 "/>
<text text-anchor="middle" x="272" y="-106.3" font-family="Helvetica,sans-Serif" font-size="14.00">fast&#45;deep&#45;equal</text>
</g>
<!-- src/storage/storage&#45;cache.ts&#45;&gt;fast&#45;deep&#45;equal -->
<g id="edge38" class="edge">
<title>src/storage/storage&#45;cache.ts&#45;&gt;fast&#45;deep&#45;equal</title>
<path fill="none" stroke="#8b8878" stroke-width="1.5" stroke-dasharray="5,2" d="M84.69,-228.99C99.29,-203.68 129.36,-157.99 168,-134 179.74,-126.71 193.47,-121.64 207.02,-118.1"/>
<polygon fill="#8b8878" stroke="#8b8878" stroke-width="1.5" points="207.89,-121.49 216.81,-115.79 206.28,-114.68 207.89,-121.49"/>
</g>
<!-- fast&#45;json&#45;stable&#45;stringify -->
<g id="node30" class="node">
<title>fast&#45;json&#45;stable&#45;stringify</title>
<polygon fill="#cdc8b1" stroke="#8b8878" points="351.5,-36 196.5,-36 192.5,-32 192.5,0 347.5,0 351.5,-4 351.5,-36"/>
<polyline fill="none" stroke="#8b8878" points="347.5,-32 192.5,-32 "/>
<polyline fill="none" stroke="#8b8878" points="347.5,-32 347.5,0 "/>
<polyline fill="none" stroke="#8b8878" points="347.5,-32 351.5,-36 "/>
<text text-anchor="middle" x="272" y="-14.3" font-family="Helvetica,sans-Serif" font-size="14.00">fast&#45;json&#45;stable&#45;stringify</text>
</g>
<!-- src/storage/storage&#45;cache.ts&#45;&gt;fast&#45;json&#45;stable&#45;stringify -->
<g id="edge39" class="edge">
<title>src/storage/storage&#45;cache.ts&#45;&gt;fast&#45;json&#45;stable&#45;stringify</title>
<path fill="none" stroke="#8b8878" stroke-width="1.5" stroke-dasharray="5,2" d="M78.45,-228.81C86.76,-190.11 111.48,-99.12 168,-50 172.57,-46.03 177.63,-42.55 182.99,-39.5"/>
<polygon fill="#8b8878" stroke="#8b8878" stroke-width="1.5" points="184.93,-42.43 192.24,-34.76 181.74,-36.2 184.93,-42.43"/>
</g>
<!-- src/storage/storage&#45;driver&#45;async&#45;memory.ts&#45;&gt;src/query/query.ts -->
<g id="edge28" class="edge">
<title>src/storage/storage&#45;driver&#45;async&#45;memory.ts&#45;&gt;src/query/query.ts</title>
<path fill="none" stroke="#528b8b" stroke-width="2" d="M356.83,-228.92C363.68,-225.6 370.19,-221.66 376,-217 396.17,-200.82 385.78,-184.35 404,-166 416.87,-153.04 433.98,-142.54 449.54,-134.7"/>
<polygon fill="#528b8b" stroke="#528b8b" stroke-width="2" points="451.48,-137.65 458.98,-130.16 448.45,-131.34 451.48,-137.65"/>
</g>
<!-- src/storage/storage&#45;driver&#45;async&#45;memory.ts&#45;&gt;src/storage/compare.ts -->
<g id="edge27" class="edge">
<title>src/storage/storage&#45;driver&#45;async&#45;memory.ts&#45;&gt;src/storage/compare.ts</title>
<path fill="none" stroke="#528b8b" stroke-width="2" d="M345.56,-265.06C376.18,-272.67 411.1,-281.36 438.93,-288.29"/>
<polygon fill="#528b8b" stroke="#528b8b" stroke-width="2" points="438.29,-291.74 448.84,-290.76 439.98,-284.95 438.29,-291.74"/>
</g>
<!-- src/storage/storage&#45;driver&#45;async&#45;memory.ts&#45;&gt;src/storage/lock.ts -->
<g id="edge29" class="edge">
<title>src/storage/storage&#45;driver&#45;async&#45;memory.ts&#45;&gt;src/storage/lock.ts</title>
<path fill="none" stroke="#528b8b" stroke-width="2" d="M376.1,-247C403.6,-247 431.57,-247 452.91,-247"/>
<polygon fill="#528b8b" stroke="#528b8b" stroke-width="2" points="453.12,-250.5 463.12,-247 453.12,-243.5 453.12,-250.5"/>
</g>
</g>
</svg>
