<?xml version="1.0" encoding="UTF-8" standalone="no"?>
<!DOCTYPE svg PUBLIC "-//W3C//DTD SVG 1.1//EN"
 "http://www.w3.org/Graphics/SVG/1.1/DTD/svg11.dtd">
<!-- Generated by graphviz version 2.44.1 (20200629.0846)
 -->
<!-- Title: G Pages: 1 -->
<svg width="1063pt" height="825pt"
 viewBox="0.00 0.00 1063.00 825.00" xmlns="http://www.w3.org/2000/svg" xmlns:xlink="http://www.w3.org/1999/xlink">
<g id="graph0" class="graph" transform="scale(1 1) rotate(0) translate(4 821)">
<title>G</title>
<polygon fill="white" stroke="transparent" points="-4,4 -4,-821 1059,-821 1059,4 -4,4"/>
<g id="clust1" class="cluster">
<title>cluster7226582756</title>
<path fill="none" stroke="#8b7d6b" stroke-width="2" d="M20,-8C20,-8 1035,-8 1035,-8 1041,-8 1047,-14 1047,-20 1047,-20 1047,-797 1047,-797 1047,-803 1041,-809 1035,-809 1035,-809 20,-809 20,-809 14,-809 8,-803 8,-797 8,-797 8,-20 8,-20 8,-14 14,-8 20,-8"/>
<text text-anchor="start" x="517" y="-794.8" font-family="Helvetica,sans-Serif" font-weight="bold" font-size="14.00">src</text>
</g>
<g id="clust3" class="cluster">
<title>cluster5374325241</title>
<path fill="bisque" stroke="#8b7d6b" stroke-width="2" d="M452,-16C452,-16 897,-16 897,-16 903,-16 909,-22 909,-28 909,-28 909,-281 909,-281 909,-287 903,-293 897,-293 897,-293 452,-293 452,-293 446,-293 440,-287 440,-281 440,-281 440,-28 440,-28 440,-22 446,-16 452,-16"/>
<text text-anchor="start" x="653.5" y="-278.8" font-family="Helvetica,sans-Serif" font-weight="bold" font-size="14.00">crypto</text>
</g>
<g id="clust4" class="cluster">
<title>cluster7245130267</title>
<path fill="bisque" stroke="#8b7d6b" stroke-width="2" d="M410,-372C410,-372 754.5,-372 754.5,-372 760.5,-372 766.5,-378 766.5,-384 766.5,-384 766.5,-435 766.5,-435 766.5,-441 760.5,-447 754.5,-447 754.5,-447 410,-447 410,-447 404,-447 398,-441 398,-435 398,-435 398,-384 398,-384 398,-378 404,-372 410,-372"/>
<text text-anchor="start" x="526.25" y="-432.8" font-family="Helvetica,sans-Serif" font-weight="bold" font-size="14.00">format&#45;validators</text>
</g>
<g id="clust5" class="cluster">
<title>cluster9110593617</title>
<path fill="bisque" stroke="#8b7d6b" stroke-width="2" d="M166,-455C166,-455 724,-455 724,-455 730,-455 736,-461 736,-467 736,-467 736,-766 736,-766 736,-772 730,-778 724,-778 724,-778 166,-778 166,-778 160,-778 154,-772 154,-766 154,-766 154,-467 154,-467 154,-461 160,-455 166,-455"/>
<text text-anchor="start" x="420.5" y="-763.8" font-family="Helvetica,sans-Serif" font-weight="bold" font-size="14.00">storage</text>
</g>
<g id="clust2" class="cluster">
<title>cluster9578056515</title>
<path fill="bisque" stroke="#8b7d6b" stroke-width="2" d="M806.5,-301C806.5,-301 1027,-301 1027,-301 1033,-301 1039,-307 1039,-313 1039,-313 1039,-418 1039,-418 1039,-424 1033,-430 1027,-430 1027,-430 806.5,-430 806.5,-430 800.5,-430 794.5,-424 794.5,-418 794.5,-418 794.5,-313 794.5,-313 794.5,-307 800.5,-301 806.5,-301"/>
<text text-anchor="start" x="868.25" y="-415.8" font-family="Helvetica,sans-Serif" font-weight="bold" font-size="14.00">core&#45;validators</text>
</g>
<!-- src/example&#45;app.ts -->
<g id="node1" class="node">
<title>src/example&#45;app.ts</title>
<path fill="#79cdcd" stroke="#79cdcd" d="M114,-470C114,-470 28,-470 28,-470 22,-470 16,-464 16,-458 16,-458 16,-446 16,-446 16,-440 22,-434 28,-434 28,-434 114,-434 114,-434 120,-434 126,-440 126,-446 126,-446 126,-458 126,-458 126,-464 120,-470 114,-470"/>
<text text-anchor="middle" x="71" y="-448.3" font-family="Helvetica,sans-Serif" font-size="14.00">example&#45;app.ts</text>
</g>
<!-- src/crypto/crypto&#45;driver&#45;tweetnacl.ts -->
<g id="node8" class="node">
<title>src/crypto/crypto&#45;driver&#45;tweetnacl.ts</title>
<path fill="#79cdcd" stroke="#79cdcd" d="M749,-60C749,-60 606,-60 606,-60 600,-60 594,-54 594,-48 594,-48 594,-36 594,-36 594,-30 600,-24 606,-24 606,-24 749,-24 749,-24 755,-24 761,-30 761,-36 761,-36 761,-48 761,-48 761,-54 755,-60 749,-60"/>
<text text-anchor="middle" x="677.5" y="-38.3" font-family="Helvetica,sans-Serif" font-size="14.00">crypto&#45;driver&#45;tweetnacl.ts</text>
</g>
<!-- src/example&#45;app.ts&#45;&gt;src/crypto/crypto&#45;driver&#45;tweetnacl.ts -->
<g id="edge18" class="edge">
<title>src/example&#45;app.ts&#45;&gt;src/crypto/crypto&#45;driver&#45;tweetnacl.ts</title>
<path fill="none" stroke="#528b8b" stroke-width="2" d="M77.68,-433.62C88.19,-402.25 113.37,-337.89 154,-298 283.27,-171.09 487.84,-96.36 598.77,-62.98"/>
<polygon fill="#528b8b" stroke="#528b8b" stroke-width="2" points="599.97,-66.27 608.55,-60.07 597.97,-59.56 599.97,-66.27"/>
</g>
<!-- src/crypto/crypto.ts -->
<g id="node10" class="node">
<title>src/crypto/crypto.ts</title>
<path fill="#79cdcd" stroke="#79cdcd" d="M504,-262C504,-262 460,-262 460,-262 454,-262 448,-256 448,-250 448,-250 448,-238 448,-238 448,-232 454,-226 460,-226 460,-226 504,-226 504,-226 510,-226 516,-232 516,-238 516,-238 516,-250 516,-250 516,-256 510,-262 504,-262"/>
<text text-anchor="middle" x="482" y="-240.3" font-family="Helvetica,sans-Serif" font-size="14.00">crypto.ts</text>
</g>
<!-- src/example&#45;app.ts&#45;&gt;src/crypto/crypto.ts -->
<g id="edge17" class="edge">
<title>src/example&#45;app.ts&#45;&gt;src/crypto/crypto.ts</title>
<path fill="none" stroke="#528b8b" stroke-width="2" d="M106.25,-433.89C120.93,-426.17 138.28,-417.09 154,-409 255.92,-356.57 376.43,-296.17 438.82,-265.02"/>
<polygon fill="#528b8b" stroke="#528b8b" stroke-width="2" points="440.57,-268.06 447.96,-260.46 437.45,-261.79 440.57,-268.06"/>
</g>
<!-- src/format&#45;validators/format&#45;validator&#45;es4.ts -->
<g id="node12" class="node">
<title>src/format&#45;validators/format&#45;validator&#45;es4.ts</title>
<path fill="#79cdcd" stroke="#79cdcd" d="M546,-416C546,-416 418,-416 418,-416 412,-416 406,-410 406,-404 406,-404 406,-392 406,-392 406,-386 412,-380 418,-380 418,-380 546,-380 546,-380 552,-380 558,-386 558,-392 558,-392 558,-404 558,-404 558,-410 552,-416 546,-416"/>
<text text-anchor="middle" x="482" y="-394.3" font-family="Helvetica,sans-Serif" font-size="14.00">format&#45;validator&#45;es4.ts</text>
</g>
<!-- src/example&#45;app.ts&#45;&gt;src/format&#45;validators/format&#45;validator&#45;es4.ts -->
<g id="edge13" class="edge">
<title>src/example&#45;app.ts&#45;&gt;src/format&#45;validators/format&#45;validator&#45;es4.ts</title>
<path fill="none" stroke="#528b8b" stroke-width="2" d="M126.31,-444.83C195.18,-435.74 314.7,-419.96 395.78,-409.25"/>
<polygon fill="#528b8b" stroke="#528b8b" stroke-width="2" points="396.5,-412.69 405.96,-407.91 395.59,-405.75 396.5,-412.69"/>
</g>
<!-- src/storage/follower.ts -->
<g id="node15" class="node">
<title>src/storage/follower.ts</title>
<path fill="#79cdcd" stroke="#79cdcd" d="M292.5,-594C292.5,-594 239.5,-594 239.5,-594 233.5,-594 227.5,-588 227.5,-582 227.5,-582 227.5,-570 227.5,-570 227.5,-564 233.5,-558 239.5,-558 239.5,-558 292.5,-558 292.5,-558 298.5,-558 304.5,-564 304.5,-570 304.5,-570 304.5,-582 304.5,-582 304.5,-588 298.5,-594 292.5,-594"/>
<text text-anchor="middle" x="266" y="-572.3" font-family="Helvetica,sans-Serif" font-size="14.00">follower.ts</text>
</g>
<!-- src/example&#45;app.ts&#45;&gt;src/storage/follower.ts -->
<g id="edge16" class="edge">
<title>src/example&#45;app.ts&#45;&gt;src/storage/follower.ts</title>
<path fill="none" stroke="#528b8b" stroke-width="2" d="M96.41,-470.03C112.53,-481.75 134.26,-497.18 154,-510 176.87,-524.85 203.06,-540.49 224.26,-552.81"/>
<polygon fill="#528b8b" stroke="#528b8b" stroke-width="2" points="222.61,-555.9 233.01,-557.88 226.11,-549.84 222.61,-555.9"/>
</g>
<!-- src/storage/storage&#45;async.ts -->
<g id="node19" class="node">
<title>src/storage/storage&#45;async.ts</title>
<path fill="#79cdcd" stroke="#79cdcd" d="M312,-501C312,-501 220,-501 220,-501 214,-501 208,-495 208,-489 208,-489 208,-477 208,-477 208,-471 214,-465 220,-465 220,-465 312,-465 312,-465 318,-465 324,-471 324,-477 324,-477 324,-489 324,-489 324,-495 318,-501 312,-501"/>
<text text-anchor="middle" x="266" y="-479.3" font-family="Helvetica,sans-Serif" font-size="14.00">storage&#45;async.ts</text>
</g>
<!-- src/example&#45;app.ts&#45;&gt;src/storage/storage&#45;async.ts -->
<g id="edge15" class="edge">
<title>src/example&#45;app.ts&#45;&gt;src/storage/storage&#45;async.ts</title>
<path fill="none" stroke="#528b8b" stroke-width="2" d="M126.02,-460.68C148.36,-464.27 174.5,-468.46 198.05,-472.25"/>
<polygon fill="#528b8b" stroke="#528b8b" stroke-width="2" points="197.53,-475.71 207.96,-473.84 198.64,-468.8 197.53,-475.71"/>
</g>
<!-- src/storage/storage&#45;driver&#45;async&#45;memory.ts -->
<g id="node20" class="node">
<title>src/storage/storage&#45;driver&#45;async&#45;memory.ts</title>
<path fill="#79cdcd" stroke="#79cdcd" d="M358,-670C358,-670 174,-670 174,-670 168,-670 162,-664 162,-658 162,-658 162,-646 162,-646 162,-640 168,-634 174,-634 174,-634 358,-634 358,-634 364,-634 370,-640 370,-646 370,-646 370,-658 370,-658 370,-664 364,-670 358,-670"/>
<text text-anchor="middle" x="266" y="-648.3" font-family="Helvetica,sans-Serif" font-size="14.00">storage&#45;driver&#45;async&#45;memory.ts</text>
</g>
<!-- src/example&#45;app.ts&#45;&gt;src/storage/storage&#45;driver&#45;async&#45;memory.ts -->
<g id="edge14" class="edge">
<title>src/example&#45;app.ts&#45;&gt;src/storage/storage&#45;driver&#45;async&#45;memory.ts</title>
<path fill="none" stroke="#528b8b" stroke-width="2" d="M77.55,-470.26C87.87,-501.38 112.76,-565 154,-603 166,-614.05 180.89,-622.9 195.83,-629.87"/>
<polygon fill="#528b8b" stroke="#528b8b" stroke-width="2" points="194.55,-633.13 205.11,-633.97 197.38,-626.73 194.55,-633.13"/>
</g>
<!-- src/core&#45;validators/addresses.ts -->
<g id="node2" class="node">
<title>src/core&#45;validators/addresses.ts</title>
<path fill="#79cdcd" stroke="#79cdcd" d="M883.5,-345C883.5,-345 814.5,-345 814.5,-345 808.5,-345 802.5,-339 802.5,-333 802.5,-333 802.5,-321 802.5,-321 802.5,-315 808.5,-309 814.5,-309 814.5,-309 883.5,-309 883.5,-309 889.5,-309 895.5,-315 895.5,-321 895.5,-321 895.5,-333 895.5,-333 895.5,-339 889.5,-345 883.5,-345"/>
<text text-anchor="middle" x="849" y="-323.3" font-family="Helvetica,sans-Serif" font-size="14.00">addresses.ts</text>
</g>
<!-- src/core&#45;validators/characters.ts -->
<g id="node3" class="node">
<title>src/core&#45;validators/characters.ts</title>
<path fill="#79cdcd" stroke="#79cdcd" d="M1019,-399C1019,-399 949,-399 949,-399 943,-399 937,-393 937,-387 937,-387 937,-375 937,-375 937,-369 943,-363 949,-363 949,-363 1019,-363 1019,-363 1025,-363 1031,-369 1031,-375 1031,-375 1031,-387 1031,-387 1031,-393 1025,-399 1019,-399"/>
<text text-anchor="middle" x="984" y="-377.3" font-family="Helvetica,sans-Serif" font-size="14.00">characters.ts</text>
</g>
<!-- src/core&#45;validators/addresses.ts&#45;&gt;src/core&#45;validators/characters.ts -->
<g id="edge1" class="edge">
<title>src/core&#45;validators/addresses.ts&#45;&gt;src/core&#45;validators/characters.ts</title>
<path fill="none" stroke="#528b8b" stroke-width="2" d="M894.66,-345.13C905.62,-349.58 917.48,-354.4 928.84,-359.01"/>
<polygon fill="#528b8b" stroke="#528b8b" stroke-width="2" points="927.65,-362.31 938.23,-362.82 930.29,-355.82 927.65,-362.31"/>
</g>
<!-- src/core&#45;validators/checkers.ts -->
<g id="node4" class="node">
<title>src/core&#45;validators/checkers.ts</title>
<path fill="#79cdcd" stroke="#79cdcd" d="M879.5,-399C879.5,-399 818.5,-399 818.5,-399 812.5,-399 806.5,-393 806.5,-387 806.5,-387 806.5,-375 806.5,-375 806.5,-369 812.5,-363 818.5,-363 818.5,-363 879.5,-363 879.5,-363 885.5,-363 891.5,-369 891.5,-375 891.5,-375 891.5,-387 891.5,-387 891.5,-393 885.5,-399 879.5,-399"/>
<text text-anchor="middle" x="849" y="-377.3" font-family="Helvetica,sans-Serif" font-size="14.00">checkers.ts</text>
</g>
<!-- src/core&#45;validators/checkers.ts&#45;&gt;src/core&#45;validators/characters.ts -->
<g id="edge2" class="edge">
<title>src/core&#45;validators/checkers.ts&#45;&gt;src/core&#45;validators/characters.ts</title>
<path fill="none" stroke="#528b8b" stroke-width="2" d="M891.72,-381C902.79,-381 914.94,-381 926.66,-381"/>
<polygon fill="#528b8b" stroke="#528b8b" stroke-width="2" points="926.81,-384.5 936.81,-381 926.81,-377.5 926.81,-384.5"/>
</g>
<!-- src/crypto/base32.ts -->
<g id="node5" class="node">
<title>src/crypto/base32.ts</title>
<path fill="#79cdcd" stroke="#79cdcd" d="M874.5,-125C874.5,-125 823.5,-125 823.5,-125 817.5,-125 811.5,-119 811.5,-113 811.5,-113 811.5,-101 811.5,-101 811.5,-95 817.5,-89 823.5,-89 823.5,-89 874.5,-89 874.5,-89 880.5,-89 886.5,-95 886.5,-101 886.5,-101 886.5,-113 886.5,-113 886.5,-119 880.5,-125 874.5,-125"/>
<text text-anchor="middle" x="849" y="-103.3" font-family="Helvetica,sans-Serif" font-size="14.00">base32.ts</text>
</g>
<!-- src/crypto/crypto&#45;driver&#45;chloride.ts -->
<g id="node6" class="node">
<title>src/crypto/crypto&#45;driver&#45;chloride.ts</title>
<path fill="#79cdcd" stroke="#79cdcd" d="M744.5,-208C744.5,-208 610.5,-208 610.5,-208 604.5,-208 598.5,-202 598.5,-196 598.5,-196 598.5,-184 598.5,-184 598.5,-178 604.5,-172 610.5,-172 610.5,-172 744.5,-172 744.5,-172 750.5,-172 756.5,-178 756.5,-184 756.5,-184 756.5,-196 756.5,-196 756.5,-202 750.5,-208 744.5,-208"/>
<text text-anchor="middle" x="677.5" y="-186.3" font-family="Helvetica,sans-Serif" font-size="14.00">crypto&#45;driver&#45;chloride.ts</text>
</g>
<!-- src/crypto/crypto&#45;types.ts -->
<g id="node9" class="node">
<title>src/crypto/crypto&#45;types.ts</title>
<path fill="#79cdcd" stroke="#79cdcd" d="M889,-208C889,-208 809,-208 809,-208 803,-208 797,-202 797,-196 797,-196 797,-184 797,-184 797,-178 803,-172 809,-172 809,-172 889,-172 889,-172 895,-172 901,-178 901,-184 901,-184 901,-196 901,-196 901,-202 895,-208 889,-208"/>
<text text-anchor="middle" x="849" y="-186.3" font-family="Helvetica,sans-Serif" font-size="14.00">crypto&#45;types.ts</text>
</g>
<!-- src/crypto/crypto&#45;driver&#45;chloride.ts&#45;&gt;src/crypto/crypto&#45;types.ts -->
<g id="edge3" class="edge">
<title>src/crypto/crypto&#45;driver&#45;chloride.ts&#45;&gt;src/crypto/crypto&#45;types.ts</title>
<path fill="none" stroke="#528b8b" stroke-width="2" d="M756.8,-190C766.74,-190 776.79,-190 786.42,-190"/>
<polygon fill="#528b8b" stroke="#528b8b" stroke-width="2" points="786.67,-193.5 796.67,-190 786.67,-186.5 786.67,-193.5"/>
</g>
<!-- src/crypto/crypto&#45;driver&#45;node.ts -->
<g id="node7" class="node">
<title>src/crypto/crypto&#45;driver&#45;node.ts</title>
<path fill="#79cdcd" stroke="#79cdcd" d="M735.5,-154C735.5,-154 619.5,-154 619.5,-154 613.5,-154 607.5,-148 607.5,-142 607.5,-142 607.5,-130 607.5,-130 607.5,-124 613.5,-118 619.5,-118 619.5,-118 735.5,-118 735.5,-118 741.5,-118 747.5,-124 747.5,-130 747.5,-130 747.5,-142 747.5,-142 747.5,-148 741.5,-154 735.5,-154"/>
<text text-anchor="middle" x="677.5" y="-132.3" font-family="Helvetica,sans-Serif" font-size="14.00">crypto&#45;driver&#45;node.ts</text>
</g>
<!-- src/crypto/crypto&#45;driver&#45;node.ts&#45;&gt;src/crypto/crypto&#45;types.ts -->
<g id="edge4" class="edge">
<title>src/crypto/crypto&#45;driver&#45;node.ts&#45;&gt;src/crypto/crypto&#45;types.ts</title>
<path fill="none" stroke="#528b8b" stroke-width="2" d="M738.2,-154.12C747.68,-157.05 757.37,-160.09 766.5,-163 773.08,-165.1 779.95,-167.33 786.79,-169.56"/>
<polygon fill="#528b8b" stroke="#528b8b" stroke-width="2" points="786.16,-173.04 796.76,-172.83 788.35,-166.39 786.16,-173.04"/>
</g>
<!-- src/crypto/crypto&#45;driver&#45;tweetnacl.ts&#45;&gt;src/crypto/crypto&#45;types.ts -->
<g id="edge5" class="edge">
<title>src/crypto/crypto&#45;driver&#45;tweetnacl.ts&#45;&gt;src/crypto/crypto&#45;types.ts</title>
<path fill="none" stroke="#528b8b" stroke-width="2" d="M716.86,-60.03C733.25,-68.86 751.92,-80.5 766.5,-94 782.42,-108.74 780.74,-117.22 794.5,-134 803.11,-144.5 813.25,-155.43 822.38,-164.82"/>
<polygon fill="#528b8b" stroke="#528b8b" stroke-width="2" points="819.92,-167.31 829.43,-171.98 824.91,-162.4 819.92,-167.31"/>
</g>
<!-- src/crypto/crypto.ts&#45;&gt;src/core&#45;validators/addresses.ts -->
<g id="edge9" class="edge">
<title>src/crypto/crypto.ts&#45;&gt;src/core&#45;validators/addresses.ts</title>
<path fill="none" stroke="#528b8b" stroke-width="2" d="M516.47,-252.34C538.48,-257.78 567.92,-264.95 594,-271 662.05,-286.78 740.6,-303.93 792.12,-315.04"/>
<polygon fill="#528b8b" stroke="#528b8b" stroke-width="2" points="791.53,-318.5 802.05,-317.18 793.01,-311.65 791.53,-318.5"/>
</g>
<!-- src/crypto/crypto.ts&#45;&gt;src/crypto/base32.ts -->
<g id="edge7" class="edge">
<title>src/crypto/crypto.ts&#45;&gt;src/crypto/base32.ts</title>
<path fill="none" stroke="#528b8b" stroke-width="2" d="M516.25,-241.47C530.83,-238.71 547.07,-233.14 558,-222 600.59,-178.59 545.67,-126.91 594,-90 624.46,-66.73 728.37,-86.07 766.5,-90 777.84,-91.17 789.92,-93.23 801.22,-95.53"/>
<polygon fill="#528b8b" stroke="#528b8b" stroke-width="2" points="800.82,-99.02 811.33,-97.68 802.28,-92.17 800.82,-99.02"/>
</g>
<!-- src/crypto/crypto.ts&#45;&gt;src/crypto/crypto&#45;types.ts -->
<g id="edge6" class="edge">
<title>src/crypto/crypto.ts&#45;&gt;src/crypto/crypto&#45;types.ts</title>
<path fill="none" stroke="#528b8b" stroke-width="2" d="M516.04,-241.26C530.57,-238.45 546.84,-232.91 558,-222 595.7,-185.16 551.45,-140.1 594,-109 624.95,-86.38 731.06,-94.38 766.5,-109 770.16,-110.51 800.64,-141.32 823.26,-164.49"/>
<polygon fill="#528b8b" stroke="#528b8b" stroke-width="2" points="820.8,-166.98 830.29,-171.7 825.82,-162.1 820.8,-166.98"/>
</g>
<!-- src/crypto/keypair.ts -->
<g id="node11" class="node">
<title>src/crypto/keypair.ts</title>
<path fill="#79cdcd" stroke="#79cdcd" d="M702.5,-262C702.5,-262 652.5,-262 652.5,-262 646.5,-262 640.5,-256 640.5,-250 640.5,-250 640.5,-238 640.5,-238 640.5,-232 646.5,-226 652.5,-226 652.5,-226 702.5,-226 702.5,-226 708.5,-226 714.5,-232 714.5,-238 714.5,-238 714.5,-250 714.5,-250 714.5,-256 708.5,-262 702.5,-262"/>
<text text-anchor="middle" x="677.5" y="-240.3" font-family="Helvetica,sans-Serif" font-size="14.00">keypair.ts</text>
</g>
<!-- src/crypto/crypto.ts&#45;&gt;src/crypto/keypair.ts -->
<g id="edge8" class="edge">
<title>src/crypto/crypto.ts&#45;&gt;src/crypto/keypair.ts</title>
<path fill="none" stroke="#528b8b" stroke-width="2" d="M516.26,-244C547.74,-244 595.25,-244 630.38,-244"/>
<polygon fill="#528b8b" stroke="#528b8b" stroke-width="2" points="630.39,-247.5 640.39,-244 630.39,-240.5 630.39,-247.5"/>
</g>
<!-- src/crypto/keypair.ts&#45;&gt;src/core&#45;validators/addresses.ts -->
<g id="edge12" class="edge">
<title>src/crypto/keypair.ts&#45;&gt;src/core&#45;validators/addresses.ts</title>
<path fill="none" stroke="#528b8b" stroke-width="2" d="M714.86,-261.81C740.38,-274.3 774.7,-291.11 802.11,-304.53"/>
<polygon fill="#528b8b" stroke="#528b8b" stroke-width="2" points="800.59,-307.68 811.11,-308.94 803.67,-301.4 800.59,-307.68"/>
</g>
<!-- src/crypto/keypair.ts&#45;&gt;src/crypto/base32.ts -->
<g id="edge10" class="edge">
<title>src/crypto/keypair.ts&#45;&gt;src/crypto/base32.ts</title>
<path fill="none" stroke="#528b8b" stroke-width="2" d="M714.58,-239.54C731.85,-235.87 751.89,-229.18 766.5,-217 787.26,-199.69 778.78,-185 794.5,-163 802.13,-152.32 811.73,-141.64 820.68,-132.51"/>
<polygon fill="#528b8b" stroke="#528b8b" stroke-width="2" points="823.36,-134.77 827.99,-125.24 818.43,-129.81 823.36,-134.77"/>
</g>
<!-- src/crypto/keypair.ts&#45;&gt;src/crypto/crypto&#45;types.ts -->
<g id="edge11" class="edge">
<title>src/crypto/keypair.ts&#45;&gt;src/crypto/crypto&#45;types.ts</title>
<path fill="none" stroke="#528b8b" stroke-width="2" d="M714.52,-233.15C730.47,-228.29 749.45,-222.44 766.5,-217 773.08,-214.9 779.95,-212.67 786.79,-210.44"/>
<polygon fill="#528b8b" stroke="#528b8b" stroke-width="2" points="788.35,-213.61 796.76,-207.17 786.16,-206.96 788.35,-213.61"/>
</g>
<!-- src/format&#45;validators/format&#45;validator&#45;es4.ts&#45;&gt;src/core&#45;validators/addresses.ts -->
<g id="edge23" class="edge">
<title>src/format&#45;validators/format&#45;validator&#45;es4.ts&#45;&gt;src/core&#45;validators/addresses.ts</title>
<path fill="none" stroke="#528b8b" stroke-width="2" d="M510.91,-379.86C532.62,-366.79 563.99,-350.08 594,-342 660.38,-324.12 739.92,-322.44 792.09,-323.86"/>
<polygon fill="#528b8b" stroke="#528b8b" stroke-width="2" points="792.04,-327.36 802.15,-324.19 792.26,-320.37 792.04,-327.36"/>
</g>
<!-- src/format&#45;validators/format&#45;validator&#45;es4.ts&#45;&gt;src/core&#45;validators/characters.ts -->
<g id="edge21" class="edge">
<title>src/format&#45;validators/format&#45;validator&#45;es4.ts&#45;&gt;src/core&#45;validators/characters.ts</title>
<path fill="none" stroke="#528b8b" stroke-width="2" d="M545.92,-379.94C561.5,-376.23 578.25,-372.89 594,-371 632.06,-366.44 732.18,-353.93 766.5,-371 784.97,-380.18 776.03,-398.82 794.5,-408 840.07,-430.66 858.89,-416.86 909,-408 916.49,-406.68 924.22,-404.65 931.73,-402.3"/>
<polygon fill="#528b8b" stroke="#528b8b" stroke-width="2" points="933.07,-405.54 941.44,-399.04 930.85,-398.9 933.07,-405.54"/>
</g>
<!-- src/format&#45;validators/format&#45;validator&#45;es4.ts&#45;&gt;src/core&#45;validators/checkers.ts -->
<g id="edge22" class="edge">
<title>src/format&#45;validators/format&#45;validator&#45;es4.ts&#45;&gt;src/core&#45;validators/checkers.ts</title>
<path fill="none" stroke="#528b8b" stroke-width="2" d="M520.55,-379.9C541.61,-370.76 568.66,-360.63 594,-356 669.42,-342.21 690.68,-344.63 766.5,-356 776.38,-357.48 786.72,-359.92 796.58,-362.71"/>
<polygon fill="#528b8b" stroke="#528b8b" stroke-width="2" points="795.67,-366.09 806.25,-365.59 797.67,-359.38 795.67,-366.09"/>
</g>
<!-- src/format&#45;validators/format&#45;validator&#45;es4.ts&#45;&gt;src/crypto/crypto&#45;types.ts -->
<g id="edge20" class="edge">
<title>src/format&#45;validators/format&#45;validator&#45;es4.ts&#45;&gt;src/crypto/crypto&#45;types.ts</title>
<path fill="none" stroke="#528b8b" stroke-width="2" d="M503.71,-379.88C525.02,-362.08 559.84,-335.29 594,-319 665.83,-284.75 697.71,-311.01 766.5,-271 790.72,-256.91 812.91,-233.89 827.99,-215.99"/>
<polygon fill="#528b8b" stroke="#528b8b" stroke-width="2" points="830.77,-218.12 834.4,-208.17 825.35,-213.68 830.77,-218.12"/>
</g>
<!-- src/format&#45;validators/format&#45;validator&#45;types.ts -->
<g id="node13" class="node">
<title>src/format&#45;validators/format&#45;validator&#45;types.ts</title>
<path fill="#79cdcd" stroke="#79cdcd" d="M746.5,-416C746.5,-416 608.5,-416 608.5,-416 602.5,-416 596.5,-410 596.5,-404 596.5,-404 596.5,-392 596.5,-392 596.5,-386 602.5,-380 608.5,-380 608.5,-380 746.5,-380 746.5,-380 752.5,-380 758.5,-386 758.5,-392 758.5,-392 758.5,-404 758.5,-404 758.5,-410 752.5,-416 746.5,-416"/>
<text text-anchor="middle" x="677.5" y="-394.3" font-family="Helvetica,sans-Serif" font-size="14.00">format&#45;validator&#45;types.ts</text>
</g>
<!-- src/format&#45;validators/format&#45;validator&#45;es4.ts&#45;&gt;src/format&#45;validators/format&#45;validator&#45;types.ts -->
<g id="edge19" class="edge">
<title>src/format&#45;validators/format&#45;validator&#45;es4.ts&#45;&gt;src/format&#45;validators/format&#45;validator&#45;types.ts</title>
<path fill="none" stroke="#528b8b" stroke-width="2" d="M558.09,-398C567.29,-398 576.78,-398 586.18,-398"/>
<polygon fill="#528b8b" stroke="#528b8b" stroke-width="2" points="586.33,-401.5 596.33,-398 586.33,-394.5 586.33,-401.5"/>
</g>
<!-- src/format&#45;validators/format&#45;validator&#45;types.ts&#45;&gt;src/crypto/crypto&#45;types.ts -->
<g id="edge24" class="edge">
<title>src/format&#45;validators/format&#45;validator&#45;types.ts&#45;&gt;src/crypto/crypto&#45;types.ts</title>
<path fill="none" stroke="#528b8b" stroke-width="2" d="M695.09,-379.7C713.07,-359.7 742.4,-326.57 766.5,-297 788.51,-269.99 812.55,-238.12 828.77,-216.23"/>
<polygon fill="#528b8b" stroke="#528b8b" stroke-width="2" points="831.67,-218.2 834.8,-208.07 826.04,-214.04 831.67,-218.2"/>
</g>
<!-- src/storage/compare.ts -->
<g id="node14" class="node">
<title>src/storage/compare.ts</title>
<path fill="#79cdcd" stroke="#79cdcd" d="M512,-539C512,-539 452,-539 452,-539 446,-539 440,-533 440,-527 440,-527 440,-515 440,-515 440,-509 446,-503 452,-503 452,-503 512,-503 512,-503 518,-503 524,-509 524,-515 524,-515 524,-527 524,-527 524,-533 518,-539 512,-539"/>
<text text-anchor="middle" x="482" y="-517.3" font-family="Helvetica,sans-Serif" font-size="14.00">compare.ts</text>
</g>
<!-- src/storage/util&#45;types.ts -->
<g id="node22" class="node">
<title>src/storage/util&#45;types.ts</title>
<path fill="#79cdcd" stroke="#79cdcd" d="M708,-557C708,-557 647,-557 647,-557 641,-557 635,-551 635,-545 635,-545 635,-533 635,-533 635,-527 641,-521 647,-521 647,-521 708,-521 708,-521 714,-521 720,-527 720,-533 720,-533 720,-545 720,-545 720,-551 714,-557 708,-557"/>
<text text-anchor="middle" x="677.5" y="-535.3" font-family="Helvetica,sans-Serif" font-size="14.00">util&#45;types.ts</text>
</g>
<!-- src/storage/compare.ts&#45;&gt;src/storage/util&#45;types.ts -->
<g id="edge25" class="edge">
<title>src/storage/compare.ts&#45;&gt;src/storage/util&#45;types.ts</title>
<path fill="none" stroke="#528b8b" stroke-width="2" d="M524.04,-524.82C553.34,-527.54 592.99,-531.23 624.51,-534.16"/>
<polygon fill="#528b8b" stroke="#528b8b" stroke-width="2" points="624.57,-537.68 634.86,-535.13 625.22,-530.71 624.57,-537.68"/>
</g>
<!-- src/storage/query&#45;types.ts -->
<g id="node17" class="node">
<title>src/storage/query&#45;types.ts</title>
<path fill="#79cdcd" stroke="#79cdcd" d="M716,-650C716,-650 639,-650 639,-650 633,-650 627,-644 627,-638 627,-638 627,-626 627,-626 627,-620 633,-614 639,-614 639,-614 716,-614 716,-614 722,-614 728,-620 728,-626 728,-626 728,-638 728,-638 728,-644 722,-650 716,-650"/>
<text text-anchor="middle" x="677.5" y="-628.3" font-family="Helvetica,sans-Serif" font-size="14.00">query&#45;types.ts</text>
</g>
<!-- src/storage/follower.ts&#45;&gt;src/storage/query&#45;types.ts -->
<g id="edge27" class="edge">
<title>src/storage/follower.ts&#45;&gt;src/storage/query&#45;types.ts</title>
<path fill="none" stroke="#528b8b" stroke-width="2" d="M304.57,-592.6C330.32,-603.12 365.55,-615.87 398,-622 472.4,-636.06 559.93,-636.67 616.72,-635.01"/>
<polygon fill="#528b8b" stroke="#528b8b" stroke-width="2" points="617.07,-638.51 626.95,-634.68 616.84,-631.51 617.07,-638.51"/>
</g>
<!-- src/storage/storage&#45;types.ts -->
<g id="node21" class="node">
<title>src/storage/storage&#45;types.ts</title>
<path fill="#79cdcd" stroke="#79cdcd" d="M526.5,-613C526.5,-613 437.5,-613 437.5,-613 431.5,-613 425.5,-607 425.5,-601 425.5,-601 425.5,-589 425.5,-589 425.5,-583 431.5,-577 437.5,-577 437.5,-577 526.5,-577 526.5,-577 532.5,-577 538.5,-583 538.5,-589 538.5,-589 538.5,-601 538.5,-601 538.5,-607 532.5,-613 526.5,-613"/>
<text text-anchor="middle" x="482" y="-591.3" font-family="Helvetica,sans-Serif" font-size="14.00">storage&#45;types.ts</text>
</g>
<!-- src/storage/follower.ts&#45;&gt;src/storage/storage&#45;types.ts -->
<g id="edge28" class="edge">
<title>src/storage/follower.ts&#45;&gt;src/storage/storage&#45;types.ts</title>
<path fill="none" stroke="#528b8b" stroke-width="2" d="M304.77,-579.35C335.26,-582.06 378.89,-585.93 415.11,-589.15"/>
<polygon fill="#528b8b" stroke="#528b8b" stroke-width="2" points="414.85,-592.64 425.12,-590.04 415.47,-585.67 414.85,-592.64"/>
</g>
<!-- src/storage/follower.ts&#45;&gt;src/storage/util&#45;types.ts -->
<g id="edge26" class="edge">
<title>src/storage/follower.ts&#45;&gt;src/storage/util&#45;types.ts</title>
<path fill="none" stroke="#528b8b" stroke-width="2" d="M304.79,-572.59C378.44,-565.93 541.28,-551.22 624.83,-543.67"/>
<polygon fill="#528b8b" stroke="#528b8b" stroke-width="2" points="625.22,-547.15 634.86,-542.76 624.59,-540.18 625.22,-547.15"/>
</g>
<!-- src/storage/lock.ts -->
<g id="node16" class="node">
<title>src/storage/lock.ts</title>
<path fill="#79cdcd" stroke="#79cdcd" d="M693,-725C693,-725 662,-725 662,-725 656,-725 650,-719 650,-713 650,-713 650,-701 650,-701 650,-695 656,-689 662,-689 662,-689 693,-689 693,-689 699,-689 705,-695 705,-701 705,-701 705,-713 705,-713 705,-719 699,-725 693,-725"/>
<text text-anchor="middle" x="677.5" y="-703.3" font-family="Helvetica,sans-Serif" font-size="14.00">lock.ts</text>
</g>
<!-- src/storage/query.ts -->
<g id="node18" class="node">
<title>src/storage/query.ts</title>
<path fill="#79cdcd" stroke="#79cdcd" d="M502,-707C502,-707 462,-707 462,-707 456,-707 450,-701 450,-695 450,-695 450,-683 450,-683 450,-677 456,-671 462,-671 462,-671 502,-671 502,-671 508,-671 514,-677 514,-683 514,-683 514,-695 514,-695 514,-701 508,-707 502,-707"/>
<text text-anchor="middle" x="482" y="-685.3" font-family="Helvetica,sans-Serif" font-size="14.00">query.ts</text>
</g>
<!-- src/storage/query.ts&#45;&gt;src/storage/query&#45;types.ts -->
<g id="edge29" class="edge">
<title>src/storage/query.ts&#45;&gt;src/storage/query&#45;types.ts</title>
<path fill="none" stroke="#528b8b" stroke-width="2" d="M514.09,-679.84C541.8,-671.68 583.12,-659.51 617.15,-649.48"/>
<polygon fill="#528b8b" stroke="#528b8b" stroke-width="2" points="618.39,-652.77 626.99,-646.58 616.41,-646.05 618.39,-652.77"/>
</g>
<!-- src/storage/storage&#45;async.ts&#45;&gt;src/format&#45;validators/format&#45;validator&#45;types.ts -->
<g id="edge33" class="edge">
<title>src/storage/storage&#45;async.ts&#45;&gt;src/format&#45;validators/format&#45;validator&#45;types.ts</title>
<path fill="none" stroke="#528b8b" stroke-width="2" d="M324.24,-472.07C383,-460.74 477.02,-442.29 558,-425 568.01,-422.86 578.48,-420.57 588.87,-418.25"/>
<polygon fill="#528b8b" stroke="#528b8b" stroke-width="2" points="589.81,-421.63 598.8,-416.02 588.28,-414.79 589.81,-421.63"/>
</g>
<!-- src/storage/storage&#45;async.ts&#45;&gt;src/storage/compare.ts -->
<g id="edge34" class="edge">
<title>src/storage/storage&#45;async.ts&#45;&gt;src/storage/compare.ts</title>
<path fill="none" stroke="#528b8b" stroke-width="2" d="M324.07,-493.13C356.91,-498.97 397.85,-506.24 429.68,-511.89"/>
<polygon fill="#528b8b" stroke="#528b8b" stroke-width="2" points="429.22,-515.36 439.67,-513.66 430.44,-508.47 429.22,-515.36"/>
</g>
<!-- src/storage/storage&#45;async.ts&#45;&gt;src/storage/query&#45;types.ts -->
<g id="edge31" class="edge">
<title>src/storage/storage&#45;async.ts&#45;&gt;src/storage/query&#45;types.ts</title>
<path fill="none" stroke="#528b8b" stroke-width="2" d="M324.32,-482.07C403.53,-481.25 538.93,-481.71 558,-494 588.07,-513.38 571.51,-538.18 594,-566 606.84,-581.89 624.13,-596.44 639.56,-607.82"/>
<polygon fill="#528b8b" stroke="#528b8b" stroke-width="2" points="637.73,-610.82 647.9,-613.8 641.81,-605.13 637.73,-610.82"/>
</g>
<!-- src/storage/storage&#45;async.ts&#45;&gt;src/storage/storage&#45;types.ts -->
<g id="edge32" class="edge">
<title>src/storage/storage&#45;async.ts&#45;&gt;src/storage/storage&#45;types.ts</title>
<path fill="none" stroke="#528b8b" stroke-width="2" d="M301.86,-501.24C338.89,-520.62 397.49,-551.29 437.51,-572.24"/>
<polygon fill="#528b8b" stroke="#528b8b" stroke-width="2" points="436.03,-575.41 446.51,-576.95 439.27,-569.21 436.03,-575.41"/>
</g>
<!-- src/storage/storage&#45;async.ts&#45;&gt;src/storage/util&#45;types.ts -->
<g id="edge30" class="edge">
<title>src/storage/storage&#45;async.ts&#45;&gt;src/storage/util&#45;types.ts</title>
<path fill="none" stroke="#528b8b" stroke-width="2" d="M324.24,-474.02C383.59,-466.6 478.63,-460.05 558,-479 587.7,-486.09 618.38,-501.9 641.08,-515.51"/>
<polygon fill="#528b8b" stroke="#528b8b" stroke-width="2" points="639.33,-518.54 649.68,-520.79 642.99,-512.57 639.33,-518.54"/>
</g>
<!-- src/storage/storage&#45;driver&#45;async&#45;memory.ts&#45;&gt;src/storage/compare.ts -->
<g id="edge38" class="edge">
<title>src/storage/storage&#45;driver&#45;async&#45;memory.ts&#45;&gt;src/storage/compare.ts</title>
<path fill="none" stroke="#528b8b" stroke-width="2" d="M316.27,-633.99C334.22,-626.07 354.01,-615.67 370,-603 385.61,-590.63 382.84,-580.92 398,-568 408.45,-559.1 420.83,-551.04 432.8,-544.2"/>
<polygon fill="#528b8b" stroke="#528b8b" stroke-width="2" points="434.76,-547.11 441.83,-539.22 431.38,-540.98 434.76,-547.11"/>
</g>
<!-- src/storage/storage&#45;driver&#45;async&#45;memory.ts&#45;&gt;src/storage/lock.ts -->
<g id="edge40" class="edge">
<title>src/storage/storage&#45;driver&#45;async&#45;memory.ts&#45;&gt;src/storage/lock.ts</title>
<path fill="none" stroke="#528b8b" stroke-width="2" d="M289.42,-670.28C314.23,-689.23 356.25,-717.64 398,-729 482.41,-751.97 586.13,-731.65 640.05,-717.64"/>
<polygon fill="#528b8b" stroke="#528b8b" stroke-width="2" points="641.08,-720.99 649.83,-715.02 639.27,-714.22 641.08,-720.99"/>
</g>
<!-- src/storage/storage&#45;driver&#45;async&#45;memory.ts&#45;&gt;src/storage/query&#45;types.ts -->
<g id="edge36" class="edge">
<title>src/storage/storage&#45;driver&#45;async&#45;memory.ts&#45;&gt;src/storage/query&#45;types.ts</title>
<path fill="none" stroke="#528b8b" stroke-width="2" d="M294.73,-670.2C320.33,-685.84 360.02,-707.22 398,-716 467.28,-732.02 492.3,-743.21 558,-716 578.91,-707.34 576.07,-693.8 594,-680 605.62,-671.05 619.07,-662.55 631.69,-655.26"/>
<polygon fill="#528b8b" stroke="#528b8b" stroke-width="2" points="633.71,-658.14 640.7,-650.18 630.27,-652.05 633.71,-658.14"/>
</g>
<!-- src/storage/storage&#45;driver&#45;async&#45;memory.ts&#45;&gt;src/storage/query.ts -->
<g id="edge39" class="edge">
<title>src/storage/storage&#45;driver&#45;async&#45;memory.ts&#45;&gt;src/storage/query.ts</title>
<path fill="none" stroke="#528b8b" stroke-width="2" d="M370.24,-669.85C395,-674.13 420.02,-678.46 440.01,-681.91"/>
<polygon fill="#528b8b" stroke="#528b8b" stroke-width="2" points="439.52,-685.38 449.97,-683.63 440.71,-678.48 439.52,-685.38"/>
</g>
<!-- src/storage/storage&#45;driver&#45;async&#45;memory.ts&#45;&gt;src/storage/storage&#45;types.ts -->
<g id="edge37" class="edge">
<title>src/storage/storage&#45;driver&#45;async&#45;memory.ts&#45;&gt;src/storage/storage&#45;types.ts</title>
<path fill="none" stroke="#528b8b" stroke-width="2" d="M334.71,-633.96C360.44,-627.11 389.69,-619.32 415.23,-612.52"/>
<polygon fill="#528b8b" stroke="#528b8b" stroke-width="2" points="416.43,-615.82 425.19,-609.86 414.63,-609.06 416.43,-615.82"/>
</g>
<!-- src/storage/storage&#45;driver&#45;async&#45;memory.ts&#45;&gt;src/storage/util&#45;types.ts -->
<g id="edge35" class="edge">
<title>src/storage/storage&#45;driver&#45;async&#45;memory.ts&#45;&gt;src/storage/util&#45;types.ts</title>
<path fill="none" stroke="#528b8b" stroke-width="2" d="M370.2,-653.92C427.17,-651.91 498.28,-644.27 558,-622 592.79,-609.03 626.92,-583.36 649.55,-563.98"/>
<polygon fill="#528b8b" stroke="#528b8b" stroke-width="2" points="652.12,-566.38 657.35,-557.16 647.51,-561.11 652.12,-566.38"/>
</g>
<!-- src/storage/storage&#45;types.ts&#45;&gt;src/format&#45;validators/format&#45;validator&#45;types.ts -->
<g id="edge42" class="edge">
<title>src/storage/storage&#45;types.ts&#45;&gt;src/format&#45;validators/format&#45;validator&#45;types.ts</title>
<path fill="none" stroke="#528b8b" stroke-width="2" d="M522.19,-576.96C535,-569.5 548.4,-559.8 558,-548 587.03,-512.34 565.17,-486.83 594,-451 603.45,-439.25 616.24,-429.29 628.92,-421.29"/>
<polygon fill="#528b8b" stroke="#528b8b" stroke-width="2" points="630.86,-424.2 637.64,-416.06 627.26,-418.2 630.86,-424.2"/>
</g>
<!-- src/storage/storage&#45;types.ts&#45;&gt;src/storage/lock.ts -->
<g id="edge43" class="edge">
<title>src/storage/storage&#45;types.ts&#45;&gt;src/storage/lock.ts</title>
<path fill="none" stroke="#528b8b" stroke-width="2" d="M514.52,-613.24C549.27,-633.36 605.04,-665.64 641.22,-686.58"/>
<polygon fill="#528b8b" stroke="#528b8b" stroke-width="2" points="639.57,-689.67 649.98,-691.65 643.07,-683.61 639.57,-689.67"/>
</g>
<!-- src/storage/storage&#45;types.ts&#45;&gt;src/storage/query&#45;types.ts -->
<g id="edge41" class="edge">
<title>src/storage/storage&#45;types.ts&#45;&gt;src/storage/query&#45;types.ts</title>
<path fill="none" stroke="#528b8b" stroke-width="2" d="M538.71,-605.65C563.14,-610.32 591.86,-615.82 616.74,-620.57"/>
<polygon fill="#528b8b" stroke="#528b8b" stroke-width="2" points="616.31,-624.05 626.79,-622.49 617.62,-617.18 616.31,-624.05"/>
</g>
</g>
</svg>
