<?xml version="1.0" encoding="UTF-8" standalone="no"?>
<!DOCTYPE svg PUBLIC "-//W3C//DTD SVG 1.1//EN"
 "http://www.w3.org/Graphics/SVG/1.1/DTD/svg11.dtd">
<!-- Generated by graphviz version 2.50.0 (20211204.2007)
 -->
<!-- Title: G Pages: 1 -->
<svg width="2092pt" height="1879pt"
 viewBox="0.00 0.00 2092.00 1878.95" xmlns="http://www.w3.org/2000/svg" xmlns:xlink="http://www.w3.org/1999/xlink">
<g id="graph0" class="graph" transform="scale(1 1) rotate(0) translate(4 1874.95)">
<title>G</title>
<polygon fill="white" stroke="transparent" points="-4,4 -4,-1874.95 2088,-1874.95 2088,4 -4,4"/>
<g id="clust1" class="cluster">
<title>cluster8732429133</title>
<path fill="none" stroke="#8b7d6b" stroke-width="2" d="M20,-559.95C20,-559.95 1692.5,-559.95 1692.5,-559.95 1698.5,-559.95 1704.5,-565.95 1704.5,-571.95 1704.5,-571.95 1704.5,-1850.95 1704.5,-1850.95 1704.5,-1856.95 1698.5,-1862.95 1692.5,-1862.95 1692.5,-1862.95 20,-1862.95 20,-1862.95 14,-1862.95 8,-1856.95 8,-1850.95 8,-1850.95 8,-571.95 8,-571.95 8,-565.95 14,-559.95 20,-559.95"/>
<text text-anchor="start" x="842.75" y="-1848.75" font-family="Helvetica,sans-Serif" font-weight="bold" font-size="14.00">root</text>
</g>
<g id="clust2" class="cluster">
<title>cluster2176416923</title>
<path fill="bisque" stroke="#8b7d6b" stroke-width="2" d="M28,-611.95C28,-611.95 1684.5,-611.95 1684.5,-611.95 1690.5,-611.95 1696.5,-617.95 1696.5,-623.95 1696.5,-623.95 1696.5,-1819.95 1696.5,-1819.95 1696.5,-1825.95 1690.5,-1831.95 1684.5,-1831.95 1684.5,-1831.95 28,-1831.95 28,-1831.95 22,-1831.95 16,-1825.95 16,-1819.95 16,-1819.95 16,-623.95 16,-623.95 16,-617.95 22,-611.95 28,-611.95"/>
<text text-anchor="start" x="845.75" y="-1817.75" font-family="Helvetica,sans-Serif" font-weight="bold" font-size="14.00">src</text>
</g>
<g id="clust3" class="cluster">
<title>cluster388545849</title>
<path fill="bisque" stroke="#8b7d6b" stroke-width="2" d="M1320.5,-1671.95C1320.5,-1671.95 1663,-1671.95 1663,-1671.95 1669,-1671.95 1675,-1677.95 1675,-1683.95 1675,-1683.95 1675,-1788.95 1675,-1788.95 1675,-1794.95 1669,-1800.95 1663,-1800.95 1663,-1800.95 1320.5,-1800.95 1320.5,-1800.95 1314.5,-1800.95 1308.5,-1794.95 1308.5,-1788.95 1308.5,-1788.95 1308.5,-1683.95 1308.5,-1683.95 1308.5,-1677.95 1314.5,-1671.95 1320.5,-1671.95"/>
<text text-anchor="start" x="1443.25" y="-1786.75" font-family="Helvetica,sans-Serif" font-weight="bold" font-size="14.00">core&#45;validators</text>
</g>
<g id="clust4" class="cluster">
<title>cluster687908156</title>
<path fill="bisque" stroke="#8b7d6b" stroke-width="2" d="M747,-1317.95C747,-1317.95 1668,-1317.95 1668,-1317.95 1674,-1317.95 1680,-1323.95 1680,-1329.95 1680,-1329.95 1680,-1568.95 1680,-1568.95 1680,-1574.95 1674,-1580.95 1668,-1580.95 1668,-1580.95 747,-1580.95 747,-1580.95 741,-1580.95 735,-1574.95 735,-1568.95 735,-1568.95 735,-1329.95 735,-1329.95 735,-1323.95 741,-1317.95 747,-1317.95"/>
<text text-anchor="start" x="1186.5" y="-1566.75" font-family="Helvetica,sans-Serif" font-weight="bold" font-size="14.00">crypto</text>
</g>
<g id="clust5" class="cluster">
<title>cluster5370943029</title>
<path fill="bisque" stroke="#8b7d6b" stroke-width="2" d="M512,-1588.95C512,-1588.95 854,-1588.95 854,-1588.95 860,-1588.95 866,-1594.95 866,-1600.95 866,-1600.95 866,-1651.95 866,-1651.95 866,-1657.95 860,-1663.95 854,-1663.95 854,-1663.95 512,-1663.95 512,-1663.95 506,-1663.95 500,-1657.95 500,-1651.95 500,-1651.95 500,-1600.95 500,-1600.95 500,-1594.95 506,-1588.95 512,-1588.95"/>
<text text-anchor="start" x="627" y="-1649.75" font-family="Helvetica,sans-Serif" font-weight="bold" font-size="14.00">format&#45;validators</text>
</g>
<g id="clust6" class="cluster">
<title>cluster2337331339</title>
<path fill="bisque" stroke="#8b7d6b" stroke-width="2" d="M1563.5,-1588.95C1563.5,-1588.95 1676.5,-1588.95 1676.5,-1588.95 1682.5,-1588.95 1688.5,-1594.95 1688.5,-1600.95 1688.5,-1600.95 1688.5,-1651.95 1688.5,-1651.95 1688.5,-1657.95 1682.5,-1663.95 1676.5,-1663.95 1676.5,-1663.95 1563.5,-1663.95 1563.5,-1663.95 1557.5,-1663.95 1551.5,-1657.95 1551.5,-1651.95 1551.5,-1651.95 1551.5,-1600.95 1551.5,-1600.95 1551.5,-1594.95 1557.5,-1588.95 1563.5,-1588.95"/>
<text text-anchor="start" x="1573" y="-1649.75" font-family="Helvetica,sans-Serif" font-weight="bold" font-size="14.00">noble&#45;ed25519</text>
</g>
<g id="clust7" class="cluster">
<title>cluster3421778553</title>
<path fill="bisque" stroke="#8b7d6b" stroke-width="2" d="M95,-839.95C95,-839.95 408.5,-839.95 408.5,-839.95 414.5,-839.95 420.5,-845.95 420.5,-851.95 420.5,-851.95 420.5,-902.95 420.5,-902.95 420.5,-908.95 414.5,-914.95 408.5,-914.95 408.5,-914.95 95,-914.95 95,-914.95 89,-914.95 83,-908.95 83,-902.95 83,-902.95 83,-851.95 83,-851.95 83,-845.95 89,-839.95 95,-839.95"/>
<text text-anchor="start" x="235.25" y="-900.75" font-family="Helvetica,sans-Serif" font-weight="bold" font-size="14.00">node</text>
</g>
<g id="clust8" class="cluster">
<title>cluster9316937339</title>
<path fill="bisque" stroke="#8b7d6b" stroke-width="2" d="M322,-1346.95C322,-1346.95 627.5,-1346.95 627.5,-1346.95 633.5,-1346.95 639.5,-1352.95 639.5,-1358.95 639.5,-1358.95 639.5,-1517.95 639.5,-1517.95 639.5,-1523.95 633.5,-1529.95 627.5,-1529.95 627.5,-1529.95 322,-1529.95 322,-1529.95 316,-1529.95 310,-1523.95 310,-1517.95 310,-1517.95 310,-1358.95 310,-1358.95 310,-1352.95 316,-1346.95 322,-1346.95"/>
<text text-anchor="start" x="460.25" y="-1515.75" font-family="Helvetica,sans-Serif" font-weight="bold" font-size="14.00">peer</text>
</g>
<g id="clust9" class="cluster">
<title>cluster6414178744</title>
<path fill="bisque" stroke="#8b7d6b" stroke-width="2" d="M314,-922.95C314,-922.95 656,-922.95 656,-922.95 662,-922.95 668,-928.95 668,-934.95 668,-934.95 668,-985.95 668,-985.95 668,-991.95 662,-997.95 656,-997.95 656,-997.95 314,-997.95 314,-997.95 308,-997.95 302,-991.95 302,-985.95 302,-985.95 302,-934.95 302,-934.95 302,-928.95 308,-922.95 314,-922.95"/>
<text text-anchor="start" x="438" y="-983.75" font-family="Helvetica,sans-Serif" font-weight="bold" font-size="14.00">query&#45;follower</text>
</g>
<g id="clust10" class="cluster">
<title>cluster1263765594</title>
<path fill="bisque" stroke="#8b7d6b" stroke-width="2" d="M556,-1005.95C556,-1005.95 823.5,-1005.95 823.5,-1005.95 829.5,-1005.95 835.5,-1011.95 835.5,-1017.95 835.5,-1017.95 835.5,-1068.95 835.5,-1068.95 835.5,-1074.95 829.5,-1080.95 823.5,-1080.95 823.5,-1080.95 556,-1080.95 556,-1080.95 550,-1080.95 544,-1074.95 544,-1068.95 544,-1068.95 544,-1017.95 544,-1017.95 544,-1011.95 550,-1005.95 556,-1005.95"/>
<text text-anchor="start" x="671.25" y="-1066.75" font-family="Helvetica,sans-Serif" font-weight="bold" font-size="14.00">query</text>
</g>
<g id="clust11" class="cluster">
<title>cluster5258755697</title>
<path fill="bisque" stroke="#8b7d6b" stroke-width="2" d="M36,-1126.95C36,-1126.95 815.5,-1126.95 815.5,-1126.95 821.5,-1126.95 827.5,-1132.95 827.5,-1138.95 827.5,-1138.95 827.5,-1297.95 827.5,-1297.95 827.5,-1303.95 821.5,-1309.95 815.5,-1309.95 815.5,-1309.95 36,-1309.95 36,-1309.95 30,-1309.95 24,-1303.95 24,-1297.95 24,-1297.95 24,-1138.95 24,-1138.95 24,-1132.95 30,-1126.95 36,-1126.95"/>
<text text-anchor="start" x="401.25" y="-1295.75" font-family="Helvetica,sans-Serif" font-weight="bold" font-size="14.00">storage</text>
</g>
<g id="clust12" class="cluster">
<title>cluster6282179383</title>
<path fill="bisque" stroke="#8b7d6b" stroke-width="2" d="M88,-702.95C88,-702.95 172,-702.95 172,-702.95 178,-702.95 184,-708.95 184,-714.95 184,-714.95 184,-819.95 184,-819.95 184,-825.95 178,-831.95 172,-831.95 172,-831.95 88,-831.95 88,-831.95 82,-831.95 76,-825.95 76,-819.95 76,-819.95 76,-714.95 76,-714.95 76,-708.95 82,-702.95 88,-702.95"/>
<text text-anchor="start" x="99.5" y="-817.75" font-family="Helvetica,sans-Serif" font-weight="bold" font-size="14.00">superbus</text>
</g>
<g id="clust13" class="cluster">
<title>cluster6755505253</title>
<path fill="bisque" stroke="#8b7d6b" stroke-width="2" d="M73.5,-619.95C73.5,-619.95 186.5,-619.95 186.5,-619.95 192.5,-619.95 198.5,-625.95 198.5,-631.95 198.5,-631.95 198.5,-682.95 198.5,-682.95 198.5,-688.95 192.5,-694.95 186.5,-694.95 186.5,-694.95 73.5,-694.95 73.5,-694.95 67.5,-694.95 61.5,-688.95 61.5,-682.95 61.5,-682.95 61.5,-631.95 61.5,-631.95 61.5,-625.95 67.5,-619.95 73.5,-619.95"/>
<text text-anchor="start" x="81.5" y="-680.75" font-family="Helvetica,sans-Serif" font-weight="bold" font-size="14.00">superbus_map</text>
</g>
<!-- deps.ts -->
<g id="node1" class="node">
<title>deps.ts</title>
<path fill="#79cdcd" stroke="#79cdcd" d="M795,-603.95C795,-603.95 759,-603.95 759,-603.95 753,-603.95 747,-597.95 747,-591.95 747,-591.95 747,-579.95 747,-579.95 747,-573.95 753,-567.95 759,-567.95 759,-567.95 795,-567.95 795,-567.95 801,-567.95 807,-573.95 807,-579.95 807,-579.95 807,-591.95 807,-591.95 807,-597.95 801,-603.95 795,-603.95"/>
<text text-anchor="middle" x="777" y="-582.25" font-family="Helvetica,sans-Serif" font-size="14.00">deps.ts</text>
</g>
<!-- src/node/chloride.ts -->
<g id="node18" class="node">
<title>src/node/chloride.ts</title>
<path fill="#79cdcd" stroke="#79cdcd" d="M157,-883.95C157,-883.95 103,-883.95 103,-883.95 97,-883.95 91,-877.95 91,-871.95 91,-871.95 91,-859.95 91,-859.95 91,-853.95 97,-847.95 103,-847.95 103,-847.95 157,-847.95 157,-847.95 163,-847.95 169,-853.95 169,-859.95 169,-859.95 169,-871.95 169,-871.95 169,-877.95 163,-883.95 157,-883.95"/>
<text text-anchor="middle" x="130" y="-862.25" font-family="Helvetica,sans-Serif" font-size="14.00">chloride.ts</text>
</g>
<!-- deps.ts&#45;&gt;src/node/chloride.ts -->
<g id="edge4" class="edge">
<title>deps.ts&#45;&gt;src/node/chloride.ts</title>
<path fill="none" stroke="#528b8b" stroke-width="2" d="M770.44,-604.2C758.3,-640.74 725.8,-722.79 668,-762.95 517.96,-867.2 443.4,-804.35 264,-838.95 235.84,-844.38 204.39,-850.75 179.14,-855.94"/>
<polygon fill="#528b8b" stroke="#528b8b" stroke-width="2" points="178.17,-852.56 169.09,-858.01 179.59,-859.42 178.17,-852.56"/>
</g>
<!-- src/superbus/simplebus.ts -->
<g id="node35" class="node">
<title>src/superbus/simplebus.ts</title>
<path fill="#79cdcd" stroke="#79cdcd" d="M164,-800.95C164,-800.95 96,-800.95 96,-800.95 90,-800.95 84,-794.95 84,-788.95 84,-788.95 84,-776.95 84,-776.95 84,-770.95 90,-764.95 96,-764.95 96,-764.95 164,-764.95 164,-764.95 170,-764.95 176,-770.95 176,-776.95 176,-776.95 176,-788.95 176,-788.95 176,-794.95 170,-800.95 164,-800.95"/>
<text text-anchor="middle" x="130" y="-779.25" font-family="Helvetica,sans-Serif" font-size="14.00">simplebus.ts</text>
</g>
<!-- deps.ts&#45;&gt;src/superbus/simplebus.ts -->
<g id="edge2" class="edge">
<title>deps.ts&#45;&gt;src/superbus/simplebus.ts</title>
<path fill="none" stroke="#528b8b" stroke-width="2" d="M768.37,-604.17C753.99,-635.95 719.6,-700.89 668,-729.95 511.74,-817.94 288.91,-803.97 186.44,-791.33"/>
<polygon fill="#528b8b" stroke="#528b8b" stroke-width="2" points="186.68,-787.83 176.31,-790.03 185.79,-794.77 186.68,-787.83"/>
</g>
<!-- src/superbus/superbus.ts -->
<g id="node36" class="node">
<title>src/superbus/superbus.ts</title>
<path fill="#79cdcd" stroke="#79cdcd" d="M161,-746.95C161,-746.95 99,-746.95 99,-746.95 93,-746.95 87,-740.95 87,-734.95 87,-734.95 87,-722.95 87,-722.95 87,-716.95 93,-710.95 99,-710.95 99,-710.95 161,-710.95 161,-710.95 167,-710.95 173,-716.95 173,-722.95 173,-722.95 173,-734.95 173,-734.95 173,-740.95 167,-746.95 161,-746.95"/>
<text text-anchor="middle" x="130" y="-725.25" font-family="Helvetica,sans-Serif" font-size="14.00">superbus.ts</text>
</g>
<!-- deps.ts&#45;&gt;src/superbus/superbus.ts -->
<g id="edge1" class="edge">
<title>deps.ts&#45;&gt;src/superbus/superbus.ts</title>
<path fill="none" stroke="#528b8b" stroke-width="2" d="M746.77,-592.43C646.14,-614.74 313.16,-688.56 183.41,-717.33"/>
<polygon fill="#528b8b" stroke="#528b8b" stroke-width="2" points="182.33,-713.98 173.32,-719.56 183.84,-720.82 182.33,-713.98"/>
</g>
<!-- src/superbus_map/superbus_map.ts -->
<g id="node37" class="node">
<title>src/superbus_map/superbus_map.ts</title>
<path fill="#79cdcd" stroke="#79cdcd" d="M178.5,-663.95C178.5,-663.95 81.5,-663.95 81.5,-663.95 75.5,-663.95 69.5,-657.95 69.5,-651.95 69.5,-651.95 69.5,-639.95 69.5,-639.95 69.5,-633.95 75.5,-627.95 81.5,-627.95 81.5,-627.95 178.5,-627.95 178.5,-627.95 184.5,-627.95 190.5,-633.95 190.5,-639.95 190.5,-639.95 190.5,-651.95 190.5,-651.95 190.5,-657.95 184.5,-663.95 178.5,-663.95"/>
<text text-anchor="middle" x="130" y="-642.25" font-family="Helvetica,sans-Serif" font-size="14.00">superbus_map.ts</text>
</g>
<!-- deps.ts&#45;&gt;src/superbus_map/superbus_map.ts -->
<g id="edge3" class="edge">
<title>deps.ts&#45;&gt;src/superbus_map/superbus_map.ts</title>
<path fill="none" stroke="#528b8b" stroke-width="2" d="M746.77,-588.67C650.35,-597.64 340.58,-626.45 200.7,-639.46"/>
<polygon fill="#528b8b" stroke="#528b8b" stroke-width="2" points="200.16,-636 190.52,-640.41 200.81,-642.97 200.16,-636"/>
</g>
<!-- https://deno.land/x/crayon_chalk_aliases@1.1.0/index.ts -->
<g id="node38" class="node">
<title>https://deno.land/x/crayon_chalk_aliases@1.1.0/index.ts</title>
<polygon fill="#cdc8b1" stroke="#8b8878" points="1248,-65.95 898,-65.95 894,-61.95 894,-29.95 1244,-29.95 1248,-33.95 1248,-65.95"/>
<polyline fill="none" stroke="#8b8878" points="1244,-61.95 894,-61.95 "/>
<polyline fill="none" stroke="#8b8878" points="1244,-61.95 1244,-29.95 "/>
<polyline fill="none" stroke="#8b8878" points="1244,-61.95 1248,-65.95 "/>
<text text-anchor="middle" x="1071" y="-44.25" font-family="Helvetica,sans-Serif" font-size="14.00">https://deno.land/x/crayon_chalk_aliases@1.1.0/index.ts</text>
</g>
<!-- deps.ts&#45;&gt;https://deno.land/x/crayon_chalk_aliases@1.1.0/index.ts -->
<g id="edge86" class="edge">
<title>deps.ts&#45;&gt;https://deno.land/x/crayon_chalk_aliases@1.1.0/index.ts</title>
<path fill="none" stroke="#8b8878" stroke-width="1.5" stroke-dasharray="5,2" d="M779.44,-567.8C786.4,-485.06 819.28,-144.55 894,-74.95 894.99,-74.03 895.99,-73.13 897.01,-72.26"/>
<polygon fill="#8b8878" stroke="#8b8878" stroke-width="1.5" points="899.34,-74.88 905.14,-66.02 895.08,-69.33 899.34,-74.88"/>
</g>
<!-- https://esm.sh/fast&#45;deep&#45;equal@3.1.3 -->
<g id="node39" class="node">
<title>https://esm.sh/fast&#45;deep&#45;equal@3.1.3</title>
<polygon fill="#cdc8b1" stroke="#8b8878" points="1192.5,-551.95 953.5,-551.95 949.5,-547.95 949.5,-515.95 1188.5,-515.95 1192.5,-519.95 1192.5,-551.95"/>
<polyline fill="none" stroke="#8b8878" points="1188.5,-547.95 949.5,-547.95 "/>
<polyline fill="none" stroke="#8b8878" points="1188.5,-547.95 1188.5,-515.95 "/>
<polyline fill="none" stroke="#8b8878" points="1188.5,-547.95 1192.5,-551.95 "/>
<text text-anchor="middle" x="1071" y="-530.25" font-family="Helvetica,sans-Serif" font-size="14.00">https://esm.sh/fast&#45;deep&#45;equal@3.1.3</text>
</g>
<!-- deps.ts&#45;&gt;https://esm.sh/fast&#45;deep&#45;equal@3.1.3 -->
<g id="edge87" class="edge">
<title>deps.ts&#45;&gt;https://esm.sh/fast&#45;deep&#45;equal@3.1.3</title>
<path fill="none" stroke="#8b8878" stroke-width="1.5" stroke-dasharray="5,2" d="M807.32,-577.25C830.63,-570.6 864.17,-561.64 894,-555.95 908.64,-553.15 924.03,-550.63 939.37,-548.37"/>
<polygon fill="#8b8878" stroke="#8b8878" stroke-width="1.5" points="940.04,-551.81 949.44,-546.93 939.04,-544.88 940.04,-551.81"/>
</g>
<!-- https://esm.sh/rfdc@1.3.0?dts -->
<g id="node40" class="node">
<title>https://esm.sh/rfdc@1.3.0?dts</title>
<polygon fill="#cdc8b1" stroke="#8b8878" points="1169.5,-497.95 976.5,-497.95 972.5,-493.95 972.5,-461.95 1165.5,-461.95 1169.5,-465.95 1169.5,-497.95"/>
<polyline fill="none" stroke="#8b8878" points="1165.5,-493.95 972.5,-493.95 "/>
<polyline fill="none" stroke="#8b8878" points="1165.5,-493.95 1165.5,-461.95 "/>
<polyline fill="none" stroke="#8b8878" points="1165.5,-493.95 1169.5,-497.95 "/>
<text text-anchor="middle" x="1071" y="-476.25" font-family="Helvetica,sans-Serif" font-size="14.00">https://esm.sh/rfdc@1.3.0?dts</text>
</g>
<!-- deps.ts&#45;&gt;https://esm.sh/rfdc@1.3.0?dts -->
<g id="edge88" class="edge">
<title>deps.ts&#45;&gt;https://esm.sh/rfdc@1.3.0?dts</title>
<path fill="none" stroke="#8b8878" stroke-width="1.5" stroke-dasharray="5,2" d="M798.58,-567.66C820.58,-549.2 857.27,-521.41 894,-506.95 915.3,-498.56 939,-492.77 961.93,-488.77"/>
<polygon fill="#8b8878" stroke="#8b8878" stroke-width="1.5" points="962.75,-492.18 972.05,-487.11 961.62,-485.28 962.75,-492.18"/>
</g>
<!-- https://cdn.skypack.dev/dbly&#45;linked&#45;list@0.3.5 -->
<g id="node41" class="node">
<title>https://cdn.skypack.dev/dbly&#45;linked&#45;list@0.3.5</title>
<polygon fill="#cdc8b1" stroke="#8b8878" points="1216,-443.95 930,-443.95 926,-439.95 926,-407.95 1212,-407.95 1216,-411.95 1216,-443.95"/>
<polyline fill="none" stroke="#8b8878" points="1212,-439.95 926,-439.95 "/>
<polyline fill="none" stroke="#8b8878" points="1212,-439.95 1212,-407.95 "/>
<polyline fill="none" stroke="#8b8878" points="1212,-439.95 1216,-443.95 "/>
<text text-anchor="middle" x="1071" y="-422.25" font-family="Helvetica,sans-Serif" font-size="14.00">https://cdn.skypack.dev/dbly&#45;linked&#45;list@0.3.5</text>
</g>
<!-- deps.ts&#45;&gt;https://cdn.skypack.dev/dbly&#45;linked&#45;list@0.3.5 -->
<g id="edge89" class="edge">
<title>deps.ts&#45;&gt;https://cdn.skypack.dev/dbly&#45;linked&#45;list@0.3.5</title>
<path fill="none" stroke="#8b8878" stroke-width="1.5" stroke-dasharray="5,2" d="M788.08,-567.71C805.46,-538.18 844.07,-480.41 894,-452.95 901.12,-449.03 908.64,-445.63 916.4,-442.69"/>
<polygon fill="#8b8878" stroke="#8b8878" stroke-width="1.5" points="917.7,-445.94 925.97,-439.32 915.37,-439.34 917.7,-445.94"/>
</g>
<!-- https://esm.sh/fast&#45;json&#45;stable&#45;stringify@2.1.0 -->
<g id="node42" class="node">
<title>https://esm.sh/fast&#45;json&#45;stable&#45;stringify@2.1.0</title>
<polygon fill="#cdc8b1" stroke="#8b8878" points="1217,-389.95 929,-389.95 925,-385.95 925,-353.95 1213,-353.95 1217,-357.95 1217,-389.95"/>
<polyline fill="none" stroke="#8b8878" points="1213,-385.95 925,-385.95 "/>
<polyline fill="none" stroke="#8b8878" points="1213,-385.95 1213,-353.95 "/>
<polyline fill="none" stroke="#8b8878" points="1213,-385.95 1217,-389.95 "/>
<text text-anchor="middle" x="1071" y="-368.25" font-family="Helvetica,sans-Serif" font-size="14.00">https://esm.sh/fast&#45;json&#45;stable&#45;stringify@2.1.0</text>
</g>
<!-- deps.ts&#45;&gt;https://esm.sh/fast&#45;json&#45;stable&#45;stringify@2.1.0 -->
<g id="edge90" class="edge">
<title>deps.ts&#45;&gt;https://esm.sh/fast&#45;json&#45;stable&#45;stringify@2.1.0</title>
<path fill="none" stroke="#8b8878" stroke-width="1.5" stroke-dasharray="5,2" d="M783.45,-567.92C796.01,-529.71 830.89,-440.65 894,-398.95 900.71,-394.51 907.87,-390.7 915.33,-387.43"/>
<polygon fill="#8b8878" stroke="#8b8878" stroke-width="1.5" points="916.95,-390.55 924.92,-383.58 914.33,-384.06 916.95,-390.55"/>
</g>
<!-- https://esm.sh/rfc4648@1.5.0 -->
<g id="node43" class="node">
<title>https://esm.sh/rfc4648@1.5.0</title>
<polygon fill="#cdc8b1" stroke="#8b8878" points="1168,-335.95 978,-335.95 974,-331.95 974,-299.95 1164,-299.95 1168,-303.95 1168,-335.95"/>
<polyline fill="none" stroke="#8b8878" points="1164,-331.95 974,-331.95 "/>
<polyline fill="none" stroke="#8b8878" points="1164,-331.95 1164,-299.95 "/>
<polyline fill="none" stroke="#8b8878" points="1164,-331.95 1168,-335.95 "/>
<text text-anchor="middle" x="1071" y="-314.25" font-family="Helvetica,sans-Serif" font-size="14.00">https://esm.sh/rfc4648@1.5.0</text>
</g>
<!-- deps.ts&#45;&gt;https://esm.sh/rfc4648@1.5.0 -->
<g id="edge91" class="edge">
<title>deps.ts&#45;&gt;https://esm.sh/rfc4648@1.5.0</title>
<path fill="none" stroke="#8b8878" stroke-width="1.5" stroke-dasharray="5,2" d="M780.87,-567.81C789.13,-522.05 817.49,-401.58 894,-344.95 914.09,-330.08 939.05,-321.91 963.79,-317.69"/>
<polygon fill="#8b8878" stroke="#8b8878" stroke-width="1.5" points="964.63,-321.1 974,-316.16 963.59,-314.18 964.63,-321.1"/>
</g>
<!-- https://esm.sh/sha256&#45;uint8array@0.10.3 -->
<g id="node44" class="node">
<title>https://esm.sh/sha256&#45;uint8array@0.10.3</title>
<polygon fill="#cdc8b1" stroke="#8b8878" points="1204,-281.95 942,-281.95 938,-277.95 938,-245.95 1200,-245.95 1204,-249.95 1204,-281.95"/>
<polyline fill="none" stroke="#8b8878" points="1200,-277.95 938,-277.95 "/>
<polyline fill="none" stroke="#8b8878" points="1200,-277.95 1200,-245.95 "/>
<polyline fill="none" stroke="#8b8878" points="1200,-277.95 1204,-281.95 "/>
<text text-anchor="middle" x="1071" y="-260.25" font-family="Helvetica,sans-Serif" font-size="14.00">https://esm.sh/sha256&#45;uint8array@0.10.3</text>
</g>
<!-- deps.ts&#45;&gt;https://esm.sh/sha256&#45;uint8array@0.10.3 -->
<g id="edge92" class="edge">
<title>deps.ts&#45;&gt;https://esm.sh/sha256&#45;uint8array@0.10.3</title>
<path fill="none" stroke="#8b8878" stroke-width="1.5" stroke-dasharray="5,2" d="M779.14,-567.78C783.5,-515.38 803.72,-363.09 894,-290.95 904.2,-282.8 915.82,-276.6 928.13,-271.94"/>
<polygon fill="#8b8878" stroke="#8b8878" stroke-width="1.5" points="929.33,-275.22 937.65,-268.66 927.06,-268.6 929.33,-275.22"/>
</g>
<!-- http://esm.sh/heap@0.2.7?dts -->
<g id="node45" class="node">
<title>http://esm.sh/heap@0.2.7?dts</title>
<polygon fill="#cdc8b1" stroke="#8b8878" points="1170,-227.95 976,-227.95 972,-223.95 972,-191.95 1166,-191.95 1170,-195.95 1170,-227.95"/>
<polyline fill="none" stroke="#8b8878" points="1166,-223.95 972,-223.95 "/>
<polyline fill="none" stroke="#8b8878" points="1166,-223.95 1166,-191.95 "/>
<polyline fill="none" stroke="#8b8878" points="1166,-223.95 1170,-227.95 "/>
<text text-anchor="middle" x="1071" y="-206.25" font-family="Helvetica,sans-Serif" font-size="14.00">http://esm.sh/heap@0.2.7?dts</text>
</g>
<!-- deps.ts&#45;&gt;http://esm.sh/heap@0.2.7?dts -->
<g id="edge93" class="edge">
<title>deps.ts&#45;&gt;http://esm.sh/heap@0.2.7?dts</title>
<path fill="none" stroke="#8b8878" stroke-width="1.5" stroke-dasharray="5,2" d="M777.92,-567.56C778.73,-508.88 789.83,-324.88 894,-236.95 912.89,-221 937.16,-212.38 961.6,-208.07"/>
<polygon fill="#8b8878" stroke="#8b8878" stroke-width="1.5" points="962.34,-211.5 971.7,-206.52 961.28,-204.58 962.34,-211.5"/>
</g>
<!-- https://cdn.skypack.dev/concurrency&#45;friends@5.2.0?dts -->
<g id="node46" class="node">
<title>https://cdn.skypack.dev/concurrency&#45;friends@5.2.0?dts</title>
<polygon fill="#cdc8b1" stroke="#8b8878" points="1245.5,-173.95 900.5,-173.95 896.5,-169.95 896.5,-137.95 1241.5,-137.95 1245.5,-141.95 1245.5,-173.95"/>
<polyline fill="none" stroke="#8b8878" points="1241.5,-169.95 896.5,-169.95 "/>
<polyline fill="none" stroke="#8b8878" points="1241.5,-169.95 1241.5,-137.95 "/>
<polyline fill="none" stroke="#8b8878" points="1241.5,-169.95 1245.5,-173.95 "/>
<text text-anchor="middle" x="1071" y="-152.25" font-family="Helvetica,sans-Serif" font-size="14.00">https://cdn.skypack.dev/concurrency&#45;friends@5.2.0?dts</text>
</g>
<!-- deps.ts&#45;&gt;https://cdn.skypack.dev/concurrency&#45;friends@5.2.0?dts -->
<g id="edge94" class="edge">
<title>deps.ts&#45;&gt;https://cdn.skypack.dev/concurrency&#45;friends@5.2.0?dts</title>
<path fill="none" stroke="#8b8878" stroke-width="1.5" stroke-dasharray="5,2" d="M780.6,-567.91C791.22,-496.63 833.73,-235.96 894,-182.95 895.16,-181.93 896.34,-180.94 897.55,-179.97"/>
<polygon fill="#8b8878" stroke="#8b8878" stroke-width="1.5" points="899.71,-182.73 905.77,-174.03 895.61,-177.05 899.71,-182.73"/>
</g>
<!-- https://deno.land/x/which_runtime@0.2.0/mod.ts -->
<g id="node47" class="node">
<title>https://deno.land/x/which_runtime@0.2.0/mod.ts</title>
<polygon fill="#cdc8b1" stroke="#8b8878" points="1225,-119.95 921,-119.95 917,-115.95 917,-83.95 1221,-83.95 1225,-87.95 1225,-119.95"/>
<polyline fill="none" stroke="#8b8878" points="1221,-115.95 917,-115.95 "/>
<polyline fill="none" stroke="#8b8878" points="1221,-115.95 1221,-83.95 "/>
<polyline fill="none" stroke="#8b8878" points="1221,-115.95 1225,-119.95 "/>
<text text-anchor="middle" x="1071" y="-98.25" font-family="Helvetica,sans-Serif" font-size="14.00">https://deno.land/x/which_runtime@0.2.0/mod.ts</text>
</g>
<!-- deps.ts&#45;&gt;https://deno.land/x/which_runtime@0.2.0/mod.ts -->
<g id="edge95" class="edge">
<title>deps.ts&#45;&gt;https://deno.land/x/which_runtime@0.2.0/mod.ts</title>
<path fill="none" stroke="#8b8878" stroke-width="1.5" stroke-dasharray="5,2" d="M779.95,-567.92C788.64,-490.86 826.51,-190.23 894,-128.95 898.29,-125.05 902.9,-121.58 907.75,-118.49"/>
<polygon fill="#8b8878" stroke="#8b8878" stroke-width="1.5" points="909.8,-121.35 916.74,-113.35 906.32,-115.28 909.8,-121.35"/>
</g>
<!-- src/example&#45;app.ts -->
<g id="node2" class="node">
<title>src/example&#45;app.ts</title>
<path fill="#79cdcd" stroke="#79cdcd" d="M173,-1353.95C173,-1353.95 87,-1353.95 87,-1353.95 81,-1353.95 75,-1347.95 75,-1341.95 75,-1341.95 75,-1329.95 75,-1329.95 75,-1323.95 81,-1317.95 87,-1317.95 87,-1317.95 173,-1317.95 173,-1317.95 179,-1317.95 185,-1323.95 185,-1329.95 185,-1329.95 185,-1341.95 185,-1341.95 185,-1347.95 179,-1353.95 173,-1353.95"/>
<text text-anchor="middle" x="130" y="-1332.25" font-family="Helvetica,sans-Serif" font-size="14.00">example&#45;app.ts</text>
</g>
<!-- src/crypto/crypto.ts -->
<g id="node11" class="node">
<title>src/crypto/crypto.ts</title>
<path fill="#79cdcd" stroke="#79cdcd" d="M799,-1510.95C799,-1510.95 755,-1510.95 755,-1510.95 749,-1510.95 743,-1504.95 743,-1498.95 743,-1498.95 743,-1486.95 743,-1486.95 743,-1480.95 749,-1474.95 755,-1474.95 755,-1474.95 799,-1474.95 799,-1474.95 805,-1474.95 811,-1480.95 811,-1486.95 811,-1486.95 811,-1498.95 811,-1498.95 811,-1504.95 805,-1510.95 799,-1510.95"/>
<text text-anchor="middle" x="777" y="-1489.25" font-family="Helvetica,sans-Serif" font-size="14.00">crypto.ts</text>
</g>
<!-- src/example&#45;app.ts&#45;&gt;src/crypto/crypto.ts -->
<g id="edge28" class="edge">
<title>src/example&#45;app.ts&#45;&gt;src/crypto/crypto.ts</title>
<path fill="none" stroke="#528b8b" stroke-width="2" d="M136.61,-1354.02C150.45,-1395.07 190.55,-1494.8 264,-1533.95 283.81,-1544.5 645.92,-1538 668,-1533.95 690.38,-1529.84 714.13,-1521.33 733.64,-1513.11"/>
<polygon fill="#528b8b" stroke="#528b8b" stroke-width="2" points="735.07,-1516.31 742.86,-1509.13 732.29,-1509.88 735.07,-1516.31"/>
</g>
<!-- src/format&#45;validators/format&#45;validator&#45;es4.ts -->
<g id="node14" class="node">
<title>src/format&#45;validators/format&#45;validator&#45;es4.ts</title>
<path fill="#79cdcd" stroke="#79cdcd" d="M648,-1632.95C648,-1632.95 520,-1632.95 520,-1632.95 514,-1632.95 508,-1626.95 508,-1620.95 508,-1620.95 508,-1608.95 508,-1608.95 508,-1602.95 514,-1596.95 520,-1596.95 520,-1596.95 648,-1596.95 648,-1596.95 654,-1596.95 660,-1602.95 660,-1608.95 660,-1608.95 660,-1620.95 660,-1620.95 660,-1626.95 654,-1632.95 648,-1632.95"/>
<text text-anchor="middle" x="584" y="-1611.25" font-family="Helvetica,sans-Serif" font-size="14.00">format&#45;validator&#45;es4.ts</text>
</g>
<!-- src/example&#45;app.ts&#45;&gt;src/format&#45;validators/format&#45;validator&#45;es4.ts -->
<g id="edge25" class="edge">
<title>src/example&#45;app.ts&#45;&gt;src/format&#45;validators/format&#45;validator&#45;es4.ts</title>
<path fill="none" stroke="#528b8b" stroke-width="2" d="M137.11,-1354.09C151.88,-1395 193.58,-1494.68 264,-1543.95 332.87,-1592.13 428.86,-1608.32 497.52,-1613.42"/>
<polygon fill="#528b8b" stroke="#528b8b" stroke-width="2" points="497.65,-1616.93 507.87,-1614.12 498.13,-1609.95 497.65,-1616.93"/>
</g>
<!-- src/peer/peer.ts -->
<g id="node22" class="node">
<title>src/peer/peer.ts</title>
<path fill="#79cdcd" stroke="#79cdcd" d="M385,-1390.95C385,-1390.95 351,-1390.95 351,-1390.95 345,-1390.95 339,-1384.95 339,-1378.95 339,-1378.95 339,-1366.95 339,-1366.95 339,-1360.95 345,-1354.95 351,-1354.95 351,-1354.95 385,-1354.95 385,-1354.95 391,-1354.95 397,-1360.95 397,-1366.95 397,-1366.95 397,-1378.95 397,-1378.95 397,-1384.95 391,-1390.95 385,-1390.95"/>
<text text-anchor="middle" x="368" y="-1369.25" font-family="Helvetica,sans-Serif" font-size="14.00">peer.ts</text>
</g>
<!-- src/example&#45;app.ts&#45;&gt;src/peer/peer.ts -->
<g id="edge30" class="edge">
<title>src/example&#45;app.ts&#45;&gt;src/peer/peer.ts</title>
<path fill="none" stroke="#528b8b" stroke-width="2" d="M185.14,-1344.44C229.12,-1351.33 290.02,-1360.88 328.97,-1366.98"/>
<polygon fill="#528b8b" stroke="#528b8b" stroke-width="2" points="328.43,-1370.44 338.86,-1368.53 329.52,-1363.53 328.43,-1370.44"/>
</g>
<!-- src/query&#45;follower/query&#45;follower.ts -->
<g id="node24" class="node">
<title>src/query&#45;follower/query&#45;follower.ts</title>
<path fill="#79cdcd" stroke="#79cdcd" d="M414,-966.95C414,-966.95 322,-966.95 322,-966.95 316,-966.95 310,-960.95 310,-954.95 310,-954.95 310,-942.95 310,-942.95 310,-936.95 316,-930.95 322,-930.95 322,-930.95 414,-930.95 414,-930.95 420,-930.95 426,-936.95 426,-942.95 426,-942.95 426,-954.95 426,-954.95 426,-960.95 420,-966.95 414,-966.95"/>
<text text-anchor="middle" x="368" y="-945.25" font-family="Helvetica,sans-Serif" font-size="14.00">query&#45;follower.ts</text>
</g>
<!-- src/example&#45;app.ts&#45;&gt;src/query&#45;follower/query&#45;follower.ts -->
<g id="edge29" class="edge">
<title>src/example&#45;app.ts&#45;&gt;src/query&#45;follower/query&#45;follower.ts</title>
<path fill="none" stroke="#528b8b" stroke-width="2" d="M185.09,-1334.66C200.84,-1331.64 216.79,-1325.57 228,-1313.95 287.95,-1251.75 233.54,-1203.78 264,-1122.95 285.14,-1066.86 323.9,-1008.19 347.37,-975.33"/>
<polygon fill="#528b8b" stroke="#528b8b" stroke-width="2" points="350.25,-977.31 353.27,-967.16 344.58,-973.21 350.25,-977.31"/>
</g>
<!-- src/storage/storage&#45;async.ts -->
<g id="node28" class="node">
<title>src/storage/storage&#45;async.ts</title>
<path fill="#79cdcd" stroke="#79cdcd" d="M414,-1278.95C414,-1278.95 322,-1278.95 322,-1278.95 316,-1278.95 310,-1272.95 310,-1266.95 310,-1266.95 310,-1254.95 310,-1254.95 310,-1248.95 316,-1242.95 322,-1242.95 322,-1242.95 414,-1242.95 414,-1242.95 420,-1242.95 426,-1248.95 426,-1254.95 426,-1254.95 426,-1266.95 426,-1266.95 426,-1272.95 420,-1278.95 414,-1278.95"/>
<text text-anchor="middle" x="368" y="-1257.25" font-family="Helvetica,sans-Serif" font-size="14.00">storage&#45;async.ts</text>
</g>
<!-- src/example&#45;app.ts&#45;&gt;src/storage/storage&#45;async.ts -->
<g id="edge27" class="edge">
<title>src/example&#45;app.ts&#45;&gt;src/storage/storage&#45;async.ts</title>
<path fill="none" stroke="#528b8b" stroke-width="2" d="M185.22,-1328.52C199.62,-1325.25 214.82,-1320.59 228,-1313.95 246.85,-1304.44 245.09,-1292.33 264,-1282.95 275.18,-1277.4 287.72,-1273.25 300.1,-1270.14"/>
<polygon fill="#528b8b" stroke="#528b8b" stroke-width="2" points="301.01,-1273.52 309.96,-1267.86 299.43,-1266.7 301.01,-1273.52"/>
</g>
<!-- src/storage/storage&#45;driver&#45;async&#45;memory.ts -->
<g id="node30" class="node">
<title>src/storage/storage&#45;driver&#45;async&#45;memory.ts</title>
<path fill="#79cdcd" stroke="#79cdcd" d="M460,-1224.95C460,-1224.95 276,-1224.95 276,-1224.95 270,-1224.95 264,-1218.95 264,-1212.95 264,-1212.95 264,-1200.95 264,-1200.95 264,-1194.95 270,-1188.95 276,-1188.95 276,-1188.95 460,-1188.95 460,-1188.95 466,-1188.95 472,-1194.95 472,-1200.95 472,-1200.95 472,-1212.95 472,-1212.95 472,-1218.95 466,-1224.95 460,-1224.95"/>
<text text-anchor="middle" x="368" y="-1203.25" font-family="Helvetica,sans-Serif" font-size="14.00">storage&#45;driver&#45;async&#45;memory.ts</text>
</g>
<!-- src/example&#45;app.ts&#45;&gt;src/storage/storage&#45;driver&#45;async&#45;memory.ts -->
<g id="edge26" class="edge">
<title>src/example&#45;app.ts&#45;&gt;src/storage/storage&#45;driver&#45;async&#45;memory.ts</title>
<path fill="none" stroke="#528b8b" stroke-width="2" d="M185.04,-1332.66C200.24,-1329.49 215.9,-1323.84 228,-1313.95 258.18,-1289.27 234.23,-1259.13 264,-1233.95 265.36,-1232.8 266.76,-1231.7 268.2,-1230.64"/>
<polygon fill="#528b8b" stroke="#528b8b" stroke-width="2" points="270.31,-1233.45 276.83,-1225.09 266.53,-1227.56 270.31,-1233.45"/>
</g>
<!-- src/storage/storage&#45;types.ts -->
<g id="node33" class="node">
<title>src/storage/storage&#45;types.ts</title>
<path fill="#79cdcd" stroke="#79cdcd" d="M628.5,-1204.95C628.5,-1204.95 539.5,-1204.95 539.5,-1204.95 533.5,-1204.95 527.5,-1198.95 527.5,-1192.95 527.5,-1192.95 527.5,-1180.95 527.5,-1180.95 527.5,-1174.95 533.5,-1168.95 539.5,-1168.95 539.5,-1168.95 628.5,-1168.95 628.5,-1168.95 634.5,-1168.95 640.5,-1174.95 640.5,-1180.95 640.5,-1180.95 640.5,-1192.95 640.5,-1192.95 640.5,-1198.95 634.5,-1204.95 628.5,-1204.95"/>
<text text-anchor="middle" x="584" y="-1183.25" font-family="Helvetica,sans-Serif" font-size="14.00">storage&#45;types.ts</text>
</g>
<!-- src/example&#45;app.ts&#45;&gt;src/storage/storage&#45;types.ts -->
<g id="edge31" class="edge">
<title>src/example&#45;app.ts&#45;&gt;src/storage/storage&#45;types.ts</title>
<path fill="none" stroke="#528b8b" stroke-width="2" d="M185.17,-1334.89C269.96,-1332.17 428.81,-1322.48 472,-1287.95 499.47,-1265.99 474.55,-1238.22 500,-1213.95 505.28,-1208.91 511.5,-1204.82 518.13,-1201.49"/>
<polygon fill="#528b8b" stroke="#528b8b" stroke-width="2" points="519.65,-1204.65 527.38,-1197.4 516.82,-1198.24 519.65,-1204.65"/>
</g>
<!-- src/core&#45;validators/addresses.ts -->
<g id="node3" class="node">
<title>src/core&#45;validators/addresses.ts</title>
<path fill="#79cdcd" stroke="#79cdcd" d="M1397.5,-1715.95C1397.5,-1715.95 1328.5,-1715.95 1328.5,-1715.95 1322.5,-1715.95 1316.5,-1709.95 1316.5,-1703.95 1316.5,-1703.95 1316.5,-1691.95 1316.5,-1691.95 1316.5,-1685.95 1322.5,-1679.95 1328.5,-1679.95 1328.5,-1679.95 1397.5,-1679.95 1397.5,-1679.95 1403.5,-1679.95 1409.5,-1685.95 1409.5,-1691.95 1409.5,-1691.95 1409.5,-1703.95 1409.5,-1703.95 1409.5,-1709.95 1403.5,-1715.95 1397.5,-1715.95"/>
<text text-anchor="middle" x="1363" y="-1694.25" font-family="Helvetica,sans-Serif" font-size="14.00">addresses.ts</text>
</g>
<!-- src/core&#45;validators/characters.ts -->
<g id="node4" class="node">
<title>src/core&#45;validators/characters.ts</title>
<path fill="#79cdcd" stroke="#79cdcd" d="M1655,-1769.95C1655,-1769.95 1585,-1769.95 1585,-1769.95 1579,-1769.95 1573,-1763.95 1573,-1757.95 1573,-1757.95 1573,-1745.95 1573,-1745.95 1573,-1739.95 1579,-1733.95 1585,-1733.95 1585,-1733.95 1655,-1733.95 1655,-1733.95 1661,-1733.95 1667,-1739.95 1667,-1745.95 1667,-1745.95 1667,-1757.95 1667,-1757.95 1667,-1763.95 1661,-1769.95 1655,-1769.95"/>
<text text-anchor="middle" x="1620" y="-1748.25" font-family="Helvetica,sans-Serif" font-size="14.00">characters.ts</text>
</g>
<!-- src/core&#45;validators/addresses.ts&#45;&gt;src/core&#45;validators/characters.ts -->
<g id="edge5" class="edge">
<title>src/core&#45;validators/addresses.ts&#45;&gt;src/core&#45;validators/characters.ts</title>
<path fill="none" stroke="#528b8b" stroke-width="2" d="M1409.59,-1707.6C1452.56,-1716.7 1517.07,-1730.36 1563.12,-1740.11"/>
<polygon fill="#528b8b" stroke="#528b8b" stroke-width="2" points="1562.44,-1743.55 1572.95,-1742.19 1563.89,-1736.7 1562.44,-1743.55"/>
</g>
<!-- src/core&#45;validators/checkers.ts -->
<g id="node5" class="node">
<title>src/core&#45;validators/checkers.ts</title>
<path fill="#79cdcd" stroke="#79cdcd" d="M1393.5,-1769.95C1393.5,-1769.95 1332.5,-1769.95 1332.5,-1769.95 1326.5,-1769.95 1320.5,-1763.95 1320.5,-1757.95 1320.5,-1757.95 1320.5,-1745.95 1320.5,-1745.95 1320.5,-1739.95 1326.5,-1733.95 1332.5,-1733.95 1332.5,-1733.95 1393.5,-1733.95 1393.5,-1733.95 1399.5,-1733.95 1405.5,-1739.95 1405.5,-1745.95 1405.5,-1745.95 1405.5,-1757.95 1405.5,-1757.95 1405.5,-1763.95 1399.5,-1769.95 1393.5,-1769.95"/>
<text text-anchor="middle" x="1363" y="-1748.25" font-family="Helvetica,sans-Serif" font-size="14.00">checkers.ts</text>
</g>
<!-- src/core&#45;validators/checkers.ts&#45;&gt;src/core&#45;validators/characters.ts -->
<g id="edge6" class="edge">
<title>src/core&#45;validators/checkers.ts&#45;&gt;src/core&#45;validators/characters.ts</title>
<path fill="none" stroke="#528b8b" stroke-width="2" d="M1405.54,-1751.95C1448.27,-1751.95 1515.11,-1751.95 1562.61,-1751.95"/>
<polygon fill="#528b8b" stroke="#528b8b" stroke-width="2" points="1562.73,-1755.45 1572.73,-1751.95 1562.73,-1748.45 1562.73,-1755.45"/>
</g>
<!-- src/crypto/base32.ts -->
<g id="node6" class="node">
<title>src/crypto/base32.ts</title>
<path fill="#79cdcd" stroke="#79cdcd" d="M1388.5,-1509.95C1388.5,-1509.95 1337.5,-1509.95 1337.5,-1509.95 1331.5,-1509.95 1325.5,-1503.95 1325.5,-1497.95 1325.5,-1497.95 1325.5,-1485.95 1325.5,-1485.95 1325.5,-1479.95 1331.5,-1473.95 1337.5,-1473.95 1337.5,-1473.95 1388.5,-1473.95 1388.5,-1473.95 1394.5,-1473.95 1400.5,-1479.95 1400.5,-1485.95 1400.5,-1485.95 1400.5,-1497.95 1400.5,-1497.95 1400.5,-1503.95 1394.5,-1509.95 1388.5,-1509.95"/>
<text text-anchor="middle" x="1363" y="-1488.25" font-family="Helvetica,sans-Serif" font-size="14.00">base32.ts</text>
</g>
<!-- src/crypto/base32.ts&#45;&gt;deps.ts -->
<g id="edge7" class="edge">
<title>src/crypto/base32.ts&#45;&gt;deps.ts</title>
<path fill="none" stroke="#528b8b" stroke-width="2" d="M1336.28,-1473.81C1319.91,-1461.38 1299.04,-1443.78 1284,-1424.95 1262.66,-1398.23 1269.61,-1383.45 1248,-1356.95 1119.13,-1198.87 1002.22,-1237.82 894,-1064.95 845.41,-987.33 796.98,-704.63 782.41,-614.07"/>
<polygon fill="#528b8b" stroke="#528b8b" stroke-width="2" points="785.84,-613.33 780.8,-604 778.92,-614.43 785.84,-613.33"/>
</g>
<!-- src/crypto/crypto&#45;driver&#45;chloride.ts -->
<g id="node7" class="node">
<title>src/crypto/crypto&#45;driver&#45;chloride.ts</title>
<path fill="#79cdcd" stroke="#79cdcd" d="M1430,-1361.95C1430,-1361.95 1296,-1361.95 1296,-1361.95 1290,-1361.95 1284,-1355.95 1284,-1349.95 1284,-1349.95 1284,-1337.95 1284,-1337.95 1284,-1331.95 1290,-1325.95 1296,-1325.95 1296,-1325.95 1430,-1325.95 1430,-1325.95 1436,-1325.95 1442,-1331.95 1442,-1337.95 1442,-1337.95 1442,-1349.95 1442,-1349.95 1442,-1355.95 1436,-1361.95 1430,-1361.95"/>
<text text-anchor="middle" x="1363" y="-1340.25" font-family="Helvetica,sans-Serif" font-size="14.00">crypto&#45;driver&#45;chloride.ts</text>
</g>
<!-- src/crypto/crypto&#45;driver&#45;chloride.ts&#45;&gt;deps.ts -->
<g id="edge8" class="edge">
<title>src/crypto/crypto&#45;driver&#45;chloride.ts&#45;&gt;deps.ts</title>
<path fill="none" stroke="#528b8b" stroke-width="2" d="M1357.8,-1325.89C1346.1,-1278.03 1309.85,-1145.17 1248,-1050.95 1118.59,-853.81 894.19,-673.61 810.61,-610.12"/>
<polygon fill="#528b8b" stroke="#528b8b" stroke-width="2" points="812.59,-607.24 802.51,-604 808.37,-612.82 812.59,-607.24"/>
</g>
<!-- src/crypto/crypto&#45;types.ts -->
<g id="node10" class="node">
<title>src/crypto/crypto&#45;types.ts</title>
<path fill="#79cdcd" stroke="#79cdcd" d="M1660,-1462.95C1660,-1462.95 1580,-1462.95 1580,-1462.95 1574,-1462.95 1568,-1456.95 1568,-1450.95 1568,-1450.95 1568,-1438.95 1568,-1438.95 1568,-1432.95 1574,-1426.95 1580,-1426.95 1580,-1426.95 1660,-1426.95 1660,-1426.95 1666,-1426.95 1672,-1432.95 1672,-1438.95 1672,-1438.95 1672,-1450.95 1672,-1450.95 1672,-1456.95 1666,-1462.95 1660,-1462.95"/>
<text text-anchor="middle" x="1620" y="-1441.25" font-family="Helvetica,sans-Serif" font-size="14.00">crypto&#45;types.ts</text>
</g>
<!-- src/crypto/crypto&#45;driver&#45;chloride.ts&#45;&gt;src/crypto/crypto&#45;types.ts -->
<g id="edge9" class="edge">
<title>src/crypto/crypto&#45;driver&#45;chloride.ts&#45;&gt;src/crypto/crypto&#45;types.ts</title>
<path fill="none" stroke="#528b8b" stroke-width="2" d="M1417.45,-1361.95C1425.7,-1364.87 1434.1,-1367.93 1442,-1370.95 1484.95,-1387.34 1533.04,-1407.57 1568.24,-1422.73"/>
<polygon fill="#528b8b" stroke="#528b8b" stroke-width="2" points="1567.24,-1426.11 1577.81,-1426.86 1570.02,-1419.69 1567.24,-1426.11"/>
</g>
<!-- https://deno.land/std@0.119.0/node/buffer.ts -->
<g id="node48" class="node">
<title>https://deno.land/std@0.119.0/node/buffer.ts</title>
<polygon fill="#cdc8b1" stroke="#8b8878" points="1762,-285.95 1482,-285.95 1478,-281.95 1478,-249.95 1758,-249.95 1762,-253.95 1762,-285.95"/>
<polyline fill="none" stroke="#8b8878" points="1758,-281.95 1478,-281.95 "/>
<polyline fill="none" stroke="#8b8878" points="1758,-281.95 1758,-249.95 "/>
<polyline fill="none" stroke="#8b8878" points="1758,-281.95 1762,-285.95 "/>
<text text-anchor="middle" x="1620" y="-264.25" font-family="Helvetica,sans-Serif" font-size="14.00">https://deno.land/std@0.119.0/node/buffer.ts</text>
</g>
<!-- src/crypto/crypto&#45;driver&#45;chloride.ts&#45;&gt;https://deno.land/std@0.119.0/node/buffer.ts -->
<g id="edge96" class="edge">
<title>src/crypto/crypto&#45;driver&#45;chloride.ts&#45;&gt;https://deno.land/std@0.119.0/node/buffer.ts</title>
<path fill="none" stroke="#8b8878" stroke-width="1.5" stroke-dasharray="5,2" d="M1368.32,-1325.72C1398.32,-1199.11 1575.59,-451.11 1612.34,-296.07"/>
<polygon fill="#8b8878" stroke="#8b8878" stroke-width="1.5" points="1615.74,-296.87 1614.64,-286.34 1608.93,-295.26 1615.74,-296.87"/>
</g>
<!-- src/crypto/crypto&#45;driver&#45;fake.ts -->
<g id="node8" class="node">
<title>src/crypto/crypto&#45;driver&#45;fake.ts</title>
<path fill="#79cdcd" stroke="#79cdcd" d="M1127,-1455.95C1127,-1455.95 1015,-1455.95 1015,-1455.95 1009,-1455.95 1003,-1449.95 1003,-1443.95 1003,-1443.95 1003,-1431.95 1003,-1431.95 1003,-1425.95 1009,-1419.95 1015,-1419.95 1015,-1419.95 1127,-1419.95 1127,-1419.95 1133,-1419.95 1139,-1425.95 1139,-1431.95 1139,-1431.95 1139,-1443.95 1139,-1443.95 1139,-1449.95 1133,-1455.95 1127,-1455.95"/>
<text text-anchor="middle" x="1071" y="-1434.25" font-family="Helvetica,sans-Serif" font-size="14.00">crypto&#45;driver&#45;fake.ts</text>
</g>
<!-- src/crypto/crypto&#45;driver&#45;fake.ts&#45;&gt;src/crypto/base32.ts -->
<g id="edge11" class="edge">
<title>src/crypto/crypto&#45;driver&#45;fake.ts&#45;&gt;src/crypto/base32.ts</title>
<path fill="none" stroke="#528b8b" stroke-width="2" d="M1139.31,-1450.01C1172.11,-1455.93 1212.13,-1463.23 1248,-1469.95 1270.12,-1474.09 1294.62,-1478.81 1315.23,-1482.8"/>
<polygon fill="#528b8b" stroke="#528b8b" stroke-width="2" points="1314.83,-1486.29 1325.31,-1484.76 1316.16,-1479.42 1314.83,-1486.29"/>
</g>
<!-- src/crypto/crypto&#45;driver&#45;fake.ts&#45;&gt;src/crypto/crypto&#45;types.ts -->
<g id="edge10" class="edge">
<title>src/crypto/crypto&#45;driver&#45;fake.ts&#45;&gt;src/crypto/crypto&#45;types.ts</title>
<path fill="none" stroke="#528b8b" stroke-width="2" d="M1139.07,-1438.81C1246.09,-1440.18 1453.91,-1442.83 1557.38,-1444.16"/>
<polygon fill="#528b8b" stroke="#528b8b" stroke-width="2" points="1557.62,-1447.66 1567.66,-1444.29 1557.71,-1440.66 1557.62,-1447.66"/>
</g>
<!-- src/crypto/crypto&#45;driver&#45;noble.ts -->
<g id="node9" class="node">
<title>src/crypto/crypto&#45;driver&#45;noble.ts</title>
<path fill="#79cdcd" stroke="#79cdcd" d="M1422.5,-1415.95C1422.5,-1415.95 1303.5,-1415.95 1303.5,-1415.95 1297.5,-1415.95 1291.5,-1409.95 1291.5,-1403.95 1291.5,-1403.95 1291.5,-1391.95 1291.5,-1391.95 1291.5,-1385.95 1297.5,-1379.95 1303.5,-1379.95 1303.5,-1379.95 1422.5,-1379.95 1422.5,-1379.95 1428.5,-1379.95 1434.5,-1385.95 1434.5,-1391.95 1434.5,-1391.95 1434.5,-1403.95 1434.5,-1403.95 1434.5,-1409.95 1428.5,-1415.95 1422.5,-1415.95"/>
<text text-anchor="middle" x="1363" y="-1394.25" font-family="Helvetica,sans-Serif" font-size="14.00">crypto&#45;driver&#45;noble.ts</text>
</g>
<!-- src/crypto/crypto&#45;driver&#45;noble.ts&#45;&gt;deps.ts -->
<g id="edge13" class="edge">
<title>src/crypto/crypto&#45;driver&#45;noble.ts&#45;&gt;deps.ts</title>
<path fill="none" stroke="#528b8b" stroke-width="2" d="M1295.01,-1379.95C1291,-1377.34 1287.27,-1374.36 1284,-1370.95 1245.46,-1330.76 1275.64,-1299.29 1248,-1250.95 1133.1,-1050.01 1018.56,-1064.05 894,-868.95 839.09,-782.93 801.25,-666.57 785.79,-613.9"/>
<polygon fill="#528b8b" stroke="#528b8b" stroke-width="2" points="789.14,-612.88 783,-604.24 782.42,-614.82 789.14,-612.88"/>
</g>
<!-- src/crypto/crypto&#45;driver&#45;noble.ts&#45;&gt;src/crypto/crypto&#45;types.ts -->
<g id="edge12" class="edge">
<title>src/crypto/crypto&#45;driver&#45;noble.ts&#45;&gt;src/crypto/crypto&#45;types.ts</title>
<path fill="none" stroke="#528b8b" stroke-width="2" d="M1434.69,-1410.98C1473.23,-1418.08 1520.46,-1426.78 1557.46,-1433.61"/>
<polygon fill="#528b8b" stroke="#528b8b" stroke-width="2" points="1557.14,-1437.11 1567.61,-1435.48 1558.41,-1430.22 1557.14,-1437.11"/>
</g>
<!-- src/noble&#45;ed25519/noble&#45;ed25519.ts -->
<g id="node16" class="node">
<title>src/noble&#45;ed25519/noble&#45;ed25519.ts</title>
<path fill="#79cdcd" stroke="#79cdcd" d="M1668.5,-1632.95C1668.5,-1632.95 1571.5,-1632.95 1571.5,-1632.95 1565.5,-1632.95 1559.5,-1626.95 1559.5,-1620.95 1559.5,-1620.95 1559.5,-1608.95 1559.5,-1608.95 1559.5,-1602.95 1565.5,-1596.95 1571.5,-1596.95 1571.5,-1596.95 1668.5,-1596.95 1668.5,-1596.95 1674.5,-1596.95 1680.5,-1602.95 1680.5,-1608.95 1680.5,-1608.95 1680.5,-1620.95 1680.5,-1620.95 1680.5,-1626.95 1674.5,-1632.95 1668.5,-1632.95"/>
<text text-anchor="middle" x="1620" y="-1611.25" font-family="Helvetica,sans-Serif" font-size="14.00">noble&#45;ed25519.ts</text>
</g>
<!-- src/crypto/crypto&#45;driver&#45;noble.ts&#45;&gt;src/noble&#45;ed25519/noble&#45;ed25519.ts -->
<g id="edge14" class="edge">
<title>src/crypto/crypto&#45;driver&#45;noble.ts&#45;&gt;src/noble&#45;ed25519/noble&#45;ed25519.ts</title>
<path fill="none" stroke="#528b8b" stroke-width="2" d="M1392.13,-1415.97C1408.82,-1427.99 1429.16,-1445.19 1442,-1464.95 1472.34,-1511.64 1437.05,-1547.22 1478,-1584.95 1497.09,-1602.54 1523.85,-1610.8 1548.94,-1614.4"/>
<polygon fill="#528b8b" stroke="#528b8b" stroke-width="2" points="1548.84,-1617.91 1559.19,-1615.64 1549.68,-1610.96 1548.84,-1617.91"/>
</g>
<!-- src/crypto/crypto.ts&#45;&gt;src/core&#45;validators/addresses.ts -->
<g id="edge18" class="edge">
<title>src/crypto/crypto.ts&#45;&gt;src/core&#45;validators/addresses.ts</title>
<path fill="none" stroke="#528b8b" stroke-width="2" d="M808.75,-1511.13C831.71,-1524.2 864.13,-1541.62 894,-1553.95 1038.71,-1613.65 1217.4,-1661.98 1306.3,-1684.4"/>
<polygon fill="#528b8b" stroke="#528b8b" stroke-width="2" points="1305.62,-1687.83 1316.17,-1686.87 1307.32,-1681.04 1305.62,-1687.83"/>
</g>
<!-- src/crypto/crypto.ts&#45;&gt;src/crypto/base32.ts -->
<g id="edge16" class="edge">
<title>src/crypto/crypto.ts&#45;&gt;src/crypto/base32.ts</title>
<path fill="none" stroke="#528b8b" stroke-width="2" d="M811.22,-1490.05C834.4,-1488.17 866.06,-1485.91 894,-1484.95 1051.24,-1479.53 1090.74,-1480.12 1248,-1484.95 1270.13,-1485.63 1294.63,-1487.04 1315.24,-1488.43"/>
<polygon fill="#528b8b" stroke="#528b8b" stroke-width="2" points="1315.1,-1491.93 1325.32,-1489.12 1315.58,-1484.94 1315.1,-1491.93"/>
</g>
<!-- src/crypto/crypto.ts&#45;&gt;src/crypto/crypto&#45;types.ts -->
<g id="edge15" class="edge">
<title>src/crypto/crypto.ts&#45;&gt;src/crypto/crypto&#45;types.ts</title>
<path fill="none" stroke="#528b8b" stroke-width="2" d="M811.49,-1510.15C834.13,-1520.78 865.06,-1533.42 894,-1538.95 953.82,-1550.37 1382.95,-1544.84 1442,-1529.95 1493.13,-1517.05 1547.09,-1488.71 1581.79,-1468.29"/>
<polygon fill="#528b8b" stroke="#528b8b" stroke-width="2" points="1583.83,-1471.16 1590.62,-1463.03 1580.24,-1465.15 1583.83,-1471.16"/>
</g>
<!-- src/crypto/global&#45;crypto&#45;driver.ts -->
<g id="node12" class="node">
<title>src/crypto/global&#45;crypto&#45;driver.ts</title>
<path fill="#79cdcd" stroke="#79cdcd" d="M1132,-1401.95C1132,-1401.95 1010,-1401.95 1010,-1401.95 1004,-1401.95 998,-1395.95 998,-1389.95 998,-1389.95 998,-1377.95 998,-1377.95 998,-1371.95 1004,-1365.95 1010,-1365.95 1010,-1365.95 1132,-1365.95 1132,-1365.95 1138,-1365.95 1144,-1371.95 1144,-1377.95 1144,-1377.95 1144,-1389.95 1144,-1389.95 1144,-1395.95 1138,-1401.95 1132,-1401.95"/>
<text text-anchor="middle" x="1071" y="-1380.25" font-family="Helvetica,sans-Serif" font-size="14.00">global&#45;crypto&#45;driver.ts</text>
</g>
<!-- src/crypto/crypto.ts&#45;&gt;src/crypto/global&#45;crypto&#45;driver.ts -->
<g id="edge19" class="edge">
<title>src/crypto/crypto.ts&#45;&gt;src/crypto/global&#45;crypto&#45;driver.ts</title>
<path fill="none" stroke="#528b8b" stroke-width="2" d="M797.65,-1474.66C819.44,-1455.49 856.5,-1426.09 894,-1410.95 923.36,-1399.09 957.4,-1392.4 987.67,-1388.64"/>
<polygon fill="#528b8b" stroke="#528b8b" stroke-width="2" points="988.25,-1392.1 997.78,-1387.47 987.45,-1385.14 988.25,-1392.1"/>
</g>
<!-- src/crypto/keypair.ts -->
<g id="node13" class="node">
<title>src/crypto/keypair.ts</title>
<path fill="#79cdcd" stroke="#79cdcd" d="M1096,-1529.95C1096,-1529.95 1046,-1529.95 1046,-1529.95 1040,-1529.95 1034,-1523.95 1034,-1517.95 1034,-1517.95 1034,-1505.95 1034,-1505.95 1034,-1499.95 1040,-1493.95 1046,-1493.95 1046,-1493.95 1096,-1493.95 1096,-1493.95 1102,-1493.95 1108,-1499.95 1108,-1505.95 1108,-1505.95 1108,-1517.95 1108,-1517.95 1108,-1523.95 1102,-1529.95 1096,-1529.95"/>
<text text-anchor="middle" x="1071" y="-1508.25" font-family="Helvetica,sans-Serif" font-size="14.00">keypair.ts</text>
</g>
<!-- src/crypto/crypto.ts&#45;&gt;src/crypto/keypair.ts -->
<g id="edge17" class="edge">
<title>src/crypto/crypto.ts&#45;&gt;src/crypto/keypair.ts</title>
<path fill="none" stroke="#528b8b" stroke-width="2" d="M811.21,-1495.11C863.25,-1498.49 964.15,-1505.06 1023.42,-1508.92"/>
<polygon fill="#528b8b" stroke="#528b8b" stroke-width="2" points="1023.42,-1512.42 1033.62,-1509.58 1023.87,-1505.44 1023.42,-1512.42"/>
</g>
<!-- src/crypto/global&#45;crypto&#45;driver.ts&#45;&gt;src/crypto/crypto&#45;driver&#45;noble.ts -->
<g id="edge20" class="edge">
<title>src/crypto/global&#45;crypto&#45;driver.ts&#45;&gt;src/crypto/crypto&#45;driver&#45;noble.ts</title>
<path fill="none" stroke="#528b8b" stroke-width="2" d="M1144.06,-1387.43C1185.68,-1389.44 1238.14,-1391.97 1281.16,-1394.04"/>
<polygon fill="#528b8b" stroke="#528b8b" stroke-width="2" points="1281.16,-1397.55 1291.32,-1394.54 1281.5,-1390.56 1281.16,-1397.55"/>
</g>
<!-- src/crypto/global&#45;crypto&#45;driver.ts&#45;&gt;src/crypto/crypto&#45;types.ts -->
<g id="edge21" class="edge">
<title>src/crypto/global&#45;crypto&#45;driver.ts&#45;&gt;src/crypto/crypto&#45;types.ts</title>
<path fill="none" stroke="#528b8b" stroke-width="2" d="M1144.24,-1391.41C1176.35,-1395.65 1214.41,-1401.95 1248,-1410.95 1264.58,-1415.39 1267.23,-1421.28 1284,-1424.95 1334.42,-1435.97 1475.51,-1441.32 1557.61,-1443.56"/>
<polygon fill="#528b8b" stroke="#528b8b" stroke-width="2" points="1557.72,-1447.07 1567.81,-1443.83 1557.91,-1440.07 1557.72,-1447.07"/>
</g>
<!-- src/crypto/keypair.ts&#45;&gt;src/core&#45;validators/addresses.ts -->
<g id="edge24" class="edge">
<title>src/crypto/keypair.ts&#45;&gt;src/core&#45;validators/addresses.ts</title>
<path fill="none" stroke="#528b8b" stroke-width="2" d="M1108.02,-1525.3C1144.79,-1539.74 1202.74,-1564.79 1248,-1594.95 1281.96,-1617.57 1316.03,-1649.93 1337.97,-1672.32"/>
<polygon fill="#528b8b" stroke="#528b8b" stroke-width="2" points="1335.73,-1675.04 1345.2,-1679.79 1340.76,-1670.17 1335.73,-1675.04"/>
</g>
<!-- src/crypto/keypair.ts&#45;&gt;src/crypto/base32.ts -->
<g id="edge22" class="edge">
<title>src/crypto/keypair.ts&#45;&gt;src/crypto/base32.ts</title>
<path fill="none" stroke="#528b8b" stroke-width="2" d="M1108.14,-1509.45C1160.46,-1505.85 1257.33,-1499.17 1315.09,-1495.18"/>
<polygon fill="#528b8b" stroke="#528b8b" stroke-width="2" points="1315.67,-1498.65 1325.4,-1494.47 1315.19,-1491.67 1315.67,-1498.65"/>
</g>
<!-- src/crypto/keypair.ts&#45;&gt;src/crypto/crypto&#45;types.ts -->
<g id="edge23" class="edge">
<title>src/crypto/keypair.ts&#45;&gt;src/crypto/crypto&#45;types.ts</title>
<path fill="none" stroke="#528b8b" stroke-width="2" d="M1108.18,-1517.74C1174.94,-1527.31 1321.68,-1543.09 1442,-1518.95 1490.71,-1509.17 1542.75,-1485.67 1577.7,-1467.75"/>
<polygon fill="#528b8b" stroke="#528b8b" stroke-width="2" points="1579.4,-1470.81 1586.65,-1463.09 1576.16,-1464.6 1579.4,-1470.81"/>
</g>
<!-- src/format&#45;validators/format&#45;validator&#45;es4.ts&#45;&gt;src/core&#45;validators/addresses.ts -->
<g id="edge36" class="edge">
<title>src/format&#45;validators/format&#45;validator&#45;es4.ts&#45;&gt;src/core&#45;validators/addresses.ts</title>
<path fill="none" stroke="#528b8b" stroke-width="2" d="M651.87,-1632.98C666.34,-1636.39 681.61,-1639.61 696,-1641.95 920.34,-1678.44 1191.3,-1691.87 1306.19,-1696.17"/>
<polygon fill="#528b8b" stroke="#528b8b" stroke-width="2" points="1306.36,-1699.68 1316.48,-1696.55 1306.62,-1692.68 1306.36,-1699.68"/>
</g>
<!-- src/format&#45;validators/format&#45;validator&#45;es4.ts&#45;&gt;src/core&#45;validators/characters.ts -->
<g id="edge34" class="edge">
<title>src/format&#45;validators/format&#45;validator&#45;es4.ts&#45;&gt;src/core&#45;validators/characters.ts</title>
<path fill="none" stroke="#528b8b" stroke-width="2" d="M610.28,-1633.07C632.05,-1647.9 664.8,-1668.4 696,-1680.95 941.81,-1779.8 1019.64,-1761.4 1284,-1778.95 1354.07,-1783.6 1371.98,-1784.26 1442,-1778.95 1482.62,-1775.87 1528.04,-1768.86 1562.7,-1762.76"/>
<polygon fill="#528b8b" stroke="#528b8b" stroke-width="2" points="1563.41,-1766.19 1572.64,-1760.99 1562.18,-1759.3 1563.41,-1766.19"/>
</g>
<!-- src/format&#45;validators/format&#45;validator&#45;es4.ts&#45;&gt;src/core&#45;validators/checkers.ts -->
<g id="edge35" class="edge">
<title>src/format&#45;validators/format&#45;validator&#45;es4.ts&#45;&gt;src/core&#45;validators/checkers.ts</title>
<path fill="none" stroke="#528b8b" stroke-width="2" d="M625.12,-1633.05C645.9,-1641.77 671.9,-1651.67 696,-1657.95 920.35,-1716.44 1197.32,-1740.74 1310.33,-1748.71"/>
<polygon fill="#528b8b" stroke="#528b8b" stroke-width="2" points="1310.21,-1752.21 1320.43,-1749.41 1310.69,-1745.22 1310.21,-1752.21"/>
</g>
<!-- src/format&#45;validators/format&#45;validator&#45;es4.ts&#45;&gt;src/crypto/crypto.ts -->
<g id="edge33" class="edge">
<title>src/format&#45;validators/format&#45;validator&#45;es4.ts&#45;&gt;src/crypto/crypto.ts</title>
<path fill="none" stroke="#528b8b" stroke-width="2" d="M660.32,-1596.8C662.95,-1595.6 665.52,-1594.31 668,-1592.95 702.45,-1573.99 734.5,-1541.7 754.59,-1518.95"/>
<polygon fill="#528b8b" stroke="#528b8b" stroke-width="2" points="757.28,-1521.19 761.18,-1511.34 751.99,-1516.61 757.28,-1521.19"/>
</g>
<!-- src/format&#45;validators/format&#45;validator&#45;types.ts -->
<g id="node15" class="node">
<title>src/format&#45;validators/format&#45;validator&#45;types.ts</title>
<path fill="#79cdcd" stroke="#79cdcd" d="M846,-1632.95C846,-1632.95 708,-1632.95 708,-1632.95 702,-1632.95 696,-1626.95 696,-1620.95 696,-1620.95 696,-1608.95 696,-1608.95 696,-1602.95 702,-1596.95 708,-1596.95 708,-1596.95 846,-1596.95 846,-1596.95 852,-1596.95 858,-1602.95 858,-1608.95 858,-1608.95 858,-1620.95 858,-1620.95 858,-1626.95 852,-1632.95 846,-1632.95"/>
<text text-anchor="middle" x="777" y="-1611.25" font-family="Helvetica,sans-Serif" font-size="14.00">format&#45;validator&#45;types.ts</text>
</g>
<!-- src/format&#45;validators/format&#45;validator&#45;es4.ts&#45;&gt;src/format&#45;validators/format&#45;validator&#45;types.ts -->
<g id="edge32" class="edge">
<title>src/format&#45;validators/format&#45;validator&#45;es4.ts&#45;&gt;src/format&#45;validators/format&#45;validator&#45;types.ts</title>
<path fill="none" stroke="#528b8b" stroke-width="2" d="M660.21,-1614.95C668.62,-1614.95 677.24,-1614.95 685.81,-1614.95"/>
<polygon fill="#528b8b" stroke="#528b8b" stroke-width="2" points="685.82,-1618.45 695.82,-1614.95 685.82,-1611.45 685.82,-1618.45"/>
</g>
<!-- https://deno.land/std@0.119.0/node/crypto.ts -->
<g id="node49" class="node">
<title>https://deno.land/std@0.119.0/node/crypto.ts</title>
<polygon fill="#cdc8b1" stroke="#8b8878" points="2084,-1632.95 1802,-1632.95 1798,-1628.95 1798,-1596.95 2080,-1596.95 2084,-1600.95 2084,-1632.95"/>
<polyline fill="none" stroke="#8b8878" points="2080,-1628.95 1798,-1628.95 "/>
<polyline fill="none" stroke="#8b8878" points="2080,-1628.95 2080,-1596.95 "/>
<polyline fill="none" stroke="#8b8878" points="2080,-1628.95 2084,-1632.95 "/>
<text text-anchor="middle" x="1941" y="-1611.25" font-family="Helvetica,sans-Serif" font-size="14.00">https://deno.land/std@0.119.0/node/crypto.ts</text>
</g>
<!-- src/noble&#45;ed25519/noble&#45;ed25519.ts&#45;&gt;https://deno.land/std@0.119.0/node/crypto.ts -->
<g id="edge97" class="edge">
<title>src/noble&#45;ed25519/noble&#45;ed25519.ts&#45;&gt;https://deno.land/std@0.119.0/node/crypto.ts</title>
<path fill="none" stroke="#8b8878" stroke-width="1.5" stroke-dasharray="5,2" d="M1680.63,-1614.95C1711.09,-1614.95 1749.68,-1614.95 1787.72,-1614.95"/>
<polygon fill="#8b8878" stroke="#8b8878" stroke-width="1.5" points="1787.9,-1618.45 1797.9,-1614.95 1787.9,-1611.45 1787.9,-1618.45"/>
</g>
<!-- src/node/chloride.d.ts -->
<g id="node17" class="node">
<title>src/node/chloride.d.ts</title>
<path fill="#79cdcd" stroke="#79cdcd" d="M400.5,-883.95C400.5,-883.95 335.5,-883.95 335.5,-883.95 329.5,-883.95 323.5,-877.95 323.5,-871.95 323.5,-871.95 323.5,-859.95 323.5,-859.95 323.5,-853.95 329.5,-847.95 335.5,-847.95 335.5,-847.95 400.5,-847.95 400.5,-847.95 406.5,-847.95 412.5,-853.95 412.5,-859.95 412.5,-859.95 412.5,-871.95 412.5,-871.95 412.5,-877.95 406.5,-883.95 400.5,-883.95"/>
<text text-anchor="middle" x="368" y="-862.25" font-family="Helvetica,sans-Serif" font-size="14.00">chloride.d.ts</text>
</g>
<!-- src/node/chloride.d.ts&#45;&gt;https://deno.land/std@0.119.0/node/buffer.ts -->
<g id="edge98" class="edge">
<title>src/node/chloride.d.ts&#45;&gt;https://deno.land/std@0.119.0/node/buffer.ts</title>
<path fill="none" stroke="#8b8878" stroke-width="1.5" stroke-dasharray="5,2" d="M368.9,-847.9C369.26,-723.83 388.01,-1.95 776,-1.95 776,-1.95 776,-1.95 1072,-1.95 1150.68,-1.95 1174.02,5.84 1248,-20.95 1391.49,-72.91 1534.09,-191.41 1592,-243.08"/>
<polygon fill="#8b8878" stroke="#8b8878" stroke-width="1.5" points="1589.83,-245.83 1599.6,-249.92 1594.51,-240.63 1589.83,-245.83"/>
</g>
<!-- src/node/chloride.ts&#45;&gt;src/node/chloride.d.ts -->
<g id="edge37" class="edge">
<title>src/node/chloride.ts&#45;&gt;src/node/chloride.d.ts</title>
<path fill="none" stroke="#528b8b" stroke-width="2" d="M169.18,-865.95C208.19,-865.95 269.11,-865.95 313.04,-865.95"/>
<polygon fill="#528b8b" stroke="#528b8b" stroke-width="2" points="313.26,-869.45 323.26,-865.95 313.26,-862.45 313.26,-869.45"/>
</g>
<!-- src/peer/peer&#45;client.ts -->
<g id="node19" class="node">
<title>src/peer/peer&#45;client.ts</title>
<path fill="#79cdcd" stroke="#79cdcd" d="M403,-1444.95C403,-1444.95 333,-1444.95 333,-1444.95 327,-1444.95 321,-1438.95 321,-1432.95 321,-1432.95 321,-1420.95 321,-1420.95 321,-1414.95 327,-1408.95 333,-1408.95 333,-1408.95 403,-1408.95 403,-1408.95 409,-1408.95 415,-1414.95 415,-1420.95 415,-1420.95 415,-1432.95 415,-1432.95 415,-1438.95 409,-1444.95 403,-1444.95"/>
<text text-anchor="middle" x="368" y="-1423.25" font-family="Helvetica,sans-Serif" font-size="14.00">peer&#45;client.ts</text>
</g>
<!-- src/peer/peer&#45;types.ts -->
<g id="node21" class="node">
<title>src/peer/peer&#45;types.ts</title>
<path fill="#79cdcd" stroke="#79cdcd" d="M619.5,-1418.95C619.5,-1418.95 548.5,-1418.95 548.5,-1418.95 542.5,-1418.95 536.5,-1412.95 536.5,-1406.95 536.5,-1406.95 536.5,-1394.95 536.5,-1394.95 536.5,-1388.95 542.5,-1382.95 548.5,-1382.95 548.5,-1382.95 619.5,-1382.95 619.5,-1382.95 625.5,-1382.95 631.5,-1388.95 631.5,-1394.95 631.5,-1394.95 631.5,-1406.95 631.5,-1406.95 631.5,-1412.95 625.5,-1418.95 619.5,-1418.95"/>
<text text-anchor="middle" x="584" y="-1397.25" font-family="Helvetica,sans-Serif" font-size="14.00">peer&#45;types.ts</text>
</g>
<!-- src/peer/peer&#45;client.ts&#45;&gt;src/peer/peer&#45;types.ts -->
<g id="edge39" class="edge">
<title>src/peer/peer&#45;client.ts&#45;&gt;src/peer/peer&#45;types.ts</title>
<path fill="none" stroke="#528b8b" stroke-width="2" d="M415.17,-1421.34C447.71,-1417.38 491.5,-1412.06 526.19,-1407.85"/>
<polygon fill="#528b8b" stroke="#528b8b" stroke-width="2" points="526.67,-1411.32 536.17,-1406.64 525.82,-1404.37 526.67,-1411.32"/>
</g>
<!-- src/storage/compare.ts -->
<g id="node27" class="node">
<title>src/storage/compare.ts</title>
<path fill="#79cdcd" stroke="#79cdcd" d="M614,-1258.95C614,-1258.95 554,-1258.95 554,-1258.95 548,-1258.95 542,-1252.95 542,-1246.95 542,-1246.95 542,-1234.95 542,-1234.95 542,-1228.95 548,-1222.95 554,-1222.95 554,-1222.95 614,-1222.95 614,-1222.95 620,-1222.95 626,-1228.95 626,-1234.95 626,-1234.95 626,-1246.95 626,-1246.95 626,-1252.95 620,-1258.95 614,-1258.95"/>
<text text-anchor="middle" x="584" y="-1237.25" font-family="Helvetica,sans-Serif" font-size="14.00">compare.ts</text>
</g>
<!-- src/peer/peer&#45;client.ts&#45;&gt;src/storage/compare.ts -->
<g id="edge40" class="edge">
<title>src/peer/peer&#45;client.ts&#45;&gt;src/storage/compare.ts</title>
<path fill="none" stroke="#528b8b" stroke-width="2" d="M415.15,-1423.32C434.44,-1419.8 456.04,-1412.99 472,-1399.95 493.85,-1382.08 484.77,-1366.71 500,-1342.95 517.65,-1315.41 541.53,-1286.75 559.15,-1266.85"/>
<polygon fill="#528b8b" stroke="#528b8b" stroke-width="2" points="561.98,-1268.93 566.05,-1259.15 556.77,-1264.26 561.98,-1268.93"/>
</g>
<!-- src/peer/peer&#45;client.ts&#45;&gt;src/storage/storage&#45;types.ts -->
<g id="edge38" class="edge">
<title>src/peer/peer&#45;client.ts&#45;&gt;src/storage/storage&#45;types.ts</title>
<path fill="none" stroke="#528b8b" stroke-width="2" d="M415.13,-1425.83C435.37,-1422.88 457.73,-1415.83 472,-1399.95 527.87,-1337.76 445.96,-1277.73 500,-1213.95 504.92,-1208.15 511.09,-1203.58 517.85,-1199.99"/>
<polygon fill="#528b8b" stroke="#528b8b" stroke-width="2" points="519.7,-1202.99 527.36,-1195.67 516.81,-1196.62 519.7,-1202.99"/>
</g>
<!-- src/peer/peer&#45;server.ts -->
<g id="node20" class="node">
<title>src/peer/peer&#45;server.ts</title>
<path fill="#79cdcd" stroke="#79cdcd" d="M406,-1498.95C406,-1498.95 330,-1498.95 330,-1498.95 324,-1498.95 318,-1492.95 318,-1486.95 318,-1486.95 318,-1474.95 318,-1474.95 318,-1468.95 324,-1462.95 330,-1462.95 330,-1462.95 406,-1462.95 406,-1462.95 412,-1462.95 418,-1468.95 418,-1474.95 418,-1474.95 418,-1486.95 418,-1486.95 418,-1492.95 412,-1498.95 406,-1498.95"/>
<text text-anchor="middle" x="368" y="-1477.25" font-family="Helvetica,sans-Serif" font-size="14.00">peer&#45;server.ts</text>
</g>
<!-- src/peer/peer&#45;server.ts&#45;&gt;src/peer/peer&#45;types.ts -->
<g id="edge41" class="edge">
<title>src/peer/peer&#45;server.ts&#45;&gt;src/peer/peer&#45;types.ts</title>
<path fill="none" stroke="#528b8b" stroke-width="2" d="M418.22,-1474.08C436.07,-1470.08 455.81,-1463.79 472,-1453.95 487.86,-1444.3 484.15,-1432.61 500,-1422.95 508.12,-1417.99 517.36,-1414.14 526.64,-1411.15"/>
<polygon fill="#528b8b" stroke="#528b8b" stroke-width="2" points="527.67,-1414.5 536.29,-1408.34 525.71,-1407.78 527.67,-1414.5"/>
</g>
<!-- src/peer/peer&#45;types.ts&#45;&gt;src/crypto/crypto.ts -->
<g id="edge44" class="edge">
<title>src/peer/peer&#45;types.ts&#45;&gt;src/crypto/crypto.ts</title>
<path fill="none" stroke="#528b8b" stroke-width="2" d="M631.55,-1410.53C643.68,-1413.76 656.55,-1417.87 668,-1422.95 695.47,-1435.12 723.88,-1453.82 744.66,-1468.83"/>
<polygon fill="#528b8b" stroke="#528b8b" stroke-width="2" points="742.67,-1471.7 752.8,-1474.8 746.81,-1466.06 742.67,-1471.7"/>
</g>
<!-- src/query/query&#45;types.ts -->
<g id="node25" class="node">
<title>src/query/query&#45;types.ts</title>
<path fill="#79cdcd" stroke="#79cdcd" d="M815.5,-1049.95C815.5,-1049.95 738.5,-1049.95 738.5,-1049.95 732.5,-1049.95 726.5,-1043.95 726.5,-1037.95 726.5,-1037.95 726.5,-1025.95 726.5,-1025.95 726.5,-1019.95 732.5,-1013.95 738.5,-1013.95 738.5,-1013.95 815.5,-1013.95 815.5,-1013.95 821.5,-1013.95 827.5,-1019.95 827.5,-1025.95 827.5,-1025.95 827.5,-1037.95 827.5,-1037.95 827.5,-1043.95 821.5,-1049.95 815.5,-1049.95"/>
<text text-anchor="middle" x="777" y="-1028.25" font-family="Helvetica,sans-Serif" font-size="14.00">query&#45;types.ts</text>
</g>
<!-- src/peer/peer&#45;types.ts&#45;&gt;src/query/query&#45;types.ts -->
<g id="edge43" class="edge">
<title>src/peer/peer&#45;types.ts&#45;&gt;src/query/query&#45;types.ts</title>
<path fill="none" stroke="#528b8b" stroke-width="2" d="M609.23,-1382.71C628.49,-1366.79 654.37,-1341.9 668,-1313.95 705.61,-1236.83 659.97,-1200.81 696,-1122.95 707.72,-1097.62 728.78,-1074.1 746.35,-1057.32"/>
<polygon fill="#528b8b" stroke="#528b8b" stroke-width="2" points="749.18,-1059.47 754.13,-1050.1 744.42,-1054.34 749.18,-1059.47"/>
</g>
<!-- src/peer/peer&#45;types.ts&#45;&gt;src/storage/storage&#45;types.ts -->
<g id="edge42" class="edge">
<title>src/peer/peer&#45;types.ts&#45;&gt;src/storage/storage&#45;types.ts</title>
<path fill="none" stroke="#528b8b" stroke-width="2" d="M540.18,-1382.83C519.8,-1371.91 497.54,-1355.82 486,-1333.95 474.49,-1312.13 474.18,-1244.6 486,-1222.95 492.78,-1210.53 504.54,-1202.34 517.6,-1196.95"/>
<polygon fill="#528b8b" stroke="#528b8b" stroke-width="2" points="519.05,-1200.15 527.3,-1193.5 516.7,-1193.55 519.05,-1200.15"/>
</g>
<!-- src/peer/peer.ts&#45;&gt;deps.ts -->
<g id="edge45" class="edge">
<title>src/peer/peer.ts&#45;&gt;deps.ts</title>
<path fill="none" stroke="#528b8b" stroke-width="2" d="M397.46,-1364.95C421.72,-1356.51 455.23,-1340.65 472,-1313.95 518.79,-1239.42 440.22,-983.52 500,-918.95 551.29,-863.55 609.81,-942.04 668,-893.95 754.94,-822.1 771.98,-675.77 775.25,-614.23"/>
<polygon fill="#528b8b" stroke="#528b8b" stroke-width="2" points="778.75,-614.24 775.71,-604.09 771.76,-613.93 778.75,-614.24"/>
</g>
<!-- src/peer/peer.ts&#45;&gt;src/peer/peer&#45;types.ts -->
<g id="edge47" class="edge">
<title>src/peer/peer.ts&#45;&gt;src/peer/peer&#45;types.ts</title>
<path fill="none" stroke="#528b8b" stroke-width="2" d="M397.42,-1376.67C430.19,-1380.95 484.88,-1388.11 526.42,-1393.54"/>
<polygon fill="#528b8b" stroke="#528b8b" stroke-width="2" points="526.04,-1397.02 536.41,-1394.85 526.95,-1390.08 526.04,-1397.02"/>
</g>
<!-- src/peer/peer.ts&#45;&gt;src/storage/storage&#45;types.ts -->
<g id="edge46" class="edge">
<title>src/peer/peer.ts&#45;&gt;src/storage/storage&#45;types.ts</title>
<path fill="none" stroke="#528b8b" stroke-width="2" d="M397.42,-1374.77C420.65,-1374.63 452.69,-1370.43 472,-1350.95 515.75,-1306.81 458.6,-1260.3 500,-1213.95 505,-1208.35 511.16,-1203.91 517.86,-1200.39"/>
<polygon fill="#528b8b" stroke="#528b8b" stroke-width="2" points="519.6,-1203.44 527.27,-1196.13 516.71,-1197.07 519.6,-1203.44"/>
</g>
<!-- src/query&#45;follower/query&#45;follower&#45;types.ts -->
<g id="node23" class="node">
<title>src/query&#45;follower/query&#45;follower&#45;types.ts</title>
<path fill="#79cdcd" stroke="#79cdcd" d="M648,-966.95C648,-966.95 520,-966.95 520,-966.95 514,-966.95 508,-960.95 508,-954.95 508,-954.95 508,-942.95 508,-942.95 508,-936.95 514,-930.95 520,-930.95 520,-930.95 648,-930.95 648,-930.95 654,-930.95 660,-936.95 660,-942.95 660,-942.95 660,-954.95 660,-954.95 660,-960.95 654,-966.95 648,-966.95"/>
<text text-anchor="middle" x="584" y="-945.25" font-family="Helvetica,sans-Serif" font-size="14.00">query&#45;follower&#45;types.ts</text>
</g>
<!-- src/query&#45;follower/query&#45;follower&#45;types.ts&#45;&gt;deps.ts -->
<g id="edge48" class="edge">
<title>src/query&#45;follower/query&#45;follower&#45;types.ts&#45;&gt;deps.ts</title>
<path fill="none" stroke="#528b8b" stroke-width="2" d="M660.32,-933.08C663.05,-931.25 665.63,-929.21 668,-926.95 758.28,-840.86 773.38,-679.91 775.69,-614.59"/>
<polygon fill="#528b8b" stroke="#528b8b" stroke-width="2" points="779.2,-614.34 775.98,-604.25 772.2,-614.15 779.2,-614.34"/>
</g>
<!-- src/query&#45;follower/query&#45;follower&#45;types.ts&#45;&gt;src/query/query&#45;types.ts -->
<g id="edge49" class="edge">
<title>src/query&#45;follower/query&#45;follower&#45;types.ts&#45;&gt;src/query/query&#45;types.ts</title>
<path fill="none" stroke="#528b8b" stroke-width="2" d="M633.74,-967C645.34,-972.12 657.41,-978.18 668,-984.95 682.05,-993.94 681.35,-1001.97 696,-1009.95 702.44,-1013.45 709.47,-1016.43 716.62,-1018.96"/>
<polygon fill="#528b8b" stroke="#528b8b" stroke-width="2" points="715.79,-1022.37 726.38,-1022.13 717.95,-1015.71 715.79,-1022.37"/>
</g>
<!-- src/query&#45;follower/query&#45;follower&#45;types.ts&#45;&gt;src/storage/storage&#45;types.ts -->
<g id="edge50" class="edge">
<title>src/query&#45;follower/query&#45;follower&#45;types.ts&#45;&gt;src/storage/storage&#45;types.ts</title>
<path fill="none" stroke="#528b8b" stroke-width="2" d="M535.86,-967.08C516.73,-976.94 496.76,-991.24 486,-1010.95 471.62,-1037.28 471.62,-1119.62 486,-1145.95 492.97,-1158.71 504.93,-1167.49 518.16,-1173.55"/>
<polygon fill="#528b8b" stroke="#528b8b" stroke-width="2" points="516.89,-1176.81 527.47,-1177.32 519.51,-1170.32 516.89,-1176.81"/>
</g>
<!-- src/query&#45;follower/query&#45;follower.ts&#45;&gt;deps.ts -->
<g id="edge51" class="edge">
<title>src/query&#45;follower/query&#45;follower.ts&#45;&gt;deps.ts</title>
<path fill="none" stroke="#528b8b" stroke-width="2" d="M426.21,-941.02C442.34,-936.6 459.02,-929.7 472,-918.95 493.13,-901.45 478.3,-880.73 500,-863.95 560.48,-817.17 608.7,-875.21 668,-826.95 735.89,-771.69 762.59,-664.81 771.77,-614.04"/>
<polygon fill="#528b8b" stroke="#528b8b" stroke-width="2" points="775.24,-614.54 773.48,-604.1 768.34,-613.36 775.24,-614.54"/>
</g>
<!-- src/query&#45;follower/query&#45;follower.ts&#45;&gt;src/query&#45;follower/query&#45;follower&#45;types.ts -->
<g id="edge56" class="edge">
<title>src/query&#45;follower/query&#45;follower.ts&#45;&gt;src/query&#45;follower/query&#45;follower&#45;types.ts</title>
<path fill="none" stroke="#528b8b" stroke-width="2" d="M426.07,-948.95C448.06,-948.95 473.68,-948.95 497.77,-948.95"/>
<polygon fill="#528b8b" stroke="#528b8b" stroke-width="2" points="497.98,-952.45 507.98,-948.95 497.98,-945.45 497.98,-952.45"/>
</g>
<!-- src/query&#45;follower/query&#45;follower.ts&#45;&gt;src/query/query&#45;types.ts -->
<g id="edge53" class="edge">
<title>src/query&#45;follower/query&#45;follower.ts&#45;&gt;src/query/query&#45;types.ts</title>
<path fill="none" stroke="#528b8b" stroke-width="2" d="M426.31,-961.18C449.2,-965.95 475.82,-971.37 500,-975.95 574.45,-990.04 593.86,-989.3 668,-1004.95 683.75,-1008.27 700.67,-1012.29 716.35,-1016.2"/>
<polygon fill="#528b8b" stroke="#528b8b" stroke-width="2" points="715.89,-1019.69 726.44,-1018.74 717.6,-1012.9 715.89,-1019.69"/>
</g>
<!-- src/query/query.ts -->
<g id="node26" class="node">
<title>src/query/query.ts</title>
<path fill="#79cdcd" stroke="#79cdcd" d="M604,-1049.95C604,-1049.95 564,-1049.95 564,-1049.95 558,-1049.95 552,-1043.95 552,-1037.95 552,-1037.95 552,-1025.95 552,-1025.95 552,-1019.95 558,-1013.95 564,-1013.95 564,-1013.95 604,-1013.95 604,-1013.95 610,-1013.95 616,-1019.95 616,-1025.95 616,-1025.95 616,-1037.95 616,-1037.95 616,-1043.95 610,-1049.95 604,-1049.95"/>
<text text-anchor="middle" x="584" y="-1028.25" font-family="Helvetica,sans-Serif" font-size="14.00">query.ts</text>
</g>
<!-- src/query&#45;follower/query&#45;follower.ts&#45;&gt;src/query/query.ts -->
<g id="edge55" class="edge">
<title>src/query&#45;follower/query&#45;follower.ts&#45;&gt;src/query/query.ts</title>
<path fill="none" stroke="#528b8b" stroke-width="2" d="M412.5,-967.03C437.92,-977.47 470.67,-990.72 500,-1001.95 513.7,-1007.19 528.77,-1012.71 542.26,-1017.57"/>
<polygon fill="#528b8b" stroke="#528b8b" stroke-width="2" points="541.17,-1020.89 551.76,-1020.97 543.53,-1014.3 541.17,-1020.89"/>
</g>
<!-- src/query&#45;follower/query&#45;follower.ts&#45;&gt;src/storage/storage&#45;types.ts -->
<g id="edge54" class="edge">
<title>src/query&#45;follower/query&#45;follower.ts&#45;&gt;src/storage/storage&#45;types.ts</title>
<path fill="none" stroke="#528b8b" stroke-width="2" d="M385.53,-967.4C410.36,-995.11 458.77,-1049.13 500,-1094.95 520.14,-1117.34 543.08,-1142.75 559.73,-1161.19"/>
<polygon fill="#528b8b" stroke="#528b8b" stroke-width="2" points="557.15,-1163.56 566.45,-1168.63 562.35,-1158.87 557.15,-1163.56"/>
</g>
<!-- src/storage/util&#45;types.ts -->
<g id="node34" class="node">
<title>src/storage/util&#45;types.ts</title>
<path fill="#79cdcd" stroke="#79cdcd" d="M807.5,-1204.95C807.5,-1204.95 746.5,-1204.95 746.5,-1204.95 740.5,-1204.95 734.5,-1198.95 734.5,-1192.95 734.5,-1192.95 734.5,-1180.95 734.5,-1180.95 734.5,-1174.95 740.5,-1168.95 746.5,-1168.95 746.5,-1168.95 807.5,-1168.95 807.5,-1168.95 813.5,-1168.95 819.5,-1174.95 819.5,-1180.95 819.5,-1180.95 819.5,-1192.95 819.5,-1192.95 819.5,-1198.95 813.5,-1204.95 807.5,-1204.95"/>
<text text-anchor="middle" x="777" y="-1183.25" font-family="Helvetica,sans-Serif" font-size="14.00">util&#45;types.ts</text>
</g>
<!-- src/query&#45;follower/query&#45;follower.ts&#45;&gt;src/storage/util&#45;types.ts -->
<g id="edge52" class="edge">
<title>src/query&#45;follower/query&#45;follower.ts&#45;&gt;src/storage/util&#45;types.ts</title>
<path fill="none" stroke="#528b8b" stroke-width="2" d="M381.86,-966.96C403.28,-995.74 448.97,-1052.17 500,-1084.95 566.59,-1127.71 593.89,-1116.19 668,-1143.95 686.58,-1150.9 706.81,-1158.86 724.69,-1166.02"/>
<polygon fill="#528b8b" stroke="#528b8b" stroke-width="2" points="723.77,-1169.42 734.36,-1169.9 726.38,-1162.93 723.77,-1169.42"/>
</g>
<!-- src/query/query.ts&#45;&gt;src/query/query&#45;types.ts -->
<g id="edge57" class="edge">
<title>src/query/query.ts&#45;&gt;src/query/query&#45;types.ts</title>
<path fill="none" stroke="#528b8b" stroke-width="2" d="M616.11,-1031.95C643.13,-1031.95 683.01,-1031.95 716.18,-1031.95"/>
<polygon fill="#528b8b" stroke="#528b8b" stroke-width="2" points="716.24,-1035.45 726.24,-1031.95 716.24,-1028.45 716.24,-1035.45"/>
</g>
<!-- src/storage/compare.ts&#45;&gt;src/storage/util&#45;types.ts -->
<g id="edge58" class="edge">
<title>src/storage/compare.ts&#45;&gt;src/storage/util&#45;types.ts</title>
<path fill="none" stroke="#528b8b" stroke-width="2" d="M626.44,-1229.23C655.25,-1221.09 693.85,-1210.17 724.62,-1201.48"/>
<polygon fill="#528b8b" stroke="#528b8b" stroke-width="2" points="725.64,-1204.82 734.31,-1198.73 723.73,-1198.09 725.64,-1204.82"/>
</g>
<!-- src/storage/storage&#45;async.ts&#45;&gt;deps.ts -->
<g id="edge59" class="edge">
<title>src/storage/storage&#45;async.ts&#45;&gt;deps.ts</title>
<path fill="none" stroke="#528b8b" stroke-width="2" d="M426.02,-1258.4C443.23,-1254.71 460.57,-1247.52 472,-1233.95 519.12,-1177.99 451.32,-960.55 500,-905.95 550.7,-849.09 609.97,-921.3 668,-871.95 747.39,-804.44 768.53,-672.25 774.07,-614.3"/>
<polygon fill="#528b8b" stroke="#528b8b" stroke-width="2" points="777.58,-614.33 774.96,-604.06 770.61,-613.72 777.58,-614.33"/>
</g>
<!-- src/storage/storage&#45;async.ts&#45;&gt;src/crypto/crypto.ts -->
<g id="edge65" class="edge">
<title>src/storage/storage&#45;async.ts&#45;&gt;src/crypto/crypto.ts</title>
<path fill="none" stroke="#528b8b" stroke-width="2" d="M419.87,-1279C443.95,-1287.1 473.23,-1296.3 500,-1302.95 573.61,-1321.23 604.43,-1291.58 668,-1332.95 717.43,-1365.11 749.93,-1428.65 765.42,-1465.24"/>
<polygon fill="#528b8b" stroke="#528b8b" stroke-width="2" points="762.31,-1466.87 769.34,-1474.79 768.79,-1464.21 762.31,-1466.87"/>
</g>
<!-- src/storage/storage&#45;async.ts&#45;&gt;src/format&#45;validators/format&#45;validator&#45;types.ts -->
<g id="edge63" class="edge">
<title>src/storage/storage&#45;async.ts&#45;&gt;src/format&#45;validators/format&#45;validator&#45;types.ts</title>
<path fill="none" stroke="#528b8b" stroke-width="2" d="M399.64,-1278.95C425.51,-1293.28 463.97,-1312.58 500,-1322.95 536.13,-1333.35 641.46,-1316.32 668,-1342.95 744.43,-1419.63 629.31,-1499.65 696,-1584.95 697.48,-1586.85 699.1,-1588.63 700.83,-1590.29"/>
<polygon fill="#528b8b" stroke="#528b8b" stroke-width="2" points="699.07,-1593.36 709.05,-1596.9 703.45,-1587.91 699.07,-1593.36"/>
</g>
<!-- src/storage/storage&#45;async.ts&#45;&gt;src/query/query&#45;types.ts -->
<g id="edge61" class="edge">
<title>src/storage/storage&#45;async.ts&#45;&gt;src/query/query&#45;types.ts</title>
<path fill="none" stroke="#528b8b" stroke-width="2" d="M426.09,-1255.91C442.5,-1252.01 459.36,-1245.32 472,-1233.95 498.14,-1210.43 474.19,-1183.83 500,-1159.95 557.1,-1107.13 598.23,-1145.31 668,-1110.95 697.44,-1096.45 727.27,-1073.9 748.1,-1056.6"/>
<polygon fill="#528b8b" stroke="#528b8b" stroke-width="2" points="750.51,-1059.14 755.9,-1050.01 746,-1053.79 750.51,-1059.14"/>
</g>
<!-- src/storage/storage&#45;async.ts&#45;&gt;src/query/query.ts -->
<g id="edge66" class="edge">
<title>src/storage/storage&#45;async.ts&#45;&gt;src/query/query.ts</title>
<path fill="none" stroke="#528b8b" stroke-width="2" d="M426.11,-1256.96C442.82,-1253.14 459.83,-1246.23 472,-1233.95 507.81,-1197.8 475.91,-1167.76 500,-1122.95 513.64,-1097.57 535.92,-1073.69 553.96,-1056.77"/>
<polygon fill="#528b8b" stroke="#528b8b" stroke-width="2" points="556.39,-1059.3 561.4,-1049.96 551.66,-1054.14 556.39,-1059.3"/>
</g>
<!-- src/storage/storage&#45;async.ts&#45;&gt;src/storage/compare.ts -->
<g id="edge64" class="edge">
<title>src/storage/storage&#45;async.ts&#45;&gt;src/storage/compare.ts</title>
<path fill="none" stroke="#528b8b" stroke-width="2" d="M426.07,-1255.61C458.91,-1252.54 499.85,-1248.72 531.68,-1245.74"/>
<polygon fill="#528b8b" stroke="#528b8b" stroke-width="2" points="532.04,-1249.23 541.67,-1244.81 531.39,-1242.26 532.04,-1249.23"/>
</g>
<!-- src/storage/storage&#45;async.ts&#45;&gt;src/storage/storage&#45;types.ts -->
<g id="edge62" class="edge">
<title>src/storage/storage&#45;async.ts&#45;&gt;src/storage/storage&#45;types.ts</title>
<path fill="none" stroke="#528b8b" stroke-width="2" d="M426.16,-1249.9C441.45,-1245.89 457.69,-1240.66 472,-1233.95 485.85,-1227.46 486.35,-1220.84 500,-1213.95 505.59,-1211.12 511.54,-1208.51 517.59,-1206.11"/>
<polygon fill="#528b8b" stroke="#528b8b" stroke-width="2" points="519.01,-1209.31 527.14,-1202.51 516.55,-1202.76 519.01,-1209.31"/>
</g>
<!-- src/storage/storage&#45;async.ts&#45;&gt;src/storage/util&#45;types.ts -->
<g id="edge60" class="edge">
<title>src/storage/storage&#45;async.ts&#45;&gt;src/storage/util&#45;types.ts</title>
<path fill="none" stroke="#528b8b" stroke-width="2" d="M426.07,-1273.49C487.53,-1284.46 587.34,-1294.83 668,-1267.95 700.93,-1256.97 731.9,-1231.59 752.16,-1212.14"/>
<polygon fill="#528b8b" stroke="#528b8b" stroke-width="2" points="754.72,-1214.54 759.38,-1205.02 749.8,-1209.55 754.72,-1214.54"/>
</g>
<!-- src/storage/storage&#45;cache.ts -->
<g id="node29" class="node">
<title>src/storage/storage&#45;cache.ts</title>
<path fill="#79cdcd" stroke="#79cdcd" d="M414,-1170.95C414,-1170.95 322,-1170.95 322,-1170.95 316,-1170.95 310,-1164.95 310,-1158.95 310,-1158.95 310,-1146.95 310,-1146.95 310,-1140.95 316,-1134.95 322,-1134.95 322,-1134.95 414,-1134.95 414,-1134.95 420,-1134.95 426,-1140.95 426,-1146.95 426,-1146.95 426,-1158.95 426,-1158.95 426,-1164.95 420,-1170.95 414,-1170.95"/>
<text text-anchor="middle" x="368" y="-1149.25" font-family="Helvetica,sans-Serif" font-size="14.00">storage&#45;cache.ts</text>
</g>
<!-- src/storage/storage&#45;cache.ts&#45;&gt;deps.ts -->
<g id="edge67" class="edge">
<title>src/storage/storage&#45;cache.ts&#45;&gt;deps.ts</title>
<path fill="none" stroke="#528b8b" stroke-width="2" d="M384.73,-1134.73C407.35,-1107.61 448.88,-1054.18 472,-1001.95 493.64,-953.06 461.64,-922.19 500,-884.95 554.72,-831.82 609.37,-898.73 668,-849.95 741.88,-788.48 765.81,-668.5 773.07,-614.04"/>
<polygon fill="#528b8b" stroke="#528b8b" stroke-width="2" points="776.55,-614.41 774.31,-604.06 769.6,-613.55 776.55,-614.41"/>
</g>
<!-- src/storage/storage&#45;cache.ts&#45;&gt;src/crypto/crypto.ts -->
<g id="edge72" class="edge">
<title>src/storage/storage&#45;cache.ts&#45;&gt;src/crypto/crypto.ts</title>
<path fill="none" stroke="#528b8b" stroke-width="2" d="M426.2,-1157.51C442.71,-1161.38 459.6,-1168.17 472,-1179.95 501.76,-1208.21 469.53,-1240.45 500,-1267.95 556.63,-1319.04 606.36,-1258.03 668,-1302.95 724.09,-1343.82 755.17,-1423.29 768.33,-1465.33"/>
<polygon fill="#528b8b" stroke="#528b8b" stroke-width="2" points="764.99,-1466.36 771.23,-1474.92 771.69,-1464.34 764.99,-1466.36"/>
</g>
<!-- src/storage/storage&#45;cache.ts&#45;&gt;src/query&#45;follower/query&#45;follower.ts -->
<g id="edge69" class="edge">
<title>src/storage/storage&#45;cache.ts&#45;&gt;src/query&#45;follower/query&#45;follower.ts</title>
<path fill="none" stroke="#528b8b" stroke-width="2" d="M368,-1134.82C368,-1082.35 368,-1029.88 368,-977.42"/>
<polygon fill="#528b8b" stroke="#528b8b" stroke-width="2" points="371.5,-977.28 368,-967.28 364.5,-977.28 371.5,-977.28"/>
</g>
<!-- src/storage/storage&#45;cache.ts&#45;&gt;src/query/query&#45;types.ts -->
<g id="edge70" class="edge">
<title>src/storage/storage&#45;cache.ts&#45;&gt;src/query/query&#45;types.ts</title>
<path fill="none" stroke="#528b8b" stroke-width="2" d="M415.02,-1134.9C439.97,-1125.41 471.47,-1113.93 500,-1104.95 540.11,-1092.33 648.27,-1064.37 716.67,-1046.95"/>
<polygon fill="#528b8b" stroke="#528b8b" stroke-width="2" points="717.64,-1050.32 726.47,-1044.46 715.91,-1043.53 717.64,-1050.32"/>
</g>
<!-- src/storage/storage&#45;cache.ts&#45;&gt;src/query/query.ts -->
<g id="edge68" class="edge">
<title>src/storage/storage&#45;cache.ts&#45;&gt;src/query/query.ts</title>
<path fill="none" stroke="#528b8b" stroke-width="2" d="M392.12,-1134.83C417.53,-1115.51 460.05,-1084.86 500,-1063.95 513.32,-1056.97 528.52,-1050.67 542.23,-1045.55"/>
<polygon fill="#528b8b" stroke="#528b8b" stroke-width="2" points="543.71,-1048.73 551.91,-1042.03 541.32,-1042.16 543.71,-1048.73"/>
</g>
<!-- src/storage/storage&#45;cache.ts&#45;&gt;src/storage/storage&#45;types.ts -->
<g id="edge71" class="edge">
<title>src/storage/storage&#45;cache.ts&#45;&gt;src/storage/storage&#45;types.ts</title>
<path fill="none" stroke="#528b8b" stroke-width="2" d="M426.07,-1162.01C454.09,-1166.47 488,-1171.85 517.12,-1176.48"/>
<polygon fill="#528b8b" stroke="#528b8b" stroke-width="2" points="516.78,-1179.97 527.2,-1178.08 517.88,-1173.06 516.78,-1179.97"/>
</g>
<!-- src/storage/storage&#45;driver&#45;async&#45;memory.ts&#45;&gt;src/query/query&#45;types.ts -->
<g id="edge74" class="edge">
<title>src/storage/storage&#45;driver&#45;async&#45;memory.ts&#45;&gt;src/query/query&#45;types.ts</title>
<path fill="none" stroke="#528b8b" stroke-width="2" d="M458.49,-1188.84C463.27,-1186.26 467.83,-1183.31 472,-1179.95 493.36,-1162.74 478.3,-1141.73 500,-1124.95 560.48,-1078.17 596.12,-1113.99 668,-1087.95 691.94,-1079.28 717.28,-1066.36 737.39,-1055.11"/>
<polygon fill="#528b8b" stroke="#528b8b" stroke-width="2" points="739.27,-1058.06 746.24,-1050.08 735.82,-1051.98 739.27,-1058.06"/>
</g>
<!-- src/storage/storage&#45;driver&#45;async&#45;memory.ts&#45;&gt;src/query/query.ts -->
<g id="edge77" class="edge">
<title>src/storage/storage&#45;driver&#45;async&#45;memory.ts&#45;&gt;src/query/query.ts</title>
<path fill="none" stroke="#528b8b" stroke-width="2" d="M459.92,-1188.82C464.23,-1186.24 468.3,-1183.29 472,-1179.95 498.4,-1156.09 479.81,-1134.25 500,-1104.95 512.89,-1086.24 531.6,-1069.23 548,-1056.34"/>
<polygon fill="#528b8b" stroke="#528b8b" stroke-width="2" points="550.5,-1058.84 556.32,-1049.99 546.25,-1053.28 550.5,-1058.84"/>
</g>
<!-- src/storage/storage&#45;driver&#45;async&#45;memory.ts&#45;&gt;src/storage/compare.ts -->
<g id="edge76" class="edge">
<title>src/storage/storage&#45;driver&#45;async&#45;memory.ts&#45;&gt;src/storage/compare.ts</title>
<path fill="none" stroke="#528b8b" stroke-width="2" d="M472.24,-1223.35C492.97,-1226.64 513.9,-1229.97 531.89,-1232.83"/>
<polygon fill="#528b8b" stroke="#528b8b" stroke-width="2" points="531.42,-1236.3 541.84,-1234.41 532.52,-1229.38 531.42,-1236.3"/>
</g>
<!-- src/storage/storage&#45;driver&#45;async&#45;memory.ts&#45;&gt;src/storage/storage&#45;types.ts -->
<g id="edge75" class="edge">
<title>src/storage/storage&#45;driver&#45;async&#45;memory.ts&#45;&gt;src/storage/storage&#45;types.ts</title>
<path fill="none" stroke="#528b8b" stroke-width="2" d="M472.24,-1197.3C487.55,-1195.87 502.96,-1194.43 517.22,-1193.1"/>
<polygon fill="#528b8b" stroke="#528b8b" stroke-width="2" points="517.75,-1196.56 527.38,-1192.15 517.1,-1189.59 517.75,-1196.56"/>
</g>
<!-- src/storage/storage&#45;driver&#45;async&#45;memory.ts&#45;&gt;src/storage/util&#45;types.ts -->
<g id="edge73" class="edge">
<title>src/storage/storage&#45;driver&#45;async&#45;memory.ts&#45;&gt;src/storage/util&#45;types.ts</title>
<path fill="none" stroke="#528b8b" stroke-width="2" d="M449.58,-1188.89C457.3,-1186.25 464.89,-1183.28 472,-1179.95 485.85,-1173.46 485.44,-1164.61 500,-1159.95 575.47,-1135.76 668.01,-1153.84 724.45,-1169.84"/>
<polygon fill="#528b8b" stroke="#528b8b" stroke-width="2" points="723.64,-1173.24 734.22,-1172.68 725.6,-1166.52 723.64,-1173.24"/>
</g>
<!-- src/storage/storage&#45;driver&#45;indexeddb.ts -->
<g id="node31" class="node">
<title>src/storage/storage&#45;driver&#45;indexeddb.ts</title>
<path fill="#79cdcd" stroke="#79cdcd" d="M208.5,-1197.95C208.5,-1197.95 51.5,-1197.95 51.5,-1197.95 45.5,-1197.95 39.5,-1191.95 39.5,-1185.95 39.5,-1185.95 39.5,-1173.95 39.5,-1173.95 39.5,-1167.95 45.5,-1161.95 51.5,-1161.95 51.5,-1161.95 208.5,-1161.95 208.5,-1161.95 214.5,-1161.95 220.5,-1167.95 220.5,-1173.95 220.5,-1173.95 220.5,-1185.95 220.5,-1185.95 220.5,-1191.95 214.5,-1197.95 208.5,-1197.95"/>
<text text-anchor="middle" x="130" y="-1176.25" font-family="Helvetica,sans-Serif" font-size="14.00">storage&#45;driver&#45;indexeddb.ts</text>
</g>
<!-- src/storage/storage&#45;driver&#45;indexeddb.ts&#45;&gt;src/storage/storage&#45;driver&#45;async&#45;memory.ts -->
<g id="edge78" class="edge">
<title>src/storage/storage&#45;driver&#45;indexeddb.ts&#45;&gt;src/storage/storage&#45;driver&#45;async&#45;memory.ts</title>
<path fill="none" stroke="#528b8b" stroke-width="2" d="M220.56,-1190.19C231.34,-1191.43 242.46,-1192.7 253.52,-1193.97"/>
<polygon fill="#528b8b" stroke="#528b8b" stroke-width="2" points="253.33,-1197.47 263.66,-1195.12 254.12,-1190.51 253.33,-1197.47"/>
</g>
<!-- src/storage/storage&#45;driver&#45;local&#45;storage.ts -->
<g id="node32" class="node">
<title>src/storage/storage&#45;driver&#45;local&#45;storage.ts</title>
<path fill="#79cdcd" stroke="#79cdcd" d="M216,-1251.95C216,-1251.95 44,-1251.95 44,-1251.95 38,-1251.95 32,-1245.95 32,-1239.95 32,-1239.95 32,-1227.95 32,-1227.95 32,-1221.95 38,-1215.95 44,-1215.95 44,-1215.95 216,-1215.95 216,-1215.95 222,-1215.95 228,-1221.95 228,-1227.95 228,-1227.95 228,-1239.95 228,-1239.95 228,-1245.95 222,-1251.95 216,-1251.95"/>
<text text-anchor="middle" x="130" y="-1230.25" font-family="Helvetica,sans-Serif" font-size="14.00">storage&#45;driver&#45;local&#45;storage.ts</text>
</g>
<!-- src/storage/storage&#45;driver&#45;local&#45;storage.ts&#45;&gt;src/storage/storage&#45;driver&#45;async&#45;memory.ts -->
<g id="edge79" class="edge">
<title>src/storage/storage&#45;driver&#45;local&#45;storage.ts&#45;&gt;src/storage/storage&#45;driver&#45;async&#45;memory.ts</title>
<path fill="none" stroke="#528b8b" stroke-width="2" d="M228.01,-1222.85C236.51,-1221.88 245.16,-1220.89 253.77,-1219.9"/>
<polygon fill="#528b8b" stroke="#528b8b" stroke-width="2" points="254.32,-1223.36 263.86,-1218.75 253.52,-1216.41 254.32,-1223.36"/>
</g>
<!-- src/storage/storage&#45;types.ts&#45;&gt;deps.ts -->
<g id="edge83" class="edge">
<title>src/storage/storage&#45;types.ts&#45;&gt;deps.ts</title>
<path fill="none" stroke="#528b8b" stroke-width="2" d="M604.23,-1168.92C623.35,-1149.88 652.07,-1118.08 668,-1084.95 709.23,-999.17 757.29,-706.17 771.7,-613.96"/>
<polygon fill="#528b8b" stroke="#528b8b" stroke-width="2" points="775.18,-614.4 773.25,-603.98 768.26,-613.32 775.18,-614.4"/>
</g>
<!-- src/storage/storage&#45;types.ts&#45;&gt;src/format&#45;validators/format&#45;validator&#45;types.ts -->
<g id="edge81" class="edge">
<title>src/storage/storage&#45;types.ts&#45;&gt;src/format&#45;validators/format&#45;validator&#45;types.ts</title>
<path fill="none" stroke="#528b8b" stroke-width="2" d="M640.7,-1195.11C651.22,-1199.15 661.07,-1205.13 668,-1213.95 719.07,-1278.97 646.38,-1518.81 696,-1584.95 697.41,-1586.83 698.95,-1588.59 700.61,-1590.24"/>
<polygon fill="#528b8b" stroke="#528b8b" stroke-width="2" points="698.56,-1593.09 708.49,-1596.8 703.04,-1587.71 698.56,-1593.09"/>
</g>
<!-- src/storage/storage&#45;types.ts&#45;&gt;src/query/query&#45;types.ts -->
<g id="edge80" class="edge">
<title>src/storage/storage&#45;types.ts&#45;&gt;src/query/query&#45;types.ts</title>
<path fill="none" stroke="#528b8b" stroke-width="2" d="M617.14,-1168.88C632.97,-1159.47 652.02,-1147.37 668,-1134.95 698.93,-1110.91 730.99,-1079.34 752.06,-1057.52"/>
<polygon fill="#528b8b" stroke="#528b8b" stroke-width="2" points="754.65,-1059.88 759.04,-1050.24 749.59,-1055.04 754.65,-1059.88"/>
</g>
<!-- src/storage/storage&#45;types.ts&#45;&gt;src/storage/util&#45;types.ts -->
<g id="edge82" class="edge">
<title>src/storage/storage&#45;types.ts&#45;&gt;src/storage/util&#45;types.ts</title>
<path fill="none" stroke="#528b8b" stroke-width="2" d="M640.5,-1186.95C666.95,-1186.95 698.39,-1186.95 724.33,-1186.95"/>
<polygon fill="#528b8b" stroke="#528b8b" stroke-width="2" points="724.34,-1190.45 734.34,-1186.95 724.34,-1183.45 724.34,-1190.45"/>
</g>
<!-- src/superbus/simplebus.ts&#45;&gt;deps.ts -->
<g id="edge84" class="edge">
<title>src/superbus/simplebus.ts&#45;&gt;deps.ts</title>
<path fill="none" stroke="#528b8b" stroke-width="2" d="M176.21,-772.56C269.42,-750.66 489.23,-696.49 668,-632.95 691.45,-624.61 717.02,-613.58 737.39,-604.29"/>
<polygon fill="#528b8b" stroke="#528b8b" stroke-width="2" points="739.02,-607.39 746.65,-600.03 736.1,-601.04 739.02,-607.39"/>
</g>
<!-- src/superbus_map/superbus_map.ts&#45;&gt;deps.ts -->
<g id="edge85" class="edge">
<title>src/superbus_map/superbus_map.ts&#45;&gt;deps.ts</title>
<path fill="none" stroke="#528b8b" stroke-width="2" d="M188.41,-627.87C211.66,-621.22 238.89,-614.26 264,-609.95 438.27,-579.99 650.48,-582.08 736.74,-584.51"/>
<polygon fill="#528b8b" stroke="#528b8b" stroke-width="2" points="736.76,-588.02 746.86,-584.82 736.97,-581.02 736.76,-588.02"/>
</g>
</g>
</svg>
