<?xml version="1.0" encoding="UTF-8" standalone="no"?>
<!DOCTYPE svg PUBLIC "-//W3C//DTD SVG 1.1//EN"
 "http://www.w3.org/Graphics/SVG/1.1/DTD/svg11.dtd">
<!-- Generated by graphviz version 2.44.1 (20200629.0846)
 -->
<!-- Title: G Pages: 1 -->
<svg width="986pt" height="723pt"
 viewBox="0.00 0.00 986.00 723.00" xmlns="http://www.w3.org/2000/svg" xmlns:xlink="http://www.w3.org/1999/xlink">
<g id="graph0" class="graph" transform="scale(1 1) rotate(0) translate(4 719)">
<title>G</title>
<polygon fill="white" stroke="transparent" points="-4,4 -4,-719 982,-719 982,4 -4,4"/>
<g id="clust1" class="cluster">
<title>cluster2272326728</title>
<path fill="none" stroke="#8b7d6b" stroke-width="2" d="M20,-8C20,-8 958,-8 958,-8 964,-8 970,-14 970,-20 970,-20 970,-695 970,-695 970,-701 964,-707 958,-707 958,-707 20,-707 20,-707 14,-707 8,-701 8,-695 8,-695 8,-20 8,-20 8,-14 14,-8 20,-8"/>
<text text-anchor="start" x="478.5" y="-692.8" font-family="Helvetica,sans-Serif" font-weight="bold" font-size="14.00">src</text>
</g>
<g id="clust2" class="cluster">
<title>cluster9958167225</title>
<path fill="bisque" stroke="#8b7d6b" stroke-width="2" d="M710,-28C710,-28 950,-28 950,-28 956,-28 962,-34 962,-40 962,-40 962,-145 962,-145 962,-151 956,-157 950,-157 950,-157 710,-157 710,-157 704,-157 698,-151 698,-145 698,-145 698,-40 698,-40 698,-34 704,-28 710,-28"/>
<text text-anchor="start" x="783" y="-142.8" font-family="Helvetica,sans-Serif" font-weight="bold" font-size="14.00">coreValidators</text>
</g>
<g id="clust3" class="cluster">
<title>cluster6964678123</title>
<path fill="bisque" stroke="#8b7d6b" stroke-width="2" d="M404.5,-128C404.5,-128 641,-128 641,-128 647,-128 653,-134 653,-140 653,-140 653,-245 653,-245 653,-251 647,-257 641,-257 641,-257 404.5,-257 404.5,-257 398.5,-257 392.5,-251 392.5,-245 392.5,-245 392.5,-140 392.5,-140 392.5,-134 398.5,-128 404.5,-128"/>
<text text-anchor="start" x="501.75" y="-242.8" font-family="Helvetica,sans-Serif" font-weight="bold" font-size="14.00">crypto</text>
</g>
<g id="clust4" class="cluster">
<title>cluster5079785355</title>
<path fill="bisque" stroke="#8b7d6b" stroke-width="2" d="M220,-90C220,-90 302,-90 302,-90 308,-90 314,-96 314,-102 314,-102 314,-153 314,-153 314,-159 308,-165 302,-165 302,-165 220,-165 220,-165 214,-165 208,-159 208,-153 208,-153 208,-102 208,-102 208,-96 214,-90 220,-90"/>
<text text-anchor="start" x="216" y="-150.8" font-family="Helvetica,sans-Serif" font-weight="bold" font-size="14.00">docValidators</text>
</g>
<g id="clust5" class="cluster">
<title>cluster5743485256</title>
<path fill="bisque" stroke="#8b7d6b" stroke-width="2" d="M166,-367C166,-367 356,-367 356,-367 362,-367 368,-373 368,-379 368,-379 368,-484 368,-484 368,-490 362,-496 356,-496 356,-496 166,-496 166,-496 160,-496 154,-490 154,-484 154,-484 154,-379 154,-379 154,-373 160,-367 166,-367"/>
<text text-anchor="start" x="236.5" y="-481.8" font-family="Helvetica,sans-Serif" font-weight="bold" font-size="14.00">storage</text>
</g>
<g id="clust6" class="cluster">
<title>cluster2540932074</title>
<path fill="bisque" stroke="#8b7d6b" stroke-width="2" d="M524.5,-369C524.5,-369 947.5,-369 947.5,-369 953.5,-369 959.5,-375 959.5,-381 959.5,-381 959.5,-560 959.5,-560 959.5,-566 953.5,-572 947.5,-572 947.5,-572 524.5,-572 524.5,-572 518.5,-572 512.5,-566 512.5,-560 512.5,-560 512.5,-381 512.5,-381 512.5,-375 518.5,-369 524.5,-369"/>
<text text-anchor="start" x="718" y="-557.8" font-family="Helvetica,sans-Serif" font-weight="bold" font-size="14.00">types</text>
</g>
<!-- src/base32.ts -->
<g id="node1" class="node">
<title>src/base32.ts</title>
<path fill="#79cdcd" stroke="#79cdcd" d="M778,-241C778,-241 727,-241 727,-241 721,-241 715,-235 715,-229 715,-229 715,-217 715,-217 715,-211 721,-205 727,-205 727,-205 778,-205 778,-205 784,-205 790,-211 790,-217 790,-217 790,-229 790,-229 790,-235 784,-241 778,-241"/>
<text text-anchor="middle" x="752.5" y="-219.3" font-family="Helvetica,sans-Serif" font-size="14.00">base32.ts</text>
</g>
<!-- src/types/docTypes.ts -->
<g id="node16" class="node">
<title>src/types/docTypes.ts</title>
<path fill="#79cdcd" stroke="#79cdcd" d="M939.5,-413C939.5,-413 874.5,-413 874.5,-413 868.5,-413 862.5,-407 862.5,-401 862.5,-401 862.5,-389 862.5,-389 862.5,-383 868.5,-377 874.5,-377 874.5,-377 939.5,-377 939.5,-377 945.5,-377 951.5,-383 951.5,-389 951.5,-389 951.5,-401 951.5,-401 951.5,-407 945.5,-413 939.5,-413"/>
<text text-anchor="middle" x="907" y="-391.3" font-family="Helvetica,sans-Serif" font-size="14.00">docTypes.ts</text>
</g>
<!-- src/base32.ts&#45;&gt;src/types/docTypes.ts -->
<g id="edge1" class="edge">
<title>src/base32.ts&#45;&gt;src/types/docTypes.ts</title>
<path fill="none" stroke="#528b8b" stroke-width="2" d="M790.1,-234.6C801.85,-239.56 814.31,-246.27 824,-255 858.93,-286.48 883.17,-336.44 895.81,-367.38"/>
<polygon fill="#528b8b" stroke="#528b8b" stroke-width="2" points="892.57,-368.71 899.51,-376.72 899.08,-366.13 892.57,-368.71"/>
</g>
<!-- src/example&#45;app.ts -->
<g id="node2" class="node">
<title>src/example&#45;app.ts</title>
<path fill="#79cdcd" stroke="#79cdcd" d="M114,-465C114,-465 28,-465 28,-465 22,-465 16,-459 16,-453 16,-453 16,-441 16,-441 16,-435 22,-429 28,-429 28,-429 114,-429 114,-429 120,-429 126,-435 126,-441 126,-441 126,-453 126,-453 126,-459 120,-465 114,-465"/>
<text text-anchor="middle" x="71" y="-443.3" font-family="Helvetica,sans-Serif" font-size="14.00">example&#45;app.ts</text>
</g>
<!-- src/follower.ts -->
<g id="node3" class="node">
<title>src/follower.ts</title>
<path fill="#79cdcd" stroke="#79cdcd" d="M461,-599C461,-599 408,-599 408,-599 402,-599 396,-593 396,-587 396,-587 396,-575 396,-575 396,-569 402,-563 408,-563 408,-563 461,-563 461,-563 467,-563 473,-569 473,-575 473,-575 473,-587 473,-587 473,-593 467,-599 461,-599"/>
<text text-anchor="middle" x="434.5" y="-577.3" font-family="Helvetica,sans-Serif" font-size="14.00">follower.ts</text>
</g>
<!-- src/example&#45;app.ts&#45;&gt;src/follower.ts -->
<g id="edge25" class="edge">
<title>src/example&#45;app.ts&#45;&gt;src/follower.ts</title>
<path fill="none" stroke="#528b8b" stroke-width="2" d="M96.04,-465.22C111.84,-476.49 133.33,-490.57 154,-500 231.83,-535.5 328.99,-559.48 385.85,-571.64"/>
<polygon fill="#528b8b" stroke="#528b8b" stroke-width="2" points="385.14,-575.07 395.64,-573.71 386.58,-568.22 385.14,-575.07"/>
</g>
<!-- src/docValidators/es4.ts -->
<g id="node12" class="node">
<title>src/docValidators/es4.ts</title>
<path fill="#79cdcd" stroke="#79cdcd" d="M276,-134C276,-134 246,-134 246,-134 240,-134 234,-128 234,-122 234,-122 234,-110 234,-110 234,-104 240,-98 246,-98 246,-98 276,-98 276,-98 282,-98 288,-104 288,-110 288,-110 288,-122 288,-122 288,-128 282,-134 276,-134"/>
<text text-anchor="middle" x="261" y="-112.3" font-family="Helvetica,sans-Serif" font-size="14.00">es4.ts</text>
</g>
<!-- src/example&#45;app.ts&#45;&gt;src/docValidators/es4.ts -->
<g id="edge22" class="edge">
<title>src/example&#45;app.ts&#45;&gt;src/docValidators/es4.ts</title>
<path fill="none" stroke="#528b8b" stroke-width="2" d="M82.38,-428.73C113.7,-373.57 207.46,-208.51 244.6,-143.11"/>
<polygon fill="#528b8b" stroke="#528b8b" stroke-width="2" points="247.76,-144.63 249.66,-134.21 241.67,-141.18 247.76,-144.63"/>
</g>
<!-- src/storage/storageAsync.ts -->
<g id="node13" class="node">
<title>src/storage/storageAsync.ts</title>
<path fill="#79cdcd" stroke="#79cdcd" d="M305.5,-465C305.5,-465 216.5,-465 216.5,-465 210.5,-465 204.5,-459 204.5,-453 204.5,-453 204.5,-441 204.5,-441 204.5,-435 210.5,-429 216.5,-429 216.5,-429 305.5,-429 305.5,-429 311.5,-429 317.5,-435 317.5,-441 317.5,-441 317.5,-453 317.5,-453 317.5,-459 311.5,-465 305.5,-465"/>
<text text-anchor="middle" x="261" y="-443.3" font-family="Helvetica,sans-Serif" font-size="14.00">storageAsync.ts</text>
</g>
<!-- src/example&#45;app.ts&#45;&gt;src/storage/storageAsync.ts -->
<g id="edge24" class="edge">
<title>src/example&#45;app.ts&#45;&gt;src/storage/storageAsync.ts</title>
<path fill="none" stroke="#528b8b" stroke-width="2" d="M126.13,-447C147.38,-447 171.98,-447 194.25,-447"/>
<polygon fill="#528b8b" stroke="#528b8b" stroke-width="2" points="194.3,-450.5 204.3,-447 194.3,-443.5 194.3,-450.5"/>
</g>
<!-- src/storage/storageDriverAsyncMemory.ts -->
<g id="node14" class="node">
<title>src/storage/storageDriverAsyncMemory.ts</title>
<path fill="#79cdcd" stroke="#79cdcd" d="M348,-411C348,-411 174,-411 174,-411 168,-411 162,-405 162,-399 162,-399 162,-387 162,-387 162,-381 168,-375 174,-375 174,-375 348,-375 348,-375 354,-375 360,-381 360,-387 360,-387 360,-399 360,-399 360,-405 354,-411 348,-411"/>
<text text-anchor="middle" x="261" y="-389.3" font-family="Helvetica,sans-Serif" font-size="14.00">storageDriverAsyncMemory.ts</text>
</g>
<!-- src/example&#45;app.ts&#45;&gt;src/storage/storageDriverAsyncMemory.ts -->
<g id="edge23" class="edge">
<title>src/example&#45;app.ts&#45;&gt;src/storage/storageDriverAsyncMemory.ts</title>
<path fill="none" stroke="#528b8b" stroke-width="2" d="M125.21,-428.89C134.76,-425.81 144.65,-422.73 154,-420 161.37,-417.85 169.06,-415.71 176.78,-413.62"/>
<polygon fill="#528b8b" stroke="#528b8b" stroke-width="2" points="177.79,-416.97 186.55,-411.01 175.98,-410.21 177.79,-416.97"/>
</g>
<!-- src/example&#45;app.ts&#45;&gt;src/types/docTypes.ts -->
<g id="edge21" class="edge">
<title>src/example&#45;app.ts&#45;&gt;src/types/docTypes.ts</title>
<path fill="none" stroke="#528b8b" stroke-width="2" d="M85.13,-465.27C100.08,-485.1 126.07,-516.76 154,-538 264.12,-621.73 295.16,-675 433.5,-675 433.5,-675 433.5,-675 578,-675 687.63,-675 738.09,-725.1 824,-657 896.66,-599.41 906.24,-478.06 906.65,-423.1"/>
<polygon fill="#528b8b" stroke="#528b8b" stroke-width="2" points="910.15,-423.02 906.63,-413.03 903.15,-423.04 910.15,-423.02"/>
</g>
<!-- src/follower.ts&#45;&gt;src/types/docTypes.ts -->
<g id="edge27" class="edge">
<title>src/follower.ts&#45;&gt;src/types/docTypes.ts</title>
<path fill="none" stroke="#528b8b" stroke-width="2" d="M473.23,-591.49C559.51,-614.52 768.11,-664.41 824,-625 890.01,-578.46 903.18,-473.8 905.61,-423.31"/>
<polygon fill="#528b8b" stroke="#528b8b" stroke-width="2" points="909.11,-423.24 905.98,-413.11 902.12,-422.98 909.11,-423.24"/>
</g>
<!-- src/types/queryTypes.ts -->
<g id="node18" class="node">
<title>src/types/queryTypes.ts</title>
<path fill="#79cdcd" stroke="#79cdcd" d="M791,-521C791,-521 714,-521 714,-521 708,-521 702,-515 702,-509 702,-509 702,-497 702,-497 702,-491 708,-485 714,-485 714,-485 791,-485 791,-485 797,-485 803,-491 803,-497 803,-497 803,-509 803,-509 803,-515 797,-521 791,-521"/>
<text text-anchor="middle" x="752.5" y="-499.3" font-family="Helvetica,sans-Serif" font-size="14.00">queryTypes.ts</text>
</g>
<!-- src/follower.ts&#45;&gt;src/types/queryTypes.ts -->
<g id="edge28" class="edge">
<title>src/follower.ts&#45;&gt;src/types/queryTypes.ts</title>
<path fill="none" stroke="#528b8b" stroke-width="2" d="M473.14,-582.11C518.03,-582.01 594.38,-577.26 653,-550 668.13,-542.97 666.49,-533.23 681,-525 684.64,-522.94 688.5,-521.04 692.46,-519.31"/>
<polygon fill="#528b8b" stroke="#528b8b" stroke-width="2" points="693.85,-522.52 701.83,-515.54 691.24,-516.02 693.85,-522.52"/>
</g>
<!-- src/types/storageTypes.ts -->
<g id="node19" class="node">
<title>src/types/storageTypes.ts</title>
<path fill="#79cdcd" stroke="#79cdcd" d="M621.5,-487C621.5,-487 532.5,-487 532.5,-487 526.5,-487 520.5,-481 520.5,-475 520.5,-475 520.5,-463 520.5,-463 520.5,-457 526.5,-451 532.5,-451 532.5,-451 621.5,-451 621.5,-451 627.5,-451 633.5,-457 633.5,-463 633.5,-463 633.5,-475 633.5,-475 633.5,-481 627.5,-487 621.5,-487"/>
<text text-anchor="middle" x="577" y="-465.3" font-family="Helvetica,sans-Serif" font-size="14.00">storageTypes.ts</text>
</g>
<!-- src/follower.ts&#45;&gt;src/types/storageTypes.ts -->
<g id="edge29" class="edge">
<title>src/follower.ts&#45;&gt;src/types/storageTypes.ts</title>
<path fill="none" stroke="#528b8b" stroke-width="2" d="M447.31,-562.82C460.4,-543.89 483.13,-514.49 509,-496 510.87,-494.67 512.81,-493.39 514.8,-492.16"/>
<polygon fill="#528b8b" stroke="#528b8b" stroke-width="2" points="516.82,-495.04 523.84,-487.1 513.4,-488.93 516.82,-495.04"/>
</g>
<!-- src/types/utilTypes.ts -->
<g id="node20" class="node">
<title>src/types/utilTypes.ts</title>
<path fill="#79cdcd" stroke="#79cdcd" d="M607.5,-541C607.5,-541 546.5,-541 546.5,-541 540.5,-541 534.5,-535 534.5,-529 534.5,-529 534.5,-517 534.5,-517 534.5,-511 540.5,-505 546.5,-505 546.5,-505 607.5,-505 607.5,-505 613.5,-505 619.5,-511 619.5,-517 619.5,-517 619.5,-529 619.5,-529 619.5,-535 613.5,-541 607.5,-541"/>
<text text-anchor="middle" x="577" y="-519.3" font-family="Helvetica,sans-Serif" font-size="14.00">utilTypes.ts</text>
</g>
<!-- src/follower.ts&#45;&gt;src/types/utilTypes.ts -->
<g id="edge26" class="edge">
<title>src/follower.ts&#45;&gt;src/types/utilTypes.ts</title>
<path fill="none" stroke="#528b8b" stroke-width="2" d="M469.82,-562.97C482.03,-556.89 495.97,-550.3 509,-545 514.03,-542.95 519.33,-540.95 524.66,-539.05"/>
<polygon fill="#528b8b" stroke="#528b8b" stroke-width="2" points="525.92,-542.32 534.22,-535.73 523.62,-535.7 525.92,-542.32"/>
</g>
<!-- src/lock.ts -->
<g id="node4" class="node">
<title>src/lock.ts</title>
<path fill="#79cdcd" stroke="#79cdcd" d="M768,-616C768,-616 737,-616 737,-616 731,-616 725,-610 725,-604 725,-604 725,-592 725,-592 725,-586 731,-580 737,-580 737,-580 768,-580 768,-580 774,-580 780,-586 780,-592 780,-592 780,-604 780,-604 780,-610 774,-616 768,-616"/>
<text text-anchor="middle" x="752.5" y="-594.3" font-family="Helvetica,sans-Serif" font-size="14.00">lock.ts</text>
</g>
<!-- src/query.ts -->
<g id="node5" class="node">
<title>src/query.ts</title>
<path fill="#79cdcd" stroke="#79cdcd" d="M597,-361C597,-361 557,-361 557,-361 551,-361 545,-355 545,-349 545,-349 545,-337 545,-337 545,-331 551,-325 557,-325 557,-325 597,-325 597,-325 603,-325 609,-331 609,-337 609,-337 609,-349 609,-349 609,-355 603,-361 597,-361"/>
<text text-anchor="middle" x="577" y="-339.3" font-family="Helvetica,sans-Serif" font-size="14.00">query.ts</text>
</g>
<!-- src/query.ts&#45;&gt;src/types/docTypes.ts -->
<g id="edge30" class="edge">
<title>src/query.ts&#45;&gt;src/types/docTypes.ts</title>
<path fill="none" stroke="#528b8b" stroke-width="2" d="M609.01,-344C655.99,-345.99 747.79,-351.78 824,-368 833.36,-369.99 843.15,-372.67 852.57,-375.56"/>
<polygon fill="#528b8b" stroke="#528b8b" stroke-width="2" points="851.63,-378.94 862.22,-378.64 853.76,-372.27 851.63,-378.94"/>
</g>
<!-- src/query.ts&#45;&gt;src/types/queryTypes.ts -->
<g id="edge31" class="edge">
<title>src/query.ts&#45;&gt;src/types/queryTypes.ts</title>
<path fill="none" stroke="#528b8b" stroke-width="2" d="M609.07,-345.03C624.24,-347.61 641.61,-353.17 653,-365 688.28,-401.66 647.22,-437.95 681,-476 684.45,-479.88 688.51,-483.21 692.93,-486.06"/>
<polygon fill="#528b8b" stroke="#528b8b" stroke-width="2" points="691.33,-489.18 701.77,-490.98 694.73,-483.06 691.33,-489.18"/>
</g>
<!-- src/coreValidators/addresses.ts -->
<g id="node6" class="node">
<title>src/coreValidators/addresses.ts</title>
<path fill="#79cdcd" stroke="#79cdcd" d="M787,-126C787,-126 718,-126 718,-126 712,-126 706,-120 706,-114 706,-114 706,-102 706,-102 706,-96 712,-90 718,-90 718,-90 787,-90 787,-90 793,-90 799,-96 799,-102 799,-102 799,-114 799,-114 799,-120 793,-126 787,-126"/>
<text text-anchor="middle" x="752.5" y="-104.3" font-family="Helvetica,sans-Serif" font-size="14.00">addresses.ts</text>
</g>
<!-- src/coreValidators/characters.ts -->
<g id="node7" class="node">
<title>src/coreValidators/characters.ts</title>
<path fill="#79cdcd" stroke="#79cdcd" d="M942,-72C942,-72 872,-72 872,-72 866,-72 860,-66 860,-60 860,-60 860,-48 860,-48 860,-42 866,-36 872,-36 872,-36 942,-36 942,-36 948,-36 954,-42 954,-48 954,-48 954,-60 954,-60 954,-66 948,-72 942,-72"/>
<text text-anchor="middle" x="907" y="-50.3" font-family="Helvetica,sans-Serif" font-size="14.00">characters.ts</text>
</g>
<!-- src/coreValidators/addresses.ts&#45;&gt;src/coreValidators/characters.ts -->
<g id="edge3" class="edge">
<title>src/coreValidators/addresses.ts&#45;&gt;src/coreValidators/characters.ts</title>
<path fill="none" stroke="#528b8b" stroke-width="2" d="M799.26,-91.8C815.24,-86.14 833.37,-79.72 850.09,-73.8"/>
<polygon fill="#528b8b" stroke="#528b8b" stroke-width="2" points="851.49,-77.01 859.75,-70.38 849.16,-70.42 851.49,-77.01"/>
</g>
<!-- src/coreValidators/addresses.ts&#45;&gt;src/types/docTypes.ts -->
<g id="edge2" class="edge">
<title>src/coreValidators/addresses.ts&#45;&gt;src/types/docTypes.ts</title>
<path fill="none" stroke="#528b8b" stroke-width="2" d="M785.35,-126.06C798.85,-135.07 813.78,-147.04 824,-161 871.4,-225.79 893.25,-320.35 901.63,-366.93"/>
<polygon fill="#528b8b" stroke="#528b8b" stroke-width="2" points="898.2,-367.65 903.35,-376.91 905.1,-366.46 898.2,-367.65"/>
</g>
<!-- src/coreValidators/checkers.ts -->
<g id="node8" class="node">
<title>src/coreValidators/checkers.ts</title>
<path fill="#79cdcd" stroke="#79cdcd" d="M783,-72C783,-72 722,-72 722,-72 716,-72 710,-66 710,-60 710,-60 710,-48 710,-48 710,-42 716,-36 722,-36 722,-36 783,-36 783,-36 789,-36 795,-42 795,-48 795,-48 795,-60 795,-60 795,-66 789,-72 783,-72"/>
<text text-anchor="middle" x="752.5" y="-50.3" font-family="Helvetica,sans-Serif" font-size="14.00">checkers.ts</text>
</g>
<!-- src/coreValidators/checkers.ts&#45;&gt;src/coreValidators/characters.ts -->
<g id="edge4" class="edge">
<title>src/coreValidators/checkers.ts&#45;&gt;src/coreValidators/characters.ts</title>
<path fill="none" stroke="#528b8b" stroke-width="2" d="M795.17,-54C811.98,-54 831.64,-54 849.7,-54"/>
<polygon fill="#528b8b" stroke="#528b8b" stroke-width="2" points="849.82,-57.5 859.82,-54 849.82,-50.5 849.82,-57.5"/>
</g>
<!-- src/crypto/crypto.ts -->
<g id="node9" class="node">
<title>src/crypto/crypto.ts</title>
<path fill="#79cdcd" stroke="#79cdcd" d="M456.5,-172C456.5,-172 412.5,-172 412.5,-172 406.5,-172 400.5,-166 400.5,-160 400.5,-160 400.5,-148 400.5,-148 400.5,-142 406.5,-136 412.5,-136 412.5,-136 456.5,-136 456.5,-136 462.5,-136 468.5,-142 468.5,-148 468.5,-148 468.5,-160 468.5,-160 468.5,-166 462.5,-172 456.5,-172"/>
<text text-anchor="middle" x="434.5" y="-150.3" font-family="Helvetica,sans-Serif" font-size="14.00">crypto.ts</text>
</g>
<!-- src/crypto/crypto.ts&#45;&gt;src/base32.ts -->
<g id="edge8" class="edge">
<title>src/crypto/crypto.ts&#45;&gt;src/base32.ts</title>
<path fill="none" stroke="#528b8b" stroke-width="2" d="M468.75,-137.34C514.24,-117.16 596.64,-90.14 653,-127 678.98,-143.99 659.2,-168.9 681,-191 687.87,-197.96 696.52,-203.55 705.39,-207.98"/>
<polygon fill="#528b8b" stroke="#528b8b" stroke-width="2" points="704.1,-211.24 714.66,-212.19 707,-204.87 704.1,-211.24"/>
</g>
<!-- src/crypto/crypto.ts&#45;&gt;src/coreValidators/addresses.ts -->
<g id="edge10" class="edge">
<title>src/crypto/crypto.ts&#45;&gt;src/coreValidators/addresses.ts</title>
<path fill="none" stroke="#528b8b" stroke-width="2" d="M450.23,-135.93C463.72,-120.93 485.17,-100.71 509,-92 570.12,-69.67 645.6,-80.05 695.97,-91.83"/>
<polygon fill="#528b8b" stroke="#528b8b" stroke-width="2" points="695.15,-95.24 705.69,-94.2 696.8,-88.43 695.15,-95.24"/>
</g>
<!-- src/crypto/cryptoDriverNode.ts -->
<g id="node10" class="node">
<title>src/crypto/cryptoDriverNode.ts</title>
<path fill="#79cdcd" stroke="#79cdcd" d="M633,-226C633,-226 521,-226 521,-226 515,-226 509,-220 509,-214 509,-214 509,-202 509,-202 509,-196 515,-190 521,-190 521,-190 633,-190 633,-190 639,-190 645,-196 645,-202 645,-202 645,-214 645,-214 645,-220 639,-226 633,-226"/>
<text text-anchor="middle" x="577" y="-204.3" font-family="Helvetica,sans-Serif" font-size="14.00">cryptoDriverNode.ts</text>
</g>
<!-- src/crypto/crypto.ts&#45;&gt;src/crypto/cryptoDriverNode.ts -->
<g id="edge5" class="edge">
<title>src/crypto/crypto.ts&#45;&gt;src/crypto/cryptoDriverNode.ts</title>
<path fill="none" stroke="#528b8b" stroke-width="2" d="M468.8,-166.8C484,-172.64 502.42,-179.72 519.68,-186.35"/>
<polygon fill="#528b8b" stroke="#528b8b" stroke-width="2" points="518.53,-189.66 529.12,-189.98 521.04,-183.13 518.53,-189.66"/>
</g>
<!-- src/crypto/keypair.ts -->
<g id="node11" class="node">
<title>src/crypto/keypair.ts</title>
<path fill="#79cdcd" stroke="#79cdcd" d="M602,-172C602,-172 552,-172 552,-172 546,-172 540,-166 540,-160 540,-160 540,-148 540,-148 540,-142 546,-136 552,-136 552,-136 602,-136 602,-136 608,-136 614,-142 614,-148 614,-148 614,-160 614,-160 614,-166 608,-172 602,-172"/>
<text text-anchor="middle" x="577" y="-150.3" font-family="Helvetica,sans-Serif" font-size="14.00">keypair.ts</text>
</g>
<!-- src/crypto/crypto.ts&#45;&gt;src/crypto/keypair.ts -->
<g id="edge9" class="edge">
<title>src/crypto/crypto.ts&#45;&gt;src/crypto/keypair.ts</title>
<path fill="none" stroke="#528b8b" stroke-width="2" d="M468.8,-154C487.04,-154 509.93,-154 529.87,-154"/>
<polygon fill="#528b8b" stroke="#528b8b" stroke-width="2" points="529.99,-157.5 539.99,-154 529.99,-150.5 529.99,-157.5"/>
</g>
<!-- src/types/cryptoTypes.ts -->
<g id="node15" class="node">
<title>src/types/cryptoTypes.ts</title>
<path fill="#79cdcd" stroke="#79cdcd" d="M792.5,-413C792.5,-413 712.5,-413 712.5,-413 706.5,-413 700.5,-407 700.5,-401 700.5,-401 700.5,-389 700.5,-389 700.5,-383 706.5,-377 712.5,-377 712.5,-377 792.5,-377 792.5,-377 798.5,-377 804.5,-383 804.5,-389 804.5,-389 804.5,-401 804.5,-401 804.5,-407 798.5,-413 792.5,-413"/>
<text text-anchor="middle" x="752.5" y="-391.3" font-family="Helvetica,sans-Serif" font-size="14.00">cryptoTypes.ts</text>
</g>
<!-- src/crypto/crypto.ts&#45;&gt;src/types/cryptoTypes.ts -->
<g id="edge7" class="edge">
<title>src/crypto/crypto.ts&#45;&gt;src/types/cryptoTypes.ts</title>
<path fill="none" stroke="#528b8b" stroke-width="2" d="M448.41,-172.06C461.9,-189.9 484.48,-217.06 509,-235 565.81,-276.58 594.73,-261.49 653,-301 681.84,-320.56 710.13,-348.77 728.94,-369.17"/>
<polygon fill="#528b8b" stroke="#528b8b" stroke-width="2" points="726.6,-371.8 735.91,-376.85 731.78,-367.09 726.6,-371.8"/>
</g>
<!-- src/crypto/crypto.ts&#45;&gt;src/types/docTypes.ts -->
<g id="edge6" class="edge">
<title>src/crypto/crypto.ts&#45;&gt;src/types/docTypes.ts</title>
<path fill="none" stroke="#528b8b" stroke-width="2" d="M453.96,-135.99C467.83,-123.78 488,-108.68 509,-102 539.5,-92.3 626.46,-84.13 653,-102 680.45,-120.49 654.9,-150.65 681,-171 731.61,-210.45 773.45,-151.46 824,-191 879.67,-234.54 897.71,-321.82 903.43,-366.78"/>
<polygon fill="#528b8b" stroke="#528b8b" stroke-width="2" points="899.95,-367.21 904.58,-376.74 906.91,-366.4 899.95,-367.21"/>
</g>
<!-- src/crypto/cryptoDriverNode.ts&#45;&gt;src/types/cryptoTypes.ts -->
<g id="edge11" class="edge">
<title>src/crypto/cryptoDriverNode.ts&#45;&gt;src/types/cryptoTypes.ts</title>
<path fill="none" stroke="#528b8b" stroke-width="2" d="M597.56,-226.16C612.97,-240.66 634.81,-261.69 653,-281 680.6,-310.29 710.6,-345.55 730.15,-369.03"/>
<polygon fill="#528b8b" stroke="#528b8b" stroke-width="2" points="727.53,-371.35 736.61,-376.81 732.92,-366.88 727.53,-371.35"/>
</g>
<!-- src/crypto/keypair.ts&#45;&gt;src/base32.ts -->
<g id="edge13" class="edge">
<title>src/crypto/keypair.ts&#45;&gt;src/base32.ts</title>
<path fill="none" stroke="#528b8b" stroke-width="2" d="M614.02,-166.49C626.43,-170.92 640.38,-176.04 653,-181 670.21,-187.76 688.92,-195.61 705.36,-202.68"/>
<polygon fill="#528b8b" stroke="#528b8b" stroke-width="2" points="704.19,-205.98 714.76,-206.74 706.96,-199.56 704.19,-205.98"/>
</g>
<!-- src/crypto/keypair.ts&#45;&gt;src/coreValidators/addresses.ts -->
<g id="edge15" class="edge">
<title>src/crypto/keypair.ts&#45;&gt;src/coreValidators/addresses.ts</title>
<path fill="none" stroke="#528b8b" stroke-width="2" d="M614.37,-144.36C637.98,-138.1 669.22,-129.81 695.91,-122.74"/>
<polygon fill="#528b8b" stroke="#528b8b" stroke-width="2" points="697.13,-126.04 705.9,-120.09 695.33,-119.27 697.13,-126.04"/>
</g>
<!-- src/crypto/keypair.ts&#45;&gt;src/types/cryptoTypes.ts -->
<g id="edge14" class="edge">
<title>src/crypto/keypair.ts&#45;&gt;src/types/cryptoTypes.ts</title>
<path fill="none" stroke="#528b8b" stroke-width="2" d="M614.13,-160.03C627.86,-163.95 642.65,-170.41 653,-181 680.49,-209.16 665.34,-228.9 681,-265 697.02,-301.92 719.85,-342.37 735.15,-368.18"/>
<polygon fill="#528b8b" stroke="#528b8b" stroke-width="2" points="732.28,-370.21 740.42,-376.99 738.29,-366.61 732.28,-370.21"/>
</g>
<!-- src/crypto/keypair.ts&#45;&gt;src/types/docTypes.ts -->
<g id="edge12" class="edge">
<title>src/crypto/keypair.ts&#45;&gt;src/types/docTypes.ts</title>
<path fill="none" stroke="#528b8b" stroke-width="2" d="M614.3,-160.35C627.89,-164.31 642.54,-170.71 653,-181 678.07,-205.66 653.53,-233.05 681,-255 731.14,-295.05 769.46,-241.18 824,-275 858.91,-296.65 882.58,-339.3 895.19,-367.48"/>
<polygon fill="#528b8b" stroke="#528b8b" stroke-width="2" points="892.03,-368.98 899.19,-376.78 898.46,-366.21 892.03,-368.98"/>
</g>
<!-- src/docValidators/es4.ts&#45;&gt;src/coreValidators/characters.ts -->
<g id="edge18" class="edge">
<title>src/docValidators/es4.ts&#45;&gt;src/coreValidators/characters.ts</title>
<path fill="none" stroke="#528b8b" stroke-width="2" d="M288.02,-100.9C313.68,-86.77 354.48,-66.34 392.5,-56 577.97,-5.55 634.22,3.44 824,-27 832.6,-28.38 841.52,-30.52 850.18,-33.02"/>
<polygon fill="#528b8b" stroke="#528b8b" stroke-width="2" points="849.22,-36.38 859.81,-35.95 851.26,-29.69 849.22,-36.38"/>
</g>
<!-- src/docValidators/es4.ts&#45;&gt;src/coreValidators/checkers.ts -->
<g id="edge19" class="edge">
<title>src/docValidators/es4.ts&#45;&gt;src/coreValidators/checkers.ts</title>
<path fill="none" stroke="#528b8b" stroke-width="2" d="M288.41,-104.69C314.37,-94.16 355.39,-79.05 392.5,-72 500.24,-51.54 629.23,-50.69 699.52,-52.17"/>
<polygon fill="#528b8b" stroke="#528b8b" stroke-width="2" points="699.8,-55.67 709.87,-52.41 699.96,-48.67 699.8,-55.67"/>
</g>
<!-- src/docValidators/es4.ts&#45;&gt;src/crypto/crypto.ts -->
<g id="edge20" class="edge">
<title>src/docValidators/es4.ts&#45;&gt;src/crypto/crypto.ts</title>
<path fill="none" stroke="#528b8b" stroke-width="2" d="M288.05,-121.77C315.19,-127.79 358.17,-137.31 390.39,-144.45"/>
<polygon fill="#528b8b" stroke="#528b8b" stroke-width="2" points="389.91,-147.93 400.43,-146.67 391.43,-141.09 389.91,-147.93"/>
</g>
<!-- src/docValidators/es4.ts&#45;&gt;src/types/docTypes.ts -->
<g id="edge16" class="edge">
<title>src/docValidators/es4.ts&#45;&gt;src/types/docTypes.ts</title>
<path fill="none" stroke="#528b8b" stroke-width="2" d="M288.24,-109.91C366.07,-92.46 593.85,-46.14 653,-87 681.93,-106.99 652.78,-140.02 681,-161 706.56,-180.01 798.54,-151.85 824,-171 886.62,-218.09 901.47,-317.92 904.95,-366.82"/>
<polygon fill="#528b8b" stroke="#528b8b" stroke-width="2" points="901.47,-367.22 905.57,-376.99 908.46,-366.8 901.47,-367.22"/>
</g>
<!-- src/types/docValidatorTypes.ts -->
<g id="node17" class="node">
<title>src/types/docValidatorTypes.ts</title>
<path fill="#79cdcd" stroke="#79cdcd" d="M812,-467C812,-467 693,-467 693,-467 687,-467 681,-461 681,-455 681,-455 681,-443 681,-443 681,-437 687,-431 693,-431 693,-431 812,-431 812,-431 818,-431 824,-437 824,-443 824,-443 824,-455 824,-455 824,-461 818,-467 812,-467"/>
<text text-anchor="middle" x="752.5" y="-445.3" font-family="Helvetica,sans-Serif" font-size="14.00">docValidatorTypes.ts</text>
</g>
<!-- src/docValidators/es4.ts&#45;&gt;src/types/docValidatorTypes.ts -->
<g id="edge17" class="edge">
<title>src/docValidators/es4.ts&#45;&gt;src/types/docValidatorTypes.ts</title>
<path fill="none" stroke="#528b8b" stroke-width="2" d="M272.68,-134.13C292.19,-165.5 336.76,-229.54 392.5,-261 495.17,-318.94 567.28,-230.07 653,-311 690,-345.93 647.22,-383.95 681,-422 681.74,-422.83 682.51,-423.64 683.3,-424.42"/>
<polygon fill="#528b8b" stroke="#528b8b" stroke-width="2" points="681.13,-427.17 691.08,-430.82 685.58,-421.76 681.13,-427.17"/>
</g>
<!-- src/storage/storageAsync.ts&#45;&gt;src/crypto/crypto.ts -->
<g id="edge37" class="edge">
<title>src/storage/storageAsync.ts&#45;&gt;src/crypto/crypto.ts</title>
<path fill="none" stroke="#528b8b" stroke-width="2" d="M317.76,-444.05C335.91,-440.41 354.76,-433.35 368,-420 401.42,-386.32 422.53,-243.56 430.22,-182.21"/>
<polygon fill="#528b8b" stroke="#528b8b" stroke-width="2" points="433.72,-182.43 431.46,-172.08 426.77,-181.58 433.72,-182.43"/>
</g>
<!-- src/storage/storageAsync.ts&#45;&gt;src/types/docTypes.ts -->
<g id="edge33" class="edge">
<title>src/storage/storageAsync.ts&#45;&gt;src/types/docTypes.ts</title>
<path fill="none" stroke="#528b8b" stroke-width="2" d="M317.56,-446.2C336.02,-448.82 355.12,-455.18 368,-469 423.35,-528.38 331.37,-596.59 392.5,-650 401.53,-657.89 814.31,-657.06 824,-650 896.93,-596.84 906.41,-477.74 906.73,-423.22"/>
<polygon fill="#528b8b" stroke="#528b8b" stroke-width="2" points="910.23,-423.2 906.69,-413.22 903.23,-423.23 910.23,-423.2"/>
</g>
<!-- src/storage/storageAsync.ts&#45;&gt;src/types/docValidatorTypes.ts -->
<g id="edge36" class="edge">
<title>src/storage/storageAsync.ts&#45;&gt;src/types/docValidatorTypes.ts</title>
<path fill="none" stroke="#528b8b" stroke-width="2" d="M317.53,-438.56C393.48,-428.3 533.92,-413.86 653,-427 658.8,-427.64 664.76,-428.49 670.74,-429.47"/>
<polygon fill="#528b8b" stroke="#528b8b" stroke-width="2" points="670.34,-432.96 680.79,-431.26 671.56,-426.06 670.34,-432.96"/>
</g>
<!-- src/storage/storageAsync.ts&#45;&gt;src/types/queryTypes.ts -->
<g id="edge34" class="edge">
<title>src/storage/storageAsync.ts&#45;&gt;src/types/queryTypes.ts</title>
<path fill="none" stroke="#528b8b" stroke-width="2" d="M317.57,-443.61C418.33,-437.86 623.53,-428.09 653,-442 670.7,-450.35 665.11,-464.57 681,-476 684.63,-478.61 688.54,-481.01 692.6,-483.2"/>
<polygon fill="#528b8b" stroke="#528b8b" stroke-width="2" points="691.14,-486.38 701.66,-487.67 694.24,-480.1 691.14,-486.38"/>
</g>
<!-- src/storage/storageAsync.ts&#45;&gt;src/types/storageTypes.ts -->
<g id="edge35" class="edge">
<title>src/storage/storageAsync.ts&#45;&gt;src/types/storageTypes.ts</title>
<path fill="none" stroke="#528b8b" stroke-width="2" d="M317.78,-450.91C371.72,-454.69 453.47,-460.42 510.49,-464.41"/>
<polygon fill="#528b8b" stroke="#528b8b" stroke-width="2" points="510.26,-467.9 520.48,-465.11 510.75,-460.92 510.26,-467.9"/>
</g>
<!-- src/storage/storageAsync.ts&#45;&gt;src/types/utilTypes.ts -->
<g id="edge32" class="edge">
<title>src/storage/storageAsync.ts&#45;&gt;src/types/utilTypes.ts</title>
<path fill="none" stroke="#528b8b" stroke-width="2" d="M317.68,-458.02C333.94,-461.38 351.71,-465.2 368,-469 421.65,-481.52 482.61,-497.57 524.6,-508.9"/>
<polygon fill="#528b8b" stroke="#528b8b" stroke-width="2" points="523.75,-512.3 534.32,-511.53 525.58,-505.54 523.75,-512.3"/>
</g>
<!-- src/storage/storageDriverAsyncMemory.ts&#45;&gt;src/lock.ts -->
<g id="edge43" class="edge">
<title>src/storage/storageDriverAsyncMemory.ts&#45;&gt;src/lock.ts</title>
<path fill="none" stroke="#528b8b" stroke-width="2" d="M350.14,-411.06C356.37,-413.66 362.39,-416.62 368,-420 448.03,-468.26 425.39,-534.24 509,-576 544.07,-593.51 655.6,-597.2 714.4,-597.9"/>
<polygon fill="#528b8b" stroke="#528b8b" stroke-width="2" points="714.7,-601.4 724.73,-598 714.77,-594.4 714.7,-601.4"/>
</g>
<!-- src/storage/storageDriverAsyncMemory.ts&#45;&gt;src/query.ts -->
<g id="edge42" class="edge">
<title>src/storage/storageDriverAsyncMemory.ts&#45;&gt;src/query.ts</title>
<path fill="none" stroke="#528b8b" stroke-width="2" d="M330.4,-374.98C350.32,-370.22 372.18,-365.45 392.5,-362 441.13,-353.74 497.67,-348.54 534.99,-345.71"/>
<polygon fill="#528b8b" stroke="#528b8b" stroke-width="2" points="535.27,-349.2 544.99,-344.98 534.76,-342.22 535.27,-349.2"/>
</g>
<!-- src/storage/storageDriverAsyncMemory.ts&#45;&gt;src/types/docTypes.ts -->
<g id="edge39" class="edge">
<title>src/storage/storageDriverAsyncMemory.ts&#45;&gt;src/types/docTypes.ts</title>
<path fill="none" stroke="#528b8b" stroke-width="2" d="M286.25,-374.88C328.68,-344.66 420.31,-285.8 509,-271 572.13,-260.46 589.05,-268.39 653,-271 691.1,-272.56 790.65,-266.52 824,-285 857.22,-303.4 880.86,-341.54 893.98,-367.7"/>
<polygon fill="#528b8b" stroke="#528b8b" stroke-width="2" points="890.84,-369.25 898.33,-376.74 897.14,-366.21 890.84,-369.25"/>
</g>
<!-- src/storage/storageDriverAsyncMemory.ts&#45;&gt;src/types/queryTypes.ts -->
<g id="edge40" class="edge">
<title>src/storage/storageDriverAsyncMemory.ts&#45;&gt;src/types/queryTypes.ts</title>
<path fill="none" stroke="#528b8b" stroke-width="2" d="M360.2,-393.02C395.81,-393.88 436.31,-395.85 473,-400 489.2,-401.83 492.95,-404.16 509,-407 572.82,-418.3 599.19,-393.88 653,-430 672.87,-443.34 662.62,-460.68 681,-476 684.65,-479.04 688.67,-481.76 692.9,-484.19"/>
<polygon fill="#528b8b" stroke="#528b8b" stroke-width="2" points="691.3,-487.3 701.79,-488.78 694.51,-481.08 691.3,-487.3"/>
</g>
<!-- src/storage/storageDriverAsyncMemory.ts&#45;&gt;src/types/storageTypes.ts -->
<g id="edge41" class="edge">
<title>src/storage/storageDriverAsyncMemory.ts&#45;&gt;src/types/storageTypes.ts</title>
<path fill="none" stroke="#528b8b" stroke-width="2" d="M360.14,-400.48C396.12,-404.79 436.87,-411.52 473,-422 493.74,-428.02 515.64,-437.52 533.9,-446.42"/>
<polygon fill="#528b8b" stroke="#528b8b" stroke-width="2" points="532.57,-449.67 543.08,-450.99 535.69,-443.4 532.57,-449.67"/>
</g>
<!-- src/storage/storageDriverAsyncMemory.ts&#45;&gt;src/types/utilTypes.ts -->
<g id="edge38" class="edge">
<title>src/storage/storageDriverAsyncMemory.ts&#45;&gt;src/types/utilTypes.ts</title>
<path fill="none" stroke="#528b8b" stroke-width="2" d="M354.99,-411.02C367.59,-413.4 380.36,-415.78 392.5,-418 428.22,-424.53 443.35,-411.04 473,-432 499.65,-450.84 484.48,-474.46 509,-496 513.76,-500.18 519.25,-503.77 525,-506.82"/>
<polygon fill="#528b8b" stroke="#528b8b" stroke-width="2" points="523.65,-510.05 534.18,-511.21 526.66,-503.74 523.65,-510.05"/>
</g>
<!-- src/types/cryptoTypes.ts&#45;&gt;src/types/docTypes.ts -->
<g id="edge44" class="edge">
<title>src/types/cryptoTypes.ts&#45;&gt;src/types/docTypes.ts</title>
<path fill="none" stroke="#528b8b" stroke-width="2" d="M804.7,-395C819.89,-395 836.57,-395 851.93,-395"/>
<polygon fill="#528b8b" stroke="#528b8b" stroke-width="2" points="852.32,-398.5 862.32,-395 852.32,-391.5 852.32,-398.5"/>
</g>
<!-- src/types/docValidatorTypes.ts&#45;&gt;src/types/docTypes.ts -->
<g id="edge45" class="edge">
<title>src/types/docValidatorTypes.ts&#45;&gt;src/types/docTypes.ts</title>
<path fill="none" stroke="#528b8b" stroke-width="2" d="M804.7,-430.87C820.18,-425.39 837.21,-419.36 852.81,-413.83"/>
<polygon fill="#528b8b" stroke="#528b8b" stroke-width="2" points="854.06,-417.1 862.32,-410.47 851.72,-410.51 854.06,-417.1"/>
</g>
<!-- src/types/queryTypes.ts&#45;&gt;src/types/docTypes.ts -->
<g id="edge46" class="edge">
<title>src/types/queryTypes.ts&#45;&gt;src/types/docTypes.ts</title>
<path fill="none" stroke="#528b8b" stroke-width="2" d="M803.32,-486.92C810.5,-483.76 817.61,-480.12 824,-476 847.34,-460.96 869.47,-438.43 884.84,-420.94"/>
<polygon fill="#528b8b" stroke="#528b8b" stroke-width="2" points="887.54,-423.17 891.41,-413.31 882.23,-418.61 887.54,-423.17"/>
</g>
<!-- src/types/storageTypes.ts&#45;&gt;src/lock.ts -->
<g id="edge49" class="edge">
<title>src/types/storageTypes.ts&#45;&gt;src/lock.ts</title>
<path fill="none" stroke="#528b8b" stroke-width="2" d="M633.81,-482.61C640.89,-486.11 647.54,-490.5 653,-496 679.52,-522.76 653.91,-549.82 681,-576 690.15,-584.84 702.79,-590.13 714.85,-593.3"/>
<polygon fill="#528b8b" stroke="#528b8b" stroke-width="2" points="714.24,-596.75 724.76,-595.49 715.75,-589.91 714.24,-596.75"/>
</g>
<!-- src/types/storageTypes.ts&#45;&gt;src/types/docTypes.ts -->
<g id="edge47" class="edge">
<title>src/types/storageTypes.ts&#45;&gt;src/types/docTypes.ts</title>
<path fill="none" stroke="#528b8b" stroke-width="2" d="M633.77,-485.22C640.53,-488.28 647.12,-491.86 653,-496 669,-507.27 663.3,-521.65 681,-530 709.74,-543.56 796.3,-545.58 824,-530 864.54,-507.19 887.36,-455.33 898.14,-422.94"/>
<polygon fill="#528b8b" stroke="#528b8b" stroke-width="2" points="901.55,-423.75 901.23,-413.16 894.88,-421.65 901.55,-423.75"/>
</g>
<!-- src/types/storageTypes.ts&#45;&gt;src/types/queryTypes.ts -->
<g id="edge48" class="edge">
<title>src/types/storageTypes.ts&#45;&gt;src/types/queryTypes.ts</title>
<path fill="none" stroke="#528b8b" stroke-width="2" d="M633.85,-479.94C652.41,-483.58 673.14,-487.64 691.96,-491.33"/>
<polygon fill="#528b8b" stroke="#528b8b" stroke-width="2" points="691.42,-494.79 701.9,-493.28 692.76,-487.92 691.42,-494.79"/>
</g>
</g>
</svg>
