<?xml version="1.0" encoding="UTF-8" standalone="no"?>
<!DOCTYPE svg PUBLIC "-//W3C//DTD SVG 1.1//EN"
 "http://www.w3.org/Graphics/SVG/1.1/DTD/svg11.dtd">
<!-- Generated by graphviz version 2.44.1 (20200629.0846)
 -->
<!-- Title: G Pages: 1 -->
<svg width="601pt" height="470pt"
 viewBox="0.00 0.00 601.00 470.00" xmlns="http://www.w3.org/2000/svg" xmlns:xlink="http://www.w3.org/1999/xlink">
<g id="graph0" class="graph" transform="scale(1 1) rotate(0) translate(4 466)">
<title>G</title>
<polygon fill="white" stroke="transparent" points="-4,4 -4,-466 597,-466 597,4 -4,4"/>
<g id="clust1" class="cluster">
<title>cluster4087488592</title>
<path fill="none" stroke="#8b7d6b" stroke-width="2" d="M20,-8C20,-8 573,-8 573,-8 579,-8 585,-14 585,-20 585,-20 585,-442 585,-442 585,-448 579,-454 573,-454 573,-454 20,-454 20,-454 14,-454 8,-448 8,-442 8,-442 8,-20 8,-20 8,-14 14,-8 20,-8"/>
<text text-anchor="start" x="286" y="-439.8" font-family="Helvetica,sans-Serif" font-weight="bold" font-size="14.00">src</text>
</g>
<g id="clust2" class="cluster">
<title>cluster6726484188</title>
<path fill="bisque" stroke="#8b7d6b" stroke-width="2" d="M182,-328C182,-328 565,-328 565,-328 571,-328 577,-334 577,-340 577,-340 577,-411 577,-411 577,-417 571,-423 565,-423 565,-423 182,-423 182,-423 176,-423 170,-417 170,-411 170,-411 170,-340 170,-340 170,-334 176,-328 182,-328"/>
<text text-anchor="start" x="352.5" y="-408.8" font-family="Helvetica,sans-Serif" font-weight="bold" font-size="14.00">crypto</text>
</g>
<g id="clust3" class="cluster">
<title>cluster7861408058</title>
<path fill="bisque" stroke="#8b7d6b" stroke-width="2" d="M117,-127C117,-127 307,-127 307,-127 313,-127 319,-133 319,-139 319,-139 319,-244 319,-244 319,-250 313,-256 307,-256 307,-256 117,-256 117,-256 111,-256 105,-250 105,-244 105,-244 105,-139 105,-139 105,-133 111,-127 117,-127"/>
<text text-anchor="start" x="187.5" y="-241.8" font-family="Helvetica,sans-Serif" font-weight="bold" font-size="14.00">storage</text>
</g>
<g id="clust4" class="cluster">
<title>cluster2995239690</title>
<path fill="bisque" stroke="#8b7d6b" stroke-width="2" d="M363.5,-62C363.5,-62 430.5,-62 430.5,-62 436.5,-62 442.5,-68 442.5,-74 442.5,-74 442.5,-179 442.5,-179 442.5,-185 436.5,-191 430.5,-191 430.5,-191 363.5,-191 363.5,-191 357.5,-191 351.5,-185 351.5,-179 351.5,-179 351.5,-74 351.5,-74 351.5,-68 357.5,-62 363.5,-62"/>
<text text-anchor="start" x="386.5" y="-176.8" font-family="Helvetica,sans-Serif" font-weight="bold" font-size="14.00">util</text>
</g>
<g id="clust5" class="cluster">
<title>cluster4188280025</title>
<path fill="bisque" stroke="#8b7d6b" stroke-width="2" d="M373,-245C373,-245 422,-245 422,-245 428,-245 434,-251 434,-257 434,-257 434,-308 434,-308 434,-314 428,-320 422,-320 422,-320 373,-320 373,-320 367,-320 361,-314 361,-308 361,-308 361,-257 361,-257 361,-251 367,-245 373,-245"/>
<text text-anchor="start" x="369" y="-305.8" font-family="Helvetica,sans-Serif" font-weight="bold" font-size="14.00">validator</text>
</g>
<!-- src/doc.ts -->
<g id="node1" class="node">
<title>src/doc.ts</title>
<path fill="#79cdcd" stroke="#79cdcd" d="M412,-235C412,-235 382,-235 382,-235 376,-235 370,-229 370,-223 370,-223 370,-211 370,-211 370,-205 376,-199 382,-199 382,-199 412,-199 412,-199 418,-199 424,-205 424,-211 424,-211 424,-223 424,-223 424,-229 418,-235 412,-235"/>
<text text-anchor="middle" x="397" y="-213.3" font-family="Helvetica,sans-Serif" font-size="14.00">doc.ts</text>
</g>
<!-- src/follower.ts -->
<g id="node2" class="node">
<title>src/follower.ts</title>
<path fill="#79cdcd" stroke="#79cdcd" d="M238.5,-320C238.5,-320 185.5,-320 185.5,-320 179.5,-320 173.5,-314 173.5,-308 173.5,-308 173.5,-296 173.5,-296 173.5,-290 179.5,-284 185.5,-284 185.5,-284 238.5,-284 238.5,-284 244.5,-284 250.5,-290 250.5,-296 250.5,-296 250.5,-308 250.5,-308 250.5,-314 244.5,-320 238.5,-320"/>
<text text-anchor="middle" x="212" y="-298.3" font-family="Helvetica,sans-Serif" font-size="14.00">follower.ts</text>
</g>
<!-- src/main.ts -->
<g id="node3" class="node">
<title>src/main.ts</title>
<path fill="#79cdcd" stroke="#79cdcd" d="M65,-254C65,-254 28,-254 28,-254 22,-254 16,-248 16,-242 16,-242 16,-230 16,-230 16,-224 22,-218 28,-218 28,-218 65,-218 65,-218 71,-218 77,-224 77,-230 77,-230 77,-242 77,-242 77,-248 71,-254 65,-254"/>
<text text-anchor="middle" x="46.5" y="-232.3" font-family="Helvetica,sans-Serif" font-size="14.00">main.ts</text>
</g>
<!-- src/main.ts&#45;&gt;src/follower.ts -->
<g id="edge7" class="edge">
<title>src/main.ts&#45;&gt;src/follower.ts</title>
<path fill="none" stroke="#528b8b" stroke-width="2" d="M75.15,-254.17C84.39,-259.75 94.91,-265.57 105,-270 123.65,-278.19 145.02,-285.08 163.67,-290.34"/>
<polygon fill="#528b8b" stroke="#528b8b" stroke-width="2" points="162.85,-293.75 173.42,-293.02 164.71,-287 162.85,-293.75"/>
</g>
<!-- src/storage/storageAsync.ts -->
<g id="node8" class="node">
<title>src/storage/storageAsync.ts</title>
<path fill="#79cdcd" stroke="#79cdcd" d="M256.5,-225C256.5,-225 167.5,-225 167.5,-225 161.5,-225 155.5,-219 155.5,-213 155.5,-213 155.5,-201 155.5,-201 155.5,-195 161.5,-189 167.5,-189 167.5,-189 256.5,-189 256.5,-189 262.5,-189 268.5,-195 268.5,-201 268.5,-201 268.5,-213 268.5,-213 268.5,-219 262.5,-225 256.5,-225"/>
<text text-anchor="middle" x="212" y="-203.3" font-family="Helvetica,sans-Serif" font-size="14.00">storageAsync.ts</text>
</g>
<!-- src/main.ts&#45;&gt;src/storage/storageAsync.ts -->
<g id="edge9" class="edge">
<title>src/main.ts&#45;&gt;src/storage/storageAsync.ts</title>
<path fill="none" stroke="#528b8b" stroke-width="2" d="M77.11,-230.75C96.19,-227.36 121.78,-222.82 145.48,-218.62"/>
<polygon fill="#528b8b" stroke="#528b8b" stroke-width="2" points="146.26,-222.04 155.49,-216.85 145.03,-215.15 146.26,-222.04"/>
</g>
<!-- src/storage/storageDriverAsyncMemory.ts -->
<g id="node9" class="node">
<title>src/storage/storageDriverAsyncMemory.ts</title>
<path fill="#79cdcd" stroke="#79cdcd" d="M299,-171C299,-171 125,-171 125,-171 119,-171 113,-165 113,-159 113,-159 113,-147 113,-147 113,-141 119,-135 125,-135 125,-135 299,-135 299,-135 305,-135 311,-141 311,-147 311,-147 311,-159 311,-159 311,-165 305,-171 299,-171"/>
<text text-anchor="middle" x="212" y="-149.3" font-family="Helvetica,sans-Serif" font-size="14.00">storageDriverAsyncMemory.ts</text>
</g>
<!-- src/main.ts&#45;&gt;src/storage/storageDriverAsyncMemory.ts -->
<g id="edge8" class="edge">
<title>src/main.ts&#45;&gt;src/storage/storageDriverAsyncMemory.ts</title>
<path fill="none" stroke="#528b8b" stroke-width="2" d="M61.74,-217.8C72.38,-205.39 87.98,-189.54 105,-180 108.21,-178.2 111.55,-176.52 114.96,-174.95"/>
<polygon fill="#528b8b" stroke="#528b8b" stroke-width="2" points="116.35,-178.16 124.19,-171.04 113.61,-171.72 116.35,-178.16"/>
</g>
<!-- src/validator/es4.ts -->
<g id="node12" class="node">
<title>src/validator/es4.ts</title>
<path fill="#79cdcd" stroke="#79cdcd" d="M412,-289C412,-289 382,-289 382,-289 376,-289 370,-283 370,-277 370,-277 370,-265 370,-265 370,-259 376,-253 382,-253 382,-253 412,-253 412,-253 418,-253 424,-259 424,-265 424,-265 424,-277 424,-277 424,-283 418,-289 412,-289"/>
<text text-anchor="middle" x="397" y="-267.3" font-family="Helvetica,sans-Serif" font-size="14.00">es4.ts</text>
</g>
<!-- src/main.ts&#45;&gt;src/validator/es4.ts -->
<g id="edge6" class="edge">
<title>src/main.ts&#45;&gt;src/validator/es4.ts</title>
<path fill="none" stroke="#528b8b" stroke-width="2" d="M77.28,-250.8C86,-254.48 95.7,-257.95 105,-260 152.45,-270.44 292.7,-271.4 359.65,-271.24"/>
<polygon fill="#528b8b" stroke="#528b8b" stroke-width="2" points="359.75,-274.74 369.73,-271.2 359.72,-267.74 359.75,-274.74"/>
</g>
<!-- src/query.ts -->
<g id="node4" class="node">
<title>src/query.ts</title>
<path fill="#79cdcd" stroke="#79cdcd" d="M417,-52C417,-52 377,-52 377,-52 371,-52 365,-46 365,-40 365,-40 365,-28 365,-28 365,-22 371,-16 377,-16 377,-16 417,-16 417,-16 423,-16 429,-22 429,-28 429,-28 429,-40 429,-40 429,-46 423,-52 417,-52"/>
<text text-anchor="middle" x="397" y="-30.3" font-family="Helvetica,sans-Serif" font-size="14.00">query.ts</text>
</g>
<!-- src/crypto/crypto.ts -->
<g id="node5" class="node">
<title>src/crypto/crypto.ts</title>
<path fill="#79cdcd" stroke="#79cdcd" d="M234,-374C234,-374 190,-374 190,-374 184,-374 178,-368 178,-362 178,-362 178,-350 178,-350 178,-344 184,-338 190,-338 190,-338 234,-338 234,-338 240,-338 246,-344 246,-350 246,-350 246,-362 246,-362 246,-368 240,-374 234,-374"/>
<text text-anchor="middle" x="212" y="-352.3" font-family="Helvetica,sans-Serif" font-size="14.00">crypto.ts</text>
</g>
<!-- src/crypto/cryptoNode.ts -->
<g id="node6" class="node">
<title>src/crypto/cryptoNode.ts</title>
<path fill="#79cdcd" stroke="#79cdcd" d="M435,-372C435,-372 359,-372 359,-372 353,-372 347,-366 347,-360 347,-360 347,-348 347,-348 347,-342 353,-336 359,-336 359,-336 435,-336 435,-336 441,-336 447,-342 447,-348 447,-348 447,-360 447,-360 447,-366 441,-372 435,-372"/>
<text text-anchor="middle" x="397" y="-350.3" font-family="Helvetica,sans-Serif" font-size="14.00">cryptoNode.ts</text>
</g>
<!-- src/crypto/crypto.ts&#45;&gt;src/crypto/cryptoNode.ts -->
<g id="edge1" class="edge">
<title>src/crypto/crypto.ts&#45;&gt;src/crypto/cryptoNode.ts</title>
<path fill="none" stroke="#528b8b" stroke-width="2" d="M246.14,-355.64C271.29,-355.36 306.54,-354.98 336.54,-354.65"/>
<polygon fill="#528b8b" stroke="#528b8b" stroke-width="2" points="336.94,-358.15 346.9,-354.54 336.87,-351.15 336.94,-358.15"/>
</g>
<!-- src/crypto/encoding.ts -->
<g id="node7" class="node">
<title>src/crypto/encoding.ts</title>
<path fill="#79cdcd" stroke="#79cdcd" d="M557,-372C557,-372 495,-372 495,-372 489,-372 483,-366 483,-360 483,-360 483,-348 483,-348 483,-342 489,-336 495,-336 495,-336 557,-336 557,-336 563,-336 569,-342 569,-348 569,-348 569,-360 569,-360 569,-366 563,-372 557,-372"/>
<text text-anchor="middle" x="526" y="-350.3" font-family="Helvetica,sans-Serif" font-size="14.00">encoding.ts</text>
</g>
<!-- src/crypto/crypto.ts&#45;&gt;src/crypto/encoding.ts -->
<g id="edge2" class="edge">
<title>src/crypto/crypto.ts&#45;&gt;src/crypto/encoding.ts</title>
<path fill="none" stroke="#528b8b" stroke-width="2" d="M246.11,-365.2C291.6,-376.54 375.89,-392.96 447,-381 455.62,-379.55 464.57,-377.26 473.19,-374.6"/>
<polygon fill="#528b8b" stroke="#528b8b" stroke-width="2" points="474.34,-377.91 482.76,-371.48 472.17,-371.26 474.34,-377.91"/>
</g>
<!-- src/crypto/crypto.ts&#45;&gt;src/validator/es4.ts -->
<g id="edge3" class="edge">
<title>src/crypto/crypto.ts&#45;&gt;src/validator/es4.ts</title>
<path fill="none" stroke="#528b8b" stroke-width="2" d="M246.31,-360.9C267.87,-359.45 296.1,-353.93 319,-343 342.04,-332.01 364.15,-312.7 378.71,-296.62"/>
<polygon fill="#528b8b" stroke="#528b8b" stroke-width="2" points="381.37,-298.9 385.23,-289.04 376.06,-294.34 381.37,-298.9"/>
</g>
<!-- src/crypto/cryptoNode.ts&#45;&gt;src/crypto/encoding.ts -->
<g id="edge4" class="edge">
<title>src/crypto/cryptoNode.ts&#45;&gt;src/crypto/encoding.ts</title>
<path fill="none" stroke="#528b8b" stroke-width="2" d="M447.1,-354C455.44,-354 464.12,-354 472.54,-354"/>
<polygon fill="#528b8b" stroke="#528b8b" stroke-width="2" points="472.64,-357.5 482.64,-354 472.64,-350.5 472.64,-357.5"/>
</g>
<!-- src/crypto/encoding.ts&#45;&gt;src/validator/es4.ts -->
<g id="edge5" class="edge">
<title>src/crypto/encoding.ts&#45;&gt;src/validator/es4.ts</title>
<path fill="none" stroke="#528b8b" stroke-width="2" d="M497.27,-335.88C478.2,-323.41 452.75,-306.78 432.39,-293.47"/>
<polygon fill="#528b8b" stroke="#528b8b" stroke-width="2" points="434.29,-290.54 424.01,-288 430.46,-296.4 434.29,-290.54"/>
</g>
<!-- src/storage/storageAsync.ts&#45;&gt;src/doc.ts -->
<g id="edge10" class="edge">
<title>src/storage/storageAsync.ts&#45;&gt;src/doc.ts</title>
<path fill="none" stroke="#528b8b" stroke-width="2" d="M268.9,-210.05C298.46,-211.67 333.9,-213.61 359.84,-215.02"/>
<polygon fill="#528b8b" stroke="#528b8b" stroke-width="2" points="359.8,-218.53 369.97,-215.58 360.18,-211.54 359.8,-218.53"/>
</g>
<!-- src/storage/storageAsync.ts&#45;&gt;src/validator/es4.ts -->
<g id="edge11" class="edge">
<title>src/storage/storageAsync.ts&#45;&gt;src/validator/es4.ts</title>
<path fill="none" stroke="#528b8b" stroke-width="2" d="M268.54,-214.04C285.21,-217.33 303.24,-222.11 319,-229 333.01,-235.13 333.74,-241.39 347,-249 351.27,-251.45 355.87,-253.83 360.48,-256.06"/>
<polygon fill="#528b8b" stroke="#528b8b" stroke-width="2" points="359.29,-259.37 369.84,-260.4 362.24,-253.02 359.29,-259.37"/>
</g>
<!-- src/storage/storageDriverAsyncMemory.ts&#45;&gt;src/doc.ts -->
<g id="edge13" class="edge">
<title>src/storage/storageDriverAsyncMemory.ts&#45;&gt;src/doc.ts</title>
<path fill="none" stroke="#528b8b" stroke-width="2" d="M292.67,-171.05C301.65,-173.75 310.59,-176.73 319,-180 332.16,-185.11 334.33,-188.77 347,-195 351.37,-197.15 356,-199.34 360.6,-201.46"/>
<polygon fill="#528b8b" stroke="#528b8b" stroke-width="2" points="359.35,-204.74 369.9,-205.69 362.25,-198.36 359.35,-204.74"/>
</g>
<!-- src/storage/storageDriverAsyncMemory.ts&#45;&gt;src/query.ts -->
<g id="edge14" class="edge">
<title>src/storage/storageDriverAsyncMemory.ts&#45;&gt;src/query.ts</title>
<path fill="none" stroke="#528b8b" stroke-width="2" d="M235.95,-135C262.04,-114.95 306.3,-82.18 347,-58 349.81,-56.33 352.75,-54.68 355.74,-53.06"/>
<polygon fill="#528b8b" stroke="#528b8b" stroke-width="2" points="357.5,-56.09 364.76,-48.37 354.27,-49.88 357.5,-56.09"/>
</g>
<!-- src/util/lock.ts -->
<g id="node11" class="node">
<title>src/util/lock.ts</title>
<path fill="#79cdcd" stroke="#79cdcd" d="M412.5,-106C412.5,-106 381.5,-106 381.5,-106 375.5,-106 369.5,-100 369.5,-94 369.5,-94 369.5,-82 369.5,-82 369.5,-76 375.5,-70 381.5,-70 381.5,-70 412.5,-70 412.5,-70 418.5,-70 424.5,-76 424.5,-82 424.5,-82 424.5,-94 424.5,-94 424.5,-100 418.5,-106 412.5,-106"/>
<text text-anchor="middle" x="397" y="-84.3" font-family="Helvetica,sans-Serif" font-size="14.00">lock.ts</text>
</g>
<!-- src/storage/storageDriverAsyncMemory.ts&#45;&gt;src/util/lock.ts -->
<g id="edge12" class="edge">
<title>src/storage/storageDriverAsyncMemory.ts&#45;&gt;src/util/lock.ts</title>
<path fill="none" stroke="#528b8b" stroke-width="2" d="M263.98,-134.89C294.4,-124.09 332.31,-110.62 359.7,-100.89"/>
<polygon fill="#528b8b" stroke="#528b8b" stroke-width="2" points="361.02,-104.14 369.28,-97.49 358.68,-97.54 361.02,-104.14"/>
</g>
<!-- src/util/base32.ts -->
<g id="node10" class="node">
<title>src/util/base32.ts</title>
<path fill="#79cdcd" stroke="#79cdcd" d="M422.5,-160C422.5,-160 371.5,-160 371.5,-160 365.5,-160 359.5,-154 359.5,-148 359.5,-148 359.5,-136 359.5,-136 359.5,-130 365.5,-124 371.5,-124 371.5,-124 422.5,-124 422.5,-124 428.5,-124 434.5,-130 434.5,-136 434.5,-136 434.5,-148 434.5,-148 434.5,-154 428.5,-160 422.5,-160"/>
<text text-anchor="middle" x="397" y="-138.3" font-family="Helvetica,sans-Serif" font-size="14.00">base32.ts</text>
</g>
<!-- src/validator/es4.ts&#45;&gt;src/crypto/crypto.ts -->
<g id="edge15" class="edge">
<title>src/validator/es4.ts&#45;&gt;src/crypto/crypto.ts</title>
<path fill="none" stroke="#528b8b" stroke-width="2" d="M370.43,-289.23C356.4,-301.19 338.02,-315.93 319,-325 299.5,-334.3 276.14,-339.69 256.31,-343.61"/>
<polygon fill="#528b8b" stroke="#528b8b" stroke-width="2" points="255.46,-340.21 246.31,-345.54 256.79,-347.08 255.46,-340.21"/>
</g>
</g>
</svg>
