<?xml version="1.0" encoding="UTF-8" standalone="no"?>
<!DOCTYPE svg PUBLIC "-//W3C//DTD SVG 1.1//EN"
 "http://www.w3.org/Graphics/SVG/1.1/DTD/svg11.dtd">
<!-- Generated by graphviz version 2.44.1 (20200629.0846)
 -->
<!-- Title: G Pages: 1 -->
<svg width="1064pt" height="908pt"
 viewBox="0.00 0.00 1064.00 908.00" xmlns="http://www.w3.org/2000/svg" xmlns:xlink="http://www.w3.org/1999/xlink">
<g id="graph0" class="graph" transform="scale(1 1) rotate(0) translate(4 904)">
<title>G</title>
<polygon fill="white" stroke="transparent" points="-4,4 -4,-904 1060,-904 1060,4 -4,4"/>
<g id="clust1" class="cluster">
<title>cluster9099894032</title>
<path fill="none" stroke="#8b7d6b" stroke-width="2" d="M20,-8C20,-8 1036,-8 1036,-8 1042,-8 1048,-14 1048,-20 1048,-20 1048,-880 1048,-880 1048,-886 1042,-892 1036,-892 1036,-892 20,-892 20,-892 14,-892 8,-886 8,-880 8,-880 8,-20 8,-20 8,-14 14,-8 20,-8"/>
<text text-anchor="start" x="517.5" y="-877.8" font-family="Helvetica,sans-Serif" font-weight="bold" font-size="14.00">src</text>
</g>
<g id="clust2" class="cluster">
<title>cluster3989235523</title>
<path fill="bisque" stroke="#8b7d6b" stroke-width="2" d="M807.5,-28C807.5,-28 1028,-28 1028,-28 1034,-28 1040,-34 1040,-40 1040,-40 1040,-145 1040,-145 1040,-151 1034,-157 1028,-157 1028,-157 807.5,-157 807.5,-157 801.5,-157 795.5,-151 795.5,-145 795.5,-145 795.5,-40 795.5,-40 795.5,-34 801.5,-28 807.5,-28"/>
<text text-anchor="start" x="869.25" y="-142.8" font-family="Helvetica,sans-Serif" font-weight="bold" font-size="14.00">core&#45;validators</text>
</g>
<g id="clust3" class="cluster">
<title>cluster1933654245</title>
<path fill="bisque" stroke="#8b7d6b" stroke-width="2" d="M457,-175C457,-175 898,-175 898,-175 904,-175 910,-181 910,-187 910,-187 910,-386 910,-386 910,-392 904,-398 898,-398 898,-398 457,-398 457,-398 451,-398 445,-392 445,-386 445,-386 445,-187 445,-187 445,-181 451,-175 457,-175"/>
<text text-anchor="start" x="656.5" y="-383.8" font-family="Helvetica,sans-Serif" font-weight="bold" font-size="14.00">crypto</text>
</g>
<g id="clust4" class="cluster">
<title>cluster4050646052</title>
<path fill="bisque" stroke="#8b7d6b" stroke-width="2" d="M194,-406C194,-406 564,-406 564,-406 570,-406 576,-412 576,-418 576,-418 576,-469 576,-469 576,-475 570,-481 564,-481 564,-481 194,-481 194,-481 188,-481 182,-475 182,-469 182,-469 182,-418 182,-418 182,-412 188,-406 194,-406"/>
<text text-anchor="start" x="323" y="-466.8" font-family="Helvetica,sans-Serif" font-weight="bold" font-size="14.00">format&#45;validators</text>
</g>
<g id="clust5" class="cluster">
<title>cluster5886726083</title>
<path fill="bisque" stroke="#8b7d6b" stroke-width="2" d="M166,-489C166,-489 729.5,-489 729.5,-489 735.5,-489 741.5,-495 741.5,-501 741.5,-501 741.5,-800 741.5,-800 741.5,-806 735.5,-812 729.5,-812 729.5,-812 166,-812 166,-812 160,-812 154,-806 154,-800 154,-800 154,-501 154,-501 154,-495 160,-489 166,-489"/>
<text text-anchor="start" x="423.25" y="-797.8" font-family="Helvetica,sans-Serif" font-weight="bold" font-size="14.00">storage</text>
</g>
<g id="clust6" class="cluster">
<title>cluster7837298184</title>
<path fill="bisque" stroke="#8b7d6b" stroke-width="2" d="M944.5,-509C944.5,-509 1025.5,-509 1025.5,-509 1031.5,-509 1037.5,-515 1037.5,-521 1037.5,-521 1037.5,-572 1037.5,-572 1037.5,-578 1031.5,-584 1025.5,-584 1025.5,-584 944.5,-584 944.5,-584 938.5,-584 932.5,-578 932.5,-572 932.5,-572 932.5,-521 932.5,-521 932.5,-515 938.5,-509 944.5,-509"/>
<text text-anchor="start" x="967" y="-569.8" font-family="Helvetica,sans-Serif" font-weight="bold" font-size="14.00">types</text>
</g>
<!-- src/example&#45;app.ts -->
<g id="node1" class="node">
<title>src/example&#45;app.ts</title>
<path fill="#79cdcd" stroke="#79cdcd" d="M114,-665C114,-665 28,-665 28,-665 22,-665 16,-659 16,-653 16,-653 16,-641 16,-641 16,-635 22,-629 28,-629 28,-629 114,-629 114,-629 120,-629 126,-635 126,-641 126,-641 126,-653 126,-653 126,-659 120,-665 114,-665"/>
<text text-anchor="middle" x="71" y="-643.3" font-family="Helvetica,sans-Serif" font-size="14.00">example&#45;app.ts</text>
</g>
<!-- src/format&#45;validators/format&#45;validator&#45;es4.ts -->
<g id="node11" class="node">
<title>src/format&#45;validators/format&#45;validator&#45;es4.ts</title>
<path fill="#79cdcd" stroke="#79cdcd" d="M330,-450C330,-450 202,-450 202,-450 196,-450 190,-444 190,-438 190,-438 190,-426 190,-426 190,-420 196,-414 202,-414 202,-414 330,-414 330,-414 336,-414 342,-420 342,-426 342,-426 342,-438 342,-438 342,-444 336,-450 330,-450"/>
<text text-anchor="middle" x="266" y="-428.3" font-family="Helvetica,sans-Serif" font-size="14.00">format&#45;validator&#45;es4.ts</text>
</g>
<!-- src/example&#45;app.ts&#45;&gt;src/format&#45;validators/format&#45;validator&#45;es4.ts -->
<g id="edge19" class="edge">
<title>src/example&#45;app.ts&#45;&gt;src/format&#45;validators/format&#45;validator&#45;es4.ts</title>
<path fill="none" stroke="#528b8b" stroke-width="2" d="M76.92,-628.85C86.61,-596.18 111.05,-526.97 154,-485 167.08,-472.22 183.83,-462.06 200.33,-454.19"/>
<polygon fill="#528b8b" stroke="#528b8b" stroke-width="2" points="201.79,-457.38 209.45,-450.06 198.9,-451 201.79,-457.38"/>
</g>
<!-- src/storage/follower.ts -->
<g id="node14" class="node">
<title>src/storage/follower.ts</title>
<path fill="#79cdcd" stroke="#79cdcd" d="M292.5,-719C292.5,-719 239.5,-719 239.5,-719 233.5,-719 227.5,-713 227.5,-707 227.5,-707 227.5,-695 227.5,-695 227.5,-689 233.5,-683 239.5,-683 239.5,-683 292.5,-683 292.5,-683 298.5,-683 304.5,-689 304.5,-695 304.5,-695 304.5,-707 304.5,-707 304.5,-713 298.5,-719 292.5,-719"/>
<text text-anchor="middle" x="266" y="-697.3" font-family="Helvetica,sans-Serif" font-size="14.00">follower.ts</text>
</g>
<!-- src/example&#45;app.ts&#45;&gt;src/storage/follower.ts -->
<g id="edge22" class="edge">
<title>src/example&#45;app.ts&#45;&gt;src/storage/follower.ts</title>
<path fill="none" stroke="#528b8b" stroke-width="2" d="M124.74,-665.05C134.43,-668.17 144.49,-671.28 154,-674 174.62,-679.89 197.63,-685.63 217.33,-690.28"/>
<polygon fill="#528b8b" stroke="#528b8b" stroke-width="2" points="216.76,-693.74 227.3,-692.61 218.36,-686.93 216.76,-693.74"/>
</g>
<!-- src/storage/storage&#45;async.ts -->
<g id="node18" class="node">
<title>src/storage/storage&#45;async.ts</title>
<path fill="#79cdcd" stroke="#79cdcd" d="M312,-582C312,-582 220,-582 220,-582 214,-582 208,-576 208,-570 208,-570 208,-558 208,-558 208,-552 214,-546 220,-546 220,-546 312,-546 312,-546 318,-546 324,-552 324,-558 324,-558 324,-570 324,-570 324,-576 318,-582 312,-582"/>
<text text-anchor="middle" x="266" y="-560.3" font-family="Helvetica,sans-Serif" font-size="14.00">storage&#45;async.ts</text>
</g>
<!-- src/example&#45;app.ts&#45;&gt;src/storage/storage&#45;async.ts -->
<g id="edge21" class="edge">
<title>src/example&#45;app.ts&#45;&gt;src/storage/storage&#45;async.ts</title>
<path fill="none" stroke="#528b8b" stroke-width="2" d="M113.88,-628.99C143.12,-616.42 182.33,-599.55 213.48,-586.16"/>
<polygon fill="#528b8b" stroke="#528b8b" stroke-width="2" points="215.07,-589.28 222.87,-582.12 212.3,-582.85 215.07,-589.28"/>
</g>
<!-- src/storage/storage&#45;driver&#45;async&#45;memory.ts -->
<g id="node19" class="node">
<title>src/storage/storage&#45;driver&#45;async&#45;memory.ts</title>
<path fill="#79cdcd" stroke="#79cdcd" d="M358,-665C358,-665 174,-665 174,-665 168,-665 162,-659 162,-653 162,-653 162,-641 162,-641 162,-635 168,-629 174,-629 174,-629 358,-629 358,-629 364,-629 370,-635 370,-641 370,-641 370,-653 370,-653 370,-659 364,-665 358,-665"/>
<text text-anchor="middle" x="266" y="-643.3" font-family="Helvetica,sans-Serif" font-size="14.00">storage&#45;driver&#45;async&#45;memory.ts</text>
</g>
<!-- src/example&#45;app.ts&#45;&gt;src/storage/storage&#45;driver&#45;async&#45;memory.ts -->
<g id="edge20" class="edge">
<title>src/example&#45;app.ts&#45;&gt;src/storage/storage&#45;driver&#45;async&#45;memory.ts</title>
<path fill="none" stroke="#528b8b" stroke-width="2" d="M126.02,-647C134.2,-647 142.89,-647 151.78,-647"/>
<polygon fill="#528b8b" stroke="#528b8b" stroke-width="2" points="151.88,-650.5 161.88,-647 151.88,-643.5 151.88,-650.5"/>
</g>
<!-- src/types/doc&#45;types.ts -->
<g id="node22" class="node">
<title>src/types/doc&#45;types.ts</title>
<path fill="#79cdcd" stroke="#79cdcd" d="M1017.5,-553C1017.5,-553 952.5,-553 952.5,-553 946.5,-553 940.5,-547 940.5,-541 940.5,-541 940.5,-529 940.5,-529 940.5,-523 946.5,-517 952.5,-517 952.5,-517 1017.5,-517 1017.5,-517 1023.5,-517 1029.5,-523 1029.5,-529 1029.5,-529 1029.5,-541 1029.5,-541 1029.5,-547 1023.5,-553 1017.5,-553"/>
<text text-anchor="middle" x="985" y="-531.3" font-family="Helvetica,sans-Serif" font-size="14.00">doc&#45;types.ts</text>
</g>
<!-- src/example&#45;app.ts&#45;&gt;src/types/doc&#45;types.ts -->
<g id="edge18" class="edge">
<title>src/example&#45;app.ts&#45;&gt;src/types/doc&#45;types.ts</title>
<path fill="none" stroke="#528b8b" stroke-width="2" d="M75.02,-665.14C81.96,-700.6 102.58,-778.87 154,-816 274.67,-903.14 337.15,-860 486,-860 486,-860 486,-860 684,-860 791.16,-860 836.45,-853.94 910,-776 966.83,-715.78 980.08,-612.94 983.12,-563.37"/>
<polygon fill="#528b8b" stroke="#528b8b" stroke-width="2" points="986.63,-563.24 983.65,-553.08 979.64,-562.88 986.63,-563.24"/>
</g>
<!-- src/core&#45;validators/addresses.ts -->
<g id="node2" class="node">
<title>src/core&#45;validators/addresses.ts</title>
<path fill="#79cdcd" stroke="#79cdcd" d="M884.5,-126C884.5,-126 815.5,-126 815.5,-126 809.5,-126 803.5,-120 803.5,-114 803.5,-114 803.5,-102 803.5,-102 803.5,-96 809.5,-90 815.5,-90 815.5,-90 884.5,-90 884.5,-90 890.5,-90 896.5,-96 896.5,-102 896.5,-102 896.5,-114 896.5,-114 896.5,-120 890.5,-126 884.5,-126"/>
<text text-anchor="middle" x="850" y="-104.3" font-family="Helvetica,sans-Serif" font-size="14.00">addresses.ts</text>
</g>
<!-- src/core&#45;validators/characters.ts -->
<g id="node3" class="node">
<title>src/core&#45;validators/characters.ts</title>
<path fill="#79cdcd" stroke="#79cdcd" d="M1020,-72C1020,-72 950,-72 950,-72 944,-72 938,-66 938,-60 938,-60 938,-48 938,-48 938,-42 944,-36 950,-36 950,-36 1020,-36 1020,-36 1026,-36 1032,-42 1032,-48 1032,-48 1032,-60 1032,-60 1032,-66 1026,-72 1020,-72"/>
<text text-anchor="middle" x="985" y="-50.3" font-family="Helvetica,sans-Serif" font-size="14.00">characters.ts</text>
</g>
<!-- src/core&#45;validators/addresses.ts&#45;&gt;src/core&#45;validators/characters.ts -->
<g id="edge2" class="edge">
<title>src/core&#45;validators/addresses.ts&#45;&gt;src/core&#45;validators/characters.ts</title>
<path fill="none" stroke="#528b8b" stroke-width="2" d="M895.66,-89.87C906.62,-85.42 918.48,-80.6 929.84,-75.99"/>
<polygon fill="#528b8b" stroke="#528b8b" stroke-width="2" points="931.29,-79.18 939.23,-72.18 928.65,-72.69 931.29,-79.18"/>
</g>
<!-- src/core&#45;validators/addresses.ts&#45;&gt;src/types/doc&#45;types.ts -->
<g id="edge1" class="edge">
<title>src/core&#45;validators/addresses.ts&#45;&gt;src/types/doc&#45;types.ts</title>
<path fill="none" stroke="#528b8b" stroke-width="2" d="M878.16,-126.24C889.69,-135.35 902.24,-147.36 910,-161 975.73,-276.57 983.87,-441.05 984.33,-506.52"/>
<polygon fill="#528b8b" stroke="#528b8b" stroke-width="2" points="980.83,-506.87 984.34,-516.86 987.83,-506.86 980.83,-506.87"/>
</g>
<!-- src/core&#45;validators/checkers.ts -->
<g id="node4" class="node">
<title>src/core&#45;validators/checkers.ts</title>
<path fill="#79cdcd" stroke="#79cdcd" d="M880.5,-72C880.5,-72 819.5,-72 819.5,-72 813.5,-72 807.5,-66 807.5,-60 807.5,-60 807.5,-48 807.5,-48 807.5,-42 813.5,-36 819.5,-36 819.5,-36 880.5,-36 880.5,-36 886.5,-36 892.5,-42 892.5,-48 892.5,-48 892.5,-60 892.5,-60 892.5,-66 886.5,-72 880.5,-72"/>
<text text-anchor="middle" x="850" y="-50.3" font-family="Helvetica,sans-Serif" font-size="14.00">checkers.ts</text>
</g>
<!-- src/core&#45;validators/checkers.ts&#45;&gt;src/core&#45;validators/characters.ts -->
<g id="edge3" class="edge">
<title>src/core&#45;validators/checkers.ts&#45;&gt;src/core&#45;validators/characters.ts</title>
<path fill="none" stroke="#528b8b" stroke-width="2" d="M892.72,-54C903.79,-54 915.94,-54 927.66,-54"/>
<polygon fill="#528b8b" stroke="#528b8b" stroke-width="2" points="927.81,-57.5 937.81,-54 927.81,-50.5 927.81,-57.5"/>
</g>
<!-- src/crypto/base32.ts -->
<g id="node5" class="node">
<title>src/crypto/base32.ts</title>
<path fill="#79cdcd" stroke="#79cdcd" d="M875.5,-256C875.5,-256 824.5,-256 824.5,-256 818.5,-256 812.5,-250 812.5,-244 812.5,-244 812.5,-232 812.5,-232 812.5,-226 818.5,-220 824.5,-220 824.5,-220 875.5,-220 875.5,-220 881.5,-220 887.5,-226 887.5,-232 887.5,-232 887.5,-244 887.5,-244 887.5,-250 881.5,-256 875.5,-256"/>
<text text-anchor="middle" x="850" y="-234.3" font-family="Helvetica,sans-Serif" font-size="14.00">base32.ts</text>
</g>
<!-- src/crypto/base32.ts&#45;&gt;src/types/doc&#45;types.ts -->
<g id="edge4" class="edge">
<title>src/crypto/base32.ts&#45;&gt;src/types/doc&#45;types.ts</title>
<path fill="none" stroke="#528b8b" stroke-width="2" d="M882.2,-256.16C892.31,-263.38 902.77,-272.49 910,-283 958.76,-353.91 975.85,-457.22 981.46,-506.63"/>
<polygon fill="#528b8b" stroke="#528b8b" stroke-width="2" points="978.01,-507.3 982.54,-516.88 984.97,-506.56 978.01,-507.3"/>
</g>
<!-- src/crypto/crypto&#45;driver&#45;chloride.ts -->
<g id="node6" class="node">
<title>src/crypto/crypto&#45;driver&#45;chloride.ts</title>
<path fill="#79cdcd" stroke="#79cdcd" d="M750,-293C750,-293 616,-293 616,-293 610,-293 604,-287 604,-281 604,-281 604,-269 604,-269 604,-263 610,-257 616,-257 616,-257 750,-257 750,-257 756,-257 762,-263 762,-269 762,-269 762,-281 762,-281 762,-287 756,-293 750,-293"/>
<text text-anchor="middle" x="683" y="-271.3" font-family="Helvetica,sans-Serif" font-size="14.00">crypto&#45;driver&#45;chloride.ts</text>
</g>
<!-- src/crypto/crypto&#45;types.ts -->
<g id="node8" class="node">
<title>src/crypto/crypto&#45;types.ts</title>
<path fill="#79cdcd" stroke="#79cdcd" d="M890,-328C890,-328 810,-328 810,-328 804,-328 798,-322 798,-316 798,-316 798,-304 798,-304 798,-298 804,-292 810,-292 810,-292 890,-292 890,-292 896,-292 902,-298 902,-304 902,-304 902,-316 902,-316 902,-322 896,-328 890,-328"/>
<text text-anchor="middle" x="850" y="-306.3" font-family="Helvetica,sans-Serif" font-size="14.00">crypto&#45;types.ts</text>
</g>
<!-- src/crypto/crypto&#45;driver&#45;chloride.ts&#45;&gt;src/crypto/crypto&#45;types.ts -->
<g id="edge5" class="edge">
<title>src/crypto/crypto&#45;driver&#45;chloride.ts&#45;&gt;src/crypto/crypto&#45;types.ts</title>
<path fill="none" stroke="#528b8b" stroke-width="2" d="M762.15,-291.58C770.8,-293.41 779.51,-295.26 787.9,-297.04"/>
<polygon fill="#528b8b" stroke="#528b8b" stroke-width="2" points="787.44,-300.52 797.95,-299.17 788.9,-293.67 787.44,-300.52"/>
</g>
<!-- src/crypto/crypto&#45;driver&#45;node.ts -->
<g id="node7" class="node">
<title>src/crypto/crypto&#45;driver&#45;node.ts</title>
<path fill="#79cdcd" stroke="#79cdcd" d="M741,-347C741,-347 625,-347 625,-347 619,-347 613,-341 613,-335 613,-335 613,-323 613,-323 613,-317 619,-311 625,-311 625,-311 741,-311 741,-311 747,-311 753,-317 753,-323 753,-323 753,-335 753,-335 753,-341 747,-347 741,-347"/>
<text text-anchor="middle" x="683" y="-325.3" font-family="Helvetica,sans-Serif" font-size="14.00">crypto&#45;driver&#45;node.ts</text>
</g>
<!-- src/crypto/crypto&#45;driver&#45;node.ts&#45;&gt;src/crypto/crypto&#45;types.ts -->
<g id="edge6" class="edge">
<title>src/crypto/crypto&#45;driver&#45;node.ts&#45;&gt;src/crypto/crypto&#45;types.ts</title>
<path fill="none" stroke="#528b8b" stroke-width="2" d="M753.02,-321.05C764.51,-319.73 776.37,-318.36 787.65,-317.06"/>
<polygon fill="#528b8b" stroke="#528b8b" stroke-width="2" points="788.3,-320.51 797.83,-315.89 787.5,-313.56 788.3,-320.51"/>
</g>
<!-- src/crypto/crypto.ts -->
<g id="node9" class="node">
<title>src/crypto/crypto.ts</title>
<path fill="#79cdcd" stroke="#79cdcd" d="M509,-347C509,-347 465,-347 465,-347 459,-347 453,-341 453,-335 453,-335 453,-323 453,-323 453,-317 459,-311 465,-311 465,-311 509,-311 509,-311 515,-311 521,-317 521,-323 521,-323 521,-335 521,-335 521,-341 515,-347 509,-347"/>
<text text-anchor="middle" x="487" y="-325.3" font-family="Helvetica,sans-Serif" font-size="14.00">crypto.ts</text>
</g>
<!-- src/crypto/crypto.ts&#45;&gt;src/core&#45;validators/addresses.ts -->
<g id="edge13" class="edge">
<title>src/crypto/crypto.ts&#45;&gt;src/core&#45;validators/addresses.ts</title>
<path fill="none" stroke="#528b8b" stroke-width="2" d="M496.49,-310.81C512.64,-278.22 551,-209.93 604,-174 661.26,-135.19 740.46,-119.16 793.13,-112.56"/>
<polygon fill="#528b8b" stroke="#528b8b" stroke-width="2" points="793.78,-116.01 803.3,-111.37 792.96,-109.06 793.78,-116.01"/>
</g>
<!-- src/crypto/crypto.ts&#45;&gt;src/crypto/base32.ts -->
<g id="edge11" class="edge">
<title>src/crypto/crypto.ts&#45;&gt;src/crypto/base32.ts</title>
<path fill="none" stroke="#528b8b" stroke-width="2" d="M506.6,-310.84C528.06,-291.22 565.36,-261.03 604,-248 669.91,-225.78 751.48,-227.85 801.88,-232.25"/>
<polygon fill="#528b8b" stroke="#528b8b" stroke-width="2" points="801.86,-235.77 812.14,-233.22 802.51,-228.8 801.86,-235.77"/>
</g>
<!-- src/crypto/crypto.ts&#45;&gt;src/crypto/crypto&#45;driver&#45;chloride.ts -->
<g id="edge7" class="edge">
<title>src/crypto/crypto.ts&#45;&gt;src/crypto/crypto&#45;driver&#45;chloride.ts</title>
<path fill="none" stroke="#528b8b" stroke-width="2" d="M521.35,-319.72C544.9,-313.16 577.42,-304.11 607.05,-295.86"/>
<polygon fill="#528b8b" stroke="#528b8b" stroke-width="2" points="608.27,-299.16 616.96,-293.1 606.39,-292.41 608.27,-299.16"/>
</g>
<!-- src/crypto/crypto.ts&#45;&gt;src/crypto/crypto&#45;driver&#45;node.ts -->
<g id="edge8" class="edge">
<title>src/crypto/crypto.ts&#45;&gt;src/crypto/crypto&#45;driver&#45;node.ts</title>
<path fill="none" stroke="#528b8b" stroke-width="2" d="M521.35,-329C543.73,-329 574.22,-329 602.61,-329"/>
<polygon fill="#528b8b" stroke="#528b8b" stroke-width="2" points="602.96,-332.5 612.96,-329 602.96,-325.5 602.96,-332.5"/>
</g>
<!-- src/crypto/crypto.ts&#45;&gt;src/crypto/crypto&#45;types.ts -->
<g id="edge10" class="edge">
<title>src/crypto/crypto.ts&#45;&gt;src/crypto/crypto&#45;types.ts</title>
<path fill="none" stroke="#528b8b" stroke-width="2" d="M521.42,-339.47C573.57,-354.22 677.1,-377.06 762,-356 780.3,-351.46 798.99,-342.29 814.33,-333.32"/>
<polygon fill="#528b8b" stroke="#528b8b" stroke-width="2" points="816.21,-336.27 822.95,-328.1 812.58,-330.29 816.21,-336.27"/>
</g>
<!-- src/crypto/keypair.ts -->
<g id="node10" class="node">
<title>src/crypto/keypair.ts</title>
<path fill="#79cdcd" stroke="#79cdcd" d="M708,-219C708,-219 658,-219 658,-219 652,-219 646,-213 646,-207 646,-207 646,-195 646,-195 646,-189 652,-183 658,-183 658,-183 708,-183 708,-183 714,-183 720,-189 720,-195 720,-195 720,-207 720,-207 720,-213 714,-219 708,-219"/>
<text text-anchor="middle" x="683" y="-197.3" font-family="Helvetica,sans-Serif" font-size="14.00">keypair.ts</text>
</g>
<!-- src/crypto/crypto.ts&#45;&gt;src/crypto/keypair.ts -->
<g id="edge12" class="edge">
<title>src/crypto/crypto.ts&#45;&gt;src/crypto/keypair.ts</title>
<path fill="none" stroke="#528b8b" stroke-width="2" d="M506.35,-310.78C528.15,-289.88 566.34,-255.59 604,-233 614.1,-226.94 625.55,-221.53 636.51,-216.96"/>
<polygon fill="#528b8b" stroke="#528b8b" stroke-width="2" points="637.99,-220.14 645.97,-213.17 635.38,-213.64 637.99,-220.14"/>
</g>
<!-- src/crypto/crypto.ts&#45;&gt;src/types/doc&#45;types.ts -->
<g id="edge9" class="edge">
<title>src/crypto/crypto.ts&#45;&gt;src/types/doc&#45;types.ts</title>
<path fill="none" stroke="#528b8b" stroke-width="2" d="M521.26,-338.95C593.82,-361.22 770.96,-418.58 910,-488 923.48,-494.73 937.59,-503.28 949.84,-511.24"/>
<polygon fill="#528b8b" stroke="#528b8b" stroke-width="2" points="948.12,-514.3 958.39,-516.9 951.98,-508.46 948.12,-514.3"/>
</g>
<!-- src/crypto/keypair.ts&#45;&gt;src/core&#45;validators/addresses.ts -->
<g id="edge17" class="edge">
<title>src/crypto/keypair.ts&#45;&gt;src/core&#45;validators/addresses.ts</title>
<path fill="none" stroke="#528b8b" stroke-width="2" d="M716.21,-182.85C742.44,-168.06 779.65,-147.09 808,-131.11"/>
<polygon fill="#528b8b" stroke="#528b8b" stroke-width="2" points="809.88,-134.07 816.88,-126.11 806.45,-127.97 809.88,-134.07"/>
</g>
<!-- src/crypto/keypair.ts&#45;&gt;src/crypto/base32.ts -->
<g id="edge15" class="edge">
<title>src/crypto/keypair.ts&#45;&gt;src/crypto/base32.ts</title>
<path fill="none" stroke="#528b8b" stroke-width="2" d="M720.21,-209.12C744.33,-214.53 776.25,-221.69 802.28,-227.52"/>
<polygon fill="#528b8b" stroke="#528b8b" stroke-width="2" points="801.78,-231 812.3,-229.77 803.31,-224.17 801.78,-231"/>
</g>
<!-- src/crypto/keypair.ts&#45;&gt;src/crypto/crypto&#45;types.ts -->
<g id="edge16" class="edge">
<title>src/crypto/keypair.ts&#45;&gt;src/crypto/crypto&#45;types.ts</title>
<path fill="none" stroke="#528b8b" stroke-width="2" d="M715.46,-219.21C729.82,-227.71 746.93,-238.11 762,-248 780.35,-260.04 800.34,-274.21 816.51,-285.95"/>
<polygon fill="#528b8b" stroke="#528b8b" stroke-width="2" points="814.46,-288.78 824.6,-291.85 818.58,-283.13 814.46,-288.78"/>
</g>
<!-- src/crypto/keypair.ts&#45;&gt;src/types/doc&#45;types.ts -->
<g id="edge14" class="edge">
<title>src/crypto/keypair.ts&#45;&gt;src/types/doc&#45;types.ts</title>
<path fill="none" stroke="#528b8b" stroke-width="2" d="M720.03,-190.55C769.02,-178.74 856.62,-166.47 910,-211 955.51,-248.97 975.64,-434.68 981.81,-506.53"/>
<polygon fill="#528b8b" stroke="#528b8b" stroke-width="2" points="978.33,-506.99 982.65,-516.67 985.31,-506.41 978.33,-506.99"/>
</g>
<!-- src/format&#45;validators/format&#45;validator&#45;es4.ts&#45;&gt;src/core&#45;validators/characters.ts -->
<g id="edge25" class="edge">
<title>src/format&#45;validators/format&#45;validator&#45;es4.ts&#45;&gt;src/core&#45;validators/characters.ts</title>
<path fill="none" stroke="#528b8b" stroke-width="2" d="M267.99,-413.98C272.31,-354.78 294.63,-165.06 406,-77 542.91,31.25 621.25,-36.98 795.5,-27 846.31,-24.09 859.89,-18.14 910,-27 917.49,-28.32 925.22,-30.35 932.73,-32.7"/>
<polygon fill="#528b8b" stroke="#528b8b" stroke-width="2" points="931.85,-36.1 942.44,-35.96 934.07,-29.46 931.85,-36.1"/>
</g>
<!-- src/format&#45;validators/format&#45;validator&#45;es4.ts&#45;&gt;src/core&#45;validators/checkers.ts -->
<g id="edge26" class="edge">
<title>src/format&#45;validators/format&#45;validator&#45;es4.ts&#45;&gt;src/core&#45;validators/checkers.ts</title>
<path fill="none" stroke="#528b8b" stroke-width="2" d="M270.74,-413.66C281.81,-364.2 319.24,-227.21 406,-159 523.15,-66.9 708.02,-53.5 797.32,-52.84"/>
<polygon fill="#528b8b" stroke="#528b8b" stroke-width="2" points="797.48,-56.34 807.47,-52.82 797.46,-49.34 797.48,-56.34"/>
</g>
<!-- src/format&#45;validators/format&#45;validator&#45;es4.ts&#45;&gt;src/crypto/crypto.ts -->
<g id="edge27" class="edge">
<title>src/format&#45;validators/format&#45;validator&#45;es4.ts&#45;&gt;src/crypto/crypto.ts</title>
<path fill="none" stroke="#528b8b" stroke-width="2" d="M305.4,-413.94C344.01,-395.78 403.41,-367.85 443.44,-349.02"/>
<polygon fill="#528b8b" stroke="#528b8b" stroke-width="2" points="445.11,-352.1 452.67,-344.68 442.13,-345.76 445.11,-352.1"/>
</g>
<!-- src/format&#45;validators/format&#45;validator&#45;types.ts -->
<g id="node12" class="node">
<title>src/format&#45;validators/format&#45;validator&#45;types.ts</title>
<path fill="#79cdcd" stroke="#79cdcd" d="M556,-450C556,-450 418,-450 418,-450 412,-450 406,-444 406,-438 406,-438 406,-426 406,-426 406,-420 412,-414 418,-414 418,-414 556,-414 556,-414 562,-414 568,-420 568,-426 568,-426 568,-438 568,-438 568,-444 562,-450 556,-450"/>
<text text-anchor="middle" x="487" y="-428.3" font-family="Helvetica,sans-Serif" font-size="14.00">format&#45;validator&#45;types.ts</text>
</g>
<!-- src/format&#45;validators/format&#45;validator&#45;es4.ts&#45;&gt;src/format&#45;validators/format&#45;validator&#45;types.ts -->
<g id="edge24" class="edge">
<title>src/format&#45;validators/format&#45;validator&#45;es4.ts&#45;&gt;src/format&#45;validators/format&#45;validator&#45;types.ts</title>
<path fill="none" stroke="#528b8b" stroke-width="2" d="M342.06,-432C359.24,-432 377.68,-432 395.44,-432"/>
<polygon fill="#528b8b" stroke="#528b8b" stroke-width="2" points="395.8,-435.5 405.8,-432 395.8,-428.5 395.8,-435.5"/>
</g>
<!-- src/format&#45;validators/format&#45;validator&#45;es4.ts&#45;&gt;src/types/doc&#45;types.ts -->
<g id="edge23" class="edge">
<title>src/format&#45;validators/format&#45;validator&#45;es4.ts&#45;&gt;src/types/doc&#45;types.ts</title>
<path fill="none" stroke="#528b8b" stroke-width="2" d="M270.17,-413.71C279.91,-363.91 314.45,-225.97 406,-171 418,-163.79 899.16,-162.14 910,-171 962.1,-213.58 978.43,-428.62 982.69,-506.66"/>
<polygon fill="#528b8b" stroke="#528b8b" stroke-width="2" points="979.2,-506.92 983.21,-516.73 986.19,-506.56 979.2,-506.92"/>
</g>
<!-- src/format&#45;validators/format&#45;validator&#45;types.ts&#45;&gt;src/types/doc&#45;types.ts -->
<g id="edge28" class="edge">
<title>src/format&#45;validators/format&#45;validator&#45;types.ts&#45;&gt;src/types/doc&#45;types.ts</title>
<path fill="none" stroke="#528b8b" stroke-width="2" d="M568.05,-446.34C653.18,-461.95 791.59,-488.41 910,-516 916.6,-517.54 923.51,-519.22 930.34,-520.92"/>
<polygon fill="#528b8b" stroke="#528b8b" stroke-width="2" points="929.7,-524.37 940.25,-523.42 931.41,-517.58 929.7,-524.37"/>
</g>
<!-- src/storage/compare.ts -->
<g id="node13" class="node">
<title>src/storage/compare.ts</title>
<path fill="#79cdcd" stroke="#79cdcd" d="M517,-553C517,-553 457,-553 457,-553 451,-553 445,-547 445,-541 445,-541 445,-529 445,-529 445,-523 451,-517 457,-517 457,-517 517,-517 517,-517 523,-517 529,-523 529,-529 529,-529 529,-541 529,-541 529,-547 523,-553 517,-553"/>
<text text-anchor="middle" x="487" y="-531.3" font-family="Helvetica,sans-Serif" font-size="14.00">compare.ts</text>
</g>
<!-- src/storage/util&#45;types.ts -->
<g id="node21" class="node">
<title>src/storage/util&#45;types.ts</title>
<path fill="#79cdcd" stroke="#79cdcd" d="M713.5,-590C713.5,-590 652.5,-590 652.5,-590 646.5,-590 640.5,-584 640.5,-578 640.5,-578 640.5,-566 640.5,-566 640.5,-560 646.5,-554 652.5,-554 652.5,-554 713.5,-554 713.5,-554 719.5,-554 725.5,-560 725.5,-566 725.5,-566 725.5,-578 725.5,-578 725.5,-584 719.5,-590 713.5,-590"/>
<text text-anchor="middle" x="683" y="-568.3" font-family="Helvetica,sans-Serif" font-size="14.00">util&#45;types.ts</text>
</g>
<!-- src/storage/compare.ts&#45;&gt;src/storage/util&#45;types.ts -->
<g id="edge29" class="edge">
<title>src/storage/compare.ts&#45;&gt;src/storage/util&#45;types.ts</title>
<path fill="none" stroke="#528b8b" stroke-width="2" d="M529.14,-542.85C558.65,-548.47 598.62,-556.1 630.28,-562.14"/>
<polygon fill="#528b8b" stroke="#528b8b" stroke-width="2" points="629.77,-565.6 640.25,-564.04 631.08,-558.73 629.77,-565.6"/>
</g>
<!-- src/storage/query&#45;types.ts -->
<g id="node16" class="node">
<title>src/storage/query&#45;types.ts</title>
<path fill="#79cdcd" stroke="#79cdcd" d="M721.5,-717C721.5,-717 644.5,-717 644.5,-717 638.5,-717 632.5,-711 632.5,-705 632.5,-705 632.5,-693 632.5,-693 632.5,-687 638.5,-681 644.5,-681 644.5,-681 721.5,-681 721.5,-681 727.5,-681 733.5,-687 733.5,-693 733.5,-693 733.5,-705 733.5,-705 733.5,-711 727.5,-717 721.5,-717"/>
<text text-anchor="middle" x="683" y="-695.3" font-family="Helvetica,sans-Serif" font-size="14.00">query&#45;types.ts</text>
</g>
<!-- src/storage/follower.ts&#45;&gt;src/storage/query&#45;types.ts -->
<g id="edge32" class="edge">
<title>src/storage/follower.ts&#45;&gt;src/storage/query&#45;types.ts</title>
<path fill="none" stroke="#528b8b" stroke-width="2" d="M304.72,-704.45C332.65,-706.82 371.67,-709.77 406,-711 481.51,-713.71 500.56,-715.26 576,-711 591.02,-710.15 607.19,-708.63 622.26,-706.96"/>
<polygon fill="#528b8b" stroke="#528b8b" stroke-width="2" points="622.95,-710.4 632.49,-705.78 622.15,-703.45 622.95,-710.4"/>
</g>
<!-- src/storage/storage&#45;types.ts -->
<g id="node20" class="node">
<title>src/storage/storage&#45;types.ts</title>
<path fill="#79cdcd" stroke="#79cdcd" d="M531.5,-627C531.5,-627 442.5,-627 442.5,-627 436.5,-627 430.5,-621 430.5,-615 430.5,-615 430.5,-603 430.5,-603 430.5,-597 436.5,-591 442.5,-591 442.5,-591 531.5,-591 531.5,-591 537.5,-591 543.5,-597 543.5,-603 543.5,-603 543.5,-615 543.5,-615 543.5,-621 537.5,-627 531.5,-627"/>
<text text-anchor="middle" x="487" y="-605.3" font-family="Helvetica,sans-Serif" font-size="14.00">storage&#45;types.ts</text>
</g>
<!-- src/storage/follower.ts&#45;&gt;src/storage/storage&#45;types.ts -->
<g id="edge33" class="edge">
<title>src/storage/follower.ts&#45;&gt;src/storage/storage&#45;types.ts</title>
<path fill="none" stroke="#528b8b" stroke-width="2" d="M304.93,-693.49C324.71,-688.97 349.09,-682.44 370,-674 397.85,-662.76 427.34,-646.16 449.62,-632.55"/>
<polygon fill="#528b8b" stroke="#528b8b" stroke-width="2" points="451.74,-635.36 458.4,-627.12 448.06,-629.41 451.74,-635.36"/>
</g>
<!-- src/storage/follower.ts&#45;&gt;src/storage/util&#45;types.ts -->
<g id="edge30" class="edge">
<title>src/storage/follower.ts&#45;&gt;src/storage/util&#45;types.ts</title>
<path fill="none" stroke="#528b8b" stroke-width="2" d="M304.62,-699.09C364.83,-694.74 485.28,-680.72 576,-636 590.7,-628.75 590.39,-621.14 604,-612 613.19,-605.83 623.45,-599.94 633.44,-594.66"/>
<polygon fill="#528b8b" stroke="#528b8b" stroke-width="2" points="635.21,-597.69 642.49,-590 632,-591.47 635.21,-597.69"/>
</g>
<!-- src/storage/follower.ts&#45;&gt;src/types/doc&#45;types.ts -->
<g id="edge31" class="edge">
<title>src/storage/follower.ts&#45;&gt;src/types/doc&#45;types.ts</title>
<path fill="none" stroke="#528b8b" stroke-width="2" d="M304.72,-700.48C326.14,-702.11 352.16,-707.57 370,-723 404.79,-753.08 368.25,-793.74 406,-820 471.03,-865.23 684.75,-819.53 762,-802 830.28,-786.5 860.87,-797.89 910,-748 960.75,-696.46 976.79,-608.36 981.79,-563.33"/>
<polygon fill="#528b8b" stroke="#528b8b" stroke-width="2" points="985.3,-563.41 982.81,-553.11 978.33,-562.71 985.3,-563.41"/>
</g>
<!-- src/storage/lock.ts -->
<g id="node15" class="node">
<title>src/storage/lock.ts</title>
<path fill="#79cdcd" stroke="#79cdcd" d="M698.5,-657C698.5,-657 667.5,-657 667.5,-657 661.5,-657 655.5,-651 655.5,-645 655.5,-645 655.5,-633 655.5,-633 655.5,-627 661.5,-621 667.5,-621 667.5,-621 698.5,-621 698.5,-621 704.5,-621 710.5,-627 710.5,-633 710.5,-633 710.5,-645 710.5,-645 710.5,-651 704.5,-657 698.5,-657"/>
<text text-anchor="middle" x="683" y="-635.3" font-family="Helvetica,sans-Serif" font-size="14.00">lock.ts</text>
</g>
<!-- src/storage/query&#45;types.ts&#45;&gt;src/types/doc&#45;types.ts -->
<g id="edge34" class="edge">
<title>src/storage/query&#45;types.ts&#45;&gt;src/types/doc&#45;types.ts</title>
<path fill="none" stroke="#528b8b" stroke-width="2" d="M729.42,-680.98C740.23,-676.37 751.63,-671.23 762,-666 829.3,-632.09 904.12,-586.11 947.45,-558.61"/>
<polygon fill="#528b8b" stroke="#528b8b" stroke-width="2" points="949.39,-561.52 955.94,-553.2 945.63,-555.62 949.39,-561.52"/>
</g>
<!-- src/storage/query.ts -->
<g id="node17" class="node">
<title>src/storage/query.ts</title>
<path fill="#79cdcd" stroke="#79cdcd" d="M507,-781C507,-781 467,-781 467,-781 461,-781 455,-775 455,-769 455,-769 455,-757 455,-757 455,-751 461,-745 467,-745 467,-745 507,-745 507,-745 513,-745 519,-751 519,-757 519,-757 519,-769 519,-769 519,-775 513,-781 507,-781"/>
<text text-anchor="middle" x="487" y="-759.3" font-family="Helvetica,sans-Serif" font-size="14.00">query.ts</text>
</g>
<!-- src/storage/query.ts&#45;&gt;src/storage/query&#45;types.ts -->
<g id="edge36" class="edge">
<title>src/storage/query.ts&#45;&gt;src/storage/query&#45;types.ts</title>
<path fill="none" stroke="#528b8b" stroke-width="2" d="M519.17,-752.72C546.95,-743.55 588.38,-729.89 622.49,-718.63"/>
<polygon fill="#528b8b" stroke="#528b8b" stroke-width="2" points="623.96,-721.83 632.36,-715.38 621.77,-715.18 623.96,-721.83"/>
</g>
<!-- src/storage/query.ts&#45;&gt;src/types/doc&#45;types.ts -->
<g id="edge35" class="edge">
<title>src/storage/query.ts&#45;&gt;src/types/doc&#45;types.ts</title>
<path fill="none" stroke="#528b8b" stroke-width="2" d="M519.22,-763.6C571.4,-763.57 678.79,-759.03 762,-726 850.79,-690.75 928.83,-604.36 964.07,-560.88"/>
<polygon fill="#528b8b" stroke="#528b8b" stroke-width="2" points="966.84,-563.03 970.35,-553.03 961.37,-558.66 966.84,-563.03"/>
</g>
<!-- src/storage/storage&#45;async.ts&#45;&gt;src/crypto/crypto.ts -->
<g id="edge43" class="edge">
<title>src/storage/storage&#45;async.ts&#45;&gt;src/crypto/crypto.ts</title>
<path fill="none" stroke="#528b8b" stroke-width="2" d="M298.37,-545.96C320.77,-531.77 350.31,-510.22 370,-485 394.74,-453.31 382.63,-434.72 406,-402 419.03,-383.76 437.27,-366.68 453.05,-353.63"/>
<polygon fill="#528b8b" stroke="#528b8b" stroke-width="2" points="455.45,-356.19 461.03,-347.19 451.05,-350.74 455.45,-356.19"/>
</g>
<!-- src/storage/storage&#45;async.ts&#45;&gt;src/format&#45;validators/format&#45;validator&#45;types.ts -->
<g id="edge41" class="edge">
<title>src/storage/storage&#45;async.ts&#45;&gt;src/format&#45;validators/format&#45;validator&#45;types.ts</title>
<path fill="none" stroke="#528b8b" stroke-width="2" d="M296.99,-545.92C336.04,-522.39 404.34,-481.22 447.26,-455.35"/>
<polygon fill="#528b8b" stroke="#528b8b" stroke-width="2" points="449.26,-458.23 456.02,-450.07 445.65,-452.23 449.26,-458.23"/>
</g>
<!-- src/storage/storage&#45;async.ts&#45;&gt;src/storage/compare.ts -->
<g id="edge42" class="edge">
<title>src/storage/storage&#45;async.ts&#45;&gt;src/storage/compare.ts</title>
<path fill="none" stroke="#528b8b" stroke-width="2" d="M324.25,-556.42C358.59,-551.87 401.89,-546.14 435.04,-541.75"/>
<polygon fill="#528b8b" stroke="#528b8b" stroke-width="2" points="435.53,-545.21 444.99,-540.43 434.61,-538.27 435.53,-545.21"/>
</g>
<!-- src/storage/storage&#45;async.ts&#45;&gt;src/storage/query&#45;types.ts -->
<g id="edge39" class="edge">
<title>src/storage/storage&#45;async.ts&#45;&gt;src/storage/query&#45;types.ts</title>
<path fill="none" stroke="#528b8b" stroke-width="2" d="M300.46,-582.07C338,-602.23 395.07,-632.48 406,-636 478.68,-659.44 501.91,-642.47 576,-661 593.28,-665.32 611.69,-671.38 628.23,-677.39"/>
<polygon fill="#528b8b" stroke="#528b8b" stroke-width="2" points="627.14,-680.72 637.73,-680.92 629.57,-674.16 627.14,-680.72"/>
</g>
<!-- src/storage/storage&#45;async.ts&#45;&gt;src/storage/storage&#45;types.ts -->
<g id="edge40" class="edge">
<title>src/storage/storage&#45;async.ts&#45;&gt;src/storage/storage&#45;types.ts</title>
<path fill="none" stroke="#528b8b" stroke-width="2" d="M324.25,-575.76C353.63,-581.8 389.56,-589.18 420.09,-595.46"/>
<polygon fill="#528b8b" stroke="#528b8b" stroke-width="2" points="419.72,-598.95 430.22,-597.54 421.12,-592.1 419.72,-598.95"/>
</g>
<!-- src/storage/storage&#45;async.ts&#45;&gt;src/storage/util&#45;types.ts -->
<g id="edge37" class="edge">
<title>src/storage/storage&#45;async.ts&#45;&gt;src/storage/util&#45;types.ts</title>
<path fill="none" stroke="#528b8b" stroke-width="2" d="M301.28,-545.87C328.74,-532.43 368.71,-515.23 406,-508 480.17,-493.62 503.21,-487.73 576,-508 603.91,-515.77 631.8,-533.09 651.97,-547.76"/>
<polygon fill="#528b8b" stroke="#528b8b" stroke-width="2" points="650.01,-550.66 660.12,-553.85 654.2,-545.06 650.01,-550.66"/>
</g>
<!-- src/storage/storage&#45;async.ts&#45;&gt;src/types/doc&#45;types.ts -->
<g id="edge38" class="edge">
<title>src/storage/storage&#45;async.ts&#45;&gt;src/types/doc&#45;types.ts</title>
<path fill="none" stroke="#528b8b" stroke-width="2" d="M319.97,-582.09C338.35,-590.85 357.47,-603.19 370,-620 416.17,-681.91 346,-741.37 406,-790 464.7,-837.57 500.93,-798.56 576,-790 732.57,-772.14 797.25,-781.09 910,-671 941.79,-639.96 963.38,-592.29 974.69,-562.42"/>
<polygon fill="#528b8b" stroke="#528b8b" stroke-width="2" points="977.98,-563.62 978.13,-553.02 971.41,-561.21 977.98,-563.62"/>
</g>
<!-- src/storage/storage&#45;driver&#45;async&#45;memory.ts&#45;&gt;src/storage/compare.ts -->
<g id="edge48" class="edge">
<title>src/storage/storage&#45;driver&#45;async&#45;memory.ts&#45;&gt;src/storage/compare.ts</title>
<path fill="none" stroke="#528b8b" stroke-width="2" d="M302.24,-628.85C322.35,-618.24 347.87,-604.36 370,-591 386.46,-581.06 388.98,-575.95 406,-567 415.33,-562.09 425.59,-557.46 435.55,-553.33"/>
<polygon fill="#528b8b" stroke="#528b8b" stroke-width="2" points="437.01,-556.51 444.98,-549.52 434.39,-550.02 437.01,-556.51"/>
</g>
<!-- src/storage/storage&#45;driver&#45;async&#45;memory.ts&#45;&gt;src/storage/lock.ts -->
<g id="edge50" class="edge">
<title>src/storage/storage&#45;driver&#45;async&#45;memory.ts&#45;&gt;src/storage/lock.ts</title>
<path fill="none" stroke="#528b8b" stroke-width="2" d="M370.12,-645.01C459.57,-643.29 584.01,-640.89 645.14,-639.71"/>
<polygon fill="#528b8b" stroke="#528b8b" stroke-width="2" points="645.51,-643.2 655.44,-639.51 645.37,-636.21 645.51,-643.2"/>
</g>
<!-- src/storage/storage&#45;driver&#45;async&#45;memory.ts&#45;&gt;src/storage/query&#45;types.ts -->
<g id="edge46" class="edge">
<title>src/storage/storage&#45;driver&#45;async&#45;memory.ts&#45;&gt;src/storage/query&#45;types.ts</title>
<path fill="none" stroke="#528b8b" stroke-width="2" d="M370.12,-659.92C449.53,-669.87 556.52,-683.28 622.3,-691.52"/>
<polygon fill="#528b8b" stroke="#528b8b" stroke-width="2" points="622.14,-695.03 632.49,-692.8 623.01,-688.08 622.14,-695.03"/>
</g>
<!-- src/storage/storage&#45;driver&#45;async&#45;memory.ts&#45;&gt;src/storage/query.ts -->
<g id="edge49" class="edge">
<title>src/storage/storage&#45;driver&#45;async&#45;memory.ts&#45;&gt;src/storage/query.ts</title>
<path fill="none" stroke="#528b8b" stroke-width="2" d="M351.46,-665.02C357.91,-667.62 364.17,-670.6 370,-674 389.82,-685.55 388.27,-696.44 406,-711 418.49,-721.26 433.09,-731.26 446.37,-739.7"/>
<polygon fill="#528b8b" stroke="#528b8b" stroke-width="2" points="444.54,-742.68 454.87,-745.01 448.25,-736.75 444.54,-742.68"/>
</g>
<!-- src/storage/storage&#45;driver&#45;async&#45;memory.ts&#45;&gt;src/storage/storage&#45;types.ts -->
<g id="edge47" class="edge">
<title>src/storage/storage&#45;driver&#45;async&#45;memory.ts&#45;&gt;src/storage/storage&#45;types.ts</title>
<path fill="none" stroke="#528b8b" stroke-width="2" d="M370.09,-629.11C387.11,-626.16 404.33,-623.17 420.11,-620.43"/>
<polygon fill="#528b8b" stroke="#528b8b" stroke-width="2" points="421,-623.83 430.26,-618.67 419.81,-616.93 421,-623.83"/>
</g>
<!-- src/storage/storage&#45;driver&#45;async&#45;memory.ts&#45;&gt;src/storage/util&#45;types.ts -->
<g id="edge44" class="edge">
<title>src/storage/storage&#45;driver&#45;async&#45;memory.ts&#45;&gt;src/storage/util&#45;types.ts</title>
<path fill="none" stroke="#528b8b" stroke-width="2" d="M296.62,-628.85C323.92,-613.19 366.12,-591.62 406,-582 482.35,-563.57 573.99,-564.63 630.1,-567.79"/>
<polygon fill="#528b8b" stroke="#528b8b" stroke-width="2" points="629.96,-571.28 640.15,-568.4 630.38,-564.3 629.96,-571.28"/>
</g>
<!-- src/storage/storage&#45;driver&#45;async&#45;memory.ts&#45;&gt;src/types/doc&#45;types.ts -->
<g id="edge45" class="edge">
<title>src/storage/storage&#45;driver&#45;async&#45;memory.ts&#45;&gt;src/types/doc&#45;types.ts</title>
<path fill="none" stroke="#528b8b" stroke-width="2" d="M358.76,-665.03C362.8,-667.64 366.58,-670.62 370,-674 413.21,-716.79 357.67,-769.09 406,-806 469.04,-854.15 685.63,-801.43 762,-780 831,-760.64 859.84,-767.18 910,-716 952.25,-672.9 971.51,-602.37 979.33,-563.29"/>
<polygon fill="#528b8b" stroke="#528b8b" stroke-width="2" points="982.83,-563.63 981.24,-553.15 975.95,-562.33 982.83,-563.63"/>
</g>
<!-- src/storage/storage&#45;types.ts&#45;&gt;src/storage/lock.ts -->
<g id="edge53" class="edge">
<title>src/storage/storage&#45;types.ts&#45;&gt;src/storage/lock.ts</title>
<path fill="none" stroke="#528b8b" stroke-width="2" d="M543.59,-617.6C576.3,-622.65 616.74,-628.91 645.44,-633.35"/>
<polygon fill="#528b8b" stroke="#528b8b" stroke-width="2" points="645.03,-636.83 655.45,-634.89 646.1,-629.91 645.03,-636.83"/>
</g>
<!-- src/storage/storage&#45;types.ts&#45;&gt;src/storage/query&#45;types.ts -->
<g id="edge52" class="edge">
<title>src/storage/storage&#45;types.ts&#45;&gt;src/storage/query&#45;types.ts</title>
<path fill="none" stroke="#528b8b" stroke-width="2" d="M543.93,-625.7C554.91,-629.98 566.09,-635.08 576,-641 590.32,-649.56 589.91,-657.07 604,-666 610.06,-669.84 616.65,-673.42 623.34,-676.69"/>
<polygon fill="#528b8b" stroke="#528b8b" stroke-width="2" points="621.95,-679.9 632.49,-680.96 624.91,-673.56 621.95,-679.9"/>
</g>
<!-- src/storage/storage&#45;types.ts&#45;&gt;src/types/doc&#45;types.ts -->
<g id="edge51" class="edge">
<title>src/storage/storage&#45;types.ts&#45;&gt;src/types/doc&#45;types.ts</title>
<path fill="none" stroke="#528b8b" stroke-width="2" d="M522.93,-590.91C539.18,-582.35 558.7,-571.86 576,-562 588.65,-554.79 590.03,-549.11 604,-545 716.32,-511.97 855.46,-519.92 930.3,-527.91"/>
<polygon fill="#528b8b" stroke="#528b8b" stroke-width="2" points="930.1,-531.41 940.43,-529.03 930.87,-524.45 930.1,-531.41"/>
</g>
</g>
</svg>
