<?xml version="1.0" encoding="UTF-8" standalone="no"?>
<!DOCTYPE svg PUBLIC "-//W3C//DTD SVG 1.1//EN"
 "http://www.w3.org/Graphics/SVG/1.1/DTD/svg11.dtd">
<!-- Generated by graphviz version 2.44.1 (20200629.0846)
 -->
<!-- Title: G Pages: 1 -->
<svg width="1265pt" height="908pt"
 viewBox="0.00 0.00 1265.00 907.54" xmlns="http://www.w3.org/2000/svg" xmlns:xlink="http://www.w3.org/1999/xlink">
<g id="graph0" class="graph" transform="scale(1 1) rotate(0) translate(4 903.54)">
<title>G</title>
<polygon fill="white" stroke="transparent" points="-4,4 -4,-903.54 1261,-903.54 1261,4 -4,4"/>
<!-- src/example&#45;app.ts -->
<g id="node1" class="node">
<title>src/example&#45;app.ts</title>
<path fill="#79cdcd" stroke="#79cdcd" d="M119,-409.54C119,-409.54 12,-409.54 12,-409.54 6,-409.54 0,-403.54 0,-397.54 0,-397.54 0,-385.54 0,-385.54 0,-379.54 6,-373.54 12,-373.54 12,-373.54 119,-373.54 119,-373.54 125,-373.54 131,-379.54 131,-385.54 131,-385.54 131,-397.54 131,-397.54 131,-403.54 125,-409.54 119,-409.54"/>
<text text-anchor="middle" x="65.5" y="-387.84" font-family="Helvetica,sans-Serif" font-size="14.00">src/example&#45;app.ts</text>
</g>
<!-- src/crypto/crypto&#45;driver&#45;tweetnacl.ts -->
<g id="node8" class="node">
<title>src/crypto/crypto&#45;driver&#45;tweetnacl.ts</title>
<path fill="#79cdcd" stroke="#79cdcd" d="M409,-429.54C409,-429.54 203,-429.54 203,-429.54 197,-429.54 191,-423.54 191,-417.54 191,-417.54 191,-405.54 191,-405.54 191,-399.54 197,-393.54 203,-393.54 203,-393.54 409,-393.54 409,-393.54 415,-393.54 421,-399.54 421,-405.54 421,-405.54 421,-417.54 421,-417.54 421,-423.54 415,-429.54 409,-429.54"/>
<text text-anchor="middle" x="306" y="-407.84" font-family="Helvetica,sans-Serif" font-size="14.00">src/crypto/crypto&#45;driver&#45;tweetnacl.ts</text>
</g>
<!-- src/example&#45;app.ts&#45;&gt;src/crypto/crypto&#45;driver&#45;tweetnacl.ts -->
<g id="edge18" class="edge">
<title>src/example&#45;app.ts&#45;&gt;src/crypto/crypto&#45;driver&#45;tweetnacl.ts</title>
<path fill="none" stroke="#528b8b" stroke-width="2" d="M131.04,-396.96C146.49,-398.25 163.51,-399.68 180.67,-401.12"/>
<polygon fill="#528b8b" stroke="#528b8b" stroke-width="2" points="180.52,-404.62 190.78,-401.96 181.11,-397.64 180.52,-404.62"/>
</g>
<!-- src/crypto/crypto.ts -->
<g id="node10" class="node">
<title>src/crypto/crypto.ts</title>
<path fill="#79cdcd" stroke="#79cdcd" d="M359,-834.54C359,-834.54 253,-834.54 253,-834.54 247,-834.54 241,-828.54 241,-822.54 241,-822.54 241,-810.54 241,-810.54 241,-804.54 247,-798.54 253,-798.54 253,-798.54 359,-798.54 359,-798.54 365,-798.54 371,-804.54 371,-810.54 371,-810.54 371,-822.54 371,-822.54 371,-828.54 365,-834.54 359,-834.54"/>
<text text-anchor="middle" x="306" y="-812.84" font-family="Helvetica,sans-Serif" font-size="14.00">src/crypto/crypto.ts</text>
</g>
<!-- src/example&#45;app.ts&#45;&gt;src/crypto/crypto.ts -->
<g id="edge17" class="edge">
<title>src/example&#45;app.ts&#45;&gt;src/crypto/crypto.ts</title>
<path fill="none" stroke="#528b8b" stroke-width="2" d="M72.02,-409.6C85.17,-451.36 120.74,-557.18 167,-637.54 200.89,-696.42 252.05,-757.52 281.63,-790.92"/>
<polygon fill="#528b8b" stroke="#528b8b" stroke-width="2" points="279.04,-793.27 288.31,-798.4 284.26,-788.61 279.04,-793.27"/>
</g>
<!-- src/format&#45;validators/format&#45;validator&#45;es4.ts -->
<g id="node12" class="node">
<title>src/format&#45;validators/format&#45;validator&#45;es4.ts</title>
<path fill="#79cdcd" stroke="#79cdcd" d="M433,-628.54C433,-628.54 179,-628.54 179,-628.54 173,-628.54 167,-622.54 167,-616.54 167,-616.54 167,-604.54 167,-604.54 167,-598.54 173,-592.54 179,-592.54 179,-592.54 433,-592.54 433,-592.54 439,-592.54 445,-598.54 445,-604.54 445,-604.54 445,-616.54 445,-616.54 445,-622.54 439,-628.54 433,-628.54"/>
<text text-anchor="middle" x="306" y="-606.84" font-family="Helvetica,sans-Serif" font-size="14.00">src/format&#45;validators/format&#45;validator&#45;es4.ts</text>
</g>
<!-- src/example&#45;app.ts&#45;&gt;src/format&#45;validators/format&#45;validator&#45;es4.ts -->
<g id="edge13" class="edge">
<title>src/example&#45;app.ts&#45;&gt;src/format&#45;validators/format&#45;validator&#45;es4.ts</title>
<path fill="none" stroke="#528b8b" stroke-width="2" d="M86.42,-409.84C129.06,-448.99 229.18,-540.92 277.7,-585.47"/>
<polygon fill="#528b8b" stroke="#528b8b" stroke-width="2" points="275.57,-588.27 285.3,-592.45 280.3,-583.11 275.57,-588.27"/>
</g>
<!-- src/storage/follower.ts -->
<g id="node15" class="node">
<title>src/storage/follower.ts</title>
<path fill="#79cdcd" stroke="#79cdcd" d="M368,-249.54C368,-249.54 244,-249.54 244,-249.54 238,-249.54 232,-243.54 232,-237.54 232,-237.54 232,-225.54 232,-225.54 232,-219.54 238,-213.54 244,-213.54 244,-213.54 368,-213.54 368,-213.54 374,-213.54 380,-219.54 380,-225.54 380,-225.54 380,-237.54 380,-237.54 380,-243.54 374,-249.54 368,-249.54"/>
<text text-anchor="middle" x="306" y="-227.84" font-family="Helvetica,sans-Serif" font-size="14.00">src/storage/follower.ts</text>
</g>
<!-- src/example&#45;app.ts&#45;&gt;src/storage/follower.ts -->
<g id="edge16" class="edge">
<title>src/example&#45;app.ts&#45;&gt;src/storage/follower.ts</title>
<path fill="none" stroke="#528b8b" stroke-width="2" d="M92.44,-373.54C112.68,-359.54 141.54,-339.68 167,-322.54 201.27,-299.48 240.62,-273.59 268.51,-255.34"/>
<polygon fill="#528b8b" stroke="#528b8b" stroke-width="2" points="270.69,-258.1 277.15,-249.69 266.86,-252.24 270.69,-258.1"/>
</g>
<!-- src/storage/storage&#45;async.ts -->
<g id="node19" class="node">
<title>src/storage/storage&#45;async.ts</title>
<path fill="#79cdcd" stroke="#79cdcd" d="M387,-367.54C387,-367.54 225,-367.54 225,-367.54 219,-367.54 213,-361.54 213,-355.54 213,-355.54 213,-343.54 213,-343.54 213,-337.54 219,-331.54 225,-331.54 225,-331.54 387,-331.54 387,-331.54 393,-331.54 399,-337.54 399,-343.54 399,-343.54 399,-355.54 399,-355.54 399,-361.54 393,-367.54 387,-367.54"/>
<text text-anchor="middle" x="306" y="-345.84" font-family="Helvetica,sans-Serif" font-size="14.00">src/storage/storage&#45;async.ts</text>
</g>
<!-- src/example&#45;app.ts&#45;&gt;src/storage/storage&#45;async.ts -->
<g id="edge15" class="edge">
<title>src/example&#45;app.ts&#45;&gt;src/storage/storage&#45;async.ts</title>
<path fill="none" stroke="#528b8b" stroke-width="2" d="M131.04,-380.18C153.11,-376.29 178.37,-371.84 202.67,-367.56"/>
<polygon fill="#528b8b" stroke="#528b8b" stroke-width="2" points="203.41,-370.99 212.65,-365.81 202.19,-364.09 203.41,-370.99"/>
</g>
<!-- src/storage/storage&#45;driver&#45;async&#45;memory.ts -->
<g id="node20" class="node">
<title>src/storage/storage&#45;driver&#45;async&#45;memory.ts</title>
<path fill="#79cdcd" stroke="#79cdcd" d="M433,-146.54C433,-146.54 179,-146.54 179,-146.54 173,-146.54 167,-140.54 167,-134.54 167,-134.54 167,-122.54 167,-122.54 167,-116.54 173,-110.54 179,-110.54 179,-110.54 433,-110.54 433,-110.54 439,-110.54 445,-116.54 445,-122.54 445,-122.54 445,-134.54 445,-134.54 445,-140.54 439,-146.54 433,-146.54"/>
<text text-anchor="middle" x="306" y="-124.84" font-family="Helvetica,sans-Serif" font-size="14.00">src/storage/storage&#45;driver&#45;async&#45;memory.ts</text>
</g>
<!-- src/example&#45;app.ts&#45;&gt;src/storage/storage&#45;driver&#45;async&#45;memory.ts -->
<g id="edge14" class="edge">
<title>src/example&#45;app.ts&#45;&gt;src/storage/storage&#45;driver&#45;async&#45;memory.ts</title>
<path fill="none" stroke="#528b8b" stroke-width="2" d="M72.29,-373.45C84.59,-337.39 116.44,-255.62 167,-204.54 189.81,-181.5 221.08,-163.51 248.08,-150.82"/>
<polygon fill="#528b8b" stroke="#528b8b" stroke-width="2" points="249.79,-153.89 257.44,-146.56 246.89,-147.52 249.79,-153.89"/>
</g>
<!-- src/core&#45;validators/addresses.ts -->
<g id="node2" class="node">
<title>src/core&#45;validators/addresses.ts</title>
<path fill="#79cdcd" stroke="#79cdcd" d="M1001,-807.54C1001,-807.54 818,-807.54 818,-807.54 812,-807.54 806,-801.54 806,-795.54 806,-795.54 806,-783.54 806,-783.54 806,-777.54 812,-771.54 818,-771.54 818,-771.54 1001,-771.54 1001,-771.54 1007,-771.54 1013,-777.54 1013,-783.54 1013,-783.54 1013,-795.54 1013,-795.54 1013,-801.54 1007,-807.54 1001,-807.54"/>
<text text-anchor="middle" x="909.5" y="-785.84" font-family="Helvetica,sans-Serif" font-size="14.00">src/core&#45;validators/addresses.ts</text>
</g>
<!-- src/core&#45;validators/characters.ts -->
<g id="node3" class="node">
<title>src/core&#45;validators/characters.ts</title>
<path fill="#79cdcd" stroke="#79cdcd" d="M1245,-712.54C1245,-712.54 1061,-712.54 1061,-712.54 1055,-712.54 1049,-706.54 1049,-700.54 1049,-700.54 1049,-688.54 1049,-688.54 1049,-682.54 1055,-676.54 1061,-676.54 1061,-676.54 1245,-676.54 1245,-676.54 1251,-676.54 1257,-682.54 1257,-688.54 1257,-688.54 1257,-700.54 1257,-700.54 1257,-706.54 1251,-712.54 1245,-712.54"/>
<text text-anchor="middle" x="1153" y="-690.84" font-family="Helvetica,sans-Serif" font-size="14.00">src/core&#45;validators/characters.ts</text>
</g>
<!-- src/core&#45;validators/addresses.ts&#45;&gt;src/core&#45;validators/characters.ts -->
<g id="edge1" class="edge">
<title>src/core&#45;validators/addresses.ts&#45;&gt;src/core&#45;validators/characters.ts</title>
<path fill="none" stroke="#528b8b" stroke-width="2" d="M956.49,-771.45C996.44,-755.74 1054.39,-732.94 1096.83,-716.25"/>
<polygon fill="#528b8b" stroke="#528b8b" stroke-width="2" points="1098.15,-719.49 1106.18,-712.57 1095.59,-712.97 1098.15,-719.49"/>
</g>
<!-- src/core&#45;validators/checkers.ts -->
<g id="node4" class="node">
<title>src/core&#45;validators/checkers.ts</title>
<path fill="#79cdcd" stroke="#79cdcd" d="M997,-666.54C997,-666.54 822,-666.54 822,-666.54 816,-666.54 810,-660.54 810,-654.54 810,-654.54 810,-642.54 810,-642.54 810,-636.54 816,-630.54 822,-630.54 822,-630.54 997,-630.54 997,-630.54 1003,-630.54 1009,-636.54 1009,-642.54 1009,-642.54 1009,-654.54 1009,-654.54 1009,-660.54 1003,-666.54 997,-666.54"/>
<text text-anchor="middle" x="909.5" y="-644.84" font-family="Helvetica,sans-Serif" font-size="14.00">src/core&#45;validators/checkers.ts</text>
</g>
<!-- src/core&#45;validators/checkers.ts&#45;&gt;src/core&#45;validators/characters.ts -->
<g id="edge2" class="edge">
<title>src/core&#45;validators/checkers.ts&#45;&gt;src/core&#45;validators/characters.ts</title>
<path fill="none" stroke="#528b8b" stroke-width="2" d="M1005.25,-666.59C1018.97,-669.2 1033.16,-671.91 1047.06,-674.55"/>
<polygon fill="#528b8b" stroke="#528b8b" stroke-width="2" points="1046.64,-678.04 1057.12,-676.47 1047.95,-671.16 1046.64,-678.04"/>
</g>
<!-- src/crypto/base32.ts -->
<g id="node5" class="node">
<title>src/crypto/base32.ts</title>
<path fill="#79cdcd" stroke="#79cdcd" d="M966,-899.54C966,-899.54 853,-899.54 853,-899.54 847,-899.54 841,-893.54 841,-887.54 841,-887.54 841,-875.54 841,-875.54 841,-869.54 847,-863.54 853,-863.54 853,-863.54 966,-863.54 966,-863.54 972,-863.54 978,-869.54 978,-875.54 978,-875.54 978,-887.54 978,-887.54 978,-893.54 972,-899.54 966,-899.54"/>
<text text-anchor="middle" x="909.5" y="-877.84" font-family="Helvetica,sans-Serif" font-size="14.00">src/crypto/base32.ts</text>
</g>
<!-- src/crypto/crypto&#45;driver&#45;chloride.ts -->
<g id="node6" class="node">
<title>src/crypto/crypto&#45;driver&#45;chloride.ts</title>
<path fill="#79cdcd" stroke="#79cdcd" d="M723.5,-628.54C723.5,-628.54 527.5,-628.54 527.5,-628.54 521.5,-628.54 515.5,-622.54 515.5,-616.54 515.5,-616.54 515.5,-604.54 515.5,-604.54 515.5,-598.54 521.5,-592.54 527.5,-592.54 527.5,-592.54 723.5,-592.54 723.5,-592.54 729.5,-592.54 735.5,-598.54 735.5,-604.54 735.5,-604.54 735.5,-616.54 735.5,-616.54 735.5,-622.54 729.5,-628.54 723.5,-628.54"/>
<text text-anchor="middle" x="625.5" y="-606.84" font-family="Helvetica,sans-Serif" font-size="14.00">src/crypto/crypto&#45;driver&#45;chloride.ts</text>
</g>
<!-- src/crypto/crypto&#45;types.ts -->
<g id="node9" class="node">
<title>src/crypto/crypto&#45;types.ts</title>
<path fill="#79cdcd" stroke="#79cdcd" d="M981,-582.54C981,-582.54 838,-582.54 838,-582.54 832,-582.54 826,-576.54 826,-570.54 826,-570.54 826,-558.54 826,-558.54 826,-552.54 832,-546.54 838,-546.54 838,-546.54 981,-546.54 981,-546.54 987,-546.54 993,-552.54 993,-558.54 993,-558.54 993,-570.54 993,-570.54 993,-576.54 987,-582.54 981,-582.54"/>
<text text-anchor="middle" x="909.5" y="-560.84" font-family="Helvetica,sans-Serif" font-size="14.00">src/crypto/crypto&#45;types.ts</text>
</g>
<!-- src/crypto/crypto&#45;driver&#45;chloride.ts&#45;&gt;src/crypto/crypto&#45;types.ts -->
<g id="edge3" class="edge">
<title>src/crypto/crypto&#45;driver&#45;chloride.ts&#45;&gt;src/crypto/crypto&#45;types.ts</title>
<path fill="none" stroke="#528b8b" stroke-width="2" d="M735.53,-592.76C761.94,-588.45 789.92,-583.89 815.51,-579.71"/>
<polygon fill="#528b8b" stroke="#528b8b" stroke-width="2" points="816.26,-583.14 825.57,-578.07 815.14,-576.23 816.26,-583.14"/>
</g>
<!-- src/crypto/crypto&#45;driver&#45;node.ts -->
<g id="node7" class="node">
<title>src/crypto/crypto&#45;driver&#45;node.ts</title>
<path fill="#79cdcd" stroke="#79cdcd" d="M715,-536.54C715,-536.54 536,-536.54 536,-536.54 530,-536.54 524,-530.54 524,-524.54 524,-524.54 524,-512.54 524,-512.54 524,-506.54 530,-500.54 536,-500.54 536,-500.54 715,-500.54 715,-500.54 721,-500.54 727,-506.54 727,-512.54 727,-512.54 727,-524.54 727,-524.54 727,-530.54 721,-536.54 715,-536.54"/>
<text text-anchor="middle" x="625.5" y="-514.84" font-family="Helvetica,sans-Serif" font-size="14.00">src/crypto/crypto&#45;driver&#45;node.ts</text>
</g>
<!-- src/crypto/crypto&#45;driver&#45;node.ts&#45;&gt;src/crypto/crypto&#45;types.ts -->
<g id="edge4" class="edge">
<title>src/crypto/crypto&#45;driver&#45;node.ts&#45;&gt;src/crypto/crypto&#45;types.ts</title>
<path fill="none" stroke="#528b8b" stroke-width="2" d="M727.11,-534.96C755.98,-539.66 787.31,-544.77 815.68,-549.4"/>
<polygon fill="#528b8b" stroke="#528b8b" stroke-width="2" points="815.15,-552.86 825.59,-551.02 816.28,-545.95 815.15,-552.86"/>
</g>
<!-- src/crypto/crypto&#45;driver&#45;tweetnacl.ts&#45;&gt;src/crypto/crypto&#45;types.ts -->
<g id="edge5" class="edge">
<title>src/crypto/crypto&#45;driver&#45;tweetnacl.ts&#45;&gt;src/crypto/crypto&#45;types.ts</title>
<path fill="none" stroke="#528b8b" stroke-width="2" d="M421.21,-397.16C517.96,-389.75 658.36,-390.46 770,-437.54 821.11,-459.1 865.42,-508.04 889.42,-538.48"/>
<polygon fill="#528b8b" stroke="#528b8b" stroke-width="2" points="886.76,-540.76 895.64,-546.54 892.3,-536.48 886.76,-540.76"/>
</g>
<!-- src/crypto/crypto.ts&#45;&gt;src/core&#45;validators/addresses.ts -->
<g id="edge9" class="edge">
<title>src/crypto/crypto.ts&#45;&gt;src/core&#45;validators/addresses.ts</title>
<path fill="none" stroke="#528b8b" stroke-width="2" d="M371.28,-830.05C461.27,-846.76 629.54,-869.96 770,-843.54 802.53,-837.43 837.23,-823.89 863.75,-811.89"/>
<polygon fill="#528b8b" stroke="#528b8b" stroke-width="2" points="865.53,-814.93 873.14,-807.56 862.59,-808.58 865.53,-814.93"/>
</g>
<!-- src/crypto/crypto.ts&#45;&gt;src/crypto/base32.ts -->
<g id="edge7" class="edge">
<title>src/crypto/crypto.ts&#45;&gt;src/crypto/base32.ts</title>
<path fill="none" stroke="#528b8b" stroke-width="2" d="M362.78,-834.55C396.6,-844.65 440.84,-856.42 481,-862.54 602.03,-881.01 744.4,-883.58 830.47,-883.06"/>
<polygon fill="#528b8b" stroke="#528b8b" stroke-width="2" points="830.71,-886.56 840.69,-882.98 830.66,-879.56 830.71,-886.56"/>
</g>
<!-- src/crypto/crypto.ts&#45;&gt;src/crypto/crypto&#45;types.ts -->
<g id="edge6" class="edge">
<title>src/crypto/crypto.ts&#45;&gt;src/crypto/crypto&#45;types.ts</title>
<path fill="none" stroke="#528b8b" stroke-width="2" d="M359.54,-798.48C446.27,-768.17 624.29,-703.84 770,-637.54 803.67,-622.22 840.69,-602.56 867.98,-587.5"/>
<polygon fill="#528b8b" stroke="#528b8b" stroke-width="2" points="869.8,-590.49 876.84,-582.58 866.4,-584.37 869.8,-590.49"/>
</g>
<!-- src/crypto/keypair.ts -->
<g id="node11" class="node">
<title>src/crypto/keypair.ts</title>
<path fill="#79cdcd" stroke="#79cdcd" d="M682,-834.54C682,-834.54 569,-834.54 569,-834.54 563,-834.54 557,-828.54 557,-822.54 557,-822.54 557,-810.54 557,-810.54 557,-804.54 563,-798.54 569,-798.54 569,-798.54 682,-798.54 682,-798.54 688,-798.54 694,-804.54 694,-810.54 694,-810.54 694,-822.54 694,-822.54 694,-828.54 688,-834.54 682,-834.54"/>
<text text-anchor="middle" x="625.5" y="-812.84" font-family="Helvetica,sans-Serif" font-size="14.00">src/crypto/keypair.ts</text>
</g>
<!-- src/crypto/crypto.ts&#45;&gt;src/crypto/keypair.ts -->
<g id="edge8" class="edge">
<title>src/crypto/crypto.ts&#45;&gt;src/crypto/keypair.ts</title>
<path fill="none" stroke="#528b8b" stroke-width="2" d="M371.25,-816.54C421.89,-816.54 492.71,-816.54 546.59,-816.54"/>
<polygon fill="#528b8b" stroke="#528b8b" stroke-width="2" points="546.78,-820.04 556.78,-816.54 546.78,-813.04 546.78,-820.04"/>
</g>
<!-- src/crypto/keypair.ts&#45;&gt;src/core&#45;validators/addresses.ts -->
<g id="edge12" class="edge">
<title>src/crypto/keypair.ts&#45;&gt;src/core&#45;validators/addresses.ts</title>
<path fill="none" stroke="#528b8b" stroke-width="2" d="M694.05,-810.08C724.52,-807.16 761.35,-803.63 795.82,-800.33"/>
<polygon fill="#528b8b" stroke="#528b8b" stroke-width="2" points="796.33,-803.8 805.96,-799.36 795.67,-796.83 796.33,-803.8"/>
</g>
<!-- src/crypto/keypair.ts&#45;&gt;src/crypto/base32.ts -->
<g id="edge10" class="edge">
<title>src/crypto/keypair.ts&#45;&gt;src/crypto/base32.ts</title>
<path fill="none" stroke="#528b8b" stroke-width="2" d="M694.05,-832.11C735.16,-841.59 787.84,-853.73 830.7,-863.61"/>
<polygon fill="#528b8b" stroke="#528b8b" stroke-width="2" points="830,-867.04 840.53,-865.88 831.57,-860.22 830,-867.04"/>
</g>
<!-- src/crypto/keypair.ts&#45;&gt;src/crypto/crypto&#45;types.ts -->
<g id="edge11" class="edge">
<title>src/crypto/keypair.ts&#45;&gt;src/crypto/crypto&#45;types.ts</title>
<path fill="none" stroke="#528b8b" stroke-width="2" d="M690.48,-798.44C718.46,-787.56 749.5,-770.95 770,-746.54 807.19,-702.28 770.01,-666.79 806,-621.54 817.34,-607.29 833.26,-596.04 849.19,-587.43"/>
<polygon fill="#528b8b" stroke="#528b8b" stroke-width="2" points="851.21,-590.33 858.53,-582.66 848.03,-584.09 851.21,-590.33"/>
</g>
<!-- src/format&#45;validators/format&#45;validator&#45;es4.ts&#45;&gt;src/core&#45;validators/addresses.ts -->
<g id="edge23" class="edge">
<title>src/format&#45;validators/format&#45;validator&#45;es4.ts&#45;&gt;src/core&#45;validators/addresses.ts</title>
<path fill="none" stroke="#528b8b" stroke-width="2" d="M332.81,-628.67C365.69,-650.88 424.98,-688.09 481,-708.54 584.17,-746.21 708.05,-767.22 795.83,-778.34"/>
<polygon fill="#528b8b" stroke="#528b8b" stroke-width="2" points="795.46,-781.82 805.82,-779.59 796.33,-774.88 795.46,-781.82"/>
</g>
<!-- src/format&#45;validators/format&#45;validator&#45;es4.ts&#45;&gt;src/core&#45;validators/characters.ts -->
<g id="edge21" class="edge">
<title>src/format&#45;validators/format&#45;validator&#45;es4.ts&#45;&gt;src/core&#45;validators/characters.ts</title>
<path fill="none" stroke="#528b8b" stroke-width="2" d="M362,-628.56C395.92,-638.88 440.53,-651.03 481,-657.54 675.22,-688.8 904.67,-694.93 1038.7,-695.48"/>
<polygon fill="#528b8b" stroke="#528b8b" stroke-width="2" points="1038.97,-698.98 1048.98,-695.51 1038.99,-691.98 1038.97,-698.98"/>
</g>
<!-- src/format&#45;validators/format&#45;validator&#45;es4.ts&#45;&gt;src/core&#45;validators/checkers.ts -->
<g id="edge22" class="edge">
<title>src/format&#45;validators/format&#45;validator&#45;es4.ts&#45;&gt;src/core&#45;validators/checkers.ts</title>
<path fill="none" stroke="#528b8b" stroke-width="2" d="M408.86,-628.59C432.47,-632.15 457.56,-635.43 481,-637.54 589.11,-647.28 713.18,-649.48 799.71,-649.58"/>
<polygon fill="#528b8b" stroke="#528b8b" stroke-width="2" points="799.81,-653.08 809.81,-649.58 799.81,-646.08 799.81,-653.08"/>
</g>
<!-- src/format&#45;validators/format&#45;validator&#45;es4.ts&#45;&gt;src/crypto/crypto&#45;types.ts -->
<g id="edge20" class="edge">
<title>src/format&#45;validators/format&#45;validator&#45;es4.ts&#45;&gt;src/crypto/crypto&#45;types.ts</title>
<path fill="none" stroke="#528b8b" stroke-width="2" d="M410.73,-592.54C433.8,-589.07 458.19,-585.81 481,-583.54 596.02,-572.1 729.14,-567.55 815.87,-565.74"/>
<polygon fill="#528b8b" stroke="#528b8b" stroke-width="2" points="816.03,-569.23 825.95,-565.53 815.89,-562.24 816.03,-569.23"/>
</g>
<!-- src/format&#45;validators/format&#45;validator&#45;types.ts -->
<g id="node13" class="node">
<title>src/format&#45;validators/format&#45;validator&#45;types.ts</title>
<path fill="#79cdcd" stroke="#79cdcd" d="M758,-482.54C758,-482.54 493,-482.54 493,-482.54 487,-482.54 481,-476.54 481,-470.54 481,-470.54 481,-458.54 481,-458.54 481,-452.54 487,-446.54 493,-446.54 493,-446.54 758,-446.54 758,-446.54 764,-446.54 770,-452.54 770,-458.54 770,-458.54 770,-470.54 770,-470.54 770,-476.54 764,-482.54 758,-482.54"/>
<text text-anchor="middle" x="625.5" y="-460.84" font-family="Helvetica,sans-Serif" font-size="14.00">src/format&#45;validators/format&#45;validator&#45;types.ts</text>
</g>
<!-- src/format&#45;validators/format&#45;validator&#45;es4.ts&#45;&gt;src/format&#45;validators/format&#45;validator&#45;types.ts -->
<g id="edge19" class="edge">
<title>src/format&#45;validators/format&#45;validator&#45;es4.ts&#45;&gt;src/format&#45;validators/format&#45;validator&#45;types.ts</title>
<path fill="none" stroke="#528b8b" stroke-width="2" d="M327.3,-592.42C358.16,-565.89 419.81,-516.91 481,-491.54 486.12,-489.42 491.42,-487.46 496.82,-485.66"/>
<polygon fill="#528b8b" stroke="#528b8b" stroke-width="2" points="498.15,-488.91 506.64,-482.57 496.05,-482.23 498.15,-488.91"/>
</g>
<!-- src/format&#45;validators/format&#45;validator&#45;types.ts&#45;&gt;src/crypto/crypto&#45;types.ts -->
<g id="edge24" class="edge">
<title>src/format&#45;validators/format&#45;validator&#45;types.ts&#45;&gt;src/crypto/crypto&#45;types.ts</title>
<path fill="none" stroke="#528b8b" stroke-width="2" d="M740.14,-482.64C750.34,-485.25 760.43,-488.2 770,-491.54 806.2,-504.17 844.56,-525.04 871.7,-541.24"/>
<polygon fill="#528b8b" stroke="#528b8b" stroke-width="2" points="870.09,-544.36 880.46,-546.54 873.71,-538.37 870.09,-544.36"/>
</g>
<!-- src/storage/compare.ts -->
<g id="node14" class="node">
<title>src/storage/compare.ts</title>
<path fill="#79cdcd" stroke="#79cdcd" d="M691,-352.54C691,-352.54 560,-352.54 560,-352.54 554,-352.54 548,-346.54 548,-340.54 548,-340.54 548,-328.54 548,-328.54 548,-322.54 554,-316.54 560,-316.54 560,-316.54 691,-316.54 691,-316.54 697,-316.54 703,-322.54 703,-328.54 703,-328.54 703,-340.54 703,-340.54 703,-346.54 697,-352.54 691,-352.54"/>
<text text-anchor="middle" x="625.5" y="-330.84" font-family="Helvetica,sans-Serif" font-size="14.00">src/storage/compare.ts</text>
</g>
<!-- src/storage/util&#45;types.ts -->
<g id="node22" class="node">
<title>src/storage/util&#45;types.ts</title>
<path fill="#79cdcd" stroke="#79cdcd" d="M975,-310.54C975,-310.54 844,-310.54 844,-310.54 838,-310.54 832,-304.54 832,-298.54 832,-298.54 832,-286.54 832,-286.54 832,-280.54 838,-274.54 844,-274.54 844,-274.54 975,-274.54 975,-274.54 981,-274.54 987,-280.54 987,-286.54 987,-286.54 987,-298.54 987,-298.54 987,-304.54 981,-310.54 975,-310.54"/>
<text text-anchor="middle" x="909.5" y="-288.84" font-family="Helvetica,sans-Serif" font-size="14.00">src/storage/util&#45;types.ts</text>
</g>
<!-- src/storage/compare.ts&#45;&gt;src/storage/util&#45;types.ts -->
<g id="edge25" class="edge">
<title>src/storage/compare.ts&#45;&gt;src/storage/util&#45;types.ts</title>
<path fill="none" stroke="#528b8b" stroke-width="2" d="M703.19,-323.12C739.87,-317.66 783.94,-311.09 821.83,-305.45"/>
<polygon fill="#528b8b" stroke="#528b8b" stroke-width="2" points="822.45,-308.9 831.83,-303.96 821.42,-301.97 822.45,-308.9"/>
</g>
<!-- src/storage/query&#45;types.ts -->
<g id="node17" class="node">
<title>src/storage/query&#45;types.ts</title>
<path fill="#79cdcd" stroke="#79cdcd" d="M983.5,-146.54C983.5,-146.54 835.5,-146.54 835.5,-146.54 829.5,-146.54 823.5,-140.54 823.5,-134.54 823.5,-134.54 823.5,-122.54 823.5,-122.54 823.5,-116.54 829.5,-110.54 835.5,-110.54 835.5,-110.54 983.5,-110.54 983.5,-110.54 989.5,-110.54 995.5,-116.54 995.5,-122.54 995.5,-122.54 995.5,-134.54 995.5,-134.54 995.5,-140.54 989.5,-146.54 983.5,-146.54"/>
<text text-anchor="middle" x="909.5" y="-124.84" font-family="Helvetica,sans-Serif" font-size="14.00">src/storage/query&#45;types.ts</text>
</g>
<!-- src/storage/follower.ts&#45;&gt;src/storage/query&#45;types.ts -->
<g id="edge27" class="edge">
<title>src/storage/follower.ts&#45;&gt;src/storage/query&#45;types.ts</title>
<path fill="none" stroke="#528b8b" stroke-width="2" d="M380.09,-220.24C471.43,-205.95 632.5,-180.23 770,-155.54 784.01,-153.03 798.79,-150.26 813.27,-147.49"/>
<polygon fill="#528b8b" stroke="#528b8b" stroke-width="2" points="814.08,-150.9 823.24,-145.58 812.76,-144.03 814.08,-150.9"/>
</g>
<!-- src/storage/storage&#45;types.ts -->
<g id="node21" class="node">
<title>src/storage/storage&#45;types.ts</title>
<path fill="#79cdcd" stroke="#79cdcd" d="M705,-146.54C705,-146.54 546,-146.54 546,-146.54 540,-146.54 534,-140.54 534,-134.54 534,-134.54 534,-122.54 534,-122.54 534,-116.54 540,-110.54 546,-110.54 546,-110.54 705,-110.54 705,-110.54 711,-110.54 717,-116.54 717,-122.54 717,-122.54 717,-134.54 717,-134.54 717,-140.54 711,-146.54 705,-146.54"/>
<text text-anchor="middle" x="625.5" y="-124.84" font-family="Helvetica,sans-Serif" font-size="14.00">src/storage/storage&#45;types.ts</text>
</g>
<!-- src/storage/follower.ts&#45;&gt;src/storage/storage&#45;types.ts -->
<g id="edge28" class="edge">
<title>src/storage/follower.ts&#45;&gt;src/storage/storage&#45;types.ts</title>
<path fill="none" stroke="#528b8b" stroke-width="2" d="M362.67,-213.48C417.48,-195.7 501.16,-168.55 559.11,-149.76"/>
<polygon fill="#528b8b" stroke="#528b8b" stroke-width="2" points="560.46,-153 568.9,-146.58 558.3,-146.34 560.46,-153"/>
</g>
<!-- src/storage/follower.ts&#45;&gt;src/storage/util&#45;types.ts -->
<g id="edge26" class="edge">
<title>src/storage/follower.ts&#45;&gt;src/storage/util&#45;types.ts</title>
<path fill="none" stroke="#528b8b" stroke-width="2" d="M380.15,-238.96C491.35,-250.24 702.5,-271.65 821.43,-283.71"/>
<polygon fill="#528b8b" stroke="#528b8b" stroke-width="2" points="821.29,-287.22 831.59,-284.74 822,-280.25 821.29,-287.22"/>
</g>
<!-- src/storage/lock.ts -->
<g id="node16" class="node">
<title>src/storage/lock.ts</title>
<path fill="#79cdcd" stroke="#79cdcd" d="M960,-50.54C960,-50.54 859,-50.54 859,-50.54 853,-50.54 847,-44.54 847,-38.54 847,-38.54 847,-26.54 847,-26.54 847,-20.54 853,-14.54 859,-14.54 859,-14.54 960,-14.54 960,-14.54 966,-14.54 972,-20.54 972,-26.54 972,-26.54 972,-38.54 972,-38.54 972,-44.54 966,-50.54 960,-50.54"/>
<text text-anchor="middle" x="909.5" y="-28.84" font-family="Helvetica,sans-Serif" font-size="14.00">src/storage/lock.ts</text>
</g>
<!-- src/storage/query.ts -->
<g id="node18" class="node">
<title>src/storage/query.ts</title>
<path fill="#79cdcd" stroke="#79cdcd" d="M680.5,-92.54C680.5,-92.54 570.5,-92.54 570.5,-92.54 564.5,-92.54 558.5,-86.54 558.5,-80.54 558.5,-80.54 558.5,-68.54 558.5,-68.54 558.5,-62.54 564.5,-56.54 570.5,-56.54 570.5,-56.54 680.5,-56.54 680.5,-56.54 686.5,-56.54 692.5,-62.54 692.5,-68.54 692.5,-68.54 692.5,-80.54 692.5,-80.54 692.5,-86.54 686.5,-92.54 680.5,-92.54"/>
<text text-anchor="middle" x="625.5" y="-70.84" font-family="Helvetica,sans-Serif" font-size="14.00">src/storage/query.ts</text>
</g>
<!-- src/storage/query.ts&#45;&gt;src/storage/query&#45;types.ts -->
<g id="edge29" class="edge">
<title>src/storage/query.ts&#45;&gt;src/storage/query&#45;types.ts</title>
<path fill="none" stroke="#528b8b" stroke-width="2" d="M692.6,-86.89C716.94,-91.46 744.73,-96.7 770,-101.54 783.98,-104.22 798.74,-107.07 813.22,-109.88"/>
<polygon fill="#528b8b" stroke="#528b8b" stroke-width="2" points="812.7,-113.35 823.18,-111.82 814.03,-106.48 812.7,-113.35"/>
</g>
<!-- src/storage/storage&#45;async.ts&#45;&gt;src/format&#45;validators/format&#45;validator&#45;types.ts -->
<g id="edge33" class="edge">
<title>src/storage/storage&#45;async.ts&#45;&gt;src/format&#45;validators/format&#45;validator&#45;types.ts</title>
<path fill="none" stroke="#528b8b" stroke-width="2" d="M387.95,-367.61C406.86,-372.51 426.79,-378.23 445,-384.54 492.05,-400.86 543.8,-424.58 579.59,-441.95"/>
<polygon fill="#528b8b" stroke="#528b8b" stroke-width="2" points="578.27,-445.2 588.79,-446.45 581.34,-438.91 578.27,-445.2"/>
</g>
<!-- src/storage/storage&#45;async.ts&#45;&gt;src/storage/compare.ts -->
<g id="edge34" class="edge">
<title>src/storage/storage&#45;async.ts&#45;&gt;src/storage/compare.ts</title>
<path fill="none" stroke="#528b8b" stroke-width="2" d="M399.26,-345.18C442.91,-343.12 494.74,-340.67 537.67,-338.65"/>
<polygon fill="#528b8b" stroke="#528b8b" stroke-width="2" points="537.99,-342.13 547.82,-338.17 537.66,-335.14 537.99,-342.13"/>
</g>
<!-- src/storage/storage&#45;async.ts&#45;&gt;src/storage/query&#45;types.ts -->
<g id="edge31" class="edge">
<title>src/storage/storage&#45;async.ts&#45;&gt;src/storage/query&#45;types.ts</title>
<path fill="none" stroke="#528b8b" stroke-width="2" d="M368.9,-331.45C458.53,-304.66 629.11,-251.45 770,-194.54 802.25,-181.52 837.65,-164.6 864.58,-151.16"/>
<polygon fill="#528b8b" stroke="#528b8b" stroke-width="2" points="866.37,-154.18 873.73,-146.56 863.23,-147.92 866.37,-154.18"/>
</g>
<!-- src/storage/storage&#45;async.ts&#45;&gt;src/storage/storage&#45;types.ts -->
<g id="edge32" class="edge">
<title>src/storage/storage&#45;async.ts&#45;&gt;src/storage/storage&#45;types.ts</title>
<path fill="none" stroke="#528b8b" stroke-width="2" d="M335.26,-331.43C363.32,-313.31 407.47,-284.49 445,-258.54 497.16,-222.49 556.54,-178.98 592.24,-152.56"/>
<polygon fill="#528b8b" stroke="#528b8b" stroke-width="2" points="594.4,-155.31 600.35,-146.55 590.24,-149.69 594.4,-155.31"/>
</g>
<!-- src/storage/storage&#45;async.ts&#45;&gt;src/storage/util&#45;types.ts -->
<g id="edge30" class="edge">
<title>src/storage/storage&#45;async.ts&#45;&gt;src/storage/util&#45;types.ts</title>
<path fill="none" stroke="#528b8b" stroke-width="2" d="M399.34,-365.59C493.81,-378.84 644.18,-391.15 770,-361.54 807.24,-352.78 845.9,-332.42 872.89,-316.07"/>
<polygon fill="#528b8b" stroke="#528b8b" stroke-width="2" points="874.9,-318.94 881.57,-310.7 871.22,-312.98 874.9,-318.94"/>
</g>
<!-- src/storage/storage&#45;driver&#45;async&#45;memory.ts&#45;&gt;src/storage/compare.ts -->
<g id="edge38" class="edge">
<title>src/storage/storage&#45;driver&#45;async&#45;memory.ts&#45;&gt;src/storage/compare.ts</title>
<path fill="none" stroke="#528b8b" stroke-width="2" d="M342.57,-146.58C370.86,-161.3 411.16,-183.09 445,-204.54 498.85,-238.69 558.2,-283.1 593.36,-310.18"/>
<polygon fill="#528b8b" stroke="#528b8b" stroke-width="2" points="591.29,-313 601.34,-316.35 595.57,-307.46 591.29,-313"/>
</g>
<!-- src/storage/storage&#45;driver&#45;async&#45;memory.ts&#45;&gt;src/storage/lock.ts -->
<g id="edge40" class="edge">
<title>src/storage/storage&#45;driver&#45;async&#45;memory.ts&#45;&gt;src/storage/lock.ts</title>
<path fill="none" stroke="#528b8b" stroke-width="2" d="M327.37,-110.49C358.1,-84.61 419.28,-38.14 481,-20.54 602.23,14.02 750.68,-2.54 836.94,-17.61"/>
<polygon fill="#528b8b" stroke="#528b8b" stroke-width="2" points="836.42,-21.08 846.88,-19.39 837.66,-14.19 836.42,-21.08"/>
</g>
<!-- src/storage/storage&#45;driver&#45;async&#45;memory.ts&#45;&gt;src/storage/query&#45;types.ts -->
<g id="edge36" class="edge">
<title>src/storage/storage&#45;driver&#45;async&#45;memory.ts&#45;&gt;src/storage/query&#45;types.ts</title>
<path fill="none" stroke="#528b8b" stroke-width="2" d="M335.47,-110.52C368.83,-90.56 426.51,-59.61 481,-47.54 606.41,-19.78 646.03,-13.95 770,-47.54 810.51,-58.52 851.32,-84.64 878.04,-104.27"/>
<polygon fill="#528b8b" stroke="#528b8b" stroke-width="2" points="876.1,-107.19 886.2,-110.39 880.3,-101.59 876.1,-107.19"/>
</g>
<!-- src/storage/storage&#45;driver&#45;async&#45;memory.ts&#45;&gt;src/storage/query.ts -->
<g id="edge39" class="edge">
<title>src/storage/storage&#45;driver&#45;async&#45;memory.ts&#45;&gt;src/storage/query.ts</title>
<path fill="none" stroke="#528b8b" stroke-width="2" d="M413.16,-110.49C457.37,-102.97 507.71,-94.41 548.17,-87.53"/>
<polygon fill="#528b8b" stroke="#528b8b" stroke-width="2" points="548.96,-90.94 558.23,-85.81 547.78,-84.04 548.96,-90.94"/>
</g>
<!-- src/storage/storage&#45;driver&#45;async&#45;memory.ts&#45;&gt;src/storage/storage&#45;types.ts -->
<g id="edge37" class="edge">
<title>src/storage/storage&#45;driver&#45;async&#45;memory.ts&#45;&gt;src/storage/storage&#45;types.ts</title>
<path fill="none" stroke="#528b8b" stroke-width="2" d="M445.34,-128.54C471.63,-128.54 498.68,-128.54 523.54,-128.54"/>
<polygon fill="#528b8b" stroke="#528b8b" stroke-width="2" points="523.68,-132.04 533.68,-128.54 523.68,-125.04 523.68,-132.04"/>
</g>
<!-- src/storage/storage&#45;driver&#45;async&#45;memory.ts&#45;&gt;src/storage/util&#45;types.ts -->
<g id="edge35" class="edge">
<title>src/storage/storage&#45;driver&#45;async&#45;memory.ts&#45;&gt;src/storage/util&#45;types.ts</title>
<path fill="none" stroke="#528b8b" stroke-width="2" d="M384.87,-146.6C477.25,-168.43 635.67,-207.17 770,-246.54 795.54,-254.03 823.43,-263.11 847.45,-271.23"/>
<polygon fill="#528b8b" stroke="#528b8b" stroke-width="2" points="846.55,-274.62 857.14,-274.52 848.8,-267.99 846.55,-274.62"/>
</g>
<!-- src/storage/storage&#45;types.ts&#45;&gt;src/storage/lock.ts -->
<g id="edge42" class="edge">
<title>src/storage/storage&#45;types.ts&#45;&gt;src/storage/lock.ts</title>
<path fill="none" stroke="#528b8b" stroke-width="2" d="M717.04,-115.44C734.83,-111.77 753.18,-107.19 770,-101.54 805.12,-89.75 842.59,-70.63 869.7,-55.51"/>
<polygon fill="#528b8b" stroke="#528b8b" stroke-width="2" points="871.49,-58.52 878.47,-50.55 868.04,-52.43 871.49,-58.52"/>
</g>
<!-- src/storage/storage&#45;types.ts&#45;&gt;src/storage/query&#45;types.ts -->
<g id="edge41" class="edge">
<title>src/storage/storage&#45;types.ts&#45;&gt;src/storage/query&#45;types.ts</title>
<path fill="none" stroke="#528b8b" stroke-width="2" d="M717.28,-128.54C747.8,-128.54 781.94,-128.54 812.82,-128.54"/>
<polygon fill="#528b8b" stroke="#528b8b" stroke-width="2" points="813.16,-132.04 823.16,-128.54 813.16,-125.04 813.16,-132.04"/>
</g>
</g>
</svg>
