<?xml version="1.0" encoding="UTF-8" standalone="no"?>
<!DOCTYPE svg PUBLIC "-//W3C//DTD SVG 1.1//EN"
 "http://www.w3.org/Graphics/SVG/1.1/DTD/svg11.dtd">
<!-- Generated by graphviz version 2.44.1 (20200629.0846)
 -->
<!-- Title: G Pages: 1 -->
<svg width="1367pt" height="1235pt"
 viewBox="0.00 0.00 1367.00 1235.09" xmlns="http://www.w3.org/2000/svg" xmlns:xlink="http://www.w3.org/1999/xlink">
<g id="graph0" class="graph" transform="scale(1 1) rotate(0) translate(4 1231.09)">
<title>G</title>
<polygon fill="white" stroke="transparent" points="-4,4 -4,-1231.09 1363,-1231.09 1363,4 -4,4"/>
<!-- src/base32.ts -->
<g id="node1" class="node">
<title>src/base32.ts</title>
<path fill="#79cdcd" stroke="#79cdcd" d="M1051,-832.53C1051,-832.53 978,-832.53 978,-832.53 972,-832.53 966,-826.53 966,-820.53 966,-820.53 966,-808.53 966,-808.53 966,-802.53 972,-796.53 978,-796.53 978,-796.53 1051,-796.53 1051,-796.53 1057,-796.53 1063,-802.53 1063,-808.53 1063,-808.53 1063,-820.53 1063,-820.53 1063,-826.53 1057,-832.53 1051,-832.53"/>
<text text-anchor="middle" x="1014.5" y="-810.83" font-family="Helvetica,sans-Serif" font-size="14.00">src/base32.ts</text>
</g>
<!-- src/types/docTypes.ts -->
<g id="node16" class="node">
<title>src/types/docTypes.ts</title>
<path fill="#79cdcd" stroke="#79cdcd" d="M1317.5,-675.53C1317.5,-675.53 1194.5,-675.53 1194.5,-675.53 1188.5,-675.53 1182.5,-669.53 1182.5,-663.53 1182.5,-663.53 1182.5,-651.53 1182.5,-651.53 1182.5,-645.53 1188.5,-639.53 1194.5,-639.53 1194.5,-639.53 1317.5,-639.53 1317.5,-639.53 1323.5,-639.53 1329.5,-645.53 1329.5,-651.53 1329.5,-651.53 1329.5,-663.53 1329.5,-663.53 1329.5,-669.53 1323.5,-675.53 1317.5,-675.53"/>
<text text-anchor="middle" x="1256" y="-653.83" font-family="Helvetica,sans-Serif" font-size="14.00">src/types/docTypes.ts</text>
</g>
<!-- src/base32.ts&#45;&gt;src/types/docTypes.ts -->
<g id="edge1" class="edge">
<title>src/base32.ts&#45;&gt;src/types/docTypes.ts</title>
<path fill="none" stroke="#528b8b" stroke-width="2" d="M1063.24,-804.05C1080.84,-799.03 1100.49,-792 1117,-782.53 1163.2,-756.04 1207.08,-711.88 1232.5,-683.76"/>
<polygon fill="#528b8b" stroke="#528b8b" stroke-width="2" points="1235.44,-685.73 1239.48,-675.94 1230.21,-681.07 1235.44,-685.73"/>
</g>
<!-- src/util/errors.ts -->
<g id="node22" class="node">
<title>src/util/errors.ts</title>
<path fill="#79cdcd" stroke="#79cdcd" d="M1298.5,-1008.53C1298.5,-1008.53 1213.5,-1008.53 1213.5,-1008.53 1207.5,-1008.53 1201.5,-1002.53 1201.5,-996.53 1201.5,-996.53 1201.5,-984.53 1201.5,-984.53 1201.5,-978.53 1207.5,-972.53 1213.5,-972.53 1213.5,-972.53 1298.5,-972.53 1298.5,-972.53 1304.5,-972.53 1310.5,-978.53 1310.5,-984.53 1310.5,-984.53 1310.5,-996.53 1310.5,-996.53 1310.5,-1002.53 1304.5,-1008.53 1298.5,-1008.53"/>
<text text-anchor="middle" x="1256" y="-986.83" font-family="Helvetica,sans-Serif" font-size="14.00">src/util/errors.ts</text>
</g>
<!-- src/base32.ts&#45;&gt;src/util/errors.ts -->
<g id="edge2" class="edge">
<title>src/base32.ts&#45;&gt;src/util/errors.ts</title>
<path fill="none" stroke="#528b8b" stroke-width="2" d="M1042.48,-832.58C1063.08,-846.51 1092.08,-866.39 1117,-884.53 1154.18,-911.6 1195.95,-943.97 1223.7,-965.75"/>
<polygon fill="#528b8b" stroke="#528b8b" stroke-width="2" points="1221.81,-968.72 1231.84,-972.16 1226.14,-963.22 1221.81,-968.72"/>
</g>
<!-- src/example&#45;app.ts -->
<g id="node2" class="node">
<title>src/example&#45;app.ts</title>
<path fill="#79cdcd" stroke="#79cdcd" d="M119,-289.53C119,-289.53 12,-289.53 12,-289.53 6,-289.53 0,-283.53 0,-277.53 0,-277.53 0,-265.53 0,-265.53 0,-259.53 6,-253.53 12,-253.53 12,-253.53 119,-253.53 119,-253.53 125,-253.53 131,-259.53 131,-265.53 131,-265.53 131,-277.53 131,-277.53 131,-283.53 125,-289.53 119,-289.53"/>
<text text-anchor="middle" x="65.5" y="-267.83" font-family="Helvetica,sans-Serif" font-size="14.00">src/example&#45;app.ts</text>
</g>
<!-- src/follower.ts -->
<g id="node3" class="node">
<title>src/follower.ts</title>
<path fill="#79cdcd" stroke="#79cdcd" d="M339,-121.53C339,-121.53 264,-121.53 264,-121.53 258,-121.53 252,-115.53 252,-109.53 252,-109.53 252,-97.53 252,-97.53 252,-91.53 258,-85.53 264,-85.53 264,-85.53 339,-85.53 339,-85.53 345,-85.53 351,-91.53 351,-97.53 351,-97.53 351,-109.53 351,-109.53 351,-115.53 345,-121.53 339,-121.53"/>
<text text-anchor="middle" x="301.5" y="-99.83" font-family="Helvetica,sans-Serif" font-size="14.00">src/follower.ts</text>
</g>
<!-- src/example&#45;app.ts&#45;&gt;src/follower.ts -->
<g id="edge31" class="edge">
<title>src/example&#45;app.ts&#45;&gt;src/follower.ts</title>
<path fill="none" stroke="#528b8b" stroke-width="2" d="M74.72,-253.35C89.05,-223.81 121.47,-165.68 167,-135.53 189.09,-120.9 217.18,-112.94 241.88,-108.62"/>
<polygon fill="#528b8b" stroke="#528b8b" stroke-width="2" points="242.55,-112.06 251.88,-107.03 241.45,-105.15 242.55,-112.06"/>
</g>
<!-- src/docValidators/es4.ts -->
<g id="node12" class="node">
<title>src/docValidators/es4.ts</title>
<path fill="#79cdcd" stroke="#79cdcd" d="M369.5,-1068.53C369.5,-1068.53 233.5,-1068.53 233.5,-1068.53 227.5,-1068.53 221.5,-1062.53 221.5,-1056.53 221.5,-1056.53 221.5,-1044.53 221.5,-1044.53 221.5,-1038.53 227.5,-1032.53 233.5,-1032.53 233.5,-1032.53 369.5,-1032.53 369.5,-1032.53 375.5,-1032.53 381.5,-1038.53 381.5,-1044.53 381.5,-1044.53 381.5,-1056.53 381.5,-1056.53 381.5,-1062.53 375.5,-1068.53 369.5,-1068.53"/>
<text text-anchor="middle" x="301.5" y="-1046.83" font-family="Helvetica,sans-Serif" font-size="14.00">src/docValidators/es4.ts</text>
</g>
<!-- src/example&#45;app.ts&#45;&gt;src/docValidators/es4.ts -->
<g id="edge28" class="edge">
<title>src/example&#45;app.ts&#45;&gt;src/docValidators/es4.ts</title>
<path fill="none" stroke="#528b8b" stroke-width="2" d="M70.89,-289.89C84.18,-345.09 125.62,-514.25 167,-652.53 209.05,-793.04 267.48,-958.57 290.56,-1022.97"/>
<polygon fill="#528b8b" stroke="#528b8b" stroke-width="2" points="287.28,-1024.19 293.95,-1032.42 293.86,-1021.82 287.28,-1024.19"/>
</g>
<!-- src/storage/storageAsync.ts -->
<g id="node13" class="node">
<title>src/storage/storageAsync.ts</title>
<path fill="#79cdcd" stroke="#79cdcd" d="M381,-534.53C381,-534.53 222,-534.53 222,-534.53 216,-534.53 210,-528.53 210,-522.53 210,-522.53 210,-510.53 210,-510.53 210,-504.53 216,-498.53 222,-498.53 222,-498.53 381,-498.53 381,-498.53 387,-498.53 393,-504.53 393,-510.53 393,-510.53 393,-522.53 393,-522.53 393,-528.53 387,-534.53 381,-534.53"/>
<text text-anchor="middle" x="301.5" y="-512.83" font-family="Helvetica,sans-Serif" font-size="14.00">src/storage/storageAsync.ts</text>
</g>
<!-- src/example&#45;app.ts&#45;&gt;src/storage/storageAsync.ts -->
<g id="edge30" class="edge">
<title>src/example&#45;app.ts&#45;&gt;src/storage/storageAsync.ts</title>
<path fill="none" stroke="#528b8b" stroke-width="2" d="M83.71,-289.55C124.78,-332.55 228.67,-441.33 276.15,-491.04"/>
<polygon fill="#528b8b" stroke="#528b8b" stroke-width="2" points="273.83,-493.67 283.27,-498.49 278.89,-488.84 273.83,-493.67"/>
</g>
<!-- src/storage/storageDriverAsyncMemory.ts -->
<g id="node14" class="node">
<title>src/storage/storageDriverAsyncMemory.ts</title>
<path fill="#79cdcd" stroke="#79cdcd" d="M424,-289.53C424,-289.53 179,-289.53 179,-289.53 173,-289.53 167,-283.53 167,-277.53 167,-277.53 167,-265.53 167,-265.53 167,-259.53 173,-253.53 179,-253.53 179,-253.53 424,-253.53 424,-253.53 430,-253.53 436,-259.53 436,-265.53 436,-265.53 436,-277.53 436,-277.53 436,-283.53 430,-289.53 424,-289.53"/>
<text text-anchor="middle" x="301.5" y="-267.83" font-family="Helvetica,sans-Serif" font-size="14.00">src/storage/storageDriverAsyncMemory.ts</text>
</g>
<!-- src/example&#45;app.ts&#45;&gt;src/storage/storageDriverAsyncMemory.ts -->
<g id="edge29" class="edge">
<title>src/example&#45;app.ts&#45;&gt;src/storage/storageDriverAsyncMemory.ts</title>
<path fill="none" stroke="#528b8b" stroke-width="2" d="M131.06,-271.53C139.22,-271.53 147.81,-271.53 156.61,-271.53"/>
<polygon fill="#528b8b" stroke="#528b8b" stroke-width="2" points="156.62,-275.03 166.62,-271.53 156.62,-268.03 156.62,-275.03"/>
</g>
<!-- src/example&#45;app.ts&#45;&gt;src/types/docTypes.ts -->
<g id="edge26" class="edge">
<title>src/example&#45;app.ts&#45;&gt;src/types/docTypes.ts</title>
<path fill="none" stroke="#528b8b" stroke-width="2" d="M67.56,-289.63C71.43,-338.49 89.03,-474.01 167,-543.53 299.83,-661.97 378.03,-638.53 556,-638.53 556,-638.53 556,-638.53 778,-638.53 916.34,-638.53 1077.07,-646.61 1172.17,-652.23"/>
<polygon fill="#528b8b" stroke="#528b8b" stroke-width="2" points="1172.11,-655.73 1182.3,-652.83 1172.53,-648.74 1172.11,-655.73"/>
</g>
<!-- src/util/log.ts -->
<g id="node23" class="node">
<title>src/util/log.ts</title>
<path fill="#79cdcd" stroke="#79cdcd" d="M591,-144.53C591,-144.53 523,-144.53 523,-144.53 517,-144.53 511,-138.53 511,-132.53 511,-132.53 511,-120.53 511,-120.53 511,-114.53 517,-108.53 523,-108.53 523,-108.53 591,-108.53 591,-108.53 597,-108.53 603,-114.53 603,-120.53 603,-120.53 603,-132.53 603,-132.53 603,-138.53 597,-144.53 591,-144.53"/>
<text text-anchor="middle" x="557" y="-122.83" font-family="Helvetica,sans-Serif" font-size="14.00">src/util/log.ts</text>
</g>
<!-- src/example&#45;app.ts&#45;&gt;src/util/log.ts -->
<g id="edge32" class="edge">
<title>src/example&#45;app.ts&#45;&gt;src/util/log.ts</title>
<path fill="none" stroke="#528b8b" stroke-width="2" d="M127.51,-253.46C223.7,-224.97 409.12,-170.04 501.26,-142.74"/>
<polygon fill="#528b8b" stroke="#528b8b" stroke-width="2" points="502.36,-146.07 510.95,-139.87 500.37,-139.36 502.36,-146.07"/>
</g>
<!-- src/util/misc.ts -->
<g id="node24" class="node">
<title>src/util/misc.ts</title>
<path fill="#79cdcd" stroke="#79cdcd" d="M1053.5,-298.53C1053.5,-298.53 975.5,-298.53 975.5,-298.53 969.5,-298.53 963.5,-292.53 963.5,-286.53 963.5,-286.53 963.5,-274.53 963.5,-274.53 963.5,-268.53 969.5,-262.53 975.5,-262.53 975.5,-262.53 1053.5,-262.53 1053.5,-262.53 1059.5,-262.53 1065.5,-268.53 1065.5,-274.53 1065.5,-274.53 1065.5,-286.53 1065.5,-286.53 1065.5,-292.53 1059.5,-298.53 1053.5,-298.53"/>
<text text-anchor="middle" x="1014.5" y="-276.83" font-family="Helvetica,sans-Serif" font-size="14.00">src/util/misc.ts</text>
</g>
<!-- src/example&#45;app.ts&#45;&gt;src/util/misc.ts -->
<g id="edge27" class="edge">
<title>src/example&#45;app.ts&#45;&gt;src/util/misc.ts</title>
<path fill="none" stroke="#528b8b" stroke-width="2" d="M69.76,-253.34C77.98,-213.43 103.59,-118.39 167,-76.53 343.37,39.9 438.5,2.51 642,-54.53 784.67,-94.52 926.94,-206.03 985.57,-255.89"/>
<polygon fill="#528b8b" stroke="#528b8b" stroke-width="2" points="983.4,-258.65 993.27,-262.5 987.96,-253.34 983.4,-258.65"/>
</g>
<!-- src/follower.ts&#45;&gt;src/types/docTypes.ts -->
<g id="edge34" class="edge">
<title>src/follower.ts&#45;&gt;src/types/docTypes.ts</title>
<path fill="none" stroke="#528b8b" stroke-width="2" d="M351.09,-86.28C384.58,-75.33 430.39,-62.19 472,-56.53 546.87,-46.34 567.9,-41.77 642,-56.53 698.04,-67.69 1077.91,-211.86 1117,-253.53 1170.43,-310.5 1229.42,-547.5 1248.6,-629.48"/>
<polygon fill="#528b8b" stroke="#528b8b" stroke-width="2" points="1245.22,-630.39 1250.89,-639.34 1252.04,-628.8 1245.22,-630.39"/>
</g>
<!-- src/types/queryTypes.ts -->
<g id="node18" class="node">
<title>src/types/queryTypes.ts</title>
<path fill="#79cdcd" stroke="#79cdcd" d="M844.5,-382.53C844.5,-382.53 709.5,-382.53 709.5,-382.53 703.5,-382.53 697.5,-376.53 697.5,-370.53 697.5,-370.53 697.5,-358.53 697.5,-358.53 697.5,-352.53 703.5,-346.53 709.5,-346.53 709.5,-346.53 844.5,-346.53 844.5,-346.53 850.5,-346.53 856.5,-352.53 856.5,-358.53 856.5,-358.53 856.5,-370.53 856.5,-370.53 856.5,-376.53 850.5,-382.53 844.5,-382.53"/>
<text text-anchor="middle" x="777" y="-360.83" font-family="Helvetica,sans-Serif" font-size="14.00">src/types/queryTypes.ts</text>
</g>
<!-- src/follower.ts&#45;&gt;src/types/queryTypes.ts -->
<g id="edge35" class="edge">
<title>src/follower.ts&#45;&gt;src/types/queryTypes.ts</title>
<path fill="none" stroke="#528b8b" stroke-width="2" d="M351.12,-85.61C423.15,-62.5 558.66,-32.68 642,-99.53 699.53,-145.68 643.31,-196.44 678,-261.53 694.44,-292.38 722.68,-320.61 744.63,-339.69"/>
<polygon fill="#528b8b" stroke="#528b8b" stroke-width="2" points="742.51,-342.48 752.4,-346.29 747.05,-337.15 742.51,-342.48"/>
</g>
<!-- src/types/storageTypes.ts -->
<g id="node19" class="node">
<title>src/types/storageTypes.ts</title>
<path fill="#79cdcd" stroke="#79cdcd" d="M630,-312.53C630,-312.53 484,-312.53 484,-312.53 478,-312.53 472,-306.53 472,-300.53 472,-300.53 472,-288.53 472,-288.53 472,-282.53 478,-276.53 484,-276.53 484,-276.53 630,-276.53 630,-276.53 636,-276.53 642,-282.53 642,-288.53 642,-288.53 642,-300.53 642,-300.53 642,-306.53 636,-312.53 630,-312.53"/>
<text text-anchor="middle" x="557" y="-290.83" font-family="Helvetica,sans-Serif" font-size="14.00">src/types/storageTypes.ts</text>
</g>
<!-- src/follower.ts&#45;&gt;src/types/storageTypes.ts -->
<g id="edge36" class="edge">
<title>src/follower.ts&#45;&gt;src/types/storageTypes.ts</title>
<path fill="none" stroke="#528b8b" stroke-width="2" d="M326.81,-121.84C372.71,-156.43 472.14,-231.34 523.63,-270.14"/>
<polygon fill="#528b8b" stroke="#528b8b" stroke-width="2" points="521.67,-273.05 531.77,-276.27 525.89,-267.46 521.67,-273.05"/>
</g>
<!-- src/types/utilTypes.ts -->
<g id="node20" class="node">
<title>src/types/utilTypes.ts</title>
<path fill="#79cdcd" stroke="#79cdcd" d="M1315.5,-298.53C1315.5,-298.53 1196.5,-298.53 1196.5,-298.53 1190.5,-298.53 1184.5,-292.53 1184.5,-286.53 1184.5,-286.53 1184.5,-274.53 1184.5,-274.53 1184.5,-268.53 1190.5,-262.53 1196.5,-262.53 1196.5,-262.53 1315.5,-262.53 1315.5,-262.53 1321.5,-262.53 1327.5,-268.53 1327.5,-274.53 1327.5,-274.53 1327.5,-286.53 1327.5,-286.53 1327.5,-292.53 1321.5,-298.53 1315.5,-298.53"/>
<text text-anchor="middle" x="1256" y="-276.83" font-family="Helvetica,sans-Serif" font-size="14.00">src/types/utilTypes.ts</text>
</g>
<!-- src/follower.ts&#45;&gt;src/types/utilTypes.ts -->
<g id="edge33" class="edge">
<title>src/follower.ts&#45;&gt;src/types/utilTypes.ts</title>
<path fill="none" stroke="#528b8b" stroke-width="2" d="M332.73,-85.49C365.66,-66.99 420.52,-39.41 472,-28.53 545.92,-12.91 567.66,-15.06 642,-28.53 871.01,-70.03 1120.81,-203.26 1215.58,-257.37"/>
<polygon fill="#528b8b" stroke="#528b8b" stroke-width="2" points="1214.11,-260.56 1224.53,-262.5 1217.6,-254.49 1214.11,-260.56"/>
</g>
<!-- src/follower.ts&#45;&gt;src/util/log.ts -->
<g id="edge37" class="edge">
<title>src/follower.ts&#45;&gt;src/util/log.ts</title>
<path fill="none" stroke="#528b8b" stroke-width="2" d="M351.08,-107.94C393.89,-111.82 456.23,-117.48 500.89,-121.53"/>
<polygon fill="#528b8b" stroke="#528b8b" stroke-width="2" points="500.71,-125.03 510.99,-122.45 501.35,-118.06 500.71,-125.03"/>
</g>
<!-- src/lock.ts -->
<g id="node4" class="node">
<title>src/lock.ts</title>
<path fill="#79cdcd" stroke="#79cdcd" d="M803.5,-252.53C803.5,-252.53 750.5,-252.53 750.5,-252.53 744.5,-252.53 738.5,-246.53 738.5,-240.53 738.5,-240.53 738.5,-228.53 738.5,-228.53 738.5,-222.53 744.5,-216.53 750.5,-216.53 750.5,-216.53 803.5,-216.53 803.5,-216.53 809.5,-216.53 815.5,-222.53 815.5,-228.53 815.5,-228.53 815.5,-240.53 815.5,-240.53 815.5,-246.53 809.5,-252.53 803.5,-252.53"/>
<text text-anchor="middle" x="777" y="-230.83" font-family="Helvetica,sans-Serif" font-size="14.00">src/lock.ts</text>
</g>
<!-- src/lock.ts&#45;&gt;src/util/misc.ts -->
<g id="edge38" class="edge">
<title>src/lock.ts&#45;&gt;src/util/misc.ts</title>
<path fill="none" stroke="#528b8b" stroke-width="2" d="M815.58,-241.87C852.68,-249.12 910.02,-260.32 953.45,-268.8"/>
<polygon fill="#528b8b" stroke="#528b8b" stroke-width="2" points="952.84,-272.25 963.32,-270.73 954.18,-265.38 952.84,-272.25"/>
</g>
<!-- src/query.ts -->
<g id="node5" class="node">
<title>src/query.ts</title>
<path fill="#79cdcd" stroke="#79cdcd" d="M588,-480.53C588,-480.53 526,-480.53 526,-480.53 520,-480.53 514,-474.53 514,-468.53 514,-468.53 514,-456.53 514,-456.53 514,-450.53 520,-444.53 526,-444.53 526,-444.53 588,-444.53 588,-444.53 594,-444.53 600,-450.53 600,-456.53 600,-456.53 600,-468.53 600,-468.53 600,-474.53 594,-480.53 588,-480.53"/>
<text text-anchor="middle" x="557" y="-458.83" font-family="Helvetica,sans-Serif" font-size="14.00">src/query.ts</text>
</g>
<!-- src/query.ts&#45;&gt;src/types/docTypes.ts -->
<g id="edge39" class="edge">
<title>src/query.ts&#45;&gt;src/types/docTypes.ts</title>
<path fill="none" stroke="#528b8b" stroke-width="2" d="M600.06,-468.09C694.6,-481.38 930.25,-519.05 1117,-586.53 1152.06,-599.2 1189.53,-618.91 1216.57,-634.36"/>
<polygon fill="#528b8b" stroke="#528b8b" stroke-width="2" points="1214.91,-637.44 1225.32,-639.41 1218.41,-631.38 1214.91,-637.44"/>
</g>
<!-- src/query.ts&#45;&gt;src/types/queryTypes.ts -->
<g id="edge40" class="edge">
<title>src/query.ts&#45;&gt;src/types/queryTypes.ts</title>
<path fill="none" stroke="#528b8b" stroke-width="2" d="M598.24,-444.44C634.3,-428.23 687.35,-404.38 726.1,-386.96"/>
<polygon fill="#528b8b" stroke="#528b8b" stroke-width="2" points="727.94,-389.97 735.63,-382.68 725.07,-383.59 727.94,-389.97"/>
</g>
<!-- src/query.ts&#45;&gt;src/util/misc.ts -->
<g id="edge41" class="edge">
<title>src/query.ts&#45;&gt;src/util/misc.ts</title>
<path fill="none" stroke="#528b8b" stroke-width="2" d="M600.03,-462.67C676.33,-462.1 833.65,-456.9 876,-424.53 909.9,-398.62 883.57,-367.35 912,-335.53 923.89,-322.23 939.79,-311.52 955.46,-303.22"/>
<polygon fill="#528b8b" stroke="#528b8b" stroke-width="2" points="957.27,-306.23 964.64,-298.61 954.13,-299.97 957.27,-306.23"/>
</g>
<!-- src/coreValidators/addresses.ts -->
<g id="node6" class="node">
<title>src/coreValidators/addresses.ts</title>
<path fill="#79cdcd" stroke="#79cdcd" d="M1105,-962.53C1105,-962.53 924,-962.53 924,-962.53 918,-962.53 912,-956.53 912,-950.53 912,-950.53 912,-938.53 912,-938.53 912,-932.53 918,-926.53 924,-926.53 924,-926.53 1105,-926.53 1105,-926.53 1111,-926.53 1117,-932.53 1117,-938.53 1117,-938.53 1117,-950.53 1117,-950.53 1117,-956.53 1111,-962.53 1105,-962.53"/>
<text text-anchor="middle" x="1014.5" y="-940.83" font-family="Helvetica,sans-Serif" font-size="14.00">src/coreValidators/addresses.ts</text>
</g>
<!-- src/coreValidators/characters.ts -->
<g id="node7" class="node">
<title>src/coreValidators/characters.ts</title>
<path fill="#79cdcd" stroke="#79cdcd" d="M1347,-1190.53C1347,-1190.53 1165,-1190.53 1165,-1190.53 1159,-1190.53 1153,-1184.53 1153,-1178.53 1153,-1178.53 1153,-1166.53 1153,-1166.53 1153,-1160.53 1159,-1154.53 1165,-1154.53 1165,-1154.53 1347,-1154.53 1347,-1154.53 1353,-1154.53 1359,-1160.53 1359,-1166.53 1359,-1166.53 1359,-1178.53 1359,-1178.53 1359,-1184.53 1353,-1190.53 1347,-1190.53"/>
<text text-anchor="middle" x="1256" y="-1168.83" font-family="Helvetica,sans-Serif" font-size="14.00">src/coreValidators/characters.ts</text>
</g>
<!-- src/coreValidators/addresses.ts&#45;&gt;src/coreValidators/characters.ts -->
<g id="edge5" class="edge">
<title>src/coreValidators/addresses.ts&#45;&gt;src/coreValidators/characters.ts</title>
<path fill="none" stroke="#528b8b" stroke-width="2" d="M1049.24,-962.7C1069.88,-974.63 1096.21,-991.34 1117,-1009.53 1165.41,-1051.9 1211.59,-1111.7 1236.32,-1145.85"/>
<polygon fill="#528b8b" stroke="#528b8b" stroke-width="2" points="1233.75,-1148.28 1242.43,-1154.36 1239.44,-1144.2 1233.75,-1148.28"/>
</g>
<!-- src/coreValidators/addresses.ts&#45;&gt;src/types/docTypes.ts -->
<g id="edge3" class="edge">
<title>src/coreValidators/addresses.ts&#45;&gt;src/types/docTypes.ts</title>
<path fill="none" stroke="#528b8b" stroke-width="2" d="M1048.65,-926.35C1069.82,-913.67 1096.95,-895.34 1117,-874.53 1174.16,-815.19 1220.62,-728.64 1242.11,-684.94"/>
<polygon fill="#528b8b" stroke="#528b8b" stroke-width="2" points="1245.33,-686.32 1246.55,-675.8 1239.03,-683.26 1245.33,-686.32"/>
</g>
<!-- src/coreValidators/addresses.ts&#45;&gt;src/util/errors.ts -->
<g id="edge4" class="edge">
<title>src/coreValidators/addresses.ts&#45;&gt;src/util/errors.ts</title>
<path fill="none" stroke="#528b8b" stroke-width="2" d="M1109.47,-962.58C1136.88,-967.84 1166.19,-973.47 1191.26,-978.29"/>
<polygon fill="#528b8b" stroke="#528b8b" stroke-width="2" points="1190.89,-981.78 1201.37,-980.23 1192.21,-974.91 1190.89,-981.78"/>
</g>
<!-- src/coreValidators/checkers.ts -->
<g id="node8" class="node">
<title>src/coreValidators/checkers.ts</title>
<path fill="#79cdcd" stroke="#79cdcd" d="M863.5,-1190.53C863.5,-1190.53 690.5,-1190.53 690.5,-1190.53 684.5,-1190.53 678.5,-1184.53 678.5,-1178.53 678.5,-1178.53 678.5,-1166.53 678.5,-1166.53 678.5,-1160.53 684.5,-1154.53 690.5,-1154.53 690.5,-1154.53 863.5,-1154.53 863.5,-1154.53 869.5,-1154.53 875.5,-1160.53 875.5,-1166.53 875.5,-1166.53 875.5,-1178.53 875.5,-1178.53 875.5,-1184.53 869.5,-1190.53 863.5,-1190.53"/>
<text text-anchor="middle" x="777" y="-1168.83" font-family="Helvetica,sans-Serif" font-size="14.00">src/coreValidators/checkers.ts</text>
</g>
<!-- src/coreValidators/checkers.ts&#45;&gt;src/coreValidators/characters.ts -->
<g id="edge6" class="edge">
<title>src/coreValidators/checkers.ts&#45;&gt;src/coreValidators/characters.ts</title>
<path fill="none" stroke="#528b8b" stroke-width="2" d="M875.68,-1172.53C953.18,-1172.53 1061.59,-1172.53 1142.67,-1172.53"/>
<polygon fill="#528b8b" stroke="#528b8b" stroke-width="2" points="1142.92,-1176.03 1152.92,-1172.53 1142.92,-1169.03 1142.92,-1176.03"/>
</g>
<!-- src/crypto/crypto.ts -->
<g id="node9" class="node">
<title>src/crypto/crypto.ts</title>
<path fill="#79cdcd" stroke="#79cdcd" d="M610,-832.53C610,-832.53 504,-832.53 504,-832.53 498,-832.53 492,-826.53 492,-820.53 492,-820.53 492,-808.53 492,-808.53 492,-802.53 498,-796.53 504,-796.53 504,-796.53 610,-796.53 610,-796.53 616,-796.53 622,-802.53 622,-808.53 622,-808.53 622,-820.53 622,-820.53 622,-826.53 616,-832.53 610,-832.53"/>
<text text-anchor="middle" x="557" y="-810.83" font-family="Helvetica,sans-Serif" font-size="14.00">src/crypto/crypto.ts</text>
</g>
<!-- src/crypto/crypto.ts&#45;&gt;src/base32.ts -->
<g id="edge11" class="edge">
<title>src/crypto/crypto.ts&#45;&gt;src/base32.ts</title>
<path fill="none" stroke="#528b8b" stroke-width="2" d="M622.01,-831.68C639.99,-835.75 659.64,-839.49 678,-841.53 765.46,-851.25 788.41,-850.05 876,-841.53 902.49,-838.95 931.46,-833.65 955.95,-828.41"/>
<polygon fill="#528b8b" stroke="#528b8b" stroke-width="2" points="956.77,-831.82 965.79,-826.26 955.28,-824.98 956.77,-831.82"/>
</g>
<!-- src/crypto/crypto.ts&#45;&gt;src/coreValidators/addresses.ts -->
<g id="edge13" class="edge">
<title>src/crypto/crypto.ts&#45;&gt;src/coreValidators/addresses.ts</title>
<path fill="none" stroke="#528b8b" stroke-width="2" d="M603.79,-832.55C626.01,-840.98 653.21,-850.83 678,-858.53 760.51,-884.16 856.09,-908.11 924.07,-924.19"/>
<polygon fill="#528b8b" stroke="#528b8b" stroke-width="2" points="923.36,-927.62 933.9,-926.51 924.97,-920.81 923.36,-927.62"/>
</g>
<!-- src/crypto/cryptoDriverNode.ts -->
<g id="node10" class="node">
<title>src/crypto/cryptoDriverNode.ts</title>
<path fill="#79cdcd" stroke="#79cdcd" d="M864,-740.53C864,-740.53 690,-740.53 690,-740.53 684,-740.53 678,-734.53 678,-728.53 678,-728.53 678,-716.53 678,-716.53 678,-710.53 684,-704.53 690,-704.53 690,-704.53 864,-704.53 864,-704.53 870,-704.53 876,-710.53 876,-716.53 876,-716.53 876,-728.53 876,-728.53 876,-734.53 870,-740.53 864,-740.53"/>
<text text-anchor="middle" x="777" y="-718.83" font-family="Helvetica,sans-Serif" font-size="14.00">src/crypto/cryptoDriverNode.ts</text>
</g>
<!-- src/crypto/crypto.ts&#45;&gt;src/crypto/cryptoDriverNode.ts -->
<g id="edge7" class="edge">
<title>src/crypto/crypto.ts&#45;&gt;src/crypto/cryptoDriverNode.ts</title>
<path fill="none" stroke="#528b8b" stroke-width="2" d="M590.75,-796.5C614.54,-783.82 647.73,-766.96 678,-754.53 687.06,-750.81 696.73,-747.21 706.34,-743.86"/>
<polygon fill="#528b8b" stroke="#528b8b" stroke-width="2" points="707.56,-747.15 715.89,-740.6 705.3,-740.52 707.56,-747.15"/>
</g>
<!-- src/crypto/keypair.ts -->
<g id="node11" class="node">
<title>src/crypto/keypair.ts</title>
<path fill="#79cdcd" stroke="#79cdcd" d="M833.5,-832.53C833.5,-832.53 720.5,-832.53 720.5,-832.53 714.5,-832.53 708.5,-826.53 708.5,-820.53 708.5,-820.53 708.5,-808.53 708.5,-808.53 708.5,-802.53 714.5,-796.53 720.5,-796.53 720.5,-796.53 833.5,-796.53 833.5,-796.53 839.5,-796.53 845.5,-802.53 845.5,-808.53 845.5,-808.53 845.5,-820.53 845.5,-820.53 845.5,-826.53 839.5,-832.53 833.5,-832.53"/>
<text text-anchor="middle" x="777" y="-810.83" font-family="Helvetica,sans-Serif" font-size="14.00">src/crypto/keypair.ts</text>
</g>
<!-- src/crypto/crypto.ts&#45;&gt;src/crypto/keypair.ts -->
<g id="edge12" class="edge">
<title>src/crypto/crypto.ts&#45;&gt;src/crypto/keypair.ts</title>
<path fill="none" stroke="#528b8b" stroke-width="2" d="M622.23,-814.53C646.07,-814.53 673.37,-814.53 698.29,-814.53"/>
<polygon fill="#528b8b" stroke="#528b8b" stroke-width="2" points="698.44,-818.03 708.44,-814.53 698.44,-811.03 698.44,-818.03"/>
</g>
<!-- src/types/cryptoTypes.ts -->
<g id="node15" class="node">
<title>src/types/cryptoTypes.ts</title>
<path fill="#79cdcd" stroke="#79cdcd" d="M1083.5,-740.53C1083.5,-740.53 945.5,-740.53 945.5,-740.53 939.5,-740.53 933.5,-734.53 933.5,-728.53 933.5,-728.53 933.5,-716.53 933.5,-716.53 933.5,-710.53 939.5,-704.53 945.5,-704.53 945.5,-704.53 1083.5,-704.53 1083.5,-704.53 1089.5,-704.53 1095.5,-710.53 1095.5,-716.53 1095.5,-716.53 1095.5,-728.53 1095.5,-728.53 1095.5,-734.53 1089.5,-740.53 1083.5,-740.53"/>
<text text-anchor="middle" x="1014.5" y="-718.83" font-family="Helvetica,sans-Serif" font-size="14.00">src/types/cryptoTypes.ts</text>
</g>
<!-- src/crypto/crypto.ts&#45;&gt;src/types/cryptoTypes.ts -->
<g id="edge9" class="edge">
<title>src/crypto/crypto.ts&#45;&gt;src/types/cryptoTypes.ts</title>
<path fill="none" stroke="#528b8b" stroke-width="2" d="M622.06,-799.72C640.13,-795.65 659.81,-791.32 678,-787.53 765.72,-769.25 788.04,-766.61 876,-749.53 891.18,-746.58 907.3,-743.43 922.96,-740.37"/>
<polygon fill="#528b8b" stroke="#528b8b" stroke-width="2" points="924.03,-743.72 933.17,-738.36 922.68,-736.85 924.03,-743.72"/>
</g>
<!-- src/crypto/crypto.ts&#45;&gt;src/types/docTypes.ts -->
<g id="edge8" class="edge">
<title>src/crypto/crypto.ts&#45;&gt;src/types/docTypes.ts</title>
<path fill="none" stroke="#528b8b" stroke-width="2" d="M569.77,-796.4C588.76,-768.92 629.05,-717.59 678,-695.53 763.94,-656.79 1034.31,-654.44 1172.26,-655.94"/>
<polygon fill="#528b8b" stroke="#528b8b" stroke-width="2" points="1172.33,-659.44 1182.37,-656.06 1172.41,-652.44 1172.33,-659.44"/>
</g>
<!-- src/crypto/crypto.ts&#45;&gt;src/util/errors.ts -->
<g id="edge10" class="edge">
<title>src/crypto/crypto.ts&#45;&gt;src/util/errors.ts</title>
<path fill="none" stroke="#528b8b" stroke-width="2" d="M579.7,-832.84C602.79,-851.55 641.02,-880.37 678,-898.53 775.78,-946.56 804.79,-952.15 912,-971.53 1008.15,-988.92 1121.72,-991.83 1191.03,-991.68"/>
<polygon fill="#528b8b" stroke="#528b8b" stroke-width="2" points="1191.36,-995.17 1201.35,-991.63 1191.33,-988.17 1191.36,-995.17"/>
</g>
<!-- src/crypto/cryptoDriverNode.ts&#45;&gt;src/types/cryptoTypes.ts -->
<g id="edge14" class="edge">
<title>src/crypto/cryptoDriverNode.ts&#45;&gt;src/types/cryptoTypes.ts</title>
<path fill="none" stroke="#528b8b" stroke-width="2" d="M876.17,-722.53C891.8,-722.53 907.91,-722.53 923.34,-722.53"/>
<polygon fill="#528b8b" stroke="#528b8b" stroke-width="2" points="923.38,-726.03 933.38,-722.53 923.38,-719.03 923.38,-726.03"/>
</g>
<!-- src/crypto/keypair.ts&#45;&gt;src/base32.ts -->
<g id="edge17" class="edge">
<title>src/crypto/keypair.ts&#45;&gt;src/base32.ts</title>
<path fill="none" stroke="#528b8b" stroke-width="2" d="M845.8,-814.53C880.65,-814.53 922.66,-814.53 955.92,-814.53"/>
<polygon fill="#528b8b" stroke="#528b8b" stroke-width="2" points="955.94,-818.03 965.94,-814.53 955.94,-811.03 955.94,-818.03"/>
</g>
<!-- src/crypto/keypair.ts&#45;&gt;src/coreValidators/addresses.ts -->
<g id="edge19" class="edge">
<title>src/crypto/keypair.ts&#45;&gt;src/coreValidators/addresses.ts</title>
<path fill="none" stroke="#528b8b" stroke-width="2" d="M804,-832.67C823.87,-846.64 851.86,-866.53 876,-884.53 892.25,-896.65 894.05,-903.11 912,-912.53 919.35,-916.39 927.25,-919.88 935.27,-923.01"/>
<polygon fill="#528b8b" stroke="#528b8b" stroke-width="2" points="934.13,-926.32 944.72,-926.52 936.57,-919.75 934.13,-926.32"/>
</g>
<!-- src/crypto/keypair.ts&#45;&gt;src/types/cryptoTypes.ts -->
<g id="edge18" class="edge">
<title>src/crypto/keypair.ts&#45;&gt;src/types/cryptoTypes.ts</title>
<path fill="none" stroke="#528b8b" stroke-width="2" d="M843.88,-796.5C854.88,-792.52 865.96,-787.86 876,-782.53 893.9,-773.02 894.05,-763.95 912,-754.53 919.35,-750.67 927.25,-747.19 935.27,-744.05"/>
<polygon fill="#528b8b" stroke="#528b8b" stroke-width="2" points="936.57,-747.31 944.72,-740.54 934.13,-740.74 936.57,-747.31"/>
</g>
<!-- src/crypto/keypair.ts&#45;&gt;src/types/docTypes.ts -->
<g id="edge15" class="edge">
<title>src/crypto/keypair.ts&#45;&gt;src/types/docTypes.ts</title>
<path fill="none" stroke="#528b8b" stroke-width="2" d="M845.78,-800.66C866.98,-796.38 890.45,-791.7 912,-787.53 1002.98,-769.93 1031.14,-784.39 1117,-749.53 1157.69,-733.01 1198.87,-703.53 1225.52,-682.39"/>
<polygon fill="#528b8b" stroke="#528b8b" stroke-width="2" points="1228.05,-684.84 1233.64,-675.84 1223.66,-679.39 1228.05,-684.84"/>
</g>
<!-- src/crypto/keypair.ts&#45;&gt;src/util/errors.ts -->
<g id="edge16" class="edge">
<title>src/crypto/keypair.ts&#45;&gt;src/util/errors.ts</title>
<path fill="none" stroke="#528b8b" stroke-width="2" d="M845.57,-830.97C914.96,-848.8 1025.43,-879.81 1117,-917.53 1151.56,-931.77 1188.93,-951.85 1216.06,-967.35"/>
<polygon fill="#528b8b" stroke="#528b8b" stroke-width="2" points="1214.44,-970.45 1224.85,-972.41 1217.93,-964.39 1214.44,-970.45"/>
</g>
<!-- src/docValidators/es4.ts&#45;&gt;src/coreValidators/characters.ts -->
<g id="edge23" class="edge">
<title>src/docValidators/es4.ts&#45;&gt;src/coreValidators/characters.ts</title>
<path fill="none" stroke="#528b8b" stroke-width="2" d="M322.09,-1068.8C351.94,-1095.48 411.7,-1144.53 472,-1168.53 707.51,-1262.26 1015.35,-1221.57 1165.21,-1192.55"/>
<polygon fill="#528b8b" stroke="#528b8b" stroke-width="2" points="1166.15,-1195.93 1175.28,-1190.57 1164.8,-1189.06 1166.15,-1195.93"/>
</g>
<!-- src/docValidators/es4.ts&#45;&gt;src/coreValidators/checkers.ts -->
<g id="edge24" class="edge">
<title>src/docValidators/es4.ts&#45;&gt;src/coreValidators/checkers.ts</title>
<path fill="none" stroke="#528b8b" stroke-width="2" d="M328.69,-1068.57C360.86,-1089.72 417.83,-1123.98 472,-1140.53 535.33,-1159.88 609.15,-1167.97 668.19,-1171.18"/>
<polygon fill="#528b8b" stroke="#528b8b" stroke-width="2" points="668.11,-1174.68 678.28,-1171.69 668.47,-1167.69 668.11,-1174.68"/>
</g>
<!-- src/docValidators/es4.ts&#45;&gt;src/crypto/crypto.ts -->
<g id="edge25" class="edge">
<title>src/docValidators/es4.ts&#45;&gt;src/crypto/crypto.ts</title>
<path fill="none" stroke="#528b8b" stroke-width="2" d="M321.97,-1032.4C366.85,-990.62 477.66,-887.46 529.04,-839.63"/>
<polygon fill="#528b8b" stroke="#528b8b" stroke-width="2" points="531.53,-842.09 536.46,-832.72 526.76,-836.97 531.53,-842.09"/>
</g>
<!-- src/docValidators/es4.ts&#45;&gt;src/types/docTypes.ts -->
<g id="edge20" class="edge">
<title>src/docValidators/es4.ts&#45;&gt;src/types/docTypes.ts</title>
<path fill="none" stroke="#528b8b" stroke-width="2" d="M381.65,-1033.36C574.05,-991.19 1055.06,-882.93 1117,-841.53 1177.39,-801.16 1221.64,-725.25 1242.19,-684.7"/>
<polygon fill="#528b8b" stroke="#528b8b" stroke-width="2" points="1245.36,-686.18 1246.67,-675.66 1239.09,-683.07 1245.36,-686.18"/>
</g>
<!-- src/types/docValidatorTypes.ts -->
<g id="node17" class="node">
<title>src/types/docValidatorTypes.ts</title>
<path fill="#79cdcd" stroke="#79cdcd" d="M1102.5,-1054.53C1102.5,-1054.53 926.5,-1054.53 926.5,-1054.53 920.5,-1054.53 914.5,-1048.53 914.5,-1042.53 914.5,-1042.53 914.5,-1030.53 914.5,-1030.53 914.5,-1024.53 920.5,-1018.53 926.5,-1018.53 926.5,-1018.53 1102.5,-1018.53 1102.5,-1018.53 1108.5,-1018.53 1114.5,-1024.53 1114.5,-1030.53 1114.5,-1030.53 1114.5,-1042.53 1114.5,-1042.53 1114.5,-1048.53 1108.5,-1054.53 1102.5,-1054.53"/>
<text text-anchor="middle" x="1014.5" y="-1032.83" font-family="Helvetica,sans-Serif" font-size="14.00">src/types/docValidatorTypes.ts</text>
</g>
<!-- src/docValidators/es4.ts&#45;&gt;src/types/docValidatorTypes.ts -->
<g id="edge21" class="edge">
<title>src/docValidators/es4.ts&#45;&gt;src/types/docValidatorTypes.ts</title>
<path fill="none" stroke="#528b8b" stroke-width="2" d="M381.65,-1048.97C508.99,-1046.46 759.65,-1041.53 904.04,-1038.69"/>
<polygon fill="#528b8b" stroke="#528b8b" stroke-width="2" points="904.32,-1042.18 914.25,-1038.48 904.18,-1035.18 904.32,-1042.18"/>
</g>
<!-- src/docValidators/es4.ts&#45;&gt;src/util/errors.ts -->
<g id="edge22" class="edge">
<title>src/docValidators/es4.ts&#45;&gt;src/util/errors.ts</title>
<path fill="none" stroke="#528b8b" stroke-width="2" d="M381.54,-1063.45C558.8,-1091.15 983.04,-1150.05 1117,-1102.53 1164.91,-1085.54 1208.3,-1044.03 1233.16,-1016.6"/>
<polygon fill="#528b8b" stroke="#528b8b" stroke-width="2" points="1235.94,-1018.73 1239.96,-1008.93 1230.71,-1014.09 1235.94,-1018.73"/>
</g>
<!-- src/storage/storageAsync.ts&#45;&gt;src/crypto/crypto.ts -->
<g id="edge50" class="edge">
<title>src/storage/storageAsync.ts&#45;&gt;src/crypto/crypto.ts</title>
<path fill="none" stroke="#528b8b" stroke-width="2" d="M317.98,-534.72C361.2,-585.53 483.33,-729.11 533.78,-788.41"/>
<polygon fill="#528b8b" stroke="#528b8b" stroke-width="2" points="531.26,-790.85 540.4,-796.2 536.59,-786.31 531.26,-790.85"/>
</g>
<!-- src/storage/storageAsync.ts&#45;&gt;src/types/docTypes.ts -->
<g id="edge43" class="edge">
<title>src/storage/storageAsync.ts&#45;&gt;src/types/docTypes.ts</title>
<path fill="none" stroke="#528b8b" stroke-width="2" d="M343.75,-534.62C377.54,-548.58 426.94,-567.06 472,-576.53 753.31,-635.68 832.96,-580.29 1117,-624.53 1137.39,-627.71 1159.22,-632.34 1179.36,-637.13"/>
<polygon fill="#528b8b" stroke="#528b8b" stroke-width="2" points="1178.55,-640.54 1189.1,-639.49 1180.2,-633.74 1178.55,-640.54"/>
</g>
<!-- src/storage/storageAsync.ts&#45;&gt;src/types/docValidatorTypes.ts -->
<g id="edge46" class="edge">
<title>src/storage/storageAsync.ts&#45;&gt;src/types/docValidatorTypes.ts</title>
<path fill="none" stroke="#528b8b" stroke-width="2" d="M307.62,-534.76C323.51,-588.34 376.66,-747.44 472,-841.53 590.29,-958.27 783.45,-1005.63 904.26,-1024.48"/>
<polygon fill="#528b8b" stroke="#528b8b" stroke-width="2" points="903.86,-1027.96 914.27,-1026.01 904.91,-1021.04 903.86,-1027.96"/>
</g>
<!-- src/storage/storageAsync.ts&#45;&gt;src/types/queryTypes.ts -->
<g id="edge44" class="edge">
<title>src/storage/storageAsync.ts&#45;&gt;src/types/queryTypes.ts</title>
<path fill="none" stroke="#528b8b" stroke-width="2" d="M322.64,-498.27C352.71,-472.18 412.22,-424.91 472,-402.53 541.36,-376.56 625.21,-367.6 687.26,-364.83"/>
<polygon fill="#528b8b" stroke="#528b8b" stroke-width="2" points="687.57,-368.32 697.42,-364.42 687.29,-361.33 687.57,-368.32"/>
</g>
<!-- src/storage/storageAsync.ts&#45;&gt;src/types/storageTypes.ts -->
<g id="edge45" class="edge">
<title>src/storage/storageAsync.ts&#45;&gt;src/types/storageTypes.ts</title>
<path fill="none" stroke="#528b8b" stroke-width="2" d="M322.13,-498.51C353.49,-469.81 416.98,-412.1 472,-364.53 489.61,-349.31 509.62,-332.61 525.7,-319.34"/>
<polygon fill="#528b8b" stroke="#528b8b" stroke-width="2" points="528.22,-321.8 533.71,-312.74 523.76,-316.39 528.22,-321.8"/>
</g>
<!-- src/storage/storageAsync.ts&#45;&gt;src/types/utilTypes.ts -->
<g id="edge42" class="edge">
<title>src/storage/storageAsync.ts&#45;&gt;src/types/utilTypes.ts</title>
<path fill="none" stroke="#528b8b" stroke-width="2" d="M393.23,-533.69C418.62,-537.75 446.31,-541.5 472,-543.53 547.32,-549.49 566.85,-551.31 642,-543.53 747.69,-532.58 776.56,-531.98 876,-494.53 1011.41,-443.53 1156.31,-349.09 1220.73,-304.73"/>
<polygon fill="#528b8b" stroke="#528b8b" stroke-width="2" points="1223.05,-307.38 1229.28,-298.81 1219.06,-301.63 1223.05,-307.38"/>
</g>
<!-- src/util/compare.ts -->
<g id="node21" class="node">
<title>src/util/compare.ts</title>
<path fill="#79cdcd" stroke="#79cdcd" d="M608.5,-534.53C608.5,-534.53 505.5,-534.53 505.5,-534.53 499.5,-534.53 493.5,-528.53 493.5,-522.53 493.5,-522.53 493.5,-510.53 493.5,-510.53 493.5,-504.53 499.5,-498.53 505.5,-498.53 505.5,-498.53 608.5,-498.53 608.5,-498.53 614.5,-498.53 620.5,-504.53 620.5,-510.53 620.5,-510.53 620.5,-522.53 620.5,-522.53 620.5,-528.53 614.5,-534.53 608.5,-534.53"/>
<text text-anchor="middle" x="557" y="-512.83" font-family="Helvetica,sans-Serif" font-size="14.00">src/util/compare.ts</text>
</g>
<!-- src/storage/storageAsync.ts&#45;&gt;src/util/compare.ts -->
<g id="edge49" class="edge">
<title>src/storage/storageAsync.ts&#45;&gt;src/util/compare.ts</title>
<path fill="none" stroke="#528b8b" stroke-width="2" d="M393.3,-516.53C422.78,-516.53 455.09,-516.53 483.1,-516.53"/>
<polygon fill="#528b8b" stroke="#528b8b" stroke-width="2" points="483.21,-520.03 493.21,-516.53 483.21,-513.03 483.21,-520.03"/>
</g>
<!-- src/storage/storageAsync.ts&#45;&gt;src/util/errors.ts -->
<g id="edge47" class="edge">
<title>src/storage/storageAsync.ts&#45;&gt;src/util/errors.ts</title>
<path fill="none" stroke="#528b8b" stroke-width="2" d="M305.6,-534.71C316.86,-595.56 360.91,-794.72 472,-909.53 676.95,-1121.33 830.95,-1134.53 1117,-1063.53 1155.29,-1054.03 1194.65,-1031.73 1221.48,-1014.26"/>
<polygon fill="#528b8b" stroke="#528b8b" stroke-width="2" points="1223.69,-1017 1230.08,-1008.55 1219.82,-1011.17 1223.69,-1017"/>
</g>
<!-- src/storage/storageAsync.ts&#45;&gt;src/util/log.ts -->
<g id="edge51" class="edge">
<title>src/storage/storageAsync.ts&#45;&gt;src/util/log.ts</title>
<path fill="none" stroke="#528b8b" stroke-width="2" d="M314.22,-498.5C354.92,-435.88 490.32,-227.57 538.66,-153.2"/>
<polygon fill="#528b8b" stroke="#528b8b" stroke-width="2" points="541.6,-155.11 544.11,-144.82 535.73,-151.29 541.6,-155.11"/>
</g>
<!-- src/storage/storageAsync.ts&#45;&gt;src/util/misc.ts -->
<g id="edge48" class="edge">
<title>src/storage/storageAsync.ts&#45;&gt;src/util/misc.ts</title>
<path fill="none" stroke="#528b8b" stroke-width="2" d="M332.2,-498.51C365.12,-479.47 420.4,-450.21 472,-435.53 558.86,-410.82 799.2,-439.04 876,-391.53 901.16,-375.96 890.31,-355.66 912,-335.53 925.95,-322.59 943.5,-311.68 960.08,-303.08"/>
<polygon fill="#528b8b" stroke="#528b8b" stroke-width="2" points="961.78,-306.15 969.16,-298.54 958.65,-299.89 961.78,-306.15"/>
</g>
<!-- src/storage/storageDriverAsyncMemory.ts&#45;&gt;src/lock.ts -->
<g id="edge58" class="edge">
<title>src/storage/storageDriverAsyncMemory.ts&#45;&gt;src/lock.ts</title>
<path fill="none" stroke="#528b8b" stroke-width="2" d="M369.18,-253.5C400.19,-246.02 437.71,-238.23 472,-234.53 562.09,-224.81 668.08,-228.13 728.12,-231.37"/>
<polygon fill="#528b8b" stroke="#528b8b" stroke-width="2" points="728.24,-234.88 738.42,-231.95 728.63,-227.89 728.24,-234.88"/>
</g>
<!-- src/storage/storageDriverAsyncMemory.ts&#45;&gt;src/query.ts -->
<g id="edge57" class="edge">
<title>src/storage/storageDriverAsyncMemory.ts&#45;&gt;src/query.ts</title>
<path fill="none" stroke="#528b8b" stroke-width="2" d="M326.81,-289.84C372.71,-324.43 472.14,-399.34 523.63,-438.14"/>
<polygon fill="#528b8b" stroke="#528b8b" stroke-width="2" points="521.67,-441.05 531.77,-444.27 525.89,-435.46 521.67,-441.05"/>
</g>
<!-- src/storage/storageDriverAsyncMemory.ts&#45;&gt;src/types/docTypes.ts -->
<g id="edge53" class="edge">
<title>src/storage/storageDriverAsyncMemory.ts&#45;&gt;src/types/docTypes.ts</title>
<path fill="none" stroke="#528b8b" stroke-width="2" d="M436.19,-268.08C448.3,-267.86 460.37,-267.67 472,-267.53 547.55,-266.64 566.57,-263.19 642,-267.53 746.52,-273.54 776.9,-260.78 876,-294.53 935.16,-314.68 1072.31,-395.84 1117,-439.53 1176.41,-497.6 1222.17,-585.96 1242.88,-630.23"/>
<polygon fill="#528b8b" stroke="#528b8b" stroke-width="2" points="1239.78,-631.87 1247.14,-639.49 1246.14,-628.94 1239.78,-631.87"/>
</g>
<!-- src/storage/storageDriverAsyncMemory.ts&#45;&gt;src/types/queryTypes.ts -->
<g id="edge54" class="edge">
<title>src/storage/storageDriverAsyncMemory.ts&#45;&gt;src/types/queryTypes.ts</title>
<path fill="none" stroke="#528b8b" stroke-width="2" d="M356.18,-289.56C389.26,-300.11 432.72,-313.01 472,-321.53 543.8,-337.11 626.4,-348.38 687.37,-355.46"/>
<polygon fill="#528b8b" stroke="#528b8b" stroke-width="2" points="687.01,-358.94 697.34,-356.6 687.8,-351.99 687.01,-358.94"/>
</g>
<!-- src/storage/storageDriverAsyncMemory.ts&#45;&gt;src/types/storageTypes.ts -->
<g id="edge55" class="edge">
<title>src/storage/storageDriverAsyncMemory.ts&#45;&gt;src/types/storageTypes.ts</title>
<path fill="none" stroke="#528b8b" stroke-width="2" d="M436.3,-283.67C444.85,-284.45 453.35,-285.22 461.66,-285.97"/>
<polygon fill="#528b8b" stroke="#528b8b" stroke-width="2" points="461.4,-289.46 471.68,-286.88 462.03,-282.49 461.4,-289.46"/>
</g>
<!-- src/storage/storageDriverAsyncMemory.ts&#45;&gt;src/types/utilTypes.ts -->
<g id="edge52" class="edge">
<title>src/storage/storageDriverAsyncMemory.ts&#45;&gt;src/types/utilTypes.ts</title>
<path fill="none" stroke="#528b8b" stroke-width="2" d="M356.06,-253.41C389.1,-242.98 432.56,-230.57 472,-223.53 562.4,-207.38 586.24,-211.09 678,-207.53 765.93,-204.12 788.39,-199.24 876,-207.53 984.56,-217.8 1009.94,-232.84 1117,-253.53 1135.59,-257.12 1155.58,-261.02 1174.42,-264.7"/>
<polygon fill="#528b8b" stroke="#528b8b" stroke-width="2" points="1173.97,-268.18 1184.45,-266.66 1175.31,-261.31 1173.97,-268.18"/>
</g>
<!-- src/storage/storageDriverAsyncMemory.ts&#45;&gt;src/util/compare.ts -->
<g id="edge56" class="edge">
<title>src/storage/storageDriverAsyncMemory.ts&#45;&gt;src/util/compare.ts</title>
<path fill="none" stroke="#528b8b" stroke-width="2" d="M311.68,-289.74C333.58,-331.4 393.04,-434.29 472,-489.53 475.77,-492.17 479.82,-494.56 484.02,-496.73"/>
<polygon fill="#528b8b" stroke="#528b8b" stroke-width="2" points="482.88,-500.06 493.42,-501.12 485.84,-493.72 482.88,-500.06"/>
</g>
<!-- src/storage/storageDriverAsyncMemory.ts&#45;&gt;src/util/log.ts -->
<g id="edge59" class="edge">
<title>src/storage/storageDriverAsyncMemory.ts&#45;&gt;src/util/log.ts</title>
<path fill="none" stroke="#528b8b" stroke-width="2" d="M325.87,-253.47C357.64,-229.52 416.83,-186.97 472,-158.53 481.25,-153.76 491.38,-149.31 501.31,-145.32"/>
<polygon fill="#528b8b" stroke="#528b8b" stroke-width="2" points="502.68,-148.55 510.72,-141.66 500.14,-142.02 502.68,-148.55"/>
</g>
<!-- src/types/cryptoTypes.ts&#45;&gt;src/types/docTypes.ts -->
<g id="edge60" class="edge">
<title>src/types/cryptoTypes.ts&#45;&gt;src/types/docTypes.ts</title>
<path fill="none" stroke="#528b8b" stroke-width="2" d="M1081.9,-704.51C1111.88,-696.37 1147.46,-686.72 1178.55,-678.28"/>
<polygon fill="#528b8b" stroke="#528b8b" stroke-width="2" points="1179.74,-681.58 1188.47,-675.59 1177.91,-674.83 1179.74,-681.58"/>
</g>
<!-- src/types/docValidatorTypes.ts&#45;&gt;src/types/docTypes.ts -->
<g id="edge61" class="edge">
<title>src/types/docValidatorTypes.ts&#45;&gt;src/types/docTypes.ts</title>
<path fill="none" stroke="#528b8b" stroke-width="2" d="M1054.68,-1018.5C1075.4,-1007.37 1100,-991.41 1117,-971.53 1193.16,-882.5 1233.77,-744.84 1248.48,-685.89"/>
<polygon fill="#528b8b" stroke="#528b8b" stroke-width="2" points="1251.97,-686.38 1250.93,-675.83 1245.17,-684.72 1251.97,-686.38"/>
</g>
<!-- src/types/docValidatorTypes.ts&#45;&gt;src/util/errors.ts -->
<g id="edge62" class="edge">
<title>src/types/docValidatorTypes.ts&#45;&gt;src/util/errors.ts</title>
<path fill="none" stroke="#528b8b" stroke-width="2" d="M1109.47,-1018.48C1136.88,-1013.22 1166.19,-1007.59 1191.26,-1002.77"/>
<polygon fill="#528b8b" stroke="#528b8b" stroke-width="2" points="1192.21,-1006.15 1201.37,-1000.83 1190.89,-999.28 1192.21,-1006.15"/>
</g>
<!-- src/types/queryTypes.ts&#45;&gt;src/types/docTypes.ts -->
<g id="edge63" class="edge">
<title>src/types/queryTypes.ts&#45;&gt;src/types/docTypes.ts</title>
<path fill="none" stroke="#528b8b" stroke-width="2" d="M795.03,-382.57C819.04,-407.08 865.18,-450.91 912,-477.53 995.82,-525.19 1032.43,-502.22 1117,-548.53 1159.47,-571.78 1202.28,-608.06 1228.71,-632.3"/>
<polygon fill="#528b8b" stroke="#528b8b" stroke-width="2" points="1226.66,-635.17 1236.37,-639.41 1231.42,-630.04 1226.66,-635.17"/>
</g>
<!-- src/types/storageTypes.ts&#45;&gt;src/lock.ts -->
<g id="edge66" class="edge">
<title>src/types/storageTypes.ts&#45;&gt;src/lock.ts</title>
<path fill="none" stroke="#528b8b" stroke-width="2" d="M623.41,-276.53C657.1,-267.26 697.44,-256.15 728.18,-247.69"/>
<polygon fill="#528b8b" stroke="#528b8b" stroke-width="2" points="729.5,-250.96 738.22,-244.93 727.65,-244.21 729.5,-250.96"/>
</g>
<!-- src/types/storageTypes.ts&#45;&gt;src/types/docTypes.ts -->
<g id="edge64" class="edge">
<title>src/types/storageTypes.ts&#45;&gt;src/types/docTypes.ts</title>
<path fill="none" stroke="#528b8b" stroke-width="2" d="M642.12,-296.19C724.04,-299.49 841.16,-309.18 876,-337.53 913.29,-367.87 875.46,-408.29 912,-439.53 982.43,-499.75 1038,-429.1 1117,-477.53 1178.07,-514.97 1222.03,-590.09 1242.36,-630.44"/>
<polygon fill="#528b8b" stroke="#528b8b" stroke-width="2" points="1239.23,-632.01 1246.79,-639.43 1245.51,-628.92 1239.23,-632.01"/>
</g>
<!-- src/types/storageTypes.ts&#45;&gt;src/types/queryTypes.ts -->
<g id="edge65" class="edge">
<title>src/types/storageTypes.ts&#45;&gt;src/types/queryTypes.ts</title>
<path fill="none" stroke="#528b8b" stroke-width="2" d="M614.14,-312.56C643.4,-321.95 679.36,-333.5 709.94,-343.32"/>
<polygon fill="#528b8b" stroke="#528b8b" stroke-width="2" points="709.08,-346.72 719.67,-346.44 711.22,-340.05 709.08,-346.72"/>
</g>
<!-- src/util/compare.ts&#45;&gt;src/types/utilTypes.ts -->
<g id="edge67" class="edge">
<title>src/util/compare.ts&#45;&gt;src/types/utilTypes.ts</title>
<path fill="none" stroke="#528b8b" stroke-width="2" d="M620.78,-511.62C701.94,-504.13 837.43,-487.34 876,-456.53 907.42,-431.43 881.59,-399.84 912,-373.53 932.03,-356.21 1079.44,-320.29 1174.39,-298.52"/>
<polygon fill="#528b8b" stroke="#528b8b" stroke-width="2" points="1175.29,-301.9 1184.26,-296.26 1173.73,-295.07 1175.29,-301.9"/>
</g>
<!-- src/util/misc.ts&#45;&gt;src/types/utilTypes.ts -->
<g id="edge68" class="edge">
<title>src/util/misc.ts&#45;&gt;src/types/utilTypes.ts</title>
<path fill="none" stroke="#528b8b" stroke-width="2" d="M1065.71,-280.53C1097.04,-280.53 1138.1,-280.53 1173.97,-280.53"/>
<polygon fill="#528b8b" stroke="#528b8b" stroke-width="2" points="1174.42,-284.03 1184.42,-280.53 1174.42,-277.03 1174.42,-284.03"/>
</g>
</g>
</svg>
