<?xml version="1.0" encoding="UTF-8" standalone="no"?>
<!DOCTYPE svg PUBLIC "-//W3C//DTD SVG 1.1//EN"
 "http://www.w3.org/Graphics/SVG/1.1/DTD/svg11.dtd">
<!-- Generated by graphviz version 2.44.1 (20200629.0846)
 -->
<!-- Title: G Pages: 1 -->
<svg width="1073pt" height="820pt"
 viewBox="0.00 0.00 1073.00 820.00" xmlns="http://www.w3.org/2000/svg" xmlns:xlink="http://www.w3.org/1999/xlink">
<g id="graph0" class="graph" transform="scale(1 1) rotate(0) translate(4 816)">
<title>G</title>
<polygon fill="white" stroke="transparent" points="-4,4 -4,-816 1069,-816 1069,4 -4,4"/>
<g id="clust1" class="cluster">
<title>cluster2738674125</title>
<path fill="none" stroke="#8b7d6b" stroke-width="2" d="M20,-8C20,-8 1045,-8 1045,-8 1051,-8 1057,-14 1057,-20 1057,-20 1057,-792 1057,-792 1057,-798 1051,-804 1045,-804 1045,-804 20,-804 20,-804 14,-804 8,-798 8,-792 8,-792 8,-20 8,-20 8,-14 14,-8 20,-8"/>
<text text-anchor="start" x="522" y="-789.8" font-family="Helvetica,sans-Serif" font-weight="bold" font-size="14.00">src</text>
</g>
<g id="clust2" class="cluster">
<title>cluster4887346154</title>
<path fill="bisque" stroke="#8b7d6b" stroke-width="2" d="M816.5,-28C816.5,-28 1037,-28 1037,-28 1043,-28 1049,-34 1049,-40 1049,-40 1049,-145 1049,-145 1049,-151 1043,-157 1037,-157 1037,-157 816.5,-157 816.5,-157 810.5,-157 804.5,-151 804.5,-145 804.5,-145 804.5,-40 804.5,-40 804.5,-34 810.5,-28 816.5,-28"/>
<text text-anchor="start" x="878.25" y="-142.8" font-family="Helvetica,sans-Serif" font-weight="bold" font-size="14.00">core&#45;validators</text>
</g>
<g id="clust3" class="cluster">
<title>cluster8786068985</title>
<path fill="bisque" stroke="#8b7d6b" stroke-width="2" d="M457,-165C457,-165 907,-165 907,-165 913,-165 919,-171 919,-177 919,-177 919,-430 919,-430 919,-436 913,-442 907,-442 907,-442 457,-442 457,-442 451,-442 445,-436 445,-430 445,-430 445,-177 445,-177 445,-171 451,-165 457,-165"/>
<text text-anchor="start" x="661" y="-427.8" font-family="Helvetica,sans-Serif" font-weight="bold" font-size="14.00">crypto</text>
</g>
<g id="clust4" class="cluster">
<title>cluster2112574185</title>
<path fill="bisque" stroke="#8b7d6b" stroke-width="2" d="M194,-82C194,-82 564,-82 564,-82 570,-82 576,-88 576,-94 576,-94 576,-145 576,-145 576,-151 570,-157 564,-157 564,-157 194,-157 194,-157 188,-157 182,-151 182,-145 182,-145 182,-94 182,-94 182,-88 188,-82 194,-82"/>
<text text-anchor="start" x="323" y="-142.8" font-family="Helvetica,sans-Serif" font-weight="bold" font-size="14.00">format&#45;validators</text>
</g>
<g id="clust5" class="cluster">
<title>cluster480661218</title>
<path fill="bisque" stroke="#8b7d6b" stroke-width="2" d="M166,-450C166,-450 734,-450 734,-450 740,-450 746,-456 746,-462 746,-462 746,-761 746,-761 746,-767 740,-773 734,-773 734,-773 166,-773 166,-773 160,-773 154,-767 154,-761 154,-761 154,-462 154,-462 154,-456 160,-450 166,-450"/>
<text text-anchor="start" x="425.5" y="-758.8" font-family="Helvetica,sans-Serif" font-weight="bold" font-size="14.00">storage</text>
</g>
<!-- src/example&#45;app.ts -->
<g id="node1" class="node">
<title>src/example&#45;app.ts</title>
<path fill="#79cdcd" stroke="#79cdcd" d="M114,-542C114,-542 28,-542 28,-542 22,-542 16,-536 16,-530 16,-530 16,-518 16,-518 16,-512 22,-506 28,-506 28,-506 114,-506 114,-506 120,-506 126,-512 126,-518 126,-518 126,-530 126,-530 126,-536 120,-542 114,-542"/>
<text text-anchor="middle" x="71" y="-520.3" font-family="Helvetica,sans-Serif" font-size="14.00">example&#45;app.ts</text>
</g>
<!-- src/format&#45;validators/format&#45;validator&#45;es4.ts -->
<g id="node12" class="node">
<title>src/format&#45;validators/format&#45;validator&#45;es4.ts</title>
<path fill="#79cdcd" stroke="#79cdcd" d="M330,-126C330,-126 202,-126 202,-126 196,-126 190,-120 190,-114 190,-114 190,-102 190,-102 190,-96 196,-90 202,-90 202,-90 330,-90 330,-90 336,-90 342,-96 342,-102 342,-102 342,-114 342,-114 342,-120 336,-126 330,-126"/>
<text text-anchor="middle" x="266" y="-104.3" font-family="Helvetica,sans-Serif" font-size="14.00">format&#45;validator&#45;es4.ts</text>
</g>
<!-- src/example&#45;app.ts&#45;&gt;src/format&#45;validators/format&#45;validator&#45;es4.ts -->
<g id="edge16" class="edge">
<title>src/example&#45;app.ts&#45;&gt;src/format&#45;validators/format&#45;validator&#45;es4.ts</title>
<path fill="none" stroke="#528b8b" stroke-width="2" d="M80.42,-505.86C110.89,-440.17 215.59,-214.49 252.22,-135.54"/>
<polygon fill="#528b8b" stroke="#528b8b" stroke-width="2" points="255.5,-136.78 256.54,-126.24 249.16,-133.84 255.5,-136.78"/>
</g>
<!-- src/storage/follower.ts -->
<g id="node15" class="node">
<title>src/storage/follower.ts</title>
<path fill="#79cdcd" stroke="#79cdcd" d="M292.5,-656C292.5,-656 239.5,-656 239.5,-656 233.5,-656 227.5,-650 227.5,-644 227.5,-644 227.5,-632 227.5,-632 227.5,-626 233.5,-620 239.5,-620 239.5,-620 292.5,-620 292.5,-620 298.5,-620 304.5,-626 304.5,-632 304.5,-632 304.5,-644 304.5,-644 304.5,-650 298.5,-656 292.5,-656"/>
<text text-anchor="middle" x="266" y="-634.3" font-family="Helvetica,sans-Serif" font-size="14.00">follower.ts</text>
</g>
<!-- src/example&#45;app.ts&#45;&gt;src/storage/follower.ts -->
<g id="edge19" class="edge">
<title>src/example&#45;app.ts&#45;&gt;src/storage/follower.ts</title>
<path fill="none" stroke="#528b8b" stroke-width="2" d="M96.98,-542.19C112.97,-553.55 134.34,-568.21 154,-580 174.86,-592.51 198.68,-605.16 218.9,-615.45"/>
<polygon fill="#528b8b" stroke="#528b8b" stroke-width="2" points="217.4,-618.61 227.91,-619.99 220.56,-612.36 217.4,-618.61"/>
</g>
<!-- src/storage/storage&#45;async.ts -->
<g id="node19" class="node">
<title>src/storage/storage&#45;async.ts</title>
<path fill="#79cdcd" stroke="#79cdcd" d="M312,-514C312,-514 220,-514 220,-514 214,-514 208,-508 208,-502 208,-502 208,-490 208,-490 208,-484 214,-478 220,-478 220,-478 312,-478 312,-478 318,-478 324,-484 324,-490 324,-490 324,-502 324,-502 324,-508 318,-514 312,-514"/>
<text text-anchor="middle" x="266" y="-492.3" font-family="Helvetica,sans-Serif" font-size="14.00">storage&#45;async.ts</text>
</g>
<!-- src/example&#45;app.ts&#45;&gt;src/storage/storage&#45;async.ts -->
<g id="edge18" class="edge">
<title>src/example&#45;app.ts&#45;&gt;src/storage/storage&#45;async.ts</title>
<path fill="none" stroke="#528b8b" stroke-width="2" d="M126.02,-516.16C148.36,-512.92 174.5,-509.13 198.05,-505.71"/>
<polygon fill="#528b8b" stroke="#528b8b" stroke-width="2" points="198.57,-509.17 207.96,-504.27 197.56,-502.25 198.57,-509.17"/>
</g>
<!-- src/storage/storage&#45;driver&#45;async&#45;memory.ts -->
<g id="node20" class="node">
<title>src/storage/storage&#45;driver&#45;async&#45;memory.ts</title>
<path fill="#79cdcd" stroke="#79cdcd" d="M358,-571C358,-571 174,-571 174,-571 168,-571 162,-565 162,-559 162,-559 162,-547 162,-547 162,-541 168,-535 174,-535 174,-535 358,-535 358,-535 364,-535 370,-541 370,-547 370,-547 370,-559 370,-559 370,-565 364,-571 358,-571"/>
<text text-anchor="middle" x="266" y="-549.3" font-family="Helvetica,sans-Serif" font-size="14.00">storage&#45;driver&#45;async&#45;memory.ts</text>
</g>
<!-- src/example&#45;app.ts&#45;&gt;src/storage/storage&#45;driver&#45;async&#45;memory.ts -->
<g id="edge17" class="edge">
<title>src/example&#45;app.ts&#45;&gt;src/storage/storage&#45;driver&#45;async&#45;memory.ts</title>
<path fill="none" stroke="#528b8b" stroke-width="2" d="M126.02,-532.12C134.2,-533.35 142.89,-534.65 151.78,-535.99"/>
<polygon fill="#528b8b" stroke="#528b8b" stroke-width="2" points="151.47,-539.48 161.88,-537.51 152.51,-532.56 151.47,-539.48"/>
</g>
<!-- src/core&#45;validators/addresses.ts -->
<g id="node2" class="node">
<title>src/core&#45;validators/addresses.ts</title>
<path fill="#79cdcd" stroke="#79cdcd" d="M893.5,-126C893.5,-126 824.5,-126 824.5,-126 818.5,-126 812.5,-120 812.5,-114 812.5,-114 812.5,-102 812.5,-102 812.5,-96 818.5,-90 824.5,-90 824.5,-90 893.5,-90 893.5,-90 899.5,-90 905.5,-96 905.5,-102 905.5,-102 905.5,-114 905.5,-114 905.5,-120 899.5,-126 893.5,-126"/>
<text text-anchor="middle" x="859" y="-104.3" font-family="Helvetica,sans-Serif" font-size="14.00">addresses.ts</text>
</g>
<!-- src/core&#45;validators/characters.ts -->
<g id="node3" class="node">
<title>src/core&#45;validators/characters.ts</title>
<path fill="#79cdcd" stroke="#79cdcd" d="M1029,-72C1029,-72 959,-72 959,-72 953,-72 947,-66 947,-60 947,-60 947,-48 947,-48 947,-42 953,-36 959,-36 959,-36 1029,-36 1029,-36 1035,-36 1041,-42 1041,-48 1041,-48 1041,-60 1041,-60 1041,-66 1035,-72 1029,-72"/>
<text text-anchor="middle" x="994" y="-50.3" font-family="Helvetica,sans-Serif" font-size="14.00">characters.ts</text>
</g>
<!-- src/core&#45;validators/addresses.ts&#45;&gt;src/core&#45;validators/characters.ts -->
<g id="edge1" class="edge">
<title>src/core&#45;validators/addresses.ts&#45;&gt;src/core&#45;validators/characters.ts</title>
<path fill="none" stroke="#528b8b" stroke-width="2" d="M904.66,-89.87C915.62,-85.42 927.48,-80.6 938.84,-75.99"/>
<polygon fill="#528b8b" stroke="#528b8b" stroke-width="2" points="940.29,-79.18 948.23,-72.18 937.65,-72.69 940.29,-79.18"/>
</g>
<!-- src/core&#45;validators/checkers.ts -->
<g id="node4" class="node">
<title>src/core&#45;validators/checkers.ts</title>
<path fill="#79cdcd" stroke="#79cdcd" d="M889.5,-72C889.5,-72 828.5,-72 828.5,-72 822.5,-72 816.5,-66 816.5,-60 816.5,-60 816.5,-48 816.5,-48 816.5,-42 822.5,-36 828.5,-36 828.5,-36 889.5,-36 889.5,-36 895.5,-36 901.5,-42 901.5,-48 901.5,-48 901.5,-60 901.5,-60 901.5,-66 895.5,-72 889.5,-72"/>
<text text-anchor="middle" x="859" y="-50.3" font-family="Helvetica,sans-Serif" font-size="14.00">checkers.ts</text>
</g>
<!-- src/core&#45;validators/checkers.ts&#45;&gt;src/core&#45;validators/characters.ts -->
<g id="edge2" class="edge">
<title>src/core&#45;validators/checkers.ts&#45;&gt;src/core&#45;validators/characters.ts</title>
<path fill="none" stroke="#528b8b" stroke-width="2" d="M901.72,-54C912.79,-54 924.94,-54 936.66,-54"/>
<polygon fill="#528b8b" stroke="#528b8b" stroke-width="2" points="936.81,-57.5 946.81,-54 936.81,-50.5 936.81,-57.5"/>
</g>
<!-- src/crypto/base32.ts -->
<g id="node5" class="node">
<title>src/crypto/base32.ts</title>
<path fill="#79cdcd" stroke="#79cdcd" d="M884.5,-219C884.5,-219 833.5,-219 833.5,-219 827.5,-219 821.5,-213 821.5,-207 821.5,-207 821.5,-195 821.5,-195 821.5,-189 827.5,-183 833.5,-183 833.5,-183 884.5,-183 884.5,-183 890.5,-183 896.5,-189 896.5,-195 896.5,-195 896.5,-207 896.5,-207 896.5,-213 890.5,-219 884.5,-219"/>
<text text-anchor="middle" x="859" y="-197.3" font-family="Helvetica,sans-Serif" font-size="14.00">base32.ts</text>
</g>
<!-- src/crypto/crypto&#45;driver&#45;chloride.ts -->
<g id="node6" class="node">
<title>src/crypto/crypto&#45;driver&#45;chloride.ts</title>
<path fill="#79cdcd" stroke="#79cdcd" d="M754.5,-283C754.5,-283 620.5,-283 620.5,-283 614.5,-283 608.5,-277 608.5,-271 608.5,-271 608.5,-259 608.5,-259 608.5,-253 614.5,-247 620.5,-247 620.5,-247 754.5,-247 754.5,-247 760.5,-247 766.5,-253 766.5,-259 766.5,-259 766.5,-271 766.5,-271 766.5,-277 760.5,-283 754.5,-283"/>
<text text-anchor="middle" x="687.5" y="-261.3" font-family="Helvetica,sans-Serif" font-size="14.00">crypto&#45;driver&#45;chloride.ts</text>
</g>
<!-- src/crypto/crypto&#45;types.ts -->
<g id="node9" class="node">
<title>src/crypto/crypto&#45;types.ts</title>
<path fill="#79cdcd" stroke="#79cdcd" d="M899,-337C899,-337 819,-337 819,-337 813,-337 807,-331 807,-325 807,-325 807,-313 807,-313 807,-307 813,-301 819,-301 819,-301 899,-301 899,-301 905,-301 911,-307 911,-313 911,-313 911,-325 911,-325 911,-331 905,-337 899,-337"/>
<text text-anchor="middle" x="859" y="-315.3" font-family="Helvetica,sans-Serif" font-size="14.00">crypto&#45;types.ts</text>
</g>
<!-- src/crypto/crypto&#45;driver&#45;chloride.ts&#45;&gt;src/crypto/crypto&#45;types.ts -->
<g id="edge3" class="edge">
<title>src/crypto/crypto&#45;driver&#45;chloride.ts&#45;&gt;src/crypto/crypto&#45;types.ts</title>
<path fill="none" stroke="#528b8b" stroke-width="2" d="M745.41,-283.13C762.05,-288.43 780.31,-294.25 797.18,-299.62"/>
<polygon fill="#528b8b" stroke="#528b8b" stroke-width="2" points="796.34,-303.03 806.94,-302.73 798.47,-296.36 796.34,-303.03"/>
</g>
<!-- src/crypto/crypto&#45;driver&#45;node.ts -->
<g id="node7" class="node">
<title>src/crypto/crypto&#45;driver&#45;node.ts</title>
<path fill="#79cdcd" stroke="#79cdcd" d="M745.5,-337C745.5,-337 629.5,-337 629.5,-337 623.5,-337 617.5,-331 617.5,-325 617.5,-325 617.5,-313 617.5,-313 617.5,-307 623.5,-301 629.5,-301 629.5,-301 745.5,-301 745.5,-301 751.5,-301 757.5,-307 757.5,-313 757.5,-313 757.5,-325 757.5,-325 757.5,-331 751.5,-337 745.5,-337"/>
<text text-anchor="middle" x="687.5" y="-315.3" font-family="Helvetica,sans-Serif" font-size="14.00">crypto&#45;driver&#45;node.ts</text>
</g>
<!-- src/crypto/crypto&#45;driver&#45;node.ts&#45;&gt;src/crypto/crypto&#45;types.ts -->
<g id="edge4" class="edge">
<title>src/crypto/crypto&#45;driver&#45;node.ts&#45;&gt;src/crypto/crypto&#45;types.ts</title>
<path fill="none" stroke="#528b8b" stroke-width="2" d="M757.93,-319C770.72,-319 783.98,-319 796.51,-319"/>
<polygon fill="#528b8b" stroke="#528b8b" stroke-width="2" points="796.84,-322.5 806.84,-319 796.84,-315.5 796.84,-322.5"/>
</g>
<!-- src/crypto/crypto&#45;driver&#45;tweetnacl.ts -->
<g id="node8" class="node">
<title>src/crypto/crypto&#45;driver&#45;tweetnacl.ts</title>
<path fill="#79cdcd" stroke="#79cdcd" d="M759,-391C759,-391 616,-391 616,-391 610,-391 604,-385 604,-379 604,-379 604,-367 604,-367 604,-361 610,-355 616,-355 616,-355 759,-355 759,-355 765,-355 771,-361 771,-367 771,-367 771,-379 771,-379 771,-385 765,-391 759,-391"/>
<text text-anchor="middle" x="687.5" y="-369.3" font-family="Helvetica,sans-Serif" font-size="14.00">crypto&#45;driver&#45;tweetnacl.ts</text>
</g>
<!-- src/crypto/crypto&#45;driver&#45;tweetnacl.ts&#45;&gt;src/crypto/crypto&#45;types.ts -->
<g id="edge5" class="edge">
<title>src/crypto/crypto&#45;driver&#45;tweetnacl.ts&#45;&gt;src/crypto/crypto&#45;types.ts</title>
<path fill="none" stroke="#528b8b" stroke-width="2" d="M745.41,-354.87C762.05,-349.57 780.31,-343.75 797.18,-338.38"/>
<polygon fill="#528b8b" stroke="#528b8b" stroke-width="2" points="798.47,-341.64 806.94,-335.27 796.34,-334.97 798.47,-341.64"/>
</g>
<!-- src/crypto/crypto.ts -->
<g id="node10" class="node">
<title>src/crypto/crypto.ts</title>
<path fill="#79cdcd" stroke="#79cdcd" d="M509,-283C509,-283 465,-283 465,-283 459,-283 453,-277 453,-271 453,-271 453,-259 453,-259 453,-253 459,-247 465,-247 465,-247 509,-247 509,-247 515,-247 521,-253 521,-259 521,-259 521,-271 521,-271 521,-277 515,-283 509,-283"/>
<text text-anchor="middle" x="487" y="-261.3" font-family="Helvetica,sans-Serif" font-size="14.00">crypto.ts</text>
</g>
<!-- src/crypto/crypto.ts&#45;&gt;src/core&#45;validators/addresses.ts -->
<g id="edge12" class="edge">
<title>src/crypto/crypto.ts&#45;&gt;src/core&#45;validators/addresses.ts</title>
<path fill="none" stroke="#528b8b" stroke-width="2" d="M504.6,-246.67C525.59,-224.63 563.86,-188.1 604,-168 667.76,-136.08 749.1,-120.73 802.32,-113.64"/>
<polygon fill="#528b8b" stroke="#528b8b" stroke-width="2" points="802.78,-117.11 812.25,-112.37 801.89,-110.17 802.78,-117.11"/>
</g>
<!-- src/crypto/crypto.ts&#45;&gt;src/crypto/base32.ts -->
<g id="edge10" class="edge">
<title>src/crypto/crypto.ts&#45;&gt;src/crypto/base32.ts</title>
<path fill="none" stroke="#528b8b" stroke-width="2" d="M506.12,-246.9C527.43,-227.03 564.87,-196.31 604,-184 673.76,-162.05 759.46,-175.58 811.34,-187.89"/>
<polygon fill="#528b8b" stroke="#528b8b" stroke-width="2" points="810.71,-191.34 821.26,-190.33 812.38,-184.54 810.71,-191.34"/>
</g>
<!-- src/crypto/crypto.ts&#45;&gt;src/crypto/crypto&#45;driver&#45;chloride.ts -->
<g id="edge6" class="edge">
<title>src/crypto/crypto.ts&#45;&gt;src/crypto/crypto&#45;driver&#45;chloride.ts</title>
<path fill="none" stroke="#528b8b" stroke-width="2" d="M521.22,-265C542.36,-265 570.8,-265 598.13,-265"/>
<polygon fill="#528b8b" stroke="#528b8b" stroke-width="2" points="598.13,-268.5 608.13,-265 598.13,-261.5 598.13,-268.5"/>
</g>
<!-- src/crypto/crypto.ts&#45;&gt;src/crypto/crypto&#45;driver&#45;node.ts -->
<g id="edge7" class="edge">
<title>src/crypto/crypto.ts&#45;&gt;src/crypto/crypto&#45;driver&#45;node.ts</title>
<path fill="none" stroke="#528b8b" stroke-width="2" d="M521.22,-274.04C545.52,-280.65 579.49,-289.89 610.31,-298.27"/>
<polygon fill="#528b8b" stroke="#528b8b" stroke-width="2" points="609.62,-301.71 620.19,-300.96 611.46,-294.96 609.62,-301.71"/>
</g>
<!-- src/crypto/crypto.ts&#45;&gt;src/crypto/crypto&#45;driver&#45;tweetnacl.ts -->
<g id="edge8" class="edge">
<title>src/crypto/crypto.ts&#45;&gt;src/crypto/crypto&#45;driver&#45;tweetnacl.ts</title>
<path fill="none" stroke="#528b8b" stroke-width="2" d="M509.87,-283.22C532.31,-301.2 568.84,-328.45 604,-346 607.54,-347.77 611.22,-349.45 614.98,-351.06"/>
<polygon fill="#528b8b" stroke="#528b8b" stroke-width="2" points="613.85,-354.38 624.43,-354.89 616.48,-347.89 613.85,-354.38"/>
</g>
<!-- src/crypto/crypto.ts&#45;&gt;src/crypto/crypto&#45;types.ts -->
<g id="edge9" class="edge">
<title>src/crypto/crypto.ts&#45;&gt;src/crypto/crypto&#45;types.ts</title>
<path fill="none" stroke="#528b8b" stroke-width="2" d="M497.03,-283.38C513.39,-314.31 551.21,-375.76 604,-400 671.45,-430.97 701.93,-427.18 771,-400 798.89,-389.03 823.14,-364.43 838.9,-345.2"/>
<polygon fill="#528b8b" stroke="#528b8b" stroke-width="2" points="841.66,-347.36 845.12,-337.34 836.17,-343.01 841.66,-347.36"/>
</g>
<!-- src/crypto/keypair.ts -->
<g id="node11" class="node">
<title>src/crypto/keypair.ts</title>
<path fill="#79cdcd" stroke="#79cdcd" d="M712.5,-229C712.5,-229 662.5,-229 662.5,-229 656.5,-229 650.5,-223 650.5,-217 650.5,-217 650.5,-205 650.5,-205 650.5,-199 656.5,-193 662.5,-193 662.5,-193 712.5,-193 712.5,-193 718.5,-193 724.5,-199 724.5,-205 724.5,-205 724.5,-217 724.5,-217 724.5,-223 718.5,-229 712.5,-229"/>
<text text-anchor="middle" x="687.5" y="-207.3" font-family="Helvetica,sans-Serif" font-size="14.00">keypair.ts</text>
</g>
<!-- src/crypto/crypto.ts&#45;&gt;src/crypto/keypair.ts -->
<g id="edge11" class="edge">
<title>src/crypto/crypto.ts&#45;&gt;src/crypto/keypair.ts</title>
<path fill="none" stroke="#528b8b" stroke-width="2" d="M521.22,-255.96C553.91,-247.07 604.08,-233.42 640.57,-223.49"/>
<polygon fill="#528b8b" stroke="#528b8b" stroke-width="2" points="641.75,-226.8 650.48,-220.8 639.91,-220.05 641.75,-226.8"/>
</g>
<!-- src/crypto/keypair.ts&#45;&gt;src/core&#45;validators/addresses.ts -->
<g id="edge15" class="edge">
<title>src/crypto/keypair.ts&#45;&gt;src/core&#45;validators/addresses.ts</title>
<path fill="none" stroke="#528b8b" stroke-width="2" d="M718.41,-192.82C746.53,-175.74 788.75,-150.08 819.39,-131.46"/>
<polygon fill="#528b8b" stroke="#528b8b" stroke-width="2" points="821.37,-134.35 828.1,-126.17 817.74,-128.37 821.37,-134.35"/>
</g>
<!-- src/crypto/keypair.ts&#45;&gt;src/crypto/base32.ts -->
<g id="edge13" class="edge">
<title>src/crypto/keypair.ts&#45;&gt;src/crypto/base32.ts</title>
<path fill="none" stroke="#528b8b" stroke-width="2" d="M724.86,-208.85C750.13,-207.36 784.04,-205.36 811.31,-203.75"/>
<polygon fill="#528b8b" stroke="#528b8b" stroke-width="2" points="811.63,-207.24 821.41,-203.16 811.22,-200.25 811.63,-207.24"/>
</g>
<!-- src/crypto/keypair.ts&#45;&gt;src/crypto/crypto&#45;types.ts -->
<g id="edge14" class="edge">
<title>src/crypto/keypair.ts&#45;&gt;src/crypto/crypto&#45;types.ts</title>
<path fill="none" stroke="#528b8b" stroke-width="2" d="M724.87,-219.23C739.8,-223.52 756.85,-229.65 771,-238 795.82,-252.64 819.44,-275.4 835.79,-293.08"/>
<polygon fill="#528b8b" stroke="#528b8b" stroke-width="2" points="833.47,-295.72 842.77,-300.79 838.66,-291.03 833.47,-295.72"/>
</g>
<!-- src/format&#45;validators/format&#45;validator&#45;es4.ts&#45;&gt;src/core&#45;validators/addresses.ts -->
<g id="edge23" class="edge">
<title>src/format&#45;validators/format&#45;validator&#45;es4.ts&#45;&gt;src/core&#45;validators/addresses.ts</title>
<path fill="none" stroke="#528b8b" stroke-width="2" d="M342,-90.7C362.63,-86.69 385.08,-83.01 406,-81 548.49,-67.29 716.97,-86.75 802.37,-99.12"/>
<polygon fill="#528b8b" stroke="#528b8b" stroke-width="2" points="801.96,-102.6 812.36,-100.59 802.98,-95.67 801.96,-102.6"/>
</g>
<!-- src/format&#45;validators/format&#45;validator&#45;es4.ts&#45;&gt;src/core&#45;validators/characters.ts -->
<g id="edge21" class="edge">
<title>src/format&#45;validators/format&#45;validator&#45;es4.ts&#45;&gt;src/core&#45;validators/characters.ts</title>
<path fill="none" stroke="#528b8b" stroke-width="2" d="M302.56,-89.98C330.05,-76.96 369.46,-60.28 406,-52 579.07,-12.79 627.13,-32.56 804.5,-27 855.36,-25.41 868.89,-18.14 919,-27 926.49,-28.32 934.22,-30.35 941.73,-32.7"/>
<polygon fill="#528b8b" stroke="#528b8b" stroke-width="2" points="940.85,-36.1 951.44,-35.96 943.07,-29.46 940.85,-36.1"/>
</g>
<!-- src/format&#45;validators/format&#45;validator&#45;es4.ts&#45;&gt;src/core&#45;validators/checkers.ts -->
<g id="edge22" class="edge">
<title>src/format&#45;validators/format&#45;validator&#45;es4.ts&#45;&gt;src/core&#45;validators/checkers.ts</title>
<path fill="none" stroke="#528b8b" stroke-width="2" d="M325.27,-89.95C349.93,-83.09 379.12,-75.97 406,-72 549.76,-50.77 721.83,-50.83 806.19,-52.49"/>
<polygon fill="#528b8b" stroke="#528b8b" stroke-width="2" points="806.21,-55.99 816.28,-52.7 806.36,-48.99 806.21,-55.99"/>
</g>
<!-- src/format&#45;validators/format&#45;validator&#45;es4.ts&#45;&gt;src/crypto/crypto.ts -->
<g id="edge24" class="edge">
<title>src/format&#45;validators/format&#45;validator&#45;es4.ts&#45;&gt;src/crypto/crypto.ts</title>
<path fill="none" stroke="#528b8b" stroke-width="2" d="M292.12,-126.01C331.62,-154.33 408.29,-209.29 452.45,-240.95"/>
<polygon fill="#528b8b" stroke="#528b8b" stroke-width="2" points="450.67,-243.98 460.83,-246.96 454.75,-238.29 450.67,-243.98"/>
</g>
<!-- src/format&#45;validators/format&#45;validator&#45;types.ts -->
<g id="node13" class="node">
<title>src/format&#45;validators/format&#45;validator&#45;types.ts</title>
<path fill="#79cdcd" stroke="#79cdcd" d="M556,-126C556,-126 418,-126 418,-126 412,-126 406,-120 406,-114 406,-114 406,-102 406,-102 406,-96 412,-90 418,-90 418,-90 556,-90 556,-90 562,-90 568,-96 568,-102 568,-102 568,-114 568,-114 568,-120 562,-126 556,-126"/>
<text text-anchor="middle" x="487" y="-104.3" font-family="Helvetica,sans-Serif" font-size="14.00">format&#45;validator&#45;types.ts</text>
</g>
<!-- src/format&#45;validators/format&#45;validator&#45;es4.ts&#45;&gt;src/format&#45;validators/format&#45;validator&#45;types.ts -->
<g id="edge20" class="edge">
<title>src/format&#45;validators/format&#45;validator&#45;es4.ts&#45;&gt;src/format&#45;validators/format&#45;validator&#45;types.ts</title>
<path fill="none" stroke="#528b8b" stroke-width="2" d="M342.06,-108C359.24,-108 377.68,-108 395.44,-108"/>
<polygon fill="#528b8b" stroke="#528b8b" stroke-width="2" points="395.8,-111.5 405.8,-108 395.8,-104.5 395.8,-111.5"/>
</g>
<!-- src/storage/compare.ts -->
<g id="node14" class="node">
<title>src/storage/compare.ts</title>
<path fill="#79cdcd" stroke="#79cdcd" d="M517,-514C517,-514 457,-514 457,-514 451,-514 445,-508 445,-502 445,-502 445,-490 445,-490 445,-484 451,-478 457,-478 457,-478 517,-478 517,-478 523,-478 529,-484 529,-490 529,-490 529,-502 529,-502 529,-508 523,-514 517,-514"/>
<text text-anchor="middle" x="487" y="-492.3" font-family="Helvetica,sans-Serif" font-size="14.00">compare.ts</text>
</g>
<!-- src/storage/util&#45;types.ts -->
<g id="node22" class="node">
<title>src/storage/util&#45;types.ts</title>
<path fill="#79cdcd" stroke="#79cdcd" d="M718,-525C718,-525 657,-525 657,-525 651,-525 645,-519 645,-513 645,-513 645,-501 645,-501 645,-495 651,-489 657,-489 657,-489 718,-489 718,-489 724,-489 730,-495 730,-501 730,-501 730,-513 730,-513 730,-519 724,-525 718,-525"/>
<text text-anchor="middle" x="687.5" y="-503.3" font-family="Helvetica,sans-Serif" font-size="14.00">util&#45;types.ts</text>
</g>
<!-- src/storage/compare.ts&#45;&gt;src/storage/util&#45;types.ts -->
<g id="edge25" class="edge">
<title>src/storage/compare.ts&#45;&gt;src/storage/util&#45;types.ts</title>
<path fill="none" stroke="#528b8b" stroke-width="2" d="M529.13,-498.28C559.66,-499.97 601.53,-502.29 634.41,-504.11"/>
<polygon fill="#528b8b" stroke="#528b8b" stroke-width="2" points="634.56,-507.63 644.74,-504.69 634.95,-500.64 634.56,-507.63"/>
</g>
<!-- src/storage/query&#45;types.ts -->
<g id="node17" class="node">
<title>src/storage/query&#45;types.ts</title>
<path fill="#79cdcd" stroke="#79cdcd" d="M726,-665C726,-665 649,-665 649,-665 643,-665 637,-659 637,-653 637,-653 637,-641 637,-641 637,-635 643,-629 649,-629 649,-629 726,-629 726,-629 732,-629 738,-635 738,-641 738,-641 738,-653 738,-653 738,-659 732,-665 726,-665"/>
<text text-anchor="middle" x="687.5" y="-643.3" font-family="Helvetica,sans-Serif" font-size="14.00">query&#45;types.ts</text>
</g>
<!-- src/storage/follower.ts&#45;&gt;src/storage/query&#45;types.ts -->
<g id="edge27" class="edge">
<title>src/storage/follower.ts&#45;&gt;src/storage/query&#45;types.ts</title>
<path fill="none" stroke="#528b8b" stroke-width="2" d="M286.2,-656.39C311.36,-679.06 357.94,-716.4 406,-731 478.3,-752.95 504.4,-755.13 576,-731 610.37,-719.42 642.52,-692.42 663.19,-672.13"/>
<polygon fill="#528b8b" stroke="#528b8b" stroke-width="2" points="665.7,-674.57 670.26,-665 660.73,-669.64 665.7,-674.57"/>
</g>
<!-- src/storage/storage&#45;types.ts -->
<g id="node21" class="node">
<title>src/storage/storage&#45;types.ts</title>
<path fill="#79cdcd" stroke="#79cdcd" d="M531.5,-628C531.5,-628 442.5,-628 442.5,-628 436.5,-628 430.5,-622 430.5,-616 430.5,-616 430.5,-604 430.5,-604 430.5,-598 436.5,-592 442.5,-592 442.5,-592 531.5,-592 531.5,-592 537.5,-592 543.5,-598 543.5,-604 543.5,-604 543.5,-616 543.5,-616 543.5,-622 537.5,-628 531.5,-628"/>
<text text-anchor="middle" x="487" y="-606.3" font-family="Helvetica,sans-Serif" font-size="14.00">storage&#45;types.ts</text>
</g>
<!-- src/storage/follower.ts&#45;&gt;src/storage/storage&#45;types.ts -->
<g id="edge28" class="edge">
<title>src/storage/follower.ts&#45;&gt;src/storage/storage&#45;types.ts</title>
<path fill="none" stroke="#528b8b" stroke-width="2" d="M304.65,-633.19C336.42,-629.12 382.64,-623.22 420.46,-618.38"/>
<polygon fill="#528b8b" stroke="#528b8b" stroke-width="2" points="420.91,-621.85 430.39,-617.11 420.02,-614.91 420.91,-621.85"/>
</g>
<!-- src/storage/follower.ts&#45;&gt;src/storage/util&#45;types.ts -->
<g id="edge26" class="edge">
<title>src/storage/follower.ts&#45;&gt;src/storage/util&#45;types.ts</title>
<path fill="none" stroke="#528b8b" stroke-width="2" d="M304.68,-650.84C367.67,-669.73 495.4,-696.73 576,-637 610,-611.81 576.29,-577.98 604,-546 612.43,-536.27 623.82,-528.78 635.45,-523.1"/>
<polygon fill="#528b8b" stroke="#528b8b" stroke-width="2" points="637.07,-526.21 644.77,-518.92 634.21,-519.82 637.07,-526.21"/>
</g>
<!-- src/storage/lock.ts -->
<g id="node16" class="node">
<title>src/storage/lock.ts</title>
<path fill="#79cdcd" stroke="#79cdcd" d="M703,-591C703,-591 672,-591 672,-591 666,-591 660,-585 660,-579 660,-579 660,-567 660,-567 660,-561 666,-555 672,-555 672,-555 703,-555 703,-555 709,-555 715,-561 715,-567 715,-567 715,-579 715,-579 715,-585 709,-591 703,-591"/>
<text text-anchor="middle" x="687.5" y="-569.3" font-family="Helvetica,sans-Serif" font-size="14.00">lock.ts</text>
</g>
<!-- src/storage/query.ts -->
<g id="node18" class="node">
<title>src/storage/query.ts</title>
<path fill="#79cdcd" stroke="#79cdcd" d="M507,-722C507,-722 467,-722 467,-722 461,-722 455,-716 455,-710 455,-710 455,-698 455,-698 455,-692 461,-686 467,-686 467,-686 507,-686 507,-686 513,-686 519,-692 519,-698 519,-698 519,-710 519,-710 519,-716 513,-722 507,-722"/>
<text text-anchor="middle" x="487" y="-700.3" font-family="Helvetica,sans-Serif" font-size="14.00">query.ts</text>
</g>
<!-- src/storage/query.ts&#45;&gt;src/storage/query&#45;types.ts -->
<g id="edge29" class="edge">
<title>src/storage/query.ts&#45;&gt;src/storage/query&#45;types.ts</title>
<path fill="none" stroke="#528b8b" stroke-width="2" d="M519.02,-695.09C547.82,-686.82 591.49,-674.28 627.01,-664.08"/>
<polygon fill="#528b8b" stroke="#528b8b" stroke-width="2" points="628.15,-667.4 636.79,-661.27 626.22,-660.67 628.15,-667.4"/>
</g>
<!-- src/storage/storage&#45;async.ts&#45;&gt;src/crypto/crypto.ts -->
<g id="edge35" class="edge">
<title>src/storage/storage&#45;async.ts&#45;&gt;src/crypto/crypto.ts</title>
<path fill="none" stroke="#528b8b" stroke-width="2" d="M284.18,-477.87C322.96,-436.97 417.36,-337.41 461.93,-290.39"/>
<polygon fill="#528b8b" stroke="#528b8b" stroke-width="2" points="464.56,-292.71 468.9,-283.04 459.48,-287.89 464.56,-292.71"/>
</g>
<!-- src/storage/storage&#45;async.ts&#45;&gt;src/format&#45;validators/format&#45;validator&#45;types.ts -->
<g id="edge33" class="edge">
<title>src/storage/storage&#45;async.ts&#45;&gt;src/format&#45;validators/format&#45;validator&#45;types.ts</title>
<path fill="none" stroke="#528b8b" stroke-width="2" d="M270.62,-477.71C282.05,-423.85 321.68,-263.27 406,-161 415.56,-149.41 428.31,-139.4 440.82,-131.31"/>
<polygon fill="#528b8b" stroke="#528b8b" stroke-width="2" points="442.73,-134.25 449.4,-126.02 439.05,-128.29 442.73,-134.25"/>
</g>
<!-- src/storage/storage&#45;async.ts&#45;&gt;src/storage/compare.ts -->
<g id="edge34" class="edge">
<title>src/storage/storage&#45;async.ts&#45;&gt;src/storage/compare.ts</title>
<path fill="none" stroke="#528b8b" stroke-width="2" d="M324.25,-496C358.45,-496 401.52,-496 434.61,-496"/>
<polygon fill="#528b8b" stroke="#528b8b" stroke-width="2" points="434.99,-499.5 444.99,-496 434.99,-492.5 434.99,-499.5"/>
</g>
<!-- src/storage/storage&#45;async.ts&#45;&gt;src/storage/query&#45;types.ts -->
<g id="edge31" class="edge">
<title>src/storage/storage&#45;async.ts&#45;&gt;src/storage/query&#45;types.ts</title>
<path fill="none" stroke="#528b8b" stroke-width="2" d="M324.12,-507.21C387.36,-520.72 491.54,-546.29 576,-583 589.35,-588.8 591.45,-592.62 604,-600 617.39,-607.88 632.1,-616.33 645.35,-623.86"/>
<polygon fill="#528b8b" stroke="#528b8b" stroke-width="2" points="643.83,-627.02 654.25,-628.9 647.28,-620.93 643.83,-627.02"/>
</g>
<!-- src/storage/storage&#45;async.ts&#45;&gt;src/storage/storage&#45;types.ts -->
<g id="edge32" class="edge">
<title>src/storage/storage&#45;async.ts&#45;&gt;src/storage/storage&#45;types.ts</title>
<path fill="none" stroke="#528b8b" stroke-width="2" d="M324.14,-505.27C340,-509.73 356.55,-516.31 370,-526 392.81,-542.43 384.02,-560.48 406,-578 410.65,-581.7 415.78,-585.03 421.13,-588"/>
<polygon fill="#528b8b" stroke="#528b8b" stroke-width="2" points="419.8,-591.25 430.3,-592.68 422.98,-585.02 419.8,-591.25"/>
</g>
<!-- src/storage/storage&#45;async.ts&#45;&gt;src/storage/util&#45;types.ts -->
<g id="edge30" class="edge">
<title>src/storage/storage&#45;async.ts&#45;&gt;src/storage/util&#45;types.ts</title>
<path fill="none" stroke="#528b8b" stroke-width="2" d="M324,-482.46C386.27,-469.66 488.76,-454.42 576,-469 595.84,-472.32 616.9,-478.77 635.24,-485.42"/>
<polygon fill="#528b8b" stroke="#528b8b" stroke-width="2" points="634.26,-488.79 644.85,-489.02 636.71,-482.24 634.26,-488.79"/>
</g>
<!-- src/storage/storage&#45;driver&#45;async&#45;memory.ts&#45;&gt;src/storage/compare.ts -->
<g id="edge39" class="edge">
<title>src/storage/storage&#45;driver&#45;async&#45;memory.ts&#45;&gt;src/storage/compare.ts</title>
<path fill="none" stroke="#528b8b" stroke-width="2" d="M336.29,-534.96C368.24,-526.65 405.49,-516.95 434.84,-509.32"/>
<polygon fill="#528b8b" stroke="#528b8b" stroke-width="2" points="436.08,-512.61 444.87,-506.7 434.31,-505.84 436.08,-512.61"/>
</g>
<!-- src/storage/storage&#45;driver&#45;async&#45;memory.ts&#45;&gt;src/storage/lock.ts -->
<g id="edge41" class="edge">
<title>src/storage/storage&#45;driver&#45;async&#45;memory.ts&#45;&gt;src/storage/lock.ts</title>
<path fill="none" stroke="#528b8b" stroke-width="2" d="M370.16,-557.92C460.97,-562.25 588.1,-568.31 649.89,-571.25"/>
<polygon fill="#528b8b" stroke="#528b8b" stroke-width="2" points="649.78,-574.75 659.94,-571.73 650.12,-567.76 649.78,-574.75"/>
</g>
<!-- src/storage/storage&#45;driver&#45;async&#45;memory.ts&#45;&gt;src/storage/query&#45;types.ts -->
<g id="edge37" class="edge">
<title>src/storage/storage&#45;driver&#45;async&#45;memory.ts&#45;&gt;src/storage/query&#45;types.ts</title>
<path fill="none" stroke="#528b8b" stroke-width="2" d="M301.43,-571.13C321.72,-582.12 347.7,-596.73 370,-611 386.63,-621.64 387.33,-630.59 406,-637 478.83,-661.99 568.62,-659.94 626.68,-654.71"/>
<polygon fill="#528b8b" stroke="#528b8b" stroke-width="2" points="627.17,-658.18 636.79,-653.74 626.5,-651.21 627.17,-658.18"/>
</g>
<!-- src/storage/storage&#45;driver&#45;async&#45;memory.ts&#45;&gt;src/storage/query.ts -->
<g id="edge40" class="edge">
<title>src/storage/storage&#45;driver&#45;async&#45;memory.ts&#45;&gt;src/storage/query.ts</title>
<path fill="none" stroke="#528b8b" stroke-width="2" d="M306.14,-571.07C326.25,-581.31 350.56,-595.23 370,-611 388.83,-626.28 387.66,-636.13 406,-652 418.33,-662.67 433.01,-672.82 446.4,-681.28"/>
<polygon fill="#528b8b" stroke="#528b8b" stroke-width="2" points="444.63,-684.3 454.98,-686.58 448.31,-678.35 444.63,-684.3"/>
</g>
<!-- src/storage/storage&#45;driver&#45;async&#45;memory.ts&#45;&gt;src/storage/storage&#45;types.ts -->
<g id="edge38" class="edge">
<title>src/storage/storage&#45;driver&#45;async&#45;memory.ts&#45;&gt;src/storage/storage&#45;types.ts</title>
<path fill="none" stroke="#528b8b" stroke-width="2" d="M336.29,-571.04C363.18,-578.03 393.83,-586.01 420.36,-592.92"/>
<polygon fill="#528b8b" stroke="#528b8b" stroke-width="2" points="419.75,-596.37 430.31,-595.51 421.52,-589.6 419.75,-596.37"/>
</g>
<!-- src/storage/storage&#45;driver&#45;async&#45;memory.ts&#45;&gt;src/storage/util&#45;types.ts -->
<g id="edge36" class="edge">
<title>src/storage/storage&#45;driver&#45;async&#45;memory.ts&#45;&gt;src/storage/util&#45;types.ts</title>
<path fill="none" stroke="#528b8b" stroke-width="2" d="M370.13,-544.21C430.26,-538.78 507.51,-531.28 576,-523 595.24,-520.67 616.31,-517.72 634.84,-514.99"/>
<polygon fill="#528b8b" stroke="#528b8b" stroke-width="2" points="635.47,-518.44 644.85,-513.5 634.44,-511.51 635.47,-518.44"/>
</g>
<!-- src/storage/storage&#45;types.ts&#45;&gt;src/storage/lock.ts -->
<g id="edge43" class="edge">
<title>src/storage/storage&#45;types.ts&#45;&gt;src/storage/lock.ts</title>
<path fill="none" stroke="#528b8b" stroke-width="2" d="M543.56,-599.64C577.52,-593.31 620,-585.39 649.8,-579.84"/>
<polygon fill="#528b8b" stroke="#528b8b" stroke-width="2" points="650.58,-583.26 659.77,-577.98 649.3,-576.37 650.58,-583.26"/>
</g>
<!-- src/storage/storage&#45;types.ts&#45;&gt;src/storage/query&#45;types.ts -->
<g id="edge42" class="edge">
<title>src/storage/storage&#45;types.ts&#45;&gt;src/storage/query&#45;types.ts</title>
<path fill="none" stroke="#528b8b" stroke-width="2" d="M543.56,-620.36C569.49,-625.19 600.4,-630.95 626.83,-635.88"/>
<polygon fill="#528b8b" stroke="#528b8b" stroke-width="2" points="626.24,-639.33 636.72,-637.72 627.53,-632.45 626.24,-639.33"/>
</g>
</g>
</svg>
