<?xml version="1.0" encoding="UTF-8" standalone="no"?>
<!DOCTYPE svg PUBLIC "-//W3C//DTD SVG 1.1//EN"
 "http://www.w3.org/Graphics/SVG/1.1/DTD/svg11.dtd">
<!-- Generated by graphviz version 2.44.1 (20200629.0846)
 -->
<!-- Title: G Pages: 1 -->
<svg width="1125pt" height="930pt"
 viewBox="0.00 0.00 1124.50 930.00" xmlns="http://www.w3.org/2000/svg" xmlns:xlink="http://www.w3.org/1999/xlink">
<g id="graph0" class="graph" transform="scale(1 1) rotate(0) translate(4 926)">
<title>G</title>
<polygon fill="white" stroke="transparent" points="-4,4 -4,-926 1120.5,-926 1120.5,4 -4,4"/>
<g id="clust1" class="cluster">
<title>cluster8088613706</title>
<path fill="bisque" stroke="#8b7d6b" stroke-width="2" d="M829,-785C829,-785 1096.5,-785 1096.5,-785 1102.5,-785 1108.5,-791 1108.5,-797 1108.5,-797 1108.5,-902 1108.5,-902 1108.5,-908 1102.5,-914 1096.5,-914 1096.5,-914 829,-914 829,-914 823,-914 817,-908 817,-902 817,-902 817,-797 817,-797 817,-791 823,-785 829,-785"/>
<text text-anchor="start" x="914.25" y="-899.8" font-family="Helvetica,sans-Serif" font-weight="bold" font-size="14.00">core&#45;validators</text>
</g>
<g id="clust2" class="cluster">
<title>cluster6165626533</title>
<path fill="bisque" stroke="#8b7d6b" stroke-width="2" d="M416,-526C416,-526 951,-526 951,-526 957,-526 963,-532 963,-538 963,-538 963,-697 963,-697 963,-703 957,-709 951,-709 951,-709 416,-709 416,-709 410,-709 404,-703 404,-697 404,-697 404,-538 404,-538 404,-532 410,-526 416,-526"/>
<text text-anchor="start" x="662.5" y="-694.8" font-family="Helvetica,sans-Serif" font-weight="bold" font-size="14.00">crypto</text>
</g>
<g id="clust3" class="cluster">
<title>cluster5171021029</title>
<path fill="bisque" stroke="#8b7d6b" stroke-width="2" d="M200,-809C200,-809 344,-809 344,-809 350,-809 356,-815 356,-821 356,-821 356,-872 356,-872 356,-878 350,-884 344,-884 344,-884 200,-884 200,-884 194,-884 188,-878 188,-872 188,-872 188,-821 188,-821 188,-815 194,-809 200,-809"/>
<text text-anchor="start" x="216" y="-869.8" font-family="Helvetica,sans-Serif" font-weight="bold" font-size="14.00">format&#45;validators</text>
</g>
<g id="clust4" class="cluster">
<title>cluster4508688947</title>
<path fill="bisque" stroke="#8b7d6b" stroke-width="2" d="M226,-358C226,-358 318,-358 318,-358 324,-358 330,-364 330,-370 330,-370 330,-529 330,-529 330,-535 324,-541 318,-541 318,-541 226,-541 226,-541 220,-541 214,-535 214,-529 214,-529 214,-370 214,-370 214,-364 220,-358 226,-358"/>
<text text-anchor="start" x="257.5" y="-526.8" font-family="Helvetica,sans-Serif" font-weight="bold" font-size="14.00">peer</text>
</g>
<g id="clust5" class="cluster">
<title>cluster7691940310</title>
<path fill="bisque" stroke="#8b7d6b" stroke-width="2" d="M218,-138C218,-138 326,-138 326,-138 332,-138 338,-144 338,-150 338,-150 338,-201 338,-201 338,-207 332,-213 326,-213 326,-213 218,-213 218,-213 212,-213 206,-207 206,-201 206,-201 206,-150 206,-150 206,-144 212,-138 218,-138"/>
<text text-anchor="start" x="225" y="-198.8" font-family="Helvetica,sans-Serif" font-weight="bold" font-size="14.00">query&#45;follower</text>
</g>
<g id="clust6" class="cluster">
<title>cluster6701188217</title>
<path fill="bisque" stroke="#8b7d6b" stroke-width="2" d="M463,-92C463,-92 519,-92 519,-92 525,-92 531,-98 531,-104 531,-104 531,-155 531,-155 531,-161 525,-167 519,-167 519,-167 463,-167 463,-167 457,-167 451,-161 451,-155 451,-155 451,-104 451,-104 451,-98 457,-92 463,-92"/>
<text text-anchor="start" x="472.5" y="-152.8" font-family="Helvetica,sans-Serif" font-weight="bold" font-size="14.00">query</text>
</g>
<g id="clust7" class="cluster">
<title>cluster227175255</title>
<path fill="bisque" stroke="#8b7d6b" stroke-width="2" d="M20,-221C20,-221 529,-221 529,-221 535,-221 541,-227 541,-233 541,-233 541,-338 541,-338 541,-344 535,-350 529,-350 529,-350 20,-350 20,-350 14,-350 8,-344 8,-338 8,-338 8,-233 8,-233 8,-227 14,-221 20,-221"/>
<text text-anchor="start" x="250" y="-335.8" font-family="Helvetica,sans-Serif" font-weight="bold" font-size="14.00">storage</text>
</g>
<!-- src/example&#45;app.ts -->
<g id="node1" class="node">
<title>src/example&#45;app.ts</title>
<path fill="#79cdcd" stroke="#79cdcd" d="M117,-452C117,-452 31,-452 31,-452 25,-452 19,-446 19,-440 19,-440 19,-428 19,-428 19,-422 25,-416 31,-416 31,-416 117,-416 117,-416 123,-416 129,-422 129,-428 129,-428 129,-440 129,-440 129,-446 123,-452 117,-452"/>
<text text-anchor="middle" x="74" y="-430.3" font-family="Helvetica,sans-Serif" font-size="14.00">example&#45;app.ts</text>
</g>
<!-- src/crypto/crypto.ts -->
<g id="node9" class="node">
<title>src/crypto/crypto.ts</title>
<path fill="#79cdcd" stroke="#79cdcd" d="M513,-570C513,-570 469,-570 469,-570 463,-570 457,-564 457,-558 457,-558 457,-546 457,-546 457,-540 463,-534 469,-534 469,-534 513,-534 513,-534 519,-534 525,-540 525,-546 525,-546 525,-558 525,-558 525,-564 519,-570 513,-570"/>
<text text-anchor="middle" x="491" y="-548.3" font-family="Helvetica,sans-Serif" font-size="14.00">crypto.ts</text>
</g>
<!-- src/example&#45;app.ts&#45;&gt;src/crypto/crypto.ts -->
<g id="edge13" class="edge">
<title>src/example&#45;app.ts&#45;&gt;src/crypto/crypto.ts</title>
<path fill="none" stroke="#528b8b" stroke-width="2" d="M80.83,-452.27C91.97,-483.7 119.6,-547.15 168,-573 249.54,-616.55 283.94,-581.41 376,-573 399.6,-570.84 425.6,-566.23 446.81,-561.87"/>
<polygon fill="#528b8b" stroke="#528b8b" stroke-width="2" points="447.74,-565.26 456.8,-559.77 446.29,-558.41 447.74,-565.26"/>
</g>
<!-- src/format&#45;validators/format&#45;validator&#45;es4.ts -->
<g id="node12" class="node">
<title>src/format&#45;validators/format&#45;validator&#45;es4.ts</title>
<path fill="#79cdcd" stroke="#79cdcd" d="M336,-853C336,-853 208,-853 208,-853 202,-853 196,-847 196,-841 196,-841 196,-829 196,-829 196,-823 202,-817 208,-817 208,-817 336,-817 336,-817 342,-817 348,-823 348,-829 348,-829 348,-841 348,-841 348,-847 342,-853 336,-853"/>
<text text-anchor="middle" x="272" y="-831.3" font-family="Helvetica,sans-Serif" font-size="14.00">format&#45;validator&#45;es4.ts</text>
</g>
<!-- src/example&#45;app.ts&#45;&gt;src/format&#45;validators/format&#45;validator&#45;es4.ts -->
<g id="edge10" class="edge">
<title>src/example&#45;app.ts&#45;&gt;src/format&#45;validators/format&#45;validator&#45;es4.ts</title>
<path fill="none" stroke="#528b8b" stroke-width="2" d="M83.8,-452.01C114.95,-515.73 220.06,-730.79 257.57,-807.52"/>
<polygon fill="#528b8b" stroke="#528b8b" stroke-width="2" points="254.46,-809.13 262,-816.58 260.75,-806.06 254.46,-809.13"/>
</g>
<!-- src/peer/peer.ts -->
<g id="node15" class="node">
<title>src/peer/peer.ts</title>
<path fill="#79cdcd" stroke="#79cdcd" d="M289,-510C289,-510 255,-510 255,-510 249,-510 243,-504 243,-498 243,-498 243,-486 243,-486 243,-480 249,-474 255,-474 255,-474 289,-474 289,-474 295,-474 301,-480 301,-486 301,-486 301,-498 301,-498 301,-504 295,-510 289,-510"/>
<text text-anchor="middle" x="272" y="-488.3" font-family="Helvetica,sans-Serif" font-size="14.00">peer.ts</text>
</g>
<!-- src/example&#45;app.ts&#45;&gt;src/peer/peer.ts -->
<g id="edge15" class="edge">
<title>src/example&#45;app.ts&#45;&gt;src/peer/peer.ts</title>
<path fill="none" stroke="#528b8b" stroke-width="2" d="M127.44,-452.14C140.62,-456.52 154.79,-461.07 168,-465 189.43,-471.37 213.59,-477.75 233.13,-482.7"/>
<polygon fill="#528b8b" stroke="#528b8b" stroke-width="2" points="232.33,-486.11 242.88,-485.16 234.04,-479.32 232.33,-486.11"/>
</g>
<!-- src/query&#45;follower/query&#45;follower.ts -->
<g id="node16" class="node">
<title>src/query&#45;follower/query&#45;follower.ts</title>
<path fill="#79cdcd" stroke="#79cdcd" d="M318,-182C318,-182 226,-182 226,-182 220,-182 214,-176 214,-170 214,-170 214,-158 214,-158 214,-152 220,-146 226,-146 226,-146 318,-146 318,-146 324,-146 330,-152 330,-158 330,-158 330,-170 330,-170 330,-176 324,-182 318,-182"/>
<text text-anchor="middle" x="272" y="-160.3" font-family="Helvetica,sans-Serif" font-size="14.00">query&#45;follower.ts</text>
</g>
<!-- src/example&#45;app.ts&#45;&gt;src/query&#45;follower/query&#45;follower.ts -->
<g id="edge14" class="edge">
<title>src/example&#45;app.ts&#45;&gt;src/query&#45;follower/query&#45;follower.ts</title>
<path fill="none" stroke="#528b8b" stroke-width="2" d="M90.9,-415.82C103.68,-400.34 121.22,-377.01 132,-354 158.7,-296.99 128.6,-266.1 168,-217 178.21,-204.27 192.3,-194.29 206.79,-186.58"/>
<polygon fill="#528b8b" stroke="#528b8b" stroke-width="2" points="208.43,-189.67 215.82,-182.08 205.31,-183.41 208.43,-189.67"/>
</g>
<!-- src/storage/storage&#45;async.ts -->
<g id="node20" class="node">
<title>src/storage/storage&#45;async.ts</title>
<path fill="#79cdcd" stroke="#79cdcd" d="M318,-319C318,-319 226,-319 226,-319 220,-319 214,-313 214,-307 214,-307 214,-295 214,-295 214,-289 220,-283 226,-283 226,-283 318,-283 318,-283 324,-283 330,-289 330,-295 330,-295 330,-307 330,-307 330,-313 324,-319 318,-319"/>
<text text-anchor="middle" x="272" y="-297.3" font-family="Helvetica,sans-Serif" font-size="14.00">storage&#45;async.ts</text>
</g>
<!-- src/example&#45;app.ts&#45;&gt;src/storage/storage&#45;async.ts -->
<g id="edge12" class="edge">
<title>src/example&#45;app.ts&#45;&gt;src/storage/storage&#45;async.ts</title>
<path fill="none" stroke="#528b8b" stroke-width="2" d="M93.53,-415.74C111.57,-398.54 140.27,-372.68 168,-354 184.61,-342.81 203.87,-332.31 221.22,-323.65"/>
<polygon fill="#528b8b" stroke="#528b8b" stroke-width="2" points="223.2,-326.59 230.63,-319.04 220.11,-320.3 223.2,-326.59"/>
</g>
<!-- src/storage/storage&#45;driver&#45;async&#45;memory.ts -->
<g id="node22" class="node">
<title>src/storage/storage&#45;driver&#45;async&#45;memory.ts</title>
<path fill="#79cdcd" stroke="#79cdcd" d="M364,-265C364,-265 180,-265 180,-265 174,-265 168,-259 168,-253 168,-253 168,-241 168,-241 168,-235 174,-229 180,-229 180,-229 364,-229 364,-229 370,-229 376,-235 376,-241 376,-241 376,-253 376,-253 376,-259 370,-265 364,-265"/>
<text text-anchor="middle" x="272" y="-243.3" font-family="Helvetica,sans-Serif" font-size="14.00">storage&#45;driver&#45;async&#45;memory.ts</text>
</g>
<!-- src/example&#45;app.ts&#45;&gt;src/storage/storage&#45;driver&#45;async&#45;memory.ts -->
<g id="edge11" class="edge">
<title>src/example&#45;app.ts&#45;&gt;src/storage/storage&#45;driver&#45;async&#45;memory.ts</title>
<path fill="none" stroke="#528b8b" stroke-width="2" d="M89.43,-415.94C101.66,-400.15 119.18,-376.33 132,-354 151.41,-320.18 138.23,-299.18 168,-274 169.36,-272.85 170.76,-271.75 172.2,-270.7"/>
<polygon fill="#528b8b" stroke="#528b8b" stroke-width="2" points="174.31,-273.5 180.83,-265.15 170.53,-267.61 174.31,-273.5"/>
</g>
<!-- src/core&#45;validators/addresses.ts -->
<g id="node2" class="node">
<title>src/core&#45;validators/addresses.ts</title>
<path fill="#79cdcd" stroke="#79cdcd" d="M906,-829C906,-829 837,-829 837,-829 831,-829 825,-823 825,-817 825,-817 825,-805 825,-805 825,-799 831,-793 837,-793 837,-793 906,-793 906,-793 912,-793 918,-799 918,-805 918,-805 918,-817 918,-817 918,-823 912,-829 906,-829"/>
<text text-anchor="middle" x="871.5" y="-807.3" font-family="Helvetica,sans-Serif" font-size="14.00">addresses.ts</text>
</g>
<!-- src/core&#45;validators/characters.ts -->
<g id="node3" class="node">
<title>src/core&#45;validators/characters.ts</title>
<path fill="#79cdcd" stroke="#79cdcd" d="M1088.5,-883C1088.5,-883 1018.5,-883 1018.5,-883 1012.5,-883 1006.5,-877 1006.5,-871 1006.5,-871 1006.5,-859 1006.5,-859 1006.5,-853 1012.5,-847 1018.5,-847 1018.5,-847 1088.5,-847 1088.5,-847 1094.5,-847 1100.5,-853 1100.5,-859 1100.5,-859 1100.5,-871 1100.5,-871 1100.5,-877 1094.5,-883 1088.5,-883"/>
<text text-anchor="middle" x="1053.5" y="-861.3" font-family="Helvetica,sans-Serif" font-size="14.00">characters.ts</text>
</g>
<!-- src/core&#45;validators/addresses.ts&#45;&gt;src/core&#45;validators/characters.ts -->
<g id="edge1" class="edge">
<title>src/core&#45;validators/addresses.ts&#45;&gt;src/core&#45;validators/characters.ts</title>
<path fill="none" stroke="#528b8b" stroke-width="2" d="M918.08,-824.57C932.46,-828.86 948.39,-833.62 963,-838 973.82,-841.25 985.37,-844.72 996.46,-848.07"/>
<polygon fill="#528b8b" stroke="#528b8b" stroke-width="2" points="995.47,-851.42 1006.06,-850.96 997.49,-844.72 995.47,-851.42"/>
</g>
<!-- src/core&#45;validators/checkers.ts -->
<g id="node4" class="node">
<title>src/core&#45;validators/checkers.ts</title>
<path fill="#79cdcd" stroke="#79cdcd" d="M902,-883C902,-883 841,-883 841,-883 835,-883 829,-877 829,-871 829,-871 829,-859 829,-859 829,-853 835,-847 841,-847 841,-847 902,-847 902,-847 908,-847 914,-853 914,-859 914,-859 914,-871 914,-871 914,-877 908,-883 902,-883"/>
<text text-anchor="middle" x="871.5" y="-861.3" font-family="Helvetica,sans-Serif" font-size="14.00">checkers.ts</text>
</g>
<!-- src/core&#45;validators/checkers.ts&#45;&gt;src/core&#45;validators/characters.ts -->
<g id="edge2" class="edge">
<title>src/core&#45;validators/checkers.ts&#45;&gt;src/core&#45;validators/characters.ts</title>
<path fill="none" stroke="#528b8b" stroke-width="2" d="M914.25,-865C938.54,-865 969.5,-865 995.96,-865"/>
<polygon fill="#528b8b" stroke="#528b8b" stroke-width="2" points="996.23,-868.5 1006.23,-865 996.23,-861.5 996.23,-868.5"/>
</g>
<!-- src/crypto/base32.ts -->
<g id="node5" class="node">
<title>src/crypto/base32.ts</title>
<path fill="#79cdcd" stroke="#79cdcd" d="M897,-582C897,-582 846,-582 846,-582 840,-582 834,-576 834,-570 834,-570 834,-558 834,-558 834,-552 840,-546 846,-546 846,-546 897,-546 897,-546 903,-546 909,-552 909,-558 909,-558 909,-570 909,-570 909,-576 903,-582 897,-582"/>
<text text-anchor="middle" x="871.5" y="-560.3" font-family="Helvetica,sans-Serif" font-size="14.00">base32.ts</text>
</g>
<!-- rfc4648 -->
<g id="node23" class="node">
<title>rfc4648</title>
<polygon fill="#cdc8b1" stroke="#8b8878" points="1084.5,-582 1026.5,-582 1022.5,-578 1022.5,-546 1080.5,-546 1084.5,-550 1084.5,-582"/>
<polyline fill="none" stroke="#8b8878" points="1080.5,-578 1022.5,-578 "/>
<polyline fill="none" stroke="#8b8878" points="1080.5,-578 1080.5,-546 "/>
<polyline fill="none" stroke="#8b8878" points="1080.5,-578 1084.5,-582 "/>
<text text-anchor="middle" x="1053.5" y="-560.3" font-family="Helvetica,sans-Serif" font-size="14.00">rfc4648</text>
</g>
<!-- src/crypto/base32.ts&#45;&gt;rfc4648 -->
<g id="edge31" class="edge">
<title>src/crypto/base32.ts&#45;&gt;rfc4648</title>
<path fill="none" stroke="#8b8878" stroke-width="1.5" stroke-dasharray="5,2" d="M909.36,-564C939.17,-564 981.1,-564 1011.87,-564"/>
<polygon fill="#8b8878" stroke="#8b8878" stroke-width="1.5" points="1012.25,-567.5 1022.25,-564 1012.25,-560.5 1012.25,-567.5"/>
</g>
<!-- src/crypto/crypto&#45;driver&#45;chloride.ts -->
<g id="node6" class="node">
<title>src/crypto/crypto&#45;driver&#45;chloride.ts</title>
<path fill="#79cdcd" stroke="#79cdcd" d="M558,-678C558,-678 424,-678 424,-678 418,-678 412,-672 412,-666 412,-666 412,-654 412,-654 412,-648 418,-642 424,-642 424,-642 558,-642 558,-642 564,-642 570,-648 570,-654 570,-654 570,-666 570,-666 570,-672 564,-678 558,-678"/>
<text text-anchor="middle" x="491" y="-656.3" font-family="Helvetica,sans-Serif" font-size="14.00">crypto&#45;driver&#45;chloride.ts</text>
</g>
<!-- chloride -->
<g id="node24" class="node">
<title>chloride</title>
<polygon fill="#cdc8b1" stroke="#8b8878" points="711,-807 651,-807 647,-803 647,-771 707,-771 711,-775 711,-807"/>
<polyline fill="none" stroke="#8b8878" points="707,-803 647,-803 "/>
<polyline fill="none" stroke="#8b8878" points="707,-803 707,-771 "/>
<polyline fill="none" stroke="#8b8878" points="707,-803 711,-807 "/>
<text text-anchor="middle" x="679" y="-785.3" font-family="Helvetica,sans-Serif" font-size="14.00">chloride</text>
</g>
<!-- src/crypto/crypto&#45;driver&#45;chloride.ts&#45;&gt;chloride -->
<g id="edge32" class="edge">
<title>src/crypto/crypto&#45;driver&#45;chloride.ts&#45;&gt;chloride</title>
<path fill="none" stroke="#8b8878" stroke-width="1.5" stroke-dasharray="5,2" d="M508.15,-678.1C528.89,-700.43 566.92,-738.35 606,-762 615.62,-767.82 626.7,-772.74 637.24,-776.71"/>
<polygon fill="#8b8878" stroke="#8b8878" stroke-width="1.5" points="636.12,-780.02 646.71,-780.09 638.47,-773.43 636.12,-780.02"/>
</g>
<!-- src/crypto/crypto&#45;driver&#45;node.ts -->
<g id="node7" class="node">
<title>src/crypto/crypto&#45;driver&#45;node.ts</title>
<path fill="#79cdcd" stroke="#79cdcd" d="M549,-624C549,-624 433,-624 433,-624 427,-624 421,-618 421,-612 421,-612 421,-600 421,-600 421,-594 427,-588 433,-588 433,-588 549,-588 549,-588 555,-588 561,-594 561,-600 561,-600 561,-612 561,-612 561,-618 555,-624 549,-624"/>
<text text-anchor="middle" x="491" y="-602.3" font-family="Helvetica,sans-Serif" font-size="14.00">crypto&#45;driver&#45;node.ts</text>
</g>
<!-- crypto -->
<g id="node25" class="node">
<title>crypto</title>
<polygon fill="#cdc8b1" stroke="#8b8878" points="706,-753 656,-753 652,-749 652,-717 702,-717 706,-721 706,-753"/>
<polyline fill="none" stroke="#8b8878" points="702,-749 652,-749 "/>
<polyline fill="none" stroke="#8b8878" points="702,-749 702,-717 "/>
<polyline fill="none" stroke="#8b8878" points="702,-749 706,-753 "/>
<text text-anchor="middle" x="679" y="-731.3" font-family="Helvetica,sans-Serif" font-size="14.00">crypto</text>
</g>
<!-- src/crypto/crypto&#45;driver&#45;node.ts&#45;&gt;crypto -->
<g id="edge33" class="edge">
<title>src/crypto/crypto&#45;driver&#45;node.ts&#45;&gt;crypto</title>
<path fill="none" stroke="#8b8878" stroke-width="1.5" stroke-dasharray="5,2" d="M557.75,-624.06C562.15,-626.65 566.3,-629.62 570,-633 598.78,-659.31 576.75,-687.23 606,-713 615.98,-721.8 629.41,-727.07 641.96,-730.24"/>
<polygon fill="#8b8878" stroke="#8b8878" stroke-width="1.5" points="641.25,-733.67 651.76,-732.36 642.73,-726.83 641.25,-733.67"/>
</g>
<!-- src/crypto/crypto&#45;driver&#45;tweetnacl.ts -->
<g id="node8" class="node">
<title>src/crypto/crypto&#45;driver&#45;tweetnacl.ts</title>
<path fill="#79cdcd" stroke="#79cdcd" d="M943,-649C943,-649 800,-649 800,-649 794,-649 788,-643 788,-637 788,-637 788,-625 788,-625 788,-619 794,-613 800,-613 800,-613 943,-613 943,-613 949,-613 955,-619 955,-625 955,-625 955,-637 955,-637 955,-643 949,-649 943,-649"/>
<text text-anchor="middle" x="871.5" y="-627.3" font-family="Helvetica,sans-Serif" font-size="14.00">crypto&#45;driver&#45;tweetnacl.ts</text>
</g>
<!-- tweetnacl -->
<g id="node26" class="node">
<title>tweetnacl</title>
<polygon fill="#cdc8b1" stroke="#8b8878" points="1090.5,-696 1020.5,-696 1016.5,-692 1016.5,-660 1086.5,-660 1090.5,-664 1090.5,-696"/>
<polyline fill="none" stroke="#8b8878" points="1086.5,-692 1016.5,-692 "/>
<polyline fill="none" stroke="#8b8878" points="1086.5,-692 1086.5,-660 "/>
<polyline fill="none" stroke="#8b8878" points="1086.5,-692 1090.5,-696 "/>
<text text-anchor="middle" x="1053.5" y="-674.3" font-family="Helvetica,sans-Serif" font-size="14.00">tweetnacl</text>
</g>
<!-- src/crypto/crypto&#45;driver&#45;tweetnacl.ts&#45;&gt;tweetnacl -->
<g id="edge34" class="edge">
<title>src/crypto/crypto&#45;driver&#45;tweetnacl.ts&#45;&gt;tweetnacl</title>
<path fill="none" stroke="#8b8878" stroke-width="1.5" stroke-dasharray="5,2" d="M941.58,-649.04C963.19,-654.68 986.51,-660.77 1006.16,-665.9"/>
<polygon fill="#8b8878" stroke="#8b8878" stroke-width="1.5" points="1005.51,-669.35 1016.07,-668.49 1007.28,-662.58 1005.51,-669.35"/>
</g>
<!-- sha256&#45;uint8array -->
<g id="node27" class="node">
<title>sha256&#45;uint8array</title>
<polygon fill="#cdc8b1" stroke="#8b8878" points="1116,-642 995,-642 991,-638 991,-606 1112,-606 1116,-610 1116,-642"/>
<polyline fill="none" stroke="#8b8878" points="1112,-638 991,-638 "/>
<polyline fill="none" stroke="#8b8878" points="1112,-638 1112,-606 "/>
<polyline fill="none" stroke="#8b8878" points="1112,-638 1116,-642 "/>
<text text-anchor="middle" x="1053.5" y="-620.3" font-family="Helvetica,sans-Serif" font-size="14.00">sha256&#45;uint8array</text>
</g>
<!-- src/crypto/crypto&#45;driver&#45;tweetnacl.ts&#45;&gt;sha256&#45;uint8array -->
<g id="edge35" class="edge">
<title>src/crypto/crypto&#45;driver&#45;tweetnacl.ts&#45;&gt;sha256&#45;uint8array</title>
<path fill="none" stroke="#8b8878" stroke-width="1.5" stroke-dasharray="5,2" d="M955.12,-627.79C963.67,-627.45 972.3,-627.12 980.71,-626.79"/>
<polygon fill="#8b8878" stroke="#8b8878" stroke-width="1.5" points="980.98,-630.28 990.83,-626.4 980.71,-623.29 980.98,-630.28"/>
</g>
<!-- src/crypto/crypto.ts&#45;&gt;src/core&#45;validators/addresses.ts -->
<g id="edge5" class="edge">
<title>src/crypto/crypto.ts&#45;&gt;src/core&#45;validators/addresses.ts</title>
<path fill="none" stroke="#528b8b" stroke-width="2" d="M525.05,-557.26C540.24,-561.11 557.6,-567.72 570,-579 598.54,-604.97 577.42,-632.08 606,-658 656.81,-704.08 692.57,-673.76 752,-708 788.71,-729.15 824.53,-762.59 847,-785.59"/>
<polygon fill="#528b8b" stroke="#528b8b" stroke-width="2" points="844.64,-788.19 854.09,-792.96 849.68,-783.33 844.64,-788.19"/>
</g>
<!-- src/crypto/crypto.ts&#45;&gt;src/crypto/base32.ts -->
<g id="edge3" class="edge">
<title>src/crypto/crypto.ts&#45;&gt;src/crypto/base32.ts</title>
<path fill="none" stroke="#528b8b" stroke-width="2" d="M525.42,-551.26C548.14,-550.79 578.88,-550.24 606,-550 670.89,-549.43 687.22,-546.19 752,-550 775.74,-551.4 802.03,-554.36 823.79,-557.2"/>
<polygon fill="#528b8b" stroke="#528b8b" stroke-width="2" points="823.39,-560.68 833.77,-558.53 824.32,-553.74 823.39,-560.68"/>
</g>
<!-- src/crypto/global&#45;crypto&#45;driver.ts -->
<g id="node10" class="node">
<title>src/crypto/global&#45;crypto&#45;driver.ts</title>
<path fill="#79cdcd" stroke="#79cdcd" d="M740,-649C740,-649 618,-649 618,-649 612,-649 606,-643 606,-637 606,-637 606,-625 606,-625 606,-619 612,-613 618,-613 618,-613 740,-613 740,-613 746,-613 752,-619 752,-625 752,-625 752,-637 752,-637 752,-643 746,-649 740,-649"/>
<text text-anchor="middle" x="679" y="-627.3" font-family="Helvetica,sans-Serif" font-size="14.00">global&#45;crypto&#45;driver.ts</text>
</g>
<!-- src/crypto/crypto.ts&#45;&gt;src/crypto/global&#45;crypto&#45;driver.ts -->
<g id="edge6" class="edge">
<title>src/crypto/crypto.ts&#45;&gt;src/crypto/global&#45;crypto&#45;driver.ts</title>
<path fill="none" stroke="#528b8b" stroke-width="2" d="M525.08,-561.24C539.27,-565.76 555.82,-571.79 570,-579 587.37,-587.82 588.75,-594.95 606,-604 609.11,-605.63 612.34,-607.21 615.63,-608.73"/>
<polygon fill="#528b8b" stroke="#528b8b" stroke-width="2" points="614.47,-612.05 625.03,-612.87 617.29,-605.64 614.47,-612.05"/>
</g>
<!-- src/crypto/keypair.ts -->
<g id="node11" class="node">
<title>src/crypto/keypair.ts</title>
<path fill="#79cdcd" stroke="#79cdcd" d="M704,-595C704,-595 654,-595 654,-595 648,-595 642,-589 642,-583 642,-583 642,-571 642,-571 642,-565 648,-559 654,-559 654,-559 704,-559 704,-559 710,-559 716,-565 716,-571 716,-571 716,-583 716,-583 716,-589 710,-595 704,-595"/>
<text text-anchor="middle" x="679" y="-573.3" font-family="Helvetica,sans-Serif" font-size="14.00">keypair.ts</text>
</g>
<!-- src/crypto/crypto.ts&#45;&gt;src/crypto/keypair.ts -->
<g id="edge4" class="edge">
<title>src/crypto/crypto.ts&#45;&gt;src/crypto/keypair.ts</title>
<path fill="none" stroke="#528b8b" stroke-width="2" d="M525.25,-556.47C554.86,-560.45 598.48,-566.31 631.53,-570.75"/>
<polygon fill="#528b8b" stroke="#528b8b" stroke-width="2" points="631.48,-574.28 641.86,-572.14 632.41,-567.34 631.48,-574.28"/>
</g>
<!-- src/crypto/global&#45;crypto&#45;driver.ts&#45;&gt;src/crypto/crypto&#45;driver&#45;tweetnacl.ts -->
<g id="edge7" class="edge">
<title>src/crypto/global&#45;crypto&#45;driver.ts&#45;&gt;src/crypto/crypto&#45;driver&#45;tweetnacl.ts</title>
<path fill="none" stroke="#528b8b" stroke-width="2" d="M752.02,-631C760.43,-631 769.09,-631 777.73,-631"/>
<polygon fill="#528b8b" stroke="#528b8b" stroke-width="2" points="777.83,-634.5 787.83,-631 777.83,-627.5 777.83,-634.5"/>
</g>
<!-- src/crypto/keypair.ts&#45;&gt;src/core&#45;validators/addresses.ts -->
<g id="edge9" class="edge">
<title>src/crypto/keypair.ts&#45;&gt;src/core&#45;validators/addresses.ts</title>
<path fill="none" stroke="#528b8b" stroke-width="2" d="M716.2,-583.78C728.96,-587.78 742.47,-594.09 752,-604 787.35,-640.79 763.12,-668.46 788,-713 803.09,-740.01 826.14,-766.61 844.05,-785.26"/>
<polygon fill="#528b8b" stroke="#528b8b" stroke-width="2" points="841.88,-788.05 851.37,-792.75 846.88,-783.15 841.88,-788.05"/>
</g>
<!-- src/crypto/keypair.ts&#45;&gt;src/crypto/base32.ts -->
<g id="edge8" class="edge">
<title>src/crypto/keypair.ts&#45;&gt;src/crypto/base32.ts</title>
<path fill="none" stroke="#528b8b" stroke-width="2" d="M716.28,-574.52C746.67,-572.45 790.27,-569.48 823.36,-567.22"/>
<polygon fill="#528b8b" stroke="#528b8b" stroke-width="2" points="823.97,-570.68 833.71,-566.51 823.49,-563.7 823.97,-570.68"/>
</g>
<!-- src/format&#45;validators/format&#45;validator&#45;es4.ts&#45;&gt;src/core&#45;validators/addresses.ts -->
<g id="edge19" class="edge">
<title>src/format&#45;validators/format&#45;validator&#45;es4.ts&#45;&gt;src/core&#45;validators/addresses.ts</title>
<path fill="none" stroke="#528b8b" stroke-width="2" d="M348.09,-832.08C442.4,-828.4 609.18,-821.85 752,-816 772.5,-815.16 794.99,-814.22 814.82,-813.38"/>
<polygon fill="#528b8b" stroke="#528b8b" stroke-width="2" points="815.08,-816.87 824.92,-812.95 814.78,-809.88 815.08,-816.87"/>
</g>
<!-- src/format&#45;validators/format&#45;validator&#45;es4.ts&#45;&gt;src/core&#45;validators/characters.ts -->
<g id="edge17" class="edge">
<title>src/format&#45;validators/format&#45;validator&#45;es4.ts&#45;&gt;src/core&#45;validators/characters.ts</title>
<path fill="none" stroke="#528b8b" stroke-width="2" d="M348.31,-850.07C366.49,-853.35 385.9,-856.57 404,-859 650.66,-892.12 716.79,-928.33 963,-892 973.94,-890.39 985.4,-887.72 996.32,-884.67"/>
<polygon fill="#528b8b" stroke="#528b8b" stroke-width="2" points="997.56,-887.96 1006.17,-881.79 995.59,-881.24 997.56,-887.96"/>
</g>
<!-- src/format&#45;validators/format&#45;validator&#45;es4.ts&#45;&gt;src/core&#45;validators/checkers.ts -->
<g id="edge18" class="edge">
<title>src/format&#45;validators/format&#45;validator&#45;es4.ts&#45;&gt;src/core&#45;validators/checkers.ts</title>
<path fill="none" stroke="#528b8b" stroke-width="2" d="M348.07,-838.77C471.22,-844.95 713.03,-857.09 818.85,-862.41"/>
<polygon fill="#528b8b" stroke="#528b8b" stroke-width="2" points="818.79,-865.91 828.96,-862.91 819.15,-858.92 818.79,-865.91"/>
</g>
<!-- src/format&#45;validators/format&#45;validator&#45;es4.ts&#45;&gt;src/crypto/crypto.ts -->
<g id="edge16" class="edge">
<title>src/format&#45;validators/format&#45;validator&#45;es4.ts&#45;&gt;src/crypto/crypto.ts</title>
<path fill="none" stroke="#528b8b" stroke-width="2" d="M280.14,-816.83C301.15,-764.13 363.84,-612.89 404,-579 416.05,-568.83 431.93,-562.48 446.77,-558.53"/>
<polygon fill="#528b8b" stroke="#528b8b" stroke-width="2" points="447.89,-561.86 456.81,-556.15 446.28,-555.05 447.89,-561.86"/>
</g>
<!-- src/peer/peer&#45;client.ts -->
<g id="node13" class="node">
<title>src/peer/peer&#45;client.ts</title>
<path fill="#79cdcd" stroke="#79cdcd" d="M307,-402C307,-402 237,-402 237,-402 231,-402 225,-396 225,-390 225,-390 225,-378 225,-378 225,-372 231,-366 237,-366 237,-366 307,-366 307,-366 313,-366 319,-372 319,-378 319,-378 319,-390 319,-390 319,-396 313,-402 307,-402"/>
<text text-anchor="middle" x="272" y="-380.3" font-family="Helvetica,sans-Serif" font-size="14.00">peer&#45;client.ts</text>
</g>
<!-- src/storage/compare.ts -->
<g id="node18" class="node">
<title>src/storage/compare.ts</title>
<path fill="#79cdcd" stroke="#79cdcd" d="M521,-319C521,-319 461,-319 461,-319 455,-319 449,-313 449,-307 449,-307 449,-295 449,-295 449,-289 455,-283 461,-283 461,-283 521,-283 521,-283 527,-283 533,-289 533,-295 533,-295 533,-307 533,-307 533,-313 527,-319 521,-319"/>
<text text-anchor="middle" x="491" y="-297.3" font-family="Helvetica,sans-Serif" font-size="14.00">compare.ts</text>
</g>
<!-- src/peer/peer&#45;client.ts&#45;&gt;src/storage/compare.ts -->
<g id="edge20" class="edge">
<title>src/peer/peer&#45;client.ts&#45;&gt;src/storage/compare.ts</title>
<path fill="none" stroke="#528b8b" stroke-width="2" d="M319.12,-372.18C337.08,-367.16 357.69,-360.88 376,-354 399.48,-345.18 424.85,-333.6 445.68,-323.52"/>
<polygon fill="#528b8b" stroke="#528b8b" stroke-width="2" points="447.46,-326.54 454.91,-319 444.39,-320.25 447.46,-326.54"/>
</g>
<!-- src/peer/peer&#45;server.ts -->
<g id="node14" class="node">
<title>src/peer/peer&#45;server.ts</title>
<path fill="#79cdcd" stroke="#79cdcd" d="M310,-456C310,-456 234,-456 234,-456 228,-456 222,-450 222,-444 222,-444 222,-432 222,-432 222,-426 228,-420 234,-420 234,-420 310,-420 310,-420 316,-420 322,-426 322,-432 322,-432 322,-444 322,-444 322,-450 316,-456 310,-456"/>
<text text-anchor="middle" x="272" y="-434.3" font-family="Helvetica,sans-Serif" font-size="14.00">peer&#45;server.ts</text>
</g>
<!-- superbus&#45;map -->
<g id="node28" class="node">
<title>superbus&#45;map</title>
<polygon fill="#cdc8b1" stroke="#8b8878" points="543,-510 443,-510 439,-506 439,-474 539,-474 543,-478 543,-510"/>
<polyline fill="none" stroke="#8b8878" points="539,-506 439,-506 "/>
<polyline fill="none" stroke="#8b8878" points="539,-506 539,-474 "/>
<polyline fill="none" stroke="#8b8878" points="539,-506 543,-510 "/>
<text text-anchor="middle" x="491" y="-488.3" font-family="Helvetica,sans-Serif" font-size="14.00">superbus&#45;map</text>
</g>
<!-- src/peer/peer.ts&#45;&gt;superbus&#45;map -->
<g id="edge36" class="edge">
<title>src/peer/peer.ts&#45;&gt;superbus&#45;map</title>
<path fill="none" stroke="#8b8878" stroke-width="1.5" stroke-dasharray="5,2" d="M301.37,-492C333.53,-492 386.9,-492 428.69,-492"/>
<polygon fill="#8b8878" stroke="#8b8878" stroke-width="1.5" points="428.77,-495.5 438.77,-492 428.77,-488.5 428.77,-495.5"/>
</g>
<!-- src/query/query.ts -->
<g id="node17" class="node">
<title>src/query/query.ts</title>
<path fill="#79cdcd" stroke="#79cdcd" d="M511,-136C511,-136 471,-136 471,-136 465,-136 459,-130 459,-124 459,-124 459,-112 459,-112 459,-106 465,-100 471,-100 471,-100 511,-100 511,-100 517,-100 523,-106 523,-112 523,-112 523,-124 523,-124 523,-130 517,-136 511,-136"/>
<text text-anchor="middle" x="491" y="-114.3" font-family="Helvetica,sans-Serif" font-size="14.00">query.ts</text>
</g>
<!-- src/query&#45;follower/query&#45;follower.ts&#45;&gt;src/query/query.ts -->
<g id="edge21" class="edge">
<title>src/query&#45;follower/query&#45;follower.ts&#45;&gt;src/query/query.ts</title>
<path fill="none" stroke="#528b8b" stroke-width="2" d="M330.01,-151.91C367.34,-144 415.25,-133.85 448.87,-126.72"/>
<polygon fill="#528b8b" stroke="#528b8b" stroke-width="2" points="449.77,-130.11 458.82,-124.61 448.31,-123.26 449.77,-130.11"/>
</g>
<!-- superbus -->
<g id="node29" class="node">
<title>superbus</title>
<polygon fill="#cdc8b1" stroke="#8b8878" points="527,-211 459,-211 455,-207 455,-175 523,-175 527,-179 527,-211"/>
<polyline fill="none" stroke="#8b8878" points="523,-207 455,-207 "/>
<polyline fill="none" stroke="#8b8878" points="523,-207 523,-175 "/>
<polyline fill="none" stroke="#8b8878" points="523,-207 527,-211 "/>
<text text-anchor="middle" x="491" y="-189.3" font-family="Helvetica,sans-Serif" font-size="14.00">superbus</text>
</g>
<!-- src/query&#45;follower/query&#45;follower.ts&#45;&gt;superbus -->
<g id="edge37" class="edge">
<title>src/query&#45;follower/query&#45;follower.ts&#45;&gt;superbus</title>
<path fill="none" stroke="#8b8878" stroke-width="1.5" stroke-dasharray="5,2" d="M330.01,-171.62C365.86,-176.41 411.47,-182.51 444.81,-186.96"/>
<polygon fill="#8b8878" stroke="#8b8878" stroke-width="1.5" points="444.36,-190.43 454.74,-188.29 445.29,-183.49 444.36,-190.43"/>
</g>
<!-- src/storage/lock.ts -->
<g id="node19" class="node">
<title>src/storage/lock.ts</title>
<path fill="#79cdcd" stroke="#79cdcd" d="M506.5,-265C506.5,-265 475.5,-265 475.5,-265 469.5,-265 463.5,-259 463.5,-253 463.5,-253 463.5,-241 463.5,-241 463.5,-235 469.5,-229 475.5,-229 475.5,-229 506.5,-229 506.5,-229 512.5,-229 518.5,-235 518.5,-241 518.5,-241 518.5,-253 518.5,-253 518.5,-259 512.5,-265 506.5,-265"/>
<text text-anchor="middle" x="491" y="-243.3" font-family="Helvetica,sans-Serif" font-size="14.00">lock.ts</text>
</g>
<!-- src/storage/storage&#45;async.ts&#45;&gt;src/crypto/crypto.ts -->
<g id="edge23" class="edge">
<title>src/storage/storage&#45;async.ts&#45;&gt;src/crypto/crypto.ts</title>
<path fill="none" stroke="#528b8b" stroke-width="2" d="M330.05,-318.97C347.26,-327.07 364.6,-338.42 376,-354 419.93,-414.02 356.87,-461.46 404,-519 414.64,-531.99 431.02,-539.88 446.64,-544.66"/>
<polygon fill="#528b8b" stroke="#528b8b" stroke-width="2" points="446.16,-548.16 456.73,-547.38 447.98,-541.4 446.16,-548.16"/>
</g>
<!-- src/storage/storage&#45;async.ts&#45;&gt;src/storage/compare.ts -->
<g id="edge22" class="edge">
<title>src/storage/storage&#45;async.ts&#45;&gt;src/storage/compare.ts</title>
<path fill="none" stroke="#528b8b" stroke-width="2" d="M330.01,-301C363.67,-301 405.92,-301 438.56,-301"/>
<polygon fill="#528b8b" stroke="#528b8b" stroke-width="2" points="438.79,-304.5 448.79,-301 438.79,-297.5 438.79,-304.5"/>
</g>
<!-- src/storage/storage&#45;async.ts&#45;&gt;superbus -->
<g id="edge38" class="edge">
<title>src/storage/storage&#45;async.ts&#45;&gt;superbus</title>
<path fill="none" stroke="#8b8878" stroke-width="1.5" stroke-dasharray="5,2" d="M330.24,-295.01C346.38,-291.06 363.05,-284.59 376,-274 397.85,-256.14 382.29,-235.04 404,-217 415.42,-207.52 430.33,-201.77 444.52,-198.29"/>
<polygon fill="#8b8878" stroke="#8b8878" stroke-width="1.5" points="445.61,-201.64 454.66,-196.14 444.15,-194.79 445.61,-201.64"/>
</g>
<!-- src/storage/storage&#45;cache.ts -->
<g id="node21" class="node">
<title>src/storage/storage&#45;cache.ts</title>
<path fill="#79cdcd" stroke="#79cdcd" d="M120,-265C120,-265 28,-265 28,-265 22,-265 16,-259 16,-253 16,-253 16,-241 16,-241 16,-235 22,-229 28,-229 28,-229 120,-229 120,-229 126,-229 132,-235 132,-241 132,-241 132,-253 132,-253 132,-259 126,-265 120,-265"/>
<text text-anchor="middle" x="74" y="-243.3" font-family="Helvetica,sans-Serif" font-size="14.00">storage&#45;cache.ts</text>
</g>
<!-- src/storage/storage&#45;cache.ts&#45;&gt;src/crypto/crypto.ts -->
<g id="edge27" class="edge">
<title>src/storage/storage&#45;cache.ts&#45;&gt;src/crypto/crypto.ts</title>
<path fill="none" stroke="#528b8b" stroke-width="2" d="M82.02,-265.06C93.33,-294.52 115.95,-354.86 132,-407 150.65,-467.58 118.26,-505.7 168,-545 209.99,-578.18 369.2,-565.65 446.86,-557.22"/>
<polygon fill="#528b8b" stroke="#528b8b" stroke-width="2" points="447.26,-560.7 456.81,-556.12 446.49,-553.74 447.26,-560.7"/>
</g>
<!-- src/storage/storage&#45;cache.ts&#45;&gt;src/query&#45;follower/query&#45;follower.ts -->
<g id="edge25" class="edge">
<title>src/storage/storage&#45;cache.ts&#45;&gt;src/query&#45;follower/query&#45;follower.ts</title>
<path fill="none" stroke="#528b8b" stroke-width="2" d="M117.53,-228.99C147.22,-216.42 187.04,-199.55 218.68,-186.16"/>
<polygon fill="#528b8b" stroke="#528b8b" stroke-width="2" points="220.37,-189.24 228.22,-182.12 217.64,-182.79 220.37,-189.24"/>
</g>
<!-- src/storage/storage&#45;cache.ts&#45;&gt;src/query/query.ts -->
<g id="edge24" class="edge">
<title>src/storage/storage&#45;cache.ts&#45;&gt;src/query/query.ts</title>
<path fill="none" stroke="#528b8b" stroke-width="2" d="M78.93,-228.98C87.76,-193.47 112.85,-115.13 168,-83 257.43,-30.91 384.71,-71.81 449.19,-98.92"/>
<polygon fill="#528b8b" stroke="#528b8b" stroke-width="2" points="448.04,-102.23 458.61,-102.97 450.8,-95.8 448.04,-102.23"/>
</g>
<!-- src/storage/storage&#45;cache.ts&#45;&gt;src/storage/storage&#45;async.ts -->
<g id="edge26" class="edge">
<title>src/storage/storage&#45;cache.ts&#45;&gt;src/storage/storage&#45;async.ts</title>
<path fill="none" stroke="#528b8b" stroke-width="2" d="M132.48,-263.94C144.22,-267.33 156.49,-270.82 168,-274 179.62,-277.21 192.01,-280.54 204.02,-283.71"/>
<polygon fill="#528b8b" stroke="#528b8b" stroke-width="2" points="203.43,-287.18 213.99,-286.34 205.21,-280.41 203.43,-287.18"/>
</g>
<!-- fast&#45;deep&#45;equal -->
<g id="node30" class="node">
<title>fast&#45;deep&#45;equal</title>
<polygon fill="#cdc8b1" stroke="#8b8878" points="327,-128 221,-128 217,-124 217,-92 323,-92 327,-96 327,-128"/>
<polyline fill="none" stroke="#8b8878" points="323,-124 217,-124 "/>
<polyline fill="none" stroke="#8b8878" points="323,-124 323,-92 "/>
<polyline fill="none" stroke="#8b8878" points="323,-124 327,-128 "/>
<text text-anchor="middle" x="272" y="-106.3" font-family="Helvetica,sans-Serif" font-size="14.00">fast&#45;deep&#45;equal</text>
</g>
<!-- src/storage/storage&#45;cache.ts&#45;&gt;fast&#45;deep&#45;equal -->
<g id="edge39" class="edge">
<title>src/storage/storage&#45;cache.ts&#45;&gt;fast&#45;deep&#45;equal</title>
<path fill="none" stroke="#8b8878" stroke-width="1.5" stroke-dasharray="5,2" d="M84.69,-228.99C99.29,-203.68 129.36,-157.99 168,-134 179.74,-126.71 193.47,-121.64 207.02,-118.1"/>
<polygon fill="#8b8878" stroke="#8b8878" stroke-width="1.5" points="207.89,-121.49 216.81,-115.79 206.28,-114.68 207.89,-121.49"/>
</g>
<!-- fast&#45;json&#45;stable&#45;stringify -->
<g id="node31" class="node">
<title>fast&#45;json&#45;stable&#45;stringify</title>
<polygon fill="#cdc8b1" stroke="#8b8878" points="351.5,-36 196.5,-36 192.5,-32 192.5,0 347.5,0 351.5,-4 351.5,-36"/>
<polyline fill="none" stroke="#8b8878" points="347.5,-32 192.5,-32 "/>
<polyline fill="none" stroke="#8b8878" points="347.5,-32 347.5,0 "/>
<polyline fill="none" stroke="#8b8878" points="347.5,-32 351.5,-36 "/>
<text text-anchor="middle" x="272" y="-14.3" font-family="Helvetica,sans-Serif" font-size="14.00">fast&#45;json&#45;stable&#45;stringify</text>
</g>
<!-- src/storage/storage&#45;cache.ts&#45;&gt;fast&#45;json&#45;stable&#45;stringify -->
<g id="edge40" class="edge">
<title>src/storage/storage&#45;cache.ts&#45;&gt;fast&#45;json&#45;stable&#45;stringify</title>
<path fill="none" stroke="#8b8878" stroke-width="1.5" stroke-dasharray="5,2" d="M78.45,-228.81C86.76,-190.11 111.48,-99.12 168,-50 172.57,-46.03 177.63,-42.55 182.99,-39.5"/>
<polygon fill="#8b8878" stroke="#8b8878" stroke-width="1.5" points="184.93,-42.43 192.24,-34.76 181.74,-36.2 184.93,-42.43"/>
</g>
<!-- src/storage/storage&#45;driver&#45;async&#45;memory.ts&#45;&gt;src/query/query.ts -->
<g id="edge29" class="edge">
<title>src/storage/storage&#45;driver&#45;async&#45;memory.ts&#45;&gt;src/query/query.ts</title>
<path fill="none" stroke="#528b8b" stroke-width="2" d="M356.83,-228.92C363.68,-225.6 370.19,-221.66 376,-217 396.17,-200.82 385.78,-184.35 404,-166 416.87,-153.04 433.98,-142.54 449.54,-134.7"/>
<polygon fill="#528b8b" stroke="#528b8b" stroke-width="2" points="451.48,-137.65 458.98,-130.16 448.45,-131.34 451.48,-137.65"/>
</g>
<!-- src/storage/storage&#45;driver&#45;async&#45;memory.ts&#45;&gt;src/storage/compare.ts -->
<g id="edge28" class="edge">
<title>src/storage/storage&#45;driver&#45;async&#45;memory.ts&#45;&gt;src/storage/compare.ts</title>
<path fill="none" stroke="#528b8b" stroke-width="2" d="M345.56,-265.06C376.18,-272.67 411.1,-281.36 438.93,-288.29"/>
<polygon fill="#528b8b" stroke="#528b8b" stroke-width="2" points="438.29,-291.74 448.84,-290.76 439.98,-284.95 438.29,-291.74"/>
</g>
<!-- src/storage/storage&#45;driver&#45;async&#45;memory.ts&#45;&gt;src/storage/lock.ts -->
<g id="edge30" class="edge">
<title>src/storage/storage&#45;driver&#45;async&#45;memory.ts&#45;&gt;src/storage/lock.ts</title>
<path fill="none" stroke="#528b8b" stroke-width="2" d="M376.1,-247C403.6,-247 431.57,-247 452.91,-247"/>
<polygon fill="#528b8b" stroke="#528b8b" stroke-width="2" points="453.12,-250.5 463.12,-247 453.12,-243.5 453.12,-250.5"/>
</g>
</g>
</svg>
