<?xml version="1.0" encoding="UTF-8" standalone="no"?>
<!DOCTYPE svg PUBLIC "-//W3C//DTD SVG 1.1//EN"
 "http://www.w3.org/Graphics/SVG/1.1/DTD/svg11.dtd">
<!-- Generated by graphviz version 2.44.1 (20200629.0846)
 -->
<!-- Title: G Pages: 1 -->
<svg width="863pt" height="733pt"
 viewBox="0.00 0.00 863.00 733.00" xmlns="http://www.w3.org/2000/svg" xmlns:xlink="http://www.w3.org/1999/xlink">
<g id="graph0" class="graph" transform="scale(1 1) rotate(0) translate(4 729)">
<title>G</title>
<polygon fill="white" stroke="transparent" points="-4,4 -4,-729 859,-729 859,4 -4,4"/>
<g id="clust1" class="cluster">
<title>cluster1716934412</title>
<path fill="none" stroke="#8b7d6b" stroke-width="2" d="M20,-8C20,-8 835,-8 835,-8 841,-8 847,-14 847,-20 847,-20 847,-705 847,-705 847,-711 841,-717 835,-717 835,-717 20,-717 20,-717 14,-717 8,-711 8,-705 8,-705 8,-20 8,-20 8,-14 14,-8 20,-8"/>
<text text-anchor="start" x="417" y="-702.8" font-family="Helvetica,sans-Serif" font-weight="bold" font-size="14.00">src</text>
</g>
<g id="clust2" class="cluster">
<title>cluster7034099520</title>
<path fill="bisque" stroke="#8b7d6b" stroke-width="2" d="M612,-261C612,-261 827,-261 827,-261 833,-261 839,-267 839,-273 839,-273 839,-378 839,-378 839,-384 833,-390 827,-390 827,-390 612,-390 612,-390 606,-390 600,-384 600,-378 600,-378 600,-273 600,-273 600,-267 606,-261 612,-261"/>
<text text-anchor="start" x="671" y="-375.8" font-family="Helvetica,sans-Serif" font-weight="bold" font-size="14.00">core&#45;validators</text>
</g>
<g id="clust3" class="cluster">
<title>cluster3713216487</title>
<path fill="bisque" stroke="#8b7d6b" stroke-width="2" d="M200.5,-16C200.5,-16 688,-16 688,-16 694,-16 700,-22 700,-28 700,-28 700,-241 700,-241 700,-247 694,-253 688,-253 688,-253 200.5,-253 200.5,-253 194.5,-253 188.5,-247 188.5,-241 188.5,-241 188.5,-28 188.5,-28 188.5,-22 194.5,-16 200.5,-16"/>
<text text-anchor="start" x="423.25" y="-238.8" font-family="Helvetica,sans-Serif" font-weight="bold" font-size="14.00">crypto</text>
</g>
<g id="clust4" class="cluster">
<title>cluster1407238017</title>
<path fill="bisque" stroke="#8b7d6b" stroke-width="2" d="M424,-288C424,-288 568,-288 568,-288 574,-288 580,-294 580,-300 580,-300 580,-351 580,-351 580,-357 574,-363 568,-363 568,-363 424,-363 424,-363 418,-363 412,-357 412,-351 412,-351 412,-300 412,-300 412,-294 418,-288 424,-288"/>
<text text-anchor="start" x="440" y="-348.8" font-family="Helvetica,sans-Serif" font-weight="bold" font-size="14.00">format&#45;validators</text>
</g>
<g id="clust5" class="cluster">
<title>cluster4100586268</title>
<path fill="bisque" stroke="#8b7d6b" stroke-width="2" d="M234,-273C234,-273 326,-273 326,-273 332,-273 338,-279 338,-285 338,-285 338,-444 338,-444 338,-450 332,-456 326,-456 326,-456 234,-456 234,-456 228,-456 222,-450 222,-444 222,-444 222,-285 222,-285 222,-279 228,-273 234,-273"/>
<text text-anchor="start" x="265.5" y="-441.8" font-family="Helvetica,sans-Serif" font-weight="bold" font-size="14.00">peer</text>
</g>
<g id="clust6" class="cluster">
<title>cluster7592849202</title>
<path fill="bisque" stroke="#8b7d6b" stroke-width="2" d="M226,-601C226,-601 334,-601 334,-601 340,-601 346,-607 346,-613 346,-613 346,-664 346,-664 346,-670 340,-676 334,-676 334,-676 226,-676 226,-676 220,-676 214,-670 214,-664 214,-664 214,-613 214,-613 214,-607 220,-601 226,-601"/>
<text text-anchor="start" x="233" y="-661.8" font-family="Helvetica,sans-Serif" font-weight="bold" font-size="14.00">query&#45;follower</text>
</g>
<g id="clust7" class="cluster">
<title>cluster686400807</title>
<path fill="bisque" stroke="#8b7d6b" stroke-width="2" d="M468,-601C468,-601 524,-601 524,-601 530,-601 536,-607 536,-613 536,-613 536,-664 536,-664 536,-670 530,-676 524,-676 524,-676 468,-676 468,-676 462,-676 456,-670 456,-664 456,-664 456,-613 456,-613 456,-607 462,-601 468,-601"/>
<text text-anchor="start" x="477.5" y="-661.8" font-family="Helvetica,sans-Serif" font-weight="bold" font-size="14.00">query</text>
</g>
<g id="clust8" class="cluster">
<title>cluster4757035570</title>
<path fill="bisque" stroke="#8b7d6b" stroke-width="2" d="M28,-464C28,-464 534,-464 534,-464 540,-464 546,-470 546,-476 546,-476 546,-581 546,-581 546,-587 540,-593 534,-593 534,-593 28,-593 28,-593 22,-593 16,-587 16,-581 16,-581 16,-476 16,-476 16,-470 22,-464 28,-464"/>
<text text-anchor="start" x="256.5" y="-578.8" font-family="Helvetica,sans-Serif" font-weight="bold" font-size="14.00">storage</text>
</g>
<!-- src/example&#45;app.ts -->
<g id="node1" class="node">
<title>src/example&#45;app.ts</title>
<path fill="#79cdcd" stroke="#79cdcd" d="M125,-317C125,-317 39,-317 39,-317 33,-317 27,-311 27,-305 27,-305 27,-293 27,-293 27,-287 33,-281 39,-281 39,-281 125,-281 125,-281 131,-281 137,-287 137,-293 137,-293 137,-305 137,-305 137,-311 131,-317 125,-317"/>
<text text-anchor="middle" x="82" y="-295.3" font-family="Helvetica,sans-Serif" font-size="14.00">example&#45;app.ts</text>
</g>
<!-- src/crypto/crypto&#45;driver&#45;tweetnacl.ts -->
<g id="node8" class="node">
<title>src/crypto/crypto&#45;driver&#45;tweetnacl.ts</title>
<path fill="#79cdcd" stroke="#79cdcd" d="M351.5,-114C351.5,-114 208.5,-114 208.5,-114 202.5,-114 196.5,-108 196.5,-102 196.5,-102 196.5,-90 196.5,-90 196.5,-84 202.5,-78 208.5,-78 208.5,-78 351.5,-78 351.5,-78 357.5,-78 363.5,-84 363.5,-90 363.5,-90 363.5,-102 363.5,-102 363.5,-108 357.5,-114 351.5,-114"/>
<text text-anchor="middle" x="280" y="-92.3" font-family="Helvetica,sans-Serif" font-size="14.00">crypto&#45;driver&#45;tweetnacl.ts</text>
</g>
<!-- src/example&#45;app.ts&#45;&gt;src/crypto/crypto&#45;driver&#45;tweetnacl.ts -->
<g id="edge12" class="edge">
<title>src/example&#45;app.ts&#45;&gt;src/crypto/crypto&#45;driver&#45;tweetnacl.ts</title>
<path fill="none" stroke="#528b8b" stroke-width="2" d="M87.33,-280.92C96.88,-245.07 123.2,-164.88 176,-123 179.56,-120.18 183.38,-117.65 187.39,-115.38"/>
<polygon fill="#528b8b" stroke="#528b8b" stroke-width="2" points="189.07,-118.46 196.42,-110.83 185.91,-112.21 189.07,-118.46"/>
</g>
<!-- src/crypto/crypto.ts -->
<g id="node9" class="node">
<title>src/crypto/crypto.ts</title>
<path fill="#79cdcd" stroke="#79cdcd" d="M302,-60C302,-60 258,-60 258,-60 252,-60 246,-54 246,-48 246,-48 246,-36 246,-36 246,-30 252,-24 258,-24 258,-24 302,-24 302,-24 308,-24 314,-30 314,-36 314,-36 314,-48 314,-48 314,-54 308,-60 302,-60"/>
<text text-anchor="middle" x="280" y="-38.3" font-family="Helvetica,sans-Serif" font-size="14.00">crypto.ts</text>
</g>
<!-- src/example&#45;app.ts&#45;&gt;src/crypto/crypto.ts -->
<g id="edge11" class="edge">
<title>src/example&#45;app.ts&#45;&gt;src/crypto/crypto.ts</title>
<path fill="none" stroke="#528b8b" stroke-width="2" d="M84.87,-280.93C90.34,-237.54 110.35,-126.75 176,-69 192.39,-54.59 215.56,-47.72 235.78,-44.51"/>
<polygon fill="#528b8b" stroke="#528b8b" stroke-width="2" points="236.29,-47.98 245.73,-43.18 235.36,-41.04 236.29,-47.98"/>
</g>
<!-- src/format&#45;validators/format&#45;validator&#45;es4.ts -->
<g id="node11" class="node">
<title>src/format&#45;validators/format&#45;validator&#45;es4.ts</title>
<path fill="#79cdcd" stroke="#79cdcd" d="M560,-332C560,-332 432,-332 432,-332 426,-332 420,-326 420,-320 420,-320 420,-308 420,-308 420,-302 426,-296 432,-296 432,-296 560,-296 560,-296 566,-296 572,-302 572,-308 572,-308 572,-320 572,-320 572,-326 566,-332 560,-332"/>
<text text-anchor="middle" x="496" y="-310.3" font-family="Helvetica,sans-Serif" font-size="14.00">format&#45;validator&#45;es4.ts</text>
</g>
<!-- src/example&#45;app.ts&#45;&gt;src/format&#45;validators/format&#45;validator&#45;es4.ts -->
<g id="edge8" class="edge">
<title>src/example&#45;app.ts&#45;&gt;src/format&#45;validators/format&#45;validator&#45;es4.ts</title>
<path fill="none" stroke="#528b8b" stroke-width="2" d="M129.14,-280.98C143.88,-276.08 160.41,-271.45 176,-269 221.66,-261.82 338.63,-260.15 384,-269 406.91,-273.47 431.06,-282.66 450.97,-291.59"/>
<polygon fill="#528b8b" stroke="#528b8b" stroke-width="2" points="449.54,-294.78 460.08,-295.79 452.46,-288.42 449.54,-294.78"/>
</g>
<!-- src/peer/peer.ts -->
<g id="node14" class="node">
<title>src/peer/peer.ts</title>
<path fill="#79cdcd" stroke="#79cdcd" d="M297,-317C297,-317 263,-317 263,-317 257,-317 251,-311 251,-305 251,-305 251,-293 251,-293 251,-287 257,-281 263,-281 263,-281 297,-281 297,-281 303,-281 309,-287 309,-293 309,-293 309,-305 309,-305 309,-311 303,-317 297,-317"/>
<text text-anchor="middle" x="280" y="-295.3" font-family="Helvetica,sans-Serif" font-size="14.00">peer.ts</text>
</g>
<!-- src/example&#45;app.ts&#45;&gt;src/peer/peer.ts -->
<g id="edge14" class="edge">
<title>src/example&#45;app.ts&#45;&gt;src/peer/peer.ts</title>
<path fill="none" stroke="#528b8b" stroke-width="2" d="M137.08,-299C169.87,-299 210.95,-299 240.46,-299"/>
<polygon fill="#528b8b" stroke="#528b8b" stroke-width="2" points="240.77,-302.5 250.77,-299 240.77,-295.5 240.77,-302.5"/>
</g>
<!-- src/query&#45;follower/query&#45;follower.ts -->
<g id="node15" class="node">
<title>src/query&#45;follower/query&#45;follower.ts</title>
<path fill="#79cdcd" stroke="#79cdcd" d="M326,-645C326,-645 234,-645 234,-645 228,-645 222,-639 222,-633 222,-633 222,-621 222,-621 222,-615 228,-609 234,-609 234,-609 326,-609 326,-609 332,-609 338,-615 338,-621 338,-621 338,-633 338,-633 338,-639 332,-645 326,-645"/>
<text text-anchor="middle" x="280" y="-623.3" font-family="Helvetica,sans-Serif" font-size="14.00">query&#45;follower.ts</text>
</g>
<!-- src/example&#45;app.ts&#45;&gt;src/query&#45;follower/query&#45;follower.ts -->
<g id="edge13" class="edge">
<title>src/example&#45;app.ts&#45;&gt;src/query&#45;follower/query&#45;follower.ts</title>
<path fill="none" stroke="#528b8b" stroke-width="2" d="M90,-317.18C101.28,-346.84 123.86,-407.57 140,-460 158.52,-520.17 132.08,-551.9 176,-597 185.78,-607.04 198.7,-613.77 212.08,-618.27"/>
<polygon fill="#528b8b" stroke="#528b8b" stroke-width="2" points="211.29,-621.68 221.87,-621.16 213.27,-614.97 211.29,-621.68"/>
</g>
<!-- src/storage/storage&#45;async.ts -->
<g id="node19" class="node">
<title>src/storage/storage&#45;async.ts</title>
<path fill="#79cdcd" stroke="#79cdcd" d="M326,-508C326,-508 234,-508 234,-508 228,-508 222,-502 222,-496 222,-496 222,-484 222,-484 222,-478 228,-472 234,-472 234,-472 326,-472 326,-472 332,-472 338,-478 338,-484 338,-484 338,-496 338,-496 338,-502 332,-508 326,-508"/>
<text text-anchor="middle" x="280" y="-486.3" font-family="Helvetica,sans-Serif" font-size="14.00">storage&#45;async.ts</text>
</g>
<!-- src/example&#45;app.ts&#45;&gt;src/storage/storage&#45;async.ts -->
<g id="edge10" class="edge">
<title>src/example&#45;app.ts&#45;&gt;src/storage/storage&#45;async.ts</title>
<path fill="none" stroke="#528b8b" stroke-width="2" d="M88.47,-317.24C99.45,-350.68 127.36,-421.85 176,-460 186.51,-468.24 199.21,-474.22 212.06,-478.56"/>
<polygon fill="#528b8b" stroke="#528b8b" stroke-width="2" points="211.29,-481.99 221.88,-481.57 213.34,-475.29 211.29,-481.99"/>
</g>
<!-- src/storage/storage&#45;driver&#45;async&#45;memory.ts -->
<g id="node21" class="node">
<title>src/storage/storage&#45;driver&#45;async&#45;memory.ts</title>
<path fill="#79cdcd" stroke="#79cdcd" d="M372,-562C372,-562 188,-562 188,-562 182,-562 176,-556 176,-550 176,-550 176,-538 176,-538 176,-532 182,-526 188,-526 188,-526 372,-526 372,-526 378,-526 384,-532 384,-538 384,-538 384,-550 384,-550 384,-556 378,-562 372,-562"/>
<text text-anchor="middle" x="280" y="-540.3" font-family="Helvetica,sans-Serif" font-size="14.00">storage&#45;driver&#45;async&#45;memory.ts</text>
</g>
<!-- src/example&#45;app.ts&#45;&gt;src/storage/storage&#45;driver&#45;async&#45;memory.ts -->
<g id="edge9" class="edge">
<title>src/example&#45;app.ts&#45;&gt;src/storage/storage&#45;driver&#45;async&#45;memory.ts</title>
<path fill="none" stroke="#528b8b" stroke-width="2" d="M88.48,-317.19C103.05,-364.42 143.84,-489.24 176,-517 177.35,-518.16 178.74,-519.28 180.17,-520.34"/>
<polygon fill="#528b8b" stroke="#528b8b" stroke-width="2" points="178.47,-523.41 188.75,-525.95 182.29,-517.55 178.47,-523.41"/>
</g>
<!-- src/core&#45;validators/addresses.ts -->
<g id="node2" class="node">
<title>src/core&#45;validators/addresses.ts</title>
<path fill="#79cdcd" stroke="#79cdcd" d="M689,-305C689,-305 620,-305 620,-305 614,-305 608,-299 608,-293 608,-293 608,-281 608,-281 608,-275 614,-269 620,-269 620,-269 689,-269 689,-269 695,-269 701,-275 701,-281 701,-281 701,-293 701,-293 701,-299 695,-305 689,-305"/>
<text text-anchor="middle" x="654.5" y="-283.3" font-family="Helvetica,sans-Serif" font-size="14.00">addresses.ts</text>
</g>
<!-- src/core&#45;validators/characters.ts -->
<g id="node3" class="node">
<title>src/core&#45;validators/characters.ts</title>
<path fill="#79cdcd" stroke="#79cdcd" d="M819,-359C819,-359 749,-359 749,-359 743,-359 737,-353 737,-347 737,-347 737,-335 737,-335 737,-329 743,-323 749,-323 749,-323 819,-323 819,-323 825,-323 831,-329 831,-335 831,-335 831,-347 831,-347 831,-353 825,-359 819,-359"/>
<text text-anchor="middle" x="784" y="-337.3" font-family="Helvetica,sans-Serif" font-size="14.00">characters.ts</text>
</g>
<!-- src/core&#45;validators/addresses.ts&#45;&gt;src/core&#45;validators/characters.ts -->
<g id="edge1" class="edge">
<title>src/core&#45;validators/addresses.ts&#45;&gt;src/core&#45;validators/characters.ts</title>
<path fill="none" stroke="#528b8b" stroke-width="2" d="M698.31,-305.13C708.72,-309.54 719.96,-314.3 730.75,-318.87"/>
<polygon fill="#528b8b" stroke="#528b8b" stroke-width="2" points="729.51,-322.15 740.09,-322.82 732.24,-315.7 729.51,-322.15"/>
</g>
<!-- src/core&#45;validators/checkers.ts -->
<g id="node4" class="node">
<title>src/core&#45;validators/checkers.ts</title>
<path fill="#79cdcd" stroke="#79cdcd" d="M685,-359C685,-359 624,-359 624,-359 618,-359 612,-353 612,-347 612,-347 612,-335 612,-335 612,-329 618,-323 624,-323 624,-323 685,-323 685,-323 691,-323 697,-329 697,-335 697,-335 697,-347 697,-347 697,-353 691,-359 685,-359"/>
<text text-anchor="middle" x="654.5" y="-337.3" font-family="Helvetica,sans-Serif" font-size="14.00">checkers.ts</text>
</g>
<!-- src/core&#45;validators/checkers.ts&#45;&gt;src/core&#45;validators/characters.ts -->
<g id="edge2" class="edge">
<title>src/core&#45;validators/checkers.ts&#45;&gt;src/core&#45;validators/characters.ts</title>
<path fill="none" stroke="#528b8b" stroke-width="2" d="M697.25,-341C706.63,-341 716.73,-341 726.6,-341"/>
<polygon fill="#528b8b" stroke="#528b8b" stroke-width="2" points="726.75,-344.5 736.75,-341 726.75,-337.5 726.75,-344.5"/>
</g>
<!-- src/crypto/base32.ts -->
<g id="node5" class="node">
<title>src/crypto/base32.ts</title>
<path fill="#79cdcd" stroke="#79cdcd" d="M680,-78C680,-78 629,-78 629,-78 623,-78 617,-72 617,-66 617,-66 617,-54 617,-54 617,-48 623,-42 629,-42 629,-42 680,-42 680,-42 686,-42 692,-48 692,-54 692,-54 692,-66 692,-66 692,-72 686,-78 680,-78"/>
<text text-anchor="middle" x="654.5" y="-56.3" font-family="Helvetica,sans-Serif" font-size="14.00">base32.ts</text>
</g>
<!-- src/crypto/crypto&#45;driver&#45;chloride.ts -->
<g id="node6" class="node">
<title>src/crypto/crypto&#45;driver&#45;chloride.ts</title>
<path fill="#79cdcd" stroke="#79cdcd" d="M347,-222C347,-222 213,-222 213,-222 207,-222 201,-216 201,-210 201,-210 201,-198 201,-198 201,-192 207,-186 213,-186 213,-186 347,-186 347,-186 353,-186 359,-192 359,-198 359,-198 359,-210 359,-210 359,-216 353,-222 347,-222"/>
<text text-anchor="middle" x="280" y="-200.3" font-family="Helvetica,sans-Serif" font-size="14.00">crypto&#45;driver&#45;chloride.ts</text>
</g>
<!-- src/crypto/crypto&#45;driver&#45;node.ts -->
<g id="node7" class="node">
<title>src/crypto/crypto&#45;driver&#45;node.ts</title>
<path fill="#79cdcd" stroke="#79cdcd" d="M338,-168C338,-168 222,-168 222,-168 216,-168 210,-162 210,-156 210,-156 210,-144 210,-144 210,-138 216,-132 222,-132 222,-132 338,-132 338,-132 344,-132 350,-138 350,-144 350,-144 350,-156 350,-156 350,-162 344,-168 338,-168"/>
<text text-anchor="middle" x="280" y="-146.3" font-family="Helvetica,sans-Serif" font-size="14.00">crypto&#45;driver&#45;node.ts</text>
</g>
<!-- src/crypto/crypto.ts&#45;&gt;src/core&#45;validators/addresses.ts -->
<g id="edge5" class="edge">
<title>src/crypto/crypto.ts&#45;&gt;src/core&#45;validators/addresses.ts</title>
<path fill="none" stroke="#528b8b" stroke-width="2" d="M314.38,-45.09C335.75,-48.37 363.26,-55.12 384,-69 401.14,-80.47 397.63,-91.21 412,-106 486.68,-182.87 511.18,-197.03 600,-257 603.33,-259.25 606.84,-261.49 610.41,-263.67"/>
<polygon fill="#528b8b" stroke="#528b8b" stroke-width="2" points="608.93,-266.86 619.31,-268.95 612.49,-260.84 608.93,-266.86"/>
</g>
<!-- src/crypto/crypto.ts&#45;&gt;src/crypto/base32.ts -->
<g id="edge3" class="edge">
<title>src/crypto/crypto.ts&#45;&gt;src/crypto/base32.ts</title>
<path fill="none" stroke="#528b8b" stroke-width="2" d="M314.23,-42.3C369.46,-42.98 483.64,-45.15 580,-52 588.65,-52.61 597.85,-53.46 606.72,-54.38"/>
<polygon fill="#528b8b" stroke="#528b8b" stroke-width="2" points="606.59,-57.88 616.91,-55.47 607.34,-50.92 606.59,-57.88"/>
</g>
<!-- src/crypto/keypair.ts -->
<g id="node10" class="node">
<title>src/crypto/keypair.ts</title>
<path fill="#79cdcd" stroke="#79cdcd" d="M521,-97C521,-97 471,-97 471,-97 465,-97 459,-91 459,-85 459,-85 459,-73 459,-73 459,-67 465,-61 471,-61 471,-61 521,-61 521,-61 527,-61 533,-67 533,-73 533,-73 533,-85 533,-85 533,-91 527,-97 521,-97"/>
<text text-anchor="middle" x="496" y="-75.3" font-family="Helvetica,sans-Serif" font-size="14.00">keypair.ts</text>
</g>
<!-- src/crypto/crypto.ts&#45;&gt;src/crypto/keypair.ts -->
<g id="edge4" class="edge">
<title>src/crypto/crypto.ts&#45;&gt;src/crypto/keypair.ts</title>
<path fill="none" stroke="#528b8b" stroke-width="2" d="M314.44,-47.78C350.63,-54.04 408.6,-64.06 449.05,-71.06"/>
<polygon fill="#528b8b" stroke="#528b8b" stroke-width="2" points="448.49,-74.51 458.94,-72.77 449.68,-67.61 448.49,-74.51"/>
</g>
<!-- src/crypto/keypair.ts&#45;&gt;src/core&#45;validators/addresses.ts -->
<g id="edge7" class="edge">
<title>src/crypto/keypair.ts&#45;&gt;src/core&#45;validators/addresses.ts</title>
<path fill="none" stroke="#528b8b" stroke-width="2" d="M516.72,-97.19C535.67,-115.75 563.76,-146.25 580,-178 596.49,-210.24 577.97,-228.25 600,-257 601.42,-258.85 602.99,-260.61 604.67,-262.27"/>
<polygon fill="#528b8b" stroke="#528b8b" stroke-width="2" points="602.76,-265.23 612.67,-268.97 607.25,-259.86 602.76,-265.23"/>
</g>
<!-- src/crypto/keypair.ts&#45;&gt;src/crypto/base32.ts -->
<g id="edge6" class="edge">
<title>src/crypto/keypair.ts&#45;&gt;src/crypto/base32.ts</title>
<path fill="none" stroke="#528b8b" stroke-width="2" d="M533.3,-74.59C555.16,-71.94 583.24,-68.53 606.75,-65.68"/>
<polygon fill="#528b8b" stroke="#528b8b" stroke-width="2" points="607.35,-69.13 616.86,-64.45 606.51,-62.18 607.35,-69.13"/>
</g>
<!-- src/format&#45;validators/format&#45;validator&#45;es4.ts&#45;&gt;src/core&#45;validators/addresses.ts -->
<g id="edge17" class="edge">
<title>src/format&#45;validators/format&#45;validator&#45;es4.ts&#45;&gt;src/core&#45;validators/addresses.ts</title>
<path fill="none" stroke="#528b8b" stroke-width="2" d="M572.04,-301.05C580.74,-299.55 589.49,-298.04 597.87,-296.6"/>
<polygon fill="#528b8b" stroke="#528b8b" stroke-width="2" points="598.61,-300.02 607.87,-294.87 597.42,-293.12 598.61,-300.02"/>
</g>
<!-- src/format&#45;validators/format&#45;validator&#45;es4.ts&#45;&gt;src/core&#45;validators/characters.ts -->
<g id="edge15" class="edge">
<title>src/format&#45;validators/format&#45;validator&#45;es4.ts&#45;&gt;src/core&#45;validators/characters.ts</title>
<path fill="none" stroke="#528b8b" stroke-width="2" d="M523.1,-332.24C543.11,-345.06 571.97,-361.1 600,-368 643.59,-378.73 656.68,-375.11 701,-368 709.6,-366.62 718.52,-364.48 727.18,-361.98"/>
<polygon fill="#528b8b" stroke="#528b8b" stroke-width="2" points="728.26,-365.31 736.81,-359.05 726.22,-358.62 728.26,-365.31"/>
</g>
<!-- src/format&#45;validators/format&#45;validator&#45;es4.ts&#45;&gt;src/core&#45;validators/checkers.ts -->
<g id="edge16" class="edge">
<title>src/format&#45;validators/format&#45;validator&#45;es4.ts&#45;&gt;src/core&#45;validators/checkers.ts</title>
<path fill="none" stroke="#528b8b" stroke-width="2" d="M572.04,-326.95C582.07,-328.68 592.16,-330.42 601.66,-332.06"/>
<polygon fill="#528b8b" stroke="#528b8b" stroke-width="2" points="601.27,-335.54 611.72,-333.79 602.46,-328.64 601.27,-335.54"/>
</g>
<!-- src/peer/peer&#45;client.ts -->
<g id="node12" class="node">
<title>src/peer/peer&#45;client.ts</title>
<path fill="#79cdcd" stroke="#79cdcd" d="M315,-425C315,-425 245,-425 245,-425 239,-425 233,-419 233,-413 233,-413 233,-401 233,-401 233,-395 239,-389 245,-389 245,-389 315,-389 315,-389 321,-389 327,-395 327,-401 327,-401 327,-413 327,-413 327,-419 321,-425 315,-425"/>
<text text-anchor="middle" x="280" y="-403.3" font-family="Helvetica,sans-Serif" font-size="14.00">peer&#45;client.ts</text>
</g>
<!-- src/storage/compare.ts -->
<g id="node17" class="node">
<title>src/storage/compare.ts</title>
<path fill="#79cdcd" stroke="#79cdcd" d="M526,-508C526,-508 466,-508 466,-508 460,-508 454,-502 454,-496 454,-496 454,-484 454,-484 454,-478 460,-472 466,-472 466,-472 526,-472 526,-472 532,-472 538,-478 538,-484 538,-484 538,-496 538,-496 538,-502 532,-508 526,-508"/>
<text text-anchor="middle" x="496" y="-486.3" font-family="Helvetica,sans-Serif" font-size="14.00">compare.ts</text>
</g>
<!-- src/peer/peer&#45;client.ts&#45;&gt;src/storage/compare.ts -->
<g id="edge18" class="edge">
<title>src/peer/peer&#45;client.ts&#45;&gt;src/storage/compare.ts</title>
<path fill="none" stroke="#528b8b" stroke-width="2" d="M327.17,-424.91C361.65,-438.28 408.75,-456.55 444.28,-470.33"/>
<polygon fill="#528b8b" stroke="#528b8b" stroke-width="2" points="443.38,-473.73 453.97,-474.09 445.91,-467.21 443.38,-473.73"/>
</g>
<!-- src/peer/peer&#45;server.ts -->
<g id="node13" class="node">
<title>src/peer/peer&#45;server.ts</title>
<path fill="#79cdcd" stroke="#79cdcd" d="M318,-371C318,-371 242,-371 242,-371 236,-371 230,-365 230,-359 230,-359 230,-347 230,-347 230,-341 236,-335 242,-335 242,-335 318,-335 318,-335 324,-335 330,-341 330,-347 330,-347 330,-359 330,-359 330,-365 324,-371 318,-371"/>
<text text-anchor="middle" x="280" y="-349.3" font-family="Helvetica,sans-Serif" font-size="14.00">peer&#45;server.ts</text>
</g>
<!-- src/query/query.ts -->
<g id="node16" class="node">
<title>src/query/query.ts</title>
<path fill="#79cdcd" stroke="#79cdcd" d="M516,-645C516,-645 476,-645 476,-645 470,-645 464,-639 464,-633 464,-633 464,-621 464,-621 464,-615 470,-609 476,-609 476,-609 516,-609 516,-609 522,-609 528,-615 528,-621 528,-621 528,-633 528,-633 528,-639 522,-645 516,-645"/>
<text text-anchor="middle" x="496" y="-623.3" font-family="Helvetica,sans-Serif" font-size="14.00">query.ts</text>
</g>
<!-- src/query&#45;follower/query&#45;follower.ts&#45;&gt;src/query/query.ts -->
<g id="edge19" class="edge">
<title>src/query&#45;follower/query&#45;follower.ts&#45;&gt;src/query/query.ts</title>
<path fill="none" stroke="#528b8b" stroke-width="2" d="M338.07,-627C374.49,-627 420.86,-627 453.73,-627"/>
<polygon fill="#528b8b" stroke="#528b8b" stroke-width="2" points="453.9,-630.5 463.9,-627 453.9,-623.5 453.9,-630.5"/>
</g>
<!-- src/storage/lock.ts -->
<g id="node18" class="node">
<title>src/storage/lock.ts</title>
<path fill="#79cdcd" stroke="#79cdcd" d="M511.5,-562C511.5,-562 480.5,-562 480.5,-562 474.5,-562 468.5,-556 468.5,-550 468.5,-550 468.5,-538 468.5,-538 468.5,-532 474.5,-526 480.5,-526 480.5,-526 511.5,-526 511.5,-526 517.5,-526 523.5,-532 523.5,-538 523.5,-538 523.5,-550 523.5,-550 523.5,-556 517.5,-562 511.5,-562"/>
<text text-anchor="middle" x="496" y="-540.3" font-family="Helvetica,sans-Serif" font-size="14.00">lock.ts</text>
</g>
<!-- src/storage/storage&#45;async.ts&#45;&gt;src/storage/compare.ts -->
<g id="edge20" class="edge">
<title>src/storage/storage&#45;async.ts&#45;&gt;src/storage/compare.ts</title>
<path fill="none" stroke="#528b8b" stroke-width="2" d="M338.07,-490C370.77,-490 411.5,-490 443.27,-490"/>
<polygon fill="#528b8b" stroke="#528b8b" stroke-width="2" points="443.67,-493.5 453.67,-490 443.67,-486.5 443.67,-493.5"/>
</g>
<!-- src/storage/storage&#45;cache.ts -->
<g id="node20" class="node">
<title>src/storage/storage&#45;cache.ts</title>
<path fill="#79cdcd" stroke="#79cdcd" d="M128,-562C128,-562 36,-562 36,-562 30,-562 24,-556 24,-550 24,-550 24,-538 24,-538 24,-532 30,-526 36,-526 36,-526 128,-526 128,-526 134,-526 140,-532 140,-538 140,-538 140,-550 140,-550 140,-556 134,-562 128,-562"/>
<text text-anchor="middle" x="82" y="-540.3" font-family="Helvetica,sans-Serif" font-size="14.00">storage&#45;cache.ts</text>
</g>
<!-- src/storage/storage&#45;cache.ts&#45;&gt;src/query&#45;follower/query&#45;follower.ts -->
<g id="edge22" class="edge">
<title>src/storage/storage&#45;cache.ts&#45;&gt;src/query&#45;follower/query&#45;follower.ts</title>
<path fill="none" stroke="#528b8b" stroke-width="2" d="M110.61,-562.02C128.66,-573.22 153.07,-587.29 176,-597 187.43,-601.84 199.9,-606.2 212.08,-609.99"/>
<polygon fill="#528b8b" stroke="#528b8b" stroke-width="2" points="211.18,-613.38 221.77,-612.91 213.2,-606.68 211.18,-613.38"/>
</g>
<!-- src/storage/storage&#45;cache.ts&#45;&gt;src/query/query.ts -->
<g id="edge21" class="edge">
<title>src/storage/storage&#45;cache.ts&#45;&gt;src/query/query.ts</title>
<path fill="none" stroke="#528b8b" stroke-width="2" d="M89.13,-562.38C100.58,-593.32 128.44,-654.91 176,-680 257.76,-723.14 293.84,-700.42 384,-680 409.76,-674.17 436.54,-661.6 457.34,-650.16"/>
<polygon fill="#528b8b" stroke="#528b8b" stroke-width="2" points="459.17,-653.15 466.16,-645.18 455.73,-647.05 459.17,-653.15"/>
</g>
<!-- src/storage/storage&#45;cache.ts&#45;&gt;src/storage/storage&#45;async.ts -->
<g id="edge23" class="edge">
<title>src/storage/storage&#45;cache.ts&#45;&gt;src/storage/storage&#45;async.ts</title>
<path fill="none" stroke="#528b8b" stroke-width="2" d="M140.48,-527.06C152.22,-523.67 164.49,-520.18 176,-517 187.62,-513.79 200.01,-510.46 212.02,-507.29"/>
<polygon fill="#528b8b" stroke="#528b8b" stroke-width="2" points="213.21,-510.59 221.99,-504.66 211.43,-503.82 213.21,-510.59"/>
</g>
<!-- src/storage/storage&#45;driver&#45;async&#45;memory.ts&#45;&gt;src/query/query.ts -->
<g id="edge25" class="edge">
<title>src/storage/storage&#45;driver&#45;async&#45;memory.ts&#45;&gt;src/query/query.ts</title>
<path fill="none" stroke="#528b8b" stroke-width="2" d="M324.5,-562.08C349.92,-572.52 382.67,-585.77 412,-597 425.7,-602.25 440.77,-607.76 454.26,-612.62"/>
<polygon fill="#528b8b" stroke="#528b8b" stroke-width="2" points="453.17,-615.95 463.76,-616.02 455.53,-609.36 453.17,-615.95"/>
</g>
<!-- src/storage/storage&#45;driver&#45;async&#45;memory.ts&#45;&gt;src/storage/compare.ts -->
<g id="edge24" class="edge">
<title>src/storage/storage&#45;driver&#45;async&#45;memory.ts&#45;&gt;src/storage/compare.ts</title>
<path fill="none" stroke="#528b8b" stroke-width="2" d="M352.56,-525.94C382.53,-518.38 416.69,-509.76 444.04,-502.86"/>
<polygon fill="#528b8b" stroke="#528b8b" stroke-width="2" points="444.95,-506.24 453.79,-500.4 443.24,-499.45 444.95,-506.24"/>
</g>
<!-- src/storage/storage&#45;driver&#45;async&#45;memory.ts&#45;&gt;src/storage/lock.ts -->
<g id="edge26" class="edge">
<title>src/storage/storage&#45;driver&#45;async&#45;memory.ts&#45;&gt;src/storage/lock.ts</title>
<path fill="none" stroke="#528b8b" stroke-width="2" d="M384.24,-544C410.63,-544 437.33,-544 457.91,-544"/>
<polygon fill="#528b8b" stroke="#528b8b" stroke-width="2" points="458.07,-547.5 468.07,-544 458.07,-540.5 458.07,-547.5"/>
</g>
</g>
</svg>
