<?xml version="1.0" encoding="UTF-8" standalone="no"?>
<!DOCTYPE svg PUBLIC "-//W3C//DTD SVG 1.1//EN"
 "http://www.w3.org/Graphics/SVG/1.1/DTD/svg11.dtd">
<!-- Generated by graphviz version 2.44.1 (20200629.0846)
 -->
<!-- Title: G Pages: 1 -->
<svg width="475pt" height="265pt"
 viewBox="0.00 0.00 475.49 265.00" xmlns="http://www.w3.org/2000/svg" xmlns:xlink="http://www.w3.org/1999/xlink">
<g id="graph0" class="graph" transform="scale(1 1) rotate(0) translate(4 261)">
<title>G</title>
<polygon fill="white" stroke="transparent" points="-4,4 -4,-261 471.49,-261 471.49,4 -4,4"/>
<g id="clust1" class="cluster">
<title>cluster7390895838</title>
<path fill="none" stroke="#8b7d6b" stroke-width="2" d="M20,-46C20,-46 446.24,-46 446.24,-46 452.24,-46 458.24,-52 458.24,-58 458.24,-58 458.24,-237 458.24,-237 458.24,-243 452.24,-249 446.24,-249 446.24,-249 20,-249 20,-249 14,-249 8,-243 8,-237 8,-237 8,-58 8,-58 8,-52 14,-46 20,-46"/>
<text text-anchor="start" x="215.12" y="-234.8" font-family="Helvetica,sans-Serif" font-weight="bold" font-size="14.00">types</text>
</g>
<!-- src/types/cryptoTypes.ts -->
<g id="node1" class="node">
<title>src/types/cryptoTypes.ts</title>
<path fill="#79cdcd" stroke="#79cdcd" d="M276.5,-218C276.5,-218 196.5,-218 196.5,-218 190.5,-218 184.5,-212 184.5,-206 184.5,-206 184.5,-194 184.5,-194 184.5,-188 190.5,-182 196.5,-182 196.5,-182 276.5,-182 276.5,-182 282.5,-182 288.5,-188 288.5,-194 288.5,-194 288.5,-206 288.5,-206 288.5,-212 282.5,-218 276.5,-218"/>
<text text-anchor="middle" x="236.5" y="-196.3" font-family="Helvetica,sans-Serif" font-size="14.00">cryptoTypes.ts</text>
</g>
<!-- src/types/docTypes.ts -->
<g id="node2" class="node">
<title>src/types/docTypes.ts</title>
<path fill="#79cdcd" stroke="#79cdcd" d="M438.24,-145C438.24,-145 373.24,-145 373.24,-145 367.24,-145 361.24,-139 361.24,-133 361.24,-133 361.24,-121 361.24,-121 361.24,-115 367.24,-109 373.24,-109 373.24,-109 438.24,-109 438.24,-109 444.24,-109 450.24,-115 450.24,-121 450.24,-121 450.24,-133 450.24,-133 450.24,-139 444.24,-145 438.24,-145"/>
<text text-anchor="middle" x="405.74" y="-123.3" font-family="Helvetica,sans-Serif" font-size="14.00">docTypes.ts</text>
</g>
<!-- src/types/cryptoTypes.ts&#45;&gt;src/types/docTypes.ts -->
<g id="edge1" class="edge">
<title>src/types/cryptoTypes.ts&#45;&gt;src/types/docTypes.ts</title>
<path fill="none" stroke="#528b8b" stroke-width="2" d="M286.24,-181.9C293.57,-179.02 301.01,-175.99 308,-173 324.86,-165.78 343.09,-157.29 359.14,-149.59"/>
<polygon fill="#528b8b" stroke="#528b8b" stroke-width="2" points="360.82,-152.66 368.3,-145.16 357.77,-146.36 360.82,-152.66"/>
</g>
<!-- src/types/docValidatorTypes.ts -->
<g id="node3" class="node">
<title>src/types/docValidatorTypes.ts</title>
<path fill="#79cdcd" stroke="#79cdcd" d="M296,-90C296,-90 177,-90 177,-90 171,-90 165,-84 165,-78 165,-78 165,-66 165,-66 165,-60 171,-54 177,-54 177,-54 296,-54 296,-54 302,-54 308,-60 308,-66 308,-66 308,-78 308,-78 308,-84 302,-90 296,-90"/>
<text text-anchor="middle" x="236.5" y="-68.3" font-family="Helvetica,sans-Serif" font-size="14.00">docValidatorTypes.ts</text>
</g>
<!-- src/types/docValidatorTypes.ts&#45;&gt;src/types/docTypes.ts -->
<g id="edge2" class="edge">
<title>src/types/docValidatorTypes.ts&#45;&gt;src/types/docTypes.ts</title>
<path fill="none" stroke="#528b8b" stroke-width="2" d="M292.26,-90.01C311.25,-96.25 332.49,-103.24 351.36,-109.44"/>
<polygon fill="#528b8b" stroke="#528b8b" stroke-width="2" points="350.39,-112.81 360.99,-112.61 352.58,-106.16 350.39,-112.81"/>
</g>
<!-- src/util/errors -->
<g id="node7" class="node">
<title>src/util/errors</title>
<ellipse fill="none" stroke="black" cx="405.74" cy="-20" rx="61.99" ry="18"/>
<text text-anchor="middle" x="405.74" y="-16.3" font-family="Helvetica,sans-Serif" font-size="14.00">src/util/errors</text>
</g>
<!-- src/types/docValidatorTypes.ts&#45;&gt;src/util/errors -->
<g id="edge3" class="edge">
<title>src/types/docValidatorTypes.ts&#45;&gt;src/util/errors</title>
<path fill="none" stroke="#528b8b" stroke-width="2" d="M295.52,-53.96C314.32,-48.12 335.02,-41.68 353.3,-35.99"/>
<polygon fill="#528b8b" stroke="#528b8b" stroke-width="2" points="354.39,-39.32 362.9,-33.01 352.31,-32.64 354.39,-39.32"/>
</g>
<!-- src/types/queryTypes.ts -->
<g id="node4" class="node">
<title>src/types/queryTypes.ts</title>
<path fill="#79cdcd" stroke="#79cdcd" d="M275,-164C275,-164 198,-164 198,-164 192,-164 186,-158 186,-152 186,-152 186,-140 186,-140 186,-134 192,-128 198,-128 198,-128 275,-128 275,-128 281,-128 287,-134 287,-140 287,-140 287,-152 287,-152 287,-158 281,-164 275,-164"/>
<text text-anchor="middle" x="236.5" y="-142.3" font-family="Helvetica,sans-Serif" font-size="14.00">queryTypes.ts</text>
</g>
<!-- src/types/queryTypes.ts&#45;&gt;src/types/docTypes.ts -->
<g id="edge4" class="edge">
<title>src/types/queryTypes.ts&#45;&gt;src/types/docTypes.ts</title>
<path fill="none" stroke="#528b8b" stroke-width="2" d="M287.23,-140.35C307.32,-138.07 330.57,-135.43 351.05,-133.1"/>
<polygon fill="#528b8b" stroke="#528b8b" stroke-width="2" points="351.63,-136.56 361.17,-131.95 350.84,-129.6 351.63,-136.56"/>
</g>
<!-- src/types/storageTypes.ts -->
<g id="node5" class="node">
<title>src/types/storageTypes.ts</title>
<path fill="#79cdcd" stroke="#79cdcd" d="M117,-144C117,-144 28,-144 28,-144 22,-144 16,-138 16,-132 16,-132 16,-120 16,-120 16,-114 22,-108 28,-108 28,-108 117,-108 117,-108 123,-108 129,-114 129,-120 129,-120 129,-132 129,-132 129,-138 123,-144 117,-144"/>
<text text-anchor="middle" x="72.5" y="-122.3" font-family="Helvetica,sans-Serif" font-size="14.00">storageTypes.ts</text>
</g>
<!-- src/types/storageTypes.ts&#45;&gt;src/types/docTypes.ts -->
<g id="edge5" class="edge">
<title>src/types/storageTypes.ts&#45;&gt;src/types/docTypes.ts</title>
<path fill="none" stroke="#528b8b" stroke-width="2" d="M129.11,-121.06C140.94,-120.2 153.38,-119.44 165,-119 228.51,-116.57 244.5,-116.38 308,-119 321.82,-119.57 336.72,-120.6 350.6,-121.73"/>
<polygon fill="#528b8b" stroke="#528b8b" stroke-width="2" points="350.71,-125.25 360.97,-122.61 351.3,-118.28 350.71,-125.25"/>
</g>
<!-- src/types/storageTypes.ts&#45;&gt;src/types/queryTypes.ts -->
<g id="edge6" class="edge">
<title>src/types/storageTypes.ts&#45;&gt;src/types/queryTypes.ts</title>
<path fill="none" stroke="#528b8b" stroke-width="2" d="M129.25,-132.88C144.2,-134.73 160.42,-136.73 175.58,-138.6"/>
<polygon fill="#528b8b" stroke="#528b8b" stroke-width="2" points="175.53,-142.12 185.88,-139.87 176.39,-135.18 175.53,-142.12"/>
</g>
<!-- src/lock -->
<g id="node8" class="node">
<title>src/lock</title>
<ellipse fill="none" stroke="black" cx="236.5" cy="-18" rx="40.09" ry="18"/>
<text text-anchor="middle" x="236.5" y="-14.3" font-family="Helvetica,sans-Serif" font-size="14.00">src/lock</text>
</g>
<!-- src/types/storageTypes.ts&#45;&gt;src/lock -->
<g id="edge7" class="edge">
<title>src/types/storageTypes.ts&#45;&gt;src/lock</title>
<path fill="none" stroke="#528b8b" stroke-width="2" d="M116.85,-107.94C121.18,-105.27 125.33,-102.29 129,-99 151.33,-79.02 141.47,-60.55 165,-42 172.31,-36.24 181.08,-31.82 189.91,-28.44"/>
<polygon fill="#528b8b" stroke="#528b8b" stroke-width="2" points="191.13,-31.73 199.45,-25.17 188.86,-25.1 191.13,-31.73"/>
</g>
<!-- src/types/utilTypes.ts -->
<g id="node6" class="node">
<title>src/types/utilTypes.ts</title>
<path fill="#79cdcd" stroke="#79cdcd" d="M103,-90C103,-90 42,-90 42,-90 36,-90 30,-84 30,-78 30,-78 30,-66 30,-66 30,-60 36,-54 42,-54 42,-54 103,-54 103,-54 109,-54 115,-60 115,-66 115,-66 115,-78 115,-78 115,-84 109,-90 103,-90"/>
<text text-anchor="middle" x="72.5" y="-68.3" font-family="Helvetica,sans-Serif" font-size="14.00">utilTypes.ts</text>
</g>
</g>
</svg>
