<?xml version="1.0" encoding="UTF-8" standalone="no"?>
<!DOCTYPE svg PUBLIC "-//W3C//DTD SVG 1.1//EN"
 "http://www.w3.org/Graphics/SVG/1.1/DTD/svg11.dtd">
<!-- Generated by graphviz version 2.44.1 (20200629.0846)
 -->
<!-- Title: G Pages: 1 -->
<svg width="1658pt" height="884pt"
 viewBox="0.00 0.00 1658.00 883.56" xmlns="http://www.w3.org/2000/svg" xmlns:xlink="http://www.w3.org/1999/xlink">
<g id="graph0" class="graph" transform="scale(1 1) rotate(0) translate(4 879.56)">
<title>G</title>
<polygon fill="white" stroke="transparent" points="-4,4 -4,-879.56 1654,-879.56 1654,4 -4,4"/>
<!-- src/example&#45;app.ts -->
<g id="node1" class="node">
<title>src/example&#45;app.ts</title>
<path fill="#79cdcd" stroke="#79cdcd" d="M147,-474.56C147,-474.56 40,-474.56 40,-474.56 34,-474.56 28,-468.56 28,-462.56 28,-462.56 28,-450.56 28,-450.56 28,-444.56 34,-438.56 40,-438.56 40,-438.56 147,-438.56 147,-438.56 153,-438.56 159,-444.56 159,-450.56 159,-450.56 159,-462.56 159,-462.56 159,-468.56 153,-474.56 147,-474.56"/>
<text text-anchor="middle" x="93.5" y="-452.86" font-family="Helvetica,sans-Serif" font-size="14.00">src/example&#45;app.ts</text>
</g>
<!-- src/crypto/crypto&#45;driver&#45;tweetnacl.ts -->
<g id="node8" class="node">
<title>src/crypto/crypto&#45;driver&#45;tweetnacl.ts</title>
<path fill="#79cdcd" stroke="#79cdcd" d="M441,-716.56C441,-716.56 235,-716.56 235,-716.56 229,-716.56 223,-710.56 223,-704.56 223,-704.56 223,-692.56 223,-692.56 223,-686.56 229,-680.56 235,-680.56 235,-680.56 441,-680.56 441,-680.56 447,-680.56 453,-686.56 453,-692.56 453,-692.56 453,-704.56 453,-704.56 453,-710.56 447,-716.56 441,-716.56"/>
<text text-anchor="middle" x="338" y="-694.86" font-family="Helvetica,sans-Serif" font-size="14.00">src/crypto/crypto&#45;driver&#45;tweetnacl.ts</text>
</g>
<!-- src/example&#45;app.ts&#45;&gt;src/crypto/crypto&#45;driver&#45;tweetnacl.ts -->
<g id="edge17" class="edge">
<title>src/example&#45;app.ts&#45;&gt;src/crypto/crypto&#45;driver&#45;tweetnacl.ts</title>
<path fill="none" stroke="#528b8b" stroke-width="2" d="M159.32,-466.36C169.58,-470.33 179.32,-475.86 187,-483.56 227.81,-524.51 190.76,-560.57 223,-608.56 241.47,-636.06 271,-659.03 295.38,-674.89"/>
<polygon fill="#528b8b" stroke="#528b8b" stroke-width="2" points="293.78,-678.02 304.1,-680.4 297.52,-672.1 293.78,-678.02"/>
</g>
<!-- src/crypto/crypto.ts -->
<g id="node10" class="node">
<title>src/crypto/crypto.ts</title>
<path fill="#79cdcd" stroke="#79cdcd" d="M681,-645.56C681,-645.56 575,-645.56 575,-645.56 569,-645.56 563,-639.56 563,-633.56 563,-633.56 563,-621.56 563,-621.56 563,-615.56 569,-609.56 575,-609.56 575,-609.56 681,-609.56 681,-609.56 687,-609.56 693,-615.56 693,-621.56 693,-621.56 693,-633.56 693,-633.56 693,-639.56 687,-645.56 681,-645.56"/>
<text text-anchor="middle" x="628" y="-623.86" font-family="Helvetica,sans-Serif" font-size="14.00">src/crypto/crypto.ts</text>
</g>
<!-- src/example&#45;app.ts&#45;&gt;src/crypto/crypto.ts -->
<g id="edge16" class="edge">
<title>src/example&#45;app.ts&#45;&gt;src/crypto/crypto.ts</title>
<path fill="none" stroke="#528b8b" stroke-width="2" d="M159.47,-473.15C168.86,-476.23 178.28,-479.7 187,-483.56 204.15,-491.14 205.89,-497.9 223,-505.56 333.85,-555.18 470.53,-591.69 553.12,-611.27"/>
<polygon fill="#528b8b" stroke="#528b8b" stroke-width="2" points="552.38,-614.69 562.91,-613.57 553.98,-607.88 552.38,-614.69"/>
</g>
<!-- src/format&#45;validators/format&#45;validator&#45;es4.ts -->
<g id="node16" class="node">
<title>src/format&#45;validators/format&#45;validator&#45;es4.ts</title>
<path fill="#79cdcd" stroke="#79cdcd" d="M1069,-553.56C1069,-553.56 815,-553.56 815,-553.56 809,-553.56 803,-547.56 803,-541.56 803,-541.56 803,-529.56 803,-529.56 803,-523.56 809,-517.56 815,-517.56 815,-517.56 1069,-517.56 1069,-517.56 1075,-517.56 1081,-523.56 1081,-529.56 1081,-529.56 1081,-541.56 1081,-541.56 1081,-547.56 1075,-553.56 1069,-553.56"/>
<text text-anchor="middle" x="942" y="-531.86" font-family="Helvetica,sans-Serif" font-size="14.00">src/format&#45;validators/format&#45;validator&#45;es4.ts</text>
</g>
<!-- src/example&#45;app.ts&#45;&gt;src/format&#45;validators/format&#45;validator&#45;es4.ts -->
<g id="edge13" class="edge">
<title>src/example&#45;app.ts&#45;&gt;src/format&#45;validators/format&#45;validator&#45;es4.ts</title>
<path fill="none" stroke="#528b8b" stroke-width="2" d="M159.17,-462.6C293.51,-475.13 605.81,-504.28 792.5,-521.7"/>
<polygon fill="#528b8b" stroke="#528b8b" stroke-width="2" points="792.4,-525.21 802.68,-522.65 793.05,-518.24 792.4,-525.21"/>
</g>
<!-- src/storage/query&#45;follower.ts -->
<g id="node21" class="node">
<title>src/storage/query&#45;follower.ts</title>
<path fill="#79cdcd" stroke="#79cdcd" d="M419,-186.56C419,-186.56 257,-186.56 257,-186.56 251,-186.56 245,-180.56 245,-174.56 245,-174.56 245,-162.56 245,-162.56 245,-156.56 251,-150.56 257,-150.56 257,-150.56 419,-150.56 419,-150.56 425,-150.56 431,-156.56 431,-162.56 431,-162.56 431,-174.56 431,-174.56 431,-180.56 425,-186.56 419,-186.56"/>
<text text-anchor="middle" x="338" y="-164.86" font-family="Helvetica,sans-Serif" font-size="14.00">src/storage/query&#45;follower.ts</text>
</g>
<!-- src/example&#45;app.ts&#45;&gt;src/storage/query&#45;follower.ts -->
<g id="edge18" class="edge">
<title>src/example&#45;app.ts&#45;&gt;src/storage/query&#45;follower.ts</title>
<path fill="none" stroke="#528b8b" stroke-width="2" d="M108.89,-438.23C132.38,-408.41 180.61,-347.71 223,-297.56 253.77,-261.15 290.45,-220.04 313.73,-194.21"/>
<polygon fill="#528b8b" stroke="#528b8b" stroke-width="2" points="316.4,-196.48 320.51,-186.71 311.21,-191.79 316.4,-196.48"/>
</g>
<!-- src/storage/storage&#45;async.ts -->
<g id="node24" class="node">
<title>src/storage/storage&#45;async.ts</title>
<path fill="#79cdcd" stroke="#79cdcd" d="M709,-431.56C709,-431.56 547,-431.56 547,-431.56 541,-431.56 535,-425.56 535,-419.56 535,-419.56 535,-407.56 535,-407.56 535,-401.56 541,-395.56 547,-395.56 547,-395.56 709,-395.56 709,-395.56 715,-395.56 721,-401.56 721,-407.56 721,-407.56 721,-419.56 721,-419.56 721,-425.56 715,-431.56 709,-431.56"/>
<text text-anchor="middle" x="628" y="-409.86" font-family="Helvetica,sans-Serif" font-size="14.00">src/storage/storage&#45;async.ts</text>
</g>
<!-- src/example&#45;app.ts&#45;&gt;src/storage/storage&#45;async.ts -->
<g id="edge15" class="edge">
<title>src/example&#45;app.ts&#45;&gt;src/storage/storage&#45;async.ts</title>
<path fill="none" stroke="#528b8b" stroke-width="2" d="M159.26,-451.33C250.15,-443.99 416.49,-430.56 524.34,-421.85"/>
<polygon fill="#528b8b" stroke="#528b8b" stroke-width="2" points="524.9,-425.32 534.59,-421.02 524.34,-418.34 524.9,-425.32"/>
</g>
<!-- src/storage/storage&#45;driver&#45;async&#45;memory.ts -->
<g id="node26" class="node">
<title>src/storage/storage&#45;driver&#45;async&#45;memory.ts</title>
<path fill="#79cdcd" stroke="#79cdcd" d="M755,-286.56C755,-286.56 501,-286.56 501,-286.56 495,-286.56 489,-280.56 489,-274.56 489,-274.56 489,-262.56 489,-262.56 489,-256.56 495,-250.56 501,-250.56 501,-250.56 755,-250.56 755,-250.56 761,-250.56 767,-256.56 767,-262.56 767,-262.56 767,-274.56 767,-274.56 767,-280.56 761,-286.56 755,-286.56"/>
<text text-anchor="middle" x="628" y="-264.86" font-family="Helvetica,sans-Serif" font-size="14.00">src/storage/storage&#45;driver&#45;async&#45;memory.ts</text>
</g>
<!-- src/example&#45;app.ts&#45;&gt;src/storage/storage&#45;driver&#45;async&#45;memory.ts -->
<g id="edge14" class="edge">
<title>src/example&#45;app.ts&#45;&gt;src/storage/storage&#45;driver&#45;async&#45;memory.ts</title>
<path fill="none" stroke="#528b8b" stroke-width="2" d="M145.56,-438.53C244.13,-403.73 460.25,-327.43 566.12,-290.05"/>
<polygon fill="#528b8b" stroke="#528b8b" stroke-width="2" points="567.44,-293.3 575.71,-286.67 565.11,-286.7 567.44,-293.3"/>
</g>
<!-- src/core&#45;validators/addresses.ts -->
<g id="node2" class="node">
<title>src/core&#45;validators/addresses.ts</title>
<path fill="#79cdcd" stroke="#79cdcd" d="M1353,-599.56C1353,-599.56 1170,-599.56 1170,-599.56 1164,-599.56 1158,-593.56 1158,-587.56 1158,-587.56 1158,-575.56 1158,-575.56 1158,-569.56 1164,-563.56 1170,-563.56 1170,-563.56 1353,-563.56 1353,-563.56 1359,-563.56 1365,-569.56 1365,-575.56 1365,-575.56 1365,-587.56 1365,-587.56 1365,-593.56 1359,-599.56 1353,-599.56"/>
<text text-anchor="middle" x="1261.5" y="-577.86" font-family="Helvetica,sans-Serif" font-size="14.00">src/core&#45;validators/addresses.ts</text>
</g>
<!-- src/core&#45;validators/characters.ts -->
<g id="node3" class="node">
<title>src/core&#45;validators/characters.ts</title>
<path fill="#79cdcd" stroke="#79cdcd" d="M1638,-515.56C1638,-515.56 1454,-515.56 1454,-515.56 1448,-515.56 1442,-509.56 1442,-503.56 1442,-503.56 1442,-491.56 1442,-491.56 1442,-485.56 1448,-479.56 1454,-479.56 1454,-479.56 1638,-479.56 1638,-479.56 1644,-479.56 1650,-485.56 1650,-491.56 1650,-491.56 1650,-503.56 1650,-503.56 1650,-509.56 1644,-515.56 1638,-515.56"/>
<text text-anchor="middle" x="1546" y="-493.86" font-family="Helvetica,sans-Serif" font-size="14.00">src/core&#45;validators/characters.ts</text>
</g>
<!-- src/core&#45;validators/addresses.ts&#45;&gt;src/core&#45;validators/characters.ts -->
<g id="edge1" class="edge">
<title>src/core&#45;validators/addresses.ts&#45;&gt;src/core&#45;validators/characters.ts</title>
<path fill="none" stroke="#528b8b" stroke-width="2" d="M1323.1,-563.54C1367.45,-550.35 1427.75,-532.42 1474.3,-518.58"/>
<polygon fill="#528b8b" stroke="#528b8b" stroke-width="2" points="1475.42,-521.9 1484.01,-515.69 1473.43,-515.19 1475.42,-521.9"/>
</g>
<!-- src/core&#45;validators/checkers.ts -->
<g id="node4" class="node">
<title>src/core&#45;validators/checkers.ts</title>
<path fill="#79cdcd" stroke="#79cdcd" d="M1349,-469.56C1349,-469.56 1174,-469.56 1174,-469.56 1168,-469.56 1162,-463.56 1162,-457.56 1162,-457.56 1162,-445.56 1162,-445.56 1162,-439.56 1168,-433.56 1174,-433.56 1174,-433.56 1349,-433.56 1349,-433.56 1355,-433.56 1361,-439.56 1361,-445.56 1361,-445.56 1361,-457.56 1361,-457.56 1361,-463.56 1355,-469.56 1349,-469.56"/>
<text text-anchor="middle" x="1261.5" y="-447.86" font-family="Helvetica,sans-Serif" font-size="14.00">src/core&#45;validators/checkers.ts</text>
</g>
<!-- src/core&#45;validators/checkers.ts&#45;&gt;src/core&#45;validators/characters.ts -->
<g id="edge2" class="edge">
<title>src/core&#45;validators/checkers.ts&#45;&gt;src/core&#45;validators/characters.ts</title>
<path fill="none" stroke="#528b8b" stroke-width="2" d="M1361.3,-467.65C1384.14,-471.37 1408.6,-475.35 1431.99,-479.16"/>
<polygon fill="#528b8b" stroke="#528b8b" stroke-width="2" points="1431.5,-482.63 1441.94,-480.78 1432.63,-475.72 1431.5,-482.63"/>
</g>
<!-- src/crypto/base32.ts -->
<g id="node5" class="node">
<title>src/crypto/base32.ts</title>
<path fill="#79cdcd" stroke="#79cdcd" d="M1318,-691.56C1318,-691.56 1205,-691.56 1205,-691.56 1199,-691.56 1193,-685.56 1193,-679.56 1193,-679.56 1193,-667.56 1193,-667.56 1193,-661.56 1199,-655.56 1205,-655.56 1205,-655.56 1318,-655.56 1318,-655.56 1324,-655.56 1330,-661.56 1330,-667.56 1330,-667.56 1330,-679.56 1330,-679.56 1330,-685.56 1324,-691.56 1318,-691.56"/>
<text text-anchor="middle" x="1261.5" y="-669.86" font-family="Helvetica,sans-Serif" font-size="14.00">src/crypto/base32.ts</text>
</g>
<!-- src/crypto/crypto&#45;driver&#45;chloride.ts -->
<g id="node6" class="node">
<title>src/crypto/crypto&#45;driver&#45;chloride.ts</title>
<path fill="#79cdcd" stroke="#79cdcd" d="M1359.5,-875.56C1359.5,-875.56 1163.5,-875.56 1163.5,-875.56 1157.5,-875.56 1151.5,-869.56 1151.5,-863.56 1151.5,-863.56 1151.5,-851.56 1151.5,-851.56 1151.5,-845.56 1157.5,-839.56 1163.5,-839.56 1163.5,-839.56 1359.5,-839.56 1359.5,-839.56 1365.5,-839.56 1371.5,-845.56 1371.5,-851.56 1371.5,-851.56 1371.5,-863.56 1371.5,-863.56 1371.5,-869.56 1365.5,-875.56 1359.5,-875.56"/>
<text text-anchor="middle" x="1261.5" y="-853.86" font-family="Helvetica,sans-Serif" font-size="14.00">src/crypto/crypto&#45;driver&#45;chloride.ts</text>
</g>
<!-- src/crypto/crypto&#45;types.ts -->
<g id="node9" class="node">
<title>src/crypto/crypto&#45;types.ts</title>
<path fill="#79cdcd" stroke="#79cdcd" d="M1617.5,-737.56C1617.5,-737.56 1474.5,-737.56 1474.5,-737.56 1468.5,-737.56 1462.5,-731.56 1462.5,-725.56 1462.5,-725.56 1462.5,-713.56 1462.5,-713.56 1462.5,-707.56 1468.5,-701.56 1474.5,-701.56 1474.5,-701.56 1617.5,-701.56 1617.5,-701.56 1623.5,-701.56 1629.5,-707.56 1629.5,-713.56 1629.5,-713.56 1629.5,-725.56 1629.5,-725.56 1629.5,-731.56 1623.5,-737.56 1617.5,-737.56"/>
<text text-anchor="middle" x="1546" y="-715.86" font-family="Helvetica,sans-Serif" font-size="14.00">src/crypto/crypto&#45;types.ts</text>
</g>
<!-- src/crypto/crypto&#45;driver&#45;chloride.ts&#45;&gt;src/crypto/crypto&#45;types.ts -->
<g id="edge3" class="edge">
<title>src/crypto/crypto&#45;driver&#45;chloride.ts&#45;&gt;src/crypto/crypto&#45;types.ts</title>
<path fill="none" stroke="#528b8b" stroke-width="2" d="M1371.61,-842.89C1383.48,-839.58 1395.17,-835.53 1406,-830.56 1451.48,-809.71 1495.06,-770.79 1520.94,-745.03"/>
<polygon fill="#528b8b" stroke="#528b8b" stroke-width="2" points="1523.53,-747.39 1528.07,-737.81 1518.55,-742.47 1523.53,-747.39"/>
</g>
<!-- src/crypto/crypto&#45;driver&#45;node.ts -->
<g id="node7" class="node">
<title>src/crypto/crypto&#45;driver&#45;node.ts</title>
<path fill="#79cdcd" stroke="#79cdcd" d="M1351,-821.56C1351,-821.56 1172,-821.56 1172,-821.56 1166,-821.56 1160,-815.56 1160,-809.56 1160,-809.56 1160,-797.56 1160,-797.56 1160,-791.56 1166,-785.56 1172,-785.56 1172,-785.56 1351,-785.56 1351,-785.56 1357,-785.56 1363,-791.56 1363,-797.56 1363,-797.56 1363,-809.56 1363,-809.56 1363,-815.56 1357,-821.56 1351,-821.56"/>
<text text-anchor="middle" x="1261.5" y="-799.86" font-family="Helvetica,sans-Serif" font-size="14.00">src/crypto/crypto&#45;driver&#45;node.ts</text>
</g>
<!-- src/crypto/crypto&#45;driver&#45;node.ts&#45;&gt;src/crypto/crypto&#45;types.ts -->
<g id="edge4" class="edge">
<title>src/crypto/crypto&#45;driver&#45;node.ts&#45;&gt;src/crypto/crypto&#45;types.ts</title>
<path fill="none" stroke="#528b8b" stroke-width="2" d="M1352.55,-785.49C1370.38,-781.34 1388.87,-776.65 1406,-771.56 1434.8,-763.01 1466.2,-751.46 1491.86,-741.41"/>
<polygon fill="#528b8b" stroke="#528b8b" stroke-width="2" points="1493.38,-744.58 1501.4,-737.65 1490.81,-738.07 1493.38,-744.58"/>
</g>
<!-- src/crypto/crypto&#45;driver&#45;tweetnacl.ts&#45;&gt;src/crypto/crypto&#45;types.ts -->
<g id="edge5" class="edge">
<title>src/crypto/crypto&#45;driver&#45;tweetnacl.ts&#45;&gt;src/crypto/crypto&#45;types.ts</title>
<path fill="none" stroke="#528b8b" stroke-width="2" d="M453.11,-707.18C648.35,-720.77 1059.02,-744.27 1406,-730.56 1420.98,-729.97 1436.85,-729.02 1452.3,-727.92"/>
<polygon fill="#528b8b" stroke="#528b8b" stroke-width="2" points="1452.66,-731.4 1462.38,-727.18 1452.15,-724.42 1452.66,-731.4"/>
</g>
<!-- src/crypto/crypto.ts&#45;&gt;src/core&#45;validators/addresses.ts -->
<g id="edge9" class="edge">
<title>src/crypto/crypto.ts&#45;&gt;src/core&#45;validators/addresses.ts</title>
<path fill="none" stroke="#528b8b" stroke-width="2" d="M693.23,-615.83C725.98,-610.3 766.49,-604.14 803,-600.56 920.06,-589.08 1054.62,-584.53 1147.36,-582.72"/>
<polygon fill="#528b8b" stroke="#528b8b" stroke-width="2" points="1147.68,-586.22 1157.61,-582.53 1147.55,-579.22 1147.68,-586.22"/>
</g>
<!-- src/crypto/crypto.ts&#45;&gt;src/crypto/base32.ts -->
<g id="edge7" class="edge">
<title>src/crypto/crypto.ts&#45;&gt;src/crypto/base32.ts</title>
<path fill="none" stroke="#528b8b" stroke-width="2" d="M693.23,-639.29C725.98,-644.82 766.49,-650.98 803,-654.56 935.93,-667.59 1091.45,-671.7 1182.64,-672.99"/>
<polygon fill="#528b8b" stroke="#528b8b" stroke-width="2" points="1182.85,-676.49 1192.89,-673.12 1182.94,-669.49 1182.85,-676.49"/>
</g>
<!-- src/crypto/crypto.ts&#45;&gt;src/crypto/crypto&#45;types.ts -->
<g id="edge6" class="edge">
<title>src/crypto/crypto.ts&#45;&gt;src/crypto/crypto&#45;types.ts</title>
<path fill="none" stroke="#528b8b" stroke-width="2" d="M682.44,-645.58C716.54,-656.34 761.9,-669.28 803,-676.56 1033.86,-717.47 1310.81,-721.97 1452.12,-721.13"/>
<polygon fill="#528b8b" stroke="#528b8b" stroke-width="2" points="1452.49,-724.63 1462.47,-721.06 1452.45,-717.63 1452.49,-724.63"/>
</g>
<!-- src/crypto/keypair.ts -->
<g id="node11" class="node">
<title>src/crypto/keypair.ts</title>
<path fill="#79cdcd" stroke="#79cdcd" d="M998.5,-645.56C998.5,-645.56 885.5,-645.56 885.5,-645.56 879.5,-645.56 873.5,-639.56 873.5,-633.56 873.5,-633.56 873.5,-621.56 873.5,-621.56 873.5,-615.56 879.5,-609.56 885.5,-609.56 885.5,-609.56 998.5,-609.56 998.5,-609.56 1004.5,-609.56 1010.5,-615.56 1010.5,-621.56 1010.5,-621.56 1010.5,-633.56 1010.5,-633.56 1010.5,-639.56 1004.5,-645.56 998.5,-645.56"/>
<text text-anchor="middle" x="942" y="-623.86" font-family="Helvetica,sans-Serif" font-size="14.00">src/crypto/keypair.ts</text>
</g>
<!-- src/crypto/crypto.ts&#45;&gt;src/crypto/keypair.ts -->
<g id="edge8" class="edge">
<title>src/crypto/crypto.ts&#45;&gt;src/crypto/keypair.ts</title>
<path fill="none" stroke="#528b8b" stroke-width="2" d="M693.27,-627.56C742.52,-627.56 810.69,-627.56 863.06,-627.56"/>
<polygon fill="#528b8b" stroke="#528b8b" stroke-width="2" points="863.31,-631.06 873.31,-627.56 863.31,-624.06 863.31,-631.06"/>
</g>
<!-- src/crypto/keypair.ts&#45;&gt;src/core&#45;validators/addresses.ts -->
<g id="edge12" class="edge">
<title>src/crypto/keypair.ts&#45;&gt;src/core&#45;validators/addresses.ts</title>
<path fill="none" stroke="#528b8b" stroke-width="2" d="M1010.72,-617.75C1050.6,-611.97 1102.04,-604.52 1147.87,-597.88"/>
<polygon fill="#528b8b" stroke="#528b8b" stroke-width="2" points="1148.46,-601.33 1157.86,-596.43 1147.46,-594.4 1148.46,-601.33"/>
</g>
<!-- src/crypto/keypair.ts&#45;&gt;src/crypto/base32.ts -->
<g id="edge10" class="edge">
<title>src/crypto/keypair.ts&#45;&gt;src/crypto/base32.ts</title>
<path fill="none" stroke="#528b8b" stroke-width="2" d="M1010.72,-637.37C1061.2,-644.68 1130.21,-654.68 1182.91,-662.32"/>
<polygon fill="#528b8b" stroke="#528b8b" stroke-width="2" points="1182.48,-665.79 1192.88,-663.76 1183.49,-658.87 1182.48,-665.79"/>
</g>
<!-- src/crypto/keypair.ts&#45;&gt;src/crypto/crypto&#45;types.ts -->
<g id="edge11" class="edge">
<title>src/crypto/keypair.ts&#45;&gt;src/crypto/crypto&#45;types.ts</title>
<path fill="none" stroke="#528b8b" stroke-width="2" d="M1010.71,-621.18C1102.17,-614.62 1269.45,-609.9 1406,-646.56 1443.84,-656.72 1483.01,-678.49 1510.09,-695.62"/>
<polygon fill="#528b8b" stroke="#528b8b" stroke-width="2" points="1508.49,-698.75 1518.79,-701.23 1512.28,-692.87 1508.49,-698.75"/>
</g>
<!-- src/entries/browser.ts -->
<g id="node12" class="node">
<title>src/entries/browser.ts</title>
<path fill="#79cdcd" stroke="#79cdcd" d="M154,-528.56C154,-528.56 33,-528.56 33,-528.56 27,-528.56 21,-522.56 21,-516.56 21,-516.56 21,-504.56 21,-504.56 21,-498.56 27,-492.56 33,-492.56 33,-492.56 154,-492.56 154,-492.56 160,-492.56 166,-498.56 166,-504.56 166,-504.56 166,-516.56 166,-516.56 166,-522.56 160,-528.56 154,-528.56"/>
<text text-anchor="middle" x="93.5" y="-506.86" font-family="Helvetica,sans-Serif" font-size="14.00">src/entries/browser.ts</text>
</g>
<!-- src/entries/legacy&#45;node.ts -->
<g id="node13" class="node">
<title>src/entries/legacy&#45;node.ts</title>
<path fill="#79cdcd" stroke="#79cdcd" d="M166.5,-582.56C166.5,-582.56 20.5,-582.56 20.5,-582.56 14.5,-582.56 8.5,-576.56 8.5,-570.56 8.5,-570.56 8.5,-558.56 8.5,-558.56 8.5,-552.56 14.5,-546.56 20.5,-546.56 20.5,-546.56 166.5,-546.56 166.5,-546.56 172.5,-546.56 178.5,-552.56 178.5,-558.56 178.5,-558.56 178.5,-570.56 178.5,-570.56 178.5,-576.56 172.5,-582.56 166.5,-582.56"/>
<text text-anchor="middle" x="93.5" y="-560.86" font-family="Helvetica,sans-Serif" font-size="14.00">src/entries/legacy&#45;node.ts</text>
</g>
<!-- src/entries/node.ts -->
<g id="node14" class="node">
<title>src/entries/node.ts</title>
<path fill="#79cdcd" stroke="#79cdcd" d="M145,-636.56C145,-636.56 42,-636.56 42,-636.56 36,-636.56 30,-630.56 30,-624.56 30,-624.56 30,-612.56 30,-612.56 30,-606.56 36,-600.56 42,-600.56 42,-600.56 145,-600.56 145,-600.56 151,-600.56 157,-606.56 157,-612.56 157,-612.56 157,-624.56 157,-624.56 157,-630.56 151,-636.56 145,-636.56"/>
<text text-anchor="middle" x="93.5" y="-614.86" font-family="Helvetica,sans-Serif" font-size="14.00">src/entries/node.ts</text>
</g>
<!-- src/entries/universal.ts -->
<g id="node15" class="node">
<title>src/entries/universal.ts</title>
<path fill="#79cdcd" stroke="#79cdcd" d="M157,-690.56C157,-690.56 30,-690.56 30,-690.56 24,-690.56 18,-684.56 18,-678.56 18,-678.56 18,-666.56 18,-666.56 18,-660.56 24,-654.56 30,-654.56 30,-654.56 157,-654.56 157,-654.56 163,-654.56 169,-660.56 169,-666.56 169,-666.56 169,-678.56 169,-678.56 169,-684.56 163,-690.56 157,-690.56"/>
<text text-anchor="middle" x="93.5" y="-668.86" font-family="Helvetica,sans-Serif" font-size="14.00">src/entries/universal.ts</text>
</g>
<!-- src/format&#45;validators/format&#45;validator&#45;es4.ts&#45;&gt;src/core&#45;validators/addresses.ts -->
<g id="edge23" class="edge">
<title>src/format&#45;validators/format&#45;validator&#45;es4.ts&#45;&gt;src/core&#45;validators/addresses.ts</title>
<path fill="none" stroke="#528b8b" stroke-width="2" d="M1067.57,-553.61C1093.95,-557.43 1121.65,-561.44 1147.57,-565.2"/>
<polygon fill="#528b8b" stroke="#528b8b" stroke-width="2" points="1147.4,-568.71 1157.79,-566.68 1148.4,-561.78 1147.4,-568.71"/>
</g>
<!-- src/format&#45;validators/format&#45;validator&#45;es4.ts&#45;&gt;src/core&#45;validators/characters.ts -->
<g id="edge21" class="edge">
<title>src/format&#45;validators/format&#45;validator&#45;es4.ts&#45;&gt;src/core&#45;validators/characters.ts</title>
<path fill="none" stroke="#528b8b" stroke-width="2" d="M1081.17,-524.14C1093.28,-523.23 1105.36,-522.35 1117,-521.56 1223.6,-514.28 1345.24,-507.62 1431.53,-503.17"/>
<polygon fill="#528b8b" stroke="#528b8b" stroke-width="2" points="1431.8,-506.66 1441.61,-502.65 1431.44,-499.67 1431.8,-506.66"/>
</g>
<!-- src/format&#45;validators/format&#45;validator&#45;es4.ts&#45;&gt;src/core&#45;validators/checkers.ts -->
<g id="edge22" class="edge">
<title>src/format&#45;validators/format&#45;validator&#45;es4.ts&#45;&gt;src/core&#45;validators/checkers.ts</title>
<path fill="none" stroke="#528b8b" stroke-width="2" d="M1036.86,-517.53C1051.84,-513.59 1067,-508.95 1081,-503.56 1098.08,-496.98 1099.89,-490.06 1117,-483.56 1128.09,-479.34 1139.89,-475.6 1151.76,-472.31"/>
<polygon fill="#528b8b" stroke="#528b8b" stroke-width="2" points="1152.99,-475.6 1161.74,-469.64 1151.18,-468.84 1152.99,-475.6"/>
</g>
<!-- src/format&#45;validators/format&#45;validator&#45;es4.ts&#45;&gt;src/crypto/crypto&#45;types.ts -->
<g id="edge20" class="edge">
<title>src/format&#45;validators/format&#45;validator&#45;es4.ts&#45;&gt;src/crypto/crypto&#45;types.ts</title>
<path fill="none" stroke="#528b8b" stroke-width="2" d="M1081.27,-529.14C1196.66,-525.98 1350.83,-527.51 1406,-554.56 1466.46,-584.2 1510.55,-653.58 1531.45,-692.26"/>
<polygon fill="#528b8b" stroke="#528b8b" stroke-width="2" points="1528.5,-694.18 1536.26,-701.4 1534.69,-690.92 1528.5,-694.18"/>
</g>
<!-- src/format&#45;validators/format&#45;validator&#45;types.ts -->
<g id="node17" class="node">
<title>src/format&#45;validators/format&#45;validator&#45;types.ts</title>
<path fill="#79cdcd" stroke="#79cdcd" d="M1394,-415.56C1394,-415.56 1129,-415.56 1129,-415.56 1123,-415.56 1117,-409.56 1117,-403.56 1117,-403.56 1117,-391.56 1117,-391.56 1117,-385.56 1123,-379.56 1129,-379.56 1129,-379.56 1394,-379.56 1394,-379.56 1400,-379.56 1406,-385.56 1406,-391.56 1406,-391.56 1406,-403.56 1406,-403.56 1406,-409.56 1400,-415.56 1394,-415.56"/>
<text text-anchor="middle" x="1261.5" y="-393.86" font-family="Helvetica,sans-Serif" font-size="14.00">src/format&#45;validators/format&#45;validator&#45;types.ts</text>
</g>
<!-- src/format&#45;validators/format&#45;validator&#45;es4.ts&#45;&gt;src/format&#45;validators/format&#45;validator&#45;types.ts -->
<g id="edge19" class="edge">
<title>src/format&#45;validators/format&#45;validator&#45;es4.ts&#45;&gt;src/format&#45;validators/format&#45;validator&#45;types.ts</title>
<path fill="none" stroke="#528b8b" stroke-width="2" d="M1058.73,-517.54C1066.7,-513.7 1074.24,-509.09 1081,-503.56 1110.87,-479.13 1086.63,-448.36 1117,-424.56 1118.57,-423.33 1120.18,-422.15 1121.83,-421.01"/>
<polygon fill="#528b8b" stroke="#528b8b" stroke-width="2" points="1123.68,-423.99 1130.33,-415.74 1119.99,-418.04 1123.68,-423.99"/>
</g>
<!-- src/format&#45;validators/format&#45;validator&#45;types.ts&#45;&gt;src/crypto/crypto&#45;types.ts -->
<g id="edge24" class="edge">
<title>src/format&#45;validators/format&#45;validator&#45;types.ts&#45;&gt;src/crypto/crypto&#45;types.ts</title>
<path fill="none" stroke="#528b8b" stroke-width="2" d="M1393.67,-415.71C1398.01,-418.33 1402.14,-421.27 1406,-424.56 1441.96,-455.19 1422.92,-481.35 1442,-524.56 1469.3,-586.39 1507.93,-655.68 1529.28,-692.73"/>
<polygon fill="#528b8b" stroke="#528b8b" stroke-width="2" points="1526.28,-694.53 1534.32,-701.44 1532.34,-691.03 1526.28,-694.53"/>
</g>
<!-- src/storage/compare.ts -->
<g id="node18" class="node">
<title>src/storage/compare.ts</title>
<path fill="#79cdcd" stroke="#79cdcd" d="M1007.5,-385.56C1007.5,-385.56 876.5,-385.56 876.5,-385.56 870.5,-385.56 864.5,-379.56 864.5,-373.56 864.5,-373.56 864.5,-361.56 864.5,-361.56 864.5,-355.56 870.5,-349.56 876.5,-349.56 876.5,-349.56 1007.5,-349.56 1007.5,-349.56 1013.5,-349.56 1019.5,-355.56 1019.5,-361.56 1019.5,-361.56 1019.5,-373.56 1019.5,-373.56 1019.5,-379.56 1013.5,-385.56 1007.5,-385.56"/>
<text text-anchor="middle" x="942" y="-363.86" font-family="Helvetica,sans-Serif" font-size="14.00">src/storage/compare.ts</text>
</g>
<!-- src/storage/util&#45;types.ts -->
<g id="node28" class="node">
<title>src/storage/util&#45;types.ts</title>
<path fill="#79cdcd" stroke="#79cdcd" d="M1327,-350.56C1327,-350.56 1196,-350.56 1196,-350.56 1190,-350.56 1184,-344.56 1184,-338.56 1184,-338.56 1184,-326.56 1184,-326.56 1184,-320.56 1190,-314.56 1196,-314.56 1196,-314.56 1327,-314.56 1327,-314.56 1333,-314.56 1339,-320.56 1339,-326.56 1339,-326.56 1339,-338.56 1339,-338.56 1339,-344.56 1333,-350.56 1327,-350.56"/>
<text text-anchor="middle" x="1261.5" y="-328.86" font-family="Helvetica,sans-Serif" font-size="14.00">src/storage/util&#45;types.ts</text>
</g>
<!-- src/storage/compare.ts&#45;&gt;src/storage/util&#45;types.ts -->
<g id="edge25" class="edge">
<title>src/storage/compare.ts&#45;&gt;src/storage/util&#45;types.ts</title>
<path fill="none" stroke="#528b8b" stroke-width="2" d="M1019.86,-359.09C1066.29,-353.97 1125.59,-347.43 1173.71,-342.13"/>
<polygon fill="#528b8b" stroke="#528b8b" stroke-width="2" points="1174.24,-345.59 1183.8,-341.02 1173.48,-338.63 1174.24,-345.59"/>
</g>
<!-- src/storage/lock.ts -->
<g id="node19" class="node">
<title>src/storage/lock.ts</title>
<path fill="#79cdcd" stroke="#79cdcd" d="M1312,-237.56C1312,-237.56 1211,-237.56 1211,-237.56 1205,-237.56 1199,-231.56 1199,-225.56 1199,-225.56 1199,-213.56 1199,-213.56 1199,-207.56 1205,-201.56 1211,-201.56 1211,-201.56 1312,-201.56 1312,-201.56 1318,-201.56 1324,-207.56 1324,-213.56 1324,-213.56 1324,-225.56 1324,-225.56 1324,-231.56 1318,-237.56 1312,-237.56"/>
<text text-anchor="middle" x="1261.5" y="-215.86" font-family="Helvetica,sans-Serif" font-size="14.00">src/storage/lock.ts</text>
</g>
<!-- src/storage/query&#45;follower&#45;types.ts -->
<g id="node20" class="node">
<title>src/storage/query&#45;follower&#45;types.ts</title>
<path fill="#79cdcd" stroke="#79cdcd" d="M727.5,-232.56C727.5,-232.56 528.5,-232.56 528.5,-232.56 522.5,-232.56 516.5,-226.56 516.5,-220.56 516.5,-220.56 516.5,-208.56 516.5,-208.56 516.5,-202.56 522.5,-196.56 528.5,-196.56 528.5,-196.56 727.5,-196.56 727.5,-196.56 733.5,-196.56 739.5,-202.56 739.5,-208.56 739.5,-208.56 739.5,-220.56 739.5,-220.56 739.5,-226.56 733.5,-232.56 727.5,-232.56"/>
<text text-anchor="middle" x="628" y="-210.86" font-family="Helvetica,sans-Serif" font-size="14.00">src/storage/query&#45;follower&#45;types.ts</text>
</g>
<!-- src/storage/storage&#45;types.ts -->
<g id="node27" class="node">
<title>src/storage/storage&#45;types.ts</title>
<path fill="#79cdcd" stroke="#79cdcd" d="M1021.5,-179.56C1021.5,-179.56 862.5,-179.56 862.5,-179.56 856.5,-179.56 850.5,-173.56 850.5,-167.56 850.5,-167.56 850.5,-155.56 850.5,-155.56 850.5,-149.56 856.5,-143.56 862.5,-143.56 862.5,-143.56 1021.5,-143.56 1021.5,-143.56 1027.5,-143.56 1033.5,-149.56 1033.5,-155.56 1033.5,-155.56 1033.5,-167.56 1033.5,-167.56 1033.5,-173.56 1027.5,-179.56 1021.5,-179.56"/>
<text text-anchor="middle" x="942" y="-157.86" font-family="Helvetica,sans-Serif" font-size="14.00">src/storage/storage&#45;types.ts</text>
</g>
<!-- src/storage/query&#45;follower&#45;types.ts&#45;&gt;src/storage/storage&#45;types.ts -->
<g id="edge26" class="edge">
<title>src/storage/query&#45;follower&#45;types.ts&#45;&gt;src/storage/storage&#45;types.ts</title>
<path fill="none" stroke="#528b8b" stroke-width="2" d="M735.06,-196.54C769,-190.78 806.47,-184.41 840.04,-178.71"/>
<polygon fill="#528b8b" stroke="#528b8b" stroke-width="2" points="841.05,-182.09 850.32,-176.96 839.88,-175.19 841.05,-182.09"/>
</g>
<!-- src/storage/query&#45;follower.ts&#45;&gt;src/storage/query&#45;follower&#45;types.ts -->
<g id="edge31" class="edge">
<title>src/storage/query&#45;follower.ts&#45;&gt;src/storage/query&#45;follower&#45;types.ts</title>
<path fill="none" stroke="#528b8b" stroke-width="2" d="M431.31,-183.3C455.21,-187.12 481.29,-191.29 506.4,-195.3"/>
<polygon fill="#528b8b" stroke="#528b8b" stroke-width="2" points="505.91,-198.76 516.34,-196.88 507.01,-191.85 505.91,-198.76"/>
</g>
<!-- src/storage/query&#45;types.ts -->
<g id="node22" class="node">
<title>src/storage/query&#45;types.ts</title>
<path fill="#79cdcd" stroke="#79cdcd" d="M1335.5,-156.56C1335.5,-156.56 1187.5,-156.56 1187.5,-156.56 1181.5,-156.56 1175.5,-150.56 1175.5,-144.56 1175.5,-144.56 1175.5,-132.56 1175.5,-132.56 1175.5,-126.56 1181.5,-120.56 1187.5,-120.56 1187.5,-120.56 1335.5,-120.56 1335.5,-120.56 1341.5,-120.56 1347.5,-126.56 1347.5,-132.56 1347.5,-132.56 1347.5,-144.56 1347.5,-144.56 1347.5,-150.56 1341.5,-156.56 1335.5,-156.56"/>
<text text-anchor="middle" x="1261.5" y="-134.86" font-family="Helvetica,sans-Serif" font-size="14.00">src/storage/query&#45;types.ts</text>
</g>
<!-- src/storage/query&#45;follower.ts&#45;&gt;src/storage/query&#45;types.ts -->
<g id="edge28" class="edge">
<title>src/storage/query&#45;follower.ts&#45;&gt;src/storage/query&#45;types.ts</title>
<path fill="none" stroke="#528b8b" stroke-width="2" d="M431.33,-159.8C524.89,-151.39 673.85,-139.29 803,-134.56 926.47,-130.04 957.45,-133.18 1081,-134.56 1108.22,-134.86 1137.77,-135.43 1164.87,-136.03"/>
<polygon fill="#528b8b" stroke="#528b8b" stroke-width="2" points="1165.06,-139.54 1175.14,-136.27 1165.22,-132.54 1165.06,-139.54"/>
</g>
<!-- src/storage/query.ts -->
<g id="node23" class="node">
<title>src/storage/query.ts</title>
<path fill="#79cdcd" stroke="#79cdcd" d="M997,-83.56C997,-83.56 887,-83.56 887,-83.56 881,-83.56 875,-77.56 875,-71.56 875,-71.56 875,-59.56 875,-59.56 875,-53.56 881,-47.56 887,-47.56 887,-47.56 997,-47.56 997,-47.56 1003,-47.56 1009,-53.56 1009,-59.56 1009,-59.56 1009,-71.56 1009,-71.56 1009,-77.56 1003,-83.56 997,-83.56"/>
<text text-anchor="middle" x="942" y="-61.86" font-family="Helvetica,sans-Serif" font-size="14.00">src/storage/query.ts</text>
</g>
<!-- src/storage/query&#45;follower.ts&#45;&gt;src/storage/query.ts -->
<g id="edge30" class="edge">
<title>src/storage/query&#45;follower.ts&#45;&gt;src/storage/query.ts</title>
<path fill="none" stroke="#528b8b" stroke-width="2" d="M382.88,-150.46C412.39,-139.01 452.44,-124.85 489,-116.56 618.96,-87.08 773.98,-74.31 864.56,-69.02"/>
<polygon fill="#528b8b" stroke="#528b8b" stroke-width="2" points="864.96,-72.51 874.74,-68.44 864.56,-65.52 864.96,-72.51"/>
</g>
<!-- src/storage/query&#45;follower.ts&#45;&gt;src/storage/storage&#45;types.ts -->
<g id="edge29" class="edge">
<title>src/storage/query&#45;follower.ts&#45;&gt;src/storage/storage&#45;types.ts</title>
<path fill="none" stroke="#528b8b" stroke-width="2" d="M431.09,-167.49C541.55,-166.2 726.09,-164.06 840.26,-162.73"/>
<polygon fill="#528b8b" stroke="#528b8b" stroke-width="2" points="840.44,-166.23 850.4,-162.61 840.36,-159.23 840.44,-166.23"/>
</g>
<!-- src/storage/query&#45;follower.ts&#45;&gt;src/storage/util&#45;types.ts -->
<g id="edge27" class="edge">
<title>src/storage/query&#45;follower.ts&#45;&gt;src/storage/util&#45;types.ts</title>
<path fill="none" stroke="#528b8b" stroke-width="2" d="M431.14,-178.09C439.08,-181.51 446.54,-185.91 453,-191.56 489.83,-223.75 449.85,-266.24 489,-295.56 542.65,-335.74 983.13,-335.72 1173.45,-333.79"/>
<polygon fill="#528b8b" stroke="#528b8b" stroke-width="2" points="1173.73,-337.29 1183.7,-333.69 1173.66,-330.29 1173.73,-337.29"/>
</g>
<!-- src/storage/query.ts&#45;&gt;src/storage/query&#45;types.ts -->
<g id="edge32" class="edge">
<title>src/storage/query.ts&#45;&gt;src/storage/query&#45;types.ts</title>
<path fill="none" stroke="#528b8b" stroke-width="2" d="M1009.17,-80.77C1056.47,-91.65 1120.61,-106.4 1172.26,-118.27"/>
<polygon fill="#528b8b" stroke="#528b8b" stroke-width="2" points="1171.55,-121.7 1182.08,-120.53 1173.12,-114.88 1171.55,-121.7"/>
</g>
<!-- src/storage/storage&#45;async.ts&#45;&gt;src/format&#45;validators/format&#45;validator&#45;types.ts -->
<g id="edge36" class="edge">
<title>src/storage/storage&#45;async.ts&#45;&gt;src/format&#45;validators/format&#45;validator&#45;types.ts</title>
<path fill="none" stroke="#528b8b" stroke-width="2" d="M675.8,-431.59C710.35,-443.9 758.86,-459.1 803,-465.56 925.26,-483.44 968.44,-516.52 1081,-465.56 1103.09,-455.56 1095.93,-436.57 1117,-424.56 1120.07,-422.81 1123.22,-421.17 1126.45,-419.64"/>
<polygon fill="#528b8b" stroke="#528b8b" stroke-width="2" points="1127.97,-422.8 1135.73,-415.59 1125.16,-416.38 1127.97,-422.8"/>
</g>
<!-- src/storage/storage&#45;async.ts&#45;&gt;src/storage/compare.ts -->
<g id="edge37" class="edge">
<title>src/storage/storage&#45;async.ts&#45;&gt;src/storage/compare.ts</title>
<path fill="none" stroke="#528b8b" stroke-width="2" d="M721.34,-399.95C763.43,-393.74 812.97,-386.44 854.34,-380.34"/>
<polygon fill="#528b8b" stroke="#528b8b" stroke-width="2" points="855.01,-383.78 864.4,-378.85 853.99,-376.85 855.01,-383.78"/>
</g>
<!-- src/storage/storage&#45;async.ts&#45;&gt;src/storage/query&#45;types.ts -->
<g id="edge34" class="edge">
<title>src/storage/storage&#45;async.ts&#45;&gt;src/storage/query&#45;types.ts</title>
<path fill="none" stroke="#528b8b" stroke-width="2" d="M721.2,-415.74C845.56,-417.76 1054.63,-417.61 1081,-394.56 1149.67,-334.55 1058.7,-262.68 1117,-192.56 1129.74,-177.24 1147.3,-166.26 1165.77,-158.4"/>
<polygon fill="#528b8b" stroke="#528b8b" stroke-width="2" points="1167.17,-161.6 1175.19,-154.67 1164.6,-155.09 1167.17,-161.6"/>
</g>
<!-- src/storage/storage&#45;async.ts&#45;&gt;src/storage/storage&#45;types.ts -->
<g id="edge35" class="edge">
<title>src/storage/storage&#45;async.ts&#45;&gt;src/storage/storage&#45;types.ts</title>
<path fill="none" stroke="#528b8b" stroke-width="2" d="M651.44,-395.44C706.4,-351.05 847.81,-236.83 910.41,-186.27"/>
<polygon fill="#528b8b" stroke="#528b8b" stroke-width="2" points="912.77,-188.86 918.35,-179.86 908.37,-183.42 912.77,-188.86"/>
</g>
<!-- src/storage/storage&#45;async.ts&#45;&gt;src/storage/util&#45;types.ts -->
<g id="edge33" class="edge">
<title>src/storage/storage&#45;async.ts&#45;&gt;src/storage/util&#45;types.ts</title>
<path fill="none" stroke="#528b8b" stroke-width="2" d="M721.48,-427.29C835.48,-442.37 1021.44,-460.39 1081,-427.56 1107.24,-413.1 1092.85,-388.29 1117,-370.56 1133.69,-358.31 1154.05,-350 1174.11,-344.37"/>
<polygon fill="#528b8b" stroke="#528b8b" stroke-width="2" points="1175.13,-347.73 1183.93,-341.82 1173.37,-340.95 1175.13,-347.73"/>
</g>
<!-- src/storage/storage&#45;cache.ts -->
<g id="node25" class="node">
<title>src/storage/storage&#45;cache.ts</title>
<path fill="#79cdcd" stroke="#79cdcd" d="M175,-110.56C175,-110.56 12,-110.56 12,-110.56 6,-110.56 0,-104.56 0,-98.56 0,-98.56 0,-86.56 0,-86.56 0,-80.56 6,-74.56 12,-74.56 12,-74.56 175,-74.56 175,-74.56 181,-74.56 187,-80.56 187,-86.56 187,-86.56 187,-98.56 187,-98.56 187,-104.56 181,-110.56 175,-110.56"/>
<text text-anchor="middle" x="93.5" y="-88.86" font-family="Helvetica,sans-Serif" font-size="14.00">src/storage/storage&#45;cache.ts</text>
</g>
<!-- src/storage/storage&#45;cache.ts&#45;&gt;src/storage/query&#45;follower.ts -->
<g id="edge39" class="edge">
<title>src/storage/storage&#45;cache.ts&#45;&gt;src/storage/query&#45;follower.ts</title>
<path fill="none" stroke="#528b8b" stroke-width="2" d="M151.97,-110.57C187.33,-121.65 232.8,-135.9 269.82,-147.5"/>
<polygon fill="#528b8b" stroke="#528b8b" stroke-width="2" points="268.93,-150.9 279.52,-150.55 271.03,-144.22 268.93,-150.9"/>
</g>
<!-- src/storage/storage&#45;cache.ts&#45;&gt;src/storage/query&#45;types.ts -->
<g id="edge40" class="edge">
<title>src/storage/storage&#45;cache.ts&#45;&gt;src/storage/query&#45;types.ts</title>
<path fill="none" stroke="#528b8b" stroke-width="2" d="M163.81,-74.52C326.87,-35.12 746.27,48.39 1081,-38.56 1137.34,-53.19 1194.78,-89.8 1229.03,-114.42"/>
<polygon fill="#528b8b" stroke="#528b8b" stroke-width="2" points="1227.09,-117.33 1237.23,-120.4 1231.21,-111.68 1227.09,-117.33"/>
</g>
<!-- src/storage/storage&#45;cache.ts&#45;&gt;src/storage/query.ts -->
<g id="edge38" class="edge">
<title>src/storage/storage&#45;cache.ts&#45;&gt;src/storage/query.ts</title>
<path fill="none" stroke="#528b8b" stroke-width="2" d="M187.06,-81.47C199.14,-80.32 211.35,-79.3 223,-78.56 456.19,-63.7 732.79,-63.63 864.24,-64.66"/>
<polygon fill="#528b8b" stroke="#528b8b" stroke-width="2" points="864.57,-68.16 874.6,-64.74 864.62,-61.16 864.57,-68.16"/>
</g>
<!-- src/storage/storage&#45;cache.ts&#45;&gt;src/storage/storage&#45;async.ts -->
<g id="edge41" class="edge">
<title>src/storage/storage&#45;cache.ts&#45;&gt;src/storage/storage&#45;async.ts</title>
<path fill="none" stroke="#528b8b" stroke-width="2" d="M114.98,-110.91C139.62,-132.53 182.72,-168.87 223,-195.56 345.48,-276.73 501.08,-354.05 578.57,-390.97"/>
<polygon fill="#528b8b" stroke="#528b8b" stroke-width="2" points="577.54,-394.36 588.08,-395.48 580.55,-388.03 577.54,-394.36"/>
</g>
<!-- src/storage/storage&#45;cache.ts&#45;&gt;src/storage/storage&#45;types.ts -->
<g id="edge42" class="edge">
<title>src/storage/storage&#45;cache.ts&#45;&gt;src/storage/storage&#45;types.ts</title>
<path fill="none" stroke="#528b8b" stroke-width="2" d="M187.11,-100.11C347.2,-113.16 674.43,-139.83 840.11,-153.34"/>
<polygon fill="#528b8b" stroke="#528b8b" stroke-width="2" points="840.04,-156.84 850.3,-154.17 840.61,-149.87 840.04,-156.84"/>
</g>
<!-- src/storage/storage&#45;driver&#45;async&#45;memory.ts&#45;&gt;src/storage/compare.ts -->
<g id="edge46" class="edge">
<title>src/storage/storage&#45;driver&#45;async&#45;memory.ts&#45;&gt;src/storage/compare.ts</title>
<path fill="none" stroke="#528b8b" stroke-width="2" d="M685.86,-286.6C739,-303.47 818.35,-328.64 874.43,-346.44"/>
<polygon fill="#528b8b" stroke="#528b8b" stroke-width="2" points="873.67,-349.87 884.26,-349.56 875.79,-343.2 873.67,-349.87"/>
</g>
<!-- src/storage/storage&#45;driver&#45;async&#45;memory.ts&#45;&gt;src/storage/lock.ts -->
<g id="edge48" class="edge">
<title>src/storage/storage&#45;driver&#45;async&#45;memory.ts&#45;&gt;src/storage/lock.ts</title>
<path fill="none" stroke="#528b8b" stroke-width="2" d="M767.2,-257.84C897.04,-247.76 1086.25,-233.08 1188.49,-225.15"/>
<polygon fill="#528b8b" stroke="#528b8b" stroke-width="2" points="1189.01,-228.62 1198.71,-224.35 1188.46,-221.64 1189.01,-228.62"/>
</g>
<!-- src/storage/storage&#45;driver&#45;async&#45;memory.ts&#45;&gt;src/storage/query&#45;types.ts -->
<g id="edge44" class="edge">
<title>src/storage/storage&#45;driver&#45;async&#45;memory.ts&#45;&gt;src/storage/query&#45;types.ts</title>
<path fill="none" stroke="#528b8b" stroke-width="2" d="M727.65,-250.55C740.93,-247.75 754.33,-244.73 767,-241.56 783.23,-237.5 786.68,-234.26 803,-230.56 924.86,-202.89 958.81,-214.71 1081,-188.56 1118.43,-180.55 1159.6,-169.26 1193.07,-159.44"/>
<polygon fill="#528b8b" stroke="#528b8b" stroke-width="2" points="1194.14,-162.77 1202.74,-156.58 1192.16,-156.06 1194.14,-162.77"/>
</g>
<!-- src/storage/storage&#45;driver&#45;async&#45;memory.ts&#45;&gt;src/storage/query.ts -->
<g id="edge47" class="edge">
<title>src/storage/storage&#45;driver&#45;async&#45;memory.ts&#45;&gt;src/storage/query.ts</title>
<path fill="none" stroke="#528b8b" stroke-width="2" d="M754.93,-250.43C759.19,-247.8 763.24,-244.86 767,-241.56 804.73,-208.49 770.07,-172.42 803,-134.56 821.24,-113.59 847.36,-98.29 871.98,-87.5"/>
<polygon fill="#528b8b" stroke="#528b8b" stroke-width="2" points="873.45,-90.68 881.32,-83.58 870.74,-84.22 873.45,-90.68"/>
</g>
<!-- src/storage/storage&#45;driver&#45;async&#45;memory.ts&#45;&gt;src/storage/storage&#45;types.ts -->
<g id="edge45" class="edge">
<title>src/storage/storage&#45;driver&#45;async&#45;memory.ts&#45;&gt;src/storage/storage&#45;types.ts</title>
<path fill="none" stroke="#528b8b" stroke-width="2" d="M750,-250.51C755.91,-247.9 761.62,-244.93 767,-241.56 789.59,-227.39 780.66,-208.12 803,-193.56 814.44,-186.1 827.41,-180.38 840.71,-175.98"/>
<polygon fill="#528b8b" stroke="#528b8b" stroke-width="2" points="841.89,-179.28 850.43,-173.01 839.84,-172.58 841.89,-179.28"/>
</g>
<!-- src/storage/storage&#45;driver&#45;async&#45;memory.ts&#45;&gt;src/storage/util&#45;types.ts -->
<g id="edge43" class="edge">
<title>src/storage/storage&#45;driver&#45;async&#45;memory.ts&#45;&gt;src/storage/util&#45;types.ts</title>
<path fill="none" stroke="#528b8b" stroke-width="2" d="M767.16,-278.6C856.75,-285.57 975.92,-295.72 1081,-307.56 1111.21,-310.96 1144.18,-315.36 1173.53,-319.51"/>
<polygon fill="#528b8b" stroke="#528b8b" stroke-width="2" points="1173.35,-323.02 1183.74,-320.97 1174.34,-316.09 1173.35,-323.02"/>
</g>
<!-- src/storage/storage&#45;types.ts&#45;&gt;src/format&#45;validators/format&#45;validator&#45;types.ts -->
<g id="edge50" class="edge">
<title>src/storage/storage&#45;types.ts&#45;&gt;src/format&#45;validators/format&#45;validator&#45;types.ts</title>
<path fill="none" stroke="#528b8b" stroke-width="2" d="M953.7,-179.8C977.69,-219.04 1039.77,-311.74 1117,-359.56 1127.63,-366.14 1139.39,-371.6 1151.47,-376.11"/>
<polygon fill="#528b8b" stroke="#528b8b" stroke-width="2" points="1150.61,-379.52 1161.2,-379.53 1152.93,-372.91 1150.61,-379.52"/>
</g>
<!-- src/storage/storage&#45;types.ts&#45;&gt;src/storage/lock.ts -->
<g id="edge51" class="edge">
<title>src/storage/storage&#45;types.ts&#45;&gt;src/storage/lock.ts</title>
<path fill="none" stroke="#528b8b" stroke-width="2" d="M1033.56,-178.1C1082.91,-187.12 1143.11,-198.12 1189.11,-206.52"/>
<polygon fill="#528b8b" stroke="#528b8b" stroke-width="2" points="1188.53,-209.97 1198.99,-208.32 1189.79,-203.08 1188.53,-209.97"/>
</g>
<!-- src/storage/storage&#45;types.ts&#45;&gt;src/storage/query&#45;types.ts -->
<g id="edge49" class="edge">
<title>src/storage/storage&#45;types.ts&#45;&gt;src/storage/query&#45;types.ts</title>
<path fill="none" stroke="#528b8b" stroke-width="2" d="M1033.56,-155C1074.7,-152.02 1123.4,-148.49 1165.11,-145.47"/>
<polygon fill="#528b8b" stroke="#528b8b" stroke-width="2" points="1165.56,-148.95 1175.28,-144.73 1165.05,-141.97 1165.56,-148.95"/>
</g>
</g>
</svg>
