<?xml version="1.0" encoding="UTF-8" standalone="no"?>
<!DOCTYPE svg PUBLIC "-//W3C//DTD SVG 1.1//EN"
 "http://www.w3.org/Graphics/SVG/1.1/DTD/svg11.dtd">
<!-- Generated by graphviz version 2.44.1 (20200629.0846)
 -->
<!-- Title: G Pages: 1 -->
<svg width="1327pt" height="939pt"
 viewBox="0.00 0.00 1327.00 939.17" xmlns="http://www.w3.org/2000/svg" xmlns:xlink="http://www.w3.org/1999/xlink">
<g id="graph0" class="graph" transform="scale(1 1) rotate(0) translate(4 935.17)">
<title>G</title>
<polygon fill="white" stroke="transparent" points="-4,4 -4,-935.17 1323,-935.17 1323,4 -4,4"/>
<g id="clust1" class="cluster">
<title>cluster7670934790</title>
<path fill="none" stroke="#8b7d6b" stroke-width="2" d="M20,-9.98C20,-9.98 1299,-9.98 1299,-9.98 1305,-9.98 1311,-15.98 1311,-21.98 1311,-21.98 1311,-886.98 1311,-886.98 1311,-892.98 1305,-898.98 1299,-898.98 1299,-898.98 20,-898.98 20,-898.98 14,-898.98 8,-892.98 8,-886.98 8,-886.98 8,-21.98 8,-21.98 8,-15.98 14,-9.98 20,-9.98"/>
<text text-anchor="start" x="649" y="-884.78" font-family="Helvetica,sans-Serif" font-weight="bold" font-size="14.00">src</text>
</g>
<g id="clust8" class="cluster">
<title>cluster6623353710</title>
<path fill="bisque" stroke="#8b7d6b" stroke-width="2" d="M28,-471.98C28,-471.98 727.5,-471.98 727.5,-471.98 733.5,-471.98 739.5,-477.98 739.5,-483.98 739.5,-483.98 739.5,-648.98 739.5,-648.98 739.5,-654.98 733.5,-660.98 727.5,-660.98 727.5,-660.98 28,-660.98 28,-660.98 22,-660.98 16,-654.98 16,-648.98 16,-648.98 16,-483.98 16,-483.98 16,-477.98 22,-471.98 28,-471.98"/>
<text text-anchor="start" x="353.25" y="-646.78" font-family="Helvetica,sans-Serif" font-weight="bold" font-size="14.00">storage</text>
</g>
<g id="clust4" class="cluster">
<title>cluster3121123555</title>
<path fill="bisque" stroke="#8b7d6b" stroke-width="2" d="M424,-83.98C424,-83.98 766,-83.98 766,-83.98 772,-83.98 778,-89.98 778,-95.98 778,-95.98 778,-146.98 778,-146.98 778,-152.98 772,-158.98 766,-158.98 766,-158.98 424,-158.98 424,-158.98 418,-158.98 412,-152.98 412,-146.98 412,-146.98 412,-95.98 412,-95.98 412,-89.98 418,-83.98 424,-83.98"/>
<text text-anchor="start" x="539" y="-144.78" font-family="Helvetica,sans-Serif" font-weight="bold" font-size="14.00">format&#45;validators</text>
</g>
<g id="clust5" class="cluster">
<title>cluster7879346346</title>
<path fill="bisque" stroke="#8b7d6b" stroke-width="2" d="M234,-268.98C234,-268.98 539.5,-268.98 539.5,-268.98 545.5,-268.98 551.5,-274.98 551.5,-280.98 551.5,-280.98 551.5,-439.98 551.5,-439.98 551.5,-445.98 545.5,-451.98 539.5,-451.98 539.5,-451.98 234,-451.98 234,-451.98 228,-451.98 222,-445.98 222,-439.98 222,-439.98 222,-280.98 222,-280.98 222,-274.98 228,-268.98 234,-268.98"/>
<text text-anchor="start" x="372.25" y="-437.78" font-family="Helvetica,sans-Serif" font-weight="bold" font-size="14.00">peer</text>
</g>
<g id="clust6" class="cluster">
<title>cluster3885605209</title>
<path fill="bisque" stroke="#8b7d6b" stroke-width="2" d="M226,-782.98C226,-782.98 568,-782.98 568,-782.98 574,-782.98 580,-788.98 580,-794.98 580,-794.98 580,-845.98 580,-845.98 580,-851.98 574,-857.98 568,-857.98 568,-857.98 226,-857.98 226,-857.98 220,-857.98 214,-851.98 214,-845.98 214,-845.98 214,-794.98 214,-794.98 214,-788.98 220,-782.98 226,-782.98"/>
<text text-anchor="start" x="350" y="-843.78" font-family="Helvetica,sans-Serif" font-weight="bold" font-size="14.00">query&#45;follower</text>
</g>
<g id="clust7" class="cluster">
<title>cluster77459417</title>
<path fill="bisque" stroke="#8b7d6b" stroke-width="2" d="M468,-699.98C468,-699.98 735.5,-699.98 735.5,-699.98 741.5,-699.98 747.5,-705.98 747.5,-711.98 747.5,-711.98 747.5,-762.98 747.5,-762.98 747.5,-768.98 741.5,-774.98 735.5,-774.98 735.5,-774.98 468,-774.98 468,-774.98 462,-774.98 456,-768.98 456,-762.98 456,-762.98 456,-711.98 456,-711.98 456,-705.98 462,-699.98 468,-699.98"/>
<text text-anchor="start" x="583.25" y="-760.78" font-family="Helvetica,sans-Serif" font-weight="bold" font-size="14.00">query</text>
</g>
<g id="clust2" class="cluster">
<title>cluster2418050577</title>
<path fill="bisque" stroke="#8b7d6b" stroke-width="2" d="M1029,-29.98C1029,-29.98 1286,-29.98 1286,-29.98 1292,-29.98 1298,-35.98 1298,-41.98 1298,-41.98 1298,-146.98 1298,-146.98 1298,-152.98 1292,-158.98 1286,-158.98 1286,-158.98 1029,-158.98 1029,-158.98 1023,-158.98 1017,-152.98 1017,-146.98 1017,-146.98 1017,-41.98 1017,-41.98 1017,-35.98 1023,-29.98 1029,-29.98"/>
<text text-anchor="start" x="1109" y="-144.78" font-family="Helvetica,sans-Serif" font-weight="bold" font-size="14.00">core&#45;validators</text>
</g>
<g id="clust3" class="cluster">
<title>cluster2574691438</title>
<path fill="bisque" stroke="#8b7d6b" stroke-width="2" d="M659,-166.98C659,-166.98 1291,-166.98 1291,-166.98 1297,-166.98 1303,-172.98 1303,-178.98 1303,-178.98 1303,-451.98 1303,-451.98 1303,-457.98 1297,-463.98 1291,-463.98 1291,-463.98 659,-463.98 659,-463.98 653,-463.98 647,-457.98 647,-451.98 647,-451.98 647,-178.98 647,-178.98 647,-172.98 653,-166.98 659,-166.98"/>
<text text-anchor="start" x="954" y="-449.78" font-family="Helvetica,sans-Serif" font-weight="bold" font-size="14.00">crypto</text>
</g>
<!-- src/example&#45;app.ts -->
<g id="node1" class="node">
<title>src/example&#45;app.ts</title>
<path fill="#79cdcd" stroke="#79cdcd" d="M125,-441.98C125,-441.98 39,-441.98 39,-441.98 33,-441.98 27,-435.98 27,-429.98 27,-429.98 27,-417.98 27,-417.98 27,-411.98 33,-405.98 39,-405.98 39,-405.98 125,-405.98 125,-405.98 131,-405.98 137,-411.98 137,-417.98 137,-417.98 137,-429.98 137,-429.98 137,-435.98 131,-441.98 125,-441.98"/>
<text text-anchor="middle" x="82" y="-420.28" font-family="Helvetica,sans-Serif" font-size="14.00">example&#45;app.ts</text>
</g>
<!-- src/crypto/crypto.ts -->
<g id="node10" class="node">
<title>src/crypto/crypto.ts</title>
<path fill="#79cdcd" stroke="#79cdcd" d="M711,-261.98C711,-261.98 667,-261.98 667,-261.98 661,-261.98 655,-255.98 655,-249.98 655,-249.98 655,-237.98 655,-237.98 655,-231.98 661,-225.98 667,-225.98 667,-225.98 711,-225.98 711,-225.98 717,-225.98 723,-231.98 723,-237.98 723,-237.98 723,-249.98 723,-249.98 723,-255.98 717,-261.98 711,-261.98"/>
<text text-anchor="middle" x="689" y="-240.28" font-family="Helvetica,sans-Serif" font-size="14.00">crypto.ts</text>
</g>
<!-- src/example&#45;app.ts&#45;&gt;src/crypto/crypto.ts -->
<g id="edge19" class="edge">
<title>src/example&#45;app.ts&#45;&gt;src/crypto/crypto.ts</title>
<path fill="none" stroke="#528b8b" stroke-width="2" d="M86.6,-405.86C94.94,-369.31 119.36,-287.32 176,-252.98 326.94,-161.44 551.74,-206.49 645.03,-231.31"/>
<polygon fill="#528b8b" stroke="#528b8b" stroke-width="2" points="644.39,-234.76 654.96,-234 646.22,-228 644.39,-234.76"/>
</g>
<!-- src/format&#45;validators/format&#45;validator&#45;es4.ts -->
<g id="node13" class="node">
<title>src/format&#45;validators/format&#45;validator&#45;es4.ts</title>
<path fill="#79cdcd" stroke="#79cdcd" d="M560,-127.98C560,-127.98 432,-127.98 432,-127.98 426,-127.98 420,-121.98 420,-115.98 420,-115.98 420,-103.98 420,-103.98 420,-97.98 426,-91.98 432,-91.98 432,-91.98 560,-91.98 560,-91.98 566,-91.98 572,-97.98 572,-103.98 572,-103.98 572,-115.98 572,-115.98 572,-121.98 566,-127.98 560,-127.98"/>
<text text-anchor="middle" x="496" y="-106.28" font-family="Helvetica,sans-Serif" font-size="14.00">format&#45;validator&#45;es4.ts</text>
</g>
<!-- src/example&#45;app.ts&#45;&gt;src/format&#45;validators/format&#45;validator&#45;es4.ts -->
<g id="edge16" class="edge">
<title>src/example&#45;app.ts&#45;&gt;src/format&#45;validators/format&#45;validator&#45;es4.ts</title>
<path fill="none" stroke="#528b8b" stroke-width="2" d="M85.94,-405.88C93.44,-365.46 117.04,-267.15 176,-212.98 240.43,-153.77 339.22,-128.58 409.78,-117.87"/>
<polygon fill="#528b8b" stroke="#528b8b" stroke-width="2" points="410.58,-121.29 419.98,-116.4 409.58,-114.37 410.58,-121.29"/>
</g>
<!-- src/peer/peer.ts -->
<g id="node18" class="node">
<title>src/peer/peer.ts</title>
<path fill="#79cdcd" stroke="#79cdcd" d="M297,-420.98C297,-420.98 263,-420.98 263,-420.98 257,-420.98 251,-414.98 251,-408.98 251,-408.98 251,-396.98 251,-396.98 251,-390.98 257,-384.98 263,-384.98 263,-384.98 297,-384.98 297,-384.98 303,-384.98 309,-390.98 309,-396.98 309,-396.98 309,-408.98 309,-408.98 309,-414.98 303,-420.98 297,-420.98"/>
<text text-anchor="middle" x="280" y="-399.28" font-family="Helvetica,sans-Serif" font-size="14.00">peer.ts</text>
</g>
<!-- src/example&#45;app.ts&#45;&gt;src/peer/peer.ts -->
<g id="edge21" class="edge">
<title>src/example&#45;app.ts&#45;&gt;src/peer/peer.ts</title>
<path fill="none" stroke="#528b8b" stroke-width="2" d="M137.08,-418.18C169.87,-414.67 210.95,-410.27 240.46,-407.11"/>
<polygon fill="#528b8b" stroke="#528b8b" stroke-width="2" points="241.2,-410.55 250.77,-406 240.45,-403.59 241.2,-410.55"/>
</g>
<!-- src/query&#45;follower/query&#45;follower.ts -->
<g id="node20" class="node">
<title>src/query&#45;follower/query&#45;follower.ts</title>
<path fill="#79cdcd" stroke="#79cdcd" d="M326,-826.98C326,-826.98 234,-826.98 234,-826.98 228,-826.98 222,-820.98 222,-814.98 222,-814.98 222,-802.98 222,-802.98 222,-796.98 228,-790.98 234,-790.98 234,-790.98 326,-790.98 326,-790.98 332,-790.98 338,-796.98 338,-802.98 338,-802.98 338,-814.98 338,-814.98 338,-820.98 332,-826.98 326,-826.98"/>
<text text-anchor="middle" x="280" y="-805.28" font-family="Helvetica,sans-Serif" font-size="14.00">query&#45;follower.ts</text>
</g>
<!-- src/example&#45;app.ts&#45;&gt;src/query&#45;follower/query&#45;follower.ts -->
<g id="edge20" class="edge">
<title>src/example&#45;app.ts&#45;&gt;src/query&#45;follower/query&#45;follower.ts</title>
<path fill="none" stroke="#528b8b" stroke-width="2" d="M114.65,-442.04C124.18,-448.98 133.76,-457.73 140,-467.98 186.3,-543.99 141.27,-583.03 176,-664.98 195.32,-710.57 231.11,-755.8 255,-783.08"/>
<polygon fill="#528b8b" stroke="#528b8b" stroke-width="2" points="252.43,-785.46 261.69,-790.61 257.66,-780.81 252.43,-785.46"/>
</g>
<!-- src/storage/storage&#45;async.ts -->
<g id="node25" class="node">
<title>src/storage/storage&#45;async.ts</title>
<path fill="#79cdcd" stroke="#79cdcd" d="M326,-525.98C326,-525.98 234,-525.98 234,-525.98 228,-525.98 222,-519.98 222,-513.98 222,-513.98 222,-501.98 222,-501.98 222,-495.98 228,-489.98 234,-489.98 234,-489.98 326,-489.98 326,-489.98 332,-489.98 338,-495.98 338,-501.98 338,-501.98 338,-513.98 338,-513.98 338,-519.98 332,-525.98 326,-525.98"/>
<text text-anchor="middle" x="280" y="-504.28" font-family="Helvetica,sans-Serif" font-size="14.00">storage&#45;async.ts</text>
</g>
<!-- src/example&#45;app.ts&#45;&gt;src/storage/storage&#45;async.ts -->
<g id="edge18" class="edge">
<title>src/example&#45;app.ts&#45;&gt;src/storage/storage&#45;async.ts</title>
<path fill="none" stroke="#528b8b" stroke-width="2" d="M125.05,-442C154.91,-454.8 195.21,-472.07 227.08,-485.73"/>
<polygon fill="#528b8b" stroke="#528b8b" stroke-width="2" points="226.11,-489.12 236.68,-489.84 228.87,-482.69 226.11,-489.12"/>
</g>
<!-- src/storage/storage&#45;driver&#45;async&#45;memory.ts -->
<g id="node27" class="node">
<title>src/storage/storage&#45;driver&#45;async&#45;memory.ts</title>
<path fill="#79cdcd" stroke="#79cdcd" d="M372,-626.98C372,-626.98 188,-626.98 188,-626.98 182,-626.98 176,-620.98 176,-614.98 176,-614.98 176,-602.98 176,-602.98 176,-596.98 182,-590.98 188,-590.98 188,-590.98 372,-590.98 372,-590.98 378,-590.98 384,-596.98 384,-602.98 384,-602.98 384,-614.98 384,-614.98 384,-620.98 378,-626.98 372,-626.98"/>
<text text-anchor="middle" x="280" y="-605.28" font-family="Helvetica,sans-Serif" font-size="14.00">storage&#45;driver&#45;async&#45;memory.ts</text>
</g>
<!-- src/example&#45;app.ts&#45;&gt;src/storage/storage&#45;driver&#45;async&#45;memory.ts -->
<g id="edge17" class="edge">
<title>src/example&#45;app.ts&#45;&gt;src/storage/storage&#45;driver&#45;async&#45;memory.ts</title>
<path fill="none" stroke="#528b8b" stroke-width="2" d="M111.11,-442.03C121.03,-449.29 131.75,-458.25 140,-467.98 161.86,-493.76 153.7,-509.57 176,-534.98 193.46,-554.87 217.24,-572.4 237.54,-585.39"/>
<polygon fill="#528b8b" stroke="#528b8b" stroke-width="2" points="235.96,-588.53 246.3,-590.86 239.67,-582.59 235.96,-588.53"/>
</g>
<!-- src/core&#45;validators/addresses.ts -->
<g id="node2" class="node">
<title>src/core&#45;validators/addresses.ts</title>
<path fill="#79cdcd" stroke="#79cdcd" d="M1106,-127.98C1106,-127.98 1037,-127.98 1037,-127.98 1031,-127.98 1025,-121.98 1025,-115.98 1025,-115.98 1025,-103.98 1025,-103.98 1025,-97.98 1031,-91.98 1037,-91.98 1037,-91.98 1106,-91.98 1106,-91.98 1112,-91.98 1118,-97.98 1118,-103.98 1118,-103.98 1118,-115.98 1118,-115.98 1118,-121.98 1112,-127.98 1106,-127.98"/>
<text text-anchor="middle" x="1071.5" y="-106.28" font-family="Helvetica,sans-Serif" font-size="14.00">addresses.ts</text>
</g>
<!-- src/core&#45;validators/characters.ts -->
<g id="node3" class="node">
<title>src/core&#45;validators/characters.ts</title>
<path fill="#79cdcd" stroke="#79cdcd" d="M1278,-73.98C1278,-73.98 1208,-73.98 1208,-73.98 1202,-73.98 1196,-67.98 1196,-61.98 1196,-61.98 1196,-49.98 1196,-49.98 1196,-43.98 1202,-37.98 1208,-37.98 1208,-37.98 1278,-37.98 1278,-37.98 1284,-37.98 1290,-43.98 1290,-49.98 1290,-49.98 1290,-61.98 1290,-61.98 1290,-67.98 1284,-73.98 1278,-73.98"/>
<text text-anchor="middle" x="1243" y="-52.28" font-family="Helvetica,sans-Serif" font-size="14.00">characters.ts</text>
</g>
<!-- src/core&#45;validators/addresses.ts&#45;&gt;src/core&#45;validators/characters.ts -->
<g id="edge1" class="edge">
<title>src/core&#45;validators/addresses.ts&#45;&gt;src/core&#45;validators/characters.ts</title>
<path fill="none" stroke="#528b8b" stroke-width="2" d="M1118.37,-95.36C1139.29,-88.7 1164.25,-80.74 1186.25,-73.74"/>
<polygon fill="#528b8b" stroke="#528b8b" stroke-width="2" points="1187.33,-77.07 1195.8,-70.7 1185.21,-70.4 1187.33,-77.07"/>
</g>
<!-- src/core&#45;validators/checkers.ts -->
<g id="node4" class="node">
<title>src/core&#45;validators/checkers.ts</title>
<path fill="#79cdcd" stroke="#79cdcd" d="M1102,-73.98C1102,-73.98 1041,-73.98 1041,-73.98 1035,-73.98 1029,-67.98 1029,-61.98 1029,-61.98 1029,-49.98 1029,-49.98 1029,-43.98 1035,-37.98 1041,-37.98 1041,-37.98 1102,-37.98 1102,-37.98 1108,-37.98 1114,-43.98 1114,-49.98 1114,-49.98 1114,-61.98 1114,-61.98 1114,-67.98 1108,-73.98 1102,-73.98"/>
<text text-anchor="middle" x="1071.5" y="-52.28" font-family="Helvetica,sans-Serif" font-size="14.00">checkers.ts</text>
</g>
<!-- src/core&#45;validators/checkers.ts&#45;&gt;src/core&#45;validators/characters.ts -->
<g id="edge2" class="edge">
<title>src/core&#45;validators/checkers.ts&#45;&gt;src/core&#45;validators/characters.ts</title>
<path fill="none" stroke="#528b8b" stroke-width="2" d="M1114.4,-55.98C1135.92,-55.98 1162.44,-55.98 1185.72,-55.98"/>
<polygon fill="#528b8b" stroke="#528b8b" stroke-width="2" points="1185.82,-59.48 1195.82,-55.98 1185.82,-52.48 1185.82,-59.48"/>
</g>
<!-- src/crypto/base32.ts -->
<g id="node5" class="node">
<title>src/crypto/base32.ts</title>
<path fill="#79cdcd" stroke="#79cdcd" d="M1097,-230.98C1097,-230.98 1046,-230.98 1046,-230.98 1040,-230.98 1034,-224.98 1034,-218.98 1034,-218.98 1034,-206.98 1034,-206.98 1034,-200.98 1040,-194.98 1046,-194.98 1046,-194.98 1097,-194.98 1097,-194.98 1103,-194.98 1109,-200.98 1109,-206.98 1109,-206.98 1109,-218.98 1109,-218.98 1109,-224.98 1103,-230.98 1097,-230.98"/>
<text text-anchor="middle" x="1071.5" y="-209.28" font-family="Helvetica,sans-Serif" font-size="14.00">base32.ts</text>
</g>
<!-- src/crypto/crypto&#45;driver&#45;chloride.ts -->
<g id="node6" class="node">
<title>src/crypto/crypto&#45;driver&#45;chloride.ts</title>
<path fill="#79cdcd" stroke="#79cdcd" d="M1138.5,-412.98C1138.5,-412.98 1004.5,-412.98 1004.5,-412.98 998.5,-412.98 992.5,-406.98 992.5,-400.98 992.5,-400.98 992.5,-388.98 992.5,-388.98 992.5,-382.98 998.5,-376.98 1004.5,-376.98 1004.5,-376.98 1138.5,-376.98 1138.5,-376.98 1144.5,-376.98 1150.5,-382.98 1150.5,-388.98 1150.5,-388.98 1150.5,-400.98 1150.5,-400.98 1150.5,-406.98 1144.5,-412.98 1138.5,-412.98"/>
<text text-anchor="middle" x="1071.5" y="-391.28" font-family="Helvetica,sans-Serif" font-size="14.00">crypto&#45;driver&#45;chloride.ts</text>
</g>
<!-- src/crypto/crypto&#45;types.ts -->
<g id="node9" class="node">
<title>src/crypto/crypto&#45;types.ts</title>
<path fill="#79cdcd" stroke="#79cdcd" d="M1283,-339.98C1283,-339.98 1203,-339.98 1203,-339.98 1197,-339.98 1191,-333.98 1191,-327.98 1191,-327.98 1191,-315.98 1191,-315.98 1191,-309.98 1197,-303.98 1203,-303.98 1203,-303.98 1283,-303.98 1283,-303.98 1289,-303.98 1295,-309.98 1295,-315.98 1295,-315.98 1295,-327.98 1295,-327.98 1295,-333.98 1289,-339.98 1283,-339.98"/>
<text text-anchor="middle" x="1243" y="-318.28" font-family="Helvetica,sans-Serif" font-size="14.00">crypto&#45;types.ts</text>
</g>
<!-- src/crypto/crypto&#45;driver&#45;chloride.ts&#45;&gt;src/crypto/crypto&#45;types.ts -->
<g id="edge3" class="edge">
<title>src/crypto/crypto&#45;driver&#45;chloride.ts&#45;&gt;src/crypto/crypto&#45;types.ts</title>
<path fill="none" stroke="#528b8b" stroke-width="2" d="M1131.99,-376.86C1139.8,-374.08 1147.65,-371.1 1155,-367.98 1170.61,-361.35 1187.2,-352.95 1201.65,-345.14"/>
<polygon fill="#528b8b" stroke="#528b8b" stroke-width="2" points="1203.72,-348 1210.81,-340.12 1200.36,-341.86 1203.72,-348"/>
</g>
<!-- src/crypto/crypto&#45;driver&#45;node.ts -->
<g id="node7" class="node">
<title>src/crypto/crypto&#45;driver&#45;node.ts</title>
<path fill="#79cdcd" stroke="#79cdcd" d="M1129.5,-358.98C1129.5,-358.98 1013.5,-358.98 1013.5,-358.98 1007.5,-358.98 1001.5,-352.98 1001.5,-346.98 1001.5,-346.98 1001.5,-334.98 1001.5,-334.98 1001.5,-328.98 1007.5,-322.98 1013.5,-322.98 1013.5,-322.98 1129.5,-322.98 1129.5,-322.98 1135.5,-322.98 1141.5,-328.98 1141.5,-334.98 1141.5,-334.98 1141.5,-346.98 1141.5,-346.98 1141.5,-352.98 1135.5,-358.98 1129.5,-358.98"/>
<text text-anchor="middle" x="1071.5" y="-337.28" font-family="Helvetica,sans-Serif" font-size="14.00">crypto&#45;driver&#45;node.ts</text>
</g>
<!-- src/crypto/crypto&#45;driver&#45;node.ts&#45;&gt;src/crypto/crypto&#45;types.ts -->
<g id="edge4" class="edge">
<title>src/crypto/crypto&#45;driver&#45;node.ts&#45;&gt;src/crypto/crypto&#45;types.ts</title>
<path fill="none" stroke="#528b8b" stroke-width="2" d="M1141.93,-333.19C1154.84,-331.75 1168.25,-330.24 1180.89,-328.83"/>
<polygon fill="#528b8b" stroke="#528b8b" stroke-width="2" points="1181.29,-332.3 1190.84,-327.71 1180.51,-325.35 1181.29,-332.3"/>
</g>
<!-- src/crypto/crypto&#45;driver&#45;tweetnacl.ts -->
<g id="node8" class="node">
<title>src/crypto/crypto&#45;driver&#45;tweetnacl.ts</title>
<path fill="#79cdcd" stroke="#79cdcd" d="M1143,-284.98C1143,-284.98 1000,-284.98 1000,-284.98 994,-284.98 988,-278.98 988,-272.98 988,-272.98 988,-260.98 988,-260.98 988,-254.98 994,-248.98 1000,-248.98 1000,-248.98 1143,-248.98 1143,-248.98 1149,-248.98 1155,-254.98 1155,-260.98 1155,-260.98 1155,-272.98 1155,-272.98 1155,-278.98 1149,-284.98 1143,-284.98"/>
<text text-anchor="middle" x="1071.5" y="-263.28" font-family="Helvetica,sans-Serif" font-size="14.00">crypto&#45;driver&#45;tweetnacl.ts</text>
</g>
<!-- src/crypto/crypto&#45;driver&#45;tweetnacl.ts&#45;&gt;src/crypto/crypto&#45;types.ts -->
<g id="edge5" class="edge">
<title>src/crypto/crypto&#45;driver&#45;tweetnacl.ts&#45;&gt;src/crypto/crypto&#45;types.ts</title>
<path fill="none" stroke="#528b8b" stroke-width="2" d="M1128,-284.99C1144.95,-290.49 1163.68,-296.56 1180.97,-302.17"/>
<polygon fill="#528b8b" stroke="#528b8b" stroke-width="2" points="1180.37,-305.66 1190.96,-305.42 1182.53,-299 1180.37,-305.66"/>
</g>
<!-- src/crypto/crypto.ts&#45;&gt;src/core&#45;validators/addresses.ts -->
<g id="edge9" class="edge">
<title>src/crypto/crypto.ts&#45;&gt;src/core&#45;validators/addresses.ts</title>
<path fill="none" stroke="#528b8b" stroke-width="2" d="M711.62,-225.68C733.87,-207.79 770.24,-181.11 806,-165.98 874.63,-136.94 959.87,-122.38 1014.72,-115.51"/>
<polygon fill="#528b8b" stroke="#528b8b" stroke-width="2" points="1015.42,-118.95 1024.93,-114.27 1014.58,-112 1015.42,-118.95"/>
</g>
<!-- src/crypto/crypto.ts&#45;&gt;src/crypto/base32.ts -->
<g id="edge7" class="edge">
<title>src/crypto/crypto.ts&#45;&gt;src/crypto/base32.ts</title>
<path fill="none" stroke="#528b8b" stroke-width="2" d="M723.1,-241.28C790.93,-235.75 945.87,-223.13 1023.85,-216.78"/>
<polygon fill="#528b8b" stroke="#528b8b" stroke-width="2" points="1024.19,-220.26 1033.88,-215.96 1023.62,-213.28 1024.19,-220.26"/>
</g>
<!-- src/crypto/crypto.ts&#45;&gt;src/crypto/crypto&#45;types.ts -->
<g id="edge6" class="edge">
<title>src/crypto/crypto.ts&#45;&gt;src/crypto/crypto&#45;types.ts</title>
<path fill="none" stroke="#528b8b" stroke-width="2" d="M710.9,-262.07C757.03,-300.66 872.69,-390.16 988,-421.98 1059.55,-441.72 1087.45,-452.74 1155,-421.98 1187.68,-407.09 1212.85,-373.19 1227.52,-348.99"/>
<polygon fill="#528b8b" stroke="#528b8b" stroke-width="2" points="1230.6,-350.65 1232.62,-340.25 1224.56,-347.12 1230.6,-350.65"/>
</g>
<!-- src/crypto/global&#45;crypto&#45;driver.ts -->
<g id="node11" class="node">
<title>src/crypto/global&#45;crypto&#45;driver.ts</title>
<path fill="#79cdcd" stroke="#79cdcd" d="M940,-284.98C940,-284.98 818,-284.98 818,-284.98 812,-284.98 806,-278.98 806,-272.98 806,-272.98 806,-260.98 806,-260.98 806,-254.98 812,-248.98 818,-248.98 818,-248.98 940,-248.98 940,-248.98 946,-248.98 952,-254.98 952,-260.98 952,-260.98 952,-272.98 952,-272.98 952,-278.98 946,-284.98 940,-284.98"/>
<text text-anchor="middle" x="879" y="-263.28" font-family="Helvetica,sans-Serif" font-size="14.00">global&#45;crypto&#45;driver.ts</text>
</g>
<!-- src/crypto/crypto.ts&#45;&gt;src/crypto/global&#45;crypto&#45;driver.ts -->
<g id="edge10" class="edge">
<title>src/crypto/crypto.ts&#45;&gt;src/crypto/global&#45;crypto&#45;driver.ts</title>
<path fill="none" stroke="#528b8b" stroke-width="2" d="M723.18,-248.04C743.37,-250.51 770.13,-253.78 795.71,-256.91"/>
<polygon fill="#528b8b" stroke="#528b8b" stroke-width="2" points="795.47,-260.41 805.82,-258.15 796.32,-253.46 795.47,-260.41"/>
</g>
<!-- src/crypto/keypair.ts -->
<g id="node12" class="node">
<title>src/crypto/keypair.ts</title>
<path fill="#79cdcd" stroke="#79cdcd" d="M904,-210.98C904,-210.98 854,-210.98 854,-210.98 848,-210.98 842,-204.98 842,-198.98 842,-198.98 842,-186.98 842,-186.98 842,-180.98 848,-174.98 854,-174.98 854,-174.98 904,-174.98 904,-174.98 910,-174.98 916,-180.98 916,-186.98 916,-186.98 916,-198.98 916,-198.98 916,-204.98 910,-210.98 904,-210.98"/>
<text text-anchor="middle" x="879" y="-189.28" font-family="Helvetica,sans-Serif" font-size="14.00">keypair.ts</text>
</g>
<!-- src/crypto/crypto.ts&#45;&gt;src/crypto/keypair.ts -->
<g id="edge8" class="edge">
<title>src/crypto/crypto.ts&#45;&gt;src/crypto/keypair.ts</title>
<path fill="none" stroke="#528b8b" stroke-width="2" d="M723.18,-234.98C753.37,-226.79 798.22,-214.62 831.89,-205.49"/>
<polygon fill="#528b8b" stroke="#528b8b" stroke-width="2" points="833.22,-208.75 841.95,-202.76 831.38,-202 833.22,-208.75"/>
</g>
<!-- src/crypto/global&#45;crypto&#45;driver.ts&#45;&gt;src/crypto/crypto&#45;driver&#45;tweetnacl.ts -->
<g id="edge11" class="edge">
<title>src/crypto/global&#45;crypto&#45;driver.ts&#45;&gt;src/crypto/crypto&#45;driver&#45;tweetnacl.ts</title>
<path fill="none" stroke="#528b8b" stroke-width="2" d="M952.02,-266.98C960.43,-266.98 969.09,-266.98 977.73,-266.98"/>
<polygon fill="#528b8b" stroke="#528b8b" stroke-width="2" points="977.83,-270.48 987.83,-266.98 977.83,-263.48 977.83,-270.48"/>
</g>
<!-- src/crypto/global&#45;crypto&#45;driver.ts&#45;&gt;src/crypto/crypto&#45;types.ts -->
<g id="edge12" class="edge">
<title>src/crypto/global&#45;crypto&#45;driver.ts&#45;&gt;src/crypto/crypto&#45;types.ts</title>
<path fill="none" stroke="#528b8b" stroke-width="2" d="M946.24,-285.03C959.97,-288.36 974.4,-291.54 988,-293.98 1023.73,-300.38 1117.57,-310.04 1180.62,-316.17"/>
<polygon fill="#528b8b" stroke="#528b8b" stroke-width="2" points="1180.56,-319.68 1190.85,-317.16 1181.24,-312.72 1180.56,-319.68"/>
</g>
<!-- src/crypto/keypair.ts&#45;&gt;src/core&#45;validators/addresses.ts -->
<g id="edge15" class="edge">
<title>src/crypto/keypair.ts&#45;&gt;src/core&#45;validators/addresses.ts</title>
<path fill="none" stroke="#528b8b" stroke-width="2" d="M916.28,-177.17C945.56,-164.41 987.1,-146.32 1019.69,-132.12"/>
<polygon fill="#528b8b" stroke="#528b8b" stroke-width="2" points="1021.29,-135.24 1029.06,-128.03 1018.49,-128.82 1021.29,-135.24"/>
</g>
<!-- src/crypto/keypair.ts&#45;&gt;src/crypto/base32.ts -->
<g id="edge13" class="edge">
<title>src/crypto/keypair.ts&#45;&gt;src/crypto/base32.ts</title>
<path fill="none" stroke="#528b8b" stroke-width="2" d="M916.28,-196.79C946.67,-199.98 990.27,-204.55 1023.36,-208.03"/>
<polygon fill="#528b8b" stroke="#528b8b" stroke-width="2" points="1023.4,-211.55 1033.71,-209.11 1024.13,-204.59 1023.4,-211.55"/>
</g>
<!-- src/crypto/keypair.ts&#45;&gt;src/crypto/crypto&#45;types.ts -->
<g id="edge14" class="edge">
<title>src/crypto/keypair.ts&#45;&gt;src/crypto/crypto&#45;types.ts</title>
<path fill="none" stroke="#528b8b" stroke-width="2" d="M916.19,-187.65C981.25,-178.79 1114.94,-164.05 1155,-185.98 1196.71,-208.81 1221.34,-261.1 1233.22,-293.78"/>
<polygon fill="#528b8b" stroke="#528b8b" stroke-width="2" points="1230.05,-295.34 1236.63,-303.64 1236.67,-293.05 1230.05,-295.34"/>
</g>
<!-- src/format&#45;validators/format&#45;validator&#45;es4.ts&#45;&gt;src/core&#45;validators/addresses.ts -->
<g id="edge26" class="edge">
<title>src/format&#45;validators/format&#45;validator&#45;es4.ts&#45;&gt;src/core&#45;validators/addresses.ts</title>
<path fill="none" stroke="#528b8b" stroke-width="2" d="M559.92,-91.92C575.5,-88.21 592.25,-84.86 608,-82.98 754.15,-65.46 927.69,-86.78 1014.78,-100.37"/>
<polygon fill="#528b8b" stroke="#528b8b" stroke-width="2" points="1014.29,-103.83 1024.71,-101.94 1015.38,-96.92 1014.29,-103.83"/>
</g>
<!-- src/format&#45;validators/format&#45;validator&#45;es4.ts&#45;&gt;src/core&#45;validators/characters.ts -->
<g id="edge24" class="edge">
<title>src/format&#45;validators/format&#45;validator&#45;es4.ts&#45;&gt;src/core&#45;validators/characters.ts</title>
<path fill="none" stroke="#528b8b" stroke-width="2" d="M522.02,-91.91C543.62,-77.4 576.28,-58.01 608,-48.98 841.96,17.68 914.47,7.49 1155,-28.98 1165.19,-30.52 1175.83,-33.03 1186.03,-35.91"/>
<polygon fill="#528b8b" stroke="#528b8b" stroke-width="2" points="1185.07,-39.27 1195.65,-38.77 1187.06,-32.56 1185.07,-39.27"/>
</g>
<!-- src/format&#45;validators/format&#45;validator&#45;es4.ts&#45;&gt;src/core&#45;validators/checkers.ts -->
<g id="edge25" class="edge">
<title>src/format&#45;validators/format&#45;validator&#45;es4.ts&#45;&gt;src/core&#45;validators/checkers.ts</title>
<path fill="none" stroke="#528b8b" stroke-width="2" d="M539.96,-91.95C560.22,-84.32 584.96,-76.22 608,-71.98 755.11,-44.87 932.87,-48.73 1018.89,-52.85"/>
<polygon fill="#528b8b" stroke="#528b8b" stroke-width="2" points="1018.75,-56.35 1028.91,-53.35 1019.1,-49.36 1018.75,-56.35"/>
</g>
<!-- src/format&#45;validators/format&#45;validator&#45;es4.ts&#45;&gt;src/crypto/crypto.ts -->
<g id="edge23" class="edge">
<title>src/format&#45;validators/format&#45;validator&#45;es4.ts&#45;&gt;src/crypto/crypto.ts</title>
<path fill="none" stroke="#528b8b" stroke-width="2" d="M572.07,-127.64C574.8,-128.98 577.45,-130.42 580,-131.98 595.85,-141.64 595.25,-149.48 608,-162.98 625.84,-181.87 646.46,-202.72 662.3,-218.54"/>
<polygon fill="#528b8b" stroke="#528b8b" stroke-width="2" points="660.1,-221.29 669.65,-225.87 665.04,-216.33 660.1,-221.29"/>
</g>
<!-- src/format&#45;validators/format&#45;validator&#45;types.ts -->
<g id="node14" class="node">
<title>src/format&#45;validators/format&#45;validator&#45;types.ts</title>
<path fill="#79cdcd" stroke="#79cdcd" d="M758,-127.98C758,-127.98 620,-127.98 620,-127.98 614,-127.98 608,-121.98 608,-115.98 608,-115.98 608,-103.98 608,-103.98 608,-97.98 614,-91.98 620,-91.98 620,-91.98 758,-91.98 758,-91.98 764,-91.98 770,-97.98 770,-103.98 770,-103.98 770,-115.98 770,-115.98 770,-121.98 764,-127.98 758,-127.98"/>
<text text-anchor="middle" x="689" y="-106.28" font-family="Helvetica,sans-Serif" font-size="14.00">format&#45;validator&#45;types.ts</text>
</g>
<!-- src/format&#45;validators/format&#45;validator&#45;es4.ts&#45;&gt;src/format&#45;validators/format&#45;validator&#45;types.ts -->
<g id="edge22" class="edge">
<title>src/format&#45;validators/format&#45;validator&#45;es4.ts&#45;&gt;src/format&#45;validators/format&#45;validator&#45;types.ts</title>
<path fill="none" stroke="#528b8b" stroke-width="2" d="M572.21,-109.98C580.62,-109.98 589.24,-109.98 597.81,-109.98"/>
<polygon fill="#528b8b" stroke="#528b8b" stroke-width="2" points="597.82,-113.48 607.82,-109.98 597.82,-106.48 597.82,-113.48"/>
</g>
<!-- src/peer/peer&#45;client.ts -->
<g id="node15" class="node">
<title>src/peer/peer&#45;client.ts</title>
<path fill="#79cdcd" stroke="#79cdcd" d="M315,-366.98C315,-366.98 245,-366.98 245,-366.98 239,-366.98 233,-360.98 233,-354.98 233,-354.98 233,-342.98 233,-342.98 233,-336.98 239,-330.98 245,-330.98 245,-330.98 315,-330.98 315,-330.98 321,-330.98 327,-336.98 327,-342.98 327,-342.98 327,-354.98 327,-354.98 327,-360.98 321,-366.98 315,-366.98"/>
<text text-anchor="middle" x="280" y="-345.28" font-family="Helvetica,sans-Serif" font-size="14.00">peer&#45;client.ts</text>
</g>
<!-- src/peer/peer&#45;types.ts -->
<g id="node17" class="node">
<title>src/peer/peer&#45;types.ts</title>
<path fill="#79cdcd" stroke="#79cdcd" d="M531.5,-393.98C531.5,-393.98 460.5,-393.98 460.5,-393.98 454.5,-393.98 448.5,-387.98 448.5,-381.98 448.5,-381.98 448.5,-369.98 448.5,-369.98 448.5,-363.98 454.5,-357.98 460.5,-357.98 460.5,-357.98 531.5,-357.98 531.5,-357.98 537.5,-357.98 543.5,-363.98 543.5,-369.98 543.5,-369.98 543.5,-381.98 543.5,-381.98 543.5,-387.98 537.5,-393.98 531.5,-393.98"/>
<text text-anchor="middle" x="496" y="-372.28" font-family="Helvetica,sans-Serif" font-size="14.00">peer&#45;types.ts</text>
</g>
<!-- src/peer/peer&#45;client.ts&#45;&gt;src/peer/peer&#45;types.ts -->
<g id="edge28" class="edge">
<title>src/peer/peer&#45;client.ts&#45;&gt;src/peer/peer&#45;types.ts</title>
<path fill="none" stroke="#528b8b" stroke-width="2" d="M327.17,-354.8C359.71,-358.91 403.5,-364.43 438.19,-368.81"/>
<polygon fill="#528b8b" stroke="#528b8b" stroke-width="2" points="437.81,-372.29 448.17,-370.07 438.69,-365.34 437.81,-372.29"/>
</g>
<!-- src/storage/compare.ts -->
<g id="node23" class="node">
<title>src/storage/compare.ts</title>
<path fill="#79cdcd" stroke="#79cdcd" d="M526,-535.98C526,-535.98 466,-535.98 466,-535.98 460,-535.98 454,-529.98 454,-523.98 454,-523.98 454,-511.98 454,-511.98 454,-505.98 460,-499.98 466,-499.98 466,-499.98 526,-499.98 526,-499.98 532,-499.98 538,-505.98 538,-511.98 538,-511.98 538,-523.98 538,-523.98 538,-529.98 532,-535.98 526,-535.98"/>
<text text-anchor="middle" x="496" y="-514.28" font-family="Helvetica,sans-Serif" font-size="14.00">compare.ts</text>
</g>
<!-- src/peer/peer&#45;client.ts&#45;&gt;src/storage/compare.ts -->
<g id="edge29" class="edge">
<title>src/peer/peer&#45;client.ts&#45;&gt;src/storage/compare.ts</title>
<path fill="none" stroke="#528b8b" stroke-width="2" d="M327.14,-351.58C346.78,-354.89 368.65,-361.81 384,-375.98 411.68,-401.52 389.72,-425.6 412,-455.98 423.03,-471.01 438.73,-484.03 453.52,-494.21"/>
<polygon fill="#528b8b" stroke="#528b8b" stroke-width="2" points="451.81,-497.27 462.08,-499.87 455.67,-491.43 451.81,-497.27"/>
</g>
<!-- src/storage/storage&#45;types.ts -->
<g id="node28" class="node">
<title>src/storage/storage&#45;types.ts</title>
<path fill="#79cdcd" stroke="#79cdcd" d="M540.5,-589.98C540.5,-589.98 451.5,-589.98 451.5,-589.98 445.5,-589.98 439.5,-583.98 439.5,-577.98 439.5,-577.98 439.5,-565.98 439.5,-565.98 439.5,-559.98 445.5,-553.98 451.5,-553.98 451.5,-553.98 540.5,-553.98 540.5,-553.98 546.5,-553.98 552.5,-559.98 552.5,-565.98 552.5,-565.98 552.5,-577.98 552.5,-577.98 552.5,-583.98 546.5,-589.98 540.5,-589.98"/>
<text text-anchor="middle" x="496" y="-568.28" font-family="Helvetica,sans-Serif" font-size="14.00">storage&#45;types.ts</text>
</g>
<!-- src/peer/peer&#45;client.ts&#45;&gt;src/storage/storage&#45;types.ts -->
<g id="edge27" class="edge">
<title>src/peer/peer&#45;client.ts&#45;&gt;src/storage/storage&#45;types.ts</title>
<path fill="none" stroke="#528b8b" stroke-width="2" d="M327.02,-350.19C347.24,-353.16 369.61,-360.2 384,-375.98 435.3,-432.24 362.36,-487.25 412,-544.98 416.96,-550.74 423.16,-555.29 429.93,-558.86"/>
<polygon fill="#528b8b" stroke="#528b8b" stroke-width="2" points="428.9,-562.24 439.45,-563.17 431.78,-555.86 428.9,-562.24"/>
</g>
<!-- src/peer/peer&#45;server.ts -->
<g id="node16" class="node">
<title>src/peer/peer&#45;server.ts</title>
<path fill="#79cdcd" stroke="#79cdcd" d="M318,-312.98C318,-312.98 242,-312.98 242,-312.98 236,-312.98 230,-306.98 230,-300.98 230,-300.98 230,-288.98 230,-288.98 230,-282.98 236,-276.98 242,-276.98 242,-276.98 318,-276.98 318,-276.98 324,-276.98 330,-282.98 330,-288.98 330,-288.98 330,-300.98 330,-300.98 330,-306.98 324,-312.98 318,-312.98"/>
<text text-anchor="middle" x="280" y="-291.28" font-family="Helvetica,sans-Serif" font-size="14.00">peer&#45;server.ts</text>
</g>
<!-- src/peer/peer&#45;server.ts&#45;&gt;src/peer/peer&#45;types.ts -->
<g id="edge30" class="edge">
<title>src/peer/peer&#45;server.ts&#45;&gt;src/peer/peer&#45;types.ts</title>
<path fill="none" stroke="#528b8b" stroke-width="2" d="M330.08,-305.75C347.35,-310.09 366.75,-315.59 384,-321.98 407.53,-330.69 432.75,-342.72 453.2,-353.22"/>
<polygon fill="#528b8b" stroke="#528b8b" stroke-width="2" points="451.74,-356.41 462.23,-357.92 454.97,-350.2 451.74,-356.41"/>
</g>
<!-- src/peer/peer&#45;types.ts&#45;&gt;src/crypto/crypto.ts -->
<g id="edge33" class="edge">
<title>src/peer/peer&#45;types.ts&#45;&gt;src/crypto/crypto.ts</title>
<path fill="none" stroke="#528b8b" stroke-width="2" d="M523.16,-357.9C556.92,-334.56 615.79,-293.88 653.27,-267.98"/>
<polygon fill="#528b8b" stroke="#528b8b" stroke-width="2" points="655.62,-270.61 661.85,-262.05 651.64,-264.85 655.62,-270.61"/>
</g>
<!-- src/query/query&#45;types.ts -->
<g id="node21" class="node">
<title>src/query/query&#45;types.ts</title>
<path fill="#79cdcd" stroke="#79cdcd" d="M727.5,-743.98C727.5,-743.98 650.5,-743.98 650.5,-743.98 644.5,-743.98 638.5,-737.98 638.5,-731.98 638.5,-731.98 638.5,-719.98 638.5,-719.98 638.5,-713.98 644.5,-707.98 650.5,-707.98 650.5,-707.98 727.5,-707.98 727.5,-707.98 733.5,-707.98 739.5,-713.98 739.5,-719.98 739.5,-719.98 739.5,-731.98 739.5,-731.98 739.5,-737.98 733.5,-743.98 727.5,-743.98"/>
<text text-anchor="middle" x="689" y="-722.28" font-family="Helvetica,sans-Serif" font-size="14.00">query&#45;types.ts</text>
</g>
<!-- src/peer/peer&#45;types.ts&#45;&gt;src/query/query&#45;types.ts -->
<g id="edge32" class="edge">
<title>src/peer/peer&#45;types.ts&#45;&gt;src/query/query&#45;types.ts</title>
<path fill="none" stroke="#528b8b" stroke-width="2" d="M519.72,-394.19C539.13,-411.13 566.05,-438.16 580,-467.98 617.48,-548.08 563.27,-588.69 608,-664.98 616.78,-679.95 630.8,-692.49 644.66,-702.23"/>
<polygon fill="#528b8b" stroke="#528b8b" stroke-width="2" points="642.97,-705.3 653.23,-707.93 646.84,-699.48 642.97,-705.3"/>
</g>
<!-- src/peer/peer&#45;types.ts&#45;&gt;src/storage/storage&#45;types.ts -->
<g id="edge31" class="edge">
<title>src/peer/peer&#45;types.ts&#45;&gt;src/storage/storage&#45;types.ts</title>
<path fill="none" stroke="#528b8b" stroke-width="2" d="M470.6,-394.1C432.82,-423.4 369.2,-483.23 398,-535.98 404.78,-548.39 416.54,-556.59 429.6,-561.98"/>
<polygon fill="#528b8b" stroke="#528b8b" stroke-width="2" points="428.7,-565.37 439.3,-565.42 431.05,-558.77 428.7,-565.37"/>
</g>
<!-- src/peer/peer.ts&#45;&gt;src/peer/peer&#45;types.ts -->
<g id="edge35" class="edge">
<title>src/peer/peer.ts&#45;&gt;src/peer/peer&#45;types.ts</title>
<path fill="none" stroke="#528b8b" stroke-width="2" d="M309.42,-399.39C342.19,-395.26 396.88,-388.36 438.42,-383.12"/>
<polygon fill="#528b8b" stroke="#528b8b" stroke-width="2" points="438.93,-386.58 448.41,-381.85 438.05,-379.63 438.93,-386.58"/>
</g>
<!-- src/peer/peer.ts&#45;&gt;src/storage/storage&#45;types.ts -->
<g id="edge34" class="edge">
<title>src/peer/peer.ts&#45;&gt;src/storage/storage&#45;types.ts</title>
<path fill="none" stroke="#528b8b" stroke-width="2" d="M309.12,-414.48C332.16,-425.21 364.1,-443.28 384,-467.98 406.85,-496.33 385.81,-519.67 412,-544.98 417.24,-550.04 423.45,-554.16 430.07,-557.5"/>
<polygon fill="#528b8b" stroke="#528b8b" stroke-width="2" points="428.74,-560.74 439.3,-561.6 431.58,-554.35 428.74,-560.74"/>
</g>
<!-- src/query&#45;follower/query&#45;follower&#45;types.ts -->
<g id="node19" class="node">
<title>src/query&#45;follower/query&#45;follower&#45;types.ts</title>
<path fill="#79cdcd" stroke="#79cdcd" d="M560,-826.98C560,-826.98 432,-826.98 432,-826.98 426,-826.98 420,-820.98 420,-814.98 420,-814.98 420,-802.98 420,-802.98 420,-796.98 426,-790.98 432,-790.98 432,-790.98 560,-790.98 560,-790.98 566,-790.98 572,-796.98 572,-802.98 572,-802.98 572,-814.98 572,-814.98 572,-820.98 566,-826.98 560,-826.98"/>
<text text-anchor="middle" x="496" y="-805.28" font-family="Helvetica,sans-Serif" font-size="14.00">query&#45;follower&#45;types.ts</text>
</g>
<!-- src/query&#45;follower/query&#45;follower&#45;types.ts&#45;&gt;src/storage/storage&#45;types.ts -->
<g id="edge36" class="edge">
<title>src/query&#45;follower/query&#45;follower&#45;types.ts&#45;&gt;src/storage/storage&#45;types.ts</title>
<path fill="none" stroke="#528b8b" stroke-width="2" d="M419.95,-791.8C410.9,-786.4 403.09,-779.3 398,-769.98 384.16,-744.62 388.98,-732.42 398,-704.98 412.04,-662.26 445.64,-621.98 469.57,-597.17"/>
<polygon fill="#528b8b" stroke="#528b8b" stroke-width="2" points="472.13,-599.57 476.66,-589.99 467.15,-594.65 472.13,-599.57"/>
</g>
<!-- src/query&#45;follower/query&#45;follower.ts&#45;&gt;src/query&#45;follower/query&#45;follower&#45;types.ts -->
<g id="edge41" class="edge">
<title>src/query&#45;follower/query&#45;follower.ts&#45;&gt;src/query&#45;follower/query&#45;follower&#45;types.ts</title>
<path fill="none" stroke="#528b8b" stroke-width="2" d="M338.07,-808.98C360.06,-808.98 385.68,-808.98 409.77,-808.98"/>
<polygon fill="#528b8b" stroke="#528b8b" stroke-width="2" points="409.98,-812.48 419.98,-808.98 409.98,-805.48 409.98,-812.48"/>
</g>
<!-- src/query&#45;follower/query&#45;follower.ts&#45;&gt;src/query/query&#45;types.ts -->
<g id="edge38" class="edge">
<title>src/query&#45;follower/query&#45;follower.ts&#45;&gt;src/query/query&#45;types.ts</title>
<path fill="none" stroke="#528b8b" stroke-width="2" d="M329.75,-826.99C390.78,-846.55 497.33,-870.66 580,-835.98 619.91,-819.23 652.5,-779.74 671.08,-752.93"/>
<polygon fill="#528b8b" stroke="#528b8b" stroke-width="2" points="674.16,-754.63 676.84,-744.38 668.35,-750.72 674.16,-754.63"/>
</g>
<!-- src/query/query.ts -->
<g id="node22" class="node">
<title>src/query/query.ts</title>
<path fill="#79cdcd" stroke="#79cdcd" d="M516,-743.98C516,-743.98 476,-743.98 476,-743.98 470,-743.98 464,-737.98 464,-731.98 464,-731.98 464,-719.98 464,-719.98 464,-713.98 470,-707.98 476,-707.98 476,-707.98 516,-707.98 516,-707.98 522,-707.98 528,-713.98 528,-719.98 528,-719.98 528,-731.98 528,-731.98 528,-737.98 522,-743.98 516,-743.98"/>
<text text-anchor="middle" x="496" y="-722.28" font-family="Helvetica,sans-Serif" font-size="14.00">query.ts</text>
</g>
<!-- src/query&#45;follower/query&#45;follower.ts&#45;&gt;src/query/query.ts -->
<g id="edge40" class="edge">
<title>src/query&#45;follower/query&#45;follower.ts&#45;&gt;src/query/query.ts</title>
<path fill="none" stroke="#528b8b" stroke-width="2" d="M327.43,-790.97C365.19,-776.32 417.94,-755.86 454.12,-741.83"/>
<polygon fill="#528b8b" stroke="#528b8b" stroke-width="2" points="455.8,-744.94 463.85,-738.06 453.26,-738.41 455.8,-744.94"/>
</g>
<!-- src/query&#45;follower/query&#45;follower.ts&#45;&gt;src/storage/storage&#45;types.ts -->
<g id="edge39" class="edge">
<title>src/query&#45;follower/query&#45;follower.ts&#45;&gt;src/storage/storage&#45;types.ts</title>
<path fill="none" stroke="#528b8b" stroke-width="2" d="M297.44,-790.77C335.17,-748.98 428.1,-646.07 471.7,-597.78"/>
<polygon fill="#528b8b" stroke="#528b8b" stroke-width="2" points="474.4,-600.01 478.51,-590.24 469.21,-595.32 474.4,-600.01"/>
</g>
<!-- src/storage/util&#45;types.ts -->
<g id="node29" class="node">
<title>src/storage/util&#45;types.ts</title>
<path fill="#79cdcd" stroke="#79cdcd" d="M719.5,-545.98C719.5,-545.98 658.5,-545.98 658.5,-545.98 652.5,-545.98 646.5,-539.98 646.5,-533.98 646.5,-533.98 646.5,-521.98 646.5,-521.98 646.5,-515.98 652.5,-509.98 658.5,-509.98 658.5,-509.98 719.5,-509.98 719.5,-509.98 725.5,-509.98 731.5,-515.98 731.5,-521.98 731.5,-521.98 731.5,-533.98 731.5,-533.98 731.5,-539.98 725.5,-545.98 719.5,-545.98"/>
<text text-anchor="middle" x="689" y="-524.28" font-family="Helvetica,sans-Serif" font-size="14.00">util&#45;types.ts</text>
</g>
<!-- src/query&#45;follower/query&#45;follower.ts&#45;&gt;src/storage/util&#45;types.ts -->
<g id="edge37" class="edge">
<title>src/query&#45;follower/query&#45;follower.ts&#45;&gt;src/storage/util&#45;types.ts</title>
<path fill="none" stroke="#528b8b" stroke-width="2" d="M299.35,-790.57C323.66,-766.81 368.58,-725.06 412,-695.98 481.53,-649.41 515.41,-664.18 580,-610.98 595.64,-598.09 592.77,-588.35 608,-574.98 618.13,-566.08 630.18,-557.98 641.82,-551.11"/>
<polygon fill="#528b8b" stroke="#528b8b" stroke-width="2" points="643.65,-554.09 650.6,-546.1 640.18,-548.01 643.65,-554.09"/>
</g>
<!-- src/query/query.ts&#45;&gt;src/query/query&#45;types.ts -->
<g id="edge42" class="edge">
<title>src/query/query.ts&#45;&gt;src/query/query&#45;types.ts</title>
<path fill="none" stroke="#528b8b" stroke-width="2" d="M528.11,-725.98C555.13,-725.98 595.01,-725.98 628.18,-725.98"/>
<polygon fill="#528b8b" stroke="#528b8b" stroke-width="2" points="628.24,-729.48 638.24,-725.98 628.24,-722.48 628.24,-729.48"/>
</g>
<!-- src/storage/compare.ts&#45;&gt;src/storage/util&#45;types.ts -->
<g id="edge43" class="edge">
<title>src/storage/compare.ts&#45;&gt;src/storage/util&#45;types.ts</title>
<path fill="none" stroke="#528b8b" stroke-width="2" d="M538.44,-520.15C567.13,-521.65 605.52,-523.66 636.22,-525.27"/>
<polygon fill="#528b8b" stroke="#528b8b" stroke-width="2" points="636.14,-528.77 646.31,-525.79 636.5,-521.78 636.14,-528.77"/>
</g>
<!-- src/storage/lock.ts -->
<g id="node24" class="node">
<title>src/storage/lock.ts</title>
<path fill="#79cdcd" stroke="#79cdcd" d="M704.5,-619.98C704.5,-619.98 673.5,-619.98 673.5,-619.98 667.5,-619.98 661.5,-613.98 661.5,-607.98 661.5,-607.98 661.5,-595.98 661.5,-595.98 661.5,-589.98 667.5,-583.98 673.5,-583.98 673.5,-583.98 704.5,-583.98 704.5,-583.98 710.5,-583.98 716.5,-589.98 716.5,-595.98 716.5,-595.98 716.5,-607.98 716.5,-607.98 716.5,-613.98 710.5,-619.98 704.5,-619.98"/>
<text text-anchor="middle" x="689" y="-598.28" font-family="Helvetica,sans-Serif" font-size="14.00">lock.ts</text>
</g>
<!-- src/storage/storage&#45;async.ts&#45;&gt;src/crypto/crypto.ts -->
<g id="edge49" class="edge">
<title>src/storage/storage&#45;async.ts&#45;&gt;src/crypto/crypto.ts</title>
<path fill="none" stroke="#528b8b" stroke-width="2" d="M338.22,-494.85C361.1,-489.84 387.73,-484.3 412,-479.98 486.26,-466.75 518.65,-499.85 580,-455.98 642.81,-411.06 671.48,-318.7 682.37,-272.13"/>
<polygon fill="#528b8b" stroke="#528b8b" stroke-width="2" points="685.85,-272.65 684.61,-262.13 679.01,-271.13 685.85,-272.65"/>
</g>
<!-- src/storage/storage&#45;async.ts&#45;&gt;src/format&#45;validators/format&#45;validator&#45;types.ts -->
<g id="edge47" class="edge">
<title>src/storage/storage&#45;async.ts&#45;&gt;src/format&#45;validators/format&#45;validator&#45;types.ts</title>
<path fill="none" stroke="#528b8b" stroke-width="2" d="M338.24,-490.71C355.46,-482.79 372.76,-471.58 384,-455.98 434.16,-386.37 363.39,-335.67 412,-264.98 459.68,-195.63 549.08,-153.78 613.22,-131.35"/>
<polygon fill="#528b8b" stroke="#528b8b" stroke-width="2" points="614.56,-134.59 622.89,-128.05 612.3,-127.97 614.56,-134.59"/>
</g>
<!-- src/storage/storage&#45;async.ts&#45;&gt;src/query/query&#45;types.ts -->
<g id="edge45" class="edge">
<title>src/storage/storage&#45;async.ts&#45;&gt;src/query/query&#45;types.ts</title>
<path fill="none" stroke="#528b8b" stroke-width="2" d="M306.12,-526.02C340.95,-550.93 400.87,-593.44 412,-598.98 482.34,-633.98 509.33,-619.65 580,-653.98 607.26,-667.22 635.68,-686.41 656.52,-701.66"/>
<polygon fill="#528b8b" stroke="#528b8b" stroke-width="2" points="654.56,-704.56 664.68,-707.71 658.73,-698.94 654.56,-704.56"/>
</g>
<!-- src/storage/storage&#45;async.ts&#45;&gt;src/storage/compare.ts -->
<g id="edge48" class="edge">
<title>src/storage/storage&#45;async.ts&#45;&gt;src/storage/compare.ts</title>
<path fill="none" stroke="#528b8b" stroke-width="2" d="M338.07,-510.64C370.91,-512.18 411.85,-514.09 443.68,-515.58"/>
<polygon fill="#528b8b" stroke="#528b8b" stroke-width="2" points="443.52,-519.07 453.67,-516.05 443.85,-512.08 443.52,-519.07"/>
</g>
<!-- src/storage/storage&#45;async.ts&#45;&gt;src/storage/storage&#45;types.ts -->
<g id="edge46" class="edge">
<title>src/storage/storage&#45;async.ts&#45;&gt;src/storage/storage&#45;types.ts</title>
<path fill="none" stroke="#528b8b" stroke-width="2" d="M338.07,-525.04C366.21,-533.46 400.3,-543.65 429.5,-552.39"/>
<polygon fill="#528b8b" stroke="#528b8b" stroke-width="2" points="428.62,-555.78 439.2,-555.29 430.62,-549.07 428.62,-555.78"/>
</g>
<!-- src/storage/storage&#45;async.ts&#45;&gt;src/storage/util&#45;types.ts -->
<g id="edge44" class="edge">
<title>src/storage/storage&#45;async.ts&#45;&gt;src/storage/util&#45;types.ts</title>
<path fill="none" stroke="#528b8b" stroke-width="2" d="M338.17,-497.28C398.65,-487.69 496.66,-477.1 580,-490.98 598.97,-494.14 619.08,-500.22 636.73,-506.55"/>
<polygon fill="#528b8b" stroke="#528b8b" stroke-width="2" points="635.67,-509.89 646.26,-510.08 638.1,-503.32 635.67,-509.89"/>
</g>
<!-- src/storage/storage&#45;cache.ts -->
<g id="node26" class="node">
<title>src/storage/storage&#45;cache.ts</title>
<path fill="#79cdcd" stroke="#79cdcd" d="M128,-609.98C128,-609.98 36,-609.98 36,-609.98 30,-609.98 24,-603.98 24,-597.98 24,-597.98 24,-585.98 24,-585.98 24,-579.98 30,-573.98 36,-573.98 36,-573.98 128,-573.98 128,-573.98 134,-573.98 140,-579.98 140,-585.98 140,-585.98 140,-597.98 140,-597.98 140,-603.98 134,-609.98 128,-609.98"/>
<text text-anchor="middle" x="82" y="-588.28" font-family="Helvetica,sans-Serif" font-size="14.00">storage&#45;cache.ts</text>
</g>
<!-- src/storage/storage&#45;cache.ts&#45;&gt;src/crypto/crypto.ts -->
<g id="edge55" class="edge">
<title>src/storage/storage&#45;cache.ts&#45;&gt;src/crypto/crypto.ts</title>
<path fill="none" stroke="#528b8b" stroke-width="2" d="M136.62,-573.76C137.83,-572.58 138.96,-571.32 140,-569.98 181.84,-516.06 125.67,-311.07 176,-264.98 192.56,-249.81 557.58,-254.24 580,-252.98 601.34,-251.77 625,-249.86 644.73,-248.11"/>
<polygon fill="#528b8b" stroke="#528b8b" stroke-width="2" points="645.3,-251.58 654.94,-247.19 644.67,-244.61 645.3,-251.58"/>
</g>
<!-- src/storage/storage&#45;cache.ts&#45;&gt;src/query&#45;follower/query&#45;follower.ts -->
<g id="edge51" class="edge">
<title>src/storage/storage&#45;cache.ts&#45;&gt;src/query&#45;follower/query&#45;follower.ts</title>
<path fill="none" stroke="#528b8b" stroke-width="2" d="M99.37,-610.1C134.18,-648.64 215.61,-738.79 255.77,-783.25"/>
<polygon fill="#528b8b" stroke="#528b8b" stroke-width="2" points="253.23,-785.67 262.54,-790.75 258.43,-780.98 253.23,-785.67"/>
</g>
<!-- src/storage/storage&#45;cache.ts&#45;&gt;src/query/query&#45;types.ts -->
<g id="edge52" class="edge">
<title>src/storage/storage&#45;cache.ts&#45;&gt;src/query/query&#45;types.ts</title>
<path fill="none" stroke="#528b8b" stroke-width="2" d="M82.73,-610.21C83.08,-660.6 91.84,-801.95 176,-861.98 322.18,-966.24 418.31,-940.05 580,-861.98 626.46,-839.54 659.06,-786.34 675.57,-753.52"/>
<polygon fill="#528b8b" stroke="#528b8b" stroke-width="2" points="678.76,-754.97 679.99,-744.45 672.47,-751.91 678.76,-754.97"/>
</g>
<!-- src/storage/storage&#45;cache.ts&#45;&gt;src/query/query.ts -->
<g id="edge50" class="edge">
<title>src/storage/storage&#45;cache.ts&#45;&gt;src/query/query.ts</title>
<path fill="none" stroke="#528b8b" stroke-width="2" d="M117.73,-610.1C134.96,-618.66 156.26,-628.58 176,-635.98 273.29,-672.43 392.03,-702.23 453.56,-716.63"/>
<polygon fill="#528b8b" stroke="#528b8b" stroke-width="2" points="453.12,-720.12 463.65,-718.97 454.7,-713.3 453.12,-720.12"/>
</g>
<!-- src/storage/storage&#45;cache.ts&#45;&gt;src/storage/storage&#45;async.ts -->
<g id="edge53" class="edge">
<title>src/storage/storage&#45;cache.ts&#45;&gt;src/storage/storage&#45;async.ts</title>
<path fill="none" stroke="#528b8b" stroke-width="2" d="M130.35,-573.91C133.62,-572.6 136.87,-571.28 140,-569.98 170.45,-557.32 204.24,-542.27 230.88,-530.17"/>
<polygon fill="#528b8b" stroke="#528b8b" stroke-width="2" points="232.34,-533.35 239.99,-526.02 229.44,-526.98 232.34,-533.35"/>
</g>
<!-- src/storage/storage&#45;cache.ts&#45;&gt;src/storage/storage&#45;types.ts -->
<g id="edge54" class="edge">
<title>src/storage/storage&#45;cache.ts&#45;&gt;src/storage/storage&#45;types.ts</title>
<path fill="none" stroke="#528b8b" stroke-width="2" d="M140.49,-585.11C152.22,-583.9 164.5,-582.77 176,-581.98 263.49,-575.91 364.74,-573.52 429.29,-572.58"/>
<polygon fill="#528b8b" stroke="#528b8b" stroke-width="2" points="429.38,-576.08 439.33,-572.44 429.28,-569.08 429.38,-576.08"/>
</g>
<!-- src/storage/storage&#45;driver&#45;async&#45;memory.ts&#45;&gt;src/query/query&#45;types.ts -->
<g id="edge57" class="edge">
<title>src/storage/storage&#45;driver&#45;async&#45;memory.ts&#45;&gt;src/query/query&#45;types.ts</title>
<path fill="none" stroke="#528b8b" stroke-width="2" d="M330.79,-627.07C355.13,-635.67 384.95,-645.81 412,-653.98 452.22,-666.11 560.35,-693.78 628.71,-711.07"/>
<polygon fill="#528b8b" stroke="#528b8b" stroke-width="2" points="627.95,-714.49 638.5,-713.54 629.66,-707.7 627.95,-714.49"/>
</g>
<!-- src/storage/storage&#45;driver&#45;async&#45;memory.ts&#45;&gt;src/query/query.ts -->
<g id="edge60" class="edge">
<title>src/storage/storage&#45;driver&#45;async&#45;memory.ts&#45;&gt;src/query/query.ts</title>
<path fill="none" stroke="#528b8b" stroke-width="2" d="M305.67,-627.21C331.33,-645.63 373.12,-674.14 412,-693.98 425.39,-700.81 440.61,-707.07 454.32,-712.21"/>
<polygon fill="#528b8b" stroke="#528b8b" stroke-width="2" points="453.39,-715.6 463.99,-715.75 455.8,-709.03 453.39,-715.6"/>
</g>
<!-- src/storage/storage&#45;driver&#45;async&#45;memory.ts&#45;&gt;src/storage/compare.ts -->
<g id="edge59" class="edge">
<title>src/storage/storage&#45;driver&#45;async&#45;memory.ts&#45;&gt;src/storage/compare.ts</title>
<path fill="none" stroke="#528b8b" stroke-width="2" d="M314.61,-590.94C340.73,-577.32 378.09,-558.7 412,-544.98 422.22,-540.84 433.33,-536.88 444,-533.32"/>
<polygon fill="#528b8b" stroke="#528b8b" stroke-width="2" points="445.22,-536.6 453.64,-530.17 443.05,-529.95 445.22,-536.6"/>
</g>
<!-- src/storage/storage&#45;driver&#45;async&#45;memory.ts&#45;&gt;src/storage/lock.ts -->
<g id="edge61" class="edge">
<title>src/storage/storage&#45;driver&#45;async&#45;memory.ts&#45;&gt;src/storage/lock.ts</title>
<path fill="none" stroke="#528b8b" stroke-width="2" d="M384.16,-614.36C441.81,-616.45 514.94,-617.58 580,-613.98 603.85,-612.66 630.52,-609.71 651.4,-607.06"/>
<polygon fill="#528b8b" stroke="#528b8b" stroke-width="2" points="651.97,-610.52 661.44,-605.76 651.07,-603.58 651.97,-610.52"/>
</g>
<!-- src/storage/storage&#45;driver&#45;async&#45;memory.ts&#45;&gt;src/storage/storage&#45;types.ts -->
<g id="edge58" class="edge">
<title>src/storage/storage&#45;driver&#45;async&#45;memory.ts&#45;&gt;src/storage/storage&#45;types.ts</title>
<path fill="none" stroke="#528b8b" stroke-width="2" d="M384.24,-591.13C399.55,-588.48 414.96,-585.82 429.22,-583.35"/>
<polygon fill="#528b8b" stroke="#528b8b" stroke-width="2" points="430.12,-586.75 439.38,-581.59 428.93,-579.85 430.12,-586.75"/>
</g>
<!-- src/storage/storage&#45;driver&#45;async&#45;memory.ts&#45;&gt;src/storage/util&#45;types.ts -->
<g id="edge56" class="edge">
<title>src/storage/storage&#45;driver&#45;async&#45;memory.ts&#45;&gt;src/storage/util&#45;types.ts</title>
<path fill="none" stroke="#528b8b" stroke-width="2" d="M384.11,-612.72C456.15,-613.98 545.39,-612.44 580,-598.98 595.28,-593.03 594.66,-584.5 608,-574.98 619.71,-566.62 632.99,-558.37 645.31,-551.17"/>
<polygon fill="#528b8b" stroke="#528b8b" stroke-width="2" points="647.16,-554.15 654.09,-546.13 643.67,-548.08 647.16,-554.15"/>
</g>
<!-- src/storage/storage&#45;types.ts&#45;&gt;src/format&#45;validators/format&#45;validator&#45;types.ts -->
<g id="edge63" class="edge">
<title>src/storage/storage&#45;types.ts&#45;&gt;src/format&#45;validators/format&#45;validator&#45;types.ts</title>
<path fill="none" stroke="#528b8b" stroke-width="2" d="M552.72,-563.82C563.23,-559.78 573.08,-553.8 580,-544.98 632.5,-477.98 565.01,-236.44 608,-162.98 615.04,-150.94 626.03,-141.11 637.63,-133.33"/>
<polygon fill="#528b8b" stroke="#528b8b" stroke-width="2" points="639.5,-136.29 646.14,-128.03 635.8,-130.35 639.5,-136.29"/>
</g>
<!-- src/storage/storage&#45;types.ts&#45;&gt;src/query/query&#45;types.ts -->
<g id="edge62" class="edge">
<title>src/storage/storage&#45;types.ts&#45;&gt;src/query/query&#45;types.ts</title>
<path fill="none" stroke="#528b8b" stroke-width="2" d="M518.04,-590.1C540.19,-609.06 576.19,-639.54 608,-664.98 623.4,-677.28 640.76,-690.6 655.37,-701.63"/>
<polygon fill="#528b8b" stroke="#528b8b" stroke-width="2" points="653.53,-704.62 663.62,-707.84 657.74,-699.03 653.53,-704.62"/>
</g>
<!-- src/storage/storage&#45;types.ts&#45;&gt;src/storage/lock.ts -->
<g id="edge64" class="edge">
<title>src/storage/storage&#45;types.ts&#45;&gt;src/storage/lock.ts</title>
<path fill="none" stroke="#528b8b" stroke-width="2" d="M552.5,-580.69C584.24,-585.68 623.18,-591.8 651.16,-596.19"/>
<polygon fill="#528b8b" stroke="#528b8b" stroke-width="2" points="650.88,-599.69 661.3,-597.78 651.97,-592.77 650.88,-599.69"/>
</g>
</g>
</svg>
