<?xml version="1.0" encoding="UTF-8" standalone="no"?>
<!DOCTYPE svg PUBLIC "-//W3C//DTD SVG 1.1//EN"
 "http://www.w3.org/Graphics/SVG/1.1/DTD/svg11.dtd">
<!-- Generated by graphviz version 2.44.1 (20200629.0846)
 -->
<!-- Title: G Pages: 1 -->
<svg width="439pt" height="238pt"
 viewBox="0.00 0.00 438.50 238.00" xmlns="http://www.w3.org/2000/svg" xmlns:xlink="http://www.w3.org/1999/xlink">
<g id="graph0" class="graph" transform="scale(1 1) rotate(0) translate(4 234)">
<title>G</title>
<polygon fill="white" stroke="transparent" points="-4,4 -4,-234 434.5,-234 434.5,4 -4,4"/>
<g id="clust1" class="cluster">
<title>cluster5430435735</title>
<path fill="none" stroke="#8b7d6b" stroke-width="2" d="M20,-8C20,-8 410.5,-8 410.5,-8 416.5,-8 422.5,-14 422.5,-20 422.5,-20 422.5,-210 422.5,-210 422.5,-216 416.5,-222 410.5,-222 410.5,-222 20,-222 20,-222 14,-222 8,-216 8,-210 8,-210 8,-20 8,-20 8,-14 14,-8 20,-8"/>
<text text-anchor="start" x="204.75" y="-207.8" font-family="Helvetica,sans-Serif" font-weight="bold" font-size="14.00">src</text>
</g>
<g id="clust2" class="cluster">
<title>cluster2012074250</title>
<path fill="bisque" stroke="#8b7d6b" stroke-width="2" d="M117,-62C117,-62 307,-62 307,-62 313,-62 319,-68 319,-74 319,-74 319,-179 319,-179 319,-185 313,-191 307,-191 307,-191 117,-191 117,-191 111,-191 105,-185 105,-179 105,-179 105,-74 105,-74 105,-68 111,-62 117,-62"/>
<text text-anchor="start" x="187.5" y="-176.8" font-family="Helvetica,sans-Serif" font-weight="bold" font-size="14.00">storage</text>
</g>
<g id="clust3" class="cluster">
<title>cluster3984700285</title>
<path fill="bisque" stroke="#8b7d6b" stroke-width="2" d="M355.5,-116C355.5,-116 402.5,-116 402.5,-116 408.5,-116 414.5,-122 414.5,-128 414.5,-128 414.5,-179 414.5,-179 414.5,-185 408.5,-191 402.5,-191 402.5,-191 355.5,-191 355.5,-191 349.5,-191 343.5,-185 343.5,-179 343.5,-179 343.5,-128 343.5,-128 343.5,-122 349.5,-116 355.5,-116"/>
<text text-anchor="start" x="368.5" y="-176.8" font-family="Helvetica,sans-Serif" font-weight="bold" font-size="14.00">util</text>
</g>
<!-- src/doc.ts -->
<g id="node1" class="node">
<title>src/doc.ts</title>
<path fill="#79cdcd" stroke="#79cdcd" d="M394,-52C394,-52 364,-52 364,-52 358,-52 352,-46 352,-40 352,-40 352,-28 352,-28 352,-22 358,-16 364,-16 364,-16 394,-16 394,-16 400,-16 406,-22 406,-28 406,-28 406,-40 406,-40 406,-46 400,-52 394,-52"/>
<text text-anchor="middle" x="379" y="-30.3" font-family="Helvetica,sans-Serif" font-size="14.00">doc.ts</text>
</g>
<!-- src/follower.ts -->
<g id="node2" class="node">
<title>src/follower.ts</title>
<path fill="#79cdcd" stroke="#79cdcd" d="M238.5,-52C238.5,-52 185.5,-52 185.5,-52 179.5,-52 173.5,-46 173.5,-40 173.5,-40 173.5,-28 173.5,-28 173.5,-22 179.5,-16 185.5,-16 185.5,-16 238.5,-16 238.5,-16 244.5,-16 250.5,-22 250.5,-28 250.5,-28 250.5,-40 250.5,-40 250.5,-46 244.5,-52 238.5,-52"/>
<text text-anchor="middle" x="212" y="-30.3" font-family="Helvetica,sans-Serif" font-size="14.00">follower.ts</text>
</g>
<!-- src/main.ts -->
<g id="node3" class="node">
<title>src/main.ts</title>
<path fill="#79cdcd" stroke="#79cdcd" d="M65,-106C65,-106 28,-106 28,-106 22,-106 16,-100 16,-94 16,-94 16,-82 16,-82 16,-76 22,-70 28,-70 28,-70 65,-70 65,-70 71,-70 77,-76 77,-82 77,-82 77,-94 77,-94 77,-100 71,-106 65,-106"/>
<text text-anchor="middle" x="46.5" y="-84.3" font-family="Helvetica,sans-Serif" font-size="14.00">main.ts</text>
</g>
<!-- src/main.ts&#45;&gt;src/follower.ts -->
<g id="edge1" class="edge">
<title>src/main.ts&#45;&gt;src/follower.ts</title>
<path fill="none" stroke="#528b8b" stroke-width="2" d="M77.27,-70.61C86,-66.03 95.7,-61.41 105,-58 123.53,-51.2 144.62,-45.95 163.08,-42.12"/>
<polygon fill="#528b8b" stroke="#528b8b" stroke-width="2" points="163.91,-45.52 173.04,-40.13 162.54,-38.65 163.91,-45.52"/>
</g>
<!-- src/storage/storageAsync.ts -->
<g id="node5" class="node">
<title>src/storage/storageAsync.ts</title>
<path fill="#79cdcd" stroke="#79cdcd" d="M256.5,-106C256.5,-106 167.5,-106 167.5,-106 161.5,-106 155.5,-100 155.5,-94 155.5,-94 155.5,-82 155.5,-82 155.5,-76 161.5,-70 167.5,-70 167.5,-70 256.5,-70 256.5,-70 262.5,-70 268.5,-76 268.5,-82 268.5,-82 268.5,-94 268.5,-94 268.5,-100 262.5,-106 256.5,-106"/>
<text text-anchor="middle" x="212" y="-84.3" font-family="Helvetica,sans-Serif" font-size="14.00">storageAsync.ts</text>
</g>
<!-- src/main.ts&#45;&gt;src/storage/storageAsync.ts -->
<g id="edge3" class="edge">
<title>src/main.ts&#45;&gt;src/storage/storageAsync.ts</title>
<path fill="none" stroke="#528b8b" stroke-width="2" d="M77.11,-88C96.19,-88 121.78,-88 145.48,-88"/>
<polygon fill="#528b8b" stroke="#528b8b" stroke-width="2" points="145.49,-91.5 155.49,-88 145.49,-84.5 145.49,-91.5"/>
</g>
<!-- src/storage/storageDriverAsyncMemory.ts -->
<g id="node6" class="node">
<title>src/storage/storageDriverAsyncMemory.ts</title>
<path fill="#79cdcd" stroke="#79cdcd" d="M299,-160C299,-160 125,-160 125,-160 119,-160 113,-154 113,-148 113,-148 113,-136 113,-136 113,-130 119,-124 125,-124 125,-124 299,-124 299,-124 305,-124 311,-130 311,-136 311,-136 311,-148 311,-148 311,-154 305,-160 299,-160"/>
<text text-anchor="middle" x="212" y="-138.3" font-family="Helvetica,sans-Serif" font-size="14.00">storageDriverAsyncMemory.ts</text>
</g>
<!-- src/main.ts&#45;&gt;src/storage/storageDriverAsyncMemory.ts -->
<g id="edge2" class="edge">
<title>src/main.ts&#45;&gt;src/storage/storageDriverAsyncMemory.ts</title>
<path fill="none" stroke="#528b8b" stroke-width="2" d="M77.19,-103.25C86,-107.42 95.76,-111.69 105,-115 110.92,-117.12 117.09,-119.15 123.34,-121.07"/>
<polygon fill="#528b8b" stroke="#528b8b" stroke-width="2" points="122.62,-124.51 133.2,-123.99 124.61,-117.79 122.62,-124.51"/>
</g>
<!-- src/query.ts -->
<g id="node4" class="node">
<title>src/query.ts</title>
<path fill="#79cdcd" stroke="#79cdcd" d="M399,-106C399,-106 359,-106 359,-106 353,-106 347,-100 347,-94 347,-94 347,-82 347,-82 347,-76 353,-70 359,-70 359,-70 399,-70 399,-70 405,-70 411,-76 411,-82 411,-82 411,-94 411,-94 411,-100 405,-106 399,-106"/>
<text text-anchor="middle" x="379" y="-84.3" font-family="Helvetica,sans-Serif" font-size="14.00">query.ts</text>
</g>
<!-- src/storage/storageAsync.ts&#45;&gt;src/doc.ts -->
<g id="edge4" class="edge">
<title>src/storage/storageAsync.ts&#45;&gt;src/doc.ts</title>
<path fill="none" stroke="#528b8b" stroke-width="2" d="M268.6,-79.63C285.1,-76.31 303.03,-71.85 319,-66 326.94,-63.1 335.11,-59.27 342.75,-55.28"/>
<polygon fill="#528b8b" stroke="#528b8b" stroke-width="2" points="344.64,-58.23 351.75,-50.37 341.3,-52.08 344.64,-58.23"/>
</g>
<!-- src/storage/storageDriverAsyncMemory.ts&#45;&gt;src/doc.ts -->
<g id="edge5" class="edge">
<title>src/storage/storageDriverAsyncMemory.ts&#45;&gt;src/doc.ts</title>
<path fill="none" stroke="#528b8b" stroke-width="2" d="M306.02,-123.88C310.63,-121.3 315,-118.35 319,-115 339.21,-98.08 327.21,-81.72 343.5,-61 343.88,-60.51 344.27,-60.03 344.68,-59.55"/>
<polygon fill="#528b8b" stroke="#528b8b" stroke-width="2" points="347.38,-61.79 351.85,-52.19 342.37,-56.91 347.38,-61.79"/>
</g>
<!-- src/storage/storageDriverAsyncMemory.ts&#45;&gt;src/query.ts -->
<g id="edge6" class="edge">
<title>src/storage/storageDriverAsyncMemory.ts&#45;&gt;src/query.ts</title>
<path fill="none" stroke="#528b8b" stroke-width="2" d="M290.49,-123.99C300.17,-121.23 309.87,-118.22 319,-115 325.06,-112.86 331.36,-110.33 337.48,-107.69"/>
<polygon fill="#528b8b" stroke="#528b8b" stroke-width="2" points="339.18,-110.77 346.89,-103.5 336.33,-104.37 339.18,-110.77"/>
</g>
<!-- src/util/lock.ts -->
<g id="node7" class="node">
<title>src/util/lock.ts</title>
<path fill="#79cdcd" stroke="#79cdcd" d="M394.5,-160C394.5,-160 363.5,-160 363.5,-160 357.5,-160 351.5,-154 351.5,-148 351.5,-148 351.5,-136 351.5,-136 351.5,-130 357.5,-124 363.5,-124 363.5,-124 394.5,-124 394.5,-124 400.5,-124 406.5,-130 406.5,-136 406.5,-136 406.5,-148 406.5,-148 406.5,-154 400.5,-160 394.5,-160"/>
<text text-anchor="middle" x="379" y="-138.3" font-family="Helvetica,sans-Serif" font-size="14.00">lock.ts</text>
</g>
<!-- src/storage/storageDriverAsyncMemory.ts&#45;&gt;src/util/lock.ts -->
<g id="edge7" class="edge">
<title>src/storage/storageDriverAsyncMemory.ts&#45;&gt;src/util/lock.ts</title>
<path fill="none" stroke="#528b8b" stroke-width="2" d="M311.36,-142C321.88,-142 332.04,-142 341.12,-142"/>
<polygon fill="#528b8b" stroke="#528b8b" stroke-width="2" points="341.25,-145.5 351.25,-142 341.25,-138.5 341.25,-145.5"/>
</g>
</g>
</svg>
