<?xml version="1.0" encoding="UTF-8" standalone="no"?>
<!DOCTYPE svg PUBLIC "-//W3C//DTD SVG 1.1//EN"
 "http://www.w3.org/Graphics/SVG/1.1/DTD/svg11.dtd">
<!-- Generated by graphviz version 2.44.1 (20200629.0846)
 -->
<!-- Title: G Pages: 1 -->
<svg width="1691pt" height="1223pt"
 viewBox="0.00 0.00 1691.00 1223.29" xmlns="http://www.w3.org/2000/svg" xmlns:xlink="http://www.w3.org/1999/xlink">
<g id="graph0" class="graph" transform="scale(1 1) rotate(0) translate(4 1219.29)">
<title>G</title>
<polygon fill="white" stroke="transparent" points="-4,4 -4,-1219.29 1687,-1219.29 1687,4 -4,4"/>
<!-- src/example&#45;app.ts -->
<g id="node1" class="node">
<title>src/example&#45;app.ts</title>
<path fill="#79cdcd" stroke="#79cdcd" d="M147,-738.4C147,-738.4 40,-738.4 40,-738.4 34,-738.4 28,-732.4 28,-726.4 28,-726.4 28,-714.4 28,-714.4 28,-708.4 34,-702.4 40,-702.4 40,-702.4 147,-702.4 147,-702.4 153,-702.4 159,-708.4 159,-714.4 159,-714.4 159,-726.4 159,-726.4 159,-732.4 153,-738.4 147,-738.4"/>
<text text-anchor="middle" x="93.5" y="-716.7" font-family="Helvetica,sans-Serif" font-size="14.00">src/example&#45;app.ts</text>
</g>
<!-- src/crypto/crypto&#45;driver&#45;tweetnacl.ts -->
<g id="node8" class="node">
<title>src/crypto/crypto&#45;driver&#45;tweetnacl.ts</title>
<path fill="#79cdcd" stroke="#79cdcd" d="M1078,-994.4C1078,-994.4 872,-994.4 872,-994.4 866,-994.4 860,-988.4 860,-982.4 860,-982.4 860,-970.4 860,-970.4 860,-964.4 866,-958.4 872,-958.4 872,-958.4 1078,-958.4 1078,-958.4 1084,-958.4 1090,-964.4 1090,-970.4 1090,-970.4 1090,-982.4 1090,-982.4 1090,-988.4 1084,-994.4 1078,-994.4"/>
<text text-anchor="middle" x="975" y="-972.7" font-family="Helvetica,sans-Serif" font-size="14.00">src/crypto/crypto&#45;driver&#45;tweetnacl.ts</text>
</g>
<!-- src/example&#45;app.ts&#45;&gt;src/crypto/crypto&#45;driver&#45;tweetnacl.ts -->
<g id="edge17" class="edge">
<title>src/example&#45;app.ts&#45;&gt;src/crypto/crypto&#45;driver&#45;tweetnacl.ts</title>
<path fill="none" stroke="#528b8b" stroke-width="2" d="M108.93,-738.66C130.68,-764.81 174.51,-812.42 223,-836.4 427.16,-937.38 695.36,-965.88 849.81,-973.7"/>
<polygon fill="#528b8b" stroke="#528b8b" stroke-width="2" points="849.66,-977.2 859.81,-974.19 850,-970.21 849.66,-977.2"/>
</g>
<!-- src/crypto/crypto.ts -->
<g id="node10" class="node">
<title>src/crypto/crypto.ts</title>
<path fill="#79cdcd" stroke="#79cdcd" d="M721.5,-860.4C721.5,-860.4 615.5,-860.4 615.5,-860.4 609.5,-860.4 603.5,-854.4 603.5,-848.4 603.5,-848.4 603.5,-836.4 603.5,-836.4 603.5,-830.4 609.5,-824.4 615.5,-824.4 615.5,-824.4 721.5,-824.4 721.5,-824.4 727.5,-824.4 733.5,-830.4 733.5,-836.4 733.5,-836.4 733.5,-848.4 733.5,-848.4 733.5,-854.4 727.5,-860.4 721.5,-860.4"/>
<text text-anchor="middle" x="668.5" y="-838.7" font-family="Helvetica,sans-Serif" font-size="14.00">src/crypto/crypto.ts</text>
</g>
<!-- src/example&#45;app.ts&#45;&gt;src/crypto/crypto.ts -->
<g id="edge16" class="edge">
<title>src/example&#45;app.ts&#45;&gt;src/crypto/crypto.ts</title>
<path fill="none" stroke="#528b8b" stroke-width="2" d="M116.05,-738.53C140.32,-757.81 181.8,-787.42 223,-801.4 347.9,-843.79 503.18,-847.94 593.25,-845.96"/>
<polygon fill="#528b8b" stroke="#528b8b" stroke-width="2" points="593.46,-849.46 603.37,-845.71 593.29,-842.46 593.46,-849.46"/>
</g>
<!-- src/format&#45;validators/format&#45;validator&#45;es4.ts -->
<g id="node12" class="node">
<title>src/format&#45;validators/format&#45;validator&#45;es4.ts</title>
<path fill="#79cdcd" stroke="#79cdcd" d="M1102,-1121.4C1102,-1121.4 848,-1121.4 848,-1121.4 842,-1121.4 836,-1115.4 836,-1109.4 836,-1109.4 836,-1097.4 836,-1097.4 836,-1091.4 842,-1085.4 848,-1085.4 848,-1085.4 1102,-1085.4 1102,-1085.4 1108,-1085.4 1114,-1091.4 1114,-1097.4 1114,-1097.4 1114,-1109.4 1114,-1109.4 1114,-1115.4 1108,-1121.4 1102,-1121.4"/>
<text text-anchor="middle" x="975" y="-1099.7" font-family="Helvetica,sans-Serif" font-size="14.00">src/format&#45;validators/format&#45;validator&#45;es4.ts</text>
</g>
<!-- src/example&#45;app.ts&#45;&gt;src/format&#45;validators/format&#45;validator&#45;es4.ts -->
<g id="edge13" class="edge">
<title>src/example&#45;app.ts&#45;&gt;src/format&#45;validators/format&#45;validator&#45;es4.ts</title>
<path fill="none" stroke="#528b8b" stroke-width="2" d="M102.74,-738.64C119.83,-774.39 162.65,-853.78 223,-895.4 406.53,-1021.99 664.99,-1071.8 825.85,-1091.22"/>
<polygon fill="#528b8b" stroke="#528b8b" stroke-width="2" points="825.48,-1094.7 835.82,-1092.4 826.31,-1087.75 825.48,-1094.7"/>
</g>
<!-- src/peer/peer.ts -->
<g id="node17" class="node">
<title>src/peer/peer.ts</title>
<path fill="#79cdcd" stroke="#79cdcd" d="M405,-738.4C405,-738.4 319,-738.4 319,-738.4 313,-738.4 307,-732.4 307,-726.4 307,-726.4 307,-714.4 307,-714.4 307,-708.4 313,-702.4 319,-702.4 319,-702.4 405,-702.4 405,-702.4 411,-702.4 417,-708.4 417,-714.4 417,-714.4 417,-726.4 417,-726.4 417,-732.4 411,-738.4 405,-738.4"/>
<text text-anchor="middle" x="362" y="-716.7" font-family="Helvetica,sans-Serif" font-size="14.00">src/peer/peer.ts</text>
</g>
<!-- src/example&#45;app.ts&#45;&gt;src/peer/peer.ts -->
<g id="edge19" class="edge">
<title>src/example&#45;app.ts&#45;&gt;src/peer/peer.ts</title>
<path fill="none" stroke="#528b8b" stroke-width="2" d="M159.01,-720.4C200.85,-720.4 255.14,-720.4 296.9,-720.4"/>
<polygon fill="#528b8b" stroke="#528b8b" stroke-width="2" points="296.96,-723.9 306.96,-720.4 296.96,-716.9 296.96,-723.9"/>
</g>
<!-- src/query&#45;follower/query&#45;follower.ts -->
<g id="node19" class="node">
<title>src/query&#45;follower/query&#45;follower.ts</title>
<path fill="#79cdcd" stroke="#79cdcd" d="M463,-174.4C463,-174.4 261,-174.4 261,-174.4 255,-174.4 249,-168.4 249,-162.4 249,-162.4 249,-150.4 249,-150.4 249,-144.4 255,-138.4 261,-138.4 261,-138.4 463,-138.4 463,-138.4 469,-138.4 475,-144.4 475,-150.4 475,-150.4 475,-162.4 475,-162.4 475,-168.4 469,-174.4 463,-174.4"/>
<text text-anchor="middle" x="362" y="-152.7" font-family="Helvetica,sans-Serif" font-size="14.00">src/query&#45;follower/query&#45;follower.ts</text>
</g>
<!-- src/example&#45;app.ts&#45;&gt;src/query&#45;follower/query&#45;follower.ts -->
<g id="edge18" class="edge">
<title>src/example&#45;app.ts&#45;&gt;src/query&#45;follower/query&#45;follower.ts</title>
<path fill="none" stroke="#528b8b" stroke-width="2" d="M99.76,-702.15C115.21,-649.59 163.19,-493.97 223,-373.4 258.88,-301.08 312.92,-222.66 341.57,-182.84"/>
<polygon fill="#528b8b" stroke="#528b8b" stroke-width="2" points="344.59,-184.64 347.62,-174.49 338.92,-180.54 344.59,-184.64"/>
</g>
<!-- src/storage/storage&#45;async.ts -->
<g id="node24" class="node">
<title>src/storage/storage&#45;async.ts</title>
<path fill="#79cdcd" stroke="#79cdcd" d="M443,-540.4C443,-540.4 281,-540.4 281,-540.4 275,-540.4 269,-534.4 269,-528.4 269,-528.4 269,-516.4 269,-516.4 269,-510.4 275,-504.4 281,-504.4 281,-504.4 443,-504.4 443,-504.4 449,-504.4 455,-510.4 455,-516.4 455,-516.4 455,-528.4 455,-528.4 455,-534.4 449,-540.4 443,-540.4"/>
<text text-anchor="middle" x="362" y="-518.7" font-family="Helvetica,sans-Serif" font-size="14.00">src/storage/storage&#45;async.ts</text>
</g>
<!-- src/example&#45;app.ts&#45;&gt;src/storage/storage&#45;async.ts -->
<g id="edge15" class="edge">
<title>src/example&#45;app.ts&#45;&gt;src/storage/storage&#45;async.ts</title>
<path fill="none" stroke="#528b8b" stroke-width="2" d="M119.09,-702.13C167.29,-666.33 274.15,-586.93 328.25,-546.73"/>
<polygon fill="#528b8b" stroke="#528b8b" stroke-width="2" points="330.53,-549.4 336.47,-540.63 326.35,-543.79 330.53,-549.4"/>
</g>
<!-- src/storage/storage&#45;driver&#45;async&#45;memory.ts -->
<g id="node26" class="node">
<title>src/storage/storage&#45;driver&#45;async&#45;memory.ts</title>
<path fill="#79cdcd" stroke="#79cdcd" d="M489,-418.4C489,-418.4 235,-418.4 235,-418.4 229,-418.4 223,-412.4 223,-406.4 223,-406.4 223,-394.4 223,-394.4 223,-388.4 229,-382.4 235,-382.4 235,-382.4 489,-382.4 489,-382.4 495,-382.4 501,-388.4 501,-394.4 501,-394.4 501,-406.4 501,-406.4 501,-412.4 495,-418.4 489,-418.4"/>
<text text-anchor="middle" x="362" y="-396.7" font-family="Helvetica,sans-Serif" font-size="14.00">src/storage/storage&#45;driver&#45;async&#45;memory.ts</text>
</g>
<!-- src/example&#45;app.ts&#45;&gt;src/storage/storage&#45;driver&#45;async&#45;memory.ts -->
<g id="edge14" class="edge">
<title>src/example&#45;app.ts&#45;&gt;src/storage/storage&#45;driver&#45;async&#45;memory.ts</title>
<path fill="none" stroke="#528b8b" stroke-width="2" d="M101.52,-702.32C117.93,-661.71 162.11,-561.64 223,-495.4 250.21,-465.81 288.26,-440.48 317.51,-423.44"/>
<polygon fill="#528b8b" stroke="#528b8b" stroke-width="2" points="319.35,-426.42 326.29,-418.42 315.87,-420.35 319.35,-426.42"/>
</g>
<!-- src/core&#45;validators/addresses.ts -->
<g id="node2" class="node">
<title>src/core&#45;validators/addresses.ts</title>
<path fill="#79cdcd" stroke="#79cdcd" d="M1386,-1098.4C1386,-1098.4 1203,-1098.4 1203,-1098.4 1197,-1098.4 1191,-1092.4 1191,-1086.4 1191,-1086.4 1191,-1074.4 1191,-1074.4 1191,-1068.4 1197,-1062.4 1203,-1062.4 1203,-1062.4 1386,-1062.4 1386,-1062.4 1392,-1062.4 1398,-1068.4 1398,-1074.4 1398,-1074.4 1398,-1086.4 1398,-1086.4 1398,-1092.4 1392,-1098.4 1386,-1098.4"/>
<text text-anchor="middle" x="1294.5" y="-1076.7" font-family="Helvetica,sans-Serif" font-size="14.00">src/core&#45;validators/addresses.ts</text>
</g>
<!-- src/core&#45;validators/characters.ts -->
<g id="node3" class="node">
<title>src/core&#45;validators/characters.ts</title>
<path fill="#79cdcd" stroke="#79cdcd" d="M1671,-1190.4C1671,-1190.4 1487,-1190.4 1487,-1190.4 1481,-1190.4 1475,-1184.4 1475,-1178.4 1475,-1178.4 1475,-1166.4 1475,-1166.4 1475,-1160.4 1481,-1154.4 1487,-1154.4 1487,-1154.4 1671,-1154.4 1671,-1154.4 1677,-1154.4 1683,-1160.4 1683,-1166.4 1683,-1166.4 1683,-1178.4 1683,-1178.4 1683,-1184.4 1677,-1190.4 1671,-1190.4"/>
<text text-anchor="middle" x="1579" y="-1168.7" font-family="Helvetica,sans-Serif" font-size="14.00">src/core&#45;validators/characters.ts</text>
</g>
<!-- src/core&#45;validators/addresses.ts&#45;&gt;src/core&#45;validators/characters.ts -->
<g id="edge1" class="edge">
<title>src/core&#45;validators/addresses.ts&#45;&gt;src/core&#45;validators/characters.ts</title>
<path fill="none" stroke="#528b8b" stroke-width="2" d="M1350.98,-1098.47C1397.52,-1113.63 1464.08,-1135.3 1513.09,-1151.27"/>
<polygon fill="#528b8b" stroke="#528b8b" stroke-width="2" points="1512.06,-1154.61 1522.65,-1154.38 1514.23,-1147.95 1512.06,-1154.61"/>
</g>
<!-- src/core&#45;validators/checkers.ts -->
<g id="node4" class="node">
<title>src/core&#45;validators/checkers.ts</title>
<path fill="#79cdcd" stroke="#79cdcd" d="M1382,-1190.4C1382,-1190.4 1207,-1190.4 1207,-1190.4 1201,-1190.4 1195,-1184.4 1195,-1178.4 1195,-1178.4 1195,-1166.4 1195,-1166.4 1195,-1160.4 1201,-1154.4 1207,-1154.4 1207,-1154.4 1382,-1154.4 1382,-1154.4 1388,-1154.4 1394,-1160.4 1394,-1166.4 1394,-1166.4 1394,-1178.4 1394,-1178.4 1394,-1184.4 1388,-1190.4 1382,-1190.4"/>
<text text-anchor="middle" x="1294.5" y="-1168.7" font-family="Helvetica,sans-Serif" font-size="14.00">src/core&#45;validators/checkers.ts</text>
</g>
<!-- src/core&#45;validators/checkers.ts&#45;&gt;src/core&#45;validators/characters.ts -->
<g id="edge2" class="edge">
<title>src/core&#45;validators/checkers.ts&#45;&gt;src/core&#45;validators/characters.ts</title>
<path fill="none" stroke="#528b8b" stroke-width="2" d="M1394.3,-1172.4C1417.04,-1172.4 1441.38,-1172.4 1464.67,-1172.4"/>
<polygon fill="#528b8b" stroke="#528b8b" stroke-width="2" points="1464.94,-1175.9 1474.94,-1172.4 1464.94,-1168.9 1464.94,-1175.9"/>
</g>
<!-- src/crypto/base32.ts -->
<g id="node5" class="node">
<title>src/crypto/base32.ts</title>
<path fill="#79cdcd" stroke="#79cdcd" d="M1351,-860.4C1351,-860.4 1238,-860.4 1238,-860.4 1232,-860.4 1226,-854.4 1226,-848.4 1226,-848.4 1226,-836.4 1226,-836.4 1226,-830.4 1232,-824.4 1238,-824.4 1238,-824.4 1351,-824.4 1351,-824.4 1357,-824.4 1363,-830.4 1363,-836.4 1363,-836.4 1363,-848.4 1363,-848.4 1363,-854.4 1357,-860.4 1351,-860.4"/>
<text text-anchor="middle" x="1294.5" y="-838.7" font-family="Helvetica,sans-Serif" font-size="14.00">src/crypto/base32.ts</text>
</g>
<!-- src/crypto/crypto&#45;driver&#45;chloride.ts -->
<g id="node6" class="node">
<title>src/crypto/crypto&#45;driver&#45;chloride.ts</title>
<path fill="#79cdcd" stroke="#79cdcd" d="M1392.5,-1006.4C1392.5,-1006.4 1196.5,-1006.4 1196.5,-1006.4 1190.5,-1006.4 1184.5,-1000.4 1184.5,-994.4 1184.5,-994.4 1184.5,-982.4 1184.5,-982.4 1184.5,-976.4 1190.5,-970.4 1196.5,-970.4 1196.5,-970.4 1392.5,-970.4 1392.5,-970.4 1398.5,-970.4 1404.5,-976.4 1404.5,-982.4 1404.5,-982.4 1404.5,-994.4 1404.5,-994.4 1404.5,-1000.4 1398.5,-1006.4 1392.5,-1006.4"/>
<text text-anchor="middle" x="1294.5" y="-984.7" font-family="Helvetica,sans-Serif" font-size="14.00">src/crypto/crypto&#45;driver&#45;chloride.ts</text>
</g>
<!-- src/crypto/crypto&#45;types.ts -->
<g id="node9" class="node">
<title>src/crypto/crypto&#45;types.ts</title>
<path fill="#79cdcd" stroke="#79cdcd" d="M1650.5,-860.4C1650.5,-860.4 1507.5,-860.4 1507.5,-860.4 1501.5,-860.4 1495.5,-854.4 1495.5,-848.4 1495.5,-848.4 1495.5,-836.4 1495.5,-836.4 1495.5,-830.4 1501.5,-824.4 1507.5,-824.4 1507.5,-824.4 1650.5,-824.4 1650.5,-824.4 1656.5,-824.4 1662.5,-830.4 1662.5,-836.4 1662.5,-836.4 1662.5,-848.4 1662.5,-848.4 1662.5,-854.4 1656.5,-860.4 1650.5,-860.4"/>
<text text-anchor="middle" x="1579" y="-838.7" font-family="Helvetica,sans-Serif" font-size="14.00">src/crypto/crypto&#45;types.ts</text>
</g>
<!-- src/crypto/crypto&#45;driver&#45;chloride.ts&#45;&gt;src/crypto/crypto&#45;types.ts -->
<g id="edge3" class="edge">
<title>src/crypto/crypto&#45;driver&#45;chloride.ts&#45;&gt;src/crypto/crypto&#45;types.ts</title>
<path fill="none" stroke="#528b8b" stroke-width="2" d="M1404.78,-974.1C1416.62,-970.72 1428.26,-966.55 1439,-961.4 1486.19,-938.78 1530.21,-896 1555.59,-868.37"/>
<polygon fill="#528b8b" stroke="#528b8b" stroke-width="2" points="1558.45,-870.43 1562.55,-860.66 1553.25,-865.74 1558.45,-870.43"/>
</g>
<!-- src/crypto/crypto&#45;driver&#45;node.ts -->
<g id="node7" class="node">
<title>src/crypto/crypto&#45;driver&#45;node.ts</title>
<path fill="#79cdcd" stroke="#79cdcd" d="M1384,-952.4C1384,-952.4 1205,-952.4 1205,-952.4 1199,-952.4 1193,-946.4 1193,-940.4 1193,-940.4 1193,-928.4 1193,-928.4 1193,-922.4 1199,-916.4 1205,-916.4 1205,-916.4 1384,-916.4 1384,-916.4 1390,-916.4 1396,-922.4 1396,-928.4 1396,-928.4 1396,-940.4 1396,-940.4 1396,-946.4 1390,-952.4 1384,-952.4"/>
<text text-anchor="middle" x="1294.5" y="-930.7" font-family="Helvetica,sans-Serif" font-size="14.00">src/crypto/crypto&#45;driver&#45;node.ts</text>
</g>
<!-- src/crypto/crypto&#45;driver&#45;node.ts&#45;&gt;src/crypto/crypto&#45;types.ts -->
<g id="edge4" class="edge">
<title>src/crypto/crypto&#45;driver&#45;node.ts&#45;&gt;src/crypto/crypto&#45;types.ts</title>
<path fill="none" stroke="#528b8b" stroke-width="2" d="M1388.44,-916.36C1405.41,-912.31 1422.85,-907.64 1439,-902.4 1470.87,-892.07 1505.47,-877.15 1532.17,-864.78"/>
<polygon fill="#528b8b" stroke="#528b8b" stroke-width="2" points="1533.7,-867.93 1541.27,-860.52 1530.73,-861.59 1533.7,-867.93"/>
</g>
<!-- src/crypto/crypto&#45;driver&#45;tweetnacl.ts&#45;&gt;src/crypto/crypto&#45;types.ts -->
<g id="edge5" class="edge">
<title>src/crypto/crypto&#45;driver&#45;tweetnacl.ts&#45;&gt;src/crypto/crypto&#45;types.ts</title>
<path fill="none" stroke="#528b8b" stroke-width="2" d="M1020.48,-994.43C1106.25,-1026.21 1298.43,-1082.78 1439,-1015.4 1502.36,-985.03 1545.99,-910.13 1565.85,-869.56"/>
<polygon fill="#528b8b" stroke="#528b8b" stroke-width="2" points="1569.02,-871.04 1570.16,-860.51 1562.7,-868.03 1569.02,-871.04"/>
</g>
<!-- src/crypto/crypto.ts&#45;&gt;src/core&#45;validators/addresses.ts -->
<g id="edge9" class="edge">
<title>src/crypto/crypto.ts&#45;&gt;src/core&#45;validators/addresses.ts</title>
<path fill="none" stroke="#528b8b" stroke-width="2" d="M682.2,-860.5C707.27,-894.68 766.73,-968.42 836,-1003.4 944.67,-1058.29 1084.51,-1075.2 1180.82,-1079.85"/>
<polygon fill="#528b8b" stroke="#528b8b" stroke-width="2" points="1180.73,-1083.35 1190.88,-1080.3 1181.04,-1076.36 1180.73,-1083.35"/>
</g>
<!-- src/crypto/crypto.ts&#45;&gt;src/crypto/base32.ts -->
<g id="edge7" class="edge">
<title>src/crypto/crypto.ts&#45;&gt;src/crypto/base32.ts</title>
<path fill="none" stroke="#528b8b" stroke-width="2" d="M733.64,-842.4C848.89,-842.4 1090.6,-842.4 1215.34,-842.4"/>
<polygon fill="#528b8b" stroke="#528b8b" stroke-width="2" points="1215.57,-845.9 1225.57,-842.4 1215.57,-838.9 1215.57,-845.9"/>
</g>
<!-- src/crypto/crypto.ts&#45;&gt;src/crypto/crypto&#45;types.ts -->
<g id="edge6" class="edge">
<title>src/crypto/crypto.ts&#45;&gt;src/crypto/crypto&#45;types.ts</title>
<path fill="none" stroke="#528b8b" stroke-width="2" d="M733.52,-834.51C865.68,-819.47 1178.2,-790.31 1439,-815.4 1455.21,-816.96 1472.34,-819.52 1488.83,-822.46"/>
<polygon fill="#528b8b" stroke="#528b8b" stroke-width="2" points="1488.53,-825.97 1499,-824.34 1489.8,-819.08 1488.53,-825.97"/>
</g>
<!-- src/crypto/keypair.ts -->
<g id="node11" class="node">
<title>src/crypto/keypair.ts</title>
<path fill="#79cdcd" stroke="#79cdcd" d="M1031.5,-906.4C1031.5,-906.4 918.5,-906.4 918.5,-906.4 912.5,-906.4 906.5,-900.4 906.5,-894.4 906.5,-894.4 906.5,-882.4 906.5,-882.4 906.5,-876.4 912.5,-870.4 918.5,-870.4 918.5,-870.4 1031.5,-870.4 1031.5,-870.4 1037.5,-870.4 1043.5,-876.4 1043.5,-882.4 1043.5,-882.4 1043.5,-894.4 1043.5,-894.4 1043.5,-900.4 1037.5,-906.4 1031.5,-906.4"/>
<text text-anchor="middle" x="975" y="-884.7" font-family="Helvetica,sans-Serif" font-size="14.00">src/crypto/keypair.ts</text>
</g>
<!-- src/crypto/crypto.ts&#45;&gt;src/crypto/keypair.ts -->
<g id="edge8" class="edge">
<title>src/crypto/crypto.ts&#45;&gt;src/crypto/keypair.ts</title>
<path fill="none" stroke="#528b8b" stroke-width="2" d="M733.7,-852.1C781.13,-859.27 845.91,-869.05 896.26,-876.66"/>
<polygon fill="#528b8b" stroke="#528b8b" stroke-width="2" points="896.04,-880.17 906.45,-878.2 897.09,-873.24 896.04,-880.17"/>
</g>
<!-- src/crypto/keypair.ts&#45;&gt;src/core&#45;validators/addresses.ts -->
<g id="edge12" class="edge">
<title>src/crypto/keypair.ts&#45;&gt;src/core&#45;validators/addresses.ts</title>
<path fill="none" stroke="#528b8b" stroke-width="2" d="M1039.47,-906.52C1064.85,-916.14 1092.99,-930.07 1114,-949.4 1138.59,-972.03 1125.52,-992.67 1150,-1015.4 1170.35,-1034.3 1197.13,-1048.43 1222.04,-1058.6"/>
<polygon fill="#528b8b" stroke="#528b8b" stroke-width="2" points="1220.89,-1061.91 1231.47,-1062.31 1223.45,-1055.4 1220.89,-1061.91"/>
</g>
<!-- src/crypto/keypair.ts&#45;&gt;src/crypto/base32.ts -->
<g id="edge10" class="edge">
<title>src/crypto/keypair.ts&#45;&gt;src/crypto/base32.ts</title>
<path fill="none" stroke="#528b8b" stroke-width="2" d="M1043.72,-878.59C1094.2,-871.28 1163.21,-861.28 1215.91,-853.65"/>
<polygon fill="#528b8b" stroke="#528b8b" stroke-width="2" points="1216.49,-857.1 1225.88,-852.2 1215.48,-850.17 1216.49,-857.1"/>
</g>
<!-- src/crypto/keypair.ts&#45;&gt;src/crypto/crypto&#45;types.ts -->
<g id="edge11" class="edge">
<title>src/crypto/keypair.ts&#45;&gt;src/crypto/crypto&#45;types.ts</title>
<path fill="none" stroke="#528b8b" stroke-width="2" d="M1043.73,-888.81C1134.15,-888.63 1299.17,-885.76 1439,-869.4 1454.22,-867.62 1470.27,-865.11 1485.85,-862.32"/>
<polygon fill="#528b8b" stroke="#528b8b" stroke-width="2" points="1486.8,-865.71 1496,-860.46 1485.53,-858.82 1486.8,-865.71"/>
</g>
<!-- src/format&#45;validators/format&#45;validator&#45;es4.ts&#45;&gt;src/core&#45;validators/addresses.ts -->
<g id="edge24" class="edge">
<title>src/format&#45;validators/format&#45;validator&#45;es4.ts&#45;&gt;src/core&#45;validators/addresses.ts</title>
<path fill="none" stroke="#528b8b" stroke-width="2" d="M1114.34,-1093.38C1136.55,-1091.77 1159.31,-1090.12 1180.83,-1088.56"/>
<polygon fill="#528b8b" stroke="#528b8b" stroke-width="2" points="1181.24,-1092.04 1190.96,-1087.83 1180.73,-1085.06 1181.24,-1092.04"/>
</g>
<!-- src/format&#45;validators/format&#45;validator&#45;es4.ts&#45;&gt;src/core&#45;validators/characters.ts -->
<g id="edge22" class="edge">
<title>src/format&#45;validators/format&#45;validator&#45;es4.ts&#45;&gt;src/core&#45;validators/characters.ts</title>
<path fill="none" stroke="#528b8b" stroke-width="2" d="M999.4,-1121.43C1031.35,-1144.79 1091.36,-1184.3 1150,-1199.4 1267.5,-1229.67 1408.85,-1210.46 1496.07,-1192.5"/>
<polygon fill="#528b8b" stroke="#528b8b" stroke-width="2" points="1496.84,-1195.91 1505.9,-1190.43 1495.4,-1189.06 1496.84,-1195.91"/>
</g>
<!-- src/format&#45;validators/format&#45;validator&#45;es4.ts&#45;&gt;src/core&#45;validators/checkers.ts -->
<g id="edge23" class="edge">
<title>src/format&#45;validators/format&#45;validator&#45;es4.ts&#45;&gt;src/core&#45;validators/checkers.ts</title>
<path fill="none" stroke="#528b8b" stroke-width="2" d="M1059,-1121.44C1102.39,-1130.87 1155.64,-1142.44 1200.42,-1152.18"/>
<polygon fill="#528b8b" stroke="#528b8b" stroke-width="2" points="1199.91,-1155.65 1210.43,-1154.35 1201.4,-1148.81 1199.91,-1155.65"/>
</g>
<!-- src/format&#45;validators/format&#45;validator&#45;es4.ts&#45;&gt;src/crypto/crypto&#45;types.ts -->
<g id="edge21" class="edge">
<title>src/format&#45;validators/format&#45;validator&#45;es4.ts&#45;&gt;src/crypto/crypto&#45;types.ts</title>
<path fill="none" stroke="#528b8b" stroke-width="2" d="M1114.13,-1120.19C1230.51,-1131.54 1386.25,-1139.3 1439,-1107.4 1526.08,-1054.75 1561.28,-927.53 1573.01,-870.68"/>
<polygon fill="#528b8b" stroke="#528b8b" stroke-width="2" points="1576.5,-871.09 1574.99,-860.6 1569.63,-869.73 1576.5,-871.09"/>
</g>
<!-- src/format&#45;validators/format&#45;validator&#45;types.ts -->
<g id="node13" class="node">
<title>src/format&#45;validators/format&#45;validator&#45;types.ts</title>
<path fill="#79cdcd" stroke="#79cdcd" d="M1427,-654.4C1427,-654.4 1162,-654.4 1162,-654.4 1156,-654.4 1150,-648.4 1150,-642.4 1150,-642.4 1150,-630.4 1150,-630.4 1150,-624.4 1156,-618.4 1162,-618.4 1162,-618.4 1427,-618.4 1427,-618.4 1433,-618.4 1439,-624.4 1439,-630.4 1439,-630.4 1439,-642.4 1439,-642.4 1439,-648.4 1433,-654.4 1427,-654.4"/>
<text text-anchor="middle" x="1294.5" y="-632.7" font-family="Helvetica,sans-Serif" font-size="14.00">src/format&#45;validators/format&#45;validator&#45;types.ts</text>
</g>
<!-- src/format&#45;validators/format&#45;validator&#45;es4.ts&#45;&gt;src/format&#45;validators/format&#45;validator&#45;types.ts -->
<g id="edge20" class="edge">
<title>src/format&#45;validators/format&#45;validator&#45;es4.ts&#45;&gt;src/format&#45;validators/format&#45;validator&#45;types.ts</title>
<path fill="none" stroke="#528b8b" stroke-width="2" d="M1015.45,-1085.26C1047.19,-1068.56 1090.26,-1040.73 1114,-1003.4 1159.65,-931.62 1114.34,-892.64 1150,-815.4 1178.59,-753.47 1233.16,-694.29 1266.14,-661.9"/>
<polygon fill="#528b8b" stroke="#528b8b" stroke-width="2" points="1268.89,-664.11 1273.64,-654.63 1264.02,-659.08 1268.89,-664.11"/>
</g>
<!-- src/format&#45;validators/format&#45;validator&#45;types.ts&#45;&gt;src/crypto/crypto&#45;types.ts -->
<g id="edge25" class="edge">
<title>src/format&#45;validators/format&#45;validator&#45;types.ts&#45;&gt;src/crypto/crypto&#45;types.ts</title>
<path fill="none" stroke="#528b8b" stroke-width="2" d="M1410.35,-654.48C1420.41,-658.27 1430.12,-662.86 1439,-668.4 1497.96,-705.21 1542.66,-776.12 1564.05,-815.09"/>
<polygon fill="#528b8b" stroke="#528b8b" stroke-width="2" points="1561.16,-817.12 1568.98,-824.27 1567.33,-813.81 1561.16,-817.12"/>
</g>
<!-- src/peer/peer&#45;client.ts -->
<g id="node14" class="node">
<title>src/peer/peer&#45;client.ts</title>
<path fill="#79cdcd" stroke="#79cdcd" d="M423,-684.4C423,-684.4 301,-684.4 301,-684.4 295,-684.4 289,-678.4 289,-672.4 289,-672.4 289,-660.4 289,-660.4 289,-654.4 295,-648.4 301,-648.4 301,-648.4 423,-648.4 423,-648.4 429,-648.4 435,-654.4 435,-660.4 435,-660.4 435,-672.4 435,-672.4 435,-678.4 429,-684.4 423,-684.4"/>
<text text-anchor="middle" x="362" y="-662.7" font-family="Helvetica,sans-Serif" font-size="14.00">src/peer/peer&#45;client.ts</text>
</g>
<!-- src/peer/peer&#45;client.ts&#45;&gt;src/crypto/crypto&#45;types.ts -->
<g id="edge26" class="edge">
<title>src/peer/peer&#45;client.ts&#45;&gt;src/crypto/crypto&#45;types.ts</title>
<path fill="none" stroke="#528b8b" stroke-width="2" d="M435.31,-666.51C661.68,-667.25 1347.14,-672.7 1439,-711.4 1491.23,-733.41 1535.68,-784.43 1559.46,-815.91"/>
<polygon fill="#528b8b" stroke="#528b8b" stroke-width="2" points="1556.85,-818.27 1565.6,-824.23 1562.48,-814.11 1556.85,-818.27"/>
</g>
<!-- src/peer/peer&#45;types.ts -->
<g id="node16" class="node">
<title>src/peer/peer&#45;types.ts</title>
<path fill="#79cdcd" stroke="#79cdcd" d="M730,-746.4C730,-746.4 607,-746.4 607,-746.4 601,-746.4 595,-740.4 595,-734.4 595,-734.4 595,-722.4 595,-722.4 595,-716.4 601,-710.4 607,-710.4 607,-710.4 730,-710.4 730,-710.4 736,-710.4 742,-716.4 742,-722.4 742,-722.4 742,-734.4 742,-734.4 742,-740.4 736,-746.4 730,-746.4"/>
<text text-anchor="middle" x="668.5" y="-724.7" font-family="Helvetica,sans-Serif" font-size="14.00">src/peer/peer&#45;types.ts</text>
</g>
<!-- src/peer/peer&#45;client.ts&#45;&gt;src/peer/peer&#45;types.ts -->
<g id="edge27" class="edge">
<title>src/peer/peer&#45;client.ts&#45;&gt;src/peer/peer&#45;types.ts</title>
<path fill="none" stroke="#528b8b" stroke-width="2" d="M435.02,-680.3C456.28,-684.45 479.59,-689.06 501,-693.4 528.21,-698.92 557.88,-705.11 584.54,-710.73"/>
<polygon fill="#528b8b" stroke="#528b8b" stroke-width="2" points="584.1,-714.21 594.6,-712.85 585.54,-707.36 584.1,-714.21"/>
</g>
<!-- src/storage/compare.ts -->
<g id="node22" class="node">
<title>src/storage/compare.ts</title>
<path fill="#79cdcd" stroke="#79cdcd" d="M734,-540.4C734,-540.4 603,-540.4 603,-540.4 597,-540.4 591,-534.4 591,-528.4 591,-528.4 591,-516.4 591,-516.4 591,-510.4 597,-504.4 603,-504.4 603,-504.4 734,-504.4 734,-504.4 740,-504.4 746,-510.4 746,-516.4 746,-516.4 746,-528.4 746,-528.4 746,-534.4 740,-540.4 734,-540.4"/>
<text text-anchor="middle" x="668.5" y="-518.7" font-family="Helvetica,sans-Serif" font-size="14.00">src/storage/compare.ts</text>
</g>
<!-- src/peer/peer&#45;client.ts&#45;&gt;src/storage/compare.ts -->
<g id="edge28" class="edge">
<title>src/peer/peer&#45;client.ts&#45;&gt;src/storage/compare.ts</title>
<path fill="none" stroke="#528b8b" stroke-width="2" d="M401.26,-648.31C456.75,-622.07 559.52,-573.47 619.85,-544.93"/>
<polygon fill="#528b8b" stroke="#528b8b" stroke-width="2" points="621.62,-547.97 629.16,-540.53 618.62,-541.65 621.62,-547.97"/>
</g>
<!-- src/peer/peer&#45;server.ts -->
<g id="node15" class="node">
<title>src/peer/peer&#45;server.ts</title>
<path fill="#79cdcd" stroke="#79cdcd" d="M426,-792.4C426,-792.4 298,-792.4 298,-792.4 292,-792.4 286,-786.4 286,-780.4 286,-780.4 286,-768.4 286,-768.4 286,-762.4 292,-756.4 298,-756.4 298,-756.4 426,-756.4 426,-756.4 432,-756.4 438,-762.4 438,-768.4 438,-768.4 438,-780.4 438,-780.4 438,-786.4 432,-792.4 426,-792.4"/>
<text text-anchor="middle" x="362" y="-770.7" font-family="Helvetica,sans-Serif" font-size="14.00">src/peer/peer&#45;server.ts</text>
</g>
<!-- src/peer/peer&#45;server.ts&#45;&gt;src/crypto/crypto&#45;types.ts -->
<g id="edge29" class="edge">
<title>src/peer/peer&#45;server.ts&#45;&gt;src/crypto/crypto&#45;types.ts</title>
<path fill="none" stroke="#528b8b" stroke-width="2" d="M438.29,-769.58C614.56,-759.75 1067.27,-742.95 1439,-801.4 1465.65,-805.59 1494.36,-813.47 1518.73,-821.2"/>
<polygon fill="#528b8b" stroke="#528b8b" stroke-width="2" points="1517.95,-824.63 1528.54,-824.38 1520.11,-817.97 1517.95,-824.63"/>
</g>
<!-- src/peer/peer&#45;server.ts&#45;&gt;src/peer/peer&#45;types.ts -->
<g id="edge30" class="edge">
<title>src/peer/peer&#45;server.ts&#45;&gt;src/peer/peer&#45;types.ts</title>
<path fill="none" stroke="#528b8b" stroke-width="2" d="M438.27,-763.03C482.82,-756.3 539.29,-747.77 585.04,-740.86"/>
<polygon fill="#528b8b" stroke="#528b8b" stroke-width="2" points="585.57,-744.32 594.93,-739.37 584.52,-737.4 585.57,-744.32"/>
</g>
<!-- src/peer/peer&#45;types.ts&#45;&gt;src/crypto/crypto&#45;types.ts -->
<g id="edge32" class="edge">
<title>src/peer/peer&#45;types.ts&#45;&gt;src/crypto/crypto&#45;types.ts</title>
<path fill="none" stroke="#528b8b" stroke-width="2" d="M742.2,-724.54C908.31,-716.58 1311.18,-702.41 1439,-744.4 1483.49,-759.02 1526.2,-793.14 1552.26,-816.98"/>
<polygon fill="#528b8b" stroke="#528b8b" stroke-width="2" points="1550.1,-819.76 1559.8,-824.02 1554.88,-814.64 1550.1,-819.76"/>
</g>
<!-- src/storage/storage&#45;types.ts -->
<g id="node27" class="node">
<title>src/storage/storage&#45;types.ts</title>
<path fill="#79cdcd" stroke="#79cdcd" d="M1054.5,-372.4C1054.5,-372.4 895.5,-372.4 895.5,-372.4 889.5,-372.4 883.5,-366.4 883.5,-360.4 883.5,-360.4 883.5,-348.4 883.5,-348.4 883.5,-342.4 889.5,-336.4 895.5,-336.4 895.5,-336.4 1054.5,-336.4 1054.5,-336.4 1060.5,-336.4 1066.5,-342.4 1066.5,-348.4 1066.5,-348.4 1066.5,-360.4 1066.5,-360.4 1066.5,-366.4 1060.5,-372.4 1054.5,-372.4"/>
<text text-anchor="middle" x="975" y="-350.7" font-family="Helvetica,sans-Serif" font-size="14.00">src/storage/storage&#45;types.ts</text>
</g>
<!-- src/peer/peer&#45;types.ts&#45;&gt;src/storage/storage&#45;types.ts -->
<g id="edge31" class="edge">
<title>src/peer/peer&#45;types.ts&#45;&gt;src/storage/storage&#45;types.ts</title>
<path fill="none" stroke="#528b8b" stroke-width="2" d="M701.87,-710.3C732.02,-691.7 775.85,-659.93 800,-620.4 838.68,-557.09 795.75,-519.72 836,-457.4 858.51,-422.55 897.18,-395.21 927.87,-377.48"/>
<polygon fill="#528b8b" stroke="#528b8b" stroke-width="2" points="929.7,-380.47 936.7,-372.52 926.27,-374.37 929.7,-380.47"/>
</g>
<!-- src/peer/peer.ts&#45;&gt;src/peer/peer&#45;types.ts -->
<g id="edge34" class="edge">
<title>src/peer/peer.ts&#45;&gt;src/peer/peer&#45;types.ts</title>
<path fill="none" stroke="#528b8b" stroke-width="2" d="M417.09,-721.82C463.57,-723.05 531.33,-724.83 584.64,-726.23"/>
<polygon fill="#528b8b" stroke="#528b8b" stroke-width="2" points="584.67,-729.73 594.76,-726.49 584.86,-722.73 584.67,-729.73"/>
</g>
<!-- src/peer/peer.ts&#45;&gt;src/storage/storage&#45;types.ts -->
<g id="edge33" class="edge">
<title>src/peer/peer.ts&#45;&gt;src/storage/storage&#45;types.ts</title>
<path fill="none" stroke="#528b8b" stroke-width="2" d="M417.08,-714.39C509.01,-701.3 695.88,-661.73 800,-549.4 829.85,-517.2 809.38,-492.32 836,-457.4 861.65,-423.75 901.12,-395.83 931.28,-377.58"/>
<polygon fill="#528b8b" stroke="#528b8b" stroke-width="2" points="933.1,-380.57 939.92,-372.47 929.54,-374.55 933.1,-380.57"/>
</g>
<!-- src/query&#45;follower/query&#45;follower&#45;types.ts -->
<g id="node18" class="node">
<title>src/query&#45;follower/query&#45;follower&#45;types.ts</title>
<path fill="#79cdcd" stroke="#79cdcd" d="M788,-258.4C788,-258.4 549,-258.4 549,-258.4 543,-258.4 537,-252.4 537,-246.4 537,-246.4 537,-234.4 537,-234.4 537,-228.4 543,-222.4 549,-222.4 549,-222.4 788,-222.4 788,-222.4 794,-222.4 800,-228.4 800,-234.4 800,-234.4 800,-246.4 800,-246.4 800,-252.4 794,-258.4 788,-258.4"/>
<text text-anchor="middle" x="668.5" y="-236.7" font-family="Helvetica,sans-Serif" font-size="14.00">src/query&#45;follower/query&#45;follower&#45;types.ts</text>
</g>
<!-- src/query&#45;follower/query&#45;follower&#45;types.ts&#45;&gt;src/storage/storage&#45;types.ts -->
<g id="edge35" class="edge">
<title>src/query&#45;follower/query&#45;follower&#45;types.ts&#45;&gt;src/storage/storage&#45;types.ts</title>
<path fill="none" stroke="#528b8b" stroke-width="2" d="M753.77,-258.44C769.31,-262.51 785.27,-267.18 800,-272.4 846.52,-288.88 897.32,-313.66 931.95,-331.67"/>
<polygon fill="#528b8b" stroke="#528b8b" stroke-width="2" points="930.35,-334.78 940.84,-336.32 933.6,-328.58 930.35,-334.78"/>
</g>
<!-- src/query&#45;follower/query&#45;follower.ts&#45;&gt;src/query&#45;follower/query&#45;follower&#45;types.ts -->
<g id="edge40" class="edge">
<title>src/query&#45;follower/query&#45;follower.ts&#45;&gt;src/query&#45;follower/query&#45;follower&#45;types.ts</title>
<path fill="none" stroke="#528b8b" stroke-width="2" d="M428.32,-174.42C476.41,-187.69 541.89,-205.75 592.18,-219.62"/>
<polygon fill="#528b8b" stroke="#528b8b" stroke-width="2" points="591.45,-223.06 602.02,-222.34 593.31,-216.31 591.45,-223.06"/>
</g>
<!-- src/query/query&#45;types.ts -->
<g id="node20" class="node">
<title>src/query/query&#45;types.ts</title>
<path fill="#79cdcd" stroke="#79cdcd" d="M1363,-170.4C1363,-170.4 1226,-170.4 1226,-170.4 1220,-170.4 1214,-164.4 1214,-158.4 1214,-158.4 1214,-146.4 1214,-146.4 1214,-140.4 1220,-134.4 1226,-134.4 1226,-134.4 1363,-134.4 1363,-134.4 1369,-134.4 1375,-140.4 1375,-146.4 1375,-146.4 1375,-158.4 1375,-158.4 1375,-164.4 1369,-170.4 1363,-170.4"/>
<text text-anchor="middle" x="1294.5" y="-148.7" font-family="Helvetica,sans-Serif" font-size="14.00">src/query/query&#45;types.ts</text>
</g>
<!-- src/query&#45;follower/query&#45;follower.ts&#45;&gt;src/query/query&#45;types.ts -->
<g id="edge37" class="edge">
<title>src/query&#45;follower/query&#45;follower.ts&#45;&gt;src/query/query&#45;types.ts</title>
<path fill="none" stroke="#528b8b" stroke-width="2" d="M395.11,-138.34C429.11,-120.33 484.97,-93.87 537,-83.4 784.06,-33.68 1083.8,-96.63 1219.91,-131.76"/>
<polygon fill="#528b8b" stroke="#528b8b" stroke-width="2" points="1219.26,-135.2 1229.82,-134.34 1221.03,-128.43 1219.26,-135.2"/>
</g>
<!-- src/query/query.ts -->
<g id="node21" class="node">
<title>src/query/query.ts</title>
<path fill="#79cdcd" stroke="#79cdcd" d="M718,-128.4C718,-128.4 619,-128.4 619,-128.4 613,-128.4 607,-122.4 607,-116.4 607,-116.4 607,-104.4 607,-104.4 607,-98.4 613,-92.4 619,-92.4 619,-92.4 718,-92.4 718,-92.4 724,-92.4 730,-98.4 730,-104.4 730,-104.4 730,-116.4 730,-116.4 730,-122.4 724,-128.4 718,-128.4"/>
<text text-anchor="middle" x="668.5" y="-106.7" font-family="Helvetica,sans-Serif" font-size="14.00">src/query/query.ts</text>
</g>
<!-- src/query&#45;follower/query&#45;follower.ts&#45;&gt;src/query/query.ts -->
<g id="edge39" class="edge">
<title>src/query&#45;follower/query&#45;follower.ts&#45;&gt;src/query/query.ts</title>
<path fill="none" stroke="#528b8b" stroke-width="2" d="M475.09,-139.47C515.85,-133.31 560.76,-126.53 596.92,-121.06"/>
<polygon fill="#528b8b" stroke="#528b8b" stroke-width="2" points="597.52,-124.51 606.88,-119.56 596.47,-117.59 597.52,-124.51"/>
</g>
<!-- src/query&#45;follower/query&#45;follower.ts&#45;&gt;src/storage/storage&#45;types.ts -->
<g id="edge38" class="edge">
<title>src/query&#45;follower/query&#45;follower.ts&#45;&gt;src/storage/storage&#45;types.ts</title>
<path fill="none" stroke="#528b8b" stroke-width="2" d="M475.14,-154.44C566.14,-156.67 695.94,-168.75 800,-213.4 862.19,-240.09 920.24,-295.66 951.04,-328.51"/>
<polygon fill="#528b8b" stroke="#528b8b" stroke-width="2" points="948.55,-330.97 957.91,-335.94 953.69,-326.22 948.55,-330.97"/>
</g>
<!-- src/storage/util&#45;types.ts -->
<g id="node28" class="node">
<title>src/storage/util&#45;types.ts</title>
<path fill="#79cdcd" stroke="#79cdcd" d="M1040.5,-502.4C1040.5,-502.4 909.5,-502.4 909.5,-502.4 903.5,-502.4 897.5,-496.4 897.5,-490.4 897.5,-490.4 897.5,-478.4 897.5,-478.4 897.5,-472.4 903.5,-466.4 909.5,-466.4 909.5,-466.4 1040.5,-466.4 1040.5,-466.4 1046.5,-466.4 1052.5,-472.4 1052.5,-478.4 1052.5,-478.4 1052.5,-490.4 1052.5,-490.4 1052.5,-496.4 1046.5,-502.4 1040.5,-502.4"/>
<text text-anchor="middle" x="975" y="-480.7" font-family="Helvetica,sans-Serif" font-size="14.00">src/storage/util&#45;types.ts</text>
</g>
<!-- src/query&#45;follower/query&#45;follower.ts&#45;&gt;src/storage/util&#45;types.ts -->
<g id="edge36" class="edge">
<title>src/query&#45;follower/query&#45;follower.ts&#45;&gt;src/storage/util&#45;types.ts</title>
<path fill="none" stroke="#528b8b" stroke-width="2" d="M389.28,-174.42C422.89,-197.17 483.19,-236.99 537,-267.4 674.12,-344.89 842.6,-424.3 924.54,-461.95"/>
<polygon fill="#528b8b" stroke="#528b8b" stroke-width="2" points="923.54,-465.35 934.09,-466.34 926.46,-458.99 923.54,-465.35"/>
</g>
<!-- src/query/query.ts&#45;&gt;src/query/query&#45;types.ts -->
<g id="edge41" class="edge">
<title>src/query/query.ts&#45;&gt;src/query/query&#45;types.ts</title>
<path fill="none" stroke="#528b8b" stroke-width="2" d="M730.18,-114.49C840.59,-121.92 1074.78,-137.68 1203.71,-146.36"/>
<polygon fill="#528b8b" stroke="#528b8b" stroke-width="2" points="1203.74,-149.87 1213.95,-147.05 1204.21,-142.89 1203.74,-149.87"/>
</g>
<!-- src/storage/compare.ts&#45;&gt;src/storage/util&#45;types.ts -->
<g id="edge42" class="edge">
<title>src/storage/compare.ts&#45;&gt;src/storage/util&#45;types.ts</title>
<path fill="none" stroke="#528b8b" stroke-width="2" d="M746.34,-512.81C789.24,-507.46 842.84,-500.77 887.25,-495.23"/>
<polygon fill="#528b8b" stroke="#528b8b" stroke-width="2" points="887.96,-498.67 897.45,-493.96 887.09,-491.72 887.96,-498.67"/>
</g>
<!-- src/storage/lock.ts -->
<g id="node23" class="node">
<title>src/storage/lock.ts</title>
<path fill="#79cdcd" stroke="#79cdcd" d="M1345,-395.4C1345,-395.4 1244,-395.4 1244,-395.4 1238,-395.4 1232,-389.4 1232,-383.4 1232,-383.4 1232,-371.4 1232,-371.4 1232,-365.4 1238,-359.4 1244,-359.4 1244,-359.4 1345,-359.4 1345,-359.4 1351,-359.4 1357,-365.4 1357,-371.4 1357,-371.4 1357,-383.4 1357,-383.4 1357,-389.4 1351,-395.4 1345,-395.4"/>
<text text-anchor="middle" x="1294.5" y="-373.7" font-family="Helvetica,sans-Serif" font-size="14.00">src/storage/lock.ts</text>
</g>
<!-- src/storage/storage&#45;async.ts&#45;&gt;src/format&#45;validators/format&#45;validator&#45;types.ts -->
<g id="edge46" class="edge">
<title>src/storage/storage&#45;async.ts&#45;&gt;src/format&#45;validators/format&#45;validator&#45;types.ts</title>
<path fill="none" stroke="#528b8b" stroke-width="2" d="M421.25,-540.44C454.79,-550.16 497.92,-561.53 537,-568.4 743.78,-604.76 985.97,-622.2 1139.54,-630.18"/>
<polygon fill="#528b8b" stroke="#528b8b" stroke-width="2" points="1139.82,-633.7 1149.99,-630.72 1140.18,-626.71 1139.82,-633.7"/>
</g>
<!-- src/storage/storage&#45;async.ts&#45;&gt;src/query/query&#45;types.ts -->
<g id="edge44" class="edge">
<title>src/storage/storage&#45;async.ts&#45;&gt;src/query/query&#45;types.ts</title>
<path fill="none" stroke="#528b8b" stroke-width="2" d="M389.94,-504.33C417.92,-485.45 462.86,-454.82 501,-427.4 517.24,-415.73 519.26,-409.64 537,-400.4 764.08,-282.14 1058.64,-205.17 1204.12,-171.66"/>
<polygon fill="#528b8b" stroke="#528b8b" stroke-width="2" points="1204.94,-175.07 1213.9,-169.42 1203.38,-168.24 1204.94,-175.07"/>
</g>
<!-- src/storage/storage&#45;async.ts&#45;&gt;src/storage/compare.ts -->
<g id="edge47" class="edge">
<title>src/storage/storage&#45;async.ts&#45;&gt;src/storage/compare.ts</title>
<path fill="none" stroke="#528b8b" stroke-width="2" d="M455.19,-522.4C495.12,-522.4 541.62,-522.4 580.91,-522.4"/>
<polygon fill="#528b8b" stroke="#528b8b" stroke-width="2" points="580.99,-525.9 590.99,-522.4 580.99,-518.9 580.99,-525.9"/>
</g>
<!-- src/storage/storage&#45;async.ts&#45;&gt;src/storage/storage&#45;types.ts -->
<g id="edge45" class="edge">
<title>src/storage/storage&#45;async.ts&#45;&gt;src/storage/storage&#45;types.ts</title>
<path fill="none" stroke="#528b8b" stroke-width="2" d="M428.68,-504.34C542.9,-472.94 777.46,-408.44 898.32,-375.21"/>
<polygon fill="#528b8b" stroke="#528b8b" stroke-width="2" points="899.52,-378.51 908.23,-372.49 897.66,-371.76 899.52,-378.51"/>
</g>
<!-- src/storage/storage&#45;async.ts&#45;&gt;src/storage/util&#45;types.ts -->
<g id="edge43" class="edge">
<title>src/storage/storage&#45;async.ts&#45;&gt;src/storage/util&#45;types.ts</title>
<path fill="none" stroke="#528b8b" stroke-width="2" d="M452.87,-540.42C541.73,-555.32 681.25,-570.86 800,-549.4 845.1,-541.25 893.76,-522.12 928.12,-506.7"/>
<polygon fill="#528b8b" stroke="#528b8b" stroke-width="2" points="929.77,-509.8 937.42,-502.47 926.87,-503.43 929.77,-509.8"/>
</g>
<!-- src/storage/storage&#45;cache.ts -->
<g id="node25" class="node">
<title>src/storage/storage&#45;cache.ts</title>
<path fill="#79cdcd" stroke="#79cdcd" d="M175,-128.4C175,-128.4 12,-128.4 12,-128.4 6,-128.4 0,-122.4 0,-116.4 0,-116.4 0,-104.4 0,-104.4 0,-98.4 6,-92.4 12,-92.4 12,-92.4 175,-92.4 175,-92.4 181,-92.4 187,-98.4 187,-104.4 187,-104.4 187,-116.4 187,-116.4 187,-122.4 181,-128.4 175,-128.4"/>
<text text-anchor="middle" x="93.5" y="-106.7" font-family="Helvetica,sans-Serif" font-size="14.00">src/storage/storage&#45;cache.ts</text>
</g>
<!-- src/storage/storage&#45;cache.ts&#45;&gt;src/query&#45;follower/query&#45;follower.ts -->
<g id="edge49" class="edge">
<title>src/storage/storage&#45;cache.ts&#45;&gt;src/query&#45;follower/query&#45;follower.ts</title>
<path fill="none" stroke="#528b8b" stroke-width="2" d="M187.33,-126.43C206.48,-129.73 226.86,-133.25 246.67,-136.67"/>
<polygon fill="#528b8b" stroke="#528b8b" stroke-width="2" points="246.2,-140.14 256.65,-138.39 247.39,-133.24 246.2,-140.14"/>
</g>
<!-- src/storage/storage&#45;cache.ts&#45;&gt;src/query/query&#45;types.ts -->
<g id="edge50" class="edge">
<title>src/storage/storage&#45;cache.ts&#45;&gt;src/query/query&#45;types.ts</title>
<path fill="none" stroke="#528b8b" stroke-width="2" d="M112.45,-92.05C135.59,-69.84 178.2,-33.66 223,-19.4 377.5,29.76 972.41,-27.27 1114,-65.4 1165.88,-79.38 1220.8,-108.36 1256.02,-129.04"/>
<polygon fill="#528b8b" stroke="#528b8b" stroke-width="2" points="1254.59,-132.26 1264.98,-134.36 1258.17,-126.24 1254.59,-132.26"/>
</g>
<!-- src/storage/storage&#45;cache.ts&#45;&gt;src/query/query.ts -->
<g id="edge48" class="edge">
<title>src/storage/storage&#45;cache.ts&#45;&gt;src/query/query.ts</title>
<path fill="none" stroke="#528b8b" stroke-width="2" d="M187.2,-110.4C301.54,-110.4 493.4,-110.4 596.63,-110.4"/>
<polygon fill="#528b8b" stroke="#528b8b" stroke-width="2" points="596.64,-113.9 606.64,-110.4 596.64,-106.9 596.64,-113.9"/>
</g>
<!-- src/storage/storage&#45;cache.ts&#45;&gt;src/storage/storage&#45;async.ts -->
<g id="edge51" class="edge">
<title>src/storage/storage&#45;cache.ts&#45;&gt;src/storage/storage&#45;async.ts</title>
<path fill="none" stroke="#528b8b" stroke-width="2" d="M98.05,-128.75C108.82,-180.58 145.3,-330.62 223,-427.4 247.67,-458.13 284.88,-482.94 314.45,-499.49"/>
<polygon fill="#528b8b" stroke="#528b8b" stroke-width="2" points="312.9,-502.64 323.36,-504.36 316.26,-496.5 312.9,-502.64"/>
</g>
<!-- src/storage/storage&#45;cache.ts&#45;&gt;src/storage/storage&#45;types.ts -->
<g id="edge52" class="edge">
<title>src/storage/storage&#45;cache.ts&#45;&gt;src/storage/storage&#45;types.ts</title>
<path fill="none" stroke="#528b8b" stroke-width="2" d="M143.73,-92.37C264.41,-51.41 581.1,36.18 800,-83.4 896.77,-136.27 947.71,-268.53 966,-326.47"/>
<polygon fill="#528b8b" stroke="#528b8b" stroke-width="2" points="962.76,-327.85 969.04,-336.39 969.45,-325.8 962.76,-327.85"/>
</g>
<!-- src/storage/storage&#45;driver&#45;async&#45;memory.ts&#45;&gt;src/query/query&#45;types.ts -->
<g id="edge54" class="edge">
<title>src/storage/storage&#45;driver&#45;async&#45;memory.ts&#45;&gt;src/query/query&#45;types.ts</title>
<path fill="none" stroke="#528b8b" stroke-width="2" d="M373.4,-382.14C396.8,-343.07 457.77,-251.76 537,-213.4 652.4,-157.52 1029.57,-151.35 1203.8,-151.6"/>
<polygon fill="#528b8b" stroke="#528b8b" stroke-width="2" points="1203.96,-155.11 1213.96,-151.63 1203.97,-148.11 1203.96,-155.11"/>
</g>
<!-- src/storage/storage&#45;driver&#45;async&#45;memory.ts&#45;&gt;src/query/query.ts -->
<g id="edge57" class="edge">
<title>src/storage/storage&#45;driver&#45;async&#45;memory.ts&#45;&gt;src/query/query.ts</title>
<path fill="none" stroke="#528b8b" stroke-width="2" d="M373.62,-382.4C398.13,-342.03 462.32,-242.92 537,-180.4 560.07,-161.09 589.33,-144.8 614.29,-132.81"/>
<polygon fill="#528b8b" stroke="#528b8b" stroke-width="2" points="616.06,-135.85 623.62,-128.43 613.08,-129.51 616.06,-135.85"/>
</g>
<!-- src/storage/storage&#45;driver&#45;async&#45;memory.ts&#45;&gt;src/storage/compare.ts -->
<g id="edge56" class="edge">
<title>src/storage/storage&#45;driver&#45;async&#45;memory.ts&#45;&gt;src/storage/compare.ts</title>
<path fill="none" stroke="#528b8b" stroke-width="2" d="M407.93,-418.4C462.46,-440.25 554.38,-477.08 612.93,-500.54"/>
<polygon fill="#528b8b" stroke="#528b8b" stroke-width="2" points="611.8,-503.86 622.39,-504.33 614.4,-497.36 611.8,-503.86"/>
</g>
<!-- src/storage/storage&#45;driver&#45;async&#45;memory.ts&#45;&gt;src/storage/lock.ts -->
<g id="edge58" class="edge">
<title>src/storage/storage&#45;driver&#45;async&#45;memory.ts&#45;&gt;src/storage/lock.ts</title>
<path fill="none" stroke="#528b8b" stroke-width="2" d="M501.05,-396.99C701.78,-392.03 1067.08,-383 1221.51,-379.18"/>
<polygon fill="#528b8b" stroke="#528b8b" stroke-width="2" points="1221.9,-382.67 1231.81,-378.93 1221.73,-375.68 1221.9,-382.67"/>
</g>
<!-- src/storage/storage&#45;driver&#45;async&#45;memory.ts&#45;&gt;src/storage/storage&#45;types.ts -->
<g id="edge55" class="edge">
<title>src/storage/storage&#45;driver&#45;async&#45;memory.ts&#45;&gt;src/storage/storage&#45;types.ts</title>
<path fill="none" stroke="#528b8b" stroke-width="2" d="M501.19,-389.19C513.3,-388.24 525.37,-387.3 537,-386.4 652.21,-377.55 784.55,-367.94 873.13,-361.58"/>
<polygon fill="#528b8b" stroke="#528b8b" stroke-width="2" points="873.45,-365.07 883.18,-360.86 872.95,-358.09 873.45,-365.07"/>
</g>
<!-- src/storage/storage&#45;driver&#45;async&#45;memory.ts&#45;&gt;src/storage/util&#45;types.ts -->
<g id="edge53" class="edge">
<title>src/storage/storage&#45;driver&#45;async&#45;memory.ts&#45;&gt;src/storage/util&#45;types.ts</title>
<path fill="none" stroke="#528b8b" stroke-width="2" d="M494.07,-418.42C612.85,-434.75 784.52,-458.35 887.11,-472.46"/>
<polygon fill="#528b8b" stroke="#528b8b" stroke-width="2" points="886.74,-475.94 897.12,-473.83 887.69,-469 886.74,-475.94"/>
</g>
<!-- src/storage/storage&#45;types.ts&#45;&gt;src/format&#45;validators/format&#45;validator&#45;types.ts -->
<g id="edge60" class="edge">
<title>src/storage/storage&#45;types.ts&#45;&gt;src/format&#45;validators/format&#45;validator&#45;types.ts</title>
<path fill="none" stroke="#528b8b" stroke-width="2" d="M1002.54,-372.51C1030.98,-392.3 1077.01,-425.45 1114,-457.4 1173.13,-508.5 1236.6,-574.83 1269.93,-610.68"/>
<polygon fill="#528b8b" stroke="#528b8b" stroke-width="2" points="1267.6,-613.31 1276.96,-618.27 1272.73,-608.56 1267.6,-613.31"/>
</g>
<!-- src/storage/storage&#45;types.ts&#45;&gt;src/query/query&#45;types.ts -->
<g id="edge59" class="edge">
<title>src/storage/storage&#45;types.ts&#45;&gt;src/query/query&#45;types.ts</title>
<path fill="none" stroke="#528b8b" stroke-width="2" d="M1066.85,-340.58C1083.11,-336.11 1099.48,-330.2 1114,-322.4 1182.19,-285.76 1243.39,-216.37 1273.61,-178.56"/>
<polygon fill="#528b8b" stroke="#528b8b" stroke-width="2" points="1276.48,-180.57 1279.92,-170.55 1270.98,-176.24 1276.48,-180.57"/>
</g>
<!-- src/storage/storage&#45;types.ts&#45;&gt;src/storage/lock.ts -->
<g id="edge61" class="edge">
<title>src/storage/storage&#45;types.ts&#45;&gt;src/storage/lock.ts</title>
<path fill="none" stroke="#528b8b" stroke-width="2" d="M1066.56,-360.96C1115.8,-364.53 1175.86,-368.88 1221.82,-372.21"/>
<polygon fill="#528b8b" stroke="#528b8b" stroke-width="2" points="1221.77,-375.72 1231.99,-372.95 1222.27,-368.73 1221.77,-375.72"/>
</g>
</g>
</svg>
