<?xml version="1.0" encoding="UTF-8" standalone="no"?>
<!DOCTYPE svg PUBLIC "-//W3C//DTD SVG 1.1//EN"
 "http://www.w3.org/Graphics/SVG/1.1/DTD/svg11.dtd">
<!-- Generated by graphviz version 2.44.1 (20200629.0846)
 -->
<!-- Title: G Pages: 1 -->
<svg width="981pt" height="643pt"
 viewBox="0.00 0.00 981.00 643.35" xmlns="http://www.w3.org/2000/svg" xmlns:xlink="http://www.w3.org/1999/xlink">
<g id="graph0" class="graph" transform="scale(1 1) rotate(0) translate(4 639.35)">
<title>G</title>
<polygon fill="white" stroke="transparent" points="-4,4 -4,-639.35 977,-639.35 977,4 -4,4"/>
<g id="clust1" class="cluster">
<title>cluster8050137510</title>
<path fill="none" stroke="#8b7d6b" stroke-width="2" d="M20,-36.35C20,-36.35 953,-36.35 953,-36.35 959,-36.35 965,-42.35 965,-48.35 965,-48.35 965,-615.35 965,-615.35 965,-621.35 959,-627.35 953,-627.35 953,-627.35 20,-627.35 20,-627.35 14,-627.35 8,-621.35 8,-615.35 8,-615.35 8,-48.35 8,-48.35 8,-42.35 14,-36.35 20,-36.35"/>
<text text-anchor="start" x="476" y="-613.15" font-family="Helvetica,sans-Serif" font-weight="bold" font-size="14.00">src</text>
</g>
<g id="clust2" class="cluster">
<title>cluster5708593272</title>
<path fill="bisque" stroke="#8b7d6b" stroke-width="2" d="M710,-81.35C710,-81.35 796,-81.35 796,-81.35 802,-81.35 808,-87.35 808,-93.35 808,-93.35 808,-144.35 808,-144.35 808,-150.35 802,-156.35 796,-156.35 796,-156.35 710,-156.35 710,-156.35 704,-156.35 698,-150.35 698,-144.35 698,-144.35 698,-93.35 698,-93.35 698,-87.35 704,-81.35 710,-81.35"/>
<text text-anchor="start" x="706" y="-142.15" font-family="Helvetica,sans-Serif" font-weight="bold" font-size="14.00">coreValidators</text>
</g>
<g id="clust3" class="cluster">
<title>cluster1309598077</title>
<path fill="bisque" stroke="#8b7d6b" stroke-width="2" d="M404.5,-96.35C404.5,-96.35 641,-96.35 641,-96.35 647,-96.35 653,-102.35 653,-108.35 653,-108.35 653,-213.35 653,-213.35 653,-219.35 647,-225.35 641,-225.35 641,-225.35 404.5,-225.35 404.5,-225.35 398.5,-225.35 392.5,-219.35 392.5,-213.35 392.5,-213.35 392.5,-108.35 392.5,-108.35 392.5,-102.35 398.5,-96.35 404.5,-96.35"/>
<text text-anchor="start" x="501.75" y="-211.15" font-family="Helvetica,sans-Serif" font-weight="bold" font-size="14.00">crypto</text>
</g>
<g id="clust4" class="cluster">
<title>cluster4561273787</title>
<path fill="bisque" stroke="#8b7d6b" stroke-width="2" d="M220,-180.35C220,-180.35 302,-180.35 302,-180.35 308,-180.35 314,-186.35 314,-192.35 314,-192.35 314,-243.35 314,-243.35 314,-249.35 308,-255.35 302,-255.35 302,-255.35 220,-255.35 220,-255.35 214,-255.35 208,-249.35 208,-243.35 208,-243.35 208,-192.35 208,-192.35 208,-186.35 214,-180.35 220,-180.35"/>
<text text-anchor="start" x="216" y="-241.15" font-family="Helvetica,sans-Serif" font-weight="bold" font-size="14.00">docValidators</text>
</g>
<g id="clust5" class="cluster">
<title>cluster2652589187</title>
<path fill="bisque" stroke="#8b7d6b" stroke-width="2" d="M166,-293.35C166,-293.35 356,-293.35 356,-293.35 362,-293.35 368,-299.35 368,-305.35 368,-305.35 368,-410.35 368,-410.35 368,-416.35 362,-422.35 356,-422.35 356,-422.35 166,-422.35 166,-422.35 160,-422.35 154,-416.35 154,-410.35 154,-410.35 154,-305.35 154,-305.35 154,-299.35 160,-293.35 166,-293.35"/>
<text text-anchor="start" x="236.5" y="-408.15" font-family="Helvetica,sans-Serif" font-weight="bold" font-size="14.00">storage</text>
</g>
<g id="clust6" class="cluster">
<title>cluster1110604010</title>
<path fill="bisque" stroke="#8b7d6b" stroke-width="2" d="M524.5,-250.35C524.5,-250.35 945,-250.35 945,-250.35 951,-250.35 957,-256.35 957,-262.35 957,-262.35 957,-441.35 957,-441.35 957,-447.35 951,-453.35 945,-453.35 945,-453.35 524.5,-453.35 524.5,-453.35 518.5,-453.35 512.5,-447.35 512.5,-441.35 512.5,-441.35 512.5,-262.35 512.5,-262.35 512.5,-256.35 518.5,-250.35 524.5,-250.35"/>
<text text-anchor="start" x="716.75" y="-439.15" font-family="Helvetica,sans-Serif" font-weight="bold" font-size="14.00">types</text>
</g>
<!-- src/base32.ts -->
<g id="node1" class="node">
<title>src/base32.ts</title>
<path fill="#79cdcd" stroke="#79cdcd" d="M778,-220.35C778,-220.35 727,-220.35 727,-220.35 721,-220.35 715,-214.35 715,-208.35 715,-208.35 715,-196.35 715,-196.35 715,-190.35 721,-184.35 727,-184.35 727,-184.35 778,-184.35 778,-184.35 784,-184.35 790,-190.35 790,-196.35 790,-196.35 790,-208.35 790,-208.35 790,-214.35 784,-220.35 778,-220.35"/>
<text text-anchor="middle" x="752.5" y="-198.65" font-family="Helvetica,sans-Serif" font-size="14.00">base32.ts</text>
</g>
<!-- src/types/docTypes.ts -->
<g id="node14" class="node">
<title>src/types/docTypes.ts</title>
<path fill="#79cdcd" stroke="#79cdcd" d="M937,-348.35C937,-348.35 872,-348.35 872,-348.35 866,-348.35 860,-342.35 860,-336.35 860,-336.35 860,-324.35 860,-324.35 860,-318.35 866,-312.35 872,-312.35 872,-312.35 937,-312.35 937,-312.35 943,-312.35 949,-318.35 949,-324.35 949,-324.35 949,-336.35 949,-336.35 949,-342.35 943,-348.35 937,-348.35"/>
<text text-anchor="middle" x="904.5" y="-326.65" font-family="Helvetica,sans-Serif" font-size="14.00">docTypes.ts</text>
</g>
<!-- src/base32.ts&#45;&gt;src/types/docTypes.ts -->
<g id="edge1" class="edge">
<title>src/base32.ts&#45;&gt;src/types/docTypes.ts</title>
<path fill="none" stroke="#528b8b" stroke-width="2" d="M790.04,-215.2C801.53,-220.19 813.85,-226.59 824,-234.35 849.42,-253.78 872,-282.8 886.54,-303.84"/>
<polygon fill="#528b8b" stroke="#528b8b" stroke-width="2" points="883.77,-305.99 892.26,-312.32 889.57,-302.07 883.77,-305.99"/>
</g>
<!-- src/example&#45;app.ts -->
<g id="node2" class="node">
<title>src/example&#45;app.ts</title>
<path fill="#79cdcd" stroke="#79cdcd" d="M114,-391.35C114,-391.35 28,-391.35 28,-391.35 22,-391.35 16,-385.35 16,-379.35 16,-379.35 16,-367.35 16,-367.35 16,-361.35 22,-355.35 28,-355.35 28,-355.35 114,-355.35 114,-355.35 120,-355.35 126,-361.35 126,-367.35 126,-367.35 126,-379.35 126,-379.35 126,-385.35 120,-391.35 114,-391.35"/>
<text text-anchor="middle" x="71" y="-369.65" font-family="Helvetica,sans-Serif" font-size="14.00">example&#45;app.ts</text>
</g>
<!-- src/follower.ts -->
<g id="node3" class="node">
<title>src/follower.ts</title>
<path fill="#79cdcd" stroke="#79cdcd" d="M461,-448.35C461,-448.35 408,-448.35 408,-448.35 402,-448.35 396,-442.35 396,-436.35 396,-436.35 396,-424.35 396,-424.35 396,-418.35 402,-412.35 408,-412.35 408,-412.35 461,-412.35 461,-412.35 467,-412.35 473,-418.35 473,-424.35 473,-424.35 473,-436.35 473,-436.35 473,-442.35 467,-448.35 461,-448.35"/>
<text text-anchor="middle" x="434.5" y="-426.65" font-family="Helvetica,sans-Serif" font-size="14.00">follower.ts</text>
</g>
<!-- src/example&#45;app.ts&#45;&gt;src/follower.ts -->
<g id="edge23" class="edge">
<title>src/example&#45;app.ts&#45;&gt;src/follower.ts</title>
<path fill="none" stroke="#528b8b" stroke-width="2" d="M92.6,-391.37C108.25,-403.83 130.96,-419.37 154,-426.35 232.49,-450.12 329.14,-444.25 385.78,-437.52"/>
<polygon fill="#528b8b" stroke="#528b8b" stroke-width="2" points="386.39,-440.97 395.87,-436.25 385.52,-434.02 386.39,-440.97"/>
</g>
<!-- src/docValidators/es4.ts -->
<g id="node10" class="node">
<title>src/docValidators/es4.ts</title>
<path fill="#79cdcd" stroke="#79cdcd" d="M276,-224.35C276,-224.35 246,-224.35 246,-224.35 240,-224.35 234,-218.35 234,-212.35 234,-212.35 234,-200.35 234,-200.35 234,-194.35 240,-188.35 246,-188.35 246,-188.35 276,-188.35 276,-188.35 282,-188.35 288,-194.35 288,-200.35 288,-200.35 288,-212.35 288,-212.35 288,-218.35 282,-224.35 276,-224.35"/>
<text text-anchor="middle" x="261" y="-202.65" font-family="Helvetica,sans-Serif" font-size="14.00">es4.ts</text>
</g>
<!-- src/example&#45;app.ts&#45;&gt;src/docValidators/es4.ts -->
<g id="edge20" class="edge">
<title>src/example&#45;app.ts&#45;&gt;src/docValidators/es4.ts</title>
<path fill="none" stroke="#528b8b" stroke-width="2" d="M88.31,-355.29C104.41,-337.8 130.02,-310.84 154,-289.35 177.35,-268.41 205.35,-246.62 226.7,-230.62"/>
<polygon fill="#528b8b" stroke="#528b8b" stroke-width="2" points="228.9,-233.35 234.83,-224.57 224.72,-227.74 228.9,-233.35"/>
</g>
<!-- src/storage/storageAsync.ts -->
<g id="node11" class="node">
<title>src/storage/storageAsync.ts</title>
<path fill="#79cdcd" stroke="#79cdcd" d="M305.5,-337.35C305.5,-337.35 216.5,-337.35 216.5,-337.35 210.5,-337.35 204.5,-331.35 204.5,-325.35 204.5,-325.35 204.5,-313.35 204.5,-313.35 204.5,-307.35 210.5,-301.35 216.5,-301.35 216.5,-301.35 305.5,-301.35 305.5,-301.35 311.5,-301.35 317.5,-307.35 317.5,-313.35 317.5,-313.35 317.5,-325.35 317.5,-325.35 317.5,-331.35 311.5,-337.35 305.5,-337.35"/>
<text text-anchor="middle" x="261" y="-315.65" font-family="Helvetica,sans-Serif" font-size="14.00">storageAsync.ts</text>
</g>
<!-- src/example&#45;app.ts&#45;&gt;src/storage/storageAsync.ts -->
<g id="edge22" class="edge">
<title>src/example&#45;app.ts&#45;&gt;src/storage/storageAsync.ts</title>
<path fill="none" stroke="#528b8b" stroke-width="2" d="M125.21,-355.24C134.76,-352.16 144.65,-349.08 154,-346.35 166.93,-342.58 180.83,-338.83 194.17,-335.37"/>
<polygon fill="#528b8b" stroke="#528b8b" stroke-width="2" points="195.42,-338.66 204.24,-332.79 193.69,-331.88 195.42,-338.66"/>
</g>
<!-- src/storage/storageDriverAsyncMemory.ts -->
<g id="node12" class="node">
<title>src/storage/storageDriverAsyncMemory.ts</title>
<path fill="#79cdcd" stroke="#79cdcd" d="M348,-391.35C348,-391.35 174,-391.35 174,-391.35 168,-391.35 162,-385.35 162,-379.35 162,-379.35 162,-367.35 162,-367.35 162,-361.35 168,-355.35 174,-355.35 174,-355.35 348,-355.35 348,-355.35 354,-355.35 360,-361.35 360,-367.35 360,-367.35 360,-379.35 360,-379.35 360,-385.35 354,-391.35 348,-391.35"/>
<text text-anchor="middle" x="261" y="-369.65" font-family="Helvetica,sans-Serif" font-size="14.00">storageDriverAsyncMemory.ts</text>
</g>
<!-- src/example&#45;app.ts&#45;&gt;src/storage/storageDriverAsyncMemory.ts -->
<g id="edge21" class="edge">
<title>src/example&#45;app.ts&#45;&gt;src/storage/storageDriverAsyncMemory.ts</title>
<path fill="none" stroke="#528b8b" stroke-width="2" d="M126.13,-373.35C134.32,-373.35 143.01,-373.35 151.88,-373.35"/>
<polygon fill="#528b8b" stroke="#528b8b" stroke-width="2" points="151.94,-376.85 161.94,-373.35 151.94,-369.85 151.94,-376.85"/>
</g>
<!-- src/example&#45;app.ts&#45;&gt;src/types/docTypes.ts -->
<g id="edge19" class="edge">
<title>src/example&#45;app.ts&#45;&gt;src/types/docTypes.ts</title>
<path fill="none" stroke="#528b8b" stroke-width="2" d="M87.18,-391.52C133.29,-444.54 278.1,-595.35 433.5,-595.35 433.5,-595.35 433.5,-595.35 578,-595.35 687.63,-595.35 737.82,-645.1 824,-577.35 892.11,-523.81 902.75,-411.31 903.83,-358.66"/>
<polygon fill="#528b8b" stroke="#528b8b" stroke-width="2" points="907.34,-358.41 903.94,-348.37 900.34,-358.34 907.34,-358.41"/>
</g>
<!-- src/follower.ts&#45;&gt;src/types/docTypes.ts -->
<g id="edge25" class="edge">
<title>src/follower.ts&#45;&gt;src/types/docTypes.ts</title>
<path fill="none" stroke="#528b8b" stroke-width="2" d="M443.27,-448.43C454.18,-471.22 476.43,-509.37 509,-525.35 571.84,-556.18 765.91,-564.4 824,-525.35 880.06,-487.66 896.61,-402.8 901.48,-358.49"/>
<polygon fill="#528b8b" stroke="#528b8b" stroke-width="2" points="904.98,-358.7 902.46,-348.4 898.01,-358.02 904.98,-358.7"/>
</g>
<!-- src/types/queryTypes.ts -->
<g id="node16" class="node">
<title>src/types/queryTypes.ts</title>
<path fill="#79cdcd" stroke="#79cdcd" d="M791,-402.35C791,-402.35 714,-402.35 714,-402.35 708,-402.35 702,-396.35 702,-390.35 702,-390.35 702,-378.35 702,-378.35 702,-372.35 708,-366.35 714,-366.35 714,-366.35 791,-366.35 791,-366.35 797,-366.35 803,-372.35 803,-378.35 803,-378.35 803,-390.35 803,-390.35 803,-396.35 797,-402.35 791,-402.35"/>
<text text-anchor="middle" x="752.5" y="-380.65" font-family="Helvetica,sans-Serif" font-size="14.00">queryTypes.ts</text>
</g>
<!-- src/follower.ts&#45;&gt;src/types/queryTypes.ts -->
<g id="edge26" class="edge">
<title>src/follower.ts&#45;&gt;src/types/queryTypes.ts</title>
<path fill="none" stroke="#528b8b" stroke-width="2" d="M473.39,-435.63C517.24,-440.58 591.31,-445.31 653,-431.35 674.09,-426.58 695.95,-416.72 713.7,-407.26"/>
<polygon fill="#528b8b" stroke="#528b8b" stroke-width="2" points="715.5,-410.26 722.58,-402.38 712.13,-404.13 715.5,-410.26"/>
</g>
<!-- src/types/storageTypes.ts -->
<g id="node17" class="node">
<title>src/types/storageTypes.ts</title>
<path fill="#79cdcd" stroke="#79cdcd" d="M621.5,-368.35C621.5,-368.35 532.5,-368.35 532.5,-368.35 526.5,-368.35 520.5,-362.35 520.5,-356.35 520.5,-356.35 520.5,-344.35 520.5,-344.35 520.5,-338.35 526.5,-332.35 532.5,-332.35 532.5,-332.35 621.5,-332.35 621.5,-332.35 627.5,-332.35 633.5,-338.35 633.5,-344.35 633.5,-344.35 633.5,-356.35 633.5,-356.35 633.5,-362.35 627.5,-368.35 621.5,-368.35"/>
<text text-anchor="middle" x="577" y="-346.65" font-family="Helvetica,sans-Serif" font-size="14.00">storageTypes.ts</text>
</g>
<!-- src/follower.ts&#45;&gt;src/types/storageTypes.ts -->
<g id="edge27" class="edge">
<title>src/follower.ts&#45;&gt;src/types/storageTypes.ts</title>
<path fill="none" stroke="#528b8b" stroke-width="2" d="M457.73,-412.15C471.84,-401.15 490.82,-387.38 509,-377.35 511.86,-375.77 514.82,-374.24 517.85,-372.76"/>
<polygon fill="#528b8b" stroke="#528b8b" stroke-width="2" points="519.47,-375.86 527.05,-368.46 516.51,-369.52 519.47,-375.86"/>
</g>
<!-- src/types/utilTypes.ts -->
<g id="node18" class="node">
<title>src/types/utilTypes.ts</title>
<path fill="#79cdcd" stroke="#79cdcd" d="M607.5,-422.35C607.5,-422.35 546.5,-422.35 546.5,-422.35 540.5,-422.35 534.5,-416.35 534.5,-410.35 534.5,-410.35 534.5,-398.35 534.5,-398.35 534.5,-392.35 540.5,-386.35 546.5,-386.35 546.5,-386.35 607.5,-386.35 607.5,-386.35 613.5,-386.35 619.5,-392.35 619.5,-398.35 619.5,-398.35 619.5,-410.35 619.5,-410.35 619.5,-416.35 613.5,-422.35 607.5,-422.35"/>
<text text-anchor="middle" x="577" y="-400.65" font-family="Helvetica,sans-Serif" font-size="14.00">utilTypes.ts</text>
</g>
<!-- src/follower.ts&#45;&gt;src/types/utilTypes.ts -->
<g id="edge24" class="edge">
<title>src/follower.ts&#45;&gt;src/types/utilTypes.ts</title>
<path fill="none" stroke="#528b8b" stroke-width="2" d="M473.15,-423.38C488.77,-420.49 507.15,-417.09 524.02,-413.97"/>
<polygon fill="#528b8b" stroke="#528b8b" stroke-width="2" points="525.09,-417.33 534.29,-412.07 523.82,-410.45 525.09,-417.33"/>
</g>
<!-- src/lock.ts -->
<g id="node4" class="node">
<title>src/lock.ts</title>
<path fill="#79cdcd" stroke="#79cdcd" d="M768,-516.35C768,-516.35 737,-516.35 737,-516.35 731,-516.35 725,-510.35 725,-504.35 725,-504.35 725,-492.35 725,-492.35 725,-486.35 731,-480.35 737,-480.35 737,-480.35 768,-480.35 768,-480.35 774,-480.35 780,-486.35 780,-492.35 780,-492.35 780,-504.35 780,-504.35 780,-510.35 774,-516.35 768,-516.35"/>
<text text-anchor="middle" x="752.5" y="-494.65" font-family="Helvetica,sans-Serif" font-size="14.00">lock.ts</text>
</g>
<!-- src/query.ts -->
<g id="node5" class="node">
<title>src/query.ts</title>
<path fill="#79cdcd" stroke="#79cdcd" d="M597,-516.35C597,-516.35 557,-516.35 557,-516.35 551,-516.35 545,-510.35 545,-504.35 545,-504.35 545,-492.35 545,-492.35 545,-486.35 551,-480.35 557,-480.35 557,-480.35 597,-480.35 597,-480.35 603,-480.35 609,-486.35 609,-492.35 609,-492.35 609,-504.35 609,-504.35 609,-510.35 603,-516.35 597,-516.35"/>
<text text-anchor="middle" x="577" y="-494.65" font-family="Helvetica,sans-Serif" font-size="14.00">query.ts</text>
</g>
<!-- src/query.ts&#45;&gt;src/types/docTypes.ts -->
<g id="edge28" class="edge">
<title>src/query.ts&#45;&gt;src/types/docTypes.ts</title>
<path fill="none" stroke="#528b8b" stroke-width="2" d="M609.39,-489.39C629.71,-483.78 656.8,-476.63 681,-471.35 744.04,-457.6 769.73,-481.25 824,-446.35 856.92,-425.18 879.79,-385.03 892.28,-357.98"/>
<polygon fill="#528b8b" stroke="#528b8b" stroke-width="2" points="895.56,-359.22 896.41,-348.66 889.16,-356.39 895.56,-359.22"/>
</g>
<!-- src/query.ts&#45;&gt;src/types/queryTypes.ts -->
<g id="edge29" class="edge">
<title>src/query.ts&#45;&gt;src/types/queryTypes.ts</title>
<path fill="none" stroke="#528b8b" stroke-width="2" d="M609.08,-486.24C623.7,-479.4 640.61,-469.72 653,-457.35 671.3,-439.08 660.98,-422.72 681,-406.35 684.5,-403.49 688.37,-400.99 692.45,-398.83"/>
<polygon fill="#528b8b" stroke="#528b8b" stroke-width="2" points="694.03,-401.95 701.64,-394.58 691.09,-395.6 694.03,-401.95"/>
</g>
<!-- src/coreValidators/addresses.ts -->
<g id="node6" class="node">
<title>src/coreValidators/addresses.ts</title>
<path fill="#79cdcd" stroke="#79cdcd" d="M787,-125.35C787,-125.35 718,-125.35 718,-125.35 712,-125.35 706,-119.35 706,-113.35 706,-113.35 706,-101.35 706,-101.35 706,-95.35 712,-89.35 718,-89.35 718,-89.35 787,-89.35 787,-89.35 793,-89.35 799,-95.35 799,-101.35 799,-101.35 799,-113.35 799,-113.35 799,-119.35 793,-125.35 787,-125.35"/>
<text text-anchor="middle" x="752.5" y="-103.65" font-family="Helvetica,sans-Serif" font-size="14.00">addresses.ts</text>
</g>
<!-- src/coreValidators/addresses.ts&#45;&gt;src/types/docTypes.ts -->
<g id="edge2" class="edge">
<title>src/coreValidators/addresses.ts&#45;&gt;src/types/docTypes.ts</title>
<path fill="none" stroke="#528b8b" stroke-width="2" d="M784,-125.43C797.55,-134.59 812.9,-146.68 824,-160.35 859.6,-204.21 883.45,-266.64 895.13,-302.37"/>
<polygon fill="#528b8b" stroke="#528b8b" stroke-width="2" points="891.86,-303.65 898.23,-312.12 898.54,-301.53 891.86,-303.65"/>
</g>
<!-- src/crypto/crypto.ts -->
<g id="node7" class="node">
<title>src/crypto/crypto.ts</title>
<path fill="#79cdcd" stroke="#79cdcd" d="M456.5,-194.35C456.5,-194.35 412.5,-194.35 412.5,-194.35 406.5,-194.35 400.5,-188.35 400.5,-182.35 400.5,-182.35 400.5,-170.35 400.5,-170.35 400.5,-164.35 406.5,-158.35 412.5,-158.35 412.5,-158.35 456.5,-158.35 456.5,-158.35 462.5,-158.35 468.5,-164.35 468.5,-170.35 468.5,-170.35 468.5,-182.35 468.5,-182.35 468.5,-188.35 462.5,-194.35 456.5,-194.35"/>
<text text-anchor="middle" x="434.5" y="-172.65" font-family="Helvetica,sans-Serif" font-size="14.00">crypto.ts</text>
</g>
<!-- src/crypto/crypto.ts&#45;&gt;src/base32.ts -->
<g id="edge6" class="edge">
<title>src/crypto/crypto.ts&#45;&gt;src/base32.ts</title>
<path fill="none" stroke="#528b8b" stroke-width="2" d="M468.84,-191.41C481.19,-196.24 495.48,-200.94 509,-203.35 576.33,-215.33 655.86,-211.7 704.99,-207.45"/>
<polygon fill="#528b8b" stroke="#528b8b" stroke-width="2" points="705.36,-210.93 715,-206.54 704.72,-203.96 705.36,-210.93"/>
</g>
<!-- src/crypto/crypto.ts&#45;&gt;src/coreValidators/addresses.ts -->
<g id="edge8" class="edge">
<title>src/crypto/crypto.ts&#45;&gt;src/coreValidators/addresses.ts</title>
<path fill="none" stroke="#528b8b" stroke-width="2" d="M445.68,-158.09C457.83,-138.38 480.18,-108.11 509,-95.35 568.8,-68.86 645.19,-78.89 696.09,-90.9"/>
<polygon fill="#528b8b" stroke="#528b8b" stroke-width="2" points="695.38,-94.33 705.92,-93.32 697.05,-87.53 695.38,-94.33"/>
</g>
<!-- src/crypto/cryptoDriverNode.ts -->
<g id="node8" class="node">
<title>src/crypto/cryptoDriverNode.ts</title>
<path fill="#79cdcd" stroke="#79cdcd" d="M633,-194.35C633,-194.35 521,-194.35 521,-194.35 515,-194.35 509,-188.35 509,-182.35 509,-182.35 509,-170.35 509,-170.35 509,-164.35 515,-158.35 521,-158.35 521,-158.35 633,-158.35 633,-158.35 639,-158.35 645,-164.35 645,-170.35 645,-170.35 645,-182.35 645,-182.35 645,-188.35 639,-194.35 633,-194.35"/>
<text text-anchor="middle" x="577" y="-172.65" font-family="Helvetica,sans-Serif" font-size="14.00">cryptoDriverNode.ts</text>
</g>
<!-- src/crypto/crypto.ts&#45;&gt;src/crypto/cryptoDriverNode.ts -->
<g id="edge3" class="edge">
<title>src/crypto/crypto.ts&#45;&gt;src/crypto/cryptoDriverNode.ts</title>
<path fill="none" stroke="#528b8b" stroke-width="2" d="M468.8,-176.35C477.96,-176.35 488.29,-176.35 498.84,-176.35"/>
<polygon fill="#528b8b" stroke="#528b8b" stroke-width="2" points="498.98,-179.85 508.98,-176.35 498.98,-172.85 498.98,-179.85"/>
</g>
<!-- src/crypto/encoding.ts -->
<g id="node9" class="node">
<title>src/crypto/encoding.ts</title>
<path fill="#79cdcd" stroke="#79cdcd" d="M608,-140.35C608,-140.35 546,-140.35 546,-140.35 540,-140.35 534,-134.35 534,-128.35 534,-128.35 534,-116.35 534,-116.35 534,-110.35 540,-104.35 546,-104.35 546,-104.35 608,-104.35 608,-104.35 614,-104.35 620,-110.35 620,-116.35 620,-116.35 620,-128.35 620,-128.35 620,-134.35 614,-140.35 608,-140.35"/>
<text text-anchor="middle" x="577" y="-118.65" font-family="Helvetica,sans-Serif" font-size="14.00">encoding.ts</text>
</g>
<!-- src/crypto/crypto.ts&#45;&gt;src/crypto/encoding.ts -->
<g id="edge7" class="edge">
<title>src/crypto/crypto.ts&#45;&gt;src/crypto/encoding.ts</title>
<path fill="none" stroke="#528b8b" stroke-width="2" d="M468.8,-163.55C485.38,-157.18 505.81,-149.33 524.37,-142.19"/>
<polygon fill="#528b8b" stroke="#528b8b" stroke-width="2" points="525.79,-145.4 533.87,-138.54 523.28,-138.86 525.79,-145.4"/>
</g>
<!-- src/types/cryptoTypes.ts -->
<g id="node13" class="node">
<title>src/types/cryptoTypes.ts</title>
<path fill="#79cdcd" stroke="#79cdcd" d="M792.5,-294.35C792.5,-294.35 712.5,-294.35 712.5,-294.35 706.5,-294.35 700.5,-288.35 700.5,-282.35 700.5,-282.35 700.5,-270.35 700.5,-270.35 700.5,-264.35 706.5,-258.35 712.5,-258.35 712.5,-258.35 792.5,-258.35 792.5,-258.35 798.5,-258.35 804.5,-264.35 804.5,-270.35 804.5,-270.35 804.5,-282.35 804.5,-282.35 804.5,-288.35 798.5,-294.35 792.5,-294.35"/>
<text text-anchor="middle" x="752.5" y="-272.65" font-family="Helvetica,sans-Serif" font-size="14.00">cryptoTypes.ts</text>
</g>
<!-- src/crypto/crypto.ts&#45;&gt;src/types/cryptoTypes.ts -->
<g id="edge5" class="edge">
<title>src/crypto/crypto.ts&#45;&gt;src/types/cryptoTypes.ts</title>
<path fill="none" stroke="#528b8b" stroke-width="2" d="M455.47,-194.5C469.44,-206.13 489.09,-220.47 509,-228.35 569.08,-252.13 589.77,-235.04 653,-248.35 665.29,-250.94 678.29,-254.23 690.68,-257.63"/>
<polygon fill="#528b8b" stroke="#528b8b" stroke-width="2" points="689.88,-261.05 700.46,-260.38 691.78,-254.31 689.88,-261.05"/>
</g>
<!-- src/crypto/crypto.ts&#45;&gt;src/types/docTypes.ts -->
<g id="edge4" class="edge">
<title>src/crypto/crypto.ts&#45;&gt;src/types/docTypes.ts</title>
<path fill="none" stroke="#528b8b" stroke-width="2" d="M442.35,-158.23C452.64,-133.98 474.61,-91.96 509,-74.35 525.58,-65.86 817.37,-72.39 824,-77.35 895.24,-130.61 904.23,-247.57 904.36,-301.75"/>
<polygon fill="#528b8b" stroke="#528b8b" stroke-width="2" points="900.85,-301.99 904.27,-312.01 907.85,-302.04 900.85,-301.99"/>
</g>
<!-- src/crypto/cryptoDriverNode.ts&#45;&gt;src/base32.ts -->
<g id="edge11" class="edge">
<title>src/crypto/cryptoDriverNode.ts&#45;&gt;src/base32.ts</title>
<path fill="none" stroke="#528b8b" stroke-width="2" d="M645.08,-186.4C664.94,-189.38 686.25,-192.57 704.55,-195.31"/>
<polygon fill="#528b8b" stroke="#528b8b" stroke-width="2" points="704.25,-198.81 714.66,-196.83 705.29,-191.88 704.25,-198.81"/>
</g>
<!-- src/crypto/cryptoDriverNode.ts&#45;&gt;src/types/cryptoTypes.ts -->
<g id="edge10" class="edge">
<title>src/crypto/cryptoDriverNode.ts&#45;&gt;src/types/cryptoTypes.ts</title>
<path fill="none" stroke="#528b8b" stroke-width="2" d="M603.12,-194.55C623.56,-208.96 653.43,-229.12 681,-244.35 686.93,-247.62 693.25,-250.85 699.59,-253.92"/>
<polygon fill="#528b8b" stroke="#528b8b" stroke-width="2" points="698.3,-257.18 708.84,-258.29 701.3,-250.85 698.3,-257.18"/>
</g>
<!-- src/crypto/cryptoDriverNode.ts&#45;&gt;src/types/docTypes.ts -->
<g id="edge9" class="edge">
<title>src/crypto/cryptoDriverNode.ts&#45;&gt;src/types/docTypes.ts</title>
<path fill="none" stroke="#528b8b" stroke-width="2" d="M603.31,-194.51C623.37,-207.9 652.65,-225.31 681,-234.35 741.88,-253.76 766.45,-221.57 824,-249.35 849.39,-261.6 871.23,-285.46 885.56,-304.13"/>
<polygon fill="#528b8b" stroke="#528b8b" stroke-width="2" points="882.84,-306.33 891.6,-312.28 888.46,-302.16 882.84,-306.33"/>
</g>
<!-- src/crypto/encoding.ts&#45;&gt;src/base32.ts -->
<g id="edge13" class="edge">
<title>src/crypto/encoding.ts&#45;&gt;src/base32.ts</title>
<path fill="none" stroke="#528b8b" stroke-width="2" d="M620.22,-135.06C631.18,-139.03 642.77,-143.83 653,-149.35 666.69,-156.73 667.62,-162.42 681,-170.35 688.73,-174.93 697.23,-179.3 705.57,-183.26"/>
<polygon fill="#528b8b" stroke="#528b8b" stroke-width="2" points="704.32,-186.53 714.87,-187.54 707.25,-180.18 704.32,-186.53"/>
</g>
<!-- src/crypto/encoding.ts&#45;&gt;src/coreValidators/addresses.ts -->
<g id="edge15" class="edge">
<title>src/crypto/encoding.ts&#45;&gt;src/coreValidators/addresses.ts</title>
<path fill="none" stroke="#528b8b" stroke-width="2" d="M620.44,-118.68C643.09,-116.72 671.25,-114.29 695.65,-112.18"/>
<polygon fill="#528b8b" stroke="#528b8b" stroke-width="2" points="696.19,-115.64 705.85,-111.3 695.59,-108.67 696.19,-115.64"/>
</g>
<!-- src/crypto/encoding.ts&#45;&gt;src/types/cryptoTypes.ts -->
<g id="edge14" class="edge">
<title>src/crypto/encoding.ts&#45;&gt;src/types/cryptoTypes.ts</title>
<path fill="none" stroke="#528b8b" stroke-width="2" d="M620.3,-129.85C632.28,-133.85 644.39,-139.97 653,-149.35 685.67,-184.92 647.57,-219.49 681,-254.35 684,-257.47 687.43,-260.15 691.13,-262.46"/>
<polygon fill="#528b8b" stroke="#528b8b" stroke-width="2" points="689.68,-265.65 700.17,-267.17 692.92,-259.45 689.68,-265.65"/>
</g>
<!-- src/crypto/encoding.ts&#45;&gt;src/types/docTypes.ts -->
<g id="edge12" class="edge">
<title>src/crypto/encoding.ts&#45;&gt;src/types/docTypes.ts</title>
<path fill="none" stroke="#528b8b" stroke-width="2" d="M620.13,-137.27C630.87,-141.15 642.38,-145.35 653,-149.35 665.51,-154.06 667.96,-157.4 681,-160.35 712.07,-167.37 797.53,-152.63 824,-170.35 869.28,-200.65 889.85,-264.7 898.3,-301.92"/>
<polygon fill="#528b8b" stroke="#528b8b" stroke-width="2" points="894.96,-303.04 900.47,-312.1 901.81,-301.59 894.96,-303.04"/>
</g>
<!-- src/docValidators/es4.ts&#45;&gt;src/crypto/crypto.ts -->
<g id="edge18" class="edge">
<title>src/docValidators/es4.ts&#45;&gt;src/crypto/crypto.ts</title>
<path fill="none" stroke="#528b8b" stroke-width="2" d="M288.05,-201.79C315.19,-197.05 358.17,-189.53 390.39,-183.89"/>
<polygon fill="#528b8b" stroke="#528b8b" stroke-width="2" points="391.19,-187.3 400.43,-182.13 389.98,-180.41 391.19,-187.3"/>
</g>
<!-- src/docValidators/es4.ts&#45;&gt;src/types/docTypes.ts -->
<g id="edge16" class="edge">
<title>src/docValidators/es4.ts&#45;&gt;src/types/docTypes.ts</title>
<path fill="none" stroke="#528b8b" stroke-width="2" d="M277.31,-188.27C299.86,-162.84 344.56,-116.87 392.5,-92.35 563.54,-4.85 670.14,48.71 824,-66.35 862.33,-95.01 889.29,-240.01 899.25,-302.09"/>
<polygon fill="#528b8b" stroke="#528b8b" stroke-width="2" points="895.85,-302.99 900.86,-312.33 902.77,-301.9 895.85,-302.99"/>
</g>
<!-- src/types/docValidatorTypes.ts -->
<g id="node15" class="node">
<title>src/types/docValidatorTypes.ts</title>
<path fill="#79cdcd" stroke="#79cdcd" d="M812,-348.35C812,-348.35 693,-348.35 693,-348.35 687,-348.35 681,-342.35 681,-336.35 681,-336.35 681,-324.35 681,-324.35 681,-318.35 687,-312.35 693,-312.35 693,-312.35 812,-312.35 812,-312.35 818,-312.35 824,-318.35 824,-324.35 824,-324.35 824,-336.35 824,-336.35 824,-342.35 818,-348.35 812,-348.35"/>
<text text-anchor="middle" x="752.5" y="-326.65" font-family="Helvetica,sans-Serif" font-size="14.00">docValidatorTypes.ts</text>
</g>
<!-- src/docValidators/es4.ts&#45;&gt;src/types/docValidatorTypes.ts -->
<g id="edge17" class="edge">
<title>src/docValidators/es4.ts&#45;&gt;src/types/docValidatorTypes.ts</title>
<path fill="none" stroke="#528b8b" stroke-width="2" d="M288.47,-211.16C314.82,-215.92 356.42,-223.33 392.5,-229.35 421.4,-234.17 627.45,-256 653,-270.35 669.77,-279.77 665.31,-292.23 681,-303.35 683.06,-304.81 685.21,-306.2 687.42,-307.53"/>
<polygon fill="#528b8b" stroke="#528b8b" stroke-width="2" points="685.76,-310.61 696.21,-312.33 689.11,-304.46 685.76,-310.61"/>
</g>
<!-- src/storage/storageAsync.ts&#45;&gt;src/crypto/crypto.ts -->
<g id="edge35" class="edge">
<title>src/storage/storageAsync.ts&#45;&gt;src/crypto/crypto.ts</title>
<path fill="none" stroke="#528b8b" stroke-width="2" d="M302.12,-301.3C323.01,-290.79 348.26,-276.28 368,-259.35 386.99,-243.07 404.32,-220.61 416.37,-203.15"/>
<polygon fill="#528b8b" stroke="#528b8b" stroke-width="2" points="419.49,-204.79 422.18,-194.54 413.69,-200.88 419.49,-204.79"/>
</g>
<!-- src/storage/storageAsync.ts&#45;&gt;src/types/docTypes.ts -->
<g id="edge31" class="edge">
<title>src/storage/storageAsync.ts&#45;&gt;src/types/docTypes.ts</title>
<path fill="none" stroke="#528b8b" stroke-width="2" d="M317.74,-322C335.99,-325.6 354.92,-332.72 368,-346.35 404.48,-384.37 351.57,-429.16 392.5,-462.35 406.4,-473.62 455.11,-462.65 473,-462.35 553.03,-461.02 574.37,-471.32 653,-456.35 665.98,-453.88 668.18,-449.55 681,-446.35 743.33,-430.8 767.93,-456.7 824,-425.35 852.38,-409.48 874.96,-379.23 888.7,-357.11"/>
<polygon fill="#528b8b" stroke="#528b8b" stroke-width="2" points="891.73,-358.87 893.87,-348.49 885.72,-355.27 891.73,-358.87"/>
</g>
<!-- src/storage/storageAsync.ts&#45;&gt;src/types/docValidatorTypes.ts -->
<g id="edge34" class="edge">
<title>src/storage/storageAsync.ts&#45;&gt;src/types/docValidatorTypes.ts</title>
<path fill="none" stroke="#528b8b" stroke-width="2" d="M317.65,-303.85C394.34,-284.99 536.26,-259.05 653,-288.35 666.69,-291.79 668.16,-297.48 681,-303.35 684.75,-305.07 688.65,-306.77 692.6,-308.44"/>
<polygon fill="#528b8b" stroke="#528b8b" stroke-width="2" points="691.29,-311.68 701.87,-312.25 693.95,-305.21 691.29,-311.68"/>
</g>
<!-- src/storage/storageAsync.ts&#45;&gt;src/types/queryTypes.ts -->
<g id="edge32" class="edge">
<title>src/storage/storageAsync.ts&#45;&gt;src/types/queryTypes.ts</title>
<path fill="none" stroke="#528b8b" stroke-width="2" d="M317.64,-310.98C411.74,-297.96 597.5,-277.47 653,-309.35 674.42,-321.65 662.18,-341.36 681,-357.35 684.62,-360.42 688.62,-363.17 692.83,-365.61"/>
<polygon fill="#528b8b" stroke="#528b8b" stroke-width="2" points="691.22,-368.72 701.71,-370.23 694.45,-362.51 691.22,-368.72"/>
</g>
<!-- src/storage/storageAsync.ts&#45;&gt;src/types/storageTypes.ts -->
<g id="edge33" class="edge">
<title>src/storage/storageAsync.ts&#45;&gt;src/types/storageTypes.ts</title>
<path fill="none" stroke="#528b8b" stroke-width="2" d="M317.78,-324.86C371.72,-330.18 453.47,-338.25 510.49,-343.88"/>
<polygon fill="#528b8b" stroke="#528b8b" stroke-width="2" points="510.19,-347.37 520.48,-344.87 510.87,-340.4 510.19,-347.37"/>
</g>
<!-- src/storage/storageAsync.ts&#45;&gt;src/types/utilTypes.ts -->
<g id="edge30" class="edge">
<title>src/storage/storageAsync.ts&#45;&gt;src/types/utilTypes.ts</title>
<path fill="none" stroke="#528b8b" stroke-width="2" d="M317.62,-333.27C333.88,-337.4 351.67,-341.99 368,-346.35 421.49,-360.62 482.47,-377.72 524.51,-389.64"/>
<polygon fill="#528b8b" stroke="#528b8b" stroke-width="2" points="523.67,-393.04 534.24,-392.41 525.58,-386.31 523.67,-393.04"/>
</g>
<!-- src/storage/storageDriverAsyncMemory.ts&#45;&gt;src/lock.ts -->
<g id="edge41" class="edge">
<title>src/storage/storageDriverAsyncMemory.ts&#45;&gt;src/lock.ts</title>
<path fill="none" stroke="#528b8b" stroke-width="2" d="M360.17,-388.97C362.93,-390.89 365.56,-393.01 368,-395.35 400.11,-426.11 361.51,-460.46 392.5,-492.35 430,-530.94 455.7,-517.95 509,-525.35 572.39,-534.15 589.57,-533.89 653,-525.35 673.91,-522.54 696.65,-516.51 715.02,-510.86"/>
<polygon fill="#528b8b" stroke="#528b8b" stroke-width="2" points="716.25,-514.14 724.73,-507.78 714.14,-507.46 716.25,-514.14"/>
</g>
<!-- src/storage/storageDriverAsyncMemory.ts&#45;&gt;src/query.ts -->
<g id="edge40" class="edge">
<title>src/storage/storageDriverAsyncMemory.ts&#45;&gt;src/query.ts</title>
<path fill="none" stroke="#528b8b" stroke-width="2" d="M360.45,-389.48C363.1,-391.26 365.63,-393.21 368,-395.35 394.67,-419.4 365.07,-449.17 392.5,-472.35 431.83,-505.6 493.72,-507.43 534.58,-504.14"/>
<polygon fill="#528b8b" stroke="#528b8b" stroke-width="2" points="535.11,-507.6 544.74,-503.18 534.46,-500.64 535.11,-507.6"/>
</g>
<!-- src/storage/storageDriverAsyncMemory.ts&#45;&gt;src/types/docTypes.ts -->
<g id="edge37" class="edge">
<title>src/storage/storageDriverAsyncMemory.ts&#45;&gt;src/types/docTypes.ts</title>
<path fill="none" stroke="#528b8b" stroke-width="2" d="M360.06,-388.3C362.9,-390.4 365.56,-392.74 368,-395.35 421.68,-452.67 333.24,-518.81 392.5,-570.35 401.54,-578.22 814.28,-577.37 824,-570.35 892.27,-521.05 902.86,-410.85 903.89,-358.72"/>
<polygon fill="#528b8b" stroke="#528b8b" stroke-width="2" points="907.39,-358.55 903.98,-348.52 900.39,-358.49 907.39,-358.55"/>
</g>
<!-- src/storage/storageDriverAsyncMemory.ts&#45;&gt;src/types/queryTypes.ts -->
<g id="edge38" class="edge">
<title>src/storage/storageDriverAsyncMemory.ts&#45;&gt;src/types/queryTypes.ts</title>
<path fill="none" stroke="#528b8b" stroke-width="2" d="M332.21,-355.31C428.99,-331.97 597.69,-297.25 653,-323.35 670.7,-331.7 665.11,-345.91 681,-357.35 684.63,-359.96 688.54,-362.36 692.6,-364.55"/>
<polygon fill="#528b8b" stroke="#528b8b" stroke-width="2" points="691.14,-367.73 701.66,-369.02 694.24,-361.45 691.14,-367.73"/>
</g>
<!-- src/storage/storageDriverAsyncMemory.ts&#45;&gt;src/types/storageTypes.ts -->
<g id="edge39" class="edge">
<title>src/storage/storageDriverAsyncMemory.ts&#45;&gt;src/types/storageTypes.ts</title>
<path fill="none" stroke="#528b8b" stroke-width="2" d="M360.06,-366.17C408.87,-362.59 466.57,-358.36 510.04,-355.18"/>
<polygon fill="#528b8b" stroke="#528b8b" stroke-width="2" points="510.5,-358.66 520.21,-354.44 509.98,-351.68 510.5,-358.66"/>
</g>
<!-- src/storage/storageDriverAsyncMemory.ts&#45;&gt;src/types/utilTypes.ts -->
<g id="edge36" class="edge">
<title>src/storage/storageDriverAsyncMemory.ts&#45;&gt;src/types/utilTypes.ts</title>
<path fill="none" stroke="#528b8b" stroke-width="2" d="M360.06,-383.03C414.48,-388.4 479.96,-394.87 524.44,-399.26"/>
<polygon fill="#528b8b" stroke="#528b8b" stroke-width="2" points="524.14,-402.75 534.44,-400.25 524.83,-395.78 524.14,-402.75"/>
</g>
<!-- src/types/cryptoTypes.ts&#45;&gt;src/types/docTypes.ts -->
<g id="edge42" class="edge">
<title>src/types/cryptoTypes.ts&#45;&gt;src/types/docTypes.ts</title>
<path fill="none" stroke="#528b8b" stroke-width="2" d="M803.87,-294.48C818.67,-299.81 834.91,-305.66 849.9,-311.05"/>
<polygon fill="#528b8b" stroke="#528b8b" stroke-width="2" points="848.96,-314.43 859.55,-314.53 851.33,-307.85 848.96,-314.43"/>
</g>
<!-- src/types/docValidatorTypes.ts&#45;&gt;src/types/docTypes.ts -->
<g id="edge43" class="edge">
<title>src/types/docValidatorTypes.ts&#45;&gt;src/types/docTypes.ts</title>
<path fill="none" stroke="#528b8b" stroke-width="2" d="M824.11,-330.35C832.66,-330.35 841.28,-330.35 849.54,-330.35"/>
<polygon fill="#528b8b" stroke="#528b8b" stroke-width="2" points="849.76,-333.85 859.76,-330.35 849.76,-326.85 849.76,-333.85"/>
</g>
<!-- src/types/queryTypes.ts&#45;&gt;src/types/docTypes.ts -->
<g id="edge44" class="edge">
<title>src/types/queryTypes.ts&#45;&gt;src/types/docTypes.ts</title>
<path fill="none" stroke="#528b8b" stroke-width="2" d="M803.03,-366.52C818.01,-361.13 834.53,-355.18 849.77,-349.69"/>
<polygon fill="#528b8b" stroke="#528b8b" stroke-width="2" points="851.35,-352.84 859.57,-346.16 848.98,-346.26 851.35,-352.84"/>
</g>
<!-- src/types/storageTypes.ts&#45;&gt;src/lock.ts -->
<g id="edge47" class="edge">
<title>src/types/storageTypes.ts&#45;&gt;src/lock.ts</title>
<path fill="none" stroke="#528b8b" stroke-width="2" d="M633.81,-363.96C640.89,-367.46 647.54,-371.85 653,-377.35 679.52,-404.1 657.01,-428.3 681,-457.35 690.2,-468.48 703.26,-477.25 715.64,-483.78"/>
<polygon fill="#528b8b" stroke="#528b8b" stroke-width="2" points="714.39,-487.06 724.91,-488.33 717.47,-480.78 714.39,-487.06"/>
</g>
<!-- src/types/storageTypes.ts&#45;&gt;src/types/docTypes.ts -->
<g id="edge45" class="edge">
<title>src/types/storageTypes.ts&#45;&gt;src/types/docTypes.ts</title>
<path fill="none" stroke="#528b8b" stroke-width="2" d="M633.77,-366.56C640.53,-369.63 647.12,-373.2 653,-377.35 669,-388.62 663.3,-402.99 681,-411.35 738.48,-438.47 765.4,-435.94 824,-411.35 850.15,-400.37 872.03,-376.13 886.17,-357.01"/>
<polygon fill="#528b8b" stroke="#528b8b" stroke-width="2" points="889.17,-358.83 892.11,-348.65 883.47,-354.77 889.17,-358.83"/>
</g>
<!-- src/types/storageTypes.ts&#45;&gt;src/types/queryTypes.ts -->
<g id="edge46" class="edge">
<title>src/types/storageTypes.ts&#45;&gt;src/types/queryTypes.ts</title>
<path fill="none" stroke="#528b8b" stroke-width="2" d="M633.85,-361.29C652.41,-364.93 673.14,-368.99 691.96,-372.68"/>
<polygon fill="#528b8b" stroke="#528b8b" stroke-width="2" points="691.42,-376.14 701.9,-374.63 692.76,-369.27 691.42,-376.14"/>
</g>
</g>
</svg>
