<?xml version="1.0" encoding="UTF-8" standalone="no"?>
<!DOCTYPE svg PUBLIC "-//W3C//DTD SVG 1.1//EN"
 "http://www.w3.org/Graphics/SVG/1.1/DTD/svg11.dtd">
<!-- Generated by graphviz version 2.44.1 (20200629.0846)
 -->
<!-- Title: G Pages: 1 -->
<svg width="1602pt" height="863pt"
 viewBox="0.00 0.00 1602.00 862.59" xmlns="http://www.w3.org/2000/svg" xmlns:xlink="http://www.w3.org/1999/xlink">
<g id="graph0" class="graph" transform="scale(1 1) rotate(0) translate(4 858.59)">
<title>G</title>
<polygon fill="white" stroke="transparent" points="-4,4 -4,-858.59 1598,-858.59 1598,4 -4,4"/>
<!-- src/example&#45;app.ts -->
<g id="node1" class="node">
<title>src/example&#45;app.ts</title>
<path fill="#79cdcd" stroke="#79cdcd" d="M119,-452.59C119,-452.59 12,-452.59 12,-452.59 6,-452.59 0,-446.59 0,-440.59 0,-440.59 0,-428.59 0,-428.59 0,-422.59 6,-416.59 12,-416.59 12,-416.59 119,-416.59 119,-416.59 125,-416.59 131,-422.59 131,-428.59 131,-428.59 131,-440.59 131,-440.59 131,-446.59 125,-452.59 119,-452.59"/>
<text text-anchor="middle" x="65.5" y="-430.89" font-family="Helvetica,sans-Serif" font-size="14.00">src/example&#45;app.ts</text>
</g>
<!-- src/crypto/crypto&#45;driver&#45;tweetnacl.ts -->
<g id="node8" class="node">
<title>src/crypto/crypto&#45;driver&#45;tweetnacl.ts</title>
<path fill="#79cdcd" stroke="#79cdcd" d="M385,-692.59C385,-692.59 179,-692.59 179,-692.59 173,-692.59 167,-686.59 167,-680.59 167,-680.59 167,-668.59 167,-668.59 167,-662.59 173,-656.59 179,-656.59 179,-656.59 385,-656.59 385,-656.59 391,-656.59 397,-662.59 397,-668.59 397,-668.59 397,-680.59 397,-680.59 397,-686.59 391,-692.59 385,-692.59"/>
<text text-anchor="middle" x="282" y="-670.89" font-family="Helvetica,sans-Serif" font-size="14.00">src/crypto/crypto&#45;driver&#45;tweetnacl.ts</text>
</g>
<!-- src/example&#45;app.ts&#45;&gt;src/crypto/crypto&#45;driver&#45;tweetnacl.ts -->
<g id="edge17" class="edge">
<title>src/example&#45;app.ts&#45;&gt;src/crypto/crypto&#45;driver&#45;tweetnacl.ts</title>
<path fill="none" stroke="#528b8b" stroke-width="2" d="M76.74,-452.99C93.43,-482.09 128.51,-539.7 167,-581.59 191.01,-607.72 222.54,-632.88 246.35,-650.43"/>
<polygon fill="#528b8b" stroke="#528b8b" stroke-width="2" points="244.6,-653.48 254.75,-656.54 248.72,-647.82 244.6,-653.48"/>
</g>
<!-- src/crypto/crypto.ts -->
<g id="node10" class="node">
<title>src/crypto/crypto.ts</title>
<path fill="#79cdcd" stroke="#79cdcd" d="M625,-624.59C625,-624.59 519,-624.59 519,-624.59 513,-624.59 507,-618.59 507,-612.59 507,-612.59 507,-600.59 507,-600.59 507,-594.59 513,-588.59 519,-588.59 519,-588.59 625,-588.59 625,-588.59 631,-588.59 637,-594.59 637,-600.59 637,-600.59 637,-612.59 637,-612.59 637,-618.59 631,-624.59 625,-624.59"/>
<text text-anchor="middle" x="572" y="-602.89" font-family="Helvetica,sans-Serif" font-size="14.00">src/crypto/crypto.ts</text>
</g>
<!-- src/example&#45;app.ts&#45;&gt;src/crypto/crypto.ts -->
<g id="edge16" class="edge">
<title>src/example&#45;app.ts&#45;&gt;src/crypto/crypto.ts</title>
<path fill="none" stroke="#528b8b" stroke-width="2" d="M102.26,-452.78C121.23,-462.05 145.08,-473.12 167,-481.59 280.03,-525.27 415.23,-564.58 497.04,-587.01"/>
<polygon fill="#528b8b" stroke="#528b8b" stroke-width="2" points="496.18,-590.4 506.75,-589.66 498.02,-583.65 496.18,-590.4"/>
</g>
<!-- src/format&#45;validators/format&#45;validator&#45;es4.ts -->
<g id="node12" class="node">
<title>src/format&#45;validators/format&#45;validator&#45;es4.ts</title>
<path fill="#79cdcd" stroke="#79cdcd" d="M1013,-508.59C1013,-508.59 759,-508.59 759,-508.59 753,-508.59 747,-502.59 747,-496.59 747,-496.59 747,-484.59 747,-484.59 747,-478.59 753,-472.59 759,-472.59 759,-472.59 1013,-472.59 1013,-472.59 1019,-472.59 1025,-478.59 1025,-484.59 1025,-484.59 1025,-496.59 1025,-496.59 1025,-502.59 1019,-508.59 1013,-508.59"/>
<text text-anchor="middle" x="886" y="-486.89" font-family="Helvetica,sans-Serif" font-size="14.00">src/format&#45;validators/format&#45;validator&#45;es4.ts</text>
</g>
<!-- src/example&#45;app.ts&#45;&gt;src/format&#45;validators/format&#45;validator&#45;es4.ts -->
<g id="edge13" class="edge">
<title>src/example&#45;app.ts&#45;&gt;src/format&#45;validators/format&#45;validator&#45;es4.ts</title>
<path fill="none" stroke="#528b8b" stroke-width="2" d="M131.07,-439.01C260.92,-447.89 556.62,-468.12 736.69,-480.44"/>
<polygon fill="#528b8b" stroke="#528b8b" stroke-width="2" points="736.56,-483.94 746.78,-481.13 737.04,-476.96 736.56,-483.94"/>
</g>
<!-- src/storage/query&#45;follower.ts -->
<g id="node17" class="node">
<title>src/storage/query&#45;follower.ts</title>
<path fill="#79cdcd" stroke="#79cdcd" d="M363,-149.59C363,-149.59 201,-149.59 201,-149.59 195,-149.59 189,-143.59 189,-137.59 189,-137.59 189,-125.59 189,-125.59 189,-119.59 195,-113.59 201,-113.59 201,-113.59 363,-113.59 363,-113.59 369,-113.59 375,-119.59 375,-125.59 375,-125.59 375,-137.59 375,-137.59 375,-143.59 369,-149.59 363,-149.59"/>
<text text-anchor="middle" x="282" y="-127.89" font-family="Helvetica,sans-Serif" font-size="14.00">src/storage/query&#45;follower.ts</text>
</g>
<!-- src/example&#45;app.ts&#45;&gt;src/storage/query&#45;follower.ts -->
<g id="edge18" class="edge">
<title>src/example&#45;app.ts&#45;&gt;src/storage/query&#45;follower.ts</title>
<path fill="none" stroke="#528b8b" stroke-width="2" d="M73.21,-416.54C87.19,-380.37 121.88,-297.34 167,-237.59 190.7,-206.2 224.3,-176.24 248.88,-156.23"/>
<polygon fill="#528b8b" stroke="#528b8b" stroke-width="2" points="251.24,-158.83 256.85,-149.84 246.86,-153.37 251.24,-158.83"/>
</g>
<!-- src/storage/storage&#45;async.ts -->
<g id="node20" class="node">
<title>src/storage/storage&#45;async.ts</title>
<path fill="#79cdcd" stroke="#79cdcd" d="M653,-359.59C653,-359.59 491,-359.59 491,-359.59 485,-359.59 479,-353.59 479,-347.59 479,-347.59 479,-335.59 479,-335.59 479,-329.59 485,-323.59 491,-323.59 491,-323.59 653,-323.59 653,-323.59 659,-323.59 665,-329.59 665,-335.59 665,-335.59 665,-347.59 665,-347.59 665,-353.59 659,-359.59 653,-359.59"/>
<text text-anchor="middle" x="572" y="-337.89" font-family="Helvetica,sans-Serif" font-size="14.00">src/storage/storage&#45;async.ts</text>
</g>
<!-- src/example&#45;app.ts&#45;&gt;src/storage/storage&#45;async.ts -->
<g id="edge15" class="edge">
<title>src/example&#45;app.ts&#45;&gt;src/storage/storage&#45;async.ts</title>
<path fill="none" stroke="#528b8b" stroke-width="2" d="M131.16,-422.67C216.59,-406.92 368.01,-379.01 468.96,-360.4"/>
<polygon fill="#528b8b" stroke="#528b8b" stroke-width="2" points="469.67,-363.83 478.87,-358.57 468.4,-356.95 469.67,-363.83"/>
</g>
<!-- src/storage/storage&#45;driver&#45;async&#45;memory.ts -->
<g id="node21" class="node">
<title>src/storage/storage&#45;driver&#45;async&#45;memory.ts</title>
<path fill="#79cdcd" stroke="#79cdcd" d="M699,-218.59C699,-218.59 445,-218.59 445,-218.59 439,-218.59 433,-212.59 433,-206.59 433,-206.59 433,-194.59 433,-194.59 433,-188.59 439,-182.59 445,-182.59 445,-182.59 699,-182.59 699,-182.59 705,-182.59 711,-188.59 711,-194.59 711,-194.59 711,-206.59 711,-206.59 711,-212.59 705,-218.59 699,-218.59"/>
<text text-anchor="middle" x="572" y="-196.89" font-family="Helvetica,sans-Serif" font-size="14.00">src/storage/storage&#45;driver&#45;async&#45;memory.ts</text>
</g>
<!-- src/example&#45;app.ts&#45;&gt;src/storage/storage&#45;driver&#45;async&#45;memory.ts -->
<g id="edge14" class="edge">
<title>src/example&#45;app.ts&#45;&gt;src/storage/storage&#45;driver&#45;async&#45;memory.ts</title>
<path fill="none" stroke="#528b8b" stroke-width="2" d="M92.23,-416.5C112.12,-402.94 140.62,-384.42 167,-370.59 285.2,-308.65 431.05,-251.8 511.19,-222.13"/>
<polygon fill="#528b8b" stroke="#528b8b" stroke-width="2" points="512.46,-225.39 520.64,-218.64 510.04,-218.82 512.46,-225.39"/>
</g>
<!-- src/core&#45;validators/addresses.ts -->
<g id="node2" class="node">
<title>src/core&#45;validators/addresses.ts</title>
<path fill="#79cdcd" stroke="#79cdcd" d="M1297,-578.59C1297,-578.59 1114,-578.59 1114,-578.59 1108,-578.59 1102,-572.59 1102,-566.59 1102,-566.59 1102,-554.59 1102,-554.59 1102,-548.59 1108,-542.59 1114,-542.59 1114,-542.59 1297,-542.59 1297,-542.59 1303,-542.59 1309,-548.59 1309,-554.59 1309,-554.59 1309,-566.59 1309,-566.59 1309,-572.59 1303,-578.59 1297,-578.59"/>
<text text-anchor="middle" x="1205.5" y="-556.89" font-family="Helvetica,sans-Serif" font-size="14.00">src/core&#45;validators/addresses.ts</text>
</g>
<!-- src/core&#45;validators/characters.ts -->
<g id="node3" class="node">
<title>src/core&#45;validators/characters.ts</title>
<path fill="#79cdcd" stroke="#79cdcd" d="M1582,-486.59C1582,-486.59 1398,-486.59 1398,-486.59 1392,-486.59 1386,-480.59 1386,-474.59 1386,-474.59 1386,-462.59 1386,-462.59 1386,-456.59 1392,-450.59 1398,-450.59 1398,-450.59 1582,-450.59 1582,-450.59 1588,-450.59 1594,-456.59 1594,-462.59 1594,-462.59 1594,-474.59 1594,-474.59 1594,-480.59 1588,-486.59 1582,-486.59"/>
<text text-anchor="middle" x="1490" y="-464.89" font-family="Helvetica,sans-Serif" font-size="14.00">src/core&#45;validators/characters.ts</text>
</g>
<!-- src/core&#45;validators/addresses.ts&#45;&gt;src/core&#45;validators/characters.ts -->
<g id="edge1" class="edge">
<title>src/core&#45;validators/addresses.ts&#45;&gt;src/core&#45;validators/characters.ts</title>
<path fill="none" stroke="#528b8b" stroke-width="2" d="M1261.98,-542.52C1308.52,-527.37 1375.08,-505.69 1424.09,-489.73"/>
<polygon fill="#528b8b" stroke="#528b8b" stroke-width="2" points="1425.23,-493.04 1433.65,-486.62 1423.06,-486.38 1425.23,-493.04"/>
</g>
<!-- src/core&#45;validators/checkers.ts -->
<g id="node4" class="node">
<title>src/core&#45;validators/checkers.ts</title>
<path fill="#79cdcd" stroke="#79cdcd" d="M1293,-486.59C1293,-486.59 1118,-486.59 1118,-486.59 1112,-486.59 1106,-480.59 1106,-474.59 1106,-474.59 1106,-462.59 1106,-462.59 1106,-456.59 1112,-450.59 1118,-450.59 1118,-450.59 1293,-450.59 1293,-450.59 1299,-450.59 1305,-456.59 1305,-462.59 1305,-462.59 1305,-474.59 1305,-474.59 1305,-480.59 1299,-486.59 1293,-486.59"/>
<text text-anchor="middle" x="1205.5" y="-464.89" font-family="Helvetica,sans-Serif" font-size="14.00">src/core&#45;validators/checkers.ts</text>
</g>
<!-- src/core&#45;validators/checkers.ts&#45;&gt;src/core&#45;validators/characters.ts -->
<g id="edge2" class="edge">
<title>src/core&#45;validators/checkers.ts&#45;&gt;src/core&#45;validators/characters.ts</title>
<path fill="none" stroke="#528b8b" stroke-width="2" d="M1305.3,-468.59C1328.04,-468.59 1352.38,-468.59 1375.67,-468.59"/>
<polygon fill="#528b8b" stroke="#528b8b" stroke-width="2" points="1375.94,-472.09 1385.94,-468.59 1375.94,-465.09 1375.94,-472.09"/>
</g>
<!-- src/crypto/base32.ts -->
<g id="node5" class="node">
<title>src/crypto/base32.ts</title>
<path fill="#79cdcd" stroke="#79cdcd" d="M1262,-670.59C1262,-670.59 1149,-670.59 1149,-670.59 1143,-670.59 1137,-664.59 1137,-658.59 1137,-658.59 1137,-646.59 1137,-646.59 1137,-640.59 1143,-634.59 1149,-634.59 1149,-634.59 1262,-634.59 1262,-634.59 1268,-634.59 1274,-640.59 1274,-646.59 1274,-646.59 1274,-658.59 1274,-658.59 1274,-664.59 1268,-670.59 1262,-670.59"/>
<text text-anchor="middle" x="1205.5" y="-648.89" font-family="Helvetica,sans-Serif" font-size="14.00">src/crypto/base32.ts</text>
</g>
<!-- src/crypto/crypto&#45;driver&#45;chloride.ts -->
<g id="node6" class="node">
<title>src/crypto/crypto&#45;driver&#45;chloride.ts</title>
<path fill="#79cdcd" stroke="#79cdcd" d="M1303.5,-854.59C1303.5,-854.59 1107.5,-854.59 1107.5,-854.59 1101.5,-854.59 1095.5,-848.59 1095.5,-842.59 1095.5,-842.59 1095.5,-830.59 1095.5,-830.59 1095.5,-824.59 1101.5,-818.59 1107.5,-818.59 1107.5,-818.59 1303.5,-818.59 1303.5,-818.59 1309.5,-818.59 1315.5,-824.59 1315.5,-830.59 1315.5,-830.59 1315.5,-842.59 1315.5,-842.59 1315.5,-848.59 1309.5,-854.59 1303.5,-854.59"/>
<text text-anchor="middle" x="1205.5" y="-832.89" font-family="Helvetica,sans-Serif" font-size="14.00">src/crypto/crypto&#45;driver&#45;chloride.ts</text>
</g>
<!-- src/crypto/crypto&#45;types.ts -->
<g id="node9" class="node">
<title>src/crypto/crypto&#45;types.ts</title>
<path fill="#79cdcd" stroke="#79cdcd" d="M1561.5,-716.59C1561.5,-716.59 1418.5,-716.59 1418.5,-716.59 1412.5,-716.59 1406.5,-710.59 1406.5,-704.59 1406.5,-704.59 1406.5,-692.59 1406.5,-692.59 1406.5,-686.59 1412.5,-680.59 1418.5,-680.59 1418.5,-680.59 1561.5,-680.59 1561.5,-680.59 1567.5,-680.59 1573.5,-686.59 1573.5,-692.59 1573.5,-692.59 1573.5,-704.59 1573.5,-704.59 1573.5,-710.59 1567.5,-716.59 1561.5,-716.59"/>
<text text-anchor="middle" x="1490" y="-694.89" font-family="Helvetica,sans-Serif" font-size="14.00">src/crypto/crypto&#45;types.ts</text>
</g>
<!-- src/crypto/crypto&#45;driver&#45;chloride.ts&#45;&gt;src/crypto/crypto&#45;types.ts -->
<g id="edge3" class="edge">
<title>src/crypto/crypto&#45;driver&#45;chloride.ts&#45;&gt;src/crypto/crypto&#45;types.ts</title>
<path fill="none" stroke="#528b8b" stroke-width="2" d="M1315.61,-821.92C1327.48,-818.61 1339.17,-814.56 1350,-809.59 1395.48,-788.74 1439.06,-749.82 1464.94,-724.06"/>
<polygon fill="#528b8b" stroke="#528b8b" stroke-width="2" points="1467.53,-726.42 1472.07,-716.84 1462.55,-721.5 1467.53,-726.42"/>
</g>
<!-- src/crypto/crypto&#45;driver&#45;node.ts -->
<g id="node7" class="node">
<title>src/crypto/crypto&#45;driver&#45;node.ts</title>
<path fill="#79cdcd" stroke="#79cdcd" d="M1295,-800.59C1295,-800.59 1116,-800.59 1116,-800.59 1110,-800.59 1104,-794.59 1104,-788.59 1104,-788.59 1104,-776.59 1104,-776.59 1104,-770.59 1110,-764.59 1116,-764.59 1116,-764.59 1295,-764.59 1295,-764.59 1301,-764.59 1307,-770.59 1307,-776.59 1307,-776.59 1307,-788.59 1307,-788.59 1307,-794.59 1301,-800.59 1295,-800.59"/>
<text text-anchor="middle" x="1205.5" y="-778.89" font-family="Helvetica,sans-Serif" font-size="14.00">src/crypto/crypto&#45;driver&#45;node.ts</text>
</g>
<!-- src/crypto/crypto&#45;driver&#45;node.ts&#45;&gt;src/crypto/crypto&#45;types.ts -->
<g id="edge4" class="edge">
<title>src/crypto/crypto&#45;driver&#45;node.ts&#45;&gt;src/crypto/crypto&#45;types.ts</title>
<path fill="none" stroke="#528b8b" stroke-width="2" d="M1296.55,-764.52C1314.38,-760.38 1332.87,-755.68 1350,-750.59 1378.8,-742.04 1410.2,-730.49 1435.86,-720.45"/>
<polygon fill="#528b8b" stroke="#528b8b" stroke-width="2" points="1437.38,-723.61 1445.4,-716.68 1434.81,-717.1 1437.38,-723.61"/>
</g>
<!-- src/crypto/crypto&#45;driver&#45;tweetnacl.ts&#45;&gt;src/crypto/crypto&#45;types.ts -->
<g id="edge5" class="edge">
<title>src/crypto/crypto&#45;driver&#45;tweetnacl.ts&#45;&gt;src/crypto/crypto&#45;types.ts</title>
<path fill="none" stroke="#528b8b" stroke-width="2" d="M397.11,-683.74C592.33,-698.19 1002.98,-723.3 1350,-709.59 1364.98,-709 1380.85,-708.05 1396.3,-706.95"/>
<polygon fill="#528b8b" stroke="#528b8b" stroke-width="2" points="1396.66,-710.43 1406.38,-706.21 1396.15,-703.45 1396.66,-710.43"/>
</g>
<!-- src/crypto/crypto.ts&#45;&gt;src/core&#45;validators/addresses.ts -->
<g id="edge9" class="edge">
<title>src/crypto/crypto.ts&#45;&gt;src/core&#45;validators/addresses.ts</title>
<path fill="none" stroke="#528b8b" stroke-width="2" d="M637.23,-594.86C669.98,-589.33 710.49,-583.17 747,-579.59 864.06,-568.12 998.62,-563.56 1091.36,-561.76"/>
<polygon fill="#528b8b" stroke="#528b8b" stroke-width="2" points="1091.68,-565.25 1101.61,-561.56 1091.55,-558.25 1091.68,-565.25"/>
</g>
<!-- src/crypto/crypto.ts&#45;&gt;src/crypto/base32.ts -->
<g id="edge7" class="edge">
<title>src/crypto/crypto.ts&#45;&gt;src/crypto/base32.ts</title>
<path fill="none" stroke="#528b8b" stroke-width="2" d="M637.23,-618.32C669.98,-623.86 710.49,-630.01 747,-633.59 879.93,-646.62 1035.45,-650.73 1126.64,-652.02"/>
<polygon fill="#528b8b" stroke="#528b8b" stroke-width="2" points="1126.85,-655.52 1136.89,-652.16 1126.94,-648.52 1126.85,-655.52"/>
</g>
<!-- src/crypto/crypto.ts&#45;&gt;src/crypto/crypto&#45;types.ts -->
<g id="edge6" class="edge">
<title>src/crypto/crypto.ts&#45;&gt;src/crypto/crypto&#45;types.ts</title>
<path fill="none" stroke="#528b8b" stroke-width="2" d="M626.44,-624.61C660.54,-635.37 705.9,-648.31 747,-655.59 977.86,-696.5 1254.81,-701 1396.12,-700.17"/>
<polygon fill="#528b8b" stroke="#528b8b" stroke-width="2" points="1396.49,-703.66 1406.47,-700.09 1396.45,-696.66 1396.49,-703.66"/>
</g>
<!-- src/crypto/keypair.ts -->
<g id="node11" class="node">
<title>src/crypto/keypair.ts</title>
<path fill="#79cdcd" stroke="#79cdcd" d="M942.5,-624.59C942.5,-624.59 829.5,-624.59 829.5,-624.59 823.5,-624.59 817.5,-618.59 817.5,-612.59 817.5,-612.59 817.5,-600.59 817.5,-600.59 817.5,-594.59 823.5,-588.59 829.5,-588.59 829.5,-588.59 942.5,-588.59 942.5,-588.59 948.5,-588.59 954.5,-594.59 954.5,-600.59 954.5,-600.59 954.5,-612.59 954.5,-612.59 954.5,-618.59 948.5,-624.59 942.5,-624.59"/>
<text text-anchor="middle" x="886" y="-602.89" font-family="Helvetica,sans-Serif" font-size="14.00">src/crypto/keypair.ts</text>
</g>
<!-- src/crypto/crypto.ts&#45;&gt;src/crypto/keypair.ts -->
<g id="edge8" class="edge">
<title>src/crypto/crypto.ts&#45;&gt;src/crypto/keypair.ts</title>
<path fill="none" stroke="#528b8b" stroke-width="2" d="M637.27,-606.59C686.52,-606.59 754.69,-606.59 807.06,-606.59"/>
<polygon fill="#528b8b" stroke="#528b8b" stroke-width="2" points="807.31,-610.09 817.31,-606.59 807.31,-603.09 807.31,-610.09"/>
</g>
<!-- src/crypto/keypair.ts&#45;&gt;src/core&#45;validators/addresses.ts -->
<g id="edge12" class="edge">
<title>src/crypto/keypair.ts&#45;&gt;src/core&#45;validators/addresses.ts</title>
<path fill="none" stroke="#528b8b" stroke-width="2" d="M954.72,-596.78C994.6,-591 1046.04,-583.55 1091.87,-576.91"/>
<polygon fill="#528b8b" stroke="#528b8b" stroke-width="2" points="1092.46,-580.36 1101.86,-575.46 1091.46,-573.43 1092.46,-580.36"/>
</g>
<!-- src/crypto/keypair.ts&#45;&gt;src/crypto/base32.ts -->
<g id="edge10" class="edge">
<title>src/crypto/keypair.ts&#45;&gt;src/crypto/base32.ts</title>
<path fill="none" stroke="#528b8b" stroke-width="2" d="M954.72,-616.4C1005.2,-623.72 1074.21,-633.71 1126.91,-641.35"/>
<polygon fill="#528b8b" stroke="#528b8b" stroke-width="2" points="1126.48,-644.82 1136.88,-642.79 1127.49,-637.9 1126.48,-644.82"/>
</g>
<!-- src/crypto/keypair.ts&#45;&gt;src/crypto/crypto&#45;types.ts -->
<g id="edge11" class="edge">
<title>src/crypto/keypair.ts&#45;&gt;src/crypto/crypto&#45;types.ts</title>
<path fill="none" stroke="#528b8b" stroke-width="2" d="M954.71,-600.21C1046.17,-593.65 1213.45,-588.93 1350,-625.59 1387.84,-635.75 1427.01,-657.52 1454.09,-674.65"/>
<polygon fill="#528b8b" stroke="#528b8b" stroke-width="2" points="1452.49,-677.79 1462.79,-680.26 1456.28,-671.9 1452.49,-677.79"/>
</g>
<!-- src/format&#45;validators/format&#45;validator&#45;es4.ts&#45;&gt;src/core&#45;validators/addresses.ts -->
<g id="edge23" class="edge">
<title>src/format&#45;validators/format&#45;validator&#45;es4.ts&#45;&gt;src/core&#45;validators/addresses.ts</title>
<path fill="none" stroke="#528b8b" stroke-width="2" d="M968.76,-508.62C1012.84,-518.34 1067.37,-530.36 1112.87,-540.39"/>
<polygon fill="#528b8b" stroke="#528b8b" stroke-width="2" points="1112.22,-543.83 1122.74,-542.56 1113.73,-536.99 1112.22,-543.83"/>
</g>
<!-- src/format&#45;validators/format&#45;validator&#45;es4.ts&#45;&gt;src/core&#45;validators/characters.ts -->
<g id="edge21" class="edge">
<title>src/format&#45;validators/format&#45;validator&#45;es4.ts&#45;&gt;src/core&#45;validators/characters.ts</title>
<path fill="none" stroke="#528b8b" stroke-width="2" d="M977.24,-472.59C993.32,-468.56 1009.78,-463.88 1025,-458.59 1041.71,-452.78 1043.73,-445.46 1061,-441.59 1186.33,-413.49 1222.15,-429.29 1350,-441.59 1366.21,-443.15 1383.34,-445.71 1399.83,-448.65"/>
<polygon fill="#528b8b" stroke="#528b8b" stroke-width="2" points="1399.53,-452.15 1410,-450.52 1400.8,-445.27 1399.53,-452.15"/>
</g>
<!-- src/format&#45;validators/format&#45;validator&#45;es4.ts&#45;&gt;src/core&#45;validators/checkers.ts -->
<g id="edge22" class="edge">
<title>src/format&#45;validators/format&#45;validator&#45;es4.ts&#45;&gt;src/core&#45;validators/checkers.ts</title>
<path fill="none" stroke="#528b8b" stroke-width="2" d="M1025.34,-481.01C1048.81,-479.38 1072.89,-477.71 1095.48,-476.15"/>
<polygon fill="#528b8b" stroke="#528b8b" stroke-width="2" points="1096.01,-479.62 1105.75,-475.43 1095.53,-472.63 1096.01,-479.62"/>
</g>
<!-- src/format&#45;validators/format&#45;validator&#45;es4.ts&#45;&gt;src/crypto/crypto&#45;types.ts -->
<g id="edge20" class="edge">
<title>src/format&#45;validators/format&#45;validator&#45;es4.ts&#45;&gt;src/crypto/crypto&#45;types.ts</title>
<path fill="none" stroke="#528b8b" stroke-width="2" d="M1025.28,-498.12C1151.19,-505.84 1321.67,-518.78 1350,-533.59 1409.52,-564.7 1453.85,-633.18 1475.07,-671.41"/>
<polygon fill="#528b8b" stroke="#528b8b" stroke-width="2" points="1472.12,-673.32 1479.97,-680.44 1478.28,-669.98 1472.12,-673.32"/>
</g>
<!-- src/format&#45;validators/format&#45;validator&#45;types.ts -->
<g id="node13" class="node">
<title>src/format&#45;validators/format&#45;validator&#45;types.ts</title>
<path fill="#79cdcd" stroke="#79cdcd" d="M1338,-394.59C1338,-394.59 1073,-394.59 1073,-394.59 1067,-394.59 1061,-388.59 1061,-382.59 1061,-382.59 1061,-370.59 1061,-370.59 1061,-364.59 1067,-358.59 1073,-358.59 1073,-358.59 1338,-358.59 1338,-358.59 1344,-358.59 1350,-364.59 1350,-370.59 1350,-370.59 1350,-382.59 1350,-382.59 1350,-388.59 1344,-394.59 1338,-394.59"/>
<text text-anchor="middle" x="1205.5" y="-372.89" font-family="Helvetica,sans-Serif" font-size="14.00">src/format&#45;validators/format&#45;validator&#45;types.ts</text>
</g>
<!-- src/format&#45;validators/format&#45;validator&#45;es4.ts&#45;&gt;src/format&#45;validators/format&#45;validator&#45;types.ts -->
<g id="edge19" class="edge">
<title>src/format&#45;validators/format&#45;validator&#45;es4.ts&#45;&gt;src/format&#45;validators/format&#45;validator&#45;types.ts</title>
<path fill="none" stroke="#528b8b" stroke-width="2" d="M998.1,-472.47C1007.59,-468.68 1016.71,-464.11 1025,-458.59 1047.79,-443.42 1038.14,-423.67 1061,-408.59 1066.65,-404.86 1072.68,-401.56 1078.94,-398.64"/>
<polygon fill="#528b8b" stroke="#528b8b" stroke-width="2" points="1080.45,-401.8 1088.25,-394.63 1077.68,-395.37 1080.45,-401.8"/>
</g>
<!-- src/format&#45;validators/format&#45;validator&#45;types.ts&#45;&gt;src/crypto/crypto&#45;types.ts -->
<g id="edge24" class="edge">
<title>src/format&#45;validators/format&#45;validator&#45;types.ts&#45;&gt;src/crypto/crypto&#45;types.ts</title>
<path fill="none" stroke="#528b8b" stroke-width="2" d="M1268.56,-394.65C1295.97,-404.99 1327.09,-420.24 1350,-441.59 1368.71,-459.03 1444.23,-608.54 1475.42,-671.17"/>
<polygon fill="#528b8b" stroke="#528b8b" stroke-width="2" points="1472.45,-673.05 1480.03,-680.44 1478.71,-669.93 1472.45,-673.05"/>
</g>
<!-- src/storage/compare.ts -->
<g id="node14" class="node">
<title>src/storage/compare.ts</title>
<path fill="#79cdcd" stroke="#79cdcd" d="M951.5,-340.59C951.5,-340.59 820.5,-340.59 820.5,-340.59 814.5,-340.59 808.5,-334.59 808.5,-328.59 808.5,-328.59 808.5,-316.59 808.5,-316.59 808.5,-310.59 814.5,-304.59 820.5,-304.59 820.5,-304.59 951.5,-304.59 951.5,-304.59 957.5,-304.59 963.5,-310.59 963.5,-316.59 963.5,-316.59 963.5,-328.59 963.5,-328.59 963.5,-334.59 957.5,-340.59 951.5,-340.59"/>
<text text-anchor="middle" x="886" y="-318.89" font-family="Helvetica,sans-Serif" font-size="14.00">src/storage/compare.ts</text>
</g>
<!-- src/storage/util&#45;types.ts -->
<g id="node23" class="node">
<title>src/storage/util&#45;types.ts</title>
<path fill="#79cdcd" stroke="#79cdcd" d="M1271,-340.59C1271,-340.59 1140,-340.59 1140,-340.59 1134,-340.59 1128,-334.59 1128,-328.59 1128,-328.59 1128,-316.59 1128,-316.59 1128,-310.59 1134,-304.59 1140,-304.59 1140,-304.59 1271,-304.59 1271,-304.59 1277,-304.59 1283,-310.59 1283,-316.59 1283,-316.59 1283,-328.59 1283,-328.59 1283,-334.59 1277,-340.59 1271,-340.59"/>
<text text-anchor="middle" x="1205.5" y="-318.89" font-family="Helvetica,sans-Serif" font-size="14.00">src/storage/util&#45;types.ts</text>
</g>
<!-- src/storage/compare.ts&#45;&gt;src/storage/util&#45;types.ts -->
<g id="edge25" class="edge">
<title>src/storage/compare.ts&#45;&gt;src/storage/util&#45;types.ts</title>
<path fill="none" stroke="#528b8b" stroke-width="2" d="M963.86,-322.59C1010.29,-322.59 1069.59,-322.59 1117.71,-322.59"/>
<polygon fill="#528b8b" stroke="#528b8b" stroke-width="2" points="1117.8,-326.09 1127.8,-322.59 1117.8,-319.09 1117.8,-326.09"/>
</g>
<!-- src/storage/lock.ts -->
<g id="node15" class="node">
<title>src/storage/lock.ts</title>
<path fill="#79cdcd" stroke="#79cdcd" d="M1256,-199.59C1256,-199.59 1155,-199.59 1155,-199.59 1149,-199.59 1143,-193.59 1143,-187.59 1143,-187.59 1143,-175.59 1143,-175.59 1143,-169.59 1149,-163.59 1155,-163.59 1155,-163.59 1256,-163.59 1256,-163.59 1262,-163.59 1268,-169.59 1268,-175.59 1268,-175.59 1268,-187.59 1268,-187.59 1268,-193.59 1262,-199.59 1256,-199.59"/>
<text text-anchor="middle" x="1205.5" y="-177.89" font-family="Helvetica,sans-Serif" font-size="14.00">src/storage/lock.ts</text>
</g>
<!-- src/storage/query&#45;follower&#45;types.ts -->
<g id="node16" class="node">
<title>src/storage/query&#45;follower&#45;types.ts</title>
<path fill="#79cdcd" stroke="#79cdcd" d="M671.5,-126.59C671.5,-126.59 472.5,-126.59 472.5,-126.59 466.5,-126.59 460.5,-120.59 460.5,-114.59 460.5,-114.59 460.5,-102.59 460.5,-102.59 460.5,-96.59 466.5,-90.59 472.5,-90.59 472.5,-90.59 671.5,-90.59 671.5,-90.59 677.5,-90.59 683.5,-96.59 683.5,-102.59 683.5,-102.59 683.5,-114.59 683.5,-114.59 683.5,-120.59 677.5,-126.59 671.5,-126.59"/>
<text text-anchor="middle" x="572" y="-104.89" font-family="Helvetica,sans-Serif" font-size="14.00">src/storage/query&#45;follower&#45;types.ts</text>
</g>
<!-- src/storage/storage&#45;types.ts -->
<g id="node22" class="node">
<title>src/storage/storage&#45;types.ts</title>
<path fill="#79cdcd" stroke="#79cdcd" d="M965.5,-172.59C965.5,-172.59 806.5,-172.59 806.5,-172.59 800.5,-172.59 794.5,-166.59 794.5,-160.59 794.5,-160.59 794.5,-148.59 794.5,-148.59 794.5,-142.59 800.5,-136.59 806.5,-136.59 806.5,-136.59 965.5,-136.59 965.5,-136.59 971.5,-136.59 977.5,-142.59 977.5,-148.59 977.5,-148.59 977.5,-160.59 977.5,-160.59 977.5,-166.59 971.5,-172.59 965.5,-172.59"/>
<text text-anchor="middle" x="886" y="-150.89" font-family="Helvetica,sans-Serif" font-size="14.00">src/storage/storage&#45;types.ts</text>
</g>
<!-- src/storage/query&#45;follower&#45;types.ts&#45;&gt;src/storage/storage&#45;types.ts -->
<g id="edge26" class="edge">
<title>src/storage/query&#45;follower&#45;types.ts&#45;&gt;src/storage/storage&#45;types.ts</title>
<path fill="none" stroke="#528b8b" stroke-width="2" d="M683.88,-124.94C716.51,-129.75 752.03,-134.99 784.02,-139.7"/>
<polygon fill="#528b8b" stroke="#528b8b" stroke-width="2" points="783.86,-143.22 794.27,-141.21 784.88,-136.29 783.86,-143.22"/>
</g>
<!-- src/storage/query&#45;follower.ts&#45;&gt;src/storage/query&#45;follower&#45;types.ts -->
<g id="edge31" class="edge">
<title>src/storage/query&#45;follower.ts&#45;&gt;src/storage/query&#45;follower&#45;types.ts</title>
<path fill="none" stroke="#528b8b" stroke-width="2" d="M375.31,-124.22C399.1,-122.32 425.06,-120.25 450.06,-118.25"/>
<polygon fill="#528b8b" stroke="#528b8b" stroke-width="2" points="450.65,-121.71 460.34,-117.43 450.09,-114.74 450.65,-121.71"/>
</g>
<!-- src/storage/query&#45;types.ts -->
<g id="node18" class="node">
<title>src/storage/query&#45;types.ts</title>
<path fill="#79cdcd" stroke="#79cdcd" d="M1279.5,-126.59C1279.5,-126.59 1131.5,-126.59 1131.5,-126.59 1125.5,-126.59 1119.5,-120.59 1119.5,-114.59 1119.5,-114.59 1119.5,-102.59 1119.5,-102.59 1119.5,-96.59 1125.5,-90.59 1131.5,-90.59 1131.5,-90.59 1279.5,-90.59 1279.5,-90.59 1285.5,-90.59 1291.5,-96.59 1291.5,-102.59 1291.5,-102.59 1291.5,-114.59 1291.5,-114.59 1291.5,-120.59 1285.5,-126.59 1279.5,-126.59"/>
<text text-anchor="middle" x="1205.5" y="-104.89" font-family="Helvetica,sans-Serif" font-size="14.00">src/storage/query&#45;types.ts</text>
</g>
<!-- src/storage/query&#45;follower.ts&#45;&gt;src/storage/query&#45;types.ts -->
<g id="edge28" class="edge">
<title>src/storage/query&#45;follower.ts&#45;&gt;src/storage/query&#45;types.ts</title>
<path fill="none" stroke="#528b8b" stroke-width="2" d="M310.1,-113.58C339.13,-95.33 387.23,-68.07 433,-55.59 686.98,13.69 766.63,14.94 1025,-35.59 1074.1,-45.19 1126.73,-68.27 1162.21,-85.93"/>
<polygon fill="#528b8b" stroke="#528b8b" stroke-width="2" points="1160.8,-89.14 1171.3,-90.52 1163.96,-82.89 1160.8,-89.14"/>
</g>
<!-- src/storage/query.ts -->
<g id="node19" class="node">
<title>src/storage/query.ts</title>
<path fill="#79cdcd" stroke="#79cdcd" d="M941,-80.59C941,-80.59 831,-80.59 831,-80.59 825,-80.59 819,-74.59 819,-68.59 819,-68.59 819,-56.59 819,-56.59 819,-50.59 825,-44.59 831,-44.59 831,-44.59 941,-44.59 941,-44.59 947,-44.59 953,-50.59 953,-56.59 953,-56.59 953,-68.59 953,-68.59 953,-74.59 947,-80.59 941,-80.59"/>
<text text-anchor="middle" x="886" y="-58.89" font-family="Helvetica,sans-Serif" font-size="14.00">src/storage/query.ts</text>
</g>
<!-- src/storage/query&#45;follower.ts&#45;&gt;src/storage/query.ts -->
<g id="edge30" class="edge">
<title>src/storage/query&#45;follower.ts&#45;&gt;src/storage/query.ts</title>
<path fill="none" stroke="#528b8b" stroke-width="2" d="M326.45,-113.51C355.95,-102.13 396.15,-88.37 433,-81.59 563.35,-57.62 718.25,-56.99 808.7,-59.35"/>
<polygon fill="#528b8b" stroke="#528b8b" stroke-width="2" points="808.77,-62.86 818.86,-59.64 808.96,-55.86 808.77,-62.86"/>
</g>
<!-- src/storage/query&#45;follower.ts&#45;&gt;src/storage/storage&#45;types.ts -->
<g id="edge29" class="edge">
<title>src/storage/query&#45;follower.ts&#45;&gt;src/storage/storage&#45;types.ts</title>
<path fill="none" stroke="#528b8b" stroke-width="2" d="M375.09,-135.11C485.55,-139.33 670.09,-146.38 784.26,-150.74"/>
<polygon fill="#528b8b" stroke="#528b8b" stroke-width="2" points="784.28,-154.25 794.4,-151.13 784.54,-147.25 784.28,-154.25"/>
</g>
<!-- src/storage/query&#45;follower.ts&#45;&gt;src/storage/util&#45;types.ts -->
<g id="edge27" class="edge">
<title>src/storage/query&#45;follower.ts&#45;&gt;src/storage/util&#45;types.ts</title>
<path fill="none" stroke="#528b8b" stroke-width="2" d="M287.87,-149.65C301.55,-196.23 345.13,-320.21 433,-368.59 445.76,-375.61 1005.32,-371.07 1025,-366.59 1042.25,-362.66 1044.17,-355.05 1061,-349.59 1079.07,-343.73 1098.86,-338.99 1117.81,-335.21"/>
<polygon fill="#528b8b" stroke="#528b8b" stroke-width="2" points="1118.47,-338.65 1127.63,-333.32 1117.15,-331.77 1118.47,-338.65"/>
</g>
<!-- src/storage/query.ts&#45;&gt;src/storage/query&#45;types.ts -->
<g id="edge32" class="edge">
<title>src/storage/query.ts&#45;&gt;src/storage/query&#45;types.ts</title>
<path fill="none" stroke="#528b8b" stroke-width="2" d="M953.17,-72.18C998.41,-78.73 1059.06,-87.52 1109.45,-94.82"/>
<polygon fill="#528b8b" stroke="#528b8b" stroke-width="2" points="1108.98,-98.29 1119.38,-96.26 1109.99,-91.36 1108.98,-98.29"/>
</g>
<!-- src/storage/storage&#45;async.ts&#45;&gt;src/format&#45;validators/format&#45;validator&#45;types.ts -->
<g id="edge36" class="edge">
<title>src/storage/storage&#45;async.ts&#45;&gt;src/format&#45;validators/format&#45;validator&#45;types.ts</title>
<path fill="none" stroke="#528b8b" stroke-width="2" d="M665.32,-356.97C691.64,-360.78 720.39,-364.4 747,-366.59 847.92,-374.91 961.76,-377.43 1050.64,-377.85"/>
<polygon fill="#528b8b" stroke="#528b8b" stroke-width="2" points="1050.79,-381.35 1060.8,-377.89 1050.81,-374.35 1050.79,-381.35"/>
</g>
<!-- src/storage/storage&#45;async.ts&#45;&gt;src/storage/compare.ts -->
<g id="edge37" class="edge">
<title>src/storage/storage&#45;async.ts&#45;&gt;src/storage/compare.ts</title>
<path fill="none" stroke="#528b8b" stroke-width="2" d="M665.34,-335.97C707.43,-333.4 756.97,-330.39 798.34,-327.87"/>
<polygon fill="#528b8b" stroke="#528b8b" stroke-width="2" points="798.63,-331.36 808.4,-327.26 798.2,-324.37 798.63,-331.36"/>
</g>
<!-- src/storage/storage&#45;async.ts&#45;&gt;src/storage/query&#45;types.ts -->
<g id="edge34" class="edge">
<title>src/storage/storage&#45;async.ts&#45;&gt;src/storage/query&#45;types.ts</title>
<path fill="none" stroke="#528b8b" stroke-width="2" d="M644.7,-323.49C736.27,-298.76 898.06,-249.6 1025,-181.59 1042.63,-172.15 1043.23,-163.77 1061,-154.59 1080.16,-144.69 1101.87,-136.4 1122.49,-129.7"/>
<polygon fill="#528b8b" stroke="#528b8b" stroke-width="2" points="1123.7,-132.99 1132.19,-126.64 1121.6,-126.31 1123.7,-132.99"/>
</g>
<!-- src/storage/storage&#45;async.ts&#45;&gt;src/storage/storage&#45;types.ts -->
<g id="edge35" class="edge">
<title>src/storage/storage&#45;async.ts&#45;&gt;src/storage/storage&#45;types.ts</title>
<path fill="none" stroke="#528b8b" stroke-width="2" d="M597.73,-323.55C630.92,-299.67 692.06,-256.83 747,-224.59 776.22,-207.44 810.15,-190.2 837.05,-177.12"/>
<polygon fill="#528b8b" stroke="#528b8b" stroke-width="2" points="838.77,-180.17 846.25,-172.67 835.73,-173.87 838.77,-180.17"/>
</g>
<!-- src/storage/storage&#45;async.ts&#45;&gt;src/storage/util&#45;types.ts -->
<g id="edge33" class="edge">
<title>src/storage/storage&#45;async.ts&#45;&gt;src/storage/util&#45;types.ts</title>
<path fill="none" stroke="#528b8b" stroke-width="2" d="M665.34,-348.2C756.79,-353.57 900.75,-358.88 1025,-349.59 1055.36,-347.32 1088.37,-342.92 1117.7,-338.32"/>
<polygon fill="#528b8b" stroke="#528b8b" stroke-width="2" points="1118.6,-341.72 1127.92,-336.68 1117.49,-334.81 1118.6,-341.72"/>
</g>
<!-- src/storage/storage&#45;driver&#45;async&#45;memory.ts&#45;&gt;src/storage/compare.ts -->
<g id="edge41" class="edge">
<title>src/storage/storage&#45;driver&#45;async&#45;memory.ts&#45;&gt;src/storage/compare.ts</title>
<path fill="none" stroke="#528b8b" stroke-width="2" d="M602.45,-218.73C636.24,-238.85 693.86,-271.04 747,-290.59 763.3,-296.59 781.12,-301.72 798.36,-305.99"/>
<polygon fill="#528b8b" stroke="#528b8b" stroke-width="2" points="797.9,-309.48 808.44,-308.41 799.53,-302.67 797.9,-309.48"/>
</g>
<!-- src/storage/storage&#45;driver&#45;async&#45;memory.ts&#45;&gt;src/storage/lock.ts -->
<g id="edge43" class="edge">
<title>src/storage/storage&#45;driver&#45;async&#45;memory.ts&#45;&gt;src/storage/lock.ts</title>
<path fill="none" stroke="#528b8b" stroke-width="2" d="M711.2,-196.43C841.04,-192.53 1030.25,-186.83 1132.49,-183.76"/>
<polygon fill="#528b8b" stroke="#528b8b" stroke-width="2" points="1132.82,-187.25 1142.71,-183.45 1132.6,-180.25 1132.82,-187.25"/>
</g>
<!-- src/storage/storage&#45;driver&#45;async&#45;memory.ts&#45;&gt;src/storage/query&#45;types.ts -->
<g id="edge39" class="edge">
<title>src/storage/storage&#45;driver&#45;async&#45;memory.ts&#45;&gt;src/storage/query&#45;types.ts</title>
<path fill="none" stroke="#528b8b" stroke-width="2" d="M606.15,-182.47C640.32,-164.82 695.68,-139.03 747,-127.59 869.96,-100.18 1016.01,-99.42 1109.44,-102.83"/>
<polygon fill="#528b8b" stroke="#528b8b" stroke-width="2" points="1109.31,-106.32 1119.44,-103.21 1109.58,-99.33 1109.31,-106.32"/>
</g>
<!-- src/storage/storage&#45;driver&#45;async&#45;memory.ts&#45;&gt;src/storage/query.ts -->
<g id="edge42" class="edge">
<title>src/storage/storage&#45;driver&#45;async&#45;memory.ts&#45;&gt;src/storage/query.ts</title>
<path fill="none" stroke="#528b8b" stroke-width="2" d="M623.65,-182.59C651.03,-171.46 684.55,-155.5 711,-135.59 730.37,-121.01 726.19,-107.04 747,-94.59 765.68,-83.42 787.93,-76.15 809.05,-71.42"/>
<polygon fill="#528b8b" stroke="#528b8b" stroke-width="2" points="809.91,-74.81 818.99,-69.35 808.49,-67.96 809.91,-74.81"/>
</g>
<!-- src/storage/storage&#45;driver&#45;async&#45;memory.ts&#45;&gt;src/storage/storage&#45;types.ts -->
<g id="edge40" class="edge">
<title>src/storage/storage&#45;driver&#45;async&#45;memory.ts&#45;&gt;src/storage/storage&#45;types.ts</title>
<path fill="none" stroke="#528b8b" stroke-width="2" d="M695.42,-182.54C724.89,-178.2 756.04,-173.6 784.39,-169.42"/>
<polygon fill="#528b8b" stroke="#528b8b" stroke-width="2" points="784.91,-172.89 794.29,-167.96 783.89,-165.96 784.91,-172.89"/>
</g>
<!-- src/storage/storage&#45;driver&#45;async&#45;memory.ts&#45;&gt;src/storage/util&#45;types.ts -->
<g id="edge38" class="edge">
<title>src/storage/storage&#45;driver&#45;async&#45;memory.ts&#45;&gt;src/storage/util&#45;types.ts</title>
<path fill="none" stroke="#528b8b" stroke-width="2" d="M666.18,-218.59C787.86,-242.1 999.27,-282.94 1117.71,-305.82"/>
<polygon fill="#528b8b" stroke="#528b8b" stroke-width="2" points="1117.34,-309.32 1127.83,-307.78 1118.67,-302.44 1117.34,-309.32"/>
</g>
<!-- src/storage/storage&#45;types.ts&#45;&gt;src/format&#45;validators/format&#45;validator&#45;types.ts -->
<g id="edge45" class="edge">
<title>src/storage/storage&#45;types.ts&#45;&gt;src/format&#45;validators/format&#45;validator&#45;types.ts</title>
<path fill="none" stroke="#528b8b" stroke-width="2" d="M906.93,-172.69C934.88,-198.56 986.6,-248.23 1025,-295.59 1043.17,-318 1036.94,-333.68 1061,-349.59 1063.3,-351.11 1065.66,-352.55 1068.08,-353.92"/>
<polygon fill="#528b8b" stroke="#528b8b" stroke-width="2" points="1066.56,-357.07 1077.05,-358.53 1069.76,-350.84 1066.56,-357.07"/>
</g>
<!-- src/storage/storage&#45;types.ts&#45;&gt;src/storage/lock.ts -->
<g id="edge46" class="edge">
<title>src/storage/storage&#45;types.ts&#45;&gt;src/storage/lock.ts</title>
<path fill="none" stroke="#528b8b" stroke-width="2" d="M977.56,-162.29C1026.8,-166.48 1086.86,-171.59 1132.82,-175.5"/>
<polygon fill="#528b8b" stroke="#528b8b" stroke-width="2" points="1132.73,-179 1142.99,-176.36 1133.33,-172.03 1132.73,-179"/>
</g>
<!-- src/storage/storage&#45;types.ts&#45;&gt;src/storage/query&#45;types.ts -->
<g id="edge44" class="edge">
<title>src/storage/storage&#45;types.ts&#45;&gt;src/storage/query&#45;types.ts</title>
<path fill="none" stroke="#528b8b" stroke-width="2" d="M977.56,-141.47C1018.79,-135.5 1067.6,-128.42 1109.37,-122.37"/>
<polygon fill="#528b8b" stroke="#528b8b" stroke-width="2" points="1109.88,-125.84 1119.28,-120.94 1108.88,-118.91 1109.88,-125.84"/>
</g>
</g>
</svg>
