<?xml version="1.0" encoding="UTF-8" standalone="no"?>
<!DOCTYPE svg PUBLIC "-//W3C//DTD SVG 1.1//EN"
 "http://www.w3.org/Graphics/SVG/1.1/DTD/svg11.dtd">
<!-- Generated by graphviz version 2.44.1 (20200629.0846)
 -->
<!-- Title: G Pages: 1 -->
<svg width="1077pt" height="1112pt"
 viewBox="0.00 0.00 1077.00 1112.15" xmlns="http://www.w3.org/2000/svg" xmlns:xlink="http://www.w3.org/1999/xlink">
<g id="graph0" class="graph" transform="scale(1 1) rotate(0) translate(4 1108.15)">
<title>G</title>
<polygon fill="white" stroke="transparent" points="-4,4 -4,-1108.15 1073,-1108.15 1073,4 -4,4"/>
<g id="clust1" class="cluster">
<title>cluster3729339418</title>
<path fill="none" stroke="#8b7d6b" stroke-width="2" d="M20,-8C20,-8 1049,-8 1049,-8 1055,-8 1061,-14 1061,-20 1061,-20 1061,-1061 1061,-1061 1061,-1067 1055,-1073 1049,-1073 1049,-1073 20,-1073 20,-1073 14,-1073 8,-1067 8,-1061 8,-1061 8,-20 8,-20 8,-14 14,-8 20,-8"/>
<text text-anchor="start" x="524" y="-1058.8" font-family="Helvetica,sans-Serif" font-weight="bold" font-size="14.00">src</text>
</g>
<g id="clust2" class="cluster">
<title>cluster5752057855</title>
<path fill="bisque" stroke="#8b7d6b" stroke-width="2" d="M820.5,-492C820.5,-492 1041,-492 1041,-492 1047,-492 1053,-498 1053,-504 1053,-504 1053,-609 1053,-609 1053,-615 1047,-621 1041,-621 1041,-621 820.5,-621 820.5,-621 814.5,-621 808.5,-615 808.5,-609 808.5,-609 808.5,-504 808.5,-504 808.5,-498 814.5,-492 820.5,-492"/>
<text text-anchor="start" x="882.25" y="-606.8" font-family="Helvetica,sans-Serif" font-weight="bold" font-size="14.00">core&#45;validators</text>
</g>
<g id="clust3" class="cluster">
<title>cluster8989298538</title>
<path fill="bisque" stroke="#8b7d6b" stroke-width="2" d="M466,-207C466,-207 911,-207 911,-207 917,-207 923,-213 923,-219 923,-219 923,-472 923,-472 923,-478 917,-484 911,-484 911,-484 466,-484 466,-484 460,-484 454,-478 454,-472 454,-472 454,-219 454,-219 454,-213 460,-207 466,-207"/>
<text text-anchor="start" x="667.5" y="-469.8" font-family="Helvetica,sans-Serif" font-weight="bold" font-size="14.00">crypto</text>
</g>
<g id="clust4" class="cluster">
<title>cluster2953046853</title>
<path fill="bisque" stroke="#8b7d6b" stroke-width="2" d="M424,-563C424,-563 768.5,-563 768.5,-563 774.5,-563 780.5,-569 780.5,-575 780.5,-575 780.5,-626 780.5,-626 780.5,-632 774.5,-638 768.5,-638 768.5,-638 424,-638 424,-638 418,-638 412,-632 412,-626 412,-626 412,-575 412,-575 412,-569 418,-563 424,-563"/>
<text text-anchor="start" x="540.25" y="-623.8" font-family="Helvetica,sans-Serif" font-weight="bold" font-size="14.00">format&#45;validators</text>
</g>
<g id="clust5" class="cluster">
<title>cluster5516479166</title>
<path fill="bisque" stroke="#8b7d6b" stroke-width="2" d="M234,-16C234,-16 539.5,-16 539.5,-16 545.5,-16 551.5,-22 551.5,-28 551.5,-28 551.5,-187 551.5,-187 551.5,-193 545.5,-199 539.5,-199 539.5,-199 234,-199 234,-199 228,-199 222,-193 222,-187 222,-187 222,-28 222,-28 222,-22 228,-16 234,-16"/>
<text text-anchor="start" x="372.25" y="-184.8" font-family="Helvetica,sans-Serif" font-weight="bold" font-size="14.00">peer</text>
</g>
<g id="clust6" class="cluster">
<title>cluster5659063264</title>
<path fill="bisque" stroke="#8b7d6b" stroke-width="2" d="M226,-957C226,-957 568,-957 568,-957 574,-957 580,-963 580,-969 580,-969 580,-1020 580,-1020 580,-1026 574,-1032 568,-1032 568,-1032 226,-1032 226,-1032 220,-1032 214,-1026 214,-1020 214,-1020 214,-969 214,-969 214,-963 220,-957 226,-957"/>
<text text-anchor="start" x="350" y="-1017.8" font-family="Helvetica,sans-Serif" font-weight="bold" font-size="14.00">query&#45;follower</text>
</g>
<g id="clust7" class="cluster">
<title>cluster1812721730</title>
<path fill="bisque" stroke="#8b7d6b" stroke-width="2" d="M468,-874C468,-874 738,-874 738,-874 744,-874 750,-880 750,-886 750,-886 750,-937 750,-937 750,-943 744,-949 738,-949 738,-949 468,-949 468,-949 462,-949 456,-943 456,-937 456,-937 456,-886 456,-886 456,-880 462,-874 468,-874"/>
<text text-anchor="start" x="584.5" y="-934.8" font-family="Helvetica,sans-Serif" font-weight="bold" font-size="14.00">query</text>
</g>
<g id="clust8" class="cluster">
<title>cluster5568697676</title>
<path fill="bisque" stroke="#8b7d6b" stroke-width="2" d="M28,-646C28,-646 730,-646 730,-646 736,-646 742,-652 742,-658 742,-658 742,-823 742,-823 742,-829 736,-835 730,-835 730,-835 28,-835 28,-835 22,-835 16,-829 16,-823 16,-823 16,-658 16,-658 16,-652 22,-646 28,-646"/>
<text text-anchor="start" x="354.5" y="-820.8" font-family="Helvetica,sans-Serif" font-weight="bold" font-size="14.00">storage</text>
</g>
<!-- src/example&#45;app.ts -->
<g id="node1" class="node">
<title>src/example&#45;app.ts</title>
<path fill="#79cdcd" stroke="#79cdcd" d="M125,-607C125,-607 39,-607 39,-607 33,-607 27,-601 27,-595 27,-595 27,-583 27,-583 27,-577 33,-571 39,-571 39,-571 125,-571 125,-571 131,-571 137,-577 137,-583 137,-583 137,-595 137,-595 137,-601 131,-607 125,-607"/>
<text text-anchor="middle" x="82" y="-585.3" font-family="Helvetica,sans-Serif" font-size="14.00">example&#45;app.ts</text>
</g>
<!-- src/crypto/crypto&#45;driver&#45;tweetnacl.ts -->
<g id="node8" class="node">
<title>src/crypto/crypto&#45;driver&#45;tweetnacl.ts</title>
<path fill="#79cdcd" stroke="#79cdcd" d="M763,-251C763,-251 620,-251 620,-251 614,-251 608,-245 608,-239 608,-239 608,-227 608,-227 608,-221 614,-215 620,-215 620,-215 763,-215 763,-215 769,-215 775,-221 775,-227 775,-227 775,-239 775,-239 775,-245 769,-251 763,-251"/>
<text text-anchor="middle" x="691.5" y="-229.3" font-family="Helvetica,sans-Serif" font-size="14.00">crypto&#45;driver&#45;tweetnacl.ts</text>
</g>
<!-- src/example&#45;app.ts&#45;&gt;src/crypto/crypto&#45;driver&#45;tweetnacl.ts -->
<g id="edge17" class="edge">
<title>src/example&#45;app.ts&#45;&gt;src/crypto/crypto&#45;driver&#45;tweetnacl.ts</title>
<path fill="none" stroke="#528b8b" stroke-width="2" d="M94.31,-570.94C110.15,-546.79 140.98,-503.81 176,-476 316.71,-364.28 517.19,-288.65 621.48,-254.22"/>
<polygon fill="#528b8b" stroke="#528b8b" stroke-width="2" points="622.85,-257.45 631.26,-251.01 620.67,-250.8 622.85,-257.45"/>
</g>
<!-- src/crypto/crypto.ts -->
<g id="node10" class="node">
<title>src/crypto/crypto.ts</title>
<path fill="#79cdcd" stroke="#79cdcd" d="M518,-453C518,-453 474,-453 474,-453 468,-453 462,-447 462,-441 462,-441 462,-429 462,-429 462,-423 468,-417 474,-417 474,-417 518,-417 518,-417 524,-417 530,-423 530,-429 530,-429 530,-441 530,-441 530,-447 524,-453 518,-453"/>
<text text-anchor="middle" x="496" y="-431.3" font-family="Helvetica,sans-Serif" font-size="14.00">crypto.ts</text>
</g>
<!-- src/example&#45;app.ts&#45;&gt;src/crypto/crypto.ts -->
<g id="edge16" class="edge">
<title>src/example&#45;app.ts&#45;&gt;src/crypto/crypto.ts</title>
<path fill="none" stroke="#528b8b" stroke-width="2" d="M131.47,-570.88C212.76,-540.5 375.23,-479.77 452.4,-450.92"/>
<polygon fill="#528b8b" stroke="#528b8b" stroke-width="2" points="453.68,-454.18 461.82,-447.4 451.23,-447.62 453.68,-454.18"/>
</g>
<!-- src/format&#45;validators/format&#45;validator&#45;es4.ts -->
<g id="node12" class="node">
<title>src/format&#45;validators/format&#45;validator&#45;es4.ts</title>
<path fill="#79cdcd" stroke="#79cdcd" d="M560,-607C560,-607 432,-607 432,-607 426,-607 420,-601 420,-595 420,-595 420,-583 420,-583 420,-577 426,-571 432,-571 432,-571 560,-571 560,-571 566,-571 572,-577 572,-583 572,-583 572,-595 572,-595 572,-601 566,-607 560,-607"/>
<text text-anchor="middle" x="496" y="-585.3" font-family="Helvetica,sans-Serif" font-size="14.00">format&#45;validator&#45;es4.ts</text>
</g>
<!-- src/example&#45;app.ts&#45;&gt;src/format&#45;validators/format&#45;validator&#45;es4.ts -->
<g id="edge13" class="edge">
<title>src/example&#45;app.ts&#45;&gt;src/format&#45;validators/format&#45;validator&#45;es4.ts</title>
<path fill="none" stroke="#528b8b" stroke-width="2" d="M137.29,-589C206.82,-589 328.11,-589 409.95,-589"/>
<polygon fill="#528b8b" stroke="#528b8b" stroke-width="2" points="409.98,-592.5 419.98,-589 409.98,-585.5 409.98,-592.5"/>
</g>
<!-- src/peer/peer.ts -->
<g id="node17" class="node">
<title>src/peer/peer.ts</title>
<path fill="#79cdcd" stroke="#79cdcd" d="M297,-168C297,-168 263,-168 263,-168 257,-168 251,-162 251,-156 251,-156 251,-144 251,-144 251,-138 257,-132 263,-132 263,-132 297,-132 297,-132 303,-132 309,-138 309,-144 309,-144 309,-156 309,-156 309,-162 303,-168 297,-168"/>
<text text-anchor="middle" x="280" y="-146.3" font-family="Helvetica,sans-Serif" font-size="14.00">peer.ts</text>
</g>
<!-- src/example&#45;app.ts&#45;&gt;src/peer/peer.ts -->
<g id="edge19" class="edge">
<title>src/example&#45;app.ts&#45;&gt;src/peer/peer.ts</title>
<path fill="none" stroke="#528b8b" stroke-width="2" d="M84.48,-570.98C90.77,-498.55 117.78,-229.7 176,-172 192.74,-155.41 218.74,-149.95 240.43,-148.61"/>
<polygon fill="#528b8b" stroke="#528b8b" stroke-width="2" points="240.79,-152.1 250.67,-148.26 240.55,-145.11 240.79,-152.1"/>
</g>
<!-- src/query&#45;follower/query&#45;follower.ts -->
<g id="node19" class="node">
<title>src/query&#45;follower/query&#45;follower.ts</title>
<path fill="#79cdcd" stroke="#79cdcd" d="M326,-1001C326,-1001 234,-1001 234,-1001 228,-1001 222,-995 222,-989 222,-989 222,-977 222,-977 222,-971 228,-965 234,-965 234,-965 326,-965 326,-965 332,-965 338,-971 338,-977 338,-977 338,-989 338,-989 338,-995 332,-1001 326,-1001"/>
<text text-anchor="middle" x="280" y="-979.3" font-family="Helvetica,sans-Serif" font-size="14.00">query&#45;follower.ts</text>
</g>
<!-- src/example&#45;app.ts&#45;&gt;src/query&#45;follower/query&#45;follower.ts -->
<g id="edge18" class="edge">
<title>src/example&#45;app.ts&#45;&gt;src/query&#45;follower/query&#45;follower.ts</title>
<path fill="none" stroke="#528b8b" stroke-width="2" d="M109.03,-607.12C120.27,-616.29 132.53,-628.37 140,-642 182.77,-720.06 141.27,-757.05 176,-839 195.32,-884.59 231.11,-929.83 255,-957.1"/>
<polygon fill="#528b8b" stroke="#528b8b" stroke-width="2" points="252.43,-959.49 261.69,-964.64 257.66,-954.84 252.43,-959.49"/>
</g>
<!-- src/storage/storage&#45;async.ts -->
<g id="node24" class="node">
<title>src/storage/storage&#45;async.ts</title>
<path fill="#79cdcd" stroke="#79cdcd" d="M326,-710C326,-710 234,-710 234,-710 228,-710 222,-704 222,-698 222,-698 222,-686 222,-686 222,-680 228,-674 234,-674 234,-674 326,-674 326,-674 332,-674 338,-680 338,-686 338,-686 338,-698 338,-698 338,-704 332,-710 326,-710"/>
<text text-anchor="middle" x="280" y="-688.3" font-family="Helvetica,sans-Serif" font-size="14.00">storage&#45;async.ts</text>
</g>
<!-- src/example&#45;app.ts&#45;&gt;src/storage/storage&#45;async.ts -->
<g id="edge15" class="edge">
<title>src/example&#45;app.ts&#45;&gt;src/storage/storage&#45;async.ts</title>
<path fill="none" stroke="#528b8b" stroke-width="2" d="M102.95,-607.33C127.7,-629.91 167.67,-665.84 176,-670 187.16,-675.58 199.7,-679.75 212.07,-682.86"/>
<polygon fill="#528b8b" stroke="#528b8b" stroke-width="2" points="211.41,-686.3 221.94,-685.14 212.98,-679.48 211.41,-686.3"/>
</g>
<!-- src/storage/storage&#45;driver&#45;async&#45;memory.ts -->
<g id="node26" class="node">
<title>src/storage/storage&#45;driver&#45;async&#45;memory.ts</title>
<path fill="#79cdcd" stroke="#79cdcd" d="M372,-801C372,-801 188,-801 188,-801 182,-801 176,-795 176,-789 176,-789 176,-777 176,-777 176,-771 182,-765 188,-765 188,-765 372,-765 372,-765 378,-765 384,-771 384,-777 384,-777 384,-789 384,-789 384,-795 378,-801 372,-801"/>
<text text-anchor="middle" x="280" y="-779.3" font-family="Helvetica,sans-Serif" font-size="14.00">storage&#45;driver&#45;async&#45;memory.ts</text>
</g>
<!-- src/example&#45;app.ts&#45;&gt;src/storage/storage&#45;driver&#45;async&#45;memory.ts -->
<g id="edge14" class="edge">
<title>src/example&#45;app.ts&#45;&gt;src/storage/storage&#45;driver&#45;async&#45;memory.ts</title>
<path fill="none" stroke="#528b8b" stroke-width="2" d="M106.37,-607.12C117.55,-616.64 130.53,-629 140,-642 162.24,-672.54 150.92,-690.75 176,-719 190.84,-735.71 211.07,-749.56 229.68,-760.06"/>
<polygon fill="#528b8b" stroke="#528b8b" stroke-width="2" points="228.2,-763.24 238.66,-764.94 231.55,-757.09 228.2,-763.24"/>
</g>
<!-- src/core&#45;validators/addresses.ts -->
<g id="node2" class="node">
<title>src/core&#45;validators/addresses.ts</title>
<path fill="#79cdcd" stroke="#79cdcd" d="M897.5,-536C897.5,-536 828.5,-536 828.5,-536 822.5,-536 816.5,-530 816.5,-524 816.5,-524 816.5,-512 816.5,-512 816.5,-506 822.5,-500 828.5,-500 828.5,-500 897.5,-500 897.5,-500 903.5,-500 909.5,-506 909.5,-512 909.5,-512 909.5,-524 909.5,-524 909.5,-530 903.5,-536 897.5,-536"/>
<text text-anchor="middle" x="863" y="-514.3" font-family="Helvetica,sans-Serif" font-size="14.00">addresses.ts</text>
</g>
<!-- src/core&#45;validators/characters.ts -->
<g id="node3" class="node">
<title>src/core&#45;validators/characters.ts</title>
<path fill="#79cdcd" stroke="#79cdcd" d="M1033,-590C1033,-590 963,-590 963,-590 957,-590 951,-584 951,-578 951,-578 951,-566 951,-566 951,-560 957,-554 963,-554 963,-554 1033,-554 1033,-554 1039,-554 1045,-560 1045,-566 1045,-566 1045,-578 1045,-578 1045,-584 1039,-590 1033,-590"/>
<text text-anchor="middle" x="998" y="-568.3" font-family="Helvetica,sans-Serif" font-size="14.00">characters.ts</text>
</g>
<!-- src/core&#45;validators/addresses.ts&#45;&gt;src/core&#45;validators/characters.ts -->
<g id="edge1" class="edge">
<title>src/core&#45;validators/addresses.ts&#45;&gt;src/core&#45;validators/characters.ts</title>
<path fill="none" stroke="#528b8b" stroke-width="2" d="M908.66,-536.13C919.62,-540.58 931.48,-545.4 942.84,-550.01"/>
<polygon fill="#528b8b" stroke="#528b8b" stroke-width="2" points="941.65,-553.31 952.23,-553.82 944.29,-546.82 941.65,-553.31"/>
</g>
<!-- src/core&#45;validators/checkers.ts -->
<g id="node4" class="node">
<title>src/core&#45;validators/checkers.ts</title>
<path fill="#79cdcd" stroke="#79cdcd" d="M893.5,-590C893.5,-590 832.5,-590 832.5,-590 826.5,-590 820.5,-584 820.5,-578 820.5,-578 820.5,-566 820.5,-566 820.5,-560 826.5,-554 832.5,-554 832.5,-554 893.5,-554 893.5,-554 899.5,-554 905.5,-560 905.5,-566 905.5,-566 905.5,-578 905.5,-578 905.5,-584 899.5,-590 893.5,-590"/>
<text text-anchor="middle" x="863" y="-568.3" font-family="Helvetica,sans-Serif" font-size="14.00">checkers.ts</text>
</g>
<!-- src/core&#45;validators/checkers.ts&#45;&gt;src/core&#45;validators/characters.ts -->
<g id="edge2" class="edge">
<title>src/core&#45;validators/checkers.ts&#45;&gt;src/core&#45;validators/characters.ts</title>
<path fill="none" stroke="#528b8b" stroke-width="2" d="M905.72,-572C916.79,-572 928.94,-572 940.66,-572"/>
<polygon fill="#528b8b" stroke="#528b8b" stroke-width="2" points="940.81,-575.5 950.81,-572 940.81,-568.5 940.81,-575.5"/>
</g>
<!-- src/crypto/base32.ts -->
<g id="node5" class="node">
<title>src/crypto/base32.ts</title>
<path fill="#79cdcd" stroke="#79cdcd" d="M888.5,-443C888.5,-443 837.5,-443 837.5,-443 831.5,-443 825.5,-437 825.5,-431 825.5,-431 825.5,-419 825.5,-419 825.5,-413 831.5,-407 837.5,-407 837.5,-407 888.5,-407 888.5,-407 894.5,-407 900.5,-413 900.5,-419 900.5,-419 900.5,-431 900.5,-431 900.5,-437 894.5,-443 888.5,-443"/>
<text text-anchor="middle" x="863" y="-421.3" font-family="Helvetica,sans-Serif" font-size="14.00">base32.ts</text>
</g>
<!-- src/crypto/crypto&#45;driver&#45;chloride.ts -->
<g id="node6" class="node">
<title>src/crypto/crypto&#45;driver&#45;chloride.ts</title>
<path fill="#79cdcd" stroke="#79cdcd" d="M758.5,-379C758.5,-379 624.5,-379 624.5,-379 618.5,-379 612.5,-373 612.5,-367 612.5,-367 612.5,-355 612.5,-355 612.5,-349 618.5,-343 624.5,-343 624.5,-343 758.5,-343 758.5,-343 764.5,-343 770.5,-349 770.5,-355 770.5,-355 770.5,-367 770.5,-367 770.5,-373 764.5,-379 758.5,-379"/>
<text text-anchor="middle" x="691.5" y="-357.3" font-family="Helvetica,sans-Serif" font-size="14.00">crypto&#45;driver&#45;chloride.ts</text>
</g>
<!-- src/crypto/crypto&#45;types.ts -->
<g id="node9" class="node">
<title>src/crypto/crypto&#45;types.ts</title>
<path fill="#79cdcd" stroke="#79cdcd" d="M903,-306C903,-306 823,-306 823,-306 817,-306 811,-300 811,-294 811,-294 811,-282 811,-282 811,-276 817,-270 823,-270 823,-270 903,-270 903,-270 909,-270 915,-276 915,-282 915,-282 915,-294 915,-294 915,-300 909,-306 903,-306"/>
<text text-anchor="middle" x="863" y="-284.3" font-family="Helvetica,sans-Serif" font-size="14.00">crypto&#45;types.ts</text>
</g>
<!-- src/crypto/crypto&#45;driver&#45;chloride.ts&#45;&gt;src/crypto/crypto&#45;types.ts -->
<g id="edge3" class="edge">
<title>src/crypto/crypto&#45;driver&#45;chloride.ts&#45;&gt;src/crypto/crypto&#45;types.ts</title>
<path fill="none" stroke="#528b8b" stroke-width="2" d="M757.01,-342.98C765.01,-340.22 773.01,-337.22 780.5,-334 795.3,-327.64 810.85,-319.31 824.37,-311.49"/>
<polygon fill="#528b8b" stroke="#528b8b" stroke-width="2" points="826.52,-314.28 833.36,-306.18 822.97,-308.25 826.52,-314.28"/>
</g>
<!-- src/crypto/crypto&#45;driver&#45;node.ts -->
<g id="node7" class="node">
<title>src/crypto/crypto&#45;driver&#45;node.ts</title>
<path fill="#79cdcd" stroke="#79cdcd" d="M749.5,-325C749.5,-325 633.5,-325 633.5,-325 627.5,-325 621.5,-319 621.5,-313 621.5,-313 621.5,-301 621.5,-301 621.5,-295 627.5,-289 633.5,-289 633.5,-289 749.5,-289 749.5,-289 755.5,-289 761.5,-295 761.5,-301 761.5,-301 761.5,-313 761.5,-313 761.5,-319 755.5,-325 749.5,-325"/>
<text text-anchor="middle" x="691.5" y="-303.3" font-family="Helvetica,sans-Serif" font-size="14.00">crypto&#45;driver&#45;node.ts</text>
</g>
<!-- src/crypto/crypto&#45;driver&#45;node.ts&#45;&gt;src/crypto/crypto&#45;types.ts -->
<g id="edge4" class="edge">
<title>src/crypto/crypto&#45;driver&#45;node.ts&#45;&gt;src/crypto/crypto&#45;types.ts</title>
<path fill="none" stroke="#528b8b" stroke-width="2" d="M761.93,-299.22C774.84,-297.77 788.25,-296.27 800.89,-294.85"/>
<polygon fill="#528b8b" stroke="#528b8b" stroke-width="2" points="801.29,-298.33 810.84,-293.73 800.51,-291.37 801.29,-298.33"/>
</g>
<!-- src/crypto/crypto&#45;driver&#45;tweetnacl.ts&#45;&gt;src/crypto/crypto&#45;types.ts -->
<g id="edge5" class="edge">
<title>src/crypto/crypto&#45;driver&#45;tweetnacl.ts&#45;&gt;src/crypto/crypto&#45;types.ts</title>
<path fill="none" stroke="#528b8b" stroke-width="2" d="M748,-251.01C764.95,-256.51 783.68,-262.59 800.97,-268.2"/>
<polygon fill="#528b8b" stroke="#528b8b" stroke-width="2" points="800.37,-271.68 810.96,-271.44 802.53,-265.02 800.37,-271.68"/>
</g>
<!-- src/crypto/crypto.ts&#45;&gt;src/core&#45;validators/addresses.ts -->
<g id="edge9" class="edge">
<title>src/crypto/crypto.ts&#45;&gt;src/core&#45;validators/addresses.ts</title>
<path fill="none" stroke="#528b8b" stroke-width="2" d="M530.04,-442.51C592.68,-456.76 729.34,-487.83 806.36,-505.35"/>
<polygon fill="#528b8b" stroke="#528b8b" stroke-width="2" points="805.83,-508.82 816.36,-507.62 807.38,-501.99 805.83,-508.82"/>
</g>
<!-- src/crypto/crypto.ts&#45;&gt;src/crypto/base32.ts -->
<g id="edge7" class="edge">
<title>src/crypto/crypto.ts&#45;&gt;src/crypto/base32.ts</title>
<path fill="none" stroke="#528b8b" stroke-width="2" d="M530.28,-438.56C583.36,-443.61 690.39,-451.3 780.5,-442 791.84,-440.83 803.92,-438.77 815.22,-436.47"/>
<polygon fill="#528b8b" stroke="#528b8b" stroke-width="2" points="816.28,-439.83 825.33,-434.32 814.82,-432.98 816.28,-439.83"/>
</g>
<!-- src/crypto/crypto.ts&#45;&gt;src/crypto/crypto&#45;types.ts -->
<g id="edge6" class="edge">
<title>src/crypto/crypto.ts&#45;&gt;src/crypto/crypto&#45;types.ts</title>
<path fill="none" stroke="#528b8b" stroke-width="2" d="M530.29,-434.18C547.4,-431.98 567.27,-426.4 580,-413 621.6,-369.2 561.09,-318.06 608,-280 636.46,-256.91 734.93,-267.15 800.57,-277.19"/>
<polygon fill="#528b8b" stroke="#528b8b" stroke-width="2" points="800.39,-280.71 810.81,-278.8 801.47,-273.79 800.39,-280.71"/>
</g>
<!-- src/crypto/keypair.ts -->
<g id="node11" class="node">
<title>src/crypto/keypair.ts</title>
<path fill="#79cdcd" stroke="#79cdcd" d="M716.5,-433C716.5,-433 666.5,-433 666.5,-433 660.5,-433 654.5,-427 654.5,-421 654.5,-421 654.5,-409 654.5,-409 654.5,-403 660.5,-397 666.5,-397 666.5,-397 716.5,-397 716.5,-397 722.5,-397 728.5,-403 728.5,-409 728.5,-409 728.5,-421 728.5,-421 728.5,-427 722.5,-433 716.5,-433"/>
<text text-anchor="middle" x="691.5" y="-411.3" font-family="Helvetica,sans-Serif" font-size="14.00">keypair.ts</text>
</g>
<!-- src/crypto/crypto.ts&#45;&gt;src/crypto/keypair.ts -->
<g id="edge8" class="edge">
<title>src/crypto/crypto.ts&#45;&gt;src/crypto/keypair.ts</title>
<path fill="none" stroke="#528b8b" stroke-width="2" d="M530.26,-431.56C561.74,-428.31 609.25,-423.4 644.38,-419.77"/>
<polygon fill="#528b8b" stroke="#528b8b" stroke-width="2" points="644.8,-423.24 654.39,-418.73 644.08,-416.28 644.8,-423.24"/>
</g>
<!-- src/crypto/keypair.ts&#45;&gt;src/core&#45;validators/addresses.ts -->
<g id="edge12" class="edge">
<title>src/crypto/keypair.ts&#45;&gt;src/core&#45;validators/addresses.ts</title>
<path fill="none" stroke="#528b8b" stroke-width="2" d="M720.38,-433.1C743.73,-448.12 778.02,-469.88 808.5,-488 812.31,-490.27 816.3,-492.59 820.3,-494.89"/>
<polygon fill="#528b8b" stroke="#528b8b" stroke-width="2" points="818.61,-497.95 829.03,-499.86 822.07,-491.87 818.61,-497.95"/>
</g>
<!-- src/crypto/keypair.ts&#45;&gt;src/crypto/base32.ts -->
<g id="edge10" class="edge">
<title>src/crypto/keypair.ts&#45;&gt;src/crypto/base32.ts</title>
<path fill="none" stroke="#528b8b" stroke-width="2" d="M728.86,-417.15C754.13,-418.64 788.04,-420.64 815.31,-422.25"/>
<polygon fill="#528b8b" stroke="#528b8b" stroke-width="2" points="815.22,-425.75 825.41,-422.84 815.63,-418.76 815.22,-425.75"/>
</g>
<!-- src/crypto/keypair.ts&#45;&gt;src/crypto/crypto&#45;types.ts -->
<g id="edge11" class="edge">
<title>src/crypto/keypair.ts&#45;&gt;src/crypto/crypto&#45;types.ts</title>
<path fill="none" stroke="#528b8b" stroke-width="2" d="M728.87,-408.89C745.61,-404.86 765.12,-398.35 780.5,-388 808.59,-369.1 831.92,-337.65 846.32,-315.06"/>
<polygon fill="#528b8b" stroke="#528b8b" stroke-width="2" points="849.47,-316.63 851.76,-306.29 843.52,-312.95 849.47,-316.63"/>
</g>
<!-- src/format&#45;validators/format&#45;validator&#45;es4.ts&#45;&gt;src/core&#45;validators/addresses.ts -->
<g id="edge24" class="edge">
<title>src/format&#45;validators/format&#45;validator&#45;es4.ts&#45;&gt;src/core&#45;validators/addresses.ts</title>
<path fill="none" stroke="#528b8b" stroke-width="2" d="M524.91,-570.86C546.62,-557.79 577.99,-541.08 608,-533 674.38,-515.12 753.92,-513.44 806.09,-514.86"/>
<polygon fill="#528b8b" stroke="#528b8b" stroke-width="2" points="806.04,-518.36 816.15,-515.19 806.26,-511.37 806.04,-518.36"/>
</g>
<!-- src/format&#45;validators/format&#45;validator&#45;es4.ts&#45;&gt;src/core&#45;validators/characters.ts -->
<g id="edge22" class="edge">
<title>src/format&#45;validators/format&#45;validator&#45;es4.ts&#45;&gt;src/core&#45;validators/characters.ts</title>
<path fill="none" stroke="#528b8b" stroke-width="2" d="M559.92,-570.94C575.5,-567.23 592.25,-563.89 608,-562 646.06,-557.44 746.18,-544.93 780.5,-562 798.97,-571.18 790.03,-589.82 808.5,-599 854.07,-621.66 872.89,-607.86 923,-599 930.49,-597.68 938.22,-595.65 945.73,-593.3"/>
<polygon fill="#528b8b" stroke="#528b8b" stroke-width="2" points="947.07,-596.54 955.44,-590.04 944.85,-589.9 947.07,-596.54"/>
</g>
<!-- src/format&#45;validators/format&#45;validator&#45;es4.ts&#45;&gt;src/core&#45;validators/checkers.ts -->
<g id="edge23" class="edge">
<title>src/format&#45;validators/format&#45;validator&#45;es4.ts&#45;&gt;src/core&#45;validators/checkers.ts</title>
<path fill="none" stroke="#528b8b" stroke-width="2" d="M534.55,-570.9C555.61,-561.76 582.66,-551.63 608,-547 683.42,-533.21 704.68,-535.63 780.5,-547 790.38,-548.48 800.72,-550.92 810.58,-553.71"/>
<polygon fill="#528b8b" stroke="#528b8b" stroke-width="2" points="809.67,-557.09 820.25,-556.59 811.67,-550.38 809.67,-557.09"/>
</g>
<!-- src/format&#45;validators/format&#45;validator&#45;es4.ts&#45;&gt;src/crypto/crypto&#45;types.ts -->
<g id="edge21" class="edge">
<title>src/format&#45;validators/format&#45;validator&#45;es4.ts&#45;&gt;src/crypto/crypto&#45;types.ts</title>
<path fill="none" stroke="#528b8b" stroke-width="2" d="M518.9,-570.97C540.57,-553.74 575.15,-527.82 608,-510 680.44,-470.71 719.08,-496.94 780.5,-442 790.91,-432.69 828.69,-356.72 848.95,-315.07"/>
<polygon fill="#528b8b" stroke="#528b8b" stroke-width="2" points="852.13,-316.54 853.35,-306.01 845.83,-313.48 852.13,-316.54"/>
</g>
<!-- src/format&#45;validators/format&#45;validator&#45;types.ts -->
<g id="node13" class="node">
<title>src/format&#45;validators/format&#45;validator&#45;types.ts</title>
<path fill="#79cdcd" stroke="#79cdcd" d="M760.5,-607C760.5,-607 622.5,-607 622.5,-607 616.5,-607 610.5,-601 610.5,-595 610.5,-595 610.5,-583 610.5,-583 610.5,-577 616.5,-571 622.5,-571 622.5,-571 760.5,-571 760.5,-571 766.5,-571 772.5,-577 772.5,-583 772.5,-583 772.5,-595 772.5,-595 772.5,-601 766.5,-607 760.5,-607"/>
<text text-anchor="middle" x="691.5" y="-585.3" font-family="Helvetica,sans-Serif" font-size="14.00">format&#45;validator&#45;types.ts</text>
</g>
<!-- src/format&#45;validators/format&#45;validator&#45;es4.ts&#45;&gt;src/format&#45;validators/format&#45;validator&#45;types.ts -->
<g id="edge20" class="edge">
<title>src/format&#45;validators/format&#45;validator&#45;es4.ts&#45;&gt;src/format&#45;validators/format&#45;validator&#45;types.ts</title>
<path fill="none" stroke="#528b8b" stroke-width="2" d="M572.09,-589C581.29,-589 590.78,-589 600.18,-589"/>
<polygon fill="#528b8b" stroke="#528b8b" stroke-width="2" points="600.33,-592.5 610.33,-589 600.33,-585.5 600.33,-592.5"/>
</g>
<!-- src/format&#45;validators/format&#45;validator&#45;types.ts&#45;&gt;src/crypto/crypto&#45;types.ts -->
<g id="edge25" class="edge">
<title>src/format&#45;validators/format&#45;validator&#45;types.ts&#45;&gt;src/crypto/crypto&#45;types.ts</title>
<path fill="none" stroke="#528b8b" stroke-width="2" d="M712.69,-570.75C732.52,-551.82 762.36,-520.49 780.5,-488 800.92,-451.42 793.07,-436.95 808.5,-398 819.95,-369.11 835.79,-337.3 847.26,-315.35"/>
<polygon fill="#528b8b" stroke="#528b8b" stroke-width="2" points="850.47,-316.78 852.04,-306.3 844.28,-313.51 850.47,-316.78"/>
</g>
<!-- src/peer/peer&#45;client.ts -->
<g id="node14" class="node">
<title>src/peer/peer&#45;client.ts</title>
<path fill="#79cdcd" stroke="#79cdcd" d="M315,-114C315,-114 245,-114 245,-114 239,-114 233,-108 233,-102 233,-102 233,-90 233,-90 233,-84 239,-78 245,-78 245,-78 315,-78 315,-78 321,-78 327,-84 327,-90 327,-90 327,-102 327,-102 327,-108 321,-114 315,-114"/>
<text text-anchor="middle" x="280" y="-92.3" font-family="Helvetica,sans-Serif" font-size="14.00">peer&#45;client.ts</text>
</g>
<!-- src/peer/peer&#45;client.ts&#45;&gt;src/crypto/crypto&#45;types.ts -->
<g id="edge26" class="edge">
<title>src/peer/peer&#45;client.ts&#45;&gt;src/crypto/crypto&#45;types.ts</title>
<path fill="none" stroke="#528b8b" stroke-width="2" d="M327.19,-99.57C346.5,-103.09 368.09,-109.9 384,-123 406.1,-141.19 388.28,-164.97 412,-181 480,-226.96 705.83,-171.93 780.5,-206 806.9,-218.05 829.48,-242.65 844.13,-261.78"/>
<polygon fill="#528b8b" stroke="#528b8b" stroke-width="2" points="841.34,-263.89 850.1,-269.85 846.97,-259.73 841.34,-263.89"/>
</g>
<!-- src/peer/peer&#45;types.ts -->
<g id="node16" class="node">
<title>src/peer/peer&#45;types.ts</title>
<path fill="#79cdcd" stroke="#79cdcd" d="M531.5,-157C531.5,-157 460.5,-157 460.5,-157 454.5,-157 448.5,-151 448.5,-145 448.5,-145 448.5,-133 448.5,-133 448.5,-127 454.5,-121 460.5,-121 460.5,-121 531.5,-121 531.5,-121 537.5,-121 543.5,-127 543.5,-133 543.5,-133 543.5,-145 543.5,-145 543.5,-151 537.5,-157 531.5,-157"/>
<text text-anchor="middle" x="496" y="-135.3" font-family="Helvetica,sans-Serif" font-size="14.00">peer&#45;types.ts</text>
</g>
<!-- src/peer/peer&#45;client.ts&#45;&gt;src/peer/peer&#45;types.ts -->
<g id="edge27" class="edge">
<title>src/peer/peer&#45;client.ts&#45;&gt;src/peer/peer&#45;types.ts</title>
<path fill="none" stroke="#528b8b" stroke-width="2" d="M327.17,-105.28C359.71,-111.82 403.5,-120.61 438.19,-127.58"/>
<polygon fill="#528b8b" stroke="#528b8b" stroke-width="2" points="437.68,-131.05 448.17,-129.59 439.06,-124.19 437.68,-131.05"/>
</g>
<!-- src/storage/compare.ts -->
<g id="node22" class="node">
<title>src/storage/compare.ts</title>
<path fill="#79cdcd" stroke="#79cdcd" d="M526,-710C526,-710 466,-710 466,-710 460,-710 454,-704 454,-698 454,-698 454,-686 454,-686 454,-680 460,-674 466,-674 466,-674 526,-674 526,-674 532,-674 538,-680 538,-686 538,-686 538,-698 538,-698 538,-704 532,-710 526,-710"/>
<text text-anchor="middle" x="496" y="-688.3" font-family="Helvetica,sans-Serif" font-size="14.00">compare.ts</text>
</g>
<!-- src/peer/peer&#45;client.ts&#45;&gt;src/storage/compare.ts -->
<g id="edge28" class="edge">
<title>src/peer/peer&#45;client.ts&#45;&gt;src/storage/compare.ts</title>
<path fill="none" stroke="#528b8b" stroke-width="2" d="M327.03,-96.41C347.64,-99.16 370.33,-106.24 384,-123 457,-212.51 352.49,-543.01 412,-642 419.68,-654.77 431.97,-664.69 444.78,-672.2"/>
<polygon fill="#528b8b" stroke="#528b8b" stroke-width="2" points="443.21,-675.33 453.67,-677.02 446.55,-669.18 443.21,-675.33"/>
</g>
<!-- src/peer/peer&#45;server.ts -->
<g id="node15" class="node">
<title>src/peer/peer&#45;server.ts</title>
<path fill="#79cdcd" stroke="#79cdcd" d="M318,-60C318,-60 242,-60 242,-60 236,-60 230,-54 230,-48 230,-48 230,-36 230,-36 230,-30 236,-24 242,-24 242,-24 318,-24 318,-24 324,-24 330,-30 330,-36 330,-36 330,-48 330,-48 330,-54 324,-60 318,-60"/>
<text text-anchor="middle" x="280" y="-38.3" font-family="Helvetica,sans-Serif" font-size="14.00">peer&#45;server.ts</text>
</g>
<!-- src/peer/peer&#45;server.ts&#45;&gt;src/crypto/crypto&#45;types.ts -->
<g id="edge29" class="edge">
<title>src/peer/peer&#45;server.ts&#45;&gt;src/crypto/crypto&#45;types.ts</title>
<path fill="none" stroke="#528b8b" stroke-width="2" d="M330.14,-44.66C349.15,-48.07 369.71,-55.06 384,-69 416.12,-100.34 377.04,-137.88 412,-166 443.97,-191.72 743.94,-171.38 780.5,-190 810.79,-205.43 834.07,-237.62 847.85,-260.91"/>
<polygon fill="#528b8b" stroke="#528b8b" stroke-width="2" points="844.84,-262.7 852.83,-269.66 850.92,-259.23 844.84,-262.7"/>
</g>
<!-- src/peer/peer&#45;server.ts&#45;&gt;src/peer/peer&#45;types.ts -->
<g id="edge30" class="edge">
<title>src/peer/peer&#45;server.ts&#45;&gt;src/peer/peer&#45;types.ts</title>
<path fill="none" stroke="#528b8b" stroke-width="2" d="M330.24,-51.66C347.62,-55.91 367.04,-61.64 384,-69 412.1,-81.2 441.31,-99.9 462.71,-114.9"/>
<polygon fill="#528b8b" stroke="#528b8b" stroke-width="2" points="460.91,-117.91 471.08,-120.86 464.97,-112.21 460.91,-117.91"/>
</g>
<!-- src/peer/peer&#45;types.ts&#45;&gt;src/crypto/crypto&#45;types.ts -->
<g id="edge32" class="edge">
<title>src/peer/peer&#45;types.ts&#45;&gt;src/crypto/crypto&#45;types.ts</title>
<path fill="none" stroke="#528b8b" stroke-width="2" d="M543.61,-133.1C603,-127.95 706.78,-127.07 780.5,-171 814.78,-191.43 838.2,-232.52 850.85,-260.15"/>
<polygon fill="#528b8b" stroke="#528b8b" stroke-width="2" points="847.8,-261.91 855.02,-269.66 854.21,-259.1 847.8,-261.91"/>
</g>
<!-- src/storage/storage&#45;types.ts -->
<g id="node27" class="node">
<title>src/storage/storage&#45;types.ts</title>
<path fill="#79cdcd" stroke="#79cdcd" d="M540.5,-764C540.5,-764 451.5,-764 451.5,-764 445.5,-764 439.5,-758 439.5,-752 439.5,-752 439.5,-740 439.5,-740 439.5,-734 445.5,-728 451.5,-728 451.5,-728 540.5,-728 540.5,-728 546.5,-728 552.5,-734 552.5,-740 552.5,-740 552.5,-752 552.5,-752 552.5,-758 546.5,-764 540.5,-764"/>
<text text-anchor="middle" x="496" y="-742.3" font-family="Helvetica,sans-Serif" font-size="14.00">storage&#45;types.ts</text>
</g>
<!-- src/peer/peer&#45;types.ts&#45;&gt;src/storage/storage&#45;types.ts -->
<g id="edge31" class="edge">
<title>src/peer/peer&#45;types.ts&#45;&gt;src/storage/storage&#45;types.ts</title>
<path fill="none" stroke="#528b8b" stroke-width="2" d="M456.64,-157.01C435.07,-169.2 410.28,-187.54 398,-212 385.59,-236.73 384.74,-685.72 398,-710 404.78,-722.42 416.54,-730.61 429.6,-736"/>
<polygon fill="#528b8b" stroke="#528b8b" stroke-width="2" points="428.7,-739.39 439.3,-739.45 431.05,-732.8 428.7,-739.39"/>
</g>
<!-- src/peer/peer.ts&#45;&gt;src/peer/peer&#45;types.ts -->
<g id="edge34" class="edge">
<title>src/peer/peer.ts&#45;&gt;src/peer/peer&#45;types.ts</title>
<path fill="none" stroke="#528b8b" stroke-width="2" d="M309.42,-148.54C342.19,-146.85 396.88,-144.04 438.42,-141.91"/>
<polygon fill="#528b8b" stroke="#528b8b" stroke-width="2" points="438.6,-145.4 448.41,-141.39 438.24,-138.41 438.6,-145.4"/>
</g>
<!-- src/peer/peer.ts&#45;&gt;src/storage/storage&#45;types.ts -->
<g id="edge33" class="edge">
<title>src/peer/peer.ts&#45;&gt;src/storage/storage&#45;types.ts</title>
<path fill="none" stroke="#528b8b" stroke-width="2" d="M284.66,-168.17C303.82,-263 392.49,-697.69 412,-719 417.06,-724.53 423.27,-728.93 430,-732.44"/>
<polygon fill="#528b8b" stroke="#528b8b" stroke-width="2" points="428.86,-735.77 439.42,-736.68 431.74,-729.38 428.86,-735.77"/>
</g>
<!-- src/query&#45;follower/query&#45;follower&#45;types.ts -->
<g id="node18" class="node">
<title>src/query&#45;follower/query&#45;follower&#45;types.ts</title>
<path fill="#79cdcd" stroke="#79cdcd" d="M560,-1001C560,-1001 432,-1001 432,-1001 426,-1001 420,-995 420,-989 420,-989 420,-977 420,-977 420,-971 426,-965 432,-965 432,-965 560,-965 560,-965 566,-965 572,-971 572,-977 572,-977 572,-989 572,-989 572,-995 566,-1001 560,-1001"/>
<text text-anchor="middle" x="496" y="-979.3" font-family="Helvetica,sans-Serif" font-size="14.00">query&#45;follower&#45;types.ts</text>
</g>
<!-- src/query&#45;follower/query&#45;follower&#45;types.ts&#45;&gt;src/storage/storage&#45;types.ts -->
<g id="edge35" class="edge">
<title>src/query&#45;follower/query&#45;follower&#45;types.ts&#45;&gt;src/storage/storage&#45;types.ts</title>
<path fill="none" stroke="#528b8b" stroke-width="2" d="M419.95,-965.83C410.9,-960.42 403.09,-953.32 398,-944 385.54,-921.18 386.92,-850.52 398,-827 409.35,-802.89 431.8,-783.5 452.35,-769.74"/>
<polygon fill="#528b8b" stroke="#528b8b" stroke-width="2" points="454.47,-772.54 461,-764.2 450.69,-766.65 454.47,-772.54"/>
</g>
<!-- src/query&#45;follower/query&#45;follower.ts&#45;&gt;src/query&#45;follower/query&#45;follower&#45;types.ts -->
<g id="edge40" class="edge">
<title>src/query&#45;follower/query&#45;follower.ts&#45;&gt;src/query&#45;follower/query&#45;follower&#45;types.ts</title>
<path fill="none" stroke="#528b8b" stroke-width="2" d="M338.07,-983C360.06,-983 385.68,-983 409.77,-983"/>
<polygon fill="#528b8b" stroke="#528b8b" stroke-width="2" points="409.98,-986.5 419.98,-983 409.98,-979.5 409.98,-986.5"/>
</g>
<!-- src/query/query&#45;types.ts -->
<g id="node20" class="node">
<title>src/query/query&#45;types.ts</title>
<path fill="#79cdcd" stroke="#79cdcd" d="M730,-918C730,-918 653,-918 653,-918 647,-918 641,-912 641,-906 641,-906 641,-894 641,-894 641,-888 647,-882 653,-882 653,-882 730,-882 730,-882 736,-882 742,-888 742,-894 742,-894 742,-906 742,-906 742,-912 736,-918 730,-918"/>
<text text-anchor="middle" x="691.5" y="-896.3" font-family="Helvetica,sans-Serif" font-size="14.00">query&#45;types.ts</text>
</g>
<!-- src/query&#45;follower/query&#45;follower.ts&#45;&gt;src/query/query&#45;types.ts -->
<g id="edge37" class="edge">
<title>src/query&#45;follower/query&#45;follower.ts&#45;&gt;src/query/query&#45;types.ts</title>
<path fill="none" stroke="#528b8b" stroke-width="2" d="M330.22,-1001.03C391.27,-1020.4 497.38,-1044.11 580,-1010 620.46,-993.29 653.9,-953.8 673.04,-926.97"/>
<polygon fill="#528b8b" stroke="#528b8b" stroke-width="2" points="676.15,-928.62 678.97,-918.41 670.4,-924.64 676.15,-928.62"/>
</g>
<!-- src/query/query.ts -->
<g id="node21" class="node">
<title>src/query/query.ts</title>
<path fill="#79cdcd" stroke="#79cdcd" d="M516,-918C516,-918 476,-918 476,-918 470,-918 464,-912 464,-906 464,-906 464,-894 464,-894 464,-888 470,-882 476,-882 476,-882 516,-882 516,-882 522,-882 528,-888 528,-894 528,-894 528,-906 528,-906 528,-912 522,-918 516,-918"/>
<text text-anchor="middle" x="496" y="-896.3" font-family="Helvetica,sans-Serif" font-size="14.00">query.ts</text>
</g>
<!-- src/query&#45;follower/query&#45;follower.ts&#45;&gt;src/query/query.ts -->
<g id="edge39" class="edge">
<title>src/query&#45;follower/query&#45;follower.ts&#45;&gt;src/query/query.ts</title>
<path fill="none" stroke="#528b8b" stroke-width="2" d="M327.43,-964.99C365.19,-950.35 417.94,-929.89 454.12,-915.86"/>
<polygon fill="#528b8b" stroke="#528b8b" stroke-width="2" points="455.8,-918.96 463.85,-912.08 453.26,-912.43 455.8,-918.96"/>
</g>
<!-- src/query&#45;follower/query&#45;follower.ts&#45;&gt;src/storage/storage&#45;types.ts -->
<g id="edge38" class="edge">
<title>src/query&#45;follower/query&#45;follower.ts&#45;&gt;src/storage/storage&#45;types.ts</title>
<path fill="none" stroke="#528b8b" stroke-width="2" d="M297.44,-964.8C335.17,-923.01 428.1,-820.09 471.7,-771.8"/>
<polygon fill="#528b8b" stroke="#528b8b" stroke-width="2" points="474.4,-774.03 478.51,-764.27 469.21,-769.34 474.4,-774.03"/>
</g>
<!-- src/storage/util&#45;types.ts -->
<g id="node28" class="node">
<title>src/storage/util&#45;types.ts</title>
<path fill="#79cdcd" stroke="#79cdcd" d="M722,-720C722,-720 661,-720 661,-720 655,-720 649,-714 649,-708 649,-708 649,-696 649,-696 649,-690 655,-684 661,-684 661,-684 722,-684 722,-684 728,-684 734,-690 734,-696 734,-696 734,-708 734,-708 734,-714 728,-720 722,-720"/>
<text text-anchor="middle" x="691.5" y="-698.3" font-family="Helvetica,sans-Serif" font-size="14.00">util&#45;types.ts</text>
</g>
<!-- src/query&#45;follower/query&#45;follower.ts&#45;&gt;src/storage/util&#45;types.ts -->
<g id="edge36" class="edge">
<title>src/query&#45;follower/query&#45;follower.ts&#45;&gt;src/storage/util&#45;types.ts</title>
<path fill="none" stroke="#528b8b" stroke-width="2" d="M299.35,-964.6C323.66,-940.83 368.58,-899.08 412,-870 481.53,-823.44 515.41,-838.21 580,-785 595.64,-772.11 592.68,-762.27 608,-749 618.33,-740.06 630.61,-731.98 642.51,-725.14"/>
<polygon fill="#528b8b" stroke="#528b8b" stroke-width="2" points="644.44,-728.07 651.49,-720.16 641.05,-721.95 644.44,-728.07"/>
</g>
<!-- src/query/query.ts&#45;&gt;src/query/query&#45;types.ts -->
<g id="edge41" class="edge">
<title>src/query/query.ts&#45;&gt;src/query/query&#45;types.ts</title>
<path fill="none" stroke="#528b8b" stroke-width="2" d="M528.09,-900C555.68,-900 596.77,-900 630.71,-900"/>
<polygon fill="#528b8b" stroke="#528b8b" stroke-width="2" points="630.99,-903.5 640.99,-900 630.99,-896.5 630.99,-903.5"/>
</g>
<!-- src/storage/compare.ts&#45;&gt;src/storage/util&#45;types.ts -->
<g id="edge42" class="edge">
<title>src/storage/compare.ts&#45;&gt;src/storage/util&#45;types.ts</title>
<path fill="none" stroke="#528b8b" stroke-width="2" d="M538.04,-694.12C567.34,-695.64 606.99,-697.68 638.51,-699.31"/>
<polygon fill="#528b8b" stroke="#528b8b" stroke-width="2" points="638.69,-702.83 648.86,-699.85 639.05,-695.84 638.69,-702.83"/>
</g>
<!-- src/storage/lock.ts -->
<g id="node23" class="node">
<title>src/storage/lock.ts</title>
<path fill="#79cdcd" stroke="#79cdcd" d="M707,-794C707,-794 676,-794 676,-794 670,-794 664,-788 664,-782 664,-782 664,-770 664,-770 664,-764 670,-758 676,-758 676,-758 707,-758 707,-758 713,-758 719,-764 719,-770 719,-770 719,-782 719,-782 719,-788 713,-794 707,-794"/>
<text text-anchor="middle" x="691.5" y="-772.3" font-family="Helvetica,sans-Serif" font-size="14.00">lock.ts</text>
</g>
<!-- src/storage/storage&#45;async.ts&#45;&gt;src/format&#45;validators/format&#45;validator&#45;types.ts -->
<g id="edge46" class="edge">
<title>src/storage/storage&#45;async.ts&#45;&gt;src/format&#45;validators/format&#45;validator&#45;types.ts</title>
<path fill="none" stroke="#528b8b" stroke-width="2" d="M338.14,-683.34C353.35,-680.09 369.55,-675.74 384,-670 397.53,-664.63 398.49,-658.42 412,-653 482.97,-624.55 505.53,-633.3 580,-616 589.07,-613.89 598.54,-611.65 607.96,-609.39"/>
<polygon fill="#528b8b" stroke="#528b8b" stroke-width="2" points="608.84,-612.77 617.74,-607.03 607.2,-605.97 608.84,-612.77"/>
</g>
<!-- src/storage/storage&#45;async.ts&#45;&gt;src/query/query&#45;types.ts -->
<g id="edge44" class="edge">
<title>src/storage/storage&#45;async.ts&#45;&gt;src/query/query&#45;types.ts</title>
<path fill="none" stroke="#528b8b" stroke-width="2" d="M309.96,-710.02C347.72,-733.51 409.32,-771.75 412,-773 483.25,-806.11 509.15,-794.04 580,-828 607.77,-841.31 636.85,-860.5 658.21,-875.73"/>
<polygon fill="#528b8b" stroke="#528b8b" stroke-width="2" points="656.42,-878.75 666.57,-881.77 660.52,-873.07 656.42,-878.75"/>
</g>
<!-- src/storage/storage&#45;async.ts&#45;&gt;src/storage/compare.ts -->
<g id="edge47" class="edge">
<title>src/storage/storage&#45;async.ts&#45;&gt;src/storage/compare.ts</title>
<path fill="none" stroke="#528b8b" stroke-width="2" d="M338.07,-692C370.77,-692 411.5,-692 443.27,-692"/>
<polygon fill="#528b8b" stroke="#528b8b" stroke-width="2" points="443.67,-695.5 453.67,-692 443.67,-688.5 443.67,-695.5"/>
</g>
<!-- src/storage/storage&#45;async.ts&#45;&gt;src/storage/storage&#45;types.ts -->
<g id="edge45" class="edge">
<title>src/storage/storage&#45;async.ts&#45;&gt;src/storage/storage&#45;types.ts</title>
<path fill="none" stroke="#528b8b" stroke-width="2" d="M338.07,-706.4C366.21,-713.5 400.3,-722.1 429.5,-729.47"/>
<polygon fill="#528b8b" stroke="#528b8b" stroke-width="2" points="428.65,-732.87 439.2,-731.92 430.36,-726.08 428.65,-732.87"/>
</g>
<!-- src/storage/storage&#45;async.ts&#45;&gt;src/storage/util&#45;types.ts -->
<g id="edge43" class="edge">
<title>src/storage/storage&#45;async.ts&#45;&gt;src/storage/util&#45;types.ts</title>
<path fill="none" stroke="#528b8b" stroke-width="2" d="M338.06,-679.68C369.79,-672.93 404.38,-665.78 412,-665 486.28,-657.42 506.31,-652.99 580,-665 599.8,-668.23 620.85,-674.51 639.2,-680.99"/>
<polygon fill="#528b8b" stroke="#528b8b" stroke-width="2" points="638.21,-684.36 648.81,-684.49 640.61,-677.78 638.21,-684.36"/>
</g>
<!-- src/storage/storage&#45;cache.ts -->
<g id="node25" class="node">
<title>src/storage/storage&#45;cache.ts</title>
<path fill="#79cdcd" stroke="#79cdcd" d="M128,-804C128,-804 36,-804 36,-804 30,-804 24,-798 24,-792 24,-792 24,-780 24,-780 24,-774 30,-768 36,-768 36,-768 128,-768 128,-768 134,-768 140,-774 140,-780 140,-780 140,-792 140,-792 140,-798 134,-804 128,-804"/>
<text text-anchor="middle" x="82" y="-782.3" font-family="Helvetica,sans-Serif" font-size="14.00">storage&#45;cache.ts</text>
</g>
<!-- src/storage/storage&#45;cache.ts&#45;&gt;src/query&#45;follower/query&#45;follower.ts -->
<g id="edge49" class="edge">
<title>src/storage/storage&#45;cache.ts&#45;&gt;src/query&#45;follower/query&#45;follower.ts</title>
<path fill="none" stroke="#528b8b" stroke-width="2" d="M101.09,-804.18C136.09,-839.36 213.19,-916.85 253.42,-957.29"/>
<polygon fill="#528b8b" stroke="#528b8b" stroke-width="2" points="251.42,-960.24 260.96,-964.86 256.38,-955.31 251.42,-960.24"/>
</g>
<!-- src/storage/storage&#45;cache.ts&#45;&gt;src/query/query&#45;types.ts -->
<g id="edge50" class="edge">
<title>src/storage/storage&#45;cache.ts&#45;&gt;src/query/query&#45;types.ts</title>
<path fill="none" stroke="#528b8b" stroke-width="2" d="M83.28,-804.31C85.12,-852.23 97.47,-981.43 176,-1036 323.45,-1138.47 417.87,-1113.17 580,-1036 627,-1013.63 660.54,-960.4 677.61,-927.57"/>
<polygon fill="#528b8b" stroke="#528b8b" stroke-width="2" points="680.81,-928.99 682.18,-918.49 674.56,-925.84 680.81,-928.99"/>
</g>
<!-- src/storage/storage&#45;cache.ts&#45;&gt;src/query/query.ts -->
<g id="edge48" class="edge">
<title>src/storage/storage&#45;cache.ts&#45;&gt;src/query/query.ts</title>
<path fill="none" stroke="#528b8b" stroke-width="2" d="M140.29,-801.85C224.65,-825.19 380.27,-868.25 454.09,-888.68"/>
<polygon fill="#528b8b" stroke="#528b8b" stroke-width="2" points="453.37,-892.11 463.94,-891.41 455.24,-885.37 453.37,-892.11"/>
</g>
<!-- src/storage/storage&#45;cache.ts&#45;&gt;src/storage/storage&#45;async.ts -->
<g id="edge51" class="edge">
<title>src/storage/storage&#45;cache.ts&#45;&gt;src/storage/storage&#45;async.ts</title>
<path fill="none" stroke="#528b8b" stroke-width="2" d="M131.8,-767.92C134.6,-766.65 137.35,-765.34 140,-764 156.94,-755.43 159.4,-750.21 176,-741 192.8,-731.68 211.67,-722.39 228.61,-714.44"/>
<polygon fill="#528b8b" stroke="#528b8b" stroke-width="2" points="230.21,-717.56 237.81,-710.17 227.26,-711.21 230.21,-717.56"/>
</g>
<!-- src/storage/storage&#45;cache.ts&#45;&gt;src/storage/storage&#45;types.ts -->
<g id="edge52" class="edge">
<title>src/storage/storage&#45;cache.ts&#45;&gt;src/storage/storage&#45;types.ts</title>
<path fill="none" stroke="#528b8b" stroke-width="2" d="M130.14,-767.96C144.64,-763.19 160.79,-758.64 176,-756 262.67,-740.97 364.53,-740.74 429.4,-742.73"/>
<polygon fill="#528b8b" stroke="#528b8b" stroke-width="2" points="429.38,-746.23 439.49,-743.06 429.61,-739.23 429.38,-746.23"/>
</g>
<!-- src/storage/storage&#45;driver&#45;async&#45;memory.ts&#45;&gt;src/query/query&#45;types.ts -->
<g id="edge54" class="edge">
<title>src/storage/storage&#45;driver&#45;async&#45;memory.ts&#45;&gt;src/query/query&#45;types.ts</title>
<path fill="none" stroke="#528b8b" stroke-width="2" d="M363.41,-801.03C370.48,-803.41 377.44,-806.06 384,-809 397.72,-815.16 398.3,-821.8 412,-828 422.11,-832.57 552.3,-865.47 631.05,-885.18"/>
<polygon fill="#528b8b" stroke="#528b8b" stroke-width="2" points="630.31,-888.6 640.86,-887.63 632.01,-881.81 630.31,-888.6"/>
</g>
<!-- src/storage/storage&#45;driver&#45;async&#45;memory.ts&#45;&gt;src/query/query.ts -->
<g id="edge57" class="edge">
<title>src/storage/storage&#45;driver&#45;async&#45;memory.ts&#45;&gt;src/query/query.ts</title>
<path fill="none" stroke="#528b8b" stroke-width="2" d="M313.97,-801.02C351.9,-821.76 414.18,-855.81 454.89,-878.07"/>
<polygon fill="#528b8b" stroke="#528b8b" stroke-width="2" points="453.28,-881.18 463.74,-882.91 456.64,-875.04 453.28,-881.18"/>
</g>
<!-- src/storage/storage&#45;driver&#45;async&#45;memory.ts&#45;&gt;src/storage/compare.ts -->
<g id="edge56" class="edge">
<title>src/storage/storage&#45;driver&#45;async&#45;memory.ts&#45;&gt;src/storage/compare.ts</title>
<path fill="none" stroke="#528b8b" stroke-width="2" d="M314.61,-764.96C340.73,-751.34 378.09,-732.72 412,-719 422.22,-714.87 433.33,-710.9 444,-707.34"/>
<polygon fill="#528b8b" stroke="#528b8b" stroke-width="2" points="445.22,-710.63 453.64,-704.2 443.05,-703.97 445.22,-710.63"/>
</g>
<!-- src/storage/storage&#45;driver&#45;async&#45;memory.ts&#45;&gt;src/storage/lock.ts -->
<g id="edge58" class="edge">
<title>src/storage/storage&#45;driver&#45;async&#45;memory.ts&#45;&gt;src/storage/lock.ts</title>
<path fill="none" stroke="#528b8b" stroke-width="2" d="M384.16,-788.32C441.81,-790.39 514.94,-791.52 580,-788 604.67,-786.66 632.31,-783.66 653.77,-781"/>
<polygon fill="#528b8b" stroke="#528b8b" stroke-width="2" points="654.29,-784.46 663.77,-779.72 653.41,-777.51 654.29,-784.46"/>
</g>
<!-- src/storage/storage&#45;driver&#45;async&#45;memory.ts&#45;&gt;src/storage/storage&#45;types.ts -->
<g id="edge55" class="edge">
<title>src/storage/storage&#45;driver&#45;async&#45;memory.ts&#45;&gt;src/storage/storage&#45;types.ts</title>
<path fill="none" stroke="#528b8b" stroke-width="2" d="M384.24,-765.15C399.55,-762.5 414.96,-759.84 429.22,-757.37"/>
<polygon fill="#528b8b" stroke="#528b8b" stroke-width="2" points="430.12,-760.77 439.38,-755.62 428.93,-753.87 430.12,-760.77"/>
</g>
<!-- src/storage/storage&#45;driver&#45;async&#45;memory.ts&#45;&gt;src/storage/util&#45;types.ts -->
<g id="edge53" class="edge">
<title>src/storage/storage&#45;driver&#45;async&#45;memory.ts&#45;&gt;src/storage/util&#45;types.ts</title>
<path fill="none" stroke="#528b8b" stroke-width="2" d="M384.11,-786.75C456.15,-788.01 545.39,-786.46 580,-773 595.28,-767.06 594.6,-758.43 608,-749 620.04,-740.53 633.72,-732.24 646.43,-725.05"/>
<polygon fill="#528b8b" stroke="#528b8b" stroke-width="2" points="648.44,-727.94 655.48,-720.02 645.04,-721.82 648.44,-727.94"/>
</g>
<!-- src/storage/storage&#45;types.ts&#45;&gt;src/format&#45;validators/format&#45;validator&#45;types.ts -->
<g id="edge60" class="edge">
<title>src/storage/storage&#45;types.ts&#45;&gt;src/format&#45;validators/format&#45;validator&#45;types.ts</title>
<path fill="none" stroke="#528b8b" stroke-width="2" d="M552.7,-735.63C562.71,-731.73 572.37,-726.37 580,-719 606.19,-693.7 585.27,-670.45 608,-642 617.41,-630.22 630.19,-620.25 642.87,-612.25"/>
<polygon fill="#528b8b" stroke="#528b8b" stroke-width="2" points="644.81,-615.16 651.59,-607.02 641.22,-609.16 644.81,-615.16"/>
</g>
<!-- src/storage/storage&#45;types.ts&#45;&gt;src/query/query&#45;types.ts -->
<g id="edge59" class="edge">
<title>src/storage/storage&#45;types.ts&#45;&gt;src/query/query&#45;types.ts</title>
<path fill="none" stroke="#528b8b" stroke-width="2" d="M517.96,-764.22C540.05,-783.25 576,-813.8 608,-839 623.94,-851.55 642.03,-865.01 657.2,-876.08"/>
<polygon fill="#528b8b" stroke="#528b8b" stroke-width="2" points="655.15,-878.92 665.29,-881.97 659.26,-873.26 655.15,-878.92"/>
</g>
<!-- src/storage/storage&#45;types.ts&#45;&gt;src/storage/lock.ts -->
<g id="edge61" class="edge">
<title>src/storage/storage&#45;types.ts&#45;&gt;src/storage/lock.ts</title>
<path fill="none" stroke="#528b8b" stroke-width="2" d="M552.71,-754.64C585.22,-759.68 625.33,-765.9 653.87,-770.32"/>
<polygon fill="#528b8b" stroke="#528b8b" stroke-width="2" points="653.41,-773.79 663.83,-771.87 654.49,-766.87 653.41,-773.79"/>
</g>
</g>
</svg>
