<?xml version="1.0" encoding="UTF-8" standalone="no"?>
<!DOCTYPE svg PUBLIC "-//W3C//DTD SVG 1.1//EN"
 "http://www.w3.org/Graphics/SVG/1.1/DTD/svg11.dtd">
<!-- Generated by graphviz version 2.44.1 (20200629.0846)
 -->
<!-- Title: G Pages: 1 -->
<svg width="1229pt" height="847pt"
 viewBox="0.00 0.00 1229.00 847.22" xmlns="http://www.w3.org/2000/svg" xmlns:xlink="http://www.w3.org/1999/xlink">
<g id="graph0" class="graph" transform="scale(1 1) rotate(0) translate(4 843.22)">
<title>G</title>
<polygon fill="white" stroke="transparent" points="-4,4 -4,-843.22 1225,-843.22 1225,4 -4,4"/>
<g id="clust1" class="cluster">
<title>cluster9857871135</title>
<path fill="none" stroke="#8b7d6b" stroke-width="2" d="M20,-10.22C20,-10.22 1201,-10.22 1201,-10.22 1207,-10.22 1213,-16.22 1213,-22.22 1213,-22.22 1213,-819.22 1213,-819.22 1213,-825.22 1207,-831.22 1201,-831.22 1201,-831.22 20,-831.22 20,-831.22 14,-831.22 8,-825.22 8,-819.22 8,-819.22 8,-22.22 8,-22.22 8,-16.22 14,-10.22 20,-10.22"/>
<text text-anchor="start" x="600" y="-817.02" font-family="Helvetica,sans-Serif" font-weight="bold" font-size="14.00">src</text>
</g>
<g id="clust2" class="cluster">
<title>cluster3663619958</title>
<path fill="bisque" stroke="#8b7d6b" stroke-width="2" d="M972.5,-386.22C972.5,-386.22 1193,-386.22 1193,-386.22 1199,-386.22 1205,-392.22 1205,-398.22 1205,-398.22 1205,-503.22 1205,-503.22 1205,-509.22 1199,-515.22 1193,-515.22 1193,-515.22 972.5,-515.22 972.5,-515.22 966.5,-515.22 960.5,-509.22 960.5,-503.22 960.5,-503.22 960.5,-398.22 960.5,-398.22 960.5,-392.22 966.5,-386.22 972.5,-386.22"/>
<text text-anchor="start" x="1034.25" y="-501.02" font-family="Helvetica,sans-Serif" font-weight="bold" font-size="14.00">core&#45;validators</text>
</g>
<g id="clust3" class="cluster">
<title>cluster4620504191</title>
<path fill="bisque" stroke="#8b7d6b" stroke-width="2" d="M618,-523.22C618,-523.22 1063,-523.22 1063,-523.22 1069,-523.22 1075,-529.22 1075,-535.22 1075,-535.22 1075,-788.22 1075,-788.22 1075,-794.22 1069,-800.22 1063,-800.22 1063,-800.22 618,-800.22 618,-800.22 612,-800.22 606,-794.22 606,-788.22 606,-788.22 606,-535.22 606,-535.22 606,-529.22 612,-523.22 618,-523.22"/>
<text text-anchor="start" x="819.5" y="-786.02" font-family="Helvetica,sans-Serif" font-weight="bold" font-size="14.00">crypto</text>
</g>
<g id="clust4" class="cluster">
<title>cluster1122718114</title>
<path fill="bisque" stroke="#8b7d6b" stroke-width="2" d="M34,-489.22C34,-489.22 130,-489.22 130,-489.22 136,-489.22 142,-495.22 142,-501.22 142,-501.22 142,-714.22 142,-714.22 142,-720.22 136,-726.22 130,-726.22 130,-726.22 34,-726.22 34,-726.22 28,-726.22 22,-720.22 22,-714.22 22,-714.22 22,-501.22 22,-501.22 22,-495.22 28,-489.22 34,-489.22"/>
<text text-anchor="start" x="59.5" y="-712.02" font-family="Helvetica,sans-Serif" font-weight="bold" font-size="14.00">entries</text>
</g>
<g id="clust5" class="cluster">
<title>cluster1404075962</title>
<path fill="bisque" stroke="#8b7d6b" stroke-width="2" d="M576,-369.22C576,-369.22 920.5,-369.22 920.5,-369.22 926.5,-369.22 932.5,-375.22 932.5,-381.22 932.5,-381.22 932.5,-432.22 932.5,-432.22 932.5,-438.22 926.5,-444.22 920.5,-444.22 920.5,-444.22 576,-444.22 576,-444.22 570,-444.22 564,-438.22 564,-432.22 564,-432.22 564,-381.22 564,-381.22 564,-375.22 570,-369.22 576,-369.22"/>
<text text-anchor="start" x="692.25" y="-430.02" font-family="Helvetica,sans-Serif" font-weight="bold" font-size="14.00">format&#45;validators</text>
</g>
<g id="clust6" class="cluster">
<title>cluster9881695227</title>
<path fill="bisque" stroke="#8b7d6b" stroke-width="2" d="M28,-18.22C28,-18.22 890,-18.22 890,-18.22 896,-18.22 902,-24.22 902,-30.22 902,-30.22 902,-349.22 902,-349.22 902,-355.22 896,-361.22 890,-361.22 890,-361.22 28,-361.22 28,-361.22 22,-361.22 16,-355.22 16,-349.22 16,-349.22 16,-30.22 16,-30.22 16,-24.22 22,-18.22 28,-18.22"/>
<text text-anchor="start" x="434.5" y="-347.02" font-family="Helvetica,sans-Serif" font-weight="bold" font-size="14.00">storage</text>
</g>
<!-- src/example&#45;app.ts -->
<g id="node1" class="node">
<title>src/example&#45;app.ts</title>
<path fill="#79cdcd" stroke="#79cdcd" d="M125,-407.22C125,-407.22 39,-407.22 39,-407.22 33,-407.22 27,-401.22 27,-395.22 27,-395.22 27,-383.22 27,-383.22 27,-377.22 33,-371.22 39,-371.22 39,-371.22 125,-371.22 125,-371.22 131,-371.22 137,-377.22 137,-383.22 137,-383.22 137,-395.22 137,-395.22 137,-401.22 131,-407.22 125,-407.22"/>
<text text-anchor="middle" x="82" y="-385.52" font-family="Helvetica,sans-Serif" font-size="14.00">example&#45;app.ts</text>
</g>
<!-- src/crypto/crypto&#45;driver&#45;tweetnacl.ts -->
<g id="node8" class="node">
<title>src/crypto/crypto&#45;driver&#45;tweetnacl.ts</title>
<path fill="#79cdcd" stroke="#79cdcd" d="M915,-567.22C915,-567.22 772,-567.22 772,-567.22 766,-567.22 760,-561.22 760,-555.22 760,-555.22 760,-543.22 760,-543.22 760,-537.22 766,-531.22 772,-531.22 772,-531.22 915,-531.22 915,-531.22 921,-531.22 927,-537.22 927,-543.22 927,-543.22 927,-555.22 927,-555.22 927,-561.22 921,-567.22 915,-567.22"/>
<text text-anchor="middle" x="843.5" y="-545.52" font-family="Helvetica,sans-Serif" font-size="14.00">crypto&#45;driver&#45;tweetnacl.ts</text>
</g>
<!-- src/example&#45;app.ts&#45;&gt;src/crypto/crypto&#45;driver&#45;tweetnacl.ts -->
<g id="edge17" class="edge">
<title>src/example&#45;app.ts&#45;&gt;src/crypto/crypto&#45;driver&#45;tweetnacl.ts</title>
<path fill="none" stroke="#528b8b" stroke-width="2" d="M137.01,-400.6C265.31,-427.63 589.58,-495.94 749.88,-529.71"/>
<polygon fill="#528b8b" stroke="#528b8b" stroke-width="2" points="749.22,-533.15 759.73,-531.78 750.66,-526.3 749.22,-533.15"/>
</g>
<!-- src/crypto/crypto.ts -->
<g id="node10" class="node">
<title>src/crypto/crypto.ts</title>
<path fill="#79cdcd" stroke="#79cdcd" d="M670,-729.22C670,-729.22 626,-729.22 626,-729.22 620,-729.22 614,-723.22 614,-717.22 614,-717.22 614,-705.22 614,-705.22 614,-699.22 620,-693.22 626,-693.22 626,-693.22 670,-693.22 670,-693.22 676,-693.22 682,-699.22 682,-705.22 682,-705.22 682,-717.22 682,-717.22 682,-723.22 676,-729.22 670,-729.22"/>
<text text-anchor="middle" x="648" y="-707.52" font-family="Helvetica,sans-Serif" font-size="14.00">crypto.ts</text>
</g>
<!-- src/example&#45;app.ts&#45;&gt;src/crypto/crypto.ts -->
<g id="edge16" class="edge">
<title>src/example&#45;app.ts&#45;&gt;src/crypto/crypto.ts</title>
<path fill="none" stroke="#528b8b" stroke-width="2" d="M93.82,-407.62C109.32,-432.69 140,-477.7 176,-506.22 313.01,-614.75 516.3,-677.26 604.07,-700.6"/>
<polygon fill="#528b8b" stroke="#528b8b" stroke-width="2" points="603.39,-704.04 613.95,-703.19 605.16,-697.27 603.39,-704.04"/>
</g>
<!-- src/format&#45;validators/format&#45;validator&#45;es4.ts -->
<g id="node16" class="node">
<title>src/format&#45;validators/format&#45;validator&#45;es4.ts</title>
<path fill="#79cdcd" stroke="#79cdcd" d="M712,-413.22C712,-413.22 584,-413.22 584,-413.22 578,-413.22 572,-407.22 572,-401.22 572,-401.22 572,-389.22 572,-389.22 572,-383.22 578,-377.22 584,-377.22 584,-377.22 712,-377.22 712,-377.22 718,-377.22 724,-383.22 724,-389.22 724,-389.22 724,-401.22 724,-401.22 724,-407.22 718,-413.22 712,-413.22"/>
<text text-anchor="middle" x="648" y="-391.52" font-family="Helvetica,sans-Serif" font-size="14.00">format&#45;validator&#45;es4.ts</text>
</g>
<!-- src/example&#45;app.ts&#45;&gt;src/format&#45;validators/format&#45;validator&#45;es4.ts -->
<g id="edge13" class="edge">
<title>src/example&#45;app.ts&#45;&gt;src/format&#45;validators/format&#45;validator&#45;es4.ts</title>
<path fill="none" stroke="#528b8b" stroke-width="2" d="M137.08,-389.8C235.4,-390.84 444.13,-393.06 561.77,-394.31"/>
<polygon fill="#528b8b" stroke="#528b8b" stroke-width="2" points="561.78,-397.81 571.82,-394.42 561.86,-390.81 561.78,-397.81"/>
</g>
<!-- src/storage/query&#45;follower.ts -->
<g id="node21" class="node">
<title>src/storage/query&#45;follower.ts</title>
<path fill="#79cdcd" stroke="#79cdcd" d="M280,-149.22C280,-149.22 188,-149.22 188,-149.22 182,-149.22 176,-143.22 176,-137.22 176,-137.22 176,-125.22 176,-125.22 176,-119.22 182,-113.22 188,-113.22 188,-113.22 280,-113.22 280,-113.22 286,-113.22 292,-119.22 292,-125.22 292,-125.22 292,-137.22 292,-137.22 292,-143.22 286,-149.22 280,-149.22"/>
<text text-anchor="middle" x="234" y="-127.52" font-family="Helvetica,sans-Serif" font-size="14.00">query&#45;follower.ts</text>
</g>
<!-- src/example&#45;app.ts&#45;&gt;src/storage/query&#45;follower.ts -->
<g id="edge18" class="edge">
<title>src/example&#45;app.ts&#45;&gt;src/storage/query&#45;follower.ts</title>
<path fill="none" stroke="#528b8b" stroke-width="2" d="M136.22,-371.15C138.33,-369.35 140.28,-367.38 142,-365.22 199.3,-293.15 121.77,-231.83 173.3,-157.66"/>
<polygon fill="#528b8b" stroke="#528b8b" stroke-width="2" points="176.23,-159.59 179.46,-149.5 170.64,-155.37 176.23,-159.59"/>
</g>
<!-- src/storage/storage&#45;async.ts -->
<g id="node24" class="node">
<title>src/storage/storage&#45;async.ts</title>
<path fill="#79cdcd" stroke="#79cdcd" d="M478,-324.22C478,-324.22 386,-324.22 386,-324.22 380,-324.22 374,-318.22 374,-312.22 374,-312.22 374,-300.22 374,-300.22 374,-294.22 380,-288.22 386,-288.22 386,-288.22 478,-288.22 478,-288.22 484,-288.22 490,-294.22 490,-300.22 490,-300.22 490,-312.22 490,-312.22 490,-318.22 484,-324.22 478,-324.22"/>
<text text-anchor="middle" x="432" y="-302.52" font-family="Helvetica,sans-Serif" font-size="14.00">storage&#45;async.ts</text>
</g>
<!-- src/example&#45;app.ts&#45;&gt;src/storage/storage&#45;async.ts -->
<g id="edge15" class="edge">
<title>src/example&#45;app.ts&#45;&gt;src/storage/storage&#45;async.ts</title>
<path fill="none" stroke="#528b8b" stroke-width="2" d="M137.37,-375.13C186.93,-362.41 262.23,-343.43 328,-328.22 339.62,-325.53 352.01,-322.79 364.02,-320.19"/>
<polygon fill="#528b8b" stroke="#528b8b" stroke-width="2" points="364.95,-323.57 373.99,-318.04 363.48,-316.72 364.95,-323.57"/>
</g>
<!-- src/storage/storage&#45;driver&#45;async&#45;memory.ts -->
<g id="node26" class="node">
<title>src/storage/storage&#45;driver&#45;async&#45;memory.ts</title>
<path fill="#79cdcd" stroke="#79cdcd" d="M524,-270.22C524,-270.22 340,-270.22 340,-270.22 334,-270.22 328,-264.22 328,-258.22 328,-258.22 328,-246.22 328,-246.22 328,-240.22 334,-234.22 340,-234.22 340,-234.22 524,-234.22 524,-234.22 530,-234.22 536,-240.22 536,-246.22 536,-246.22 536,-258.22 536,-258.22 536,-264.22 530,-270.22 524,-270.22"/>
<text text-anchor="middle" x="432" y="-248.52" font-family="Helvetica,sans-Serif" font-size="14.00">storage&#45;driver&#45;async&#45;memory.ts</text>
</g>
<!-- src/example&#45;app.ts&#45;&gt;src/storage/storage&#45;driver&#45;async&#45;memory.ts -->
<g id="edge14" class="edge">
<title>src/example&#45;app.ts&#45;&gt;src/storage/storage&#45;driver&#45;async&#45;memory.ts</title>
<path fill="none" stroke="#528b8b" stroke-width="2" d="M131.71,-371.12C135.27,-369.28 138.74,-367.31 142,-365.22 159.46,-354.01 158.29,-344.04 176,-333.22 237.19,-295.86 259.49,-300.33 328,-279.22 334.86,-277.11 342.01,-275.01 349.21,-272.98"/>
<polygon fill="#528b8b" stroke="#528b8b" stroke-width="2" points="350.32,-276.3 359.02,-270.25 348.45,-269.56 350.32,-276.3"/>
</g>
<!-- src/core&#45;validators/addresses.ts -->
<g id="node2" class="node">
<title>src/core&#45;validators/addresses.ts</title>
<path fill="#79cdcd" stroke="#79cdcd" d="M1049.5,-484.22C1049.5,-484.22 980.5,-484.22 980.5,-484.22 974.5,-484.22 968.5,-478.22 968.5,-472.22 968.5,-472.22 968.5,-460.22 968.5,-460.22 968.5,-454.22 974.5,-448.22 980.5,-448.22 980.5,-448.22 1049.5,-448.22 1049.5,-448.22 1055.5,-448.22 1061.5,-454.22 1061.5,-460.22 1061.5,-460.22 1061.5,-472.22 1061.5,-472.22 1061.5,-478.22 1055.5,-484.22 1049.5,-484.22"/>
<text text-anchor="middle" x="1015" y="-462.52" font-family="Helvetica,sans-Serif" font-size="14.00">addresses.ts</text>
</g>
<!-- src/core&#45;validators/characters.ts -->
<g id="node3" class="node">
<title>src/core&#45;validators/characters.ts</title>
<path fill="#79cdcd" stroke="#79cdcd" d="M1185,-430.22C1185,-430.22 1115,-430.22 1115,-430.22 1109,-430.22 1103,-424.22 1103,-418.22 1103,-418.22 1103,-406.22 1103,-406.22 1103,-400.22 1109,-394.22 1115,-394.22 1115,-394.22 1185,-394.22 1185,-394.22 1191,-394.22 1197,-400.22 1197,-406.22 1197,-406.22 1197,-418.22 1197,-418.22 1197,-424.22 1191,-430.22 1185,-430.22"/>
<text text-anchor="middle" x="1150" y="-408.52" font-family="Helvetica,sans-Serif" font-size="14.00">characters.ts</text>
</g>
<!-- src/core&#45;validators/addresses.ts&#45;&gt;src/core&#45;validators/characters.ts -->
<g id="edge1" class="edge">
<title>src/core&#45;validators/addresses.ts&#45;&gt;src/core&#45;validators/characters.ts</title>
<path fill="none" stroke="#528b8b" stroke-width="2" d="M1060.66,-448.09C1071.62,-443.64 1083.48,-438.82 1094.84,-434.21"/>
<polygon fill="#528b8b" stroke="#528b8b" stroke-width="2" points="1096.29,-437.4 1104.23,-430.4 1093.65,-430.92 1096.29,-437.4"/>
</g>
<!-- src/core&#45;validators/checkers.ts -->
<g id="node4" class="node">
<title>src/core&#45;validators/checkers.ts</title>
<path fill="#79cdcd" stroke="#79cdcd" d="M1045.5,-430.22C1045.5,-430.22 984.5,-430.22 984.5,-430.22 978.5,-430.22 972.5,-424.22 972.5,-418.22 972.5,-418.22 972.5,-406.22 972.5,-406.22 972.5,-400.22 978.5,-394.22 984.5,-394.22 984.5,-394.22 1045.5,-394.22 1045.5,-394.22 1051.5,-394.22 1057.5,-400.22 1057.5,-406.22 1057.5,-406.22 1057.5,-418.22 1057.5,-418.22 1057.5,-424.22 1051.5,-430.22 1045.5,-430.22"/>
<text text-anchor="middle" x="1015" y="-408.52" font-family="Helvetica,sans-Serif" font-size="14.00">checkers.ts</text>
</g>
<!-- src/core&#45;validators/checkers.ts&#45;&gt;src/core&#45;validators/characters.ts -->
<g id="edge2" class="edge">
<title>src/core&#45;validators/checkers.ts&#45;&gt;src/core&#45;validators/characters.ts</title>
<path fill="none" stroke="#528b8b" stroke-width="2" d="M1057.72,-412.22C1068.79,-412.22 1080.94,-412.22 1092.66,-412.22"/>
<polygon fill="#528b8b" stroke="#528b8b" stroke-width="2" points="1092.81,-415.72 1102.81,-412.22 1092.81,-408.72 1092.81,-415.72"/>
</g>
<!-- src/crypto/base32.ts -->
<g id="node5" class="node">
<title>src/crypto/base32.ts</title>
<path fill="#79cdcd" stroke="#79cdcd" d="M1040.5,-749.22C1040.5,-749.22 989.5,-749.22 989.5,-749.22 983.5,-749.22 977.5,-743.22 977.5,-737.22 977.5,-737.22 977.5,-725.22 977.5,-725.22 977.5,-719.22 983.5,-713.22 989.5,-713.22 989.5,-713.22 1040.5,-713.22 1040.5,-713.22 1046.5,-713.22 1052.5,-719.22 1052.5,-725.22 1052.5,-725.22 1052.5,-737.22 1052.5,-737.22 1052.5,-743.22 1046.5,-749.22 1040.5,-749.22"/>
<text text-anchor="middle" x="1015" y="-727.52" font-family="Helvetica,sans-Serif" font-size="14.00">base32.ts</text>
</g>
<!-- src/crypto/crypto&#45;driver&#45;chloride.ts -->
<g id="node6" class="node">
<title>src/crypto/crypto&#45;driver&#45;chloride.ts</title>
<path fill="#79cdcd" stroke="#79cdcd" d="M910.5,-675.22C910.5,-675.22 776.5,-675.22 776.5,-675.22 770.5,-675.22 764.5,-669.22 764.5,-663.22 764.5,-663.22 764.5,-651.22 764.5,-651.22 764.5,-645.22 770.5,-639.22 776.5,-639.22 776.5,-639.22 910.5,-639.22 910.5,-639.22 916.5,-639.22 922.5,-645.22 922.5,-651.22 922.5,-651.22 922.5,-663.22 922.5,-663.22 922.5,-669.22 916.5,-675.22 910.5,-675.22"/>
<text text-anchor="middle" x="843.5" y="-653.52" font-family="Helvetica,sans-Serif" font-size="14.00">crypto&#45;driver&#45;chloride.ts</text>
</g>
<!-- src/crypto/crypto&#45;types.ts -->
<g id="node9" class="node">
<title>src/crypto/crypto&#45;types.ts</title>
<path fill="#79cdcd" stroke="#79cdcd" d="M1055,-621.22C1055,-621.22 975,-621.22 975,-621.22 969,-621.22 963,-615.22 963,-609.22 963,-609.22 963,-597.22 963,-597.22 963,-591.22 969,-585.22 975,-585.22 975,-585.22 1055,-585.22 1055,-585.22 1061,-585.22 1067,-591.22 1067,-597.22 1067,-597.22 1067,-609.22 1067,-609.22 1067,-615.22 1061,-621.22 1055,-621.22"/>
<text text-anchor="middle" x="1015" y="-599.52" font-family="Helvetica,sans-Serif" font-size="14.00">crypto&#45;types.ts</text>
</g>
<!-- src/crypto/crypto&#45;driver&#45;chloride.ts&#45;&gt;src/crypto/crypto&#45;types.ts -->
<g id="edge3" class="edge">
<title>src/crypto/crypto&#45;driver&#45;chloride.ts&#45;&gt;src/crypto/crypto&#45;types.ts</title>
<path fill="none" stroke="#528b8b" stroke-width="2" d="M904.2,-639.1C913.68,-636.17 923.37,-633.13 932.5,-630.22 939.08,-628.12 945.95,-625.9 952.79,-623.66"/>
<polygon fill="#528b8b" stroke="#528b8b" stroke-width="2" points="954.35,-626.83 962.76,-620.39 952.16,-620.18 954.35,-626.83"/>
</g>
<!-- src/crypto/crypto&#45;driver&#45;node.ts -->
<g id="node7" class="node">
<title>src/crypto/crypto&#45;driver&#45;node.ts</title>
<path fill="#79cdcd" stroke="#79cdcd" d="M901.5,-621.22C901.5,-621.22 785.5,-621.22 785.5,-621.22 779.5,-621.22 773.5,-615.22 773.5,-609.22 773.5,-609.22 773.5,-597.22 773.5,-597.22 773.5,-591.22 779.5,-585.22 785.5,-585.22 785.5,-585.22 901.5,-585.22 901.5,-585.22 907.5,-585.22 913.5,-591.22 913.5,-597.22 913.5,-597.22 913.5,-609.22 913.5,-609.22 913.5,-615.22 907.5,-621.22 901.5,-621.22"/>
<text text-anchor="middle" x="843.5" y="-599.52" font-family="Helvetica,sans-Serif" font-size="14.00">crypto&#45;driver&#45;node.ts</text>
</g>
<!-- src/crypto/crypto&#45;driver&#45;node.ts&#45;&gt;src/crypto/crypto&#45;types.ts -->
<g id="edge4" class="edge">
<title>src/crypto/crypto&#45;driver&#45;node.ts&#45;&gt;src/crypto/crypto&#45;types.ts</title>
<path fill="none" stroke="#528b8b" stroke-width="2" d="M913.93,-603.22C926.72,-603.22 939.98,-603.22 952.51,-603.22"/>
<polygon fill="#528b8b" stroke="#528b8b" stroke-width="2" points="952.84,-606.72 962.84,-603.22 952.84,-599.72 952.84,-606.72"/>
</g>
<!-- src/crypto/crypto&#45;driver&#45;tweetnacl.ts&#45;&gt;src/crypto/crypto&#45;types.ts -->
<g id="edge5" class="edge">
<title>src/crypto/crypto&#45;driver&#45;tweetnacl.ts&#45;&gt;src/crypto/crypto&#45;types.ts</title>
<path fill="none" stroke="#528b8b" stroke-width="2" d="M904.2,-567.34C913.68,-570.28 923.37,-573.31 932.5,-576.22 939.08,-578.32 945.95,-580.55 952.79,-582.78"/>
<polygon fill="#528b8b" stroke="#528b8b" stroke-width="2" points="952.16,-586.26 962.76,-586.05 954.35,-579.61 952.16,-586.26"/>
</g>
<!-- src/crypto/crypto.ts&#45;&gt;src/core&#45;validators/addresses.ts -->
<g id="edge9" class="edge">
<title>src/crypto/crypto.ts&#45;&gt;src/core&#45;validators/addresses.ts</title>
<path fill="none" stroke="#528b8b" stroke-width="2" d="M654.22,-693.04C666.15,-654.9 699.2,-566.4 760,-522.22 818.34,-479.83 902.75,-468.53 957.99,-466.04"/>
<polygon fill="#528b8b" stroke="#528b8b" stroke-width="2" points="958.43,-469.52 968.29,-465.66 958.17,-462.53 958.43,-469.52"/>
</g>
<!-- src/crypto/crypto.ts&#45;&gt;src/crypto/base32.ts -->
<g id="edge7" class="edge">
<title>src/crypto/crypto.ts&#45;&gt;src/crypto/base32.ts</title>
<path fill="none" stroke="#528b8b" stroke-width="2" d="M682.1,-727.36C703.7,-736.98 732.84,-748.25 760,-753.22 835.42,-767.01 856.5,-763.3 932.5,-753.22 944.07,-751.69 956.34,-748.98 967.74,-745.97"/>
<polygon fill="#528b8b" stroke="#528b8b" stroke-width="2" points="968.79,-749.31 977.5,-743.28 966.93,-742.56 968.79,-749.31"/>
</g>
<!-- src/crypto/crypto.ts&#45;&gt;src/crypto/crypto&#45;types.ts -->
<g id="edge6" class="edge">
<title>src/crypto/crypto.ts&#45;&gt;src/crypto/crypto&#45;types.ts</title>
<path fill="none" stroke="#528b8b" stroke-width="2" d="M682.13,-721.48C704,-727.7 733.42,-735.03 760,-738.22 798.06,-742.78 899.12,-757.06 932.5,-738.22 943.21,-732.17 979.07,-668.05 999.47,-630.4"/>
<polygon fill="#528b8b" stroke="#528b8b" stroke-width="2" points="1002.63,-631.91 1004.3,-621.45 996.47,-628.58 1002.63,-631.91"/>
</g>
<!-- src/crypto/keypair.ts -->
<g id="node11" class="node">
<title>src/crypto/keypair.ts</title>
<path fill="#79cdcd" stroke="#79cdcd" d="M868.5,-729.22C868.5,-729.22 818.5,-729.22 818.5,-729.22 812.5,-729.22 806.5,-723.22 806.5,-717.22 806.5,-717.22 806.5,-705.22 806.5,-705.22 806.5,-699.22 812.5,-693.22 818.5,-693.22 818.5,-693.22 868.5,-693.22 868.5,-693.22 874.5,-693.22 880.5,-699.22 880.5,-705.22 880.5,-705.22 880.5,-717.22 880.5,-717.22 880.5,-723.22 874.5,-729.22 868.5,-729.22"/>
<text text-anchor="middle" x="843.5" y="-707.52" font-family="Helvetica,sans-Serif" font-size="14.00">keypair.ts</text>
</g>
<!-- src/crypto/crypto.ts&#45;&gt;src/crypto/keypair.ts -->
<g id="edge8" class="edge">
<title>src/crypto/crypto.ts&#45;&gt;src/crypto/keypair.ts</title>
<path fill="none" stroke="#528b8b" stroke-width="2" d="M682.26,-711.22C713.74,-711.22 761.25,-711.22 796.38,-711.22"/>
<polygon fill="#528b8b" stroke="#528b8b" stroke-width="2" points="796.39,-714.72 806.39,-711.22 796.39,-707.72 796.39,-714.72"/>
</g>
<!-- src/crypto/keypair.ts&#45;&gt;src/core&#45;validators/addresses.ts -->
<g id="edge12" class="edge">
<title>src/crypto/keypair.ts&#45;&gt;src/core&#45;validators/addresses.ts</title>
<path fill="none" stroke="#528b8b" stroke-width="2" d="M880.57,-708.89C898.71,-705.8 919.53,-698.99 932.5,-684.22 981.58,-628.33 926.21,-585.23 960.5,-519.22 965.85,-508.92 973.93,-499.38 982.2,-491.33"/>
<polygon fill="#528b8b" stroke="#528b8b" stroke-width="2" points="984.78,-493.71 989.77,-484.36 980.04,-488.55 984.78,-493.71"/>
</g>
<!-- src/crypto/keypair.ts&#45;&gt;src/crypto/base32.ts -->
<g id="edge10" class="edge">
<title>src/crypto/keypair.ts&#45;&gt;src/crypto/base32.ts</title>
<path fill="none" stroke="#528b8b" stroke-width="2" d="M880.86,-715.51C906.13,-718.49 940.04,-722.49 967.31,-725.71"/>
<polygon fill="#528b8b" stroke="#528b8b" stroke-width="2" points="967.06,-729.21 977.41,-726.9 967.89,-722.26 967.06,-729.21"/>
</g>
<!-- src/crypto/keypair.ts&#45;&gt;src/crypto/crypto&#45;types.ts -->
<g id="edge11" class="edge">
<title>src/crypto/keypair.ts&#45;&gt;src/crypto/crypto&#45;types.ts</title>
<path fill="none" stroke="#528b8b" stroke-width="2" d="M880.83,-704.27C897.38,-700.08 916.74,-693.67 932.5,-684.22 956.54,-669.81 978.74,-646.82 993.88,-629.01"/>
<polygon fill="#528b8b" stroke="#528b8b" stroke-width="2" points="996.63,-631.18 1000.32,-621.24 991.24,-626.71 996.63,-631.18"/>
</g>
<!-- src/entries/browser.ts -->
<g id="node12" class="node">
<title>src/entries/browser.ts</title>
<path fill="#79cdcd" stroke="#79cdcd" d="M109.5,-695.22C109.5,-695.22 54.5,-695.22 54.5,-695.22 48.5,-695.22 42.5,-689.22 42.5,-683.22 42.5,-683.22 42.5,-671.22 42.5,-671.22 42.5,-665.22 48.5,-659.22 54.5,-659.22 54.5,-659.22 109.5,-659.22 109.5,-659.22 115.5,-659.22 121.5,-665.22 121.5,-671.22 121.5,-671.22 121.5,-683.22 121.5,-683.22 121.5,-689.22 115.5,-695.22 109.5,-695.22"/>
<text text-anchor="middle" x="82" y="-673.52" font-family="Helvetica,sans-Serif" font-size="14.00">browser.ts</text>
</g>
<!-- src/entries/legacy&#45;node.ts -->
<g id="node13" class="node">
<title>src/entries/legacy&#45;node.ts</title>
<path fill="#79cdcd" stroke="#79cdcd" d="M122,-641.22C122,-641.22 42,-641.22 42,-641.22 36,-641.22 30,-635.22 30,-629.22 30,-629.22 30,-617.22 30,-617.22 30,-611.22 36,-605.22 42,-605.22 42,-605.22 122,-605.22 122,-605.22 128,-605.22 134,-611.22 134,-617.22 134,-617.22 134,-629.22 134,-629.22 134,-635.22 128,-641.22 122,-641.22"/>
<text text-anchor="middle" x="82" y="-619.52" font-family="Helvetica,sans-Serif" font-size="14.00">legacy&#45;node.ts</text>
</g>
<!-- src/entries/node.ts -->
<g id="node14" class="node">
<title>src/entries/node.ts</title>
<path fill="#79cdcd" stroke="#79cdcd" d="M100.5,-587.22C100.5,-587.22 63.5,-587.22 63.5,-587.22 57.5,-587.22 51.5,-581.22 51.5,-575.22 51.5,-575.22 51.5,-563.22 51.5,-563.22 51.5,-557.22 57.5,-551.22 63.5,-551.22 63.5,-551.22 100.5,-551.22 100.5,-551.22 106.5,-551.22 112.5,-557.22 112.5,-563.22 112.5,-563.22 112.5,-575.22 112.5,-575.22 112.5,-581.22 106.5,-587.22 100.5,-587.22"/>
<text text-anchor="middle" x="82" y="-565.52" font-family="Helvetica,sans-Serif" font-size="14.00">node.ts</text>
</g>
<!-- src/entries/universal.ts -->
<g id="node15" class="node">
<title>src/entries/universal.ts</title>
<path fill="#79cdcd" stroke="#79cdcd" d="M112.5,-533.22C112.5,-533.22 51.5,-533.22 51.5,-533.22 45.5,-533.22 39.5,-527.22 39.5,-521.22 39.5,-521.22 39.5,-509.22 39.5,-509.22 39.5,-503.22 45.5,-497.22 51.5,-497.22 51.5,-497.22 112.5,-497.22 112.5,-497.22 118.5,-497.22 124.5,-503.22 124.5,-509.22 124.5,-509.22 124.5,-521.22 124.5,-521.22 124.5,-527.22 118.5,-533.22 112.5,-533.22"/>
<text text-anchor="middle" x="82" y="-511.52" font-family="Helvetica,sans-Serif" font-size="14.00">universal.ts</text>
</g>
<!-- src/format&#45;validators/format&#45;validator&#45;es4.ts&#45;&gt;src/core&#45;validators/addresses.ts -->
<g id="edge23" class="edge">
<title>src/format&#45;validators/format&#45;validator&#45;es4.ts&#45;&gt;src/core&#45;validators/addresses.ts</title>
<path fill="none" stroke="#528b8b" stroke-width="2" d="M715.83,-413.24C718.63,-414.49 721.37,-415.82 724,-417.22 742.38,-427.02 740.69,-439.4 760,-447.22 824.17,-473.2 904.85,-474.51 957.85,-471.61"/>
<polygon fill="#528b8b" stroke="#528b8b" stroke-width="2" points="958.3,-475.09 968.07,-470.98 957.87,-468.1 958.3,-475.09"/>
</g>
<!-- src/format&#45;validators/format&#45;validator&#45;es4.ts&#45;&gt;src/core&#45;validators/characters.ts -->
<g id="edge21" class="edge">
<title>src/format&#45;validators/format&#45;validator&#45;es4.ts&#45;&gt;src/core&#45;validators/characters.ts</title>
<path fill="none" stroke="#528b8b" stroke-width="2" d="M711.92,-413.28C727.5,-416.99 744.25,-420.33 760,-422.22 798.06,-426.78 898.18,-439.29 932.5,-422.22 950.97,-413.04 942.03,-394.4 960.5,-385.22 1006.07,-362.56 1024.89,-376.36 1075,-385.22 1082.49,-386.54 1090.22,-388.57 1097.73,-390.92"/>
<polygon fill="#528b8b" stroke="#528b8b" stroke-width="2" points="1096.85,-394.32 1107.44,-394.18 1099.07,-387.68 1096.85,-394.32"/>
</g>
<!-- src/format&#45;validators/format&#45;validator&#45;es4.ts&#45;&gt;src/core&#45;validators/checkers.ts -->
<g id="edge22" class="edge">
<title>src/format&#45;validators/format&#45;validator&#45;es4.ts&#45;&gt;src/core&#45;validators/checkers.ts</title>
<path fill="none" stroke="#528b8b" stroke-width="2" d="M713.95,-413.29C717.38,-414.55 720.75,-415.86 724,-417.22 740.89,-424.28 742.28,-432.63 760,-437.22 834.22,-456.45 856.68,-448.59 932.5,-437.22 942.38,-435.74 952.72,-433.3 962.58,-430.51"/>
<polygon fill="#528b8b" stroke="#528b8b" stroke-width="2" points="963.67,-433.84 972.25,-427.63 961.67,-427.13 963.67,-433.84"/>
</g>
<!-- src/format&#45;validators/format&#45;validator&#45;es4.ts&#45;&gt;src/crypto/crypto&#45;types.ts -->
<g id="edge20" class="edge">
<title>src/format&#45;validators/format&#45;validator&#45;es4.ts&#45;&gt;src/crypto/crypto&#45;types.ts</title>
<path fill="none" stroke="#528b8b" stroke-width="2" d="M717.72,-413.33C719.88,-414.54 721.99,-415.84 724,-417.22 745.7,-432.1 738.6,-448.92 760,-464.22 825.79,-511.27 863.69,-479.71 932.5,-522.22 956.2,-536.86 978.29,-559.62 993.47,-577.29"/>
<polygon fill="#528b8b" stroke="#528b8b" stroke-width="2" points="990.84,-579.6 999.95,-585.01 996.2,-575.1 990.84,-579.6"/>
</g>
<!-- src/format&#45;validators/format&#45;validator&#45;types.ts -->
<g id="node17" class="node">
<title>src/format&#45;validators/format&#45;validator&#45;types.ts</title>
<path fill="#79cdcd" stroke="#79cdcd" d="M912.5,-413.22C912.5,-413.22 774.5,-413.22 774.5,-413.22 768.5,-413.22 762.5,-407.22 762.5,-401.22 762.5,-401.22 762.5,-389.22 762.5,-389.22 762.5,-383.22 768.5,-377.22 774.5,-377.22 774.5,-377.22 912.5,-377.22 912.5,-377.22 918.5,-377.22 924.5,-383.22 924.5,-389.22 924.5,-389.22 924.5,-401.22 924.5,-401.22 924.5,-407.22 918.5,-413.22 912.5,-413.22"/>
<text text-anchor="middle" x="843.5" y="-391.52" font-family="Helvetica,sans-Serif" font-size="14.00">format&#45;validator&#45;types.ts</text>
</g>
<!-- src/format&#45;validators/format&#45;validator&#45;es4.ts&#45;&gt;src/format&#45;validators/format&#45;validator&#45;types.ts -->
<g id="edge19" class="edge">
<title>src/format&#45;validators/format&#45;validator&#45;es4.ts&#45;&gt;src/format&#45;validators/format&#45;validator&#45;types.ts</title>
<path fill="none" stroke="#528b8b" stroke-width="2" d="M724.09,-395.22C733.29,-395.22 742.78,-395.22 752.18,-395.22"/>
<polygon fill="#528b8b" stroke="#528b8b" stroke-width="2" points="752.33,-398.72 762.33,-395.22 752.33,-391.72 752.33,-398.72"/>
</g>
<!-- src/format&#45;validators/format&#45;validator&#45;types.ts&#45;&gt;src/crypto/crypto&#45;types.ts -->
<g id="edge24" class="edge">
<title>src/format&#45;validators/format&#45;validator&#45;types.ts&#45;&gt;src/crypto/crypto&#45;types.ts</title>
<path fill="none" stroke="#528b8b" stroke-width="2" d="M859.25,-413.32C889.3,-450.19 957.74,-534.18 992.65,-577.03"/>
<polygon fill="#528b8b" stroke="#528b8b" stroke-width="2" points="990.14,-579.48 999.17,-585.02 995.56,-575.06 990.14,-579.48"/>
</g>
<!-- src/storage/compare.ts -->
<g id="node18" class="node">
<title>src/storage/compare.ts</title>
<path fill="#79cdcd" stroke="#79cdcd" d="M678,-310.22C678,-310.22 618,-310.22 618,-310.22 612,-310.22 606,-304.22 606,-298.22 606,-298.22 606,-286.22 606,-286.22 606,-280.22 612,-274.22 618,-274.22 618,-274.22 678,-274.22 678,-274.22 684,-274.22 690,-280.22 690,-286.22 690,-286.22 690,-298.22 690,-298.22 690,-304.22 684,-310.22 678,-310.22"/>
<text text-anchor="middle" x="648" y="-288.52" font-family="Helvetica,sans-Serif" font-size="14.00">compare.ts</text>
</g>
<!-- src/storage/util&#45;types.ts -->
<g id="node28" class="node">
<title>src/storage/util&#45;types.ts</title>
<path fill="#79cdcd" stroke="#79cdcd" d="M874,-291.22C874,-291.22 813,-291.22 813,-291.22 807,-291.22 801,-285.22 801,-279.22 801,-279.22 801,-267.22 801,-267.22 801,-261.22 807,-255.22 813,-255.22 813,-255.22 874,-255.22 874,-255.22 880,-255.22 886,-261.22 886,-267.22 886,-267.22 886,-279.22 886,-279.22 886,-285.22 880,-291.22 874,-291.22"/>
<text text-anchor="middle" x="843.5" y="-269.52" font-family="Helvetica,sans-Serif" font-size="14.00">util&#45;types.ts</text>
</g>
<!-- src/storage/compare.ts&#45;&gt;src/storage/util&#45;types.ts -->
<g id="edge25" class="edge">
<title>src/storage/compare.ts&#45;&gt;src/storage/util&#45;types.ts</title>
<path fill="none" stroke="#528b8b" stroke-width="2" d="M690.04,-288.19C719.34,-285.31 758.99,-281.42 790.51,-278.33"/>
<polygon fill="#528b8b" stroke="#528b8b" stroke-width="2" points="791.25,-281.77 800.86,-277.31 790.56,-274.8 791.25,-281.77"/>
</g>
<!-- src/storage/lock.ts -->
<g id="node19" class="node">
<title>src/storage/lock.ts</title>
<path fill="#79cdcd" stroke="#79cdcd" d="M859,-216.22C859,-216.22 828,-216.22 828,-216.22 822,-216.22 816,-210.22 816,-204.22 816,-204.22 816,-192.22 816,-192.22 816,-186.22 822,-180.22 828,-180.22 828,-180.22 859,-180.22 859,-180.22 865,-180.22 871,-186.22 871,-192.22 871,-192.22 871,-204.22 871,-204.22 871,-210.22 865,-216.22 859,-216.22"/>
<text text-anchor="middle" x="843.5" y="-194.52" font-family="Helvetica,sans-Serif" font-size="14.00">lock.ts</text>
</g>
<!-- src/storage/query&#45;follower&#45;types.ts -->
<g id="node20" class="node">
<title>src/storage/query&#45;follower&#45;types.ts</title>
<path fill="#79cdcd" stroke="#79cdcd" d="M496,-196.22C496,-196.22 368,-196.22 368,-196.22 362,-196.22 356,-190.22 356,-184.22 356,-184.22 356,-172.22 356,-172.22 356,-166.22 362,-160.22 368,-160.22 368,-160.22 496,-160.22 496,-160.22 502,-160.22 508,-166.22 508,-172.22 508,-172.22 508,-184.22 508,-184.22 508,-190.22 502,-196.22 496,-196.22"/>
<text text-anchor="middle" x="432" y="-174.52" font-family="Helvetica,sans-Serif" font-size="14.00">query&#45;follower&#45;types.ts</text>
</g>
<!-- src/storage/storage&#45;types.ts -->
<g id="node27" class="node">
<title>src/storage/storage&#45;types.ts</title>
<path fill="#79cdcd" stroke="#79cdcd" d="M692.5,-196.22C692.5,-196.22 603.5,-196.22 603.5,-196.22 597.5,-196.22 591.5,-190.22 591.5,-184.22 591.5,-184.22 591.5,-172.22 591.5,-172.22 591.5,-166.22 597.5,-160.22 603.5,-160.22 603.5,-160.22 692.5,-160.22 692.5,-160.22 698.5,-160.22 704.5,-166.22 704.5,-172.22 704.5,-172.22 704.5,-184.22 704.5,-184.22 704.5,-190.22 698.5,-196.22 692.5,-196.22"/>
<text text-anchor="middle" x="648" y="-174.52" font-family="Helvetica,sans-Serif" font-size="14.00">storage&#45;types.ts</text>
</g>
<!-- src/storage/query&#45;follower&#45;types.ts&#45;&gt;src/storage/storage&#45;types.ts -->
<g id="edge26" class="edge">
<title>src/storage/query&#45;follower&#45;types.ts&#45;&gt;src/storage/storage&#45;types.ts</title>
<path fill="none" stroke="#528b8b" stroke-width="2" d="M508.15,-178.22C531.96,-178.22 558.09,-178.22 581.2,-178.22"/>
<polygon fill="#528b8b" stroke="#528b8b" stroke-width="2" points="581.24,-181.72 591.24,-178.22 581.24,-174.72 581.24,-181.72"/>
</g>
<!-- src/storage/query&#45;follower.ts&#45;&gt;src/storage/query&#45;follower&#45;types.ts -->
<g id="edge31" class="edge">
<title>src/storage/query&#45;follower.ts&#45;&gt;src/storage/query&#45;follower&#45;types.ts</title>
<path fill="none" stroke="#528b8b" stroke-width="2" d="M292.22,-144.94C309.08,-148.98 327.89,-153.5 346.09,-157.86"/>
<polygon fill="#528b8b" stroke="#528b8b" stroke-width="2" points="345.29,-161.27 355.83,-160.2 346.93,-154.46 345.29,-161.27"/>
</g>
<!-- src/storage/query&#45;types.ts -->
<g id="node22" class="node">
<title>src/storage/query&#45;types.ts</title>
<path fill="#79cdcd" stroke="#79cdcd" d="M882,-130.22C882,-130.22 805,-130.22 805,-130.22 799,-130.22 793,-124.22 793,-118.22 793,-118.22 793,-106.22 793,-106.22 793,-100.22 799,-94.22 805,-94.22 805,-94.22 882,-94.22 882,-94.22 888,-94.22 894,-100.22 894,-106.22 894,-106.22 894,-118.22 894,-118.22 894,-124.22 888,-130.22 882,-130.22"/>
<text text-anchor="middle" x="843.5" y="-108.52" font-family="Helvetica,sans-Serif" font-size="14.00">query&#45;types.ts</text>
</g>
<!-- src/storage/query&#45;follower.ts&#45;&gt;src/storage/query&#45;types.ts -->
<g id="edge28" class="edge">
<title>src/storage/query&#45;follower.ts&#45;&gt;src/storage/query&#45;types.ts</title>
<path fill="none" stroke="#528b8b" stroke-width="2" d="M269.92,-113.08C287.01,-104.92 308.14,-95.87 328,-90.22 497.87,-41.91 551.54,-19.15 724,-57.22 752.23,-63.45 781.72,-77.11 804.22,-89.25"/>
<polygon fill="#528b8b" stroke="#528b8b" stroke-width="2" points="802.65,-92.39 813.1,-94.17 806.04,-86.26 802.65,-92.39"/>
</g>
<!-- src/storage/query.ts -->
<g id="node23" class="node">
<title>src/storage/query.ts</title>
<path fill="#79cdcd" stroke="#79cdcd" d="M668,-102.22C668,-102.22 628,-102.22 628,-102.22 622,-102.22 616,-96.22 616,-90.22 616,-90.22 616,-78.22 616,-78.22 616,-72.22 622,-66.22 628,-66.22 628,-66.22 668,-66.22 668,-66.22 674,-66.22 680,-72.22 680,-78.22 680,-78.22 680,-90.22 680,-90.22 680,-96.22 674,-102.22 668,-102.22"/>
<text text-anchor="middle" x="648" y="-80.52" font-family="Helvetica,sans-Serif" font-size="14.00">query.ts</text>
</g>
<!-- src/storage/query&#45;follower.ts&#45;&gt;src/storage/query.ts -->
<g id="edge30" class="edge">
<title>src/storage/query&#45;follower.ts&#45;&gt;src/storage/query.ts</title>
<path fill="none" stroke="#528b8b" stroke-width="2" d="M292.47,-121.4C304.21,-119.55 316.49,-117.73 328,-116.22 427.39,-103.23 544.8,-92.68 605.7,-87.57"/>
<polygon fill="#528b8b" stroke="#528b8b" stroke-width="2" points="606.01,-91.05 615.69,-86.73 605.43,-84.08 606.01,-91.05"/>
</g>
<!-- src/storage/query&#45;follower.ts&#45;&gt;src/storage/storage&#45;types.ts -->
<g id="edge29" class="edge">
<title>src/storage/query&#45;follower.ts&#45;&gt;src/storage/storage&#45;types.ts</title>
<path fill="none" stroke="#528b8b" stroke-width="2" d="M292.18,-132.1C352.97,-133.71 451.75,-138.27 536,-151.22 550.81,-153.5 566.55,-156.78 581.38,-160.28"/>
<polygon fill="#528b8b" stroke="#528b8b" stroke-width="2" points="580.93,-163.77 591.48,-162.73 582.58,-156.97 580.93,-163.77"/>
</g>
<!-- src/storage/query&#45;follower.ts&#45;&gt;src/storage/util&#45;types.ts -->
<g id="edge27" class="edge">
<title>src/storage/query&#45;follower.ts&#45;&gt;src/storage/util&#45;types.ts</title>
<path fill="none" stroke="#528b8b" stroke-width="2" d="M292.22,-126.05C406.11,-116.95 656.06,-103.27 724,-151.22 753.88,-172.31 735.11,-198.42 760,-225.22 769.07,-234.99 780.6,-243.37 792.13,-250.25"/>
<polygon fill="#528b8b" stroke="#528b8b" stroke-width="2" points="790.49,-253.35 800.92,-255.23 793.94,-247.25 790.49,-253.35"/>
</g>
<!-- src/storage/query.ts&#45;&gt;src/storage/query&#45;types.ts -->
<g id="edge32" class="edge">
<title>src/storage/query.ts&#45;&gt;src/storage/query&#45;types.ts</title>
<path fill="none" stroke="#528b8b" stroke-width="2" d="M680.09,-88.72C707.68,-92.71 748.77,-98.66 782.71,-103.57"/>
<polygon fill="#528b8b" stroke="#528b8b" stroke-width="2" points="782.59,-107.09 792.99,-105.06 783.59,-100.16 782.59,-107.09"/>
</g>
<!-- src/storage/storage&#45;async.ts&#45;&gt;src/format&#45;validators/format&#45;validator&#45;types.ts -->
<g id="edge36" class="edge">
<title>src/storage/storage&#45;async.ts&#45;&gt;src/format&#45;validators/format&#45;validator&#45;types.ts</title>
<path fill="none" stroke="#528b8b" stroke-width="2" d="M490.2,-318.16C548.92,-330.47 642.91,-350.35 724,-368.22 733.84,-370.39 744.13,-372.69 754.36,-374.99"/>
<polygon fill="#528b8b" stroke="#528b8b" stroke-width="2" points="753.61,-378.41 764.13,-377.2 755.15,-371.58 753.61,-378.41"/>
</g>
<!-- src/storage/storage&#45;async.ts&#45;&gt;src/storage/compare.ts -->
<g id="edge37" class="edge">
<title>src/storage/storage&#45;async.ts&#45;&gt;src/storage/compare.ts</title>
<path fill="none" stroke="#528b8b" stroke-width="2" d="M490.07,-302.49C522.91,-300.34 563.85,-297.66 595.68,-295.58"/>
<polygon fill="#528b8b" stroke="#528b8b" stroke-width="2" points="595.92,-299.07 605.67,-294.92 595.47,-292.08 595.92,-299.07"/>
</g>
<!-- src/storage/storage&#45;async.ts&#45;&gt;src/storage/query&#45;types.ts -->
<g id="edge34" class="edge">
<title>src/storage/storage&#45;async.ts&#45;&gt;src/storage/query&#45;types.ts</title>
<path fill="none" stroke="#528b8b" stroke-width="2" d="M490.06,-293.51C505.19,-289.54 521.38,-284.72 536,-279.22 549.02,-274.32 551.25,-270.78 564,-265.22 633.62,-234.86 659.57,-245.42 724,-205.22 742.67,-193.57 743.01,-185.21 760,-171.22 774.77,-159.06 791.87,-146.59 806.66,-136.27"/>
<polygon fill="#528b8b" stroke="#528b8b" stroke-width="2" points="808.83,-139.02 815.06,-130.45 804.84,-133.26 808.83,-139.02"/>
</g>
<!-- src/storage/storage&#45;async.ts&#45;&gt;src/storage/storage&#45;types.ts -->
<g id="edge35" class="edge">
<title>src/storage/storage&#45;async.ts&#45;&gt;src/storage/storage&#45;types.ts</title>
<path fill="none" stroke="#528b8b" stroke-width="2" d="M490.19,-300.93C506.51,-297.02 523.29,-290.38 536,-279.22 560.86,-257.38 540.39,-233.42 564,-210.22 569.3,-205.01 575.54,-200.63 582.18,-196.95"/>
<polygon fill="#528b8b" stroke="#528b8b" stroke-width="2" points="584.04,-199.94 591.43,-192.35 580.92,-193.67 584.04,-199.94"/>
</g>
<!-- src/storage/storage&#45;async.ts&#45;&gt;src/storage/util&#45;types.ts -->
<g id="edge33" class="edge">
<title>src/storage/storage&#45;async.ts&#45;&gt;src/storage/util&#45;types.ts</title>
<path fill="none" stroke="#528b8b" stroke-width="2" d="M490.14,-316.41C549.21,-325.17 643.85,-334.23 724,-319.22 749.04,-314.53 775.58,-304.72 797.19,-295.36"/>
<polygon fill="#528b8b" stroke="#528b8b" stroke-width="2" points="798.72,-298.51 806.44,-291.25 795.88,-292.11 798.72,-298.51"/>
</g>
<!-- src/storage/storage&#45;cache.ts -->
<g id="node25" class="node">
<title>src/storage/storage&#45;cache.ts</title>
<path fill="#79cdcd" stroke="#79cdcd" d="M128,-149.22C128,-149.22 36,-149.22 36,-149.22 30,-149.22 24,-143.22 24,-137.22 24,-137.22 24,-125.22 24,-125.22 24,-119.22 30,-113.22 36,-113.22 36,-113.22 128,-113.22 128,-113.22 134,-113.22 140,-119.22 140,-125.22 140,-125.22 140,-137.22 140,-137.22 140,-143.22 134,-149.22 128,-149.22"/>
<text text-anchor="middle" x="82" y="-127.52" font-family="Helvetica,sans-Serif" font-size="14.00">storage&#45;cache.ts</text>
</g>
<!-- src/storage/storage&#45;cache.ts&#45;&gt;src/storage/query&#45;follower.ts -->
<g id="edge39" class="edge">
<title>src/storage/storage&#45;cache.ts&#45;&gt;src/storage/query&#45;follower.ts</title>
<path fill="none" stroke="#528b8b" stroke-width="2" d="M140.14,-131.22C148.38,-131.22 156.92,-131.22 165.34,-131.22"/>
<polygon fill="#528b8b" stroke="#528b8b" stroke-width="2" points="165.53,-134.72 175.53,-131.22 165.53,-127.72 165.53,-134.72"/>
</g>
<!-- src/storage/storage&#45;cache.ts&#45;&gt;src/storage/query&#45;types.ts -->
<g id="edge40" class="edge">
<title>src/storage/storage&#45;cache.ts&#45;&gt;src/storage/query&#45;types.ts</title>
<path fill="none" stroke="#528b8b" stroke-width="2" d="M113.37,-113.02C131.05,-103.25 154.11,-91.87 176,-85.22 410.04,-14.1 489.68,35.98 724,-34.22 758.67,-44.61 792.59,-68.77 815.19,-87.47"/>
<polygon fill="#528b8b" stroke="#528b8b" stroke-width="2" points="813.09,-90.28 822.98,-94.08 817.62,-84.95 813.09,-90.28"/>
</g>
<!-- src/storage/storage&#45;cache.ts&#45;&gt;src/storage/query.ts -->
<g id="edge38" class="edge">
<title>src/storage/storage&#45;cache.ts&#45;&gt;src/storage/query.ts</title>
<path fill="none" stroke="#528b8b" stroke-width="2" d="M138.65,-113.2C150.85,-109.77 163.78,-106.54 176,-104.22 332.39,-74.6 522.98,-78.44 605.56,-82"/>
<polygon fill="#528b8b" stroke="#528b8b" stroke-width="2" points="605.64,-85.51 615.79,-82.46 605.95,-78.51 605.64,-85.51"/>
</g>
<!-- src/storage/storage&#45;cache.ts&#45;&gt;src/storage/storage&#45;async.ts -->
<g id="edge41" class="edge">
<title>src/storage/storage&#45;cache.ts&#45;&gt;src/storage/storage&#45;async.ts</title>
<path fill="none" stroke="#528b8b" stroke-width="2" d="M137.09,-149.32C138.81,-150.54 140.45,-151.84 142,-153.22 166.9,-175.47 151.24,-197.81 176,-220.22 229.72,-268.85 259.06,-256.89 328,-279.22 339.54,-282.96 351.93,-286.56 363.98,-289.84"/>
<polygon fill="#528b8b" stroke="#528b8b" stroke-width="2" points="363.43,-293.31 374,-292.52 365.24,-286.55 363.43,-293.31"/>
</g>
<!-- src/storage/storage&#45;cache.ts&#45;&gt;src/storage/storage&#45;types.ts -->
<g id="edge42" class="edge">
<title>src/storage/storage&#45;cache.ts&#45;&gt;src/storage/storage&#45;types.ts</title>
<path fill="none" stroke="#528b8b" stroke-width="2" d="M136.05,-149.24C196.26,-169.33 290.91,-199.74 328,-205.22 419.45,-218.73 444.21,-216.22 536,-205.22 550.8,-203.45 566.48,-200.39 581.24,-196.95"/>
<polygon fill="#528b8b" stroke="#528b8b" stroke-width="2" points="582.39,-200.27 591.29,-194.52 580.75,-193.47 582.39,-200.27"/>
</g>
<!-- src/storage/storage&#45;driver&#45;async&#45;memory.ts&#45;&gt;src/storage/compare.ts -->
<g id="edge46" class="edge">
<title>src/storage/storage&#45;driver&#45;async&#45;memory.ts&#45;&gt;src/storage/compare.ts</title>
<path fill="none" stroke="#528b8b" stroke-width="2" d="M529.36,-270.23C552.22,-274.5 575.74,-278.9 595.68,-282.63"/>
<polygon fill="#528b8b" stroke="#528b8b" stroke-width="2" points="595.28,-286.11 605.76,-284.51 596.57,-279.23 595.28,-286.11"/>
</g>
<!-- src/storage/storage&#45;driver&#45;async&#45;memory.ts&#45;&gt;src/storage/lock.ts -->
<g id="edge48" class="edge">
<title>src/storage/storage&#45;driver&#45;async&#45;memory.ts&#45;&gt;src/storage/lock.ts</title>
<path fill="none" stroke="#528b8b" stroke-width="2" d="M536.07,-238.63C623.91,-227.05 745.21,-211.05 805.45,-203.11"/>
<polygon fill="#528b8b" stroke="#528b8b" stroke-width="2" points="806.17,-206.54 815.62,-201.76 805.25,-199.6 806.17,-206.54"/>
</g>
<!-- src/storage/storage&#45;driver&#45;async&#45;memory.ts&#45;&gt;src/storage/query&#45;types.ts -->
<g id="edge44" class="edge">
<title>src/storage/storage&#45;driver&#45;async&#45;memory.ts&#45;&gt;src/storage/query&#45;types.ts</title>
<path fill="none" stroke="#528b8b" stroke-width="2" d="M490.05,-234.18C506.28,-227.05 523.04,-217.55 536,-205.22 555.59,-186.59 541.93,-166.84 564,-151.22 598.19,-127.03 711.63,-117.75 782.75,-114.26"/>
<polygon fill="#528b8b" stroke="#528b8b" stroke-width="2" points="783.1,-117.74 792.92,-113.78 782.77,-110.75 783.1,-117.74"/>
</g>
<!-- src/storage/storage&#45;driver&#45;async&#45;memory.ts&#45;&gt;src/storage/query.ts -->
<g id="edge47" class="edge">
<title>src/storage/storage&#45;driver&#45;async&#45;memory.ts&#45;&gt;src/storage/query.ts</title>
<path fill="none" stroke="#528b8b" stroke-width="2" d="M492.39,-234.2C508.12,-227.17 524.03,-217.71 536,-205.22 558.9,-181.33 542.72,-161.57 564,-136.22 575.59,-122.42 591.81,-111.13 606.84,-102.64"/>
<polygon fill="#528b8b" stroke="#528b8b" stroke-width="2" points="608.84,-105.54 616,-97.72 605.53,-99.37 608.84,-105.54"/>
</g>
<!-- src/storage/storage&#45;driver&#45;async&#45;memory.ts&#45;&gt;src/storage/storage&#45;types.ts -->
<g id="edge45" class="edge">
<title>src/storage/storage&#45;driver&#45;async&#45;memory.ts&#45;&gt;src/storage/storage&#45;types.ts</title>
<path fill="none" stroke="#528b8b" stroke-width="2" d="M493.11,-234.22C507.23,-229.8 522.19,-224.97 536,-220.22 546.78,-216.51 568.97,-208.16 590.7,-199.88"/>
<polygon fill="#528b8b" stroke="#528b8b" stroke-width="2" points="592.18,-203.06 600.27,-196.22 589.68,-196.52 592.18,-203.06"/>
</g>
<!-- src/storage/storage&#45;driver&#45;async&#45;memory.ts&#45;&gt;src/storage/util&#45;types.ts -->
<g id="edge43" class="edge">
<title>src/storage/storage&#45;driver&#45;async&#45;memory.ts&#45;&gt;src/storage/util&#45;types.ts</title>
<path fill="none" stroke="#528b8b" stroke-width="2" d="M536.06,-256.25C591.73,-258.58 661.64,-261.72 724,-265.22 745.84,-266.45 769.93,-268.03 790.65,-269.46"/>
<polygon fill="#528b8b" stroke="#528b8b" stroke-width="2" points="790.62,-272.97 800.84,-270.18 791.1,-265.99 790.62,-272.97"/>
</g>
<!-- src/storage/storage&#45;types.ts&#45;&gt;src/format&#45;validators/format&#45;validator&#45;types.ts -->
<g id="edge50" class="edge">
<title>src/storage/storage&#45;types.ts&#45;&gt;src/format&#45;validators/format&#45;validator&#45;types.ts</title>
<path fill="none" stroke="#528b8b" stroke-width="2" d="M668.18,-196.34C684.83,-212.94 708.61,-238.87 724,-265.22 747.82,-306.01 726.65,-331.77 760,-365.22 762.17,-367.4 764.51,-369.42 766.98,-371.29"/>
<polygon fill="#528b8b" stroke="#528b8b" stroke-width="2" points="765.53,-374.53 775.81,-377.12 769.39,-368.69 765.53,-374.53"/>
</g>
<!-- src/storage/storage&#45;types.ts&#45;&gt;src/storage/lock.ts -->
<g id="edge51" class="edge">
<title>src/storage/storage&#45;types.ts&#45;&gt;src/storage/lock.ts</title>
<path fill="none" stroke="#528b8b" stroke-width="2" d="M704.71,-183.98C737.22,-187.34 777.33,-191.49 805.87,-194.44"/>
<polygon fill="#528b8b" stroke="#528b8b" stroke-width="2" points="805.52,-197.92 815.83,-195.46 806.24,-190.95 805.52,-197.92"/>
</g>
<!-- src/storage/storage&#45;types.ts&#45;&gt;src/storage/query&#45;types.ts -->
<g id="edge49" class="edge">
<title>src/storage/storage&#45;types.ts&#45;&gt;src/storage/query&#45;types.ts</title>
<path fill="none" stroke="#528b8b" stroke-width="2" d="M701.87,-160.19C726.98,-151.62 757.08,-141.36 782.98,-132.52"/>
<polygon fill="#528b8b" stroke="#528b8b" stroke-width="2" points="784.35,-135.75 792.68,-129.21 782.09,-129.13 784.35,-135.75"/>
</g>
</g>
</svg>
