<?xml version="1.0" encoding="UTF-8" standalone="no"?>
<!DOCTYPE svg PUBLIC "-//W3C//DTD SVG 1.1//EN"
 "http://www.w3.org/Graphics/SVG/1.1/DTD/svg11.dtd">
<!-- Generated by graphviz version 2.44.1 (20200629.0846)
 -->
<!-- Title: G Pages: 1 -->
<svg width="773pt" height="528pt"
 viewBox="0.00 0.00 773.00 527.94" xmlns="http://www.w3.org/2000/svg" xmlns:xlink="http://www.w3.org/1999/xlink">
<g id="graph0" class="graph" transform="scale(1 1) rotate(0) translate(4 523.94)">
<title>G</title>
<polygon fill="white" stroke="transparent" points="-4,4 -4,-523.94 769,-523.94 769,4 -4,4"/>
<g id="clust1" class="cluster">
<title>cluster866242721</title>
<path fill="none" stroke="#8b7d6b" stroke-width="2" d="M20,-8.94C20,-8.94 745,-8.94 745,-8.94 751,-8.94 757,-14.94 757,-20.94 757,-20.94 757,-499.94 757,-499.94 757,-505.94 751,-511.94 745,-511.94 745,-511.94 20,-511.94 20,-511.94 14,-511.94 8,-505.94 8,-499.94 8,-499.94 8,-20.94 8,-20.94 8,-14.94 14,-8.94 20,-8.94"/>
<text text-anchor="start" x="372" y="-497.74" font-family="Helvetica,sans-Serif" font-weight="bold" font-size="14.00">src</text>
</g>
<g id="clust2" class="cluster">
<title>cluster5736567750</title>
<path fill="bisque" stroke="#8b7d6b" stroke-width="2" d="M28,-385.94C28,-385.94 445,-385.94 445,-385.94 451,-385.94 457,-391.94 457,-397.94 457,-397.94 457,-468.94 457,-468.94 457,-474.94 451,-480.94 445,-480.94 445,-480.94 28,-480.94 28,-480.94 22,-480.94 16,-474.94 16,-468.94 16,-468.94 16,-397.94 16,-397.94 16,-391.94 22,-385.94 28,-385.94"/>
<text text-anchor="start" x="215.5" y="-466.74" font-family="Helvetica,sans-Serif" font-weight="bold" font-size="14.00">crypto</text>
</g>
<g id="clust3" class="cluster">
<title>cluster545681161</title>
<path fill="bisque" stroke="#8b7d6b" stroke-width="2" d="M132,-125.94C132,-125.94 322,-125.94 322,-125.94 328,-125.94 334,-131.94 334,-137.94 334,-137.94 334,-242.94 334,-242.94 334,-248.94 328,-254.94 322,-254.94 322,-254.94 132,-254.94 132,-254.94 126,-254.94 120,-248.94 120,-242.94 120,-242.94 120,-137.94 120,-137.94 120,-131.94 126,-125.94 132,-125.94"/>
<text text-anchor="start" x="202.5" y="-240.74" font-family="Helvetica,sans-Serif" font-weight="bold" font-size="14.00">storage</text>
</g>
<g id="clust4" class="cluster">
<title>cluster7827548194</title>
<path fill="bisque" stroke="#8b7d6b" stroke-width="2" d="M489,-176.94C489,-176.94 737,-176.94 737,-176.94 743,-176.94 749,-182.94 749,-188.94 749,-188.94 749,-401.94 749,-401.94 749,-407.94 743,-413.94 737,-413.94 737,-413.94 489,-413.94 489,-413.94 483,-413.94 477,-407.94 477,-401.94 477,-401.94 477,-188.94 477,-188.94 477,-182.94 483,-176.94 489,-176.94"/>
<text text-anchor="start" x="595" y="-399.74" font-family="Helvetica,sans-Serif" font-weight="bold" font-size="14.00">types</text>
</g>
<g id="clust5" class="cluster">
<title>cluster3227502810</title>
<path fill="bisque" stroke="#8b7d6b" stroke-width="2" d="M657,-28.94C657,-28.94 724,-28.94 724,-28.94 730,-28.94 736,-34.94 736,-40.94 736,-40.94 736,-145.94 736,-145.94 736,-151.94 730,-157.94 724,-157.94 724,-157.94 657,-157.94 657,-157.94 651,-157.94 645,-151.94 645,-145.94 645,-145.94 645,-40.94 645,-40.94 645,-34.94 651,-28.94 657,-28.94"/>
<text text-anchor="start" x="680" y="-143.74" font-family="Helvetica,sans-Serif" font-weight="bold" font-size="14.00">util</text>
</g>
<g id="clust6" class="cluster">
<title>cluster4702086311</title>
<path fill="bisque" stroke="#8b7d6b" stroke-width="2" d="M382,-256.94C382,-256.94 431,-256.94 431,-256.94 437,-256.94 443,-262.94 443,-268.94 443,-268.94 443,-319.94 443,-319.94 443,-325.94 437,-331.94 431,-331.94 431,-331.94 382,-331.94 382,-331.94 376,-331.94 370,-325.94 370,-319.94 370,-319.94 370,-268.94 370,-268.94 370,-262.94 376,-256.94 382,-256.94"/>
<text text-anchor="start" x="378" y="-317.74" font-family="Helvetica,sans-Serif" font-weight="bold" font-size="14.00">validator</text>
</g>
<!-- src/_old.ts -->
<g id="node1" class="node">
<title>src/_old.ts</title>
<path fill="#79cdcd" stroke="#79cdcd" d="M74,-350.94C74,-350.94 42,-350.94 42,-350.94 36,-350.94 30,-344.94 30,-338.94 30,-338.94 30,-326.94 30,-326.94 30,-320.94 36,-314.94 42,-314.94 42,-314.94 74,-314.94 74,-314.94 80,-314.94 86,-320.94 86,-326.94 86,-326.94 86,-338.94 86,-338.94 86,-344.94 80,-350.94 74,-350.94"/>
<text text-anchor="middle" x="58" y="-329.24" font-family="Helvetica,sans-Serif" font-size="14.00">_old.ts</text>
</g>
<!-- src/doc.ts -->
<g id="node2" class="node">
<title>src/doc.ts</title>
<path fill="#79cdcd" stroke="#79cdcd" d="M421,-146.94C421,-146.94 391,-146.94 391,-146.94 385,-146.94 379,-140.94 379,-134.94 379,-134.94 379,-122.94 379,-122.94 379,-116.94 385,-110.94 391,-110.94 391,-110.94 421,-110.94 421,-110.94 427,-110.94 433,-116.94 433,-122.94 433,-122.94 433,-134.94 433,-134.94 433,-140.94 427,-146.94 421,-146.94"/>
<text text-anchor="middle" x="406" y="-125.24" font-family="Helvetica,sans-Serif" font-size="14.00">doc.ts</text>
</g>
<!-- src/types/utilTypes.ts -->
<g id="node14" class="node">
<title>src/types/utilTypes.ts</title>
<path fill="#79cdcd" stroke="#79cdcd" d="M575,-220.94C575,-220.94 514,-220.94 514,-220.94 508,-220.94 502,-214.94 502,-208.94 502,-208.94 502,-196.94 502,-196.94 502,-190.94 508,-184.94 514,-184.94 514,-184.94 575,-184.94 575,-184.94 581,-184.94 587,-190.94 587,-196.94 587,-196.94 587,-208.94 587,-208.94 587,-214.94 581,-220.94 575,-220.94"/>
<text text-anchor="middle" x="544.5" y="-199.24" font-family="Helvetica,sans-Serif" font-size="14.00">utilTypes.ts</text>
</g>
<!-- src/doc.ts&#45;&gt;src/types/utilTypes.ts -->
<g id="edge9" class="edge">
<title>src/doc.ts&#45;&gt;src/types/utilTypes.ts</title>
<path fill="none" stroke="#528b8b" stroke-width="2" d="M427.58,-146.99C440.94,-157.98 459.13,-171.66 477,-180.94 481.86,-183.46 487.06,-185.78 492.34,-187.88"/>
<polygon fill="#528b8b" stroke="#528b8b" stroke-width="2" points="491.27,-191.22 501.86,-191.44 493.72,-184.66 491.27,-191.22"/>
</g>
<!-- src/follower.ts -->
<g id="node3" class="node">
<title>src/follower.ts</title>
<path fill="#79cdcd" stroke="#79cdcd" d="M432.5,-375.94C432.5,-375.94 379.5,-375.94 379.5,-375.94 373.5,-375.94 367.5,-369.94 367.5,-363.94 367.5,-363.94 367.5,-351.94 367.5,-351.94 367.5,-345.94 373.5,-339.94 379.5,-339.94 379.5,-339.94 432.5,-339.94 432.5,-339.94 438.5,-339.94 444.5,-345.94 444.5,-351.94 444.5,-351.94 444.5,-363.94 444.5,-363.94 444.5,-369.94 438.5,-375.94 432.5,-375.94"/>
<text text-anchor="middle" x="406" y="-354.24" font-family="Helvetica,sans-Serif" font-size="14.00">follower.ts</text>
</g>
<!-- src/types/queryTypes.ts -->
<g id="node12" class="node">
<title>src/types/queryTypes.ts</title>
<path fill="#79cdcd" stroke="#79cdcd" d="M729,-220.94C729,-220.94 652,-220.94 652,-220.94 646,-220.94 640,-214.94 640,-208.94 640,-208.94 640,-196.94 640,-196.94 640,-190.94 646,-184.94 652,-184.94 652,-184.94 729,-184.94 729,-184.94 735,-184.94 741,-190.94 741,-196.94 741,-196.94 741,-208.94 741,-208.94 741,-214.94 735,-220.94 729,-220.94"/>
<text text-anchor="middle" x="690.5" y="-199.24" font-family="Helvetica,sans-Serif" font-size="14.00">queryTypes.ts</text>
</g>
<!-- src/follower.ts&#45;&gt;src/types/queryTypes.ts -->
<g id="edge11" class="edge">
<title>src/follower.ts&#45;&gt;src/types/queryTypes.ts</title>
<path fill="none" stroke="#528b8b" stroke-width="2" d="M444.71,-375.96C448.86,-377.97 453.02,-379.99 457,-381.94 465.92,-386.31 467.33,-389.66 477,-391.94 531.93,-404.91 556.57,-422.54 604,-391.94 659.52,-356.12 679.37,-274.58 686.17,-231.24"/>
<polygon fill="#528b8b" stroke="#528b8b" stroke-width="2" points="689.67,-231.5 687.63,-221.1 682.74,-230.5 689.67,-231.5"/>
</g>
<!-- src/types/storageTypes.ts -->
<g id="node13" class="node">
<title>src/types/storageTypes.ts</title>
<path fill="#79cdcd" stroke="#79cdcd" d="M589,-274.94C589,-274.94 500,-274.94 500,-274.94 494,-274.94 488,-268.94 488,-262.94 488,-262.94 488,-250.94 488,-250.94 488,-244.94 494,-238.94 500,-238.94 500,-238.94 589,-238.94 589,-238.94 595,-238.94 601,-244.94 601,-250.94 601,-250.94 601,-262.94 601,-262.94 601,-268.94 595,-274.94 589,-274.94"/>
<text text-anchor="middle" x="544.5" y="-253.24" font-family="Helvetica,sans-Serif" font-size="14.00">storageTypes.ts</text>
</g>
<!-- src/follower.ts&#45;&gt;src/types/storageTypes.ts -->
<g id="edge12" class="edge">
<title>src/follower.ts&#45;&gt;src/types/storageTypes.ts</title>
<path fill="none" stroke="#528b8b" stroke-width="2" d="M444.66,-345.39C449.2,-342.77 453.47,-339.65 457,-335.94 474.09,-318.02 459.65,-301.61 477,-283.94 477.93,-282.99 478.9,-282.07 479.91,-281.19"/>
<polygon fill="#528b8b" stroke="#528b8b" stroke-width="2" points="482.28,-283.78 488.18,-274.98 478.08,-278.18 482.28,-283.78"/>
</g>
<!-- src/follower.ts&#45;&gt;src/types/utilTypes.ts -->
<g id="edge10" class="edge">
<title>src/follower.ts&#45;&gt;src/types/utilTypes.ts</title>
<path fill="none" stroke="#528b8b" stroke-width="2" d="M444.82,-346.25C449.45,-343.49 453.7,-340.1 457,-335.94 486.82,-298.4 446.64,-267.04 477,-229.94 481.29,-224.69 486.77,-220.46 492.73,-217.04"/>
<polygon fill="#528b8b" stroke="#528b8b" stroke-width="2" points="494.31,-220.16 501.72,-212.59 491.2,-213.89 494.31,-220.16"/>
</g>
<!-- src/main.ts -->
<g id="node4" class="node">
<title>src/main.ts</title>
<path fill="#79cdcd" stroke="#79cdcd" d="M76.5,-247.94C76.5,-247.94 39.5,-247.94 39.5,-247.94 33.5,-247.94 27.5,-241.94 27.5,-235.94 27.5,-235.94 27.5,-223.94 27.5,-223.94 27.5,-217.94 33.5,-211.94 39.5,-211.94 39.5,-211.94 76.5,-211.94 76.5,-211.94 82.5,-211.94 88.5,-217.94 88.5,-223.94 88.5,-223.94 88.5,-235.94 88.5,-235.94 88.5,-241.94 82.5,-247.94 76.5,-247.94"/>
<text text-anchor="middle" x="58" y="-226.24" font-family="Helvetica,sans-Serif" font-size="14.00">main.ts</text>
</g>
<!-- src/main.ts&#45;&gt;src/follower.ts -->
<g id="edge14" class="edge">
<title>src/main.ts&#45;&gt;src/follower.ts</title>
<path fill="none" stroke="#528b8b" stroke-width="2" d="M79.19,-248.16C90.51,-257.57 105.29,-268.59 120,-275.94 198.65,-315.22 299.17,-338.58 357.4,-349.78"/>
<polygon fill="#528b8b" stroke="#528b8b" stroke-width="2" points="356.94,-353.26 367.42,-351.67 358.24,-346.38 356.94,-353.26"/>
</g>
<!-- src/storage/storageAsync.ts -->
<g id="node9" class="node">
<title>src/storage/storageAsync.ts</title>
<path fill="#79cdcd" stroke="#79cdcd" d="M271.5,-223.94C271.5,-223.94 182.5,-223.94 182.5,-223.94 176.5,-223.94 170.5,-217.94 170.5,-211.94 170.5,-211.94 170.5,-199.94 170.5,-199.94 170.5,-193.94 176.5,-187.94 182.5,-187.94 182.5,-187.94 271.5,-187.94 271.5,-187.94 277.5,-187.94 283.5,-193.94 283.5,-199.94 283.5,-199.94 283.5,-211.94 283.5,-211.94 283.5,-217.94 277.5,-223.94 271.5,-223.94"/>
<text text-anchor="middle" x="227" y="-202.24" font-family="Helvetica,sans-Serif" font-size="14.00">storageAsync.ts</text>
</g>
<!-- src/main.ts&#45;&gt;src/storage/storageAsync.ts -->
<g id="edge16" class="edge">
<title>src/main.ts&#45;&gt;src/storage/storageAsync.ts</title>
<path fill="none" stroke="#528b8b" stroke-width="2" d="M88.86,-225.65C108.73,-222.79 135.63,-218.93 160.34,-215.38"/>
<polygon fill="#528b8b" stroke="#528b8b" stroke-width="2" points="161.01,-218.82 170.41,-213.93 160.02,-211.89 161.01,-218.82"/>
</g>
<!-- src/storage/storageDriverAsyncMemory.ts -->
<g id="node10" class="node">
<title>src/storage/storageDriverAsyncMemory.ts</title>
<path fill="#79cdcd" stroke="#79cdcd" d="M314,-169.94C314,-169.94 140,-169.94 140,-169.94 134,-169.94 128,-163.94 128,-157.94 128,-157.94 128,-145.94 128,-145.94 128,-139.94 134,-133.94 140,-133.94 140,-133.94 314,-133.94 314,-133.94 320,-133.94 326,-139.94 326,-145.94 326,-145.94 326,-157.94 326,-157.94 326,-163.94 320,-169.94 314,-169.94"/>
<text text-anchor="middle" x="227" y="-148.24" font-family="Helvetica,sans-Serif" font-size="14.00">storageDriverAsyncMemory.ts</text>
</g>
<!-- src/main.ts&#45;&gt;src/storage/storageDriverAsyncMemory.ts -->
<g id="edge15" class="edge">
<title>src/main.ts&#45;&gt;src/storage/storageDriverAsyncMemory.ts</title>
<path fill="none" stroke="#528b8b" stroke-width="2" d="M76.39,-211.73C87.83,-200.74 103.66,-187.3 120,-178.94 123.71,-177.04 127.56,-175.27 131.5,-173.62"/>
<polygon fill="#528b8b" stroke="#528b8b" stroke-width="2" points="132.8,-176.87 140.84,-169.98 130.26,-170.35 132.8,-176.87"/>
</g>
<!-- src/validator/es4.ts -->
<g id="node18" class="node">
<title>src/validator/es4.ts</title>
<path fill="#79cdcd" stroke="#79cdcd" d="M421,-300.94C421,-300.94 391,-300.94 391,-300.94 385,-300.94 379,-294.94 379,-288.94 379,-288.94 379,-276.94 379,-276.94 379,-270.94 385,-264.94 391,-264.94 391,-264.94 421,-264.94 421,-264.94 427,-264.94 433,-270.94 433,-276.94 433,-276.94 433,-288.94 433,-288.94 433,-294.94 427,-300.94 421,-300.94"/>
<text text-anchor="middle" x="406" y="-279.24" font-family="Helvetica,sans-Serif" font-size="14.00">es4.ts</text>
</g>
<!-- src/main.ts&#45;&gt;src/validator/es4.ts -->
<g id="edge13" class="edge">
<title>src/main.ts&#45;&gt;src/validator/es4.ts</title>
<path fill="none" stroke="#528b8b" stroke-width="2" d="M88.58,-246.63C98.31,-251.39 109.36,-256.07 120,-258.94 206.96,-282.44 313.79,-284.69 368.66,-284"/>
<polygon fill="#528b8b" stroke="#528b8b" stroke-width="2" points="368.98,-287.5 378.92,-283.83 368.86,-280.5 368.98,-287.5"/>
</g>
<!-- src/query.ts -->
<g id="node5" class="node">
<title>src/query.ts</title>
<path fill="#79cdcd" stroke="#79cdcd" d="M426,-92.94C426,-92.94 386,-92.94 386,-92.94 380,-92.94 374,-86.94 374,-80.94 374,-80.94 374,-68.94 374,-68.94 374,-62.94 380,-56.94 386,-56.94 386,-56.94 426,-56.94 426,-56.94 432,-56.94 438,-62.94 438,-68.94 438,-68.94 438,-80.94 438,-80.94 438,-86.94 432,-92.94 426,-92.94"/>
<text text-anchor="middle" x="406" y="-71.24" font-family="Helvetica,sans-Serif" font-size="14.00">query.ts</text>
</g>
<!-- src/query.ts&#45;&gt;src/types/queryTypes.ts -->
<g id="edge17" class="edge">
<title>src/query.ts&#45;&gt;src/types/queryTypes.ts</title>
<path fill="none" stroke="#528b8b" stroke-width="2" d="M438.24,-88.07C477.26,-104.57 545.94,-134.02 604,-160.94 617.16,-167.04 631.34,-173.89 644.29,-180.26"/>
<polygon fill="#528b8b" stroke="#528b8b" stroke-width="2" points="642.96,-183.51 653.48,-184.8 646.06,-177.23 642.96,-183.51"/>
</g>
<!-- src/crypto/crypto.ts -->
<g id="node6" class="node">
<title>src/crypto/crypto.ts</title>
<path fill="#79cdcd" stroke="#79cdcd" d="M80,-429.94C80,-429.94 36,-429.94 36,-429.94 30,-429.94 24,-423.94 24,-417.94 24,-417.94 24,-405.94 24,-405.94 24,-399.94 30,-393.94 36,-393.94 36,-393.94 80,-393.94 80,-393.94 86,-393.94 92,-399.94 92,-405.94 92,-405.94 92,-417.94 92,-417.94 92,-423.94 86,-429.94 80,-429.94"/>
<text text-anchor="middle" x="58" y="-408.24" font-family="Helvetica,sans-Serif" font-size="14.00">crypto.ts</text>
</g>
<!-- src/crypto/cryptoNode.ts -->
<g id="node7" class="node">
<title>src/crypto/cryptoNode.ts</title>
<path fill="#79cdcd" stroke="#79cdcd" d="M265,-429.94C265,-429.94 189,-429.94 189,-429.94 183,-429.94 177,-423.94 177,-417.94 177,-417.94 177,-405.94 177,-405.94 177,-399.94 183,-393.94 189,-393.94 189,-393.94 265,-393.94 265,-393.94 271,-393.94 277,-399.94 277,-405.94 277,-405.94 277,-417.94 277,-417.94 277,-423.94 271,-429.94 265,-429.94"/>
<text text-anchor="middle" x="227" y="-408.24" font-family="Helvetica,sans-Serif" font-size="14.00">cryptoNode.ts</text>
</g>
<!-- src/crypto/crypto.ts&#45;&gt;src/crypto/cryptoNode.ts -->
<g id="edge1" class="edge">
<title>src/crypto/crypto.ts&#45;&gt;src/crypto/cryptoNode.ts</title>
<path fill="none" stroke="#528b8b" stroke-width="2" d="M92.39,-411.94C113.64,-411.94 141.76,-411.94 166.72,-411.94"/>
<polygon fill="#528b8b" stroke="#528b8b" stroke-width="2" points="166.83,-415.44 176.83,-411.94 166.83,-408.44 166.83,-415.44"/>
</g>
<!-- src/crypto/encoding.ts -->
<g id="node8" class="node">
<title>src/crypto/encoding.ts</title>
<path fill="#79cdcd" stroke="#79cdcd" d="M437,-449.94C437,-449.94 375,-449.94 375,-449.94 369,-449.94 363,-443.94 363,-437.94 363,-437.94 363,-425.94 363,-425.94 363,-419.94 369,-413.94 375,-413.94 375,-413.94 437,-413.94 437,-413.94 443,-413.94 449,-419.94 449,-425.94 449,-425.94 449,-437.94 449,-437.94 449,-443.94 443,-449.94 437,-449.94"/>
<text text-anchor="middle" x="406" y="-428.24" font-family="Helvetica,sans-Serif" font-size="14.00">encoding.ts</text>
</g>
<!-- src/crypto/crypto.ts&#45;&gt;src/crypto/encoding.ts -->
<g id="edge3" class="edge">
<title>src/crypto/crypto.ts&#45;&gt;src/crypto/encoding.ts</title>
<path fill="none" stroke="#528b8b" stroke-width="2" d="M92.04,-429.54C100.88,-433.42 110.6,-436.95 120,-438.94 199.94,-455.84 295.3,-448.03 352.95,-440.36"/>
<polygon fill="#528b8b" stroke="#528b8b" stroke-width="2" points="353.48,-443.82 362.91,-438.98 352.53,-436.88 353.48,-443.82"/>
</g>
<!-- src/types/cryptoTypes.ts -->
<g id="node11" class="node">
<title>src/types/cryptoTypes.ts</title>
<path fill="#79cdcd" stroke="#79cdcd" d="M584.5,-382.94C584.5,-382.94 504.5,-382.94 504.5,-382.94 498.5,-382.94 492.5,-376.94 492.5,-370.94 492.5,-370.94 492.5,-358.94 492.5,-358.94 492.5,-352.94 498.5,-346.94 504.5,-346.94 504.5,-346.94 584.5,-346.94 584.5,-346.94 590.5,-346.94 596.5,-352.94 596.5,-358.94 596.5,-358.94 596.5,-370.94 596.5,-370.94 596.5,-376.94 590.5,-382.94 584.5,-382.94"/>
<text text-anchor="middle" x="544.5" y="-361.24" font-family="Helvetica,sans-Serif" font-size="14.00">cryptoTypes.ts</text>
</g>
<!-- src/crypto/crypto.ts&#45;&gt;src/types/cryptoTypes.ts -->
<g id="edge2" class="edge">
<title>src/crypto/crypto.ts&#45;&gt;src/types/cryptoTypes.ts</title>
<path fill="none" stroke="#528b8b" stroke-width="2" d="M82.58,-430.09C93.38,-437.35 106.72,-444.93 120,-448.94 263.45,-492.25 319.78,-519.15 457,-458.94 488.02,-445.33 512.81,-414.51 527.77,-391.85"/>
<polygon fill="#528b8b" stroke="#528b8b" stroke-width="2" points="530.78,-393.63 533.2,-383.32 524.88,-389.87 530.78,-393.63"/>
</g>
<!-- src/crypto/crypto.ts&#45;&gt;src/validator/es4.ts -->
<g id="edge4" class="edge">
<title>src/crypto/crypto.ts&#45;&gt;src/validator/es4.ts</title>
<path fill="none" stroke="#528b8b" stroke-width="2" d="M86.96,-393.77C88.68,-392.5 90.38,-391.22 92,-389.94 105.33,-379.42 105.1,-372.08 120,-363.94 206.18,-316.86 240.22,-338.08 334,-308.94 345.63,-305.33 358.17,-300.91 369.41,-296.76"/>
<polygon fill="#528b8b" stroke="#528b8b" stroke-width="2" points="370.78,-299.99 378.91,-293.2 368.32,-293.43 370.78,-299.99"/>
</g>
<!-- src/crypto/cryptoNode.ts&#45;&gt;src/crypto/encoding.ts -->
<g id="edge6" class="edge">
<title>src/crypto/cryptoNode.ts&#45;&gt;src/crypto/encoding.ts</title>
<path fill="none" stroke="#528b8b" stroke-width="2" d="M277.3,-417.51C300.84,-420.17 329.02,-423.36 352.91,-426.06"/>
<polygon fill="#528b8b" stroke="#528b8b" stroke-width="2" points="352.53,-429.53 362.86,-427.18 353.32,-422.58 352.53,-429.53"/>
</g>
<!-- src/crypto/cryptoNode.ts&#45;&gt;src/types/cryptoTypes.ts -->
<g id="edge5" class="edge">
<title>src/crypto/cryptoNode.ts&#45;&gt;src/types/cryptoTypes.ts</title>
<path fill="none" stroke="#528b8b" stroke-width="2" d="M277.07,-409.86C323.69,-407.27 395.6,-401.66 457,-389.94 465.28,-388.36 473.9,-386.34 482.37,-384.13"/>
<polygon fill="#528b8b" stroke="#528b8b" stroke-width="2" points="483.46,-387.46 492.19,-381.47 481.63,-380.7 483.46,-387.46"/>
</g>
<!-- src/crypto/encoding.ts&#45;&gt;src/types/cryptoTypes.ts -->
<g id="edge7" class="edge">
<title>src/crypto/encoding.ts&#45;&gt;src/types/cryptoTypes.ts</title>
<path fill="none" stroke="#528b8b" stroke-width="2" d="M443.94,-413.81C460.33,-405.77 479.79,-396.21 497.14,-387.7"/>
<polygon fill="#528b8b" stroke="#528b8b" stroke-width="2" points="499.1,-390.64 506.53,-383.09 496.01,-384.35 499.1,-390.64"/>
</g>
<!-- src/crypto/encoding.ts&#45;&gt;src/validator/es4.ts -->
<g id="edge8" class="edge">
<title>src/crypto/encoding.ts&#45;&gt;src/validator/es4.ts</title>
<path fill="none" stroke="#528b8b" stroke-width="2" d="M369.7,-413.9C361.21,-407.84 353.27,-400.21 348.5,-390.94 332.83,-360.52 331.86,-343.85 348.5,-313.94 353.2,-305.5 361.13,-299.24 369.64,-294.65"/>
<polygon fill="#528b8b" stroke="#528b8b" stroke-width="2" points="371.38,-297.7 378.96,-290.3 368.42,-291.36 371.38,-297.7"/>
</g>
<!-- src/storage/storageAsync.ts&#45;&gt;src/doc.ts -->
<g id="edge22" class="edge">
<title>src/storage/storageAsync.ts&#45;&gt;src/doc.ts</title>
<path fill="none" stroke="#528b8b" stroke-width="2" d="M283.5,-195.83C300.17,-191.73 318.22,-186.21 334,-178.94 342.13,-175.2 357.98,-164.18 372.65,-153.43"/>
<polygon fill="#528b8b" stroke="#528b8b" stroke-width="2" points="375.13,-155.95 381.09,-147.19 370.96,-150.33 375.13,-155.95"/>
</g>
<!-- src/storage/storageAsync.ts&#45;&gt;src/types/queryTypes.ts -->
<g id="edge19" class="edge">
<title>src/storage/storageAsync.ts&#45;&gt;src/types/queryTypes.ts</title>
<path fill="none" stroke="#528b8b" stroke-width="2" d="M283.72,-193.46C357.39,-178.8 491.06,-158.53 604,-175.94 613.04,-177.33 622.43,-179.51 631.54,-182.04"/>
<polygon fill="#528b8b" stroke="#528b8b" stroke-width="2" points="630.7,-185.44 641.28,-184.89 632.67,-178.72 630.7,-185.44"/>
</g>
<!-- src/storage/storageAsync.ts&#45;&gt;src/types/storageTypes.ts -->
<g id="edge20" class="edge">
<title>src/storage/storageAsync.ts&#45;&gt;src/types/storageTypes.ts</title>
<path fill="none" stroke="#528b8b" stroke-width="2" d="M283.61,-213.94C330.03,-220.74 397.91,-230.96 457,-240.94 463.68,-242.07 470.64,-243.29 477.58,-244.53"/>
<polygon fill="#528b8b" stroke="#528b8b" stroke-width="2" points="477.25,-248.02 487.71,-246.36 478.49,-241.13 477.25,-248.02"/>
</g>
<!-- src/storage/storageAsync.ts&#45;&gt;src/types/utilTypes.ts -->
<g id="edge18" class="edge">
<title>src/storage/storageAsync.ts&#45;&gt;src/types/utilTypes.ts</title>
<path fill="none" stroke="#528b8b" stroke-width="2" d="M283.68,-205.41C342.47,-204.85 434.4,-203.98 491.68,-203.43"/>
<polygon fill="#528b8b" stroke="#528b8b" stroke-width="2" points="491.99,-206.93 501.96,-203.34 491.93,-199.93 491.99,-206.93"/>
</g>
<!-- src/types/validatorTypes.ts -->
<g id="node15" class="node">
<title>src/types/validatorTypes.ts</title>
<path fill="#79cdcd" stroke="#79cdcd" d="M592,-328.94C592,-328.94 497,-328.94 497,-328.94 491,-328.94 485,-322.94 485,-316.94 485,-316.94 485,-304.94 485,-304.94 485,-298.94 491,-292.94 497,-292.94 497,-292.94 592,-292.94 592,-292.94 598,-292.94 604,-298.94 604,-304.94 604,-304.94 604,-316.94 604,-316.94 604,-322.94 598,-328.94 592,-328.94"/>
<text text-anchor="middle" x="544.5" y="-307.24" font-family="Helvetica,sans-Serif" font-size="14.00">validatorTypes.ts</text>
</g>
<!-- src/storage/storageAsync.ts&#45;&gt;src/types/validatorTypes.ts -->
<g id="edge21" class="edge">
<title>src/storage/storageAsync.ts&#45;&gt;src/types/validatorTypes.ts</title>
<path fill="none" stroke="#528b8b" stroke-width="2" d="M283.61,-216.09C299.95,-219.45 317.78,-223.48 334,-227.94 347.15,-231.56 349.77,-234.63 363,-237.94 404.04,-248.21 421.57,-229.83 457,-252.94 470.73,-261.9 464.37,-273.48 477,-283.94 478.51,-285.19 480.09,-286.39 481.72,-287.54"/>
<polygon fill="#528b8b" stroke="#528b8b" stroke-width="2" points="479.9,-290.53 490.23,-292.88 483.62,-284.6 479.9,-290.53"/>
</g>
<!-- src/storage/storageAsync.ts&#45;&gt;src/validator/es4.ts -->
<g id="edge23" class="edge">
<title>src/storage/storageAsync.ts&#45;&gt;src/validator/es4.ts</title>
<path fill="none" stroke="#528b8b" stroke-width="2" d="M283.76,-212.49C300.44,-215.77 318.42,-220.65 334,-227.94 348.9,-234.91 350.01,-240.84 363,-250.94 366.17,-253.4 369.48,-255.96 372.79,-258.5"/>
<polygon fill="#528b8b" stroke="#528b8b" stroke-width="2" points="370.88,-261.45 380.95,-264.75 375.14,-255.89 370.88,-261.45"/>
</g>
<!-- src/storage/storageDriverAsyncMemory.ts&#45;&gt;src/doc.ts -->
<g id="edge27" class="edge">
<title>src/storage/storageDriverAsyncMemory.ts&#45;&gt;src/doc.ts</title>
<path fill="none" stroke="#528b8b" stroke-width="2" d="M326.08,-139.2C341.28,-137.22 356.1,-135.29 368.72,-133.66"/>
<polygon fill="#528b8b" stroke="#528b8b" stroke-width="2" points="369.3,-137.11 378.76,-132.35 368.39,-130.17 369.3,-137.11"/>
</g>
<!-- src/storage/storageDriverAsyncMemory.ts&#45;&gt;src/query.ts -->
<g id="edge28" class="edge">
<title>src/storage/storageDriverAsyncMemory.ts&#45;&gt;src/query.ts</title>
<path fill="none" stroke="#528b8b" stroke-width="2" d="M269.5,-133.89C298.23,-121.39 336.28,-104.84 364.74,-92.46"/>
<polygon fill="#528b8b" stroke="#528b8b" stroke-width="2" points="366.22,-95.63 374,-88.43 363.43,-89.21 366.22,-95.63"/>
</g>
<!-- src/storage/storageDriverAsyncMemory.ts&#45;&gt;src/types/queryTypes.ts -->
<g id="edge24" class="edge">
<title>src/storage/storageDriverAsyncMemory.ts&#45;&gt;src/types/queryTypes.ts</title>
<path fill="none" stroke="#528b8b" stroke-width="2" d="M243.11,-133.6C265.9,-107.55 311.87,-61 363,-42.94 413.5,-25.1 561,-11.02 604,-42.94 648.37,-75.87 609.42,-115.92 640,-161.94 643.86,-167.75 648.78,-173.16 654.02,-178.03"/>
<polygon fill="#528b8b" stroke="#528b8b" stroke-width="2" points="651.97,-180.89 661.84,-184.76 656.54,-175.58 651.97,-180.89"/>
</g>
<!-- src/storage/storageDriverAsyncMemory.ts&#45;&gt;src/types/storageTypes.ts -->
<g id="edge25" class="edge">
<title>src/storage/storageDriverAsyncMemory.ts&#45;&gt;src/types/storageTypes.ts</title>
<path fill="none" stroke="#528b8b" stroke-width="2" d="M302.36,-170.01C313.02,-172.85 323.82,-175.87 334,-178.94 389.45,-195.66 402.81,-201.52 457,-221.94 458.95,-222.68 473.32,-228.48 489.8,-235.16"/>
<polygon fill="#528b8b" stroke="#528b8b" stroke-width="2" points="488.53,-238.42 499.11,-238.93 491.16,-231.93 488.53,-238.42"/>
</g>
<!-- src/util/lock.ts -->
<g id="node17" class="node">
<title>src/util/lock.ts</title>
<path fill="#79cdcd" stroke="#79cdcd" d="M706,-72.94C706,-72.94 675,-72.94 675,-72.94 669,-72.94 663,-66.94 663,-60.94 663,-60.94 663,-48.94 663,-48.94 663,-42.94 669,-36.94 675,-36.94 675,-36.94 706,-36.94 706,-36.94 712,-36.94 718,-42.94 718,-48.94 718,-48.94 718,-60.94 718,-60.94 718,-66.94 712,-72.94 706,-72.94"/>
<text text-anchor="middle" x="690.5" y="-51.24" font-family="Helvetica,sans-Serif" font-size="14.00">lock.ts</text>
</g>
<!-- src/storage/storageDriverAsyncMemory.ts&#45;&gt;src/util/lock.ts -->
<g id="edge26" class="edge">
<title>src/storage/storageDriverAsyncMemory.ts&#45;&gt;src/util/lock.ts</title>
<path fill="none" stroke="#528b8b" stroke-width="2" d="M239.87,-133.8C260.64,-103.94 306.73,-45.5 363,-22.94 462.42,16.92 498.6,-3.86 604,-22.94 620.76,-25.97 638.51,-32.1 653.48,-38.19"/>
<polygon fill="#528b8b" stroke="#528b8b" stroke-width="2" points="652.29,-41.49 662.87,-42.15 655.01,-35.04 652.29,-41.49"/>
</g>
<!-- src/types/storageTypes.ts&#45;&gt;src/types/queryTypes.ts -->
<g id="edge29" class="edge">
<title>src/types/storageTypes.ts&#45;&gt;src/types/queryTypes.ts</title>
<path fill="none" stroke="#528b8b" stroke-width="2" d="M593.85,-238.81C605.96,-234.27 619.08,-229.35 631.6,-224.65"/>
<polygon fill="#528b8b" stroke="#528b8b" stroke-width="2" points="632.9,-227.91 641.03,-221.12 630.44,-221.35 632.9,-227.91"/>
</g>
<!-- src/types/storageTypes.ts&#45;&gt;src/util/lock.ts -->
<g id="edge30" class="edge">
<title>src/types/storageTypes.ts&#45;&gt;src/util/lock.ts</title>
<path fill="none" stroke="#528b8b" stroke-width="2" d="M594.37,-238.89C597.94,-236.28 601.23,-233.31 604,-229.94 647.01,-177.67 598.76,-135.63 640,-81.94 643.74,-77.07 648.63,-72.96 653.87,-69.54"/>
<polygon fill="#528b8b" stroke="#528b8b" stroke-width="2" points="655.93,-72.39 662.89,-64.41 652.46,-66.31 655.93,-72.39"/>
</g>
<!-- src/util/base32.ts -->
<g id="node16" class="node">
<title>src/util/base32.ts</title>
<path fill="#79cdcd" stroke="#79cdcd" d="M716,-126.94C716,-126.94 665,-126.94 665,-126.94 659,-126.94 653,-120.94 653,-114.94 653,-114.94 653,-102.94 653,-102.94 653,-96.94 659,-90.94 665,-90.94 665,-90.94 716,-90.94 716,-90.94 722,-90.94 728,-96.94 728,-102.94 728,-102.94 728,-114.94 728,-114.94 728,-120.94 722,-126.94 716,-126.94"/>
<text text-anchor="middle" x="690.5" y="-105.24" font-family="Helvetica,sans-Serif" font-size="14.00">base32.ts</text>
</g>
<!-- src/validator/es4.ts&#45;&gt;src/crypto/crypto.ts -->
<g id="edge32" class="edge">
<title>src/validator/es4.ts&#45;&gt;src/crypto/crypto.ts</title>
<path fill="none" stroke="#528b8b" stroke-width="2" d="M378.64,-294.63C373.2,-297.61 367.71,-301.08 363,-304.94 347.12,-317.98 351.54,-330.24 334,-340.94 251.1,-391.51 212.48,-355.34 120,-384.94 113.92,-386.89 107.63,-389.25 101.5,-391.75"/>
<polygon fill="#528b8b" stroke="#528b8b" stroke-width="2" points="99.89,-388.63 92.06,-395.77 102.63,-395.08 99.89,-388.63"/>
</g>
<!-- src/validator/es4.ts&#45;&gt;src/types/validatorTypes.ts -->
<g id="edge31" class="edge">
<title>src/validator/es4.ts&#45;&gt;src/types/validatorTypes.ts</title>
<path fill="none" stroke="#528b8b" stroke-width="2" d="M433.32,-288.34C445.22,-290.78 459.89,-293.79 474.6,-296.81"/>
<polygon fill="#528b8b" stroke="#528b8b" stroke-width="2" points="474.26,-300.31 484.76,-298.89 475.66,-293.45 474.26,-300.31"/>
</g>
</g>
</svg>
