<?xml version="1.0" encoding="UTF-8" standalone="no"?>
<!DOCTYPE svg PUBLIC "-//W3C//DTD SVG 1.1//EN"
 "http://www.w3.org/Graphics/SVG/1.1/DTD/svg11.dtd">
<!-- Generated by graphviz version 2.44.1 (20200629.0846)
 -->
<!-- Title: G Pages: 1 -->
<svg width="1040pt" height="853pt"
 viewBox="0.00 0.00 1040.00 853.00" xmlns="http://www.w3.org/2000/svg" xmlns:xlink="http://www.w3.org/1999/xlink">
<g id="graph0" class="graph" transform="scale(1 1) rotate(0) translate(4 849)">
<title>G</title>
<polygon fill="white" stroke="transparent" points="-4,4 -4,-849 1036,-849 1036,4 -4,4"/>
<g id="clust1" class="cluster">
<title>cluster7305177396</title>
<path fill="bisque" stroke="#8b7d6b" stroke-width="2" d="M791.5,-708C791.5,-708 1012,-708 1012,-708 1018,-708 1024,-714 1024,-720 1024,-720 1024,-825 1024,-825 1024,-831 1018,-837 1012,-837 1012,-837 791.5,-837 791.5,-837 785.5,-837 779.5,-831 779.5,-825 779.5,-825 779.5,-720 779.5,-720 779.5,-714 785.5,-708 791.5,-708"/>
<text text-anchor="start" x="853.25" y="-822.8" font-family="Helvetica,sans-Serif" font-weight="bold" font-size="14.00">core&#45;validators</text>
</g>
<g id="clust2" class="cluster">
<title>cluster1749912301</title>
<path fill="bisque" stroke="#8b7d6b" stroke-width="2" d="M441,-377C441,-377 882,-377 882,-377 888,-377 894,-383 894,-389 894,-389 894,-588 894,-588 894,-594 888,-600 882,-600 882,-600 441,-600 441,-600 435,-600 429,-594 429,-588 429,-588 429,-389 429,-389 429,-383 435,-377 441,-377"/>
<text text-anchor="start" x="640.5" y="-585.8" font-family="Helvetica,sans-Serif" font-weight="bold" font-size="14.00">crypto</text>
</g>
<g id="clust3" class="cluster">
<title>cluster4742442288</title>
<path fill="bisque" stroke="#8b7d6b" stroke-width="2" d="M178,-608C178,-608 548,-608 548,-608 554,-608 560,-614 560,-620 560,-620 560,-671 560,-671 560,-677 554,-683 548,-683 548,-683 178,-683 178,-683 172,-683 166,-677 166,-671 166,-671 166,-620 166,-620 166,-614 172,-608 178,-608"/>
<text text-anchor="start" x="307" y="-668.8" font-family="Helvetica,sans-Serif" font-weight="bold" font-size="14.00">format&#45;validators</text>
</g>
<g id="clust4" class="cluster">
<title>cluster6982376458</title>
<path fill="bisque" stroke="#8b7d6b" stroke-width="2" d="M150,-46C150,-46 713.5,-46 713.5,-46 719.5,-46 725.5,-52 725.5,-58 725.5,-58 725.5,-357 725.5,-357 725.5,-363 719.5,-369 713.5,-369 713.5,-369 150,-369 150,-369 144,-369 138,-363 138,-357 138,-357 138,-58 138,-58 138,-52 144,-46 150,-46"/>
<text text-anchor="start" x="407.25" y="-354.8" font-family="Helvetica,sans-Serif" font-weight="bold" font-size="14.00">storage</text>
</g>
<!-- src/example&#45;app.ts -->
<g id="node1" class="node">
<title>src/example&#45;app.ts</title>
<path fill="#79cdcd" stroke="#79cdcd" d="M98,-184C98,-184 12,-184 12,-184 6,-184 0,-178 0,-172 0,-172 0,-160 0,-160 0,-154 6,-148 12,-148 12,-148 98,-148 98,-148 104,-148 110,-154 110,-160 110,-160 110,-172 110,-172 110,-178 104,-184 98,-184"/>
<text text-anchor="middle" x="55" y="-162.3" font-family="Helvetica,sans-Serif" font-size="14.00">example&#45;app.ts</text>
</g>
<!-- src/format&#45;validators/format&#45;validator&#45;es4.ts -->
<g id="node11" class="node">
<title>src/format&#45;validators/format&#45;validator&#45;es4.ts</title>
<path fill="#79cdcd" stroke="#79cdcd" d="M314,-652C314,-652 186,-652 186,-652 180,-652 174,-646 174,-640 174,-640 174,-628 174,-628 174,-622 180,-616 186,-616 186,-616 314,-616 314,-616 320,-616 326,-622 326,-628 326,-628 326,-640 326,-640 326,-646 320,-652 314,-652"/>
<text text-anchor="middle" x="250" y="-630.3" font-family="Helvetica,sans-Serif" font-size="14.00">format&#45;validator&#45;es4.ts</text>
</g>
<!-- src/example&#45;app.ts&#45;&gt;src/format&#45;validators/format&#45;validator&#45;es4.ts -->
<g id="edge14" class="edge">
<title>src/example&#45;app.ts&#45;&gt;src/format&#45;validators/format&#45;validator&#45;es4.ts</title>
<path fill="none" stroke="#528b8b" stroke-width="2" d="M62.98,-184.06C76.94,-220.1 109.44,-303.45 138,-373 173.1,-458.47 216.38,-558.88 236.99,-606.4"/>
<polygon fill="#528b8b" stroke="#528b8b" stroke-width="2" points="233.84,-607.93 241.04,-615.71 240.27,-605.15 233.84,-607.93"/>
</g>
<!-- src/storage/follower.ts -->
<g id="node14" class="node">
<title>src/storage/follower.ts</title>
<path fill="#79cdcd" stroke="#79cdcd" d="M276.5,-130C276.5,-130 223.5,-130 223.5,-130 217.5,-130 211.5,-124 211.5,-118 211.5,-118 211.5,-106 211.5,-106 211.5,-100 217.5,-94 223.5,-94 223.5,-94 276.5,-94 276.5,-94 282.5,-94 288.5,-100 288.5,-106 288.5,-106 288.5,-118 288.5,-118 288.5,-124 282.5,-130 276.5,-130"/>
<text text-anchor="middle" x="250" y="-108.3" font-family="Helvetica,sans-Serif" font-size="14.00">follower.ts</text>
</g>
<!-- src/example&#45;app.ts&#45;&gt;src/storage/follower.ts -->
<g id="edge17" class="edge">
<title>src/example&#45;app.ts&#45;&gt;src/storage/follower.ts</title>
<path fill="none" stroke="#528b8b" stroke-width="2" d="M108.74,-147.95C118.43,-144.83 128.49,-141.72 138,-139 158.62,-133.11 181.63,-127.37 201.33,-122.72"/>
<polygon fill="#528b8b" stroke="#528b8b" stroke-width="2" points="202.36,-126.07 211.3,-120.39 200.76,-119.26 202.36,-126.07"/>
</g>
<!-- src/storage/storage&#45;async.ts -->
<g id="node18" class="node">
<title>src/storage/storage&#45;async.ts</title>
<path fill="#79cdcd" stroke="#79cdcd" d="M296,-299C296,-299 204,-299 204,-299 198,-299 192,-293 192,-287 192,-287 192,-275 192,-275 192,-269 198,-263 204,-263 204,-263 296,-263 296,-263 302,-263 308,-269 308,-275 308,-275 308,-287 308,-287 308,-293 302,-299 296,-299"/>
<text text-anchor="middle" x="250" y="-277.3" font-family="Helvetica,sans-Serif" font-size="14.00">storage&#45;async.ts</text>
</g>
<!-- src/example&#45;app.ts&#45;&gt;src/storage/storage&#45;async.ts -->
<g id="edge16" class="edge">
<title>src/example&#45;app.ts&#45;&gt;src/storage/storage&#45;async.ts</title>
<path fill="none" stroke="#528b8b" stroke-width="2" d="M86.58,-184.22C119.9,-204.07 173.29,-235.89 209.7,-257.58"/>
<polygon fill="#528b8b" stroke="#528b8b" stroke-width="2" points="208.18,-260.75 218.56,-262.86 211.76,-254.74 208.18,-260.75"/>
</g>
<!-- src/storage/storage&#45;driver&#45;async&#45;memory.ts -->
<g id="node19" class="node">
<title>src/storage/storage&#45;driver&#45;async&#45;memory.ts</title>
<path fill="#79cdcd" stroke="#79cdcd" d="M342,-184C342,-184 158,-184 158,-184 152,-184 146,-178 146,-172 146,-172 146,-160 146,-160 146,-154 152,-148 158,-148 158,-148 342,-148 342,-148 348,-148 354,-154 354,-160 354,-160 354,-172 354,-172 354,-178 348,-184 342,-184"/>
<text text-anchor="middle" x="250" y="-162.3" font-family="Helvetica,sans-Serif" font-size="14.00">storage&#45;driver&#45;async&#45;memory.ts</text>
</g>
<!-- src/example&#45;app.ts&#45;&gt;src/storage/storage&#45;driver&#45;async&#45;memory.ts -->
<g id="edge15" class="edge">
<title>src/example&#45;app.ts&#45;&gt;src/storage/storage&#45;driver&#45;async&#45;memory.ts</title>
<path fill="none" stroke="#528b8b" stroke-width="2" d="M110.02,-166C118.2,-166 126.89,-166 135.78,-166"/>
<polygon fill="#528b8b" stroke="#528b8b" stroke-width="2" points="135.88,-169.5 145.88,-166 135.88,-162.5 135.88,-169.5"/>
</g>
<!-- chalk -->
<g id="node26" class="node">
<title>chalk</title>
<polygon fill="#cdc8b1" stroke="#8b8878" points="498,-36 448,-36 444,-32 444,0 494,0 498,-4 498,-36"/>
<polyline fill="none" stroke="#8b8878" points="494,-32 444,-32 "/>
<polyline fill="none" stroke="#8b8878" points="494,-32 494,0 "/>
<polyline fill="none" stroke="#8b8878" points="494,-32 498,-36 "/>
<text text-anchor="middle" x="471" y="-14.3" font-family="Helvetica,sans-Serif" font-size="14.00">chalk</text>
</g>
<!-- src/example&#45;app.ts&#45;&gt;chalk -->
<g id="edge45" class="edge">
<title>src/example&#45;app.ts&#45;&gt;chalk</title>
<path fill="none" stroke="#8b8878" stroke-width="1.5" stroke-dasharray="5,2" d="M62.08,-147.78C72.58,-119.55 97.01,-65.98 138,-42 232.5,13.29 368.96,-0.11 433.52,-10.81"/>
<polygon fill="#8b8878" stroke="#8b8878" stroke-width="1.5" points="433.16,-14.3 443.61,-12.56 434.36,-7.41 433.16,-14.3"/>
</g>
<!-- src/core&#45;validators/addresses.ts -->
<g id="node2" class="node">
<title>src/core&#45;validators/addresses.ts</title>
<path fill="#79cdcd" stroke="#79cdcd" d="M868.5,-752C868.5,-752 799.5,-752 799.5,-752 793.5,-752 787.5,-746 787.5,-740 787.5,-740 787.5,-728 787.5,-728 787.5,-722 793.5,-716 799.5,-716 799.5,-716 868.5,-716 868.5,-716 874.5,-716 880.5,-722 880.5,-728 880.5,-728 880.5,-740 880.5,-740 880.5,-746 874.5,-752 868.5,-752"/>
<text text-anchor="middle" x="834" y="-730.3" font-family="Helvetica,sans-Serif" font-size="14.00">addresses.ts</text>
</g>
<!-- src/core&#45;validators/characters.ts -->
<g id="node3" class="node">
<title>src/core&#45;validators/characters.ts</title>
<path fill="#79cdcd" stroke="#79cdcd" d="M1004,-806C1004,-806 934,-806 934,-806 928,-806 922,-800 922,-794 922,-794 922,-782 922,-782 922,-776 928,-770 934,-770 934,-770 1004,-770 1004,-770 1010,-770 1016,-776 1016,-782 1016,-782 1016,-794 1016,-794 1016,-800 1010,-806 1004,-806"/>
<text text-anchor="middle" x="969" y="-784.3" font-family="Helvetica,sans-Serif" font-size="14.00">characters.ts</text>
</g>
<!-- src/core&#45;validators/addresses.ts&#45;&gt;src/core&#45;validators/characters.ts -->
<g id="edge1" class="edge">
<title>src/core&#45;validators/addresses.ts&#45;&gt;src/core&#45;validators/characters.ts</title>
<path fill="none" stroke="#528b8b" stroke-width="2" d="M879.66,-752.13C890.62,-756.58 902.48,-761.4 913.84,-766.01"/>
<polygon fill="#528b8b" stroke="#528b8b" stroke-width="2" points="912.65,-769.31 923.23,-769.82 915.29,-762.82 912.65,-769.31"/>
</g>
<!-- src/core&#45;validators/checkers.ts -->
<g id="node4" class="node">
<title>src/core&#45;validators/checkers.ts</title>
<path fill="#79cdcd" stroke="#79cdcd" d="M864.5,-806C864.5,-806 803.5,-806 803.5,-806 797.5,-806 791.5,-800 791.5,-794 791.5,-794 791.5,-782 791.5,-782 791.5,-776 797.5,-770 803.5,-770 803.5,-770 864.5,-770 864.5,-770 870.5,-770 876.5,-776 876.5,-782 876.5,-782 876.5,-794 876.5,-794 876.5,-800 870.5,-806 864.5,-806"/>
<text text-anchor="middle" x="834" y="-784.3" font-family="Helvetica,sans-Serif" font-size="14.00">checkers.ts</text>
</g>
<!-- src/core&#45;validators/checkers.ts&#45;&gt;src/core&#45;validators/characters.ts -->
<g id="edge2" class="edge">
<title>src/core&#45;validators/checkers.ts&#45;&gt;src/core&#45;validators/characters.ts</title>
<path fill="none" stroke="#528b8b" stroke-width="2" d="M876.72,-788C887.79,-788 899.94,-788 911.66,-788"/>
<polygon fill="#528b8b" stroke="#528b8b" stroke-width="2" points="911.81,-791.5 921.81,-788 911.81,-784.5 911.81,-791.5"/>
</g>
<!-- src/crypto/base32.ts -->
<g id="node5" class="node">
<title>src/crypto/base32.ts</title>
<path fill="#79cdcd" stroke="#79cdcd" d="M859.5,-432C859.5,-432 808.5,-432 808.5,-432 802.5,-432 796.5,-426 796.5,-420 796.5,-420 796.5,-408 796.5,-408 796.5,-402 802.5,-396 808.5,-396 808.5,-396 859.5,-396 859.5,-396 865.5,-396 871.5,-402 871.5,-408 871.5,-408 871.5,-420 871.5,-420 871.5,-426 865.5,-432 859.5,-432"/>
<text text-anchor="middle" x="834" y="-410.3" font-family="Helvetica,sans-Serif" font-size="14.00">base32.ts</text>
</g>
<!-- rfc4648 -->
<g id="node22" class="node">
<title>rfc4648</title>
<polygon fill="#cdc8b1" stroke="#8b8878" points="1000,-432 942,-432 938,-428 938,-396 996,-396 1000,-400 1000,-432"/>
<polyline fill="none" stroke="#8b8878" points="996,-428 938,-428 "/>
<polyline fill="none" stroke="#8b8878" points="996,-428 996,-396 "/>
<polyline fill="none" stroke="#8b8878" points="996,-428 1000,-432 "/>
<text text-anchor="middle" x="969" y="-410.3" font-family="Helvetica,sans-Serif" font-size="14.00">rfc4648</text>
</g>
<!-- src/crypto/base32.ts&#45;&gt;rfc4648 -->
<g id="edge41" class="edge">
<title>src/crypto/base32.ts&#45;&gt;rfc4648</title>
<path fill="none" stroke="#8b8878" stroke-width="1.5" stroke-dasharray="5,2" d="M871.69,-414C889.05,-414 909.82,-414 927.62,-414"/>
<polygon fill="#8b8878" stroke="#8b8878" stroke-width="1.5" points="927.71,-417.5 937.71,-414 927.71,-410.5 927.71,-417.5"/>
</g>
<!-- src/crypto/crypto&#45;driver&#45;chloride.ts -->
<g id="node6" class="node">
<title>src/crypto/crypto&#45;driver&#45;chloride.ts</title>
<path fill="#79cdcd" stroke="#79cdcd" d="M734,-569C734,-569 600,-569 600,-569 594,-569 588,-563 588,-557 588,-557 588,-545 588,-545 588,-539 594,-533 600,-533 600,-533 734,-533 734,-533 740,-533 746,-539 746,-545 746,-545 746,-557 746,-557 746,-563 740,-569 734,-569"/>
<text text-anchor="middle" x="667" y="-547.3" font-family="Helvetica,sans-Serif" font-size="14.00">crypto&#45;driver&#45;chloride.ts</text>
</g>
<!-- src/crypto/crypto&#45;types.ts -->
<g id="node8" class="node">
<title>src/crypto/crypto&#45;types.ts</title>
<path fill="#79cdcd" stroke="#79cdcd" d="M874,-487C874,-487 794,-487 794,-487 788,-487 782,-481 782,-475 782,-475 782,-463 782,-463 782,-457 788,-451 794,-451 794,-451 874,-451 874,-451 880,-451 886,-457 886,-463 886,-463 886,-475 886,-475 886,-481 880,-487 874,-487"/>
<text text-anchor="middle" x="834" y="-465.3" font-family="Helvetica,sans-Serif" font-size="14.00">crypto&#45;types.ts</text>
</g>
<!-- src/crypto/crypto&#45;driver&#45;chloride.ts&#45;&gt;src/crypto/crypto&#45;types.ts -->
<g id="edge3" class="edge">
<title>src/crypto/crypto&#45;driver&#45;chloride.ts&#45;&gt;src/crypto/crypto&#45;types.ts</title>
<path fill="none" stroke="#528b8b" stroke-width="2" d="M725.28,-532.88C732.36,-530.15 739.41,-527.17 746,-524 764.34,-515.17 783.58,-503.31 799.3,-492.87"/>
<polygon fill="#528b8b" stroke="#528b8b" stroke-width="2" points="801.31,-495.73 807.63,-487.24 797.39,-489.93 801.31,-495.73"/>
</g>
<!-- chloride/small -->
<g id="node23" class="node">
<title>chloride/small</title>
<polygon fill="#cdc8b1" stroke="#8b8878" points="884,-698 788,-698 784,-694 784,-662 880,-662 884,-666 884,-698"/>
<polyline fill="none" stroke="#8b8878" points="880,-694 784,-694 "/>
<polyline fill="none" stroke="#8b8878" points="880,-694 880,-662 "/>
<polyline fill="none" stroke="#8b8878" points="880,-694 884,-698 "/>
<text text-anchor="middle" x="834" y="-676.3" font-family="Helvetica,sans-Serif" font-size="14.00">chloride/small</text>
</g>
<!-- src/crypto/crypto&#45;driver&#45;chloride.ts&#45;&gt;chloride/small -->
<g id="edge42" class="edge">
<title>src/crypto/crypto&#45;driver&#45;chloride.ts&#45;&gt;chloride/small</title>
<path fill="none" stroke="#8b8878" stroke-width="1.5" stroke-dasharray="5,2" d="M705.05,-569.1C718.93,-577.02 734.17,-587.22 746,-599 766.01,-618.93 758.67,-633.93 779.5,-653 780.63,-654.03 781.8,-655.03 783.01,-656.01"/>
<polygon fill="#8b8878" stroke="#8b8878" stroke-width="1.5" points="781.28,-659.07 791.46,-662 785.33,-653.36 781.28,-659.07"/>
</g>
<!-- src/crypto/crypto&#45;driver&#45;node.ts -->
<g id="node7" class="node">
<title>src/crypto/crypto&#45;driver&#45;node.ts</title>
<path fill="#79cdcd" stroke="#79cdcd" d="M725,-515C725,-515 609,-515 609,-515 603,-515 597,-509 597,-503 597,-503 597,-491 597,-491 597,-485 603,-479 609,-479 609,-479 725,-479 725,-479 731,-479 737,-485 737,-491 737,-491 737,-503 737,-503 737,-509 731,-515 725,-515"/>
<text text-anchor="middle" x="667" y="-493.3" font-family="Helvetica,sans-Serif" font-size="14.00">crypto&#45;driver&#45;node.ts</text>
</g>
<!-- src/crypto/crypto&#45;driver&#45;node.ts&#45;&gt;src/crypto/crypto&#45;types.ts -->
<g id="edge4" class="edge">
<title>src/crypto/crypto&#45;driver&#45;node.ts&#45;&gt;src/crypto/crypto&#45;types.ts</title>
<path fill="none" stroke="#528b8b" stroke-width="2" d="M737.02,-485.29C748.51,-483.34 760.37,-481.33 771.65,-479.41"/>
<polygon fill="#528b8b" stroke="#528b8b" stroke-width="2" points="772.56,-482.81 781.83,-477.68 771.39,-475.91 772.56,-482.81"/>
</g>
<!-- crypto -->
<g id="node24" class="node">
<title>crypto</title>
<polygon fill="#cdc8b1" stroke="#8b8878" points="861,-644 811,-644 807,-640 807,-608 857,-608 861,-612 861,-644"/>
<polyline fill="none" stroke="#8b8878" points="857,-640 807,-640 "/>
<polyline fill="none" stroke="#8b8878" points="857,-640 857,-608 "/>
<polyline fill="none" stroke="#8b8878" points="857,-640 861,-644 "/>
<text text-anchor="middle" x="834" y="-622.3" font-family="Helvetica,sans-Serif" font-size="14.00">crypto</text>
</g>
<!-- src/crypto/crypto&#45;driver&#45;node.ts&#45;&gt;crypto -->
<g id="edge43" class="edge">
<title>src/crypto/crypto&#45;driver&#45;node.ts&#45;&gt;crypto</title>
<path fill="none" stroke="#8b8878" stroke-width="1.5" stroke-dasharray="5,2" d="M734.22,-515.18C738.46,-517.74 742.45,-520.67 746,-524 774.11,-550.38 752.16,-576.83 779.5,-604 784.53,-608.99 790.84,-612.91 797.36,-615.95"/>
<polygon fill="#8b8878" stroke="#8b8878" stroke-width="1.5" points="796.34,-619.32 806.93,-619.82 798.97,-612.83 796.34,-619.32"/>
</g>
<!-- src/crypto/crypto.ts -->
<g id="node9" class="node">
<title>src/crypto/crypto.ts</title>
<path fill="#79cdcd" stroke="#79cdcd" d="M493,-515C493,-515 449,-515 449,-515 443,-515 437,-509 437,-503 437,-503 437,-491 437,-491 437,-485 443,-479 449,-479 449,-479 493,-479 493,-479 499,-479 505,-485 505,-491 505,-491 505,-503 505,-503 505,-509 499,-515 493,-515"/>
<text text-anchor="middle" x="471" y="-493.3" font-family="Helvetica,sans-Serif" font-size="14.00">crypto.ts</text>
</g>
<!-- src/crypto/crypto.ts&#45;&gt;src/core&#45;validators/addresses.ts -->
<g id="edge10" class="edge">
<title>src/crypto/crypto.ts&#45;&gt;src/core&#45;validators/addresses.ts</title>
<path fill="none" stroke="#528b8b" stroke-width="2" d="M488.58,-515.19C507.06,-535.9 537.33,-571.13 560,-604 574.24,-624.65 568.58,-637.12 588,-653 642.9,-697.89 723.58,-718.24 777.17,-727.23"/>
<polygon fill="#528b8b" stroke="#528b8b" stroke-width="2" points="776.75,-730.71 787.18,-728.83 777.86,-723.79 776.75,-730.71"/>
</g>
<!-- src/crypto/crypto.ts&#45;&gt;src/crypto/base32.ts -->
<g id="edge8" class="edge">
<title>src/crypto/crypto.ts&#45;&gt;src/crypto/base32.ts</title>
<path fill="none" stroke="#528b8b" stroke-width="2" d="M485.68,-478.82C505.23,-454.51 543.74,-412.57 588,-396 653.72,-371.4 736.16,-385.86 786.69,-399.33"/>
<polygon fill="#528b8b" stroke="#528b8b" stroke-width="2" points="785.78,-402.71 796.35,-402 787.65,-395.96 785.78,-402.71"/>
</g>
<!-- src/crypto/crypto.ts&#45;&gt;src/crypto/crypto&#45;driver&#45;chloride.ts -->
<g id="edge5" class="edge">
<title>src/crypto/crypto.ts&#45;&gt;src/crypto/crypto&#45;driver&#45;chloride.ts</title>
<path fill="none" stroke="#528b8b" stroke-width="2" d="M505.35,-506.28C528.9,-512.84 561.42,-521.89 591.05,-530.14"/>
<polygon fill="#528b8b" stroke="#528b8b" stroke-width="2" points="590.39,-533.59 600.96,-532.9 592.27,-526.84 590.39,-533.59"/>
</g>
<!-- src/crypto/crypto.ts&#45;&gt;src/crypto/crypto&#45;driver&#45;node.ts -->
<g id="edge6" class="edge">
<title>src/crypto/crypto.ts&#45;&gt;src/crypto/crypto&#45;driver&#45;node.ts</title>
<path fill="none" stroke="#528b8b" stroke-width="2" d="M505.35,-497C527.73,-497 558.22,-497 586.61,-497"/>
<polygon fill="#528b8b" stroke="#528b8b" stroke-width="2" points="586.96,-500.5 596.96,-497 586.96,-493.5 586.96,-500.5"/>
</g>
<!-- src/crypto/crypto.ts&#45;&gt;src/crypto/crypto&#45;types.ts -->
<g id="edge7" class="edge">
<title>src/crypto/crypto.ts&#45;&gt;src/crypto/crypto&#45;types.ts</title>
<path fill="none" stroke="#528b8b" stroke-width="2" d="M505.15,-487.19C528.16,-480.9 559.66,-473.31 588,-470 650.12,-462.74 721.71,-463.49 771.39,-465.44"/>
<polygon fill="#528b8b" stroke="#528b8b" stroke-width="2" points="771.51,-468.95 781.65,-465.88 771.81,-461.96 771.51,-468.95"/>
</g>
<!-- src/crypto/keypair.ts -->
<g id="node10" class="node">
<title>src/crypto/keypair.ts</title>
<path fill="#79cdcd" stroke="#79cdcd" d="M692,-441C692,-441 642,-441 642,-441 636,-441 630,-435 630,-429 630,-429 630,-417 630,-417 630,-411 636,-405 642,-405 642,-405 692,-405 692,-405 698,-405 704,-411 704,-417 704,-417 704,-429 704,-429 704,-435 698,-441 692,-441"/>
<text text-anchor="middle" x="667" y="-419.3" font-family="Helvetica,sans-Serif" font-size="14.00">keypair.ts</text>
</g>
<!-- src/crypto/crypto.ts&#45;&gt;src/crypto/keypair.ts -->
<g id="edge9" class="edge">
<title>src/crypto/crypto.ts&#45;&gt;src/crypto/keypair.ts</title>
<path fill="none" stroke="#528b8b" stroke-width="2" d="M505.35,-484.28C537.04,-472.19 584.95,-453.92 620.21,-440.47"/>
<polygon fill="#528b8b" stroke="#528b8b" stroke-width="2" points="621.7,-443.64 629.79,-436.81 619.2,-437.1 621.7,-443.64"/>
</g>
<!-- browser&#45;or&#45;node -->
<g id="node25" class="node">
<title>browser&#45;or&#45;node</title>
<polygon fill="#cdc8b1" stroke="#8b8878" points="725,-644 613,-644 609,-640 609,-608 721,-608 725,-612 725,-644"/>
<polyline fill="none" stroke="#8b8878" points="721,-640 609,-640 "/>
<polyline fill="none" stroke="#8b8878" points="721,-640 721,-608 "/>
<polyline fill="none" stroke="#8b8878" points="721,-640 725,-644 "/>
<text text-anchor="middle" x="667" y="-622.3" font-family="Helvetica,sans-Serif" font-size="14.00">browser&#45;or&#45;node</text>
</g>
<!-- src/crypto/crypto.ts&#45;&gt;browser&#45;or&#45;node -->
<g id="edge44" class="edge">
<title>src/crypto/crypto.ts&#45;&gt;browser&#45;or&#45;node</title>
<path fill="none" stroke="#8b8878" stroke-width="1.5" stroke-dasharray="5,2" d="M486.92,-515.33C507.31,-539.19 546.15,-580.59 588,-604 591.66,-606.05 595.53,-607.92 599.5,-609.62"/>
<polygon fill="#8b8878" stroke="#8b8878" stroke-width="1.5" points="598.33,-612.92 608.92,-613.31 600.88,-606.4 598.33,-612.92"/>
</g>
<!-- src/crypto/keypair.ts&#45;&gt;src/core&#45;validators/addresses.ts -->
<g id="edge13" class="edge">
<title>src/crypto/keypair.ts&#45;&gt;src/core&#45;validators/addresses.ts</title>
<path fill="none" stroke="#528b8b" stroke-width="2" d="M704.19,-436.47C719.5,-444 736.06,-454.97 746,-470 804.7,-558.72 717.52,-620.54 779.5,-707 779.95,-707.63 780.43,-708.25 780.92,-708.86"/>
<polygon fill="#528b8b" stroke="#528b8b" stroke-width="2" points="778.6,-711.49 788.19,-716 783.5,-706.49 778.6,-711.49"/>
</g>
<!-- src/crypto/keypair.ts&#45;&gt;src/crypto/base32.ts -->
<g id="edge11" class="edge">
<title>src/crypto/keypair.ts&#45;&gt;src/crypto/base32.ts</title>
<path fill="none" stroke="#528b8b" stroke-width="2" d="M704.21,-421.02C728.33,-419.71 760.25,-417.97 786.28,-416.55"/>
<polygon fill="#528b8b" stroke="#528b8b" stroke-width="2" points="786.51,-420.04 796.3,-416 786.13,-413.05 786.51,-420.04"/>
</g>
<!-- src/crypto/keypair.ts&#45;&gt;src/crypto/crypto&#45;types.ts -->
<g id="edge12" class="edge">
<title>src/crypto/keypair.ts&#45;&gt;src/crypto/crypto&#45;types.ts</title>
<path fill="none" stroke="#528b8b" stroke-width="2" d="M704.21,-433.09C724.04,-438.62 749.15,-445.62 771.92,-451.97"/>
<polygon fill="#528b8b" stroke="#528b8b" stroke-width="2" points="771.28,-455.43 781.85,-454.74 773.16,-448.68 771.28,-455.43"/>
</g>
<!-- src/format&#45;validators/format&#45;validator&#45;es4.ts&#45;&gt;src/core&#45;validators/characters.ts -->
<g id="edge19" class="edge">
<title>src/format&#45;validators/format&#45;validator&#45;es4.ts&#45;&gt;src/core&#45;validators/characters.ts</title>
<path fill="none" stroke="#528b8b" stroke-width="2" d="M280.76,-652.02C308.32,-668.12 350.85,-691.5 390,-707 557.02,-773.14 601.5,-790.78 779.5,-815 829.92,-821.86 843.89,-823.86 894,-815 901.49,-813.68 909.22,-811.65 916.73,-809.3"/>
<polygon fill="#528b8b" stroke="#528b8b" stroke-width="2" points="918.07,-812.54 926.44,-806.04 915.85,-805.9 918.07,-812.54"/>
</g>
<!-- src/format&#45;validators/format&#45;validator&#45;es4.ts&#45;&gt;src/core&#45;validators/checkers.ts -->
<g id="edge20" class="edge">
<title>src/format&#45;validators/format&#45;validator&#45;es4.ts&#45;&gt;src/core&#45;validators/checkers.ts</title>
<path fill="none" stroke="#528b8b" stroke-width="2" d="M319.19,-652.04C437.1,-683.24 676.54,-746.6 781.61,-774.4"/>
<polygon fill="#528b8b" stroke="#528b8b" stroke-width="2" points="780.79,-777.81 791.35,-776.98 782.58,-771.04 780.79,-777.81"/>
</g>
<!-- src/format&#45;validators/format&#45;validator&#45;es4.ts&#45;&gt;src/crypto/crypto.ts -->
<g id="edge21" class="edge">
<title>src/format&#45;validators/format&#45;validator&#45;es4.ts&#45;&gt;src/crypto/crypto.ts</title>
<path fill="none" stroke="#528b8b" stroke-width="2" d="M280.08,-615.81C319.38,-591.23 389.47,-547.38 432.63,-520.38"/>
<polygon fill="#528b8b" stroke="#528b8b" stroke-width="2" points="434.53,-523.32 441.15,-515.05 430.81,-517.39 434.53,-523.32"/>
</g>
<!-- src/format&#45;validators/format&#45;validator&#45;types.ts -->
<g id="node12" class="node">
<title>src/format&#45;validators/format&#45;validator&#45;types.ts</title>
<path fill="#79cdcd" stroke="#79cdcd" d="M540,-652C540,-652 402,-652 402,-652 396,-652 390,-646 390,-640 390,-640 390,-628 390,-628 390,-622 396,-616 402,-616 402,-616 540,-616 540,-616 546,-616 552,-622 552,-628 552,-628 552,-640 552,-640 552,-646 546,-652 540,-652"/>
<text text-anchor="middle" x="471" y="-630.3" font-family="Helvetica,sans-Serif" font-size="14.00">format&#45;validator&#45;types.ts</text>
</g>
<!-- src/format&#45;validators/format&#45;validator&#45;es4.ts&#45;&gt;src/format&#45;validators/format&#45;validator&#45;types.ts -->
<g id="edge18" class="edge">
<title>src/format&#45;validators/format&#45;validator&#45;es4.ts&#45;&gt;src/format&#45;validators/format&#45;validator&#45;types.ts</title>
<path fill="none" stroke="#528b8b" stroke-width="2" d="M326.06,-634C343.24,-634 361.68,-634 379.44,-634"/>
<polygon fill="#528b8b" stroke="#528b8b" stroke-width="2" points="379.8,-637.5 389.8,-634 379.8,-630.5 379.8,-637.5"/>
</g>
<!-- src/storage/compare.ts -->
<g id="node13" class="node">
<title>src/storage/compare.ts</title>
<path fill="#79cdcd" stroke="#79cdcd" d="M501,-318C501,-318 441,-318 441,-318 435,-318 429,-312 429,-306 429,-306 429,-294 429,-294 429,-288 435,-282 441,-282 441,-282 501,-282 501,-282 507,-282 513,-288 513,-294 513,-294 513,-306 513,-306 513,-312 507,-318 501,-318"/>
<text text-anchor="middle" x="471" y="-296.3" font-family="Helvetica,sans-Serif" font-size="14.00">compare.ts</text>
</g>
<!-- src/storage/util&#45;types.ts -->
<g id="node21" class="node">
<title>src/storage/util&#45;types.ts</title>
<path fill="#79cdcd" stroke="#79cdcd" d="M697.5,-289C697.5,-289 636.5,-289 636.5,-289 630.5,-289 624.5,-283 624.5,-277 624.5,-277 624.5,-265 624.5,-265 624.5,-259 630.5,-253 636.5,-253 636.5,-253 697.5,-253 697.5,-253 703.5,-253 709.5,-259 709.5,-265 709.5,-265 709.5,-277 709.5,-277 709.5,-283 703.5,-289 697.5,-289"/>
<text text-anchor="middle" x="667" y="-267.3" font-family="Helvetica,sans-Serif" font-size="14.00">util&#45;types.ts</text>
</g>
<!-- src/storage/compare.ts&#45;&gt;src/storage/util&#45;types.ts -->
<g id="edge22" class="edge">
<title>src/storage/compare.ts&#45;&gt;src/storage/util&#45;types.ts</title>
<path fill="none" stroke="#528b8b" stroke-width="2" d="M513.14,-293.85C542.65,-289.44 582.62,-283.46 614.28,-278.73"/>
<polygon fill="#528b8b" stroke="#528b8b" stroke-width="2" points="614.88,-282.18 624.25,-277.24 613.84,-275.26 614.88,-282.18"/>
</g>
<!-- src/storage/query&#45;types.ts -->
<g id="node16" class="node">
<title>src/storage/query&#45;types.ts</title>
<path fill="#79cdcd" stroke="#79cdcd" d="M705.5,-184C705.5,-184 628.5,-184 628.5,-184 622.5,-184 616.5,-178 616.5,-172 616.5,-172 616.5,-160 616.5,-160 616.5,-154 622.5,-148 628.5,-148 628.5,-148 705.5,-148 705.5,-148 711.5,-148 717.5,-154 717.5,-160 717.5,-160 717.5,-172 717.5,-172 717.5,-178 711.5,-184 705.5,-184"/>
<text text-anchor="middle" x="667" y="-162.3" font-family="Helvetica,sans-Serif" font-size="14.00">query&#45;types.ts</text>
</g>
<!-- src/storage/follower.ts&#45;&gt;src/storage/query&#45;types.ts -->
<g id="edge24" class="edge">
<title>src/storage/follower.ts&#45;&gt;src/storage/query&#45;types.ts</title>
<path fill="none" stroke="#528b8b" stroke-width="2" d="M288.89,-96.79C349.48,-74.98 470.45,-41.96 560,-85 577.95,-93.63 572.95,-106.95 588,-120 597.75,-128.45 609.26,-136.21 620.4,-142.86"/>
<polygon fill="#528b8b" stroke="#528b8b" stroke-width="2" points="618.81,-145.98 629.22,-147.94 622.31,-139.91 618.81,-145.98"/>
</g>
<!-- src/storage/storage&#45;types.ts -->
<g id="node20" class="node">
<title>src/storage/storage&#45;types.ts</title>
<path fill="#79cdcd" stroke="#79cdcd" d="M515.5,-130C515.5,-130 426.5,-130 426.5,-130 420.5,-130 414.5,-124 414.5,-118 414.5,-118 414.5,-106 414.5,-106 414.5,-100 420.5,-94 426.5,-94 426.5,-94 515.5,-94 515.5,-94 521.5,-94 527.5,-100 527.5,-106 527.5,-106 527.5,-118 527.5,-118 527.5,-124 521.5,-130 515.5,-130"/>
<text text-anchor="middle" x="471" y="-108.3" font-family="Helvetica,sans-Serif" font-size="14.00">storage&#45;types.ts</text>
</g>
<!-- src/storage/follower.ts&#45;&gt;src/storage/storage&#45;types.ts -->
<g id="edge25" class="edge">
<title>src/storage/follower.ts&#45;&gt;src/storage/storage&#45;types.ts</title>
<path fill="none" stroke="#528b8b" stroke-width="2" d="M288.65,-112C320.28,-112 366.24,-112 403.98,-112"/>
<polygon fill="#528b8b" stroke="#528b8b" stroke-width="2" points="404.39,-115.5 414.39,-112 404.39,-108.5 404.39,-115.5"/>
</g>
<!-- src/storage/follower.ts&#45;&gt;src/storage/util&#45;types.ts -->
<g id="edge23" class="edge">
<title>src/storage/follower.ts&#45;&gt;src/storage/util&#45;types.ts</title>
<path fill="none" stroke="#528b8b" stroke-width="2" d="M288.54,-115.27C309.39,-118.62 334.89,-125.37 354,-139 377.48,-155.75 365.19,-178.28 390,-193 422.62,-212.35 523.91,-196.35 560,-208 586.92,-216.69 614.29,-233.19 634.47,-247.12"/>
<polygon fill="#528b8b" stroke="#528b8b" stroke-width="2" points="632.47,-250 642.66,-252.91 636.51,-244.28 632.47,-250"/>
</g>
<!-- src/storage/follower.ts&#45;&gt;chalk -->
<g id="edge46" class="edge">
<title>src/storage/follower.ts&#45;&gt;chalk</title>
<path fill="none" stroke="#8b8878" stroke-width="1.5" stroke-dasharray="5,2" d="M282.84,-93.95C310.55,-78.74 352.1,-57.09 390,-42 404.09,-36.39 420.03,-31.35 433.94,-27.36"/>
<polygon fill="#8b8878" stroke="#8b8878" stroke-width="1.5" points="434.97,-30.71 443.66,-24.65 433.09,-23.97 434.97,-30.71"/>
</g>
<!-- src/storage/lock.ts -->
<g id="node15" class="node">
<title>src/storage/lock.ts</title>
<path fill="#79cdcd" stroke="#79cdcd" d="M682.5,-111C682.5,-111 651.5,-111 651.5,-111 645.5,-111 639.5,-105 639.5,-99 639.5,-99 639.5,-87 639.5,-87 639.5,-81 645.5,-75 651.5,-75 651.5,-75 682.5,-75 682.5,-75 688.5,-75 694.5,-81 694.5,-87 694.5,-87 694.5,-99 694.5,-99 694.5,-105 688.5,-111 682.5,-111"/>
<text text-anchor="middle" x="667" y="-89.3" font-family="Helvetica,sans-Serif" font-size="14.00">lock.ts</text>
</g>
<!-- src/storage/query.ts -->
<g id="node17" class="node">
<title>src/storage/query.ts</title>
<path fill="#79cdcd" stroke="#79cdcd" d="M491,-184C491,-184 451,-184 451,-184 445,-184 439,-178 439,-172 439,-172 439,-160 439,-160 439,-154 445,-148 451,-148 451,-148 491,-148 491,-148 497,-148 503,-154 503,-160 503,-160 503,-172 503,-172 503,-178 497,-184 491,-184"/>
<text text-anchor="middle" x="471" y="-162.3" font-family="Helvetica,sans-Serif" font-size="14.00">query.ts</text>
</g>
<!-- src/storage/query.ts&#45;&gt;src/storage/query&#45;types.ts -->
<g id="edge26" class="edge">
<title>src/storage/query.ts&#45;&gt;src/storage/query&#45;types.ts</title>
<path fill="none" stroke="#528b8b" stroke-width="2" d="M503.17,-166C530.83,-166 572.02,-166 606.05,-166"/>
<polygon fill="#528b8b" stroke="#528b8b" stroke-width="2" points="606.36,-169.5 616.36,-166 606.36,-162.5 606.36,-169.5"/>
</g>
<!-- src/storage/storage&#45;async.ts&#45;&gt;src/crypto/crypto.ts -->
<g id="edge32" class="edge">
<title>src/storage/storage&#45;async.ts&#45;&gt;src/crypto/crypto.ts</title>
<path fill="none" stroke="#528b8b" stroke-width="2" d="M269.3,-299.04C308.26,-337.48 399.55,-427.51 444.32,-471.67"/>
<polygon fill="#528b8b" stroke="#528b8b" stroke-width="2" points="442.03,-474.32 451.6,-478.85 446.94,-469.34 442.03,-474.32"/>
</g>
<!-- src/storage/storage&#45;async.ts&#45;&gt;src/format&#45;validators/format&#45;validator&#45;types.ts -->
<g id="edge30" class="edge">
<title>src/storage/storage&#45;async.ts&#45;&gt;src/format&#45;validators/format&#45;validator&#45;types.ts</title>
<path fill="none" stroke="#528b8b" stroke-width="2" d="M253.73,-299.19C262.8,-353.32 296.77,-515.11 390,-604 392.42,-606.3 395.02,-608.43 397.77,-610.4"/>
<polygon fill="#528b8b" stroke="#528b8b" stroke-width="2" points="396.07,-613.46 406.39,-615.84 399.8,-607.55 396.07,-613.46"/>
</g>
<!-- src/storage/storage&#45;async.ts&#45;&gt;src/storage/compare.ts -->
<g id="edge31" class="edge">
<title>src/storage/storage&#45;async.ts&#45;&gt;src/storage/compare.ts</title>
<path fill="none" stroke="#528b8b" stroke-width="2" d="M308.25,-285.97C342.45,-288.93 385.52,-292.67 418.61,-295.54"/>
<polygon fill="#528b8b" stroke="#528b8b" stroke-width="2" points="418.72,-299.06 428.99,-296.44 419.33,-292.09 418.72,-299.06"/>
</g>
<!-- src/storage/storage&#45;async.ts&#45;&gt;src/storage/query&#45;types.ts -->
<g id="edge28" class="edge">
<title>src/storage/storage&#45;async.ts&#45;&gt;src/storage/query&#45;types.ts</title>
<path fill="none" stroke="#528b8b" stroke-width="2" d="M308.26,-267.37C370.52,-252.27 472.81,-226.65 560,-201 575.18,-196.54 591.45,-191.36 606.58,-186.38"/>
<polygon fill="#528b8b" stroke="#528b8b" stroke-width="2" points="607.94,-189.62 616.33,-183.15 605.74,-182.97 607.94,-189.62"/>
</g>
<!-- src/storage/storage&#45;async.ts&#45;&gt;src/storage/storage&#45;types.ts -->
<g id="edge29" class="edge">
<title>src/storage/storage&#45;async.ts&#45;&gt;src/storage/storage&#45;types.ts</title>
<path fill="none" stroke="#528b8b" stroke-width="2" d="M276,-262.8C297.99,-246.09 330.11,-219.91 354,-193 373.15,-171.43 367.11,-156.55 390,-139 394.62,-135.46 399.73,-132.36 405.07,-129.67"/>
<polygon fill="#528b8b" stroke="#528b8b" stroke-width="2" points="406.58,-132.82 414.23,-125.49 403.68,-126.45 406.58,-132.82"/>
</g>
<!-- src/storage/storage&#45;async.ts&#45;&gt;src/storage/util&#45;types.ts -->
<g id="edge27" class="edge">
<title>src/storage/storage&#45;async.ts&#45;&gt;src/storage/util&#45;types.ts</title>
<path fill="none" stroke="#528b8b" stroke-width="2" d="M293.62,-299.05C320.68,-309.51 356.75,-321.64 390,-327 464.59,-339.02 486.66,-345.18 560,-327 585.58,-320.66 611.78,-306.89 631.74,-294.6"/>
<polygon fill="#528b8b" stroke="#528b8b" stroke-width="2" points="633.87,-297.39 640.44,-289.08 630.12,-291.48 633.87,-297.39"/>
</g>
<!-- src/storage/storage&#45;async.ts&#45;&gt;chalk -->
<g id="edge47" class="edge">
<title>src/storage/storage&#45;async.ts&#45;&gt;chalk</title>
<path fill="none" stroke="#8b8878" stroke-width="1.5" stroke-dasharray="5,2" d="M281.31,-262.77C304.68,-247.13 335.96,-222.49 354,-193 390,-134.14 342.64,-92.16 390,-42 401.24,-30.09 418.14,-24.02 433.51,-20.95"/>
<polygon fill="#8b8878" stroke="#8b8878" stroke-width="1.5" points="434.51,-24.34 443.81,-19.27 433.38,-17.43 434.51,-24.34"/>
</g>
<!-- src/storage/storage&#45;driver&#45;async&#45;memory.ts&#45;&gt;src/storage/compare.ts -->
<g id="edge36" class="edge">
<title>src/storage/storage&#45;driver&#45;async&#45;memory.ts&#45;&gt;src/storage/compare.ts</title>
<path fill="none" stroke="#528b8b" stroke-width="2" d="M280.54,-184.07C319.56,-207.95 388.37,-250.05 431.45,-276.41"/>
<polygon fill="#528b8b" stroke="#528b8b" stroke-width="2" points="429.88,-279.55 440.23,-281.79 433.53,-273.58 429.88,-279.55"/>
</g>
<!-- src/storage/storage&#45;driver&#45;async&#45;memory.ts&#45;&gt;src/storage/lock.ts -->
<g id="edge38" class="edge">
<title>src/storage/storage&#45;driver&#45;async&#45;memory.ts&#45;&gt;src/storage/lock.ts</title>
<path fill="none" stroke="#528b8b" stroke-width="2" d="M338.77,-147.93C344.13,-145.34 349.26,-142.38 354,-139 377.48,-122.25 364.57,-98.61 390,-85 466.99,-43.8 574.16,-65.28 629.58,-81.1"/>
<polygon fill="#528b8b" stroke="#528b8b" stroke-width="2" points="628.72,-84.5 639.3,-83.98 630.7,-77.79 628.72,-84.5"/>
</g>
<!-- src/storage/storage&#45;driver&#45;async&#45;memory.ts&#45;&gt;src/storage/query&#45;types.ts -->
<g id="edge34" class="edge">
<title>src/storage/storage&#45;driver&#45;async&#45;memory.ts&#45;&gt;src/storage/query&#45;types.ts</title>
<path fill="none" stroke="#528b8b" stroke-width="2" d="M330,-184.07C349.51,-187.77 370.42,-191.12 390,-193 465.21,-200.24 485.03,-202.4 560,-193 575.3,-191.08 591.56,-187.66 606.63,-183.89"/>
<polygon fill="#528b8b" stroke="#528b8b" stroke-width="2" points="607.54,-187.27 616.35,-181.37 605.79,-180.49 607.54,-187.27"/>
</g>
<!-- src/storage/storage&#45;driver&#45;async&#45;memory.ts&#45;&gt;src/storage/query.ts -->
<g id="edge37" class="edge">
<title>src/storage/storage&#45;driver&#45;async&#45;memory.ts&#45;&gt;src/storage/query.ts</title>
<path fill="none" stroke="#528b8b" stroke-width="2" d="M354.09,-166C380.47,-166 407.35,-166 428.58,-166"/>
<polygon fill="#528b8b" stroke="#528b8b" stroke-width="2" points="428.82,-169.5 438.82,-166 428.82,-162.5 428.82,-169.5"/>
</g>
<!-- src/storage/storage&#45;driver&#45;async&#45;memory.ts&#45;&gt;src/storage/storage&#45;types.ts -->
<g id="edge35" class="edge">
<title>src/storage/storage&#45;driver&#45;async&#45;memory.ts&#45;&gt;src/storage/storage&#45;types.ts</title>
<path fill="none" stroke="#528b8b" stroke-width="2" d="M324.23,-147.94C350.13,-141.56 379.1,-134.41 404.33,-128.19"/>
<polygon fill="#528b8b" stroke="#528b8b" stroke-width="2" points="405.3,-131.56 414.17,-125.77 403.63,-124.76 405.3,-131.56"/>
</g>
<!-- src/storage/storage&#45;driver&#45;async&#45;memory.ts&#45;&gt;src/storage/util&#45;types.ts -->
<g id="edge33" class="edge">
<title>src/storage/storage&#45;driver&#45;async&#45;memory.ts&#45;&gt;src/storage/util&#45;types.ts</title>
<path fill="none" stroke="#528b8b" stroke-width="2" d="M322.34,-184.05C405.45,-205.08 540.74,-239.31 614.34,-257.93"/>
<polygon fill="#528b8b" stroke="#528b8b" stroke-width="2" points="613.75,-261.39 624.3,-260.45 615.47,-254.6 613.75,-261.39"/>
</g>
<!-- src/storage/storage&#45;driver&#45;async&#45;memory.ts&#45;&gt;chalk -->
<g id="edge48" class="edge">
<title>src/storage/storage&#45;driver&#45;async&#45;memory.ts&#45;&gt;chalk</title>
<path fill="none" stroke="#8b8878" stroke-width="1.5" stroke-dasharray="5,2" d="M341.92,-147.88C346.24,-145.29 350.3,-142.35 354,-139 388.09,-108.13 356.46,-73.46 390,-42 401.86,-30.88 418.68,-24.89 433.83,-21.68"/>
<polygon fill="#8b8878" stroke="#8b8878" stroke-width="1.5" points="434.75,-25.07 443.98,-19.87 433.52,-18.18 434.75,-25.07"/>
</g>
<!-- src/storage/storage&#45;types.ts&#45;&gt;src/storage/lock.ts -->
<g id="edge40" class="edge">
<title>src/storage/storage&#45;types.ts&#45;&gt;src/storage/lock.ts</title>
<path fill="none" stroke="#528b8b" stroke-width="2" d="M527.59,-106.56C560.3,-103.35 600.74,-99.39 629.44,-96.58"/>
<polygon fill="#528b8b" stroke="#528b8b" stroke-width="2" points="629.84,-100.06 639.45,-95.6 629.16,-93.09 629.84,-100.06"/>
</g>
<!-- src/storage/storage&#45;types.ts&#45;&gt;src/storage/query&#45;types.ts -->
<g id="edge39" class="edge">
<title>src/storage/storage&#45;types.ts&#45;&gt;src/storage/query&#45;types.ts</title>
<path fill="none" stroke="#528b8b" stroke-width="2" d="M527.59,-127.47C552.3,-134.35 581.43,-142.46 606.57,-149.46"/>
<polygon fill="#528b8b" stroke="#528b8b" stroke-width="2" points="605.78,-152.87 616.35,-152.18 607.66,-146.13 605.78,-152.87"/>
</g>
</g>
</svg>
