<?xml version="1.0" encoding="UTF-8" standalone="no"?>
<!DOCTYPE svg PUBLIC "-//W3C//DTD SVG 1.1//EN"
 "http://www.w3.org/Graphics/SVG/1.1/DTD/svg11.dtd">
<!-- Generated by graphviz version 2.44.1 (20200629.0846)
 -->
<!-- Title: G Pages: 1 -->
<svg width="556pt" height="292pt"
 viewBox="0.00 0.00 556.00 292.00" xmlns="http://www.w3.org/2000/svg" xmlns:xlink="http://www.w3.org/1999/xlink">
<g id="graph0" class="graph" transform="scale(1 1) rotate(0) translate(4 288)">
<title>G</title>
<polygon fill="white" stroke="transparent" points="-4,4 -4,-288 552,-288 552,4 -4,4"/>
<g id="clust1" class="cluster">
<title>cluster9665341910</title>
<path fill="none" stroke="#8b7d6b" stroke-width="2" d="M20,-8C20,-8 528,-8 528,-8 534,-8 540,-14 540,-20 540,-20 540,-264 540,-264 540,-270 534,-276 528,-276 528,-276 20,-276 20,-276 14,-276 8,-270 8,-264 8,-264 8,-20 8,-20 8,-14 14,-8 20,-8"/>
<text text-anchor="start" x="263.5" y="-261.8" font-family="Helvetica,sans-Serif" font-weight="bold" font-size="14.00">src</text>
</g>
<g id="clust2" class="cluster">
<title>cluster7709359912</title>
<path fill="bisque" stroke="#8b7d6b" stroke-width="2" d="M117,-62C117,-62 307,-62 307,-62 313,-62 319,-68 319,-74 319,-74 319,-179 319,-179 319,-185 313,-191 307,-191 307,-191 117,-191 117,-191 111,-191 105,-185 105,-179 105,-179 105,-74 105,-74 105,-68 111,-62 117,-62"/>
<text text-anchor="start" x="187.5" y="-176.8" font-family="Helvetica,sans-Serif" font-weight="bold" font-size="14.00">storage</text>
</g>
<g id="clust3" class="cluster">
<title>cluster2944378225</title>
<path fill="bisque" stroke="#8b7d6b" stroke-width="2" d="M351,-116C351,-116 520,-116 520,-116 526,-116 532,-122 532,-128 532,-128 532,-233 532,-233 532,-239 526,-245 520,-245 520,-245 351,-245 351,-245 345,-245 339,-239 339,-233 339,-233 339,-128 339,-128 339,-122 345,-116 351,-116"/>
<text text-anchor="start" x="425" y="-230.8" font-family="Helvetica,sans-Serif" font-weight="bold" font-size="14.00">util</text>
</g>
<!-- src/doc.ts -->
<g id="node1" class="node">
<title>src/doc.ts</title>
<path fill="#79cdcd" stroke="#79cdcd" d="M399.5,-52C399.5,-52 369.5,-52 369.5,-52 363.5,-52 357.5,-46 357.5,-40 357.5,-40 357.5,-28 357.5,-28 357.5,-22 363.5,-16 369.5,-16 369.5,-16 399.5,-16 399.5,-16 405.5,-16 411.5,-22 411.5,-28 411.5,-28 411.5,-40 411.5,-40 411.5,-46 405.5,-52 399.5,-52"/>
<text text-anchor="middle" x="384.5" y="-30.3" font-family="Helvetica,sans-Serif" font-size="14.00">doc.ts</text>
</g>
<!-- src/follower.ts -->
<g id="node2" class="node">
<title>src/follower.ts</title>
<path fill="#79cdcd" stroke="#79cdcd" d="M238.5,-52C238.5,-52 185.5,-52 185.5,-52 179.5,-52 173.5,-46 173.5,-40 173.5,-40 173.5,-28 173.5,-28 173.5,-22 179.5,-16 185.5,-16 185.5,-16 238.5,-16 238.5,-16 244.5,-16 250.5,-22 250.5,-28 250.5,-28 250.5,-40 250.5,-40 250.5,-46 244.5,-52 238.5,-52"/>
<text text-anchor="middle" x="212" y="-30.3" font-family="Helvetica,sans-Serif" font-size="14.00">follower.ts</text>
</g>
<!-- src/main.ts -->
<g id="node3" class="node">
<title>src/main.ts</title>
<path fill="#79cdcd" stroke="#79cdcd" d="M65,-106C65,-106 28,-106 28,-106 22,-106 16,-100 16,-94 16,-94 16,-82 16,-82 16,-76 22,-70 28,-70 28,-70 65,-70 65,-70 71,-70 77,-76 77,-82 77,-82 77,-94 77,-94 77,-100 71,-106 65,-106"/>
<text text-anchor="middle" x="46.5" y="-84.3" font-family="Helvetica,sans-Serif" font-size="14.00">main.ts</text>
</g>
<!-- src/main.ts&#45;&gt;src/follower.ts -->
<g id="edge1" class="edge">
<title>src/main.ts&#45;&gt;src/follower.ts</title>
<path fill="none" stroke="#528b8b" stroke-width="2" d="M77.27,-70.61C86,-66.03 95.7,-61.41 105,-58 123.53,-51.2 144.62,-45.95 163.08,-42.12"/>
<polygon fill="#528b8b" stroke="#528b8b" stroke-width="2" points="163.91,-45.52 173.04,-40.13 162.54,-38.65 163.91,-45.52"/>
</g>
<!-- src/storage/storageAsync.ts -->
<g id="node5" class="node">
<title>src/storage/storageAsync.ts</title>
<path fill="#79cdcd" stroke="#79cdcd" d="M256.5,-106C256.5,-106 167.5,-106 167.5,-106 161.5,-106 155.5,-100 155.5,-94 155.5,-94 155.5,-82 155.5,-82 155.5,-76 161.5,-70 167.5,-70 167.5,-70 256.5,-70 256.5,-70 262.5,-70 268.5,-76 268.5,-82 268.5,-82 268.5,-94 268.5,-94 268.5,-100 262.5,-106 256.5,-106"/>
<text text-anchor="middle" x="212" y="-84.3" font-family="Helvetica,sans-Serif" font-size="14.00">storageAsync.ts</text>
</g>
<!-- src/main.ts&#45;&gt;src/storage/storageAsync.ts -->
<g id="edge3" class="edge">
<title>src/main.ts&#45;&gt;src/storage/storageAsync.ts</title>
<path fill="none" stroke="#528b8b" stroke-width="2" d="M77.11,-88C96.19,-88 121.78,-88 145.48,-88"/>
<polygon fill="#528b8b" stroke="#528b8b" stroke-width="2" points="145.49,-91.5 155.49,-88 145.49,-84.5 145.49,-91.5"/>
</g>
<!-- src/storage/storageDriverAsyncMemory.ts -->
<g id="node6" class="node">
<title>src/storage/storageDriverAsyncMemory.ts</title>
<path fill="#79cdcd" stroke="#79cdcd" d="M299,-160C299,-160 125,-160 125,-160 119,-160 113,-154 113,-148 113,-148 113,-136 113,-136 113,-130 119,-124 125,-124 125,-124 299,-124 299,-124 305,-124 311,-130 311,-136 311,-136 311,-148 311,-148 311,-154 305,-160 299,-160"/>
<text text-anchor="middle" x="212" y="-138.3" font-family="Helvetica,sans-Serif" font-size="14.00">storageDriverAsyncMemory.ts</text>
</g>
<!-- src/main.ts&#45;&gt;src/storage/storageDriverAsyncMemory.ts -->
<g id="edge2" class="edge">
<title>src/main.ts&#45;&gt;src/storage/storageDriverAsyncMemory.ts</title>
<path fill="none" stroke="#528b8b" stroke-width="2" d="M77.19,-103.25C86,-107.42 95.76,-111.69 105,-115 110.92,-117.12 117.09,-119.15 123.34,-121.07"/>
<polygon fill="#528b8b" stroke="#528b8b" stroke-width="2" points="122.62,-124.51 133.2,-123.99 124.61,-117.79 122.62,-124.51"/>
</g>
<!-- src/query.ts -->
<g id="node4" class="node">
<title>src/query.ts</title>
<path fill="#79cdcd" stroke="#79cdcd" d="M404.5,-106C404.5,-106 364.5,-106 364.5,-106 358.5,-106 352.5,-100 352.5,-94 352.5,-94 352.5,-82 352.5,-82 352.5,-76 358.5,-70 364.5,-70 364.5,-70 404.5,-70 404.5,-70 410.5,-70 416.5,-76 416.5,-82 416.5,-82 416.5,-94 416.5,-94 416.5,-100 410.5,-106 404.5,-106"/>
<text text-anchor="middle" x="384.5" y="-84.3" font-family="Helvetica,sans-Serif" font-size="14.00">query.ts</text>
</g>
<!-- src/storage/storageAsync.ts&#45;&gt;src/doc.ts -->
<g id="edge4" class="edge">
<title>src/storage/storageAsync.ts&#45;&gt;src/doc.ts</title>
<path fill="none" stroke="#528b8b" stroke-width="2" d="M268.74,-79.21C285.16,-75.88 303.01,-71.52 319,-66 328.84,-62.6 339.1,-58.03 348.46,-53.41"/>
<polygon fill="#528b8b" stroke="#528b8b" stroke-width="2" points="350.17,-56.47 357.49,-48.81 346.99,-50.23 350.17,-56.47"/>
</g>
<!-- src/storage/storageDriverAsyncMemory.ts&#45;&gt;src/doc.ts -->
<g id="edge6" class="edge">
<title>src/storage/storageDriverAsyncMemory.ts&#45;&gt;src/doc.ts</title>
<path fill="none" stroke="#528b8b" stroke-width="2" d="M307.05,-123.78C311.31,-121.21 315.33,-118.3 319,-115 338.02,-97.88 322.71,-80.74 339,-61 341.86,-57.54 345.29,-54.4 348.95,-51.59"/>
<polygon fill="#528b8b" stroke="#528b8b" stroke-width="2" points="350.92,-54.49 357.24,-45.98 347,-48.69 350.92,-54.49"/>
</g>
<!-- src/storage/storageDriverAsyncMemory.ts&#45;&gt;src/query.ts -->
<g id="edge7" class="edge">
<title>src/storage/storageDriverAsyncMemory.ts&#45;&gt;src/query.ts</title>
<path fill="none" stroke="#528b8b" stroke-width="2" d="M289.53,-123.94C299.51,-121.17 309.55,-118.16 319,-115 326.86,-112.37 335.11,-109.22 342.99,-106.02"/>
<polygon fill="#528b8b" stroke="#528b8b" stroke-width="2" points="344.47,-109.2 352.36,-102.12 341.78,-102.73 344.47,-109.2"/>
</g>
<!-- src/util/lock.ts -->
<g id="node9" class="node">
<title>src/util/lock.ts</title>
<path fill="#79cdcd" stroke="#79cdcd" d="M400,-160C400,-160 369,-160 369,-160 363,-160 357,-154 357,-148 357,-148 357,-136 357,-136 357,-130 363,-124 369,-124 369,-124 400,-124 400,-124 406,-124 412,-130 412,-136 412,-136 412,-148 412,-148 412,-154 406,-160 400,-160"/>
<text text-anchor="middle" x="384.5" y="-138.3" font-family="Helvetica,sans-Serif" font-size="14.00">lock.ts</text>
</g>
<!-- src/storage/storageDriverAsyncMemory.ts&#45;&gt;src/util/lock.ts -->
<g id="edge5" class="edge">
<title>src/storage/storageDriverAsyncMemory.ts&#45;&gt;src/util/lock.ts</title>
<path fill="none" stroke="#528b8b" stroke-width="2" d="M311.19,-142C323.74,-142 335.9,-142 346.56,-142"/>
<polygon fill="#528b8b" stroke="#528b8b" stroke-width="2" points="346.68,-145.5 356.68,-142 346.68,-138.5 346.68,-145.5"/>
</g>
<!-- src/util/base32.ts -->
<g id="node7" class="node">
<title>src/util/base32.ts</title>
<path fill="#79cdcd" stroke="#79cdcd" d="M410,-214C410,-214 359,-214 359,-214 353,-214 347,-208 347,-202 347,-202 347,-190 347,-190 347,-184 353,-178 359,-178 359,-178 410,-178 410,-178 416,-178 422,-184 422,-190 422,-190 422,-202 422,-202 422,-208 416,-214 410,-214"/>
<text text-anchor="middle" x="384.5" y="-192.3" font-family="Helvetica,sans-Serif" font-size="14.00">base32.ts</text>
</g>
<!-- src/util/errors.ts -->
<g id="node8" class="node">
<title>src/util/errors.ts</title>
<path fill="#79cdcd" stroke="#79cdcd" d="M512,-214C512,-214 470,-214 470,-214 464,-214 458,-208 458,-202 458,-202 458,-190 458,-190 458,-184 464,-178 470,-178 470,-178 512,-178 512,-178 518,-178 524,-184 524,-190 524,-190 524,-202 524,-202 524,-208 518,-214 512,-214"/>
<text text-anchor="middle" x="491" y="-192.3" font-family="Helvetica,sans-Serif" font-size="14.00">errors.ts</text>
</g>
<!-- src/util/base32.ts&#45;&gt;src/util/errors.ts -->
<g id="edge8" class="edge">
<title>src/util/base32.ts&#45;&gt;src/util/errors.ts</title>
<path fill="none" stroke="#528b8b" stroke-width="2" d="M422.05,-196C430.33,-196 439.2,-196 447.7,-196"/>
<polygon fill="#528b8b" stroke="#528b8b" stroke-width="2" points="447.83,-199.5 457.83,-196 447.83,-192.5 447.83,-199.5"/>
</g>
</g>
</svg>
