<?xml version="1.0" encoding="UTF-8" standalone="no"?>
<!DOCTYPE svg PUBLIC "-//W3C//DTD SVG 1.1//EN"
 "http://www.w3.org/Graphics/SVG/1.1/DTD/svg11.dtd">
<!-- Generated by graphviz version 2.44.1 (20200629.0846)
 -->
<!-- Title: G Pages: 1 -->
<svg width="1060pt" height="1083pt"
 viewBox="0.00 0.00 1060.00 1083.00" xmlns="http://www.w3.org/2000/svg" xmlns:xlink="http://www.w3.org/1999/xlink">
<g id="graph0" class="graph" transform="scale(1 1) rotate(0) translate(4 1079)">
<title>G</title>
<polygon fill="white" stroke="transparent" points="-4,4 -4,-1079 1056,-1079 1056,4 -4,4"/>
<g id="clust3" class="cluster">
<title>cluster7496942113</title>
<path fill="bisque" stroke="#8b7d6b" stroke-width="2" d="M394,-348C394,-348 738.5,-348 738.5,-348 744.5,-348 750.5,-354 750.5,-360 750.5,-360 750.5,-411 750.5,-411 750.5,-417 744.5,-423 738.5,-423 738.5,-423 394,-423 394,-423 388,-423 382,-417 382,-411 382,-411 382,-360 382,-360 382,-354 388,-348 394,-348"/>
<text text-anchor="start" x="510.25" y="-408.8" font-family="Helvetica,sans-Serif" font-weight="bold" font-size="14.00">format&#45;validators</text>
</g>
<g id="clust4" class="cluster">
<title>cluster1777299692</title>
<path fill="bisque" stroke="#8b7d6b" stroke-width="2" d="M150,-8C150,-8 708,-8 708,-8 714,-8 720,-14 720,-20 720,-20 720,-319 720,-319 720,-325 714,-331 708,-331 708,-331 150,-331 150,-331 144,-331 138,-325 138,-319 138,-319 138,-20 138,-20 138,-14 144,-8 150,-8"/>
<text text-anchor="start" x="404.5" y="-316.8" font-family="Helvetica,sans-Serif" font-weight="bold" font-size="14.00">storage</text>
</g>
<g id="clust1" class="cluster">
<title>cluster9858099127</title>
<path fill="bisque" stroke="#8b7d6b" stroke-width="2" d="M801,-440C801,-440 1032,-440 1032,-440 1038,-440 1044,-446 1044,-452 1044,-452 1044,-557 1044,-557 1044,-563 1038,-569 1032,-569 1032,-569 801,-569 801,-569 795,-569 789,-563 789,-557 789,-557 789,-452 789,-452 789,-446 795,-440 801,-440"/>
<text text-anchor="start" x="868" y="-554.8" font-family="Helvetica,sans-Serif" font-weight="bold" font-size="14.00">core&#45;validators</text>
</g>
<g id="clust2" class="cluster">
<title>cluster5951500733</title>
<path fill="bisque" stroke="#8b7d6b" stroke-width="2" d="M436,-592C436,-592 891.5,-592 891.5,-592 897.5,-592 903.5,-598 903.5,-604 903.5,-604 903.5,-857 903.5,-857 903.5,-863 897.5,-869 891.5,-869 891.5,-869 436,-869 436,-869 430,-869 424,-863 424,-857 424,-857 424,-604 424,-604 424,-598 430,-592 436,-592"/>
<text text-anchor="start" x="642.75" y="-854.8" font-family="Helvetica,sans-Serif" font-weight="bold" font-size="14.00">crypto</text>
</g>
<!-- src/example&#45;app.ts -->
<g id="node1" class="node">
<title>src/example&#45;app.ts</title>
<path fill="#79cdcd" stroke="#79cdcd" d="M98,-339C98,-339 12,-339 12,-339 6,-339 0,-333 0,-327 0,-327 0,-315 0,-315 0,-309 6,-303 12,-303 12,-303 98,-303 98,-303 104,-303 110,-309 110,-315 110,-315 110,-327 110,-327 110,-333 104,-339 98,-339"/>
<text text-anchor="middle" x="55" y="-317.3" font-family="Helvetica,sans-Serif" font-size="14.00">example&#45;app.ts</text>
</g>
<!-- src/crypto/crypto&#45;driver&#45;tweetnacl.ts -->
<g id="node8" class="node">
<title>src/crypto/crypto&#45;driver&#45;tweetnacl.ts</title>
<path fill="#79cdcd" stroke="#79cdcd" d="M733,-784C733,-784 590,-784 590,-784 584,-784 578,-778 578,-772 578,-772 578,-760 578,-760 578,-754 584,-748 590,-748 590,-748 733,-748 733,-748 739,-748 745,-754 745,-760 745,-760 745,-772 745,-772 745,-778 739,-784 733,-784"/>
<text text-anchor="middle" x="661.5" y="-762.3" font-family="Helvetica,sans-Serif" font-size="14.00">crypto&#45;driver&#45;tweetnacl.ts</text>
</g>
<!-- src/example&#45;app.ts&#45;&gt;src/crypto/crypto&#45;driver&#45;tweetnacl.ts -->
<g id="edge18" class="edge">
<title>src/example&#45;app.ts&#45;&gt;src/crypto/crypto&#45;driver&#45;tweetnacl.ts</title>
<path fill="none" stroke="#528b8b" stroke-width="2" d="M62.82,-339.25C74.68,-369.24 101.36,-429.71 138,-471 289.98,-642.27 365.51,-653.7 578,-739 582.69,-740.88 587.56,-742.73 592.49,-744.53"/>
<polygon fill="#528b8b" stroke="#528b8b" stroke-width="2" points="591.42,-747.86 602.01,-747.91 593.76,-741.27 591.42,-747.86"/>
</g>
<!-- src/crypto/crypto.ts -->
<g id="node10" class="node">
<title>src/crypto/crypto.ts</title>
<path fill="#79cdcd" stroke="#79cdcd" d="M488,-636C488,-636 444,-636 444,-636 438,-636 432,-630 432,-624 432,-624 432,-612 432,-612 432,-606 438,-600 444,-600 444,-600 488,-600 488,-600 494,-600 500,-606 500,-612 500,-612 500,-624 500,-624 500,-630 494,-636 488,-636"/>
<text text-anchor="middle" x="466" y="-614.3" font-family="Helvetica,sans-Serif" font-size="14.00">crypto.ts</text>
</g>
<!-- src/example&#45;app.ts&#45;&gt;src/crypto/crypto.ts -->
<g id="edge17" class="edge">
<title>src/example&#45;app.ts&#45;&gt;src/crypto/crypto.ts</title>
<path fill="none" stroke="#528b8b" stroke-width="2" d="M80.97,-339.13C151.5,-390.35 352.28,-536.14 431.89,-593.96"/>
<polygon fill="#528b8b" stroke="#528b8b" stroke-width="2" points="429.95,-596.87 440.1,-599.92 434.06,-591.21 429.95,-596.87"/>
</g>
<!-- src/format&#45;validators/format&#45;validator&#45;es4.ts -->
<g id="node12" class="node">
<title>src/format&#45;validators/format&#45;validator&#45;es4.ts</title>
<path fill="#79cdcd" stroke="#79cdcd" d="M530,-392C530,-392 402,-392 402,-392 396,-392 390,-386 390,-380 390,-380 390,-368 390,-368 390,-362 396,-356 402,-356 402,-356 530,-356 530,-356 536,-356 542,-362 542,-368 542,-368 542,-380 542,-380 542,-386 536,-392 530,-392"/>
<text text-anchor="middle" x="466" y="-370.3" font-family="Helvetica,sans-Serif" font-size="14.00">format&#45;validator&#45;es4.ts</text>
</g>
<!-- src/example&#45;app.ts&#45;&gt;src/format&#45;validators/format&#45;validator&#45;es4.ts -->
<g id="edge13" class="edge">
<title>src/example&#45;app.ts&#45;&gt;src/format&#45;validators/format&#45;validator&#45;es4.ts</title>
<path fill="none" stroke="#528b8b" stroke-width="2" d="M110.19,-330.65C119.46,-332.18 129,-333.7 138,-335 219.94,-346.87 313.82,-357.79 379.9,-365.04"/>
<polygon fill="#528b8b" stroke="#528b8b" stroke-width="2" points="379.53,-368.52 389.86,-366.13 380.29,-361.56 379.53,-368.52"/>
</g>
<!-- src/storage/follower.ts -->
<g id="node15" class="node">
<title>src/storage/follower.ts</title>
<path fill="#79cdcd" stroke="#79cdcd" d="M276.5,-233C276.5,-233 223.5,-233 223.5,-233 217.5,-233 211.5,-227 211.5,-221 211.5,-221 211.5,-209 211.5,-209 211.5,-203 217.5,-197 223.5,-197 223.5,-197 276.5,-197 276.5,-197 282.5,-197 288.5,-203 288.5,-209 288.5,-209 288.5,-221 288.5,-221 288.5,-227 282.5,-233 276.5,-233"/>
<text text-anchor="middle" x="250" y="-211.3" font-family="Helvetica,sans-Serif" font-size="14.00">follower.ts</text>
</g>
<!-- src/example&#45;app.ts&#45;&gt;src/storage/follower.ts -->
<g id="edge16" class="edge">
<title>src/example&#45;app.ts&#45;&gt;src/storage/follower.ts</title>
<path fill="none" stroke="#528b8b" stroke-width="2" d="M73.78,-302.96C89.49,-287.86 113.64,-266.66 138,-253 157.77,-241.91 181.33,-233.28 201.65,-227.07"/>
<polygon fill="#528b8b" stroke="#528b8b" stroke-width="2" points="202.73,-230.4 211.33,-224.22 200.75,-223.69 202.73,-230.4"/>
</g>
<!-- src/storage/storage&#45;async.ts -->
<g id="node19" class="node">
<title>src/storage/storage&#45;async.ts</title>
<path fill="#79cdcd" stroke="#79cdcd" d="M296,-298C296,-298 204,-298 204,-298 198,-298 192,-292 192,-286 192,-286 192,-274 192,-274 192,-268 198,-262 204,-262 204,-262 296,-262 296,-262 302,-262 308,-268 308,-274 308,-274 308,-286 308,-286 308,-292 302,-298 296,-298"/>
<text text-anchor="middle" x="250" y="-276.3" font-family="Helvetica,sans-Serif" font-size="14.00">storage&#45;async.ts</text>
</g>
<!-- src/example&#45;app.ts&#45;&gt;src/storage/storage&#45;async.ts -->
<g id="edge15" class="edge">
<title>src/example&#45;app.ts&#45;&gt;src/storage/storage&#45;async.ts</title>
<path fill="none" stroke="#528b8b" stroke-width="2" d="M110.02,-309.52C132.36,-304.78 158.5,-299.22 182.05,-294.22"/>
<polygon fill="#528b8b" stroke="#528b8b" stroke-width="2" points="182.91,-297.62 191.96,-292.12 181.45,-290.77 182.91,-297.62"/>
</g>
<!-- src/storage/storage&#45;driver&#45;async&#45;memory.ts -->
<g id="node20" class="node">
<title>src/storage/storage&#45;driver&#45;async&#45;memory.ts</title>
<path fill="#79cdcd" stroke="#79cdcd" d="M342,-129C342,-129 158,-129 158,-129 152,-129 146,-123 146,-117 146,-117 146,-105 146,-105 146,-99 152,-93 158,-93 158,-93 342,-93 342,-93 348,-93 354,-99 354,-105 354,-105 354,-117 354,-117 354,-123 348,-129 342,-129"/>
<text text-anchor="middle" x="250" y="-107.3" font-family="Helvetica,sans-Serif" font-size="14.00">storage&#45;driver&#45;async&#45;memory.ts</text>
</g>
<!-- src/example&#45;app.ts&#45;&gt;src/storage/storage&#45;driver&#45;async&#45;memory.ts -->
<g id="edge14" class="edge">
<title>src/example&#45;app.ts&#45;&gt;src/storage/storage&#45;driver&#45;async&#45;memory.ts</title>
<path fill="none" stroke="#528b8b" stroke-width="2" d="M64.3,-302.62C77.22,-275.37 104.23,-223.64 138,-188 158.08,-166.81 184.87,-148.02 207.11,-134.31"/>
<polygon fill="#528b8b" stroke="#528b8b" stroke-width="2" points="208.94,-137.29 215.7,-129.12 205.33,-131.3 208.94,-137.29"/>
</g>
<!-- src/core&#45;validators/addresses.ts -->
<g id="node2" class="node">
<title>src/core&#45;validators/addresses.ts</title>
<path fill="#79cdcd" stroke="#79cdcd" d="M878,-538C878,-538 809,-538 809,-538 803,-538 797,-532 797,-526 797,-526 797,-514 797,-514 797,-508 803,-502 809,-502 809,-502 878,-502 878,-502 884,-502 890,-508 890,-514 890,-514 890,-526 890,-526 890,-532 884,-538 878,-538"/>
<text text-anchor="middle" x="843.5" y="-516.3" font-family="Helvetica,sans-Serif" font-size="14.00">addresses.ts</text>
</g>
<!-- src/core&#45;validators/characters.ts -->
<g id="node3" class="node">
<title>src/core&#45;validators/characters.ts</title>
<path fill="#79cdcd" stroke="#79cdcd" d="M1024,-484C1024,-484 954,-484 954,-484 948,-484 942,-478 942,-472 942,-472 942,-460 942,-460 942,-454 948,-448 954,-448 954,-448 1024,-448 1024,-448 1030,-448 1036,-454 1036,-460 1036,-460 1036,-472 1036,-472 1036,-478 1030,-484 1024,-484"/>
<text text-anchor="middle" x="989" y="-462.3" font-family="Helvetica,sans-Serif" font-size="14.00">characters.ts</text>
</g>
<!-- src/core&#45;validators/addresses.ts&#45;&gt;src/core&#45;validators/characters.ts -->
<g id="edge1" class="edge">
<title>src/core&#45;validators/addresses.ts&#45;&gt;src/core&#45;validators/characters.ts</title>
<path fill="none" stroke="#528b8b" stroke-width="2" d="M890.3,-502.77C903.63,-497.75 918.34,-492.21 932.21,-486.99"/>
<polygon fill="#528b8b" stroke="#528b8b" stroke-width="2" points="933.52,-490.24 941.65,-483.44 931.06,-483.69 933.52,-490.24"/>
</g>
<!-- src/core&#45;validators/checkers.ts -->
<g id="node4" class="node">
<title>src/core&#45;validators/checkers.ts</title>
<path fill="#79cdcd" stroke="#79cdcd" d="M874,-484C874,-484 813,-484 813,-484 807,-484 801,-478 801,-472 801,-472 801,-460 801,-460 801,-454 807,-448 813,-448 813,-448 874,-448 874,-448 880,-448 886,-454 886,-460 886,-460 886,-472 886,-472 886,-478 880,-484 874,-484"/>
<text text-anchor="middle" x="843.5" y="-462.3" font-family="Helvetica,sans-Serif" font-size="14.00">checkers.ts</text>
</g>
<!-- src/core&#45;validators/checkers.ts&#45;&gt;src/core&#45;validators/characters.ts -->
<g id="edge2" class="edge">
<title>src/core&#45;validators/checkers.ts&#45;&gt;src/core&#45;validators/characters.ts</title>
<path fill="none" stroke="#528b8b" stroke-width="2" d="M886.01,-466C900.2,-466 916.32,-466 931.49,-466"/>
<polygon fill="#528b8b" stroke="#528b8b" stroke-width="2" points="931.8,-469.5 941.8,-466 931.8,-462.5 931.8,-469.5"/>
</g>
<!-- src/crypto/base32.ts -->
<g id="node5" class="node">
<title>src/crypto/base32.ts</title>
<path fill="#79cdcd" stroke="#79cdcd" d="M869,-637C869,-637 818,-637 818,-637 812,-637 806,-631 806,-625 806,-625 806,-613 806,-613 806,-607 812,-601 818,-601 818,-601 869,-601 869,-601 875,-601 881,-607 881,-613 881,-613 881,-625 881,-625 881,-631 875,-637 869,-637"/>
<text text-anchor="middle" x="843.5" y="-615.3" font-family="Helvetica,sans-Serif" font-size="14.00">base32.ts</text>
</g>
<!-- rfc4648 -->
<g id="node23" class="node">
<title>rfc4648</title>
<polygon fill="#cdc8b1" stroke="#8b8878" points="1020,-637 962,-637 958,-633 958,-601 1016,-601 1020,-605 1020,-637"/>
<polyline fill="none" stroke="#8b8878" points="1016,-633 958,-633 "/>
<polyline fill="none" stroke="#8b8878" points="1016,-633 1016,-601 "/>
<polyline fill="none" stroke="#8b8878" points="1016,-633 1020,-637 "/>
<text text-anchor="middle" x="989" y="-615.3" font-family="Helvetica,sans-Serif" font-size="14.00">rfc4648</text>
</g>
<!-- src/crypto/base32.ts&#45;&gt;rfc4648 -->
<g id="edge44" class="edge">
<title>src/crypto/base32.ts&#45;&gt;rfc4648</title>
<path fill="none" stroke="#8b8878" stroke-width="1.5" stroke-dasharray="5,2" d="M881.08,-619C901.4,-619 926.71,-619 947.61,-619"/>
<polygon fill="#8b8878" stroke="#8b8878" stroke-width="1.5" points="947.78,-622.5 957.78,-619 947.78,-615.5 947.78,-622.5"/>
</g>
<!-- src/crypto/crypto&#45;driver&#45;chloride.ts -->
<g id="node6" class="node">
<title>src/crypto/crypto&#45;driver&#45;chloride.ts</title>
<path fill="#79cdcd" stroke="#79cdcd" d="M728.5,-730C728.5,-730 594.5,-730 594.5,-730 588.5,-730 582.5,-724 582.5,-718 582.5,-718 582.5,-706 582.5,-706 582.5,-700 588.5,-694 594.5,-694 594.5,-694 728.5,-694 728.5,-694 734.5,-694 740.5,-700 740.5,-706 740.5,-706 740.5,-718 740.5,-718 740.5,-724 734.5,-730 728.5,-730"/>
<text text-anchor="middle" x="661.5" y="-708.3" font-family="Helvetica,sans-Serif" font-size="14.00">crypto&#45;driver&#45;chloride.ts</text>
</g>
<!-- src/crypto/crypto&#45;types.ts -->
<g id="node9" class="node">
<title>src/crypto/crypto&#45;types.ts</title>
<path fill="#79cdcd" stroke="#79cdcd" d="M883.5,-693C883.5,-693 803.5,-693 803.5,-693 797.5,-693 791.5,-687 791.5,-681 791.5,-681 791.5,-669 791.5,-669 791.5,-663 797.5,-657 803.5,-657 803.5,-657 883.5,-657 883.5,-657 889.5,-657 895.5,-663 895.5,-669 895.5,-669 895.5,-681 895.5,-681 895.5,-687 889.5,-693 883.5,-693"/>
<text text-anchor="middle" x="843.5" y="-671.3" font-family="Helvetica,sans-Serif" font-size="14.00">crypto&#45;types.ts</text>
</g>
<!-- src/crypto/crypto&#45;driver&#45;chloride.ts&#45;&gt;src/crypto/crypto&#45;types.ts -->
<g id="edge3" class="edge">
<title>src/crypto/crypto&#45;driver&#45;chloride.ts&#45;&gt;src/crypto/crypto&#45;types.ts</title>
<path fill="none" stroke="#528b8b" stroke-width="2" d="M740.67,-695.93C754.35,-693.12 768.41,-690.23 781.54,-687.53"/>
<polygon fill="#528b8b" stroke="#528b8b" stroke-width="2" points="782.29,-690.95 791.38,-685.51 780.88,-684.09 782.29,-690.95"/>
</g>
<!-- chloride/small -->
<g id="node24" class="node">
<title>chloride/small</title>
<polygon fill="#cdc8b1" stroke="#8b8878" points="893.5,-913 797.5,-913 793.5,-909 793.5,-877 889.5,-877 893.5,-881 893.5,-913"/>
<polyline fill="none" stroke="#8b8878" points="889.5,-909 793.5,-909 "/>
<polyline fill="none" stroke="#8b8878" points="889.5,-909 889.5,-877 "/>
<polyline fill="none" stroke="#8b8878" points="889.5,-909 893.5,-913 "/>
<text text-anchor="middle" x="843.5" y="-891.3" font-family="Helvetica,sans-Serif" font-size="14.00">chloride/small</text>
</g>
<!-- src/crypto/crypto&#45;driver&#45;chloride.ts&#45;&gt;chloride/small -->
<g id="edge45" class="edge">
<title>src/crypto/crypto&#45;driver&#45;chloride.ts&#45;&gt;chloride/small</title>
<path fill="none" stroke="#8b8878" stroke-width="1.5" stroke-dasharray="5,2" d="M739.93,-730.03C743.78,-732.63 747.35,-735.6 750.5,-739 792.06,-783.76 740.47,-827.3 781,-873 782.19,-874.34 783.47,-875.6 784.82,-876.78"/>
<polygon fill="#8b8878" stroke="#8b8878" stroke-width="1.5" points="783.05,-879.82 793.23,-882.75 787.1,-874.11 783.05,-879.82"/>
</g>
<!-- src/crypto/crypto&#45;driver&#45;node.ts -->
<g id="node7" class="node">
<title>src/crypto/crypto&#45;driver&#45;node.ts</title>
<path fill="#79cdcd" stroke="#79cdcd" d="M719.5,-838C719.5,-838 603.5,-838 603.5,-838 597.5,-838 591.5,-832 591.5,-826 591.5,-826 591.5,-814 591.5,-814 591.5,-808 597.5,-802 603.5,-802 603.5,-802 719.5,-802 719.5,-802 725.5,-802 731.5,-808 731.5,-814 731.5,-814 731.5,-826 731.5,-826 731.5,-832 725.5,-838 719.5,-838"/>
<text text-anchor="middle" x="661.5" y="-816.3" font-family="Helvetica,sans-Serif" font-size="14.00">crypto&#45;driver&#45;node.ts</text>
</g>
<!-- src/crypto/crypto&#45;driver&#45;node.ts&#45;&gt;src/crypto/crypto&#45;types.ts -->
<g id="edge4" class="edge">
<title>src/crypto/crypto&#45;driver&#45;node.ts&#45;&gt;src/crypto/crypto&#45;types.ts</title>
<path fill="none" stroke="#528b8b" stroke-width="2" d="M731.68,-803.32C738.31,-800.4 744.71,-796.99 750.5,-793 784.95,-769.27 812.46,-728.71 828.13,-701.88"/>
<polygon fill="#528b8b" stroke="#528b8b" stroke-width="2" points="831.27,-703.44 833.17,-693.01 825.19,-699.98 831.27,-703.44"/>
</g>
<!-- crypto -->
<g id="node25" class="node">
<title>crypto</title>
<polygon fill="#cdc8b1" stroke="#8b8878" points="870.5,-1075 820.5,-1075 816.5,-1071 816.5,-1039 866.5,-1039 870.5,-1043 870.5,-1075"/>
<polyline fill="none" stroke="#8b8878" points="866.5,-1071 816.5,-1071 "/>
<polyline fill="none" stroke="#8b8878" points="866.5,-1071 866.5,-1039 "/>
<polyline fill="none" stroke="#8b8878" points="866.5,-1071 870.5,-1075 "/>
<text text-anchor="middle" x="843.5" y="-1053.3" font-family="Helvetica,sans-Serif" font-size="14.00">crypto</text>
</g>
<!-- src/crypto/crypto&#45;driver&#45;node.ts&#45;&gt;crypto -->
<g id="edge46" class="edge">
<title>src/crypto/crypto&#45;driver&#45;node.ts&#45;&gt;crypto</title>
<path fill="none" stroke="#8b8878" stroke-width="1.5" stroke-dasharray="5,2" d="M668.32,-838.28C681.88,-878.22 719.22,-974.11 781,-1030 788.44,-1036.73 797.84,-1041.99 807.03,-1046.01"/>
<polygon fill="#8b8878" stroke="#8b8878" stroke-width="1.5" points="805.85,-1049.31 816.44,-1049.75 808.44,-1042.8 805.85,-1049.31"/>
</g>
<!-- src/crypto/crypto&#45;driver&#45;tweetnacl.ts&#45;&gt;src/crypto/crypto&#45;types.ts -->
<g id="edge5" class="edge">
<title>src/crypto/crypto&#45;driver&#45;tweetnacl.ts&#45;&gt;src/crypto/crypto&#45;types.ts</title>
<path fill="none" stroke="#528b8b" stroke-width="2" d="M729.19,-747.97C736.51,-745.27 743.75,-742.29 750.5,-739 772.6,-728.25 795.29,-712.52 812.61,-699.35"/>
<polygon fill="#528b8b" stroke="#528b8b" stroke-width="2" points="814.89,-702.01 820.66,-693.12 810.61,-696.48 814.89,-702.01"/>
</g>
<!-- tweetnacl -->
<g id="node26" class="node">
<title>tweetnacl</title>
<polygon fill="#cdc8b1" stroke="#8b8878" points="880.5,-1021 810.5,-1021 806.5,-1017 806.5,-985 876.5,-985 880.5,-989 880.5,-1021"/>
<polyline fill="none" stroke="#8b8878" points="876.5,-1017 806.5,-1017 "/>
<polyline fill="none" stroke="#8b8878" points="876.5,-1017 876.5,-985 "/>
<polyline fill="none" stroke="#8b8878" points="876.5,-1017 880.5,-1021 "/>
<text text-anchor="middle" x="843.5" y="-999.3" font-family="Helvetica,sans-Serif" font-size="14.00">tweetnacl</text>
</g>
<!-- src/crypto/crypto&#45;driver&#45;tweetnacl.ts&#45;&gt;tweetnacl -->
<g id="edge47" class="edge">
<title>src/crypto/crypto&#45;driver&#45;tweetnacl.ts&#45;&gt;tweetnacl</title>
<path fill="none" stroke="#8b8878" stroke-width="1.5" stroke-dasharray="5,2" d="M740.56,-784.09C744.2,-786.68 747.55,-789.63 750.5,-793 804.82,-855.04 730.37,-910.92 781,-976 785.28,-981.5 790.92,-985.91 797.04,-989.43"/>
<polygon fill="#8b8878" stroke="#8b8878" stroke-width="1.5" points="795.75,-992.69 806.27,-993.98 798.85,-986.42 795.75,-992.69"/>
</g>
<!-- sha256&#45;uint8array -->
<g id="node27" class="node">
<title>sha256&#45;uint8array</title>
<polygon fill="#cdc8b1" stroke="#8b8878" points="906,-967 785,-967 781,-963 781,-931 902,-931 906,-935 906,-967"/>
<polyline fill="none" stroke="#8b8878" points="902,-963 781,-963 "/>
<polyline fill="none" stroke="#8b8878" points="902,-963 902,-931 "/>
<polyline fill="none" stroke="#8b8878" points="902,-963 906,-967 "/>
<text text-anchor="middle" x="843.5" y="-945.3" font-family="Helvetica,sans-Serif" font-size="14.00">sha256&#45;uint8array</text>
</g>
<!-- src/crypto/crypto&#45;driver&#45;tweetnacl.ts&#45;&gt;sha256&#45;uint8array -->
<g id="edge48" class="edge">
<title>src/crypto/crypto&#45;driver&#45;tweetnacl.ts&#45;&gt;sha256&#45;uint8array</title>
<path fill="none" stroke="#8b8878" stroke-width="1.5" stroke-dasharray="5,2" d="M739.9,-784.06C743.75,-786.65 747.33,-789.62 750.5,-793 790.77,-836 743.29,-876.74 781,-922 781.6,-922.73 782.23,-923.43 782.88,-924.12"/>
<polygon fill="#8b8878" stroke="#8b8878" stroke-width="1.5" points="780.71,-926.87 790.55,-930.81 785.31,-921.6 780.71,-926.87"/>
</g>
<!-- src/crypto/crypto.ts&#45;&gt;src/core&#45;validators/addresses.ts -->
<g id="edge9" class="edge">
<title>src/crypto/crypto.ts&#45;&gt;src/core&#45;validators/addresses.ts</title>
<path fill="none" stroke="#528b8b" stroke-width="2" d="M500.32,-609.3C564.96,-592.43 707.93,-555.12 787.08,-534.46"/>
<polygon fill="#528b8b" stroke="#528b8b" stroke-width="2" points="788.09,-537.82 796.88,-531.91 786.32,-531.05 788.09,-537.82"/>
</g>
<!-- src/crypto/crypto.ts&#45;&gt;src/crypto/base32.ts -->
<g id="edge7" class="edge">
<title>src/crypto/crypto.ts&#45;&gt;src/crypto/base32.ts</title>
<path fill="none" stroke="#528b8b" stroke-width="2" d="M500,-615.37C522.07,-613.75 551.75,-611.83 578,-611 654.63,-608.59 673.91,-607.68 750.5,-611 765.19,-611.64 781.17,-612.85 795.62,-614.13"/>
<polygon fill="#528b8b" stroke="#528b8b" stroke-width="2" points="795.56,-617.64 805.84,-615.08 796.2,-610.67 795.56,-617.64"/>
</g>
<!-- src/crypto/crypto.ts&#45;&gt;src/crypto/crypto&#45;types.ts -->
<g id="edge6" class="edge">
<title>src/crypto/crypto.ts&#45;&gt;src/crypto/crypto&#45;types.ts</title>
<path fill="none" stroke="#528b8b" stroke-width="2" d="M500.43,-635.93C521.93,-646.5 550.83,-658.95 578,-665 646.26,-680.2 726.84,-680.87 780.97,-678.9"/>
<polygon fill="#528b8b" stroke="#528b8b" stroke-width="2" points="781.24,-682.39 791.09,-678.49 780.96,-675.4 781.24,-682.39"/>
</g>
<!-- src/crypto/keypair.ts -->
<g id="node11" class="node">
<title>src/crypto/keypair.ts</title>
<path fill="#79cdcd" stroke="#79cdcd" d="M686.5,-656C686.5,-656 636.5,-656 636.5,-656 630.5,-656 624.5,-650 624.5,-644 624.5,-644 624.5,-632 624.5,-632 624.5,-626 630.5,-620 636.5,-620 636.5,-620 686.5,-620 686.5,-620 692.5,-620 698.5,-626 698.5,-632 698.5,-632 698.5,-644 698.5,-644 698.5,-650 692.5,-656 686.5,-656"/>
<text text-anchor="middle" x="661.5" y="-634.3" font-family="Helvetica,sans-Serif" font-size="14.00">keypair.ts</text>
</g>
<!-- src/crypto/crypto.ts&#45;&gt;src/crypto/keypair.ts -->
<g id="edge8" class="edge">
<title>src/crypto/crypto.ts&#45;&gt;src/crypto/keypair.ts</title>
<path fill="none" stroke="#528b8b" stroke-width="2" d="M500.26,-621.44C531.74,-624.69 579.25,-629.6 614.38,-633.23"/>
<polygon fill="#528b8b" stroke="#528b8b" stroke-width="2" points="614.08,-636.72 624.39,-634.27 614.8,-629.76 614.08,-636.72"/>
</g>
<!-- src/crypto/keypair.ts&#45;&gt;src/core&#45;validators/addresses.ts -->
<g id="edge12" class="edge">
<title>src/crypto/keypair.ts&#45;&gt;src/core&#45;validators/addresses.ts</title>
<path fill="none" stroke="#528b8b" stroke-width="2" d="M690.23,-619.82C721.37,-599.41 772.02,-566.2 806.27,-543.75"/>
<polygon fill="#528b8b" stroke="#528b8b" stroke-width="2" points="808.59,-546.42 815.03,-538.01 804.75,-540.56 808.59,-546.42"/>
</g>
<!-- src/crypto/keypair.ts&#45;&gt;src/crypto/base32.ts -->
<g id="edge10" class="edge">
<title>src/crypto/keypair.ts&#45;&gt;src/crypto/base32.ts</title>
<path fill="none" stroke="#528b8b" stroke-width="2" d="M698.93,-634.16C726.77,-631.22 765.37,-627.14 795.53,-623.96"/>
<polygon fill="#528b8b" stroke="#528b8b" stroke-width="2" points="796.24,-627.4 805.82,-622.87 795.51,-620.44 796.24,-627.4"/>
</g>
<!-- src/crypto/keypair.ts&#45;&gt;src/crypto/crypto&#45;types.ts -->
<g id="edge11" class="edge">
<title>src/crypto/keypair.ts&#45;&gt;src/crypto/crypto&#45;types.ts</title>
<path fill="none" stroke="#528b8b" stroke-width="2" d="M698.93,-645.49C722.62,-650.36 754.11,-656.83 781.56,-662.47"/>
<polygon fill="#528b8b" stroke="#528b8b" stroke-width="2" points="780.96,-665.92 791.46,-664.51 782.37,-659.07 780.96,-665.92"/>
</g>
<!-- src/format&#45;validators/format&#45;validator&#45;es4.ts&#45;&gt;src/core&#45;validators/addresses.ts -->
<g id="edge23" class="edge">
<title>src/format&#45;validators/format&#45;validator&#45;es4.ts&#45;&gt;src/core&#45;validators/addresses.ts</title>
<path fill="none" stroke="#528b8b" stroke-width="2" d="M484.47,-392.13C504.97,-412.31 540.9,-444.39 578,-462 645.77,-494.16 731.82,-508.76 787.03,-515.2"/>
<polygon fill="#528b8b" stroke="#528b8b" stroke-width="2" points="786.64,-518.68 796.97,-516.31 787.42,-511.72 786.64,-518.68"/>
</g>
<!-- src/format&#45;validators/format&#45;validator&#45;es4.ts&#45;&gt;src/core&#45;validators/characters.ts -->
<g id="edge21" class="edge">
<title>src/format&#45;validators/format&#45;validator&#45;es4.ts&#45;&gt;src/core&#45;validators/characters.ts</title>
<path fill="none" stroke="#528b8b" stroke-width="2" d="M535.41,-392.04C549.43,-395.34 564.14,-398.52 578,-401 722.46,-426.84 762.68,-407.45 906,-439 914.51,-440.87 923.38,-443.29 932.01,-445.9"/>
<polygon fill="#528b8b" stroke="#528b8b" stroke-width="2" points="931.03,-449.26 941.62,-448.92 933.13,-442.58 931.03,-449.26"/>
</g>
<!-- src/format&#45;validators/format&#45;validator&#45;es4.ts&#45;&gt;src/core&#45;validators/checkers.ts -->
<g id="edge22" class="edge">
<title>src/format&#45;validators/format&#45;validator&#45;es4.ts&#45;&gt;src/core&#45;validators/checkers.ts</title>
<path fill="none" stroke="#528b8b" stroke-width="2" d="M493.54,-392.06C515.27,-405.9 547.31,-424.24 578,-434 649.43,-456.72 736.42,-463.5 790.64,-465.41"/>
<polygon fill="#528b8b" stroke="#528b8b" stroke-width="2" points="790.6,-468.91 800.71,-465.73 790.82,-461.92 790.6,-468.91"/>
</g>
<!-- src/format&#45;validators/format&#45;validator&#45;es4.ts&#45;&gt;src/crypto/crypto&#45;types.ts -->
<g id="edge20" class="edge">
<title>src/format&#45;validators/format&#45;validator&#45;es4.ts&#45;&gt;src/crypto/crypto&#45;types.ts</title>
<path fill="none" stroke="#528b8b" stroke-width="2" d="M480.73,-392.36C500.47,-418.04 538.83,-465.32 578,-499 647.31,-558.6 681.47,-551.08 750.5,-611 766.08,-624.53 764.54,-633.56 781,-646 783.64,-647.99 786.43,-649.9 789.32,-651.71"/>
<polygon fill="#528b8b" stroke="#528b8b" stroke-width="2" points="787.79,-654.87 798.2,-656.86 791.3,-648.81 787.79,-654.87"/>
</g>
<!-- src/format&#45;validators/format&#45;validator&#45;types.ts -->
<g id="node13" class="node">
<title>src/format&#45;validators/format&#45;validator&#45;types.ts</title>
<path fill="#79cdcd" stroke="#79cdcd" d="M730.5,-392C730.5,-392 592.5,-392 592.5,-392 586.5,-392 580.5,-386 580.5,-380 580.5,-380 580.5,-368 580.5,-368 580.5,-362 586.5,-356 592.5,-356 592.5,-356 730.5,-356 730.5,-356 736.5,-356 742.5,-362 742.5,-368 742.5,-368 742.5,-380 742.5,-380 742.5,-386 736.5,-392 730.5,-392"/>
<text text-anchor="middle" x="661.5" y="-370.3" font-family="Helvetica,sans-Serif" font-size="14.00">format&#45;validator&#45;types.ts</text>
</g>
<!-- src/format&#45;validators/format&#45;validator&#45;es4.ts&#45;&gt;src/format&#45;validators/format&#45;validator&#45;types.ts -->
<g id="edge19" class="edge">
<title>src/format&#45;validators/format&#45;validator&#45;es4.ts&#45;&gt;src/format&#45;validators/format&#45;validator&#45;types.ts</title>
<path fill="none" stroke="#528b8b" stroke-width="2" d="M542.09,-374C551.29,-374 560.78,-374 570.18,-374"/>
<polygon fill="#528b8b" stroke="#528b8b" stroke-width="2" points="570.33,-377.5 580.33,-374 570.33,-370.5 570.33,-377.5"/>
</g>
<!-- src/format&#45;validators/format&#45;validator&#45;types.ts&#45;&gt;src/crypto/crypto&#45;types.ts -->
<g id="edge24" class="edge">
<title>src/format&#45;validators/format&#45;validator&#45;types.ts&#45;&gt;src/crypto/crypto&#45;types.ts</title>
<path fill="none" stroke="#528b8b" stroke-width="2" d="M672.07,-392.23C689.03,-424.93 725,-495.93 750.5,-558 766.23,-596.29 753.34,-615.21 781,-646 782.51,-647.68 784.13,-649.26 785.85,-650.77"/>
<polygon fill="#528b8b" stroke="#528b8b" stroke-width="2" points="783.78,-653.6 793.87,-656.83 788,-648.01 783.78,-653.6"/>
</g>
<!-- src/storage/compare.ts -->
<g id="node14" class="node">
<title>src/storage/compare.ts</title>
<path fill="#79cdcd" stroke="#79cdcd" d="M496,-92C496,-92 436,-92 436,-92 430,-92 424,-86 424,-80 424,-80 424,-68 424,-68 424,-62 430,-56 436,-56 436,-56 496,-56 496,-56 502,-56 508,-62 508,-68 508,-68 508,-80 508,-80 508,-86 502,-92 496,-92"/>
<text text-anchor="middle" x="466" y="-70.3" font-family="Helvetica,sans-Serif" font-size="14.00">compare.ts</text>
</g>
<!-- src/storage/util&#45;types.ts -->
<g id="node22" class="node">
<title>src/storage/util&#45;types.ts</title>
<path fill="#79cdcd" stroke="#79cdcd" d="M692,-153C692,-153 631,-153 631,-153 625,-153 619,-147 619,-141 619,-141 619,-129 619,-129 619,-123 625,-117 631,-117 631,-117 692,-117 692,-117 698,-117 704,-123 704,-129 704,-129 704,-141 704,-141 704,-147 698,-153 692,-153"/>
<text text-anchor="middle" x="661.5" y="-131.3" font-family="Helvetica,sans-Serif" font-size="14.00">util&#45;types.ts</text>
</g>
<!-- src/storage/compare.ts&#45;&gt;src/storage/util&#45;types.ts -->
<g id="edge25" class="edge">
<title>src/storage/compare.ts&#45;&gt;src/storage/util&#45;types.ts</title>
<path fill="none" stroke="#528b8b" stroke-width="2" d="M508.04,-86.94C537.47,-96.21 577.33,-108.78 608.92,-118.74"/>
<polygon fill="#528b8b" stroke="#528b8b" stroke-width="2" points="608.27,-122.2 618.86,-121.87 610.37,-115.53 608.27,-122.2"/>
</g>
<!-- src/storage/query&#45;types.ts -->
<g id="node17" class="node">
<title>src/storage/query&#45;types.ts</title>
<path fill="#79cdcd" stroke="#79cdcd" d="M700,-223C700,-223 623,-223 623,-223 617,-223 611,-217 611,-211 611,-211 611,-199 611,-199 611,-193 617,-187 623,-187 623,-187 700,-187 700,-187 706,-187 712,-193 712,-199 712,-199 712,-211 712,-211 712,-217 706,-223 700,-223"/>
<text text-anchor="middle" x="661.5" y="-201.3" font-family="Helvetica,sans-Serif" font-size="14.00">query&#45;types.ts</text>
</g>
<!-- src/storage/follower.ts&#45;&gt;src/storage/query&#45;types.ts -->
<g id="edge27" class="edge">
<title>src/storage/follower.ts&#45;&gt;src/storage/query&#45;types.ts</title>
<path fill="none" stroke="#528b8b" stroke-width="2" d="M288.79,-214.08C360.14,-212.33 515.18,-208.55 600.77,-206.46"/>
<polygon fill="#528b8b" stroke="#528b8b" stroke-width="2" points="600.94,-209.96 610.85,-206.21 600.77,-202.96 600.94,-209.96"/>
</g>
<!-- src/storage/storage&#45;types.ts -->
<g id="node21" class="node">
<title>src/storage/storage&#45;types.ts</title>
<path fill="#79cdcd" stroke="#79cdcd" d="M510.5,-260C510.5,-260 421.5,-260 421.5,-260 415.5,-260 409.5,-254 409.5,-248 409.5,-248 409.5,-236 409.5,-236 409.5,-230 415.5,-224 421.5,-224 421.5,-224 510.5,-224 510.5,-224 516.5,-224 522.5,-230 522.5,-236 522.5,-236 522.5,-248 522.5,-248 522.5,-254 516.5,-260 510.5,-260"/>
<text text-anchor="middle" x="466" y="-238.3" font-family="Helvetica,sans-Serif" font-size="14.00">storage&#45;types.ts</text>
</g>
<!-- src/storage/follower.ts&#45;&gt;src/storage/storage&#45;types.ts -->
<g id="edge28" class="edge">
<title>src/storage/follower.ts&#45;&gt;src/storage/storage&#45;types.ts</title>
<path fill="none" stroke="#528b8b" stroke-width="2" d="M288.77,-219.76C319.26,-223.61 362.89,-229.12 399.11,-233.69"/>
<polygon fill="#528b8b" stroke="#528b8b" stroke-width="2" points="398.76,-237.17 409.12,-234.95 399.63,-230.23 398.76,-237.17"/>
</g>
<!-- src/storage/follower.ts&#45;&gt;src/storage/util&#45;types.ts -->
<g id="edge26" class="edge">
<title>src/storage/follower.ts&#45;&gt;src/storage/util&#45;types.ts</title>
<path fill="none" stroke="#528b8b" stroke-width="2" d="M288.62,-212.12C344.48,-207.32 452.4,-196.08 542,-175 564.44,-169.72 588.66,-161.94 609.31,-154.64"/>
<polygon fill="#528b8b" stroke="#528b8b" stroke-width="2" points="610.6,-157.89 618.83,-151.22 608.24,-151.3 610.6,-157.89"/>
</g>
<!-- src/storage/lock.ts -->
<g id="node16" class="node">
<title>src/storage/lock.ts</title>
<path fill="#79cdcd" stroke="#79cdcd" d="M677,-68C677,-68 646,-68 646,-68 640,-68 634,-62 634,-56 634,-56 634,-44 634,-44 634,-38 640,-32 646,-32 646,-32 677,-32 677,-32 683,-32 689,-38 689,-44 689,-44 689,-56 689,-56 689,-62 683,-68 677,-68"/>
<text text-anchor="middle" x="661.5" y="-46.3" font-family="Helvetica,sans-Serif" font-size="14.00">lock.ts</text>
</g>
<!-- src/storage/query.ts -->
<g id="node18" class="node">
<title>src/storage/query.ts</title>
<path fill="#79cdcd" stroke="#79cdcd" d="M486,-166C486,-166 446,-166 446,-166 440,-166 434,-160 434,-154 434,-154 434,-142 434,-142 434,-136 440,-130 446,-130 446,-130 486,-130 486,-130 492,-130 498,-136 498,-142 498,-142 498,-154 498,-154 498,-160 492,-166 486,-166"/>
<text text-anchor="middle" x="466" y="-144.3" font-family="Helvetica,sans-Serif" font-size="14.00">query.ts</text>
</g>
<!-- src/storage/query.ts&#45;&gt;src/storage/query&#45;types.ts -->
<g id="edge29" class="edge">
<title>src/storage/query.ts&#45;&gt;src/storage/query&#45;types.ts</title>
<path fill="none" stroke="#528b8b" stroke-width="2" d="M498.09,-157.16C525.8,-165.32 567.12,-177.49 601.15,-187.52"/>
<polygon fill="#528b8b" stroke="#528b8b" stroke-width="2" points="600.41,-190.95 610.99,-190.42 602.39,-184.23 600.41,-190.95"/>
</g>
<!-- src/storage/storage&#45;async.ts&#45;&gt;src/format&#45;validators/format&#45;validator&#45;types.ts -->
<g id="edge33" class="edge">
<title>src/storage/storage&#45;async.ts&#45;&gt;src/format&#45;validators/format&#45;validator&#45;types.ts</title>
<path fill="none" stroke="#528b8b" stroke-width="2" d="M308.37,-293.17C376.76,-308.87 491.83,-335.28 571.73,-353.62"/>
<polygon fill="#528b8b" stroke="#528b8b" stroke-width="2" points="571.25,-357.1 581.78,-355.93 572.82,-350.28 571.25,-357.1"/>
</g>
<!-- src/storage/storage&#45;async.ts&#45;&gt;src/storage/compare.ts -->
<g id="edge34" class="edge">
<title>src/storage/storage&#45;async.ts&#45;&gt;src/storage/compare.ts</title>
<path fill="none" stroke="#528b8b" stroke-width="2" d="M308.04,-269.85C324.94,-264.23 342.09,-255.51 354,-242 390.5,-200.59 348.97,-165.23 382,-121 390.45,-109.68 402.49,-100.69 414.78,-93.73"/>
<polygon fill="#528b8b" stroke="#528b8b" stroke-width="2" points="416.51,-96.77 423.72,-89.01 413.25,-90.58 416.51,-96.77"/>
</g>
<!-- src/storage/storage&#45;async.ts&#45;&gt;src/storage/query&#45;types.ts -->
<g id="edge31" class="edge">
<title>src/storage/storage&#45;async.ts&#45;&gt;src/storage/query&#45;types.ts</title>
<path fill="none" stroke="#528b8b" stroke-width="2" d="M308.2,-290.82C367.94,-299.82 463.66,-307.72 542,-284 576.99,-273.41 611.09,-248.7 633.65,-229.72"/>
<polygon fill="#528b8b" stroke="#528b8b" stroke-width="2" points="636.14,-232.2 641.43,-223.02 631.57,-226.89 636.14,-232.2"/>
</g>
<!-- src/storage/storage&#45;async.ts&#45;&gt;src/storage/storage&#45;types.ts -->
<g id="edge32" class="edge">
<title>src/storage/storage&#45;async.ts&#45;&gt;src/storage/storage&#45;types.ts</title>
<path fill="none" stroke="#528b8b" stroke-width="2" d="M308.07,-269.87C336.09,-264.89 370,-258.87 399.12,-253.7"/>
<polygon fill="#528b8b" stroke="#528b8b" stroke-width="2" points="399.97,-257.1 409.2,-251.91 398.74,-250.21 399.97,-257.1"/>
</g>
<!-- src/storage/storage&#45;async.ts&#45;&gt;src/storage/util&#45;types.ts -->
<g id="edge30" class="edge">
<title>src/storage/storage&#45;async.ts&#45;&gt;src/storage/util&#45;types.ts</title>
<path fill="none" stroke="#528b8b" stroke-width="2" d="M308.13,-281.15C387.49,-282.24 523.46,-282.13 542,-269 577.5,-243.87 548.88,-210.31 578,-178 586.7,-168.34 598.09,-160.51 609.61,-154.3"/>
<polygon fill="#528b8b" stroke="#528b8b" stroke-width="2" points="611.46,-157.29 618.83,-149.67 608.32,-151.03 611.46,-157.29"/>
</g>
<!-- src/storage/storage&#45;driver&#45;async&#45;memory.ts&#45;&gt;src/storage/compare.ts -->
<g id="edge38" class="edge">
<title>src/storage/storage&#45;driver&#45;async&#45;memory.ts&#45;&gt;src/storage/compare.ts</title>
<path fill="none" stroke="#528b8b" stroke-width="2" d="M354.24,-93.15C374.97,-89.57 395.9,-85.95 413.89,-82.84"/>
<polygon fill="#528b8b" stroke="#528b8b" stroke-width="2" points="414.59,-86.27 423.84,-81.12 413.39,-79.37 414.59,-86.27"/>
</g>
<!-- src/storage/storage&#45;driver&#45;async&#45;memory.ts&#45;&gt;src/storage/lock.ts -->
<g id="edge40" class="edge">
<title>src/storage/storage&#45;driver&#45;async&#45;memory.ts&#45;&gt;src/storage/lock.ts</title>
<path fill="none" stroke="#528b8b" stroke-width="2" d="M270.92,-92.94C295.13,-72.34 338.18,-39.84 382,-27 465.98,-2.39 569.88,-23.88 623.93,-38.72"/>
<polygon fill="#528b8b" stroke="#528b8b" stroke-width="2" points="623.17,-42.14 633.74,-41.49 625.07,-35.41 623.17,-42.14"/>
</g>
<!-- src/storage/storage&#45;driver&#45;async&#45;memory.ts&#45;&gt;src/storage/query&#45;types.ts -->
<g id="edge36" class="edge">
<title>src/storage/storage&#45;driver&#45;async&#45;memory.ts&#45;&gt;src/storage/query&#45;types.ts</title>
<path fill="none" stroke="#528b8b" stroke-width="2" d="M354.17,-106.03C424.18,-104.25 509.68,-105.69 542,-121 563.92,-131.38 558.92,-147.03 578,-162 587.53,-169.48 598.56,-176.27 609.39,-182.12"/>
<polygon fill="#528b8b" stroke="#528b8b" stroke-width="2" points="607.91,-185.3 618.4,-186.82 611.15,-179.1 607.91,-185.3"/>
</g>
<!-- src/storage/storage&#45;driver&#45;async&#45;memory.ts&#45;&gt;src/storage/query.ts -->
<g id="edge39" class="edge">
<title>src/storage/storage&#45;driver&#45;async&#45;memory.ts&#45;&gt;src/storage/query.ts</title>
<path fill="none" stroke="#528b8b" stroke-width="2" d="M354.24,-128.85C379,-133.13 404.02,-137.46 424.01,-140.91"/>
<polygon fill="#528b8b" stroke="#528b8b" stroke-width="2" points="423.52,-144.38 433.97,-142.63 424.71,-137.48 423.52,-144.38"/>
</g>
<!-- src/storage/storage&#45;driver&#45;async&#45;memory.ts&#45;&gt;src/storage/storage&#45;types.ts -->
<g id="edge37" class="edge">
<title>src/storage/storage&#45;driver&#45;async&#45;memory.ts&#45;&gt;src/storage/storage&#45;types.ts</title>
<path fill="none" stroke="#528b8b" stroke-width="2" d="M280.76,-129.21C318.85,-152.53 384.9,-192.97 426.71,-218.56"/>
<polygon fill="#528b8b" stroke="#528b8b" stroke-width="2" points="425.14,-221.7 435.5,-223.94 428.8,-215.73 425.14,-221.7"/>
</g>
<!-- src/storage/storage&#45;driver&#45;async&#45;memory.ts&#45;&gt;src/storage/util&#45;types.ts -->
<g id="edge35" class="edge">
<title>src/storage/storage&#45;driver&#45;async&#45;memory.ts&#45;&gt;src/storage/util&#45;types.ts</title>
<path fill="none" stroke="#528b8b" stroke-width="2" d="M278.73,-92.8C304.33,-77.16 344.02,-55.78 382,-47 451.28,-30.98 475.14,-22.79 542,-47 561.58,-54.09 561.47,-64.33 578,-77 593.22,-88.66 610.51,-100.96 625.32,-111.21"/>
<polygon fill="#528b8b" stroke="#528b8b" stroke-width="2" points="623.5,-114.21 633.72,-117 627.47,-108.44 623.5,-114.21"/>
</g>
<!-- src/storage/storage&#45;types.ts&#45;&gt;src/format&#45;validators/format&#45;validator&#45;types.ts -->
<g id="edge42" class="edge">
<title>src/storage/storage&#45;types.ts&#45;&gt;src/format&#45;validators/format&#45;validator&#45;types.ts</title>
<path fill="none" stroke="#528b8b" stroke-width="2" d="M485.48,-260.06C506.62,-280.07 542.85,-312.5 578,-335 587.3,-340.95 597.64,-346.55 607.78,-351.55"/>
<polygon fill="#528b8b" stroke="#528b8b" stroke-width="2" points="606.46,-354.8 616.99,-355.97 609.49,-348.49 606.46,-354.8"/>
</g>
<!-- src/storage/storage&#45;types.ts&#45;&gt;src/storage/lock.ts -->
<g id="edge43" class="edge">
<title>src/storage/storage&#45;types.ts&#45;&gt;src/storage/lock.ts</title>
<path fill="none" stroke="#528b8b" stroke-width="2" d="M491.3,-223.93C507.06,-211.39 527.3,-193.65 542,-175 562.92,-148.45 555.57,-133.29 578,-108 591.3,-93 609.22,-79.81 624.95,-69.82"/>
<polygon fill="#528b8b" stroke="#528b8b" stroke-width="2" points="627.22,-72.53 633.91,-64.31 623.56,-66.57 627.22,-72.53"/>
</g>
<!-- src/storage/storage&#45;types.ts&#45;&gt;src/storage/query&#45;types.ts -->
<g id="edge41" class="edge">
<title>src/storage/storage&#45;types.ts&#45;&gt;src/storage/query&#45;types.ts</title>
<path fill="none" stroke="#528b8b" stroke-width="2" d="M522.71,-231.35C547.14,-226.68 575.86,-221.18 600.74,-216.43"/>
<polygon fill="#528b8b" stroke="#528b8b" stroke-width="2" points="601.62,-219.82 610.79,-214.51 600.31,-212.95 601.62,-219.82"/>
</g>
</g>
</svg>
