<?xml version="1.0" encoding="UTF-8" standalone="no"?>
<!DOCTYPE svg PUBLIC "-//W3C//DTD SVG 1.1//EN"
 "http://www.w3.org/Graphics/SVG/1.1/DTD/svg11.dtd">
<!-- Generated by graphviz version 2.44.1 (20200629.0846)
 -->
<!-- Title: G Pages: 1 -->
<svg width="805pt" height="321pt"
 viewBox="0.00 0.00 805.00 321.00" xmlns="http://www.w3.org/2000/svg" xmlns:xlink="http://www.w3.org/1999/xlink">
<g id="graph0" class="graph" transform="scale(1 1) rotate(0) translate(4 317)">
<title>G</title>
<polygon fill="white" stroke="transparent" points="-4,4 -4,-317 801,-317 801,4 -4,4"/>
<g id="clust1" class="cluster">
<title>cluster4169300457</title>
<path fill="none" stroke="#8b7d6b" stroke-width="2" d="M20,-8C20,-8 778,-8 778,-8 784,-8 790,-14 790,-20 790,-20 790,-293 790,-293 790,-299 784,-305 778,-305 778,-305 20,-305 20,-305 14,-305 8,-299 8,-293 8,-293 8,-20 8,-20 8,-14 14,-8 20,-8"/>
<text text-anchor="start" x="388.5" y="-290.8" font-family="Helvetica,sans-Serif" font-weight="bold" font-size="14.00">src</text>
</g>
<g id="clust2" class="cluster">
<title>cluster5744159174</title>
<path fill="bisque" stroke="#8b7d6b" stroke-width="2" d="M684,-105C684,-105 770,-105 770,-105 776,-105 782,-111 782,-117 782,-117 782,-168 782,-168 782,-174 776,-180 770,-180 770,-180 684,-180 684,-180 678,-180 672,-174 672,-168 672,-168 672,-117 672,-117 672,-111 678,-105 684,-105"/>
<text text-anchor="start" x="680" y="-165.8" font-family="Helvetica,sans-Serif" font-weight="bold" font-size="14.00">coreValidators</text>
</g>
<g id="clust3" class="cluster">
<title>cluster8278969722</title>
<path fill="bisque" stroke="#8b7d6b" stroke-width="2" d="M400,-33C400,-33 632,-33 632,-33 638,-33 644,-39 644,-45 644,-45 644,-150 644,-150 644,-156 638,-162 632,-162 632,-162 400,-162 400,-162 394,-162 388,-156 388,-150 388,-150 388,-45 388,-45 388,-39 394,-33 400,-33"/>
<text text-anchor="start" x="495" y="-147.8" font-family="Helvetica,sans-Serif" font-weight="bold" font-size="14.00">crypto</text>
</g>
<g id="clust4" class="cluster">
<title>cluster6209901412</title>
<path fill="bisque" stroke="#8b7d6b" stroke-width="2" d="M220,-62C220,-62 302,-62 302,-62 308,-62 314,-68 314,-74 314,-74 314,-125 314,-125 314,-131 308,-137 302,-137 302,-137 220,-137 220,-137 214,-137 208,-131 208,-125 208,-125 208,-74 208,-74 208,-68 214,-62 220,-62"/>
<text text-anchor="start" x="216" y="-122.8" font-family="Helvetica,sans-Serif" font-weight="bold" font-size="14.00">docValidators</text>
</g>
<g id="clust5" class="cluster">
<title>cluster9021175707</title>
<path fill="bisque" stroke="#8b7d6b" stroke-width="2" d="M166,-145C166,-145 356,-145 356,-145 362,-145 368,-151 368,-157 368,-157 368,-262 368,-262 368,-268 362,-274 356,-274 356,-274 166,-274 166,-274 160,-274 154,-268 154,-262 154,-262 154,-157 154,-157 154,-151 160,-145 166,-145"/>
<text text-anchor="start" x="236.5" y="-259.8" font-family="Helvetica,sans-Serif" font-weight="bold" font-size="14.00">storage</text>
</g>
<!-- src/base32.ts -->
<g id="node1" class="node">
<title>src/base32.ts</title>
<path fill="#79cdcd" stroke="#79cdcd" d="M752,-77C752,-77 701,-77 701,-77 695,-77 689,-71 689,-65 689,-65 689,-53 689,-53 689,-47 695,-41 701,-41 701,-41 752,-41 752,-41 758,-41 764,-47 764,-53 764,-53 764,-65 764,-65 764,-71 758,-77 752,-77"/>
<text text-anchor="middle" x="726.5" y="-55.3" font-family="Helvetica,sans-Serif" font-size="14.00">base32.ts</text>
</g>
<!-- src/example&#45;app.ts -->
<g id="node2" class="node">
<title>src/example&#45;app.ts</title>
<path fill="#79cdcd" stroke="#79cdcd" d="M114,-147C114,-147 28,-147 28,-147 22,-147 16,-141 16,-135 16,-135 16,-123 16,-123 16,-117 22,-111 28,-111 28,-111 114,-111 114,-111 120,-111 126,-117 126,-123 126,-123 126,-135 126,-135 126,-141 120,-147 114,-147"/>
<text text-anchor="middle" x="71" y="-125.3" font-family="Helvetica,sans-Serif" font-size="14.00">example&#45;app.ts</text>
</g>
<!-- src/follower.ts -->
<g id="node3" class="node">
<title>src/follower.ts</title>
<path fill="#79cdcd" stroke="#79cdcd" d="M287.5,-52C287.5,-52 234.5,-52 234.5,-52 228.5,-52 222.5,-46 222.5,-40 222.5,-40 222.5,-28 222.5,-28 222.5,-22 228.5,-16 234.5,-16 234.5,-16 287.5,-16 287.5,-16 293.5,-16 299.5,-22 299.5,-28 299.5,-28 299.5,-40 299.5,-40 299.5,-46 293.5,-52 287.5,-52"/>
<text text-anchor="middle" x="261" y="-30.3" font-family="Helvetica,sans-Serif" font-size="14.00">follower.ts</text>
</g>
<!-- src/example&#45;app.ts&#45;&gt;src/follower.ts -->
<g id="edge12" class="edge">
<title>src/example&#45;app.ts&#45;&gt;src/follower.ts</title>
<path fill="none" stroke="#528b8b" stroke-width="2" d="M88.06,-110.72C103.39,-94.42 127.95,-71.17 154,-58 171.98,-48.91 193.41,-43.22 212.28,-39.69"/>
<polygon fill="#528b8b" stroke="#528b8b" stroke-width="2" points="212.91,-43.13 222.17,-37.98 211.72,-36.23 212.91,-43.13"/>
</g>
<!-- src/docValidators/es4.ts -->
<g id="node10" class="node">
<title>src/docValidators/es4.ts</title>
<path fill="#79cdcd" stroke="#79cdcd" d="M276,-106C276,-106 246,-106 246,-106 240,-106 234,-100 234,-94 234,-94 234,-82 234,-82 234,-76 240,-70 246,-70 246,-70 276,-70 276,-70 282,-70 288,-76 288,-82 288,-82 288,-94 288,-94 288,-100 282,-106 276,-106"/>
<text text-anchor="middle" x="261" y="-84.3" font-family="Helvetica,sans-Serif" font-size="14.00">es4.ts</text>
</g>
<!-- src/example&#45;app.ts&#45;&gt;src/docValidators/es4.ts -->
<g id="edge9" class="edge">
<title>src/example&#45;app.ts&#45;&gt;src/docValidators/es4.ts</title>
<path fill="none" stroke="#528b8b" stroke-width="2" d="M126.13,-117.2C157.48,-110.36 196.11,-101.93 223.79,-95.9"/>
<polygon fill="#528b8b" stroke="#528b8b" stroke-width="2" points="224.81,-99.26 233.83,-93.71 223.32,-92.42 224.81,-99.26"/>
</g>
<!-- src/storage/storageAsync.ts -->
<g id="node11" class="node">
<title>src/storage/storageAsync.ts</title>
<path fill="#79cdcd" stroke="#79cdcd" d="M305.5,-189C305.5,-189 216.5,-189 216.5,-189 210.5,-189 204.5,-183 204.5,-177 204.5,-177 204.5,-165 204.5,-165 204.5,-159 210.5,-153 216.5,-153 216.5,-153 305.5,-153 305.5,-153 311.5,-153 317.5,-159 317.5,-165 317.5,-165 317.5,-177 317.5,-177 317.5,-183 311.5,-189 305.5,-189"/>
<text text-anchor="middle" x="261" y="-167.3" font-family="Helvetica,sans-Serif" font-size="14.00">storageAsync.ts</text>
</g>
<!-- src/example&#45;app.ts&#45;&gt;src/storage/storageAsync.ts -->
<g id="edge11" class="edge">
<title>src/example&#45;app.ts&#45;&gt;src/storage/storageAsync.ts</title>
<path fill="none" stroke="#528b8b" stroke-width="2" d="M126.13,-141.09C147.38,-145.84 171.98,-151.34 194.25,-156.31"/>
<polygon fill="#528b8b" stroke="#528b8b" stroke-width="2" points="193.78,-159.79 204.3,-158.56 195.3,-152.96 193.78,-159.79"/>
</g>
<!-- src/storage/storageDriverAsyncMemory.ts -->
<g id="node12" class="node">
<title>src/storage/storageDriverAsyncMemory.ts</title>
<path fill="#79cdcd" stroke="#79cdcd" d="M348,-243C348,-243 174,-243 174,-243 168,-243 162,-237 162,-231 162,-231 162,-219 162,-219 162,-213 168,-207 174,-207 174,-207 348,-207 348,-207 354,-207 360,-213 360,-219 360,-219 360,-231 360,-231 360,-237 354,-243 348,-243"/>
<text text-anchor="middle" x="261" y="-221.3" font-family="Helvetica,sans-Serif" font-size="14.00">storageDriverAsyncMemory.ts</text>
</g>
<!-- src/example&#45;app.ts&#45;&gt;src/storage/storageDriverAsyncMemory.ts -->
<g id="edge10" class="edge">
<title>src/example&#45;app.ts&#45;&gt;src/storage/storageDriverAsyncMemory.ts</title>
<path fill="none" stroke="#528b8b" stroke-width="2" d="M88.84,-147.21C104.33,-162.89 128.68,-184.99 154,-198 157.71,-199.9 161.55,-201.68 165.5,-203.33"/>
<polygon fill="#528b8b" stroke="#528b8b" stroke-width="2" points="164.24,-206.6 174.83,-206.98 166.79,-200.08 164.24,-206.6"/>
</g>
<!-- src/lock.ts -->
<g id="node4" class="node">
<title>src/lock.ts</title>
<path fill="#79cdcd" stroke="#79cdcd" d="M445.5,-265C445.5,-265 414.5,-265 414.5,-265 408.5,-265 402.5,-259 402.5,-253 402.5,-253 402.5,-241 402.5,-241 402.5,-235 408.5,-229 414.5,-229 414.5,-229 445.5,-229 445.5,-229 451.5,-229 457.5,-235 457.5,-241 457.5,-241 457.5,-253 457.5,-253 457.5,-259 451.5,-265 445.5,-265"/>
<text text-anchor="middle" x="430" y="-243.3" font-family="Helvetica,sans-Serif" font-size="14.00">lock.ts</text>
</g>
<!-- src/query.ts -->
<g id="node5" class="node">
<title>src/query.ts</title>
<path fill="#79cdcd" stroke="#79cdcd" d="M450,-211C450,-211 410,-211 410,-211 404,-211 398,-205 398,-199 398,-199 398,-187 398,-187 398,-181 404,-175 410,-175 410,-175 450,-175 450,-175 456,-175 462,-181 462,-187 462,-187 462,-199 462,-199 462,-205 456,-211 450,-211"/>
<text text-anchor="middle" x="430" y="-189.3" font-family="Helvetica,sans-Serif" font-size="14.00">query.ts</text>
</g>
<!-- src/coreValidators/addresses.ts -->
<g id="node6" class="node">
<title>src/coreValidators/addresses.ts</title>
<path fill="#79cdcd" stroke="#79cdcd" d="M761,-149C761,-149 692,-149 692,-149 686,-149 680,-143 680,-137 680,-137 680,-125 680,-125 680,-119 686,-113 692,-113 692,-113 761,-113 761,-113 767,-113 773,-119 773,-125 773,-125 773,-137 773,-137 773,-143 767,-149 761,-149"/>
<text text-anchor="middle" x="726.5" y="-127.3" font-family="Helvetica,sans-Serif" font-size="14.00">addresses.ts</text>
</g>
<!-- src/crypto/crypto.ts -->
<g id="node7" class="node">
<title>src/crypto/crypto.ts</title>
<path fill="#79cdcd" stroke="#79cdcd" d="M452,-118C452,-118 408,-118 408,-118 402,-118 396,-112 396,-106 396,-106 396,-94 396,-94 396,-88 402,-82 408,-82 408,-82 452,-82 452,-82 458,-82 464,-88 464,-94 464,-94 464,-106 464,-106 464,-112 458,-118 452,-118"/>
<text text-anchor="middle" x="430" y="-96.3" font-family="Helvetica,sans-Serif" font-size="14.00">crypto.ts</text>
</g>
<!-- src/crypto/crypto.ts&#45;&gt;src/base32.ts -->
<g id="edge2" class="edge">
<title>src/crypto/crypto.ts&#45;&gt;src/base32.ts</title>
<path fill="none" stroke="#528b8b" stroke-width="2" d="M443.01,-81.85C455.15,-65.32 475.57,-42.02 500,-32 558.58,-7.98 632.4,-24.72 679.28,-40.53"/>
<polygon fill="#528b8b" stroke="#528b8b" stroke-width="2" points="678.27,-43.89 688.86,-43.88 680.58,-37.28 678.27,-43.89"/>
</g>
<!-- src/crypto/crypto.ts&#45;&gt;src/coreValidators/addresses.ts -->
<g id="edge4" class="edge">
<title>src/crypto/crypto.ts&#45;&gt;src/coreValidators/addresses.ts</title>
<path fill="none" stroke="#528b8b" stroke-width="2" d="M458.73,-118.05C473.92,-127.54 491.38,-137.68 500,-140 556.28,-155.13 623.29,-149.64 669.56,-142.38"/>
<polygon fill="#528b8b" stroke="#528b8b" stroke-width="2" points="670.39,-145.79 679.69,-140.72 669.25,-138.89 670.39,-145.79"/>
</g>
<!-- src/crypto/cryptoDriverNode.ts -->
<g id="node8" class="node">
<title>src/crypto/cryptoDriverNode.ts</title>
<path fill="#79cdcd" stroke="#79cdcd" d="M624,-77C624,-77 512,-77 512,-77 506,-77 500,-71 500,-65 500,-65 500,-53 500,-53 500,-47 506,-41 512,-41 512,-41 624,-41 624,-41 630,-41 636,-47 636,-53 636,-53 636,-65 636,-65 636,-71 630,-77 624,-77"/>
<text text-anchor="middle" x="568" y="-55.3" font-family="Helvetica,sans-Serif" font-size="14.00">cryptoDriverNode.ts</text>
</g>
<!-- src/crypto/crypto.ts&#45;&gt;src/crypto/cryptoDriverNode.ts -->
<g id="edge1" class="edge">
<title>src/crypto/crypto.ts&#45;&gt;src/crypto/cryptoDriverNode.ts</title>
<path fill="none" stroke="#528b8b" stroke-width="2" d="M464.27,-89.97C474.41,-86.91 485.95,-83.43 497.55,-79.94"/>
<polygon fill="#528b8b" stroke="#528b8b" stroke-width="2" points="498.72,-83.24 507.28,-77 496.69,-76.54 498.72,-83.24"/>
</g>
<!-- src/crypto/encoding.ts -->
<g id="node9" class="node">
<title>src/crypto/encoding.ts</title>
<path fill="#79cdcd" stroke="#79cdcd" d="M599,-131C599,-131 537,-131 537,-131 531,-131 525,-125 525,-119 525,-119 525,-107 525,-107 525,-101 531,-95 537,-95 537,-95 599,-95 599,-95 605,-95 611,-101 611,-107 611,-107 611,-119 611,-119 611,-125 605,-131 599,-131"/>
<text text-anchor="middle" x="568" y="-109.3" font-family="Helvetica,sans-Serif" font-size="14.00">encoding.ts</text>
</g>
<!-- src/crypto/crypto.ts&#45;&gt;src/crypto/encoding.ts -->
<g id="edge3" class="edge">
<title>src/crypto/crypto.ts&#45;&gt;src/crypto/encoding.ts</title>
<path fill="none" stroke="#528b8b" stroke-width="2" d="M464.27,-103.18C479.38,-104.62 497.61,-106.37 514.5,-107.98"/>
<polygon fill="#528b8b" stroke="#528b8b" stroke-width="2" points="514.51,-111.5 524.8,-108.97 515.18,-104.53 514.51,-111.5"/>
</g>
<!-- src/crypto/cryptoDriverNode.ts&#45;&gt;src/base32.ts -->
<g id="edge5" class="edge">
<title>src/crypto/cryptoDriverNode.ts&#45;&gt;src/base32.ts</title>
<path fill="none" stroke="#528b8b" stroke-width="2" d="M636.28,-59C650.53,-59 665.28,-59 678.57,-59"/>
<polygon fill="#528b8b" stroke="#528b8b" stroke-width="2" points="678.89,-62.5 688.89,-59 678.89,-55.5 678.89,-62.5"/>
</g>
<!-- src/crypto/encoding.ts&#45;&gt;src/base32.ts -->
<g id="edge6" class="edge">
<title>src/crypto/encoding.ts&#45;&gt;src/base32.ts</title>
<path fill="none" stroke="#528b8b" stroke-width="2" d="M611.35,-98.39C632.39,-91.13 657.85,-82.34 679.38,-74.91"/>
<polygon fill="#528b8b" stroke="#528b8b" stroke-width="2" points="680.65,-78.18 688.97,-71.61 678.37,-71.56 680.65,-78.18"/>
</g>
<!-- src/crypto/encoding.ts&#45;&gt;src/coreValidators/addresses.ts -->
<g id="edge7" class="edge">
<title>src/crypto/encoding.ts&#45;&gt;src/coreValidators/addresses.ts</title>
<path fill="none" stroke="#528b8b" stroke-width="2" d="M611.35,-117.87C629.31,-119.94 650.48,-122.37 669.69,-124.58"/>
<polygon fill="#528b8b" stroke="#528b8b" stroke-width="2" points="669.49,-128.08 679.82,-125.75 670.29,-121.13 669.49,-128.08"/>
</g>
<!-- src/docValidators/es4.ts&#45;&gt;src/crypto/crypto.ts -->
<g id="edge8" class="edge">
<title>src/docValidators/es4.ts&#45;&gt;src/crypto/crypto.ts</title>
<path fill="none" stroke="#528b8b" stroke-width="2" d="M288.09,-89.88C314.22,-91.75 354.88,-94.67 385.82,-96.9"/>
<polygon fill="#528b8b" stroke="#528b8b" stroke-width="2" points="385.68,-100.4 395.91,-97.62 386.18,-93.41 385.68,-100.4"/>
</g>
<!-- src/storage/storageAsync.ts&#45;&gt;src/crypto/crypto.ts -->
<g id="edge13" class="edge">
<title>src/storage/storageAsync.ts&#45;&gt;src/crypto/crypto.ts</title>
<path fill="none" stroke="#528b8b" stroke-width="2" d="M317.67,-160.63C334.53,-156.1 352.63,-149.76 368,-141 376.74,-136.02 377.91,-131.26 387.87,-122.86"/>
<polygon fill="#528b8b" stroke="#528b8b" stroke-width="2" points="390.02,-125.62 395.85,-116.78 385.78,-120.06 390.02,-125.62"/>
</g>
<!-- src/storage/storageDriverAsyncMemory.ts&#45;&gt;src/lock.ts -->
<g id="edge15" class="edge">
<title>src/storage/storageDriverAsyncMemory.ts&#45;&gt;src/lock.ts</title>
<path fill="none" stroke="#528b8b" stroke-width="2" d="M360.11,-237.92C371.48,-239.42 382.47,-240.87 392.21,-242.15"/>
<polygon fill="#528b8b" stroke="#528b8b" stroke-width="2" points="391.88,-245.64 402.25,-243.48 392.8,-238.7 391.88,-245.64"/>
</g>
<!-- src/storage/storageDriverAsyncMemory.ts&#45;&gt;src/query.ts -->
<g id="edge14" class="edge">
<title>src/storage/storageDriverAsyncMemory.ts&#45;&gt;src/query.ts</title>
<path fill="none" stroke="#528b8b" stroke-width="2" d="M356.24,-206.94C367.21,-204.84 377.94,-202.78 387.63,-200.93"/>
<polygon fill="#528b8b" stroke="#528b8b" stroke-width="2" points="388.55,-204.31 397.71,-198.99 387.23,-197.44 388.55,-204.31"/>
</g>
</g>
</svg>
