<?xml version="1.0" encoding="UTF-8" standalone="no"?>
<!DOCTYPE svg PUBLIC "-//W3C//DTD SVG 1.1//EN"
 "http://www.w3.org/Graphics/SVG/1.1/DTD/svg11.dtd">
<!-- Generated by graphviz version 2.44.1 (20200629.0846)
 -->
<!-- Title: G Pages: 1 -->
<svg width="1070pt" height="1063pt"
 viewBox="0.00 0.00 1070.00 1062.78" xmlns="http://www.w3.org/2000/svg" xmlns:xlink="http://www.w3.org/1999/xlink">
<g id="graph0" class="graph" transform="scale(1 1) rotate(0) translate(4 1058.78)">
<title>G</title>
<polygon fill="white" stroke="transparent" points="-4,4 -4,-1058.78 1066,-1058.78 1066,4 -4,4"/>
<g id="clust1" class="cluster">
<title>cluster3865972271</title>
<path fill="bisque" stroke="#8b7d6b" stroke-width="2" d="M811,-917.78C811,-917.78 1042,-917.78 1042,-917.78 1048,-917.78 1054,-923.78 1054,-929.78 1054,-929.78 1054,-1034.78 1054,-1034.78 1054,-1040.78 1048,-1046.78 1042,-1046.78 1042,-1046.78 811,-1046.78 811,-1046.78 805,-1046.78 799,-1040.78 799,-1034.78 799,-1034.78 799,-929.78 799,-929.78 799,-923.78 805,-917.78 811,-917.78"/>
<text text-anchor="start" x="878" y="-1032.58" font-family="Helvetica,sans-Serif" font-weight="bold" font-size="14.00">core&#45;validators</text>
</g>
<g id="clust2" class="cluster">
<title>cluster4066690945</title>
<path fill="bisque" stroke="#8b7d6b" stroke-width="2" d="M441,-424.78C441,-424.78 901.5,-424.78 901.5,-424.78 907.5,-424.78 913.5,-430.78 913.5,-436.78 913.5,-436.78 913.5,-689.78 913.5,-689.78 913.5,-695.78 907.5,-701.78 901.5,-701.78 901.5,-701.78 441,-701.78 441,-701.78 435,-701.78 429,-695.78 429,-689.78 429,-689.78 429,-436.78 429,-436.78 429,-430.78 435,-424.78 441,-424.78"/>
<text text-anchor="start" x="650.25" y="-687.58" font-family="Helvetica,sans-Serif" font-weight="bold" font-size="14.00">crypto</text>
</g>
<g id="clust3" class="cluster">
<title>cluster6323728164</title>
<path fill="bisque" stroke="#8b7d6b" stroke-width="2" d="M178,-790.78C178,-790.78 548,-790.78 548,-790.78 554,-790.78 560,-796.78 560,-802.78 560,-802.78 560,-853.78 560,-853.78 560,-859.78 554,-865.78 548,-865.78 548,-865.78 178,-865.78 178,-865.78 172,-865.78 166,-859.78 166,-853.78 166,-853.78 166,-802.78 166,-802.78 166,-796.78 172,-790.78 178,-790.78"/>
<text text-anchor="start" x="307" y="-851.58" font-family="Helvetica,sans-Serif" font-weight="bold" font-size="14.00">format&#45;validators</text>
</g>
<g id="clust4" class="cluster">
<title>cluster3267087462</title>
<path fill="bisque" stroke="#8b7d6b" stroke-width="2" d="M150,-47.78C150,-47.78 718,-47.78 718,-47.78 724,-47.78 730,-53.78 730,-59.78 730,-59.78 730,-358.78 730,-358.78 730,-364.78 724,-370.78 718,-370.78 718,-370.78 150,-370.78 150,-370.78 144,-370.78 138,-364.78 138,-358.78 138,-358.78 138,-59.78 138,-59.78 138,-53.78 144,-47.78 150,-47.78"/>
<text text-anchor="start" x="409.5" y="-356.58" font-family="Helvetica,sans-Serif" font-weight="bold" font-size="14.00">storage</text>
</g>
<!-- src/example&#45;app.ts -->
<g id="node1" class="node">
<title>src/example&#45;app.ts</title>
<path fill="#79cdcd" stroke="#79cdcd" d="M98,-212.78C98,-212.78 12,-212.78 12,-212.78 6,-212.78 0,-206.78 0,-200.78 0,-200.78 0,-188.78 0,-188.78 0,-182.78 6,-176.78 12,-176.78 12,-176.78 98,-176.78 98,-176.78 104,-176.78 110,-182.78 110,-188.78 110,-188.78 110,-200.78 110,-200.78 110,-206.78 104,-212.78 98,-212.78"/>
<text text-anchor="middle" x="55" y="-191.08" font-family="Helvetica,sans-Serif" font-size="14.00">example&#45;app.ts</text>
</g>
<!-- src/format&#45;validators/format&#45;validator&#45;es4.ts -->
<g id="node12" class="node">
<title>src/format&#45;validators/format&#45;validator&#45;es4.ts</title>
<path fill="#79cdcd" stroke="#79cdcd" d="M314,-834.78C314,-834.78 186,-834.78 186,-834.78 180,-834.78 174,-828.78 174,-822.78 174,-822.78 174,-810.78 174,-810.78 174,-804.78 180,-798.78 186,-798.78 186,-798.78 314,-798.78 314,-798.78 320,-798.78 326,-804.78 326,-810.78 326,-810.78 326,-822.78 326,-822.78 326,-828.78 320,-834.78 314,-834.78"/>
<text text-anchor="middle" x="250" y="-813.08" font-family="Helvetica,sans-Serif" font-size="14.00">format&#45;validator&#45;es4.ts</text>
</g>
<!-- src/example&#45;app.ts&#45;&gt;src/format&#45;validators/format&#45;validator&#45;es4.ts -->
<g id="edge16" class="edge">
<title>src/example&#45;app.ts&#45;&gt;src/format&#45;validators/format&#45;validator&#45;es4.ts</title>
<path fill="none" stroke="#528b8b" stroke-width="2" d="M61.67,-213.06C89,-301.13 207.12,-681.82 240.3,-788.75"/>
<polygon fill="#528b8b" stroke="#528b8b" stroke-width="2" points="237.02,-789.99 243.33,-798.51 243.71,-787.92 237.02,-789.99"/>
</g>
<!-- src/storage/follower.ts -->
<g id="node15" class="node">
<title>src/storage/follower.ts</title>
<path fill="#79cdcd" stroke="#79cdcd" d="M276.5,-158.78C276.5,-158.78 223.5,-158.78 223.5,-158.78 217.5,-158.78 211.5,-152.78 211.5,-146.78 211.5,-146.78 211.5,-134.78 211.5,-134.78 211.5,-128.78 217.5,-122.78 223.5,-122.78 223.5,-122.78 276.5,-122.78 276.5,-122.78 282.5,-122.78 288.5,-128.78 288.5,-134.78 288.5,-134.78 288.5,-146.78 288.5,-146.78 288.5,-152.78 282.5,-158.78 276.5,-158.78"/>
<text text-anchor="middle" x="250" y="-137.08" font-family="Helvetica,sans-Serif" font-size="14.00">follower.ts</text>
</g>
<!-- src/example&#45;app.ts&#45;&gt;src/storage/follower.ts -->
<g id="edge19" class="edge">
<title>src/example&#45;app.ts&#45;&gt;src/storage/follower.ts</title>
<path fill="none" stroke="#528b8b" stroke-width="2" d="M108.74,-176.73C118.43,-173.61 128.49,-170.5 138,-167.78 158.62,-161.89 181.63,-156.16 201.33,-151.5"/>
<polygon fill="#528b8b" stroke="#528b8b" stroke-width="2" points="202.36,-154.86 211.3,-149.17 200.76,-148.04 202.36,-154.86"/>
</g>
<!-- src/storage/storage&#45;async.ts -->
<g id="node19" class="node">
<title>src/storage/storage&#45;async.ts</title>
<path fill="#79cdcd" stroke="#79cdcd" d="M296,-300.78C296,-300.78 204,-300.78 204,-300.78 198,-300.78 192,-294.78 192,-288.78 192,-288.78 192,-276.78 192,-276.78 192,-270.78 198,-264.78 204,-264.78 204,-264.78 296,-264.78 296,-264.78 302,-264.78 308,-270.78 308,-276.78 308,-276.78 308,-288.78 308,-288.78 308,-294.78 302,-300.78 296,-300.78"/>
<text text-anchor="middle" x="250" y="-279.08" font-family="Helvetica,sans-Serif" font-size="14.00">storage&#45;async.ts</text>
</g>
<!-- src/example&#45;app.ts&#45;&gt;src/storage/storage&#45;async.ts -->
<g id="edge18" class="edge">
<title>src/example&#45;app.ts&#45;&gt;src/storage/storage&#45;async.ts</title>
<path fill="none" stroke="#528b8b" stroke-width="2" d="M95.52,-212.8C125.73,-226.58 167.56,-245.65 199.91,-260.4"/>
<polygon fill="#528b8b" stroke="#528b8b" stroke-width="2" points="198.65,-263.67 209.2,-264.64 201.55,-257.3 198.65,-263.67"/>
</g>
<!-- src/storage/storage&#45;driver&#45;async&#45;memory.ts -->
<g id="node20" class="node">
<title>src/storage/storage&#45;driver&#45;async&#45;memory.ts</title>
<path fill="#79cdcd" stroke="#79cdcd" d="M342,-212.78C342,-212.78 158,-212.78 158,-212.78 152,-212.78 146,-206.78 146,-200.78 146,-200.78 146,-188.78 146,-188.78 146,-182.78 152,-176.78 158,-176.78 158,-176.78 342,-176.78 342,-176.78 348,-176.78 354,-182.78 354,-188.78 354,-188.78 354,-200.78 354,-200.78 354,-206.78 348,-212.78 342,-212.78"/>
<text text-anchor="middle" x="250" y="-191.08" font-family="Helvetica,sans-Serif" font-size="14.00">storage&#45;driver&#45;async&#45;memory.ts</text>
</g>
<!-- src/example&#45;app.ts&#45;&gt;src/storage/storage&#45;driver&#45;async&#45;memory.ts -->
<g id="edge17" class="edge">
<title>src/example&#45;app.ts&#45;&gt;src/storage/storage&#45;driver&#45;async&#45;memory.ts</title>
<path fill="none" stroke="#528b8b" stroke-width="2" d="M110.02,-194.78C118.2,-194.78 126.89,-194.78 135.78,-194.78"/>
<polygon fill="#528b8b" stroke="#528b8b" stroke-width="2" points="135.88,-198.28 145.88,-194.78 135.88,-191.28 135.88,-198.28"/>
</g>
<!-- chalk -->
<g id="node29" class="node">
<title>chalk</title>
<polygon fill="#cdc8b1" stroke="#8b8878" points="498,-37.78 448,-37.78 444,-33.78 444,-1.78 494,-1.78 498,-5.78 498,-37.78"/>
<polyline fill="none" stroke="#8b8878" points="494,-33.78 444,-33.78 "/>
<polyline fill="none" stroke="#8b8878" points="494,-33.78 494,-1.78 "/>
<polyline fill="none" stroke="#8b8878" points="494,-33.78 498,-37.78 "/>
<text text-anchor="middle" x="471" y="-16.08" font-family="Helvetica,sans-Serif" font-size="14.00">chalk</text>
</g>
<!-- src/example&#45;app.ts&#45;&gt;chalk -->
<g id="edge50" class="edge">
<title>src/example&#45;app.ts&#45;&gt;chalk</title>
<path fill="none" stroke="#8b8878" stroke-width="1.5" stroke-dasharray="5,2" d="M59.85,-176.75C67.92,-143.88 89.99,-74.74 138,-43.78 230.24,15.7 368.35,0.13 433.5,-11.87"/>
<polygon fill="#8b8878" stroke="#8b8878" stroke-width="1.5" points="433.2,-15.37 443.68,-13.83 434.52,-8.5 433.2,-15.37"/>
</g>
<!-- src/core&#45;validators/addresses.ts -->
<g id="node2" class="node">
<title>src/core&#45;validators/addresses.ts</title>
<path fill="#79cdcd" stroke="#79cdcd" d="M888,-961.78C888,-961.78 819,-961.78 819,-961.78 813,-961.78 807,-955.78 807,-949.78 807,-949.78 807,-937.78 807,-937.78 807,-931.78 813,-925.78 819,-925.78 819,-925.78 888,-925.78 888,-925.78 894,-925.78 900,-931.78 900,-937.78 900,-937.78 900,-949.78 900,-949.78 900,-955.78 894,-961.78 888,-961.78"/>
<text text-anchor="middle" x="853.5" y="-940.08" font-family="Helvetica,sans-Serif" font-size="14.00">addresses.ts</text>
</g>
<!-- src/core&#45;validators/characters.ts -->
<g id="node3" class="node">
<title>src/core&#45;validators/characters.ts</title>
<path fill="#79cdcd" stroke="#79cdcd" d="M1034,-1015.78C1034,-1015.78 964,-1015.78 964,-1015.78 958,-1015.78 952,-1009.78 952,-1003.78 952,-1003.78 952,-991.78 952,-991.78 952,-985.78 958,-979.78 964,-979.78 964,-979.78 1034,-979.78 1034,-979.78 1040,-979.78 1046,-985.78 1046,-991.78 1046,-991.78 1046,-1003.78 1046,-1003.78 1046,-1009.78 1040,-1015.78 1034,-1015.78"/>
<text text-anchor="middle" x="999" y="-994.08" font-family="Helvetica,sans-Serif" font-size="14.00">characters.ts</text>
</g>
<!-- src/core&#45;validators/addresses.ts&#45;&gt;src/core&#45;validators/characters.ts -->
<g id="edge1" class="edge">
<title>src/core&#45;validators/addresses.ts&#45;&gt;src/core&#45;validators/characters.ts</title>
<path fill="none" stroke="#528b8b" stroke-width="2" d="M900.3,-961.02C913.63,-966.03 928.34,-971.57 942.21,-976.79"/>
<polygon fill="#528b8b" stroke="#528b8b" stroke-width="2" points="941.06,-980.1 951.65,-980.34 943.52,-973.55 941.06,-980.1"/>
</g>
<!-- src/core&#45;validators/checkers.ts -->
<g id="node4" class="node">
<title>src/core&#45;validators/checkers.ts</title>
<path fill="#79cdcd" stroke="#79cdcd" d="M884,-1015.78C884,-1015.78 823,-1015.78 823,-1015.78 817,-1015.78 811,-1009.78 811,-1003.78 811,-1003.78 811,-991.78 811,-991.78 811,-985.78 817,-979.78 823,-979.78 823,-979.78 884,-979.78 884,-979.78 890,-979.78 896,-985.78 896,-991.78 896,-991.78 896,-1003.78 896,-1003.78 896,-1009.78 890,-1015.78 884,-1015.78"/>
<text text-anchor="middle" x="853.5" y="-994.08" font-family="Helvetica,sans-Serif" font-size="14.00">checkers.ts</text>
</g>
<!-- src/core&#45;validators/checkers.ts&#45;&gt;src/core&#45;validators/characters.ts -->
<g id="edge2" class="edge">
<title>src/core&#45;validators/checkers.ts&#45;&gt;src/core&#45;validators/characters.ts</title>
<path fill="none" stroke="#528b8b" stroke-width="2" d="M896.01,-997.78C910.2,-997.78 926.32,-997.78 941.49,-997.78"/>
<polygon fill="#528b8b" stroke="#528b8b" stroke-width="2" points="941.8,-1001.28 951.8,-997.78 941.8,-994.28 941.8,-1001.28"/>
</g>
<!-- src/crypto/base32.ts -->
<g id="node5" class="node">
<title>src/crypto/base32.ts</title>
<path fill="#79cdcd" stroke="#79cdcd" d="M879,-478.78C879,-478.78 828,-478.78 828,-478.78 822,-478.78 816,-472.78 816,-466.78 816,-466.78 816,-454.78 816,-454.78 816,-448.78 822,-442.78 828,-442.78 828,-442.78 879,-442.78 879,-442.78 885,-442.78 891,-448.78 891,-454.78 891,-454.78 891,-466.78 891,-466.78 891,-472.78 885,-478.78 879,-478.78"/>
<text text-anchor="middle" x="853.5" y="-457.08" font-family="Helvetica,sans-Serif" font-size="14.00">base32.ts</text>
</g>
<!-- rfc4648 -->
<g id="node23" class="node">
<title>rfc4648</title>
<polygon fill="#cdc8b1" stroke="#8b8878" points="1030,-478.78 972,-478.78 968,-474.78 968,-442.78 1026,-442.78 1030,-446.78 1030,-478.78"/>
<polyline fill="none" stroke="#8b8878" points="1026,-474.78 968,-474.78 "/>
<polyline fill="none" stroke="#8b8878" points="1026,-474.78 1026,-442.78 "/>
<polyline fill="none" stroke="#8b8878" points="1026,-474.78 1030,-478.78 "/>
<text text-anchor="middle" x="999" y="-457.08" font-family="Helvetica,sans-Serif" font-size="14.00">rfc4648</text>
</g>
<!-- src/crypto/base32.ts&#45;&gt;rfc4648 -->
<g id="edge44" class="edge">
<title>src/crypto/base32.ts&#45;&gt;rfc4648</title>
<path fill="none" stroke="#8b8878" stroke-width="1.5" stroke-dasharray="5,2" d="M891.08,-460.78C911.4,-460.78 936.71,-460.78 957.61,-460.78"/>
<polygon fill="#8b8878" stroke="#8b8878" stroke-width="1.5" points="957.78,-464.28 967.78,-460.78 957.78,-457.28 957.78,-464.28"/>
</g>
<!-- src/crypto/crypto&#45;driver&#45;chloride.ts -->
<g id="node6" class="node">
<title>src/crypto/crypto&#45;driver&#45;chloride.ts</title>
<path fill="#79cdcd" stroke="#79cdcd" d="M738.5,-670.78C738.5,-670.78 604.5,-670.78 604.5,-670.78 598.5,-670.78 592.5,-664.78 592.5,-658.78 592.5,-658.78 592.5,-646.78 592.5,-646.78 592.5,-640.78 598.5,-634.78 604.5,-634.78 604.5,-634.78 738.5,-634.78 738.5,-634.78 744.5,-634.78 750.5,-640.78 750.5,-646.78 750.5,-646.78 750.5,-658.78 750.5,-658.78 750.5,-664.78 744.5,-670.78 738.5,-670.78"/>
<text text-anchor="middle" x="671.5" y="-649.08" font-family="Helvetica,sans-Serif" font-size="14.00">crypto&#45;driver&#45;chloride.ts</text>
</g>
<!-- src/crypto/crypto&#45;types.ts -->
<g id="node9" class="node">
<title>src/crypto/crypto&#45;types.ts</title>
<path fill="#79cdcd" stroke="#79cdcd" d="M893.5,-562.78C893.5,-562.78 813.5,-562.78 813.5,-562.78 807.5,-562.78 801.5,-556.78 801.5,-550.78 801.5,-550.78 801.5,-538.78 801.5,-538.78 801.5,-532.78 807.5,-526.78 813.5,-526.78 813.5,-526.78 893.5,-526.78 893.5,-526.78 899.5,-526.78 905.5,-532.78 905.5,-538.78 905.5,-538.78 905.5,-550.78 905.5,-550.78 905.5,-556.78 899.5,-562.78 893.5,-562.78"/>
<text text-anchor="middle" x="853.5" y="-541.08" font-family="Helvetica,sans-Serif" font-size="14.00">crypto&#45;types.ts</text>
</g>
<!-- src/crypto/crypto&#45;driver&#45;chloride.ts&#45;&gt;src/crypto/crypto&#45;types.ts -->
<g id="edge3" class="edge">
<title>src/crypto/crypto&#45;driver&#45;chloride.ts&#45;&gt;src/crypto/crypto&#45;types.ts</title>
<path fill="none" stroke="#528b8b" stroke-width="2" d="M736.15,-634.68C742.67,-632.02 749.06,-629.06 755,-625.78 782.14,-610.79 808.93,-587.77 827.54,-570.1"/>
<polygon fill="#528b8b" stroke="#528b8b" stroke-width="2" points="830.24,-572.36 835,-562.89 825.38,-567.33 830.24,-572.36"/>
</g>
<!-- chloride/small -->
<g id="node24" class="node">
<title>chloride/small</title>
<polygon fill="#cdc8b1" stroke="#8b8878" points="903.5,-907.78 807.5,-907.78 803.5,-903.78 803.5,-871.78 899.5,-871.78 903.5,-875.78 903.5,-907.78"/>
<polyline fill="none" stroke="#8b8878" points="899.5,-903.78 803.5,-903.78 "/>
<polyline fill="none" stroke="#8b8878" points="899.5,-903.78 899.5,-871.78 "/>
<polyline fill="none" stroke="#8b8878" points="899.5,-903.78 903.5,-907.78 "/>
<text text-anchor="middle" x="853.5" y="-886.08" font-family="Helvetica,sans-Serif" font-size="14.00">chloride/small</text>
</g>
<!-- src/crypto/crypto&#45;driver&#45;chloride.ts&#45;&gt;chloride/small -->
<g id="edge45" class="edge">
<title>src/crypto/crypto&#45;driver&#45;chloride.ts&#45;&gt;chloride/small</title>
<path fill="none" stroke="#8b8878" stroke-width="1.5" stroke-dasharray="5,2" d="M678.32,-671.07C691.88,-711 729.22,-806.9 791,-862.78 792.28,-863.94 793.61,-865.05 795,-866.12"/>
<polygon fill="#8b8878" stroke="#8b8878" stroke-width="1.5" points="793.11,-869.07 803.34,-871.8 797.04,-863.28 793.11,-869.07"/>
</g>
<!-- src/crypto/crypto&#45;driver&#45;node.ts -->
<g id="node7" class="node">
<title>src/crypto/crypto&#45;driver&#45;node.ts</title>
<path fill="#79cdcd" stroke="#79cdcd" d="M729.5,-616.78C729.5,-616.78 613.5,-616.78 613.5,-616.78 607.5,-616.78 601.5,-610.78 601.5,-604.78 601.5,-604.78 601.5,-592.78 601.5,-592.78 601.5,-586.78 607.5,-580.78 613.5,-580.78 613.5,-580.78 729.5,-580.78 729.5,-580.78 735.5,-580.78 741.5,-586.78 741.5,-592.78 741.5,-592.78 741.5,-604.78 741.5,-604.78 741.5,-610.78 735.5,-616.78 729.5,-616.78"/>
<text text-anchor="middle" x="671.5" y="-595.08" font-family="Helvetica,sans-Serif" font-size="14.00">crypto&#45;driver&#45;node.ts</text>
</g>
<!-- src/crypto/crypto&#45;driver&#45;node.ts&#45;&gt;src/crypto/crypto&#45;types.ts -->
<g id="edge4" class="edge">
<title>src/crypto/crypto&#45;driver&#45;node.ts&#45;&gt;src/crypto/crypto&#45;types.ts</title>
<path fill="none" stroke="#528b8b" stroke-width="2" d="M732.69,-580.73C751.66,-575.04 772.63,-568.75 791.64,-563.04"/>
<polygon fill="#528b8b" stroke="#528b8b" stroke-width="2" points="792.82,-566.34 801.39,-560.12 790.81,-559.64 792.82,-566.34"/>
</g>
<!-- crypto -->
<g id="node25" class="node">
<title>crypto</title>
<polygon fill="#cdc8b1" stroke="#8b8878" points="880.5,-853.78 830.5,-853.78 826.5,-849.78 826.5,-817.78 876.5,-817.78 880.5,-821.78 880.5,-853.78"/>
<polyline fill="none" stroke="#8b8878" points="876.5,-849.78 826.5,-849.78 "/>
<polyline fill="none" stroke="#8b8878" points="876.5,-849.78 876.5,-817.78 "/>
<polyline fill="none" stroke="#8b8878" points="876.5,-849.78 880.5,-853.78 "/>
<text text-anchor="middle" x="853.5" y="-832.08" font-family="Helvetica,sans-Serif" font-size="14.00">crypto</text>
</g>
<!-- src/crypto/crypto&#45;driver&#45;node.ts&#45;&gt;crypto -->
<g id="edge46" class="edge">
<title>src/crypto/crypto&#45;driver&#45;node.ts&#45;&gt;crypto</title>
<path fill="none" stroke="#8b8878" stroke-width="1.5" stroke-dasharray="5,2" d="M741.83,-614.85C746.72,-617.89 751.21,-621.5 755,-625.78 809.93,-687.86 739.16,-744.1 791,-808.78 797.56,-816.97 807.11,-822.74 816.74,-826.78"/>
<polygon fill="#8b8878" stroke="#8b8878" stroke-width="1.5" points="815.69,-830.12 826.28,-830.26 818.09,-823.55 815.69,-830.12"/>
</g>
<!-- src/crypto/crypto&#45;driver&#45;tweetnacl.ts -->
<g id="node8" class="node">
<title>src/crypto/crypto&#45;driver&#45;tweetnacl.ts</title>
<path fill="#79cdcd" stroke="#79cdcd" d="M743,-562.78C743,-562.78 600,-562.78 600,-562.78 594,-562.78 588,-556.78 588,-550.78 588,-550.78 588,-538.78 588,-538.78 588,-532.78 594,-526.78 600,-526.78 600,-526.78 743,-526.78 743,-526.78 749,-526.78 755,-532.78 755,-538.78 755,-538.78 755,-550.78 755,-550.78 755,-556.78 749,-562.78 743,-562.78"/>
<text text-anchor="middle" x="671.5" y="-541.08" font-family="Helvetica,sans-Serif" font-size="14.00">crypto&#45;driver&#45;tweetnacl.ts</text>
</g>
<!-- src/crypto/crypto&#45;driver&#45;tweetnacl.ts&#45;&gt;src/crypto/crypto&#45;types.ts -->
<g id="edge5" class="edge">
<title>src/crypto/crypto&#45;driver&#45;tweetnacl.ts&#45;&gt;src/crypto/crypto&#45;types.ts</title>
<path fill="none" stroke="#528b8b" stroke-width="2" d="M755.12,-544.78C767.35,-544.78 779.75,-544.78 791.43,-544.78"/>
<polygon fill="#528b8b" stroke="#528b8b" stroke-width="2" points="791.49,-548.28 801.49,-544.78 791.49,-541.28 791.49,-548.28"/>
</g>
<!-- tweetnacl -->
<g id="node26" class="node">
<title>tweetnacl</title>
<polygon fill="#cdc8b1" stroke="#8b8878" points="890.5,-799.78 820.5,-799.78 816.5,-795.78 816.5,-763.78 886.5,-763.78 890.5,-767.78 890.5,-799.78"/>
<polyline fill="none" stroke="#8b8878" points="886.5,-795.78 816.5,-795.78 "/>
<polyline fill="none" stroke="#8b8878" points="886.5,-795.78 886.5,-763.78 "/>
<polyline fill="none" stroke="#8b8878" points="886.5,-795.78 890.5,-799.78 "/>
<text text-anchor="middle" x="853.5" y="-778.08" font-family="Helvetica,sans-Serif" font-size="14.00">tweetnacl</text>
</g>
<!-- src/crypto/crypto&#45;driver&#45;tweetnacl.ts&#45;&gt;tweetnacl -->
<g id="edge47" class="edge">
<title>src/crypto/crypto&#45;driver&#45;tweetnacl.ts&#45;&gt;tweetnacl</title>
<path fill="none" stroke="#8b8878" stroke-width="1.5" stroke-dasharray="5,2" d="M744.86,-562.84C748.58,-565.44 752,-568.4 755,-571.78 809.93,-633.86 739.16,-690.1 791,-754.78 795.36,-760.23 801.04,-764.6 807.18,-768.1"/>
<polygon fill="#8b8878" stroke="#8b8878" stroke-width="1.5" points="805.9,-771.37 816.42,-772.64 808.99,-765.09 805.9,-771.37"/>
</g>
<!-- sha256&#45;uint8array -->
<g id="node27" class="node">
<title>sha256&#45;uint8array</title>
<polygon fill="#cdc8b1" stroke="#8b8878" points="916,-745.78 795,-745.78 791,-741.78 791,-709.78 912,-709.78 916,-713.78 916,-745.78"/>
<polyline fill="none" stroke="#8b8878" points="912,-741.78 791,-741.78 "/>
<polyline fill="none" stroke="#8b8878" points="912,-741.78 912,-709.78 "/>
<polyline fill="none" stroke="#8b8878" points="912,-741.78 916,-745.78 "/>
<text text-anchor="middle" x="853.5" y="-724.08" font-family="Helvetica,sans-Serif" font-size="14.00">sha256&#45;uint8array</text>
</g>
<!-- src/crypto/crypto&#45;driver&#45;tweetnacl.ts&#45;&gt;sha256&#45;uint8array -->
<g id="edge48" class="edge">
<title>src/crypto/crypto&#45;driver&#45;tweetnacl.ts&#45;&gt;sha256&#45;uint8array</title>
<path fill="none" stroke="#8b8878" stroke-width="1.5" stroke-dasharray="5,2" d="M744.22,-562.83C748.14,-565.43 751.79,-568.39 755,-571.78 795.18,-614.19 754.03,-655.82 788.68,-702.01"/>
<polygon fill="#8b8878" stroke="#8b8878" stroke-width="1.5" points="786.08,-704.36 795.19,-709.77 791.44,-699.86 786.08,-704.36"/>
</g>
<!-- src/crypto/crypto.ts -->
<g id="node10" class="node">
<title>src/crypto/crypto.ts</title>
<path fill="#79cdcd" stroke="#79cdcd" d="M493,-543.78C493,-543.78 449,-543.78 449,-543.78 443,-543.78 437,-537.78 437,-531.78 437,-531.78 437,-519.78 437,-519.78 437,-513.78 443,-507.78 449,-507.78 449,-507.78 493,-507.78 493,-507.78 499,-507.78 505,-513.78 505,-519.78 505,-519.78 505,-531.78 505,-531.78 505,-537.78 499,-543.78 493,-543.78"/>
<text text-anchor="middle" x="471" y="-522.08" font-family="Helvetica,sans-Serif" font-size="14.00">crypto.ts</text>
</g>
<!-- src/crypto/crypto.ts&#45;&gt;src/core&#45;validators/addresses.ts -->
<g id="edge12" class="edge">
<title>src/crypto/crypto.ts&#45;&gt;src/core&#45;validators/addresses.ts</title>
<path fill="none" stroke="#528b8b" stroke-width="2" d="M482.28,-544.03C517.54,-605.06 639.71,-804.59 791,-916.78 793.13,-918.36 795.37,-919.88 797.68,-921.32"/>
<polygon fill="#528b8b" stroke="#528b8b" stroke-width="2" points="796.44,-924.64 806.86,-926.55 799.9,-918.56 796.44,-924.64"/>
</g>
<!-- src/crypto/crypto.ts&#45;&gt;src/crypto/base32.ts -->
<g id="edge10" class="edge">
<title>src/crypto/crypto.ts&#45;&gt;src/crypto/base32.ts</title>
<path fill="none" stroke="#528b8b" stroke-width="2" d="M490.08,-507.47C511.34,-487.35 548.75,-456.26 588,-443.78 661.54,-420.42 752.23,-434.96 806.05,-447.77"/>
<polygon fill="#528b8b" stroke="#528b8b" stroke-width="2" points="805.43,-451.22 815.98,-450.21 807.1,-444.43 805.43,-451.22"/>
</g>
<!-- src/crypto/crypto.ts&#45;&gt;src/crypto/crypto&#45;driver&#45;chloride.ts -->
<g id="edge6" class="edge">
<title>src/crypto/crypto.ts&#45;&gt;src/crypto/crypto&#45;driver&#45;chloride.ts</title>
<path fill="none" stroke="#528b8b" stroke-width="2" d="M488.78,-544.15C509.95,-566.32 548.4,-603.43 588,-625.78 590.89,-627.41 593.89,-628.96 596.96,-630.43"/>
<polygon fill="#528b8b" stroke="#528b8b" stroke-width="2" points="595.79,-633.75 606.35,-634.61 598.64,-627.35 595.79,-633.75"/>
</g>
<!-- src/crypto/crypto.ts&#45;&gt;src/crypto/crypto&#45;driver&#45;node.ts -->
<g id="edge7" class="edge">
<title>src/crypto/crypto.ts&#45;&gt;src/crypto/crypto&#45;driver&#45;node.ts</title>
<path fill="none" stroke="#528b8b" stroke-width="2" d="M505.05,-539.51C528.14,-548.96 559.78,-561.58 588,-571.78 593.14,-573.64 598.47,-575.51 603.85,-577.36"/>
<polygon fill="#528b8b" stroke="#528b8b" stroke-width="2" points="602.94,-580.75 613.54,-580.65 605.19,-574.12 602.94,-580.75"/>
</g>
<!-- src/crypto/crypto.ts&#45;&gt;src/crypto/crypto&#45;driver&#45;tweetnacl.ts -->
<g id="edge8" class="edge">
<title>src/crypto/crypto.ts&#45;&gt;src/crypto/crypto&#45;driver&#45;tweetnacl.ts</title>
<path fill="none" stroke="#528b8b" stroke-width="2" d="M505.22,-528.96C525.2,-530.88 551.7,-533.41 577.62,-535.89"/>
<polygon fill="#528b8b" stroke="#528b8b" stroke-width="2" points="577.61,-539.41 587.9,-536.88 578.28,-532.44 577.61,-539.41"/>
</g>
<!-- src/crypto/crypto.ts&#45;&gt;src/crypto/crypto&#45;types.ts -->
<g id="edge9" class="edge">
<title>src/crypto/crypto.ts&#45;&gt;src/crypto/crypto&#45;types.ts</title>
<path fill="none" stroke="#528b8b" stroke-width="2" d="M505.3,-521.35C558.39,-515.07 665.38,-505.61 755,-517.78 766.97,-519.41 779.54,-522.11 791.52,-525.19"/>
<polygon fill="#528b8b" stroke="#528b8b" stroke-width="2" points="790.86,-528.64 801.43,-527.85 792.68,-521.88 790.86,-528.64"/>
</g>
<!-- src/crypto/keypair.ts -->
<g id="node11" class="node">
<title>src/crypto/keypair.ts</title>
<path fill="#79cdcd" stroke="#79cdcd" d="M696.5,-488.78C696.5,-488.78 646.5,-488.78 646.5,-488.78 640.5,-488.78 634.5,-482.78 634.5,-476.78 634.5,-476.78 634.5,-464.78 634.5,-464.78 634.5,-458.78 640.5,-452.78 646.5,-452.78 646.5,-452.78 696.5,-452.78 696.5,-452.78 702.5,-452.78 708.5,-458.78 708.5,-464.78 708.5,-464.78 708.5,-476.78 708.5,-476.78 708.5,-482.78 702.5,-488.78 696.5,-488.78"/>
<text text-anchor="middle" x="671.5" y="-467.08" font-family="Helvetica,sans-Serif" font-size="14.00">keypair.ts</text>
</g>
<!-- src/crypto/crypto.ts&#45;&gt;src/crypto/keypair.ts -->
<g id="edge11" class="edge">
<title>src/crypto/crypto.ts&#45;&gt;src/crypto/keypair.ts</title>
<path fill="none" stroke="#528b8b" stroke-width="2" d="M505.22,-516.58C537.91,-507.52 588.08,-493.62 624.57,-483.51"/>
<polygon fill="#528b8b" stroke="#528b8b" stroke-width="2" points="625.78,-486.81 634.48,-480.77 623.91,-480.06 625.78,-486.81"/>
</g>
<!-- browser&#45;or&#45;node -->
<g id="node28" class="node">
<title>browser&#45;or&#45;node</title>
<polygon fill="#cdc8b1" stroke="#8b8878" points="729.5,-414.78 617.5,-414.78 613.5,-410.78 613.5,-378.78 725.5,-378.78 729.5,-382.78 729.5,-414.78"/>
<polyline fill="none" stroke="#8b8878" points="725.5,-410.78 613.5,-410.78 "/>
<polyline fill="none" stroke="#8b8878" points="725.5,-410.78 725.5,-378.78 "/>
<polyline fill="none" stroke="#8b8878" points="725.5,-410.78 729.5,-414.78 "/>
<text text-anchor="middle" x="671.5" y="-393.08" font-family="Helvetica,sans-Serif" font-size="14.00">browser&#45;or&#45;node</text>
</g>
<!-- src/crypto/crypto.ts&#45;&gt;browser&#45;or&#45;node -->
<g id="edge49" class="edge">
<title>src/crypto/crypto.ts&#45;&gt;browser&#45;or&#45;node</title>
<path fill="none" stroke="#8b8878" stroke-width="1.5" stroke-dasharray="5,2" d="M487.38,-507.46C507.98,-484.06 546.74,-443.83 588,-420.78 592.88,-418.06 598.11,-415.61 603.47,-413.43"/>
<polygon fill="#8b8878" stroke="#8b8878" stroke-width="1.5" points="605.08,-416.56 613.21,-409.77 602.62,-410.01 605.08,-416.56"/>
</g>
<!-- src/crypto/keypair.ts&#45;&gt;src/core&#45;validators/addresses.ts -->
<g id="edge15" class="edge">
<title>src/crypto/keypair.ts&#45;&gt;src/core&#45;validators/addresses.ts</title>
<path fill="none" stroke="#528b8b" stroke-width="2" d="M708.55,-482.4C725.5,-489.78 744.3,-501.15 755,-517.78 851.3,-667.55 687.03,-772.24 791,-916.78 793.11,-919.71 795.6,-922.33 798.36,-924.66"/>
<polygon fill="#528b8b" stroke="#528b8b" stroke-width="2" points="796.54,-927.66 806.74,-930.53 800.55,-921.92 796.54,-927.66"/>
</g>
<!-- src/crypto/keypair.ts&#45;&gt;src/crypto/base32.ts -->
<g id="edge13" class="edge">
<title>src/crypto/keypair.ts&#45;&gt;src/crypto/base32.ts</title>
<path fill="none" stroke="#528b8b" stroke-width="2" d="M708.93,-468.76C736.77,-467.21 775.37,-465.07 805.53,-463.39"/>
<polygon fill="#528b8b" stroke="#528b8b" stroke-width="2" points="806.03,-466.87 815.82,-462.82 805.64,-459.88 806.03,-466.87"/>
</g>
<!-- src/crypto/keypair.ts&#45;&gt;src/crypto/crypto&#45;types.ts -->
<g id="edge14" class="edge">
<title>src/crypto/keypair.ts&#45;&gt;src/crypto/crypto&#45;types.ts</title>
<path fill="none" stroke="#528b8b" stroke-width="2" d="M708.76,-484.52C723.19,-490.07 739.93,-496.62 755,-502.78 770.4,-509.08 787.06,-516.16 802.18,-522.69"/>
<polygon fill="#528b8b" stroke="#528b8b" stroke-width="2" points="800.8,-525.91 811.37,-526.67 803.58,-519.48 800.8,-525.91"/>
</g>
<!-- src/format&#45;validators/format&#45;validator&#45;es4.ts&#45;&gt;src/core&#45;validators/addresses.ts -->
<g id="edge23" class="edge">
<title>src/format&#45;validators/format&#45;validator&#45;es4.ts&#45;&gt;src/core&#45;validators/addresses.ts</title>
<path fill="none" stroke="#528b8b" stroke-width="2" d="M326.27,-832.68C448.72,-858.53 688.29,-909.11 796.77,-932.02"/>
<polygon fill="#528b8b" stroke="#528b8b" stroke-width="2" points="796.34,-935.5 806.85,-934.15 797.79,-928.66 796.34,-935.5"/>
</g>
<!-- src/format&#45;validators/format&#45;validator&#45;es4.ts&#45;&gt;src/core&#45;validators/characters.ts -->
<g id="edge21" class="edge">
<title>src/format&#45;validators/format&#45;validator&#45;es4.ts&#45;&gt;src/core&#45;validators/characters.ts</title>
<path fill="none" stroke="#528b8b" stroke-width="2" d="M271.72,-834.84C297.72,-856.63 344.42,-893.06 390,-914.78 556.82,-994.31 607.75,-1000.83 791,-1024.78 846.09,-1031.99 861.15,-1033.58 916,-1024.78 924.6,-1023.4 933.52,-1021.26 942.18,-1018.77"/>
<polygon fill="#528b8b" stroke="#528b8b" stroke-width="2" points="943.26,-1022.1 951.81,-1015.83 941.22,-1015.4 943.26,-1022.1"/>
</g>
<!-- src/format&#45;validators/format&#45;validator&#45;es4.ts&#45;&gt;src/core&#45;validators/checkers.ts -->
<g id="edge22" class="edge">
<title>src/format&#45;validators/format&#45;validator&#45;es4.ts&#45;&gt;src/core&#45;validators/checkers.ts</title>
<path fill="none" stroke="#528b8b" stroke-width="2" d="M288.44,-834.79C316.08,-847.62 354.84,-864.67 390,-876.78 536.25,-927.16 714.68,-968.32 800.93,-986.98"/>
<polygon fill="#528b8b" stroke="#528b8b" stroke-width="2" points="800.22,-990.41 810.73,-989.09 801.69,-983.56 800.22,-990.41"/>
</g>
<!-- src/format&#45;validators/format&#45;validator&#45;es4.ts&#45;&gt;src/crypto/crypto.ts -->
<g id="edge24" class="edge">
<title>src/format&#45;validators/format&#45;validator&#45;es4.ts&#45;&gt;src/crypto/crypto.ts</title>
<path fill="none" stroke="#528b8b" stroke-width="2" d="M264.7,-798.58C302.11,-748.87 406.13,-610.66 450.04,-552.31"/>
<polygon fill="#528b8b" stroke="#528b8b" stroke-width="2" points="453.09,-554.08 456.31,-543.98 447.5,-549.87 453.09,-554.08"/>
</g>
<!-- src/format&#45;validators/format&#45;validator&#45;types.ts -->
<g id="node13" class="node">
<title>src/format&#45;validators/format&#45;validator&#45;types.ts</title>
<path fill="#79cdcd" stroke="#79cdcd" d="M540,-834.78C540,-834.78 402,-834.78 402,-834.78 396,-834.78 390,-828.78 390,-822.78 390,-822.78 390,-810.78 390,-810.78 390,-804.78 396,-798.78 402,-798.78 402,-798.78 540,-798.78 540,-798.78 546,-798.78 552,-804.78 552,-810.78 552,-810.78 552,-822.78 552,-822.78 552,-828.78 546,-834.78 540,-834.78"/>
<text text-anchor="middle" x="471" y="-813.08" font-family="Helvetica,sans-Serif" font-size="14.00">format&#45;validator&#45;types.ts</text>
</g>
<!-- src/format&#45;validators/format&#45;validator&#45;es4.ts&#45;&gt;src/format&#45;validators/format&#45;validator&#45;types.ts -->
<g id="edge20" class="edge">
<title>src/format&#45;validators/format&#45;validator&#45;es4.ts&#45;&gt;src/format&#45;validators/format&#45;validator&#45;types.ts</title>
<path fill="none" stroke="#528b8b" stroke-width="2" d="M326.06,-816.78C343.24,-816.78 361.68,-816.78 379.44,-816.78"/>
<polygon fill="#528b8b" stroke="#528b8b" stroke-width="2" points="379.8,-820.28 389.8,-816.78 379.8,-813.28 379.8,-820.28"/>
</g>
<!-- src/storage/compare.ts -->
<g id="node14" class="node">
<title>src/storage/compare.ts</title>
<path fill="#79cdcd" stroke="#79cdcd" d="M501,-319.78C501,-319.78 441,-319.78 441,-319.78 435,-319.78 429,-313.78 429,-307.78 429,-307.78 429,-295.78 429,-295.78 429,-289.78 435,-283.78 441,-283.78 441,-283.78 501,-283.78 501,-283.78 507,-283.78 513,-289.78 513,-295.78 513,-295.78 513,-307.78 513,-307.78 513,-313.78 507,-319.78 501,-319.78"/>
<text text-anchor="middle" x="471" y="-298.08" font-family="Helvetica,sans-Serif" font-size="14.00">compare.ts</text>
</g>
<!-- src/storage/util&#45;types.ts -->
<g id="node22" class="node">
<title>src/storage/util&#45;types.ts</title>
<path fill="#79cdcd" stroke="#79cdcd" d="M702,-280.78C702,-280.78 641,-280.78 641,-280.78 635,-280.78 629,-274.78 629,-268.78 629,-268.78 629,-256.78 629,-256.78 629,-250.78 635,-244.78 641,-244.78 641,-244.78 702,-244.78 702,-244.78 708,-244.78 714,-250.78 714,-256.78 714,-256.78 714,-268.78 714,-268.78 714,-274.78 708,-280.78 702,-280.78"/>
<text text-anchor="middle" x="671.5" y="-259.08" font-family="Helvetica,sans-Serif" font-size="14.00">util&#45;types.ts</text>
</g>
<!-- src/storage/compare.ts&#45;&gt;src/storage/util&#45;types.ts -->
<g id="edge25" class="edge">
<title>src/storage/compare.ts&#45;&gt;src/storage/util&#45;types.ts</title>
<path fill="none" stroke="#528b8b" stroke-width="2" d="M513.13,-293.7C543.8,-287.68 585.9,-279.41 618.83,-272.94"/>
<polygon fill="#528b8b" stroke="#528b8b" stroke-width="2" points="619.6,-276.35 628.74,-270.99 618.25,-269.48 619.6,-276.35"/>
</g>
<!-- src/storage/query&#45;types.ts -->
<g id="node17" class="node">
<title>src/storage/query&#45;types.ts</title>
<path fill="#79cdcd" stroke="#79cdcd" d="M710,-148.78C710,-148.78 633,-148.78 633,-148.78 627,-148.78 621,-142.78 621,-136.78 621,-136.78 621,-124.78 621,-124.78 621,-118.78 627,-112.78 633,-112.78 633,-112.78 710,-112.78 710,-112.78 716,-112.78 722,-118.78 722,-124.78 722,-124.78 722,-136.78 722,-136.78 722,-142.78 716,-148.78 710,-148.78"/>
<text text-anchor="middle" x="671.5" y="-127.08" font-family="Helvetica,sans-Serif" font-size="14.00">query&#45;types.ts</text>
</g>
<!-- src/storage/follower.ts&#45;&gt;src/storage/query&#45;types.ts -->
<g id="edge27" class="edge">
<title>src/storage/follower.ts&#45;&gt;src/storage/query&#45;types.ts</title>
<path fill="none" stroke="#528b8b" stroke-width="2" d="M276.08,-122.52C302.78,-104.29 347.03,-77.51 390,-66.78 463.31,-48.49 487.03,-47.18 560,-66.78 588.98,-74.57 618.2,-92.01 639.31,-106.73"/>
<polygon fill="#528b8b" stroke="#528b8b" stroke-width="2" points="637.39,-109.65 647.56,-112.62 641.46,-103.96 637.39,-109.65"/>
</g>
<!-- src/storage/storage&#45;types.ts -->
<g id="node21" class="node">
<title>src/storage/storage&#45;types.ts</title>
<path fill="#79cdcd" stroke="#79cdcd" d="M515.5,-185.78C515.5,-185.78 426.5,-185.78 426.5,-185.78 420.5,-185.78 414.5,-179.78 414.5,-173.78 414.5,-173.78 414.5,-161.78 414.5,-161.78 414.5,-155.78 420.5,-149.78 426.5,-149.78 426.5,-149.78 515.5,-149.78 515.5,-149.78 521.5,-149.78 527.5,-155.78 527.5,-161.78 527.5,-161.78 527.5,-173.78 527.5,-173.78 527.5,-179.78 521.5,-185.78 515.5,-185.78"/>
<text text-anchor="middle" x="471" y="-164.08" font-family="Helvetica,sans-Serif" font-size="14.00">storage&#45;types.ts</text>
</g>
<!-- src/storage/follower.ts&#45;&gt;src/storage/storage&#45;types.ts -->
<g id="edge28" class="edge">
<title>src/storage/follower.ts&#45;&gt;src/storage/storage&#45;types.ts</title>
<path fill="none" stroke="#528b8b" stroke-width="2" d="M288.65,-145.43C320.28,-149.33 366.24,-154.99 403.98,-159.65"/>
<polygon fill="#528b8b" stroke="#528b8b" stroke-width="2" points="404.03,-163.18 414.39,-160.93 404.89,-156.23 404.03,-163.18"/>
</g>
<!-- src/storage/follower.ts&#45;&gt;src/storage/util&#45;types.ts -->
<g id="edge26" class="edge">
<title>src/storage/follower.ts&#45;&gt;src/storage/util&#45;types.ts</title>
<path fill="none" stroke="#528b8b" stroke-width="2" d="M288.94,-147.07C308.95,-151.28 333.53,-157.9 354,-167.78 372.01,-176.48 371.41,-187.41 390,-194.78 460.68,-222.8 488.68,-187.45 560,-213.78 574.11,-218.99 574.61,-225.94 588,-232.78 597.87,-237.83 608.79,-242.43 619.37,-246.43"/>
<polygon fill="#528b8b" stroke="#528b8b" stroke-width="2" points="618.35,-249.78 628.95,-249.93 620.76,-243.21 618.35,-249.78"/>
</g>
<!-- src/storage/follower.ts&#45;&gt;chalk -->
<g id="edge51" class="edge">
<title>src/storage/follower.ts&#45;&gt;chalk</title>
<path fill="none" stroke="#8b8878" stroke-width="1.5" stroke-dasharray="5,2" d="M272.27,-122.67C298.44,-101.19 344.96,-65.56 390,-43.78 403.76,-37.13 419.75,-31.89 433.81,-28.02"/>
<polygon fill="#8b8878" stroke="#8b8878" stroke-width="1.5" points="434.85,-31.37 443.64,-25.45 433.08,-24.59 434.85,-31.37"/>
</g>
<!-- src/storage/lock.ts -->
<g id="node16" class="node">
<title>src/storage/lock.ts</title>
<path fill="#79cdcd" stroke="#79cdcd" d="M687,-223.78C687,-223.78 656,-223.78 656,-223.78 650,-223.78 644,-217.78 644,-211.78 644,-211.78 644,-199.78 644,-199.78 644,-193.78 650,-187.78 656,-187.78 656,-187.78 687,-187.78 687,-187.78 693,-187.78 699,-193.78 699,-199.78 699,-199.78 699,-211.78 699,-211.78 699,-217.78 693,-223.78 687,-223.78"/>
<text text-anchor="middle" x="671.5" y="-202.08" font-family="Helvetica,sans-Serif" font-size="14.00">lock.ts</text>
</g>
<!-- src/storage/query.ts -->
<g id="node18" class="node">
<title>src/storage/query.ts</title>
<path fill="#79cdcd" stroke="#79cdcd" d="M491,-111.78C491,-111.78 451,-111.78 451,-111.78 445,-111.78 439,-105.78 439,-99.78 439,-99.78 439,-87.78 439,-87.78 439,-81.78 445,-75.78 451,-75.78 451,-75.78 491,-75.78 491,-75.78 497,-75.78 503,-81.78 503,-87.78 503,-87.78 503,-99.78 503,-99.78 503,-105.78 497,-111.78 491,-111.78"/>
<text text-anchor="middle" x="471" y="-90.08" font-family="Helvetica,sans-Serif" font-size="14.00">query.ts</text>
</g>
<!-- src/storage/query.ts&#45;&gt;src/storage/query&#45;types.ts -->
<g id="edge29" class="edge">
<title>src/storage/query.ts&#45;&gt;src/storage/query&#45;types.ts</title>
<path fill="none" stroke="#528b8b" stroke-width="2" d="M503.02,-99.57C531.7,-104.91 575.11,-113 610.55,-119.61"/>
<polygon fill="#528b8b" stroke="#528b8b" stroke-width="2" points="610.32,-123.13 620.79,-121.52 611.6,-116.25 610.32,-123.13"/>
</g>
<!-- src/storage/storage&#45;async.ts&#45;&gt;src/crypto/crypto.ts -->
<g id="edge35" class="edge">
<title>src/storage/storage&#45;async.ts&#45;&gt;src/crypto/crypto.ts</title>
<path fill="none" stroke="#528b8b" stroke-width="2" d="M267.46,-301.05C306,-343.81 402.19,-450.54 446.71,-499.94"/>
<polygon fill="#528b8b" stroke="#528b8b" stroke-width="2" points="444.35,-502.55 453.65,-507.64 449.55,-497.87 444.35,-502.55"/>
</g>
<!-- src/storage/storage&#45;async.ts&#45;&gt;src/format&#45;validators/format&#45;validator&#45;types.ts -->
<g id="edge33" class="edge">
<title>src/storage/storage&#45;async.ts&#45;&gt;src/format&#45;validators/format&#45;validator&#45;types.ts</title>
<path fill="none" stroke="#528b8b" stroke-width="2" d="M254.84,-300.88C268.02,-360.91 314.76,-558.03 390,-705.78 405.96,-737.13 430.23,-769.35 447.85,-790.95"/>
<polygon fill="#528b8b" stroke="#528b8b" stroke-width="2" points="445.17,-793.21 454.24,-798.68 450.57,-788.75 445.17,-793.21"/>
</g>
<!-- src/storage/storage&#45;async.ts&#45;&gt;src/storage/compare.ts -->
<g id="edge34" class="edge">
<title>src/storage/storage&#45;async.ts&#45;&gt;src/storage/compare.ts</title>
<path fill="none" stroke="#528b8b" stroke-width="2" d="M308.25,-287.75C342.45,-290.72 385.52,-294.45 418.61,-297.33"/>
<polygon fill="#528b8b" stroke="#528b8b" stroke-width="2" points="418.72,-300.85 428.99,-298.23 419.33,-293.87 418.72,-300.85"/>
</g>
<!-- src/storage/storage&#45;async.ts&#45;&gt;src/storage/query&#45;types.ts -->
<g id="edge31" class="edge">
<title>src/storage/storage&#45;async.ts&#45;&gt;src/storage/query&#45;types.ts</title>
<path fill="none" stroke="#528b8b" stroke-width="2" d="M308.26,-270.96C371.4,-256.89 475.27,-230.73 560,-194.78 561.92,-193.97 599.84,-171.96 630.73,-153.97"/>
<polygon fill="#528b8b" stroke="#528b8b" stroke-width="2" points="632.75,-156.85 639.63,-148.79 629.22,-150.8 632.75,-156.85"/>
</g>
<!-- src/storage/storage&#45;async.ts&#45;&gt;src/storage/storage&#45;types.ts -->
<g id="edge32" class="edge">
<title>src/storage/storage&#45;async.ts&#45;&gt;src/storage/storage&#45;types.ts</title>
<path fill="none" stroke="#528b8b" stroke-width="2" d="M285.7,-264.56C323.83,-244.54 385.12,-212.36 426.45,-190.66"/>
<polygon fill="#528b8b" stroke="#528b8b" stroke-width="2" points="428.23,-193.67 435.46,-185.92 424.98,-187.47 428.23,-193.67"/>
</g>
<!-- src/storage/storage&#45;async.ts&#45;&gt;src/storage/util&#45;types.ts -->
<g id="edge30" class="edge">
<title>src/storage/storage&#45;async.ts&#45;&gt;src/storage/util&#45;types.ts</title>
<path fill="none" stroke="#528b8b" stroke-width="2" d="M293.62,-300.83C320.68,-311.29 356.75,-323.43 390,-328.78 464.59,-340.81 487.17,-348.88 560,-328.78 589.53,-320.64 619.13,-302.28 640.25,-287"/>
<polygon fill="#528b8b" stroke="#528b8b" stroke-width="2" points="642.53,-289.66 648.47,-280.88 638.36,-284.04 642.53,-289.66"/>
</g>
<!-- src/storage/storage&#45;async.ts&#45;&gt;chalk -->
<g id="edge52" class="edge">
<title>src/storage/storage&#45;async.ts&#45;&gt;chalk</title>
<path fill="none" stroke="#8b8878" stroke-width="1.5" stroke-dasharray="5,2" d="M299.04,-264.74C318.93,-254.93 340.46,-240.84 354,-221.78 400.75,-155.99 335.61,-103.42 390,-43.78 401.14,-31.57 418.23,-25.47 433.76,-22.47"/>
<polygon fill="#8b8878" stroke="#8b8878" stroke-width="1.5" points="434.32,-25.92 443.65,-20.91 433.23,-19.01 434.32,-25.92"/>
</g>
<!-- src/storage/storage&#45;driver&#45;async&#45;memory.ts&#45;&gt;src/storage/compare.ts -->
<g id="edge39" class="edge">
<title>src/storage/storage&#45;driver&#45;async&#45;memory.ts&#45;&gt;src/storage/compare.ts</title>
<path fill="none" stroke="#528b8b" stroke-width="2" d="M288.15,-212.94C325.62,-231.24 383.56,-259.55 423.94,-279.28"/>
<polygon fill="#528b8b" stroke="#528b8b" stroke-width="2" points="422.51,-282.48 433.03,-283.72 425.59,-276.19 422.51,-282.48"/>
</g>
<!-- src/storage/storage&#45;driver&#45;async&#45;memory.ts&#45;&gt;src/storage/lock.ts -->
<g id="edge41" class="edge">
<title>src/storage/storage&#45;driver&#45;async&#45;memory.ts&#45;&gt;src/storage/lock.ts</title>
<path fill="none" stroke="#528b8b" stroke-width="2" d="M354.16,-197.49C444.97,-199.87 572.1,-203.2 633.89,-204.82"/>
<polygon fill="#528b8b" stroke="#528b8b" stroke-width="2" points="633.85,-208.32 643.94,-205.09 634.03,-201.33 633.85,-208.32"/>
</g>
<!-- src/storage/storage&#45;driver&#45;async&#45;memory.ts&#45;&gt;src/storage/query&#45;types.ts -->
<g id="edge37" class="edge">
<title>src/storage/storage&#45;driver&#45;async&#45;memory.ts&#45;&gt;src/storage/query&#45;types.ts</title>
<path fill="none" stroke="#528b8b" stroke-width="2" d="M332.21,-176.71C339.72,-174.09 347.09,-171.12 354,-167.78 372.01,-159.09 371.14,-147.45 390,-140.78 429.19,-126.94 540.73,-127.11 610.78,-128.76"/>
<polygon fill="#528b8b" stroke="#528b8b" stroke-width="2" points="610.71,-132.26 620.8,-129.01 610.89,-125.26 610.71,-132.26"/>
</g>
<!-- src/storage/storage&#45;driver&#45;async&#45;memory.ts&#45;&gt;src/storage/query.ts -->
<g id="edge40" class="edge">
<title>src/storage/storage&#45;driver&#45;async&#45;memory.ts&#45;&gt;src/storage/query.ts</title>
<path fill="none" stroke="#528b8b" stroke-width="2" d="M336.75,-176.72C342.77,-174.13 348.59,-171.17 354,-167.78 374.84,-154.74 370.01,-140.1 390,-125.78 401.63,-117.46 415.73,-110.89 428.84,-105.92"/>
<polygon fill="#528b8b" stroke="#528b8b" stroke-width="2" points="430.37,-109.09 438.61,-102.44 428.02,-102.5 430.37,-109.09"/>
</g>
<!-- src/storage/storage&#45;driver&#45;async&#45;memory.ts&#45;&gt;src/storage/storage&#45;types.ts -->
<g id="edge38" class="edge">
<title>src/storage/storage&#45;driver&#45;async&#45;memory.ts&#45;&gt;src/storage/storage&#45;types.ts</title>
<path fill="none" stroke="#528b8b" stroke-width="2" d="M354.09,-182.08C371.11,-179.98 388.33,-177.85 404.11,-175.91"/>
<polygon fill="#528b8b" stroke="#528b8b" stroke-width="2" points="404.76,-179.35 414.26,-174.66 403.9,-172.41 404.76,-179.35"/>
</g>
<!-- src/storage/storage&#45;driver&#45;async&#45;memory.ts&#45;&gt;src/storage/util&#45;types.ts -->
<g id="edge36" class="edge">
<title>src/storage/storage&#45;driver&#45;async&#45;memory.ts&#45;&gt;src/storage/util&#45;types.ts</title>
<path fill="none" stroke="#528b8b" stroke-width="2" d="M354.16,-211.51C438.09,-225.11 553.05,-243.75 618.77,-254.4"/>
<polygon fill="#528b8b" stroke="#528b8b" stroke-width="2" points="618.45,-257.89 628.88,-256.04 619.57,-250.98 618.45,-257.89"/>
</g>
<!-- src/storage/storage&#45;driver&#45;async&#45;memory.ts&#45;&gt;chalk -->
<g id="edge53" class="edge">
<title>src/storage/storage&#45;driver&#45;async&#45;memory.ts&#45;&gt;chalk</title>
<path fill="none" stroke="#8b8878" stroke-width="1.5" stroke-dasharray="5,2" d="M342.69,-176.68C346.75,-174.09 350.56,-171.14 354,-167.78 395.11,-127.74 349.6,-84.54 390,-43.78 401.45,-32.24 418.21,-26.2 433.44,-23.06"/>
<polygon fill="#8b8878" stroke="#8b8878" stroke-width="1.5" points="434.39,-26.45 443.66,-21.32 433.21,-19.55 434.39,-26.45"/>
</g>
<!-- src/storage/storage&#45;types.ts&#45;&gt;src/storage/lock.ts -->
<g id="edge43" class="edge">
<title>src/storage/storage&#45;types.ts&#45;&gt;src/storage/lock.ts</title>
<path fill="none" stroke="#528b8b" stroke-width="2" d="M527.56,-178.42C561.52,-184.92 604,-193.05 633.8,-198.76"/>
<polygon fill="#528b8b" stroke="#528b8b" stroke-width="2" points="633.29,-202.23 643.77,-200.67 634.61,-195.35 633.29,-202.23"/>
</g>
<!-- src/storage/storage&#45;types.ts&#45;&gt;src/storage/query&#45;types.ts -->
<g id="edge42" class="edge">
<title>src/storage/storage&#45;types.ts&#45;&gt;src/storage/query&#45;types.ts</title>
<path fill="none" stroke="#528b8b" stroke-width="2" d="M527.56,-157.43C553.49,-152.59 584.4,-146.83 610.83,-141.91"/>
<polygon fill="#528b8b" stroke="#528b8b" stroke-width="2" points="611.53,-145.34 620.72,-140.06 610.24,-138.46 611.53,-145.34"/>
</g>
</g>
</svg>
