<?xml version="1.0" encoding="UTF-8" standalone="no"?>
<!DOCTYPE svg PUBLIC "-//W3C//DTD SVG 1.1//EN"
 "http://www.w3.org/Graphics/SVG/1.1/DTD/svg11.dtd">
<!-- Generated by graphviz version 2.44.1 (20200629.0846)
 -->
<!-- Title: G Pages: 1 -->
<svg width="1521pt" height="627pt"
 viewBox="0.00 0.00 1521.00 626.94" xmlns="http://www.w3.org/2000/svg" xmlns:xlink="http://www.w3.org/1999/xlink">
<g id="graph0" class="graph" transform="scale(1 1) rotate(0) translate(4 622.94)">
<title>G</title>
<polygon fill="white" stroke="transparent" points="-4,4 -4,-622.94 1517,-622.94 1517,4 -4,4"/>
<!-- src/example&#45;app.ts -->
<g id="node1" class="node">
<title>src/example&#45;app.ts</title>
<path fill="#79cdcd" stroke="#79cdcd" d="M119,-306.65C119,-306.65 12,-306.65 12,-306.65 6,-306.65 0,-300.65 0,-294.65 0,-294.65 0,-282.65 0,-282.65 0,-276.65 6,-270.65 12,-270.65 12,-270.65 119,-270.65 119,-270.65 125,-270.65 131,-276.65 131,-282.65 131,-282.65 131,-294.65 131,-294.65 131,-300.65 125,-306.65 119,-306.65"/>
<text text-anchor="middle" x="65.5" y="-284.95" font-family="Helvetica,sans-Serif" font-size="14.00">src/example&#45;app.ts</text>
</g>
<!-- src/format&#45;validators/format&#45;validator&#45;es4.ts -->
<g id="node11" class="node">
<title>src/format&#45;validators/format&#45;validator&#45;es4.ts</title>
<path fill="#79cdcd" stroke="#79cdcd" d="M433,-509.65C433,-509.65 179,-509.65 179,-509.65 173,-509.65 167,-503.65 167,-497.65 167,-497.65 167,-485.65 167,-485.65 167,-479.65 173,-473.65 179,-473.65 179,-473.65 433,-473.65 433,-473.65 439,-473.65 445,-479.65 445,-485.65 445,-485.65 445,-497.65 445,-497.65 445,-503.65 439,-509.65 433,-509.65"/>
<text text-anchor="middle" x="306" y="-487.95" font-family="Helvetica,sans-Serif" font-size="14.00">src/format&#45;validators/format&#45;validator&#45;es4.ts</text>
</g>
<!-- src/example&#45;app.ts&#45;&gt;src/format&#45;validators/format&#45;validator&#45;es4.ts -->
<g id="edge14" class="edge">
<title>src/example&#45;app.ts&#45;&gt;src/format&#45;validators/format&#45;validator&#45;es4.ts</title>
<path fill="none" stroke="#528b8b" stroke-width="2" d="M87.67,-306.67C130.43,-343.07 227.19,-425.43 275.87,-466.86"/>
<polygon fill="#528b8b" stroke="#528b8b" stroke-width="2" points="273.66,-469.57 283.54,-473.39 278.19,-464.24 273.66,-469.57"/>
</g>
<!-- src/storage/follower.ts -->
<g id="node14" class="node">
<title>src/storage/follower.ts</title>
<path fill="#79cdcd" stroke="#79cdcd" d="M368,-260.65C368,-260.65 244,-260.65 244,-260.65 238,-260.65 232,-254.65 232,-248.65 232,-248.65 232,-236.65 232,-236.65 232,-230.65 238,-224.65 244,-224.65 244,-224.65 368,-224.65 368,-224.65 374,-224.65 380,-230.65 380,-236.65 380,-236.65 380,-248.65 380,-248.65 380,-254.65 374,-260.65 368,-260.65"/>
<text text-anchor="middle" x="306" y="-238.95" font-family="Helvetica,sans-Serif" font-size="14.00">src/storage/follower.ts</text>
</g>
<!-- src/example&#45;app.ts&#45;&gt;src/storage/follower.ts -->
<g id="edge17" class="edge">
<title>src/example&#45;app.ts&#45;&gt;src/storage/follower.ts</title>
<path fill="none" stroke="#528b8b" stroke-width="2" d="M131.04,-276.21C159.05,-270.8 192.21,-264.41 222.02,-258.66"/>
<polygon fill="#528b8b" stroke="#528b8b" stroke-width="2" points="222.83,-262.07 231.99,-256.74 221.5,-255.19 222.83,-262.07"/>
</g>
<!-- src/storage/storage&#45;async.ts -->
<g id="node18" class="node">
<title>src/storage/storage&#45;async.ts</title>
<path fill="#79cdcd" stroke="#79cdcd" d="M387,-333.65C387,-333.65 225,-333.65 225,-333.65 219,-333.65 213,-327.65 213,-321.65 213,-321.65 213,-309.65 213,-309.65 213,-303.65 219,-297.65 225,-297.65 225,-297.65 387,-297.65 387,-297.65 393,-297.65 399,-303.65 399,-309.65 399,-309.65 399,-321.65 399,-321.65 399,-327.65 393,-333.65 387,-333.65"/>
<text text-anchor="middle" x="306" y="-311.95" font-family="Helvetica,sans-Serif" font-size="14.00">src/storage/storage&#45;async.ts</text>
</g>
<!-- src/example&#45;app.ts&#45;&gt;src/storage/storage&#45;async.ts -->
<g id="edge16" class="edge">
<title>src/example&#45;app.ts&#45;&gt;src/storage/storage&#45;async.ts</title>
<path fill="none" stroke="#528b8b" stroke-width="2" d="M131.04,-295.96C153.11,-298.46 178.37,-301.32 202.67,-304.07"/>
<polygon fill="#528b8b" stroke="#528b8b" stroke-width="2" points="202.32,-307.55 212.65,-305.2 203.11,-300.6 202.32,-307.55"/>
</g>
<!-- src/storage/storage&#45;driver&#45;async&#45;memory.ts -->
<g id="node19" class="node">
<title>src/storage/storage&#45;driver&#45;async&#45;memory.ts</title>
<path fill="#79cdcd" stroke="#79cdcd" d="M433,-157.65C433,-157.65 179,-157.65 179,-157.65 173,-157.65 167,-151.65 167,-145.65 167,-145.65 167,-133.65 167,-133.65 167,-127.65 173,-121.65 179,-121.65 179,-121.65 433,-121.65 433,-121.65 439,-121.65 445,-127.65 445,-133.65 445,-133.65 445,-145.65 445,-145.65 445,-151.65 439,-157.65 433,-157.65"/>
<text text-anchor="middle" x="306" y="-135.95" font-family="Helvetica,sans-Serif" font-size="14.00">src/storage/storage&#45;driver&#45;async&#45;memory.ts</text>
</g>
<!-- src/example&#45;app.ts&#45;&gt;src/storage/storage&#45;driver&#45;async&#45;memory.ts -->
<g id="edge15" class="edge">
<title>src/example&#45;app.ts&#45;&gt;src/storage/storage&#45;driver&#45;async&#45;memory.ts</title>
<path fill="none" stroke="#528b8b" stroke-width="2" d="M89.88,-270.39C109.88,-255.08 139.69,-233 167,-215.65 197.39,-196.36 233.01,-176.81 260.45,-162.38"/>
<polygon fill="#528b8b" stroke="#528b8b" stroke-width="2" points="262.18,-165.42 269.42,-157.68 258.94,-159.22 262.18,-165.42"/>
</g>
<!-- src/core&#45;validators/addresses.ts -->
<g id="node2" class="node">
<title>src/core&#45;validators/addresses.ts</title>
<path fill="#79cdcd" stroke="#79cdcd" d="M1257,-539.65C1257,-539.65 1074,-539.65 1074,-539.65 1068,-539.65 1062,-533.65 1062,-527.65 1062,-527.65 1062,-515.65 1062,-515.65 1062,-509.65 1068,-503.65 1074,-503.65 1074,-503.65 1257,-503.65 1257,-503.65 1263,-503.65 1269,-509.65 1269,-515.65 1269,-515.65 1269,-527.65 1269,-527.65 1269,-533.65 1263,-539.65 1257,-539.65"/>
<text text-anchor="middle" x="1165.5" y="-517.95" font-family="Helvetica,sans-Serif" font-size="14.00">src/core&#45;validators/addresses.ts</text>
</g>
<!-- src/core&#45;validators/characters.ts -->
<g id="node3" class="node">
<title>src/core&#45;validators/characters.ts</title>
<path fill="#79cdcd" stroke="#79cdcd" d="M1501,-593.65C1501,-593.65 1317,-593.65 1317,-593.65 1311,-593.65 1305,-587.65 1305,-581.65 1305,-581.65 1305,-569.65 1305,-569.65 1305,-563.65 1311,-557.65 1317,-557.65 1317,-557.65 1501,-557.65 1501,-557.65 1507,-557.65 1513,-563.65 1513,-569.65 1513,-569.65 1513,-581.65 1513,-581.65 1513,-587.65 1507,-593.65 1501,-593.65"/>
<text text-anchor="middle" x="1409" y="-571.95" font-family="Helvetica,sans-Serif" font-size="14.00">src/core&#45;validators/characters.ts</text>
</g>
<!-- src/core&#45;validators/addresses.ts&#45;&gt;src/core&#45;validators/characters.ts -->
<g id="edge1" class="edge">
<title>src/core&#45;validators/addresses.ts&#45;&gt;src/core&#45;validators/characters.ts</title>
<path fill="none" stroke="#528b8b" stroke-width="2" d="M1247.25,-539.71C1269.81,-544.75 1294.46,-550.27 1317.54,-555.43"/>
<polygon fill="#528b8b" stroke="#528b8b" stroke-width="2" points="1316.8,-558.85 1327.32,-557.62 1318.33,-552.02 1316.8,-558.85"/>
</g>
<!-- src/core&#45;validators/checkers.ts -->
<g id="node4" class="node">
<title>src/core&#45;validators/checkers.ts</title>
<path fill="#79cdcd" stroke="#79cdcd" d="M1253,-593.65C1253,-593.65 1078,-593.65 1078,-593.65 1072,-593.65 1066,-587.65 1066,-581.65 1066,-581.65 1066,-569.65 1066,-569.65 1066,-563.65 1072,-557.65 1078,-557.65 1078,-557.65 1253,-557.65 1253,-557.65 1259,-557.65 1265,-563.65 1265,-569.65 1265,-569.65 1265,-581.65 1265,-581.65 1265,-587.65 1259,-593.65 1253,-593.65"/>
<text text-anchor="middle" x="1165.5" y="-571.95" font-family="Helvetica,sans-Serif" font-size="14.00">src/core&#45;validators/checkers.ts</text>
</g>
<!-- src/core&#45;validators/checkers.ts&#45;&gt;src/core&#45;validators/characters.ts -->
<g id="edge2" class="edge">
<title>src/core&#45;validators/checkers.ts&#45;&gt;src/core&#45;validators/characters.ts</title>
<path fill="none" stroke="#528b8b" stroke-width="2" d="M1265.08,-575.65C1274.76,-575.65 1284.63,-575.65 1294.45,-575.65"/>
<polygon fill="#528b8b" stroke="#528b8b" stroke-width="2" points="1294.64,-579.15 1304.64,-575.65 1294.64,-572.15 1294.64,-579.15"/>
</g>
<!-- src/crypto/base32.ts -->
<g id="node5" class="node">
<title>src/crypto/base32.ts</title>
<path fill="#79cdcd" stroke="#79cdcd" d="M1222,-476.65C1222,-476.65 1109,-476.65 1109,-476.65 1103,-476.65 1097,-470.65 1097,-464.65 1097,-464.65 1097,-452.65 1097,-452.65 1097,-446.65 1103,-440.65 1109,-440.65 1109,-440.65 1222,-440.65 1222,-440.65 1228,-440.65 1234,-446.65 1234,-452.65 1234,-452.65 1234,-464.65 1234,-464.65 1234,-470.65 1228,-476.65 1222,-476.65"/>
<text text-anchor="middle" x="1165.5" y="-454.95" font-family="Helvetica,sans-Serif" font-size="14.00">src/crypto/base32.ts</text>
</g>
<!-- src/crypto/crypto&#45;driver&#45;chloride.ts -->
<g id="node6" class="node">
<title>src/crypto/crypto&#45;driver&#45;chloride.ts</title>
<path fill="#79cdcd" stroke="#79cdcd" d="M1014,-329.65C1014,-329.65 818,-329.65 818,-329.65 812,-329.65 806,-323.65 806,-317.65 806,-317.65 806,-305.65 806,-305.65 806,-299.65 812,-293.65 818,-293.65 818,-293.65 1014,-293.65 1014,-293.65 1020,-293.65 1026,-299.65 1026,-305.65 1026,-305.65 1026,-317.65 1026,-317.65 1026,-323.65 1020,-329.65 1014,-329.65"/>
<text text-anchor="middle" x="916" y="-307.95" font-family="Helvetica,sans-Serif" font-size="14.00">src/crypto/crypto&#45;driver&#45;chloride.ts</text>
</g>
<!-- src/crypto/crypto&#45;types.ts -->
<g id="node8" class="node">
<title>src/crypto/crypto&#45;types.ts</title>
<path fill="#79cdcd" stroke="#79cdcd" d="M1237,-394.65C1237,-394.65 1094,-394.65 1094,-394.65 1088,-394.65 1082,-388.65 1082,-382.65 1082,-382.65 1082,-370.65 1082,-370.65 1082,-364.65 1088,-358.65 1094,-358.65 1094,-358.65 1237,-358.65 1237,-358.65 1243,-358.65 1249,-364.65 1249,-370.65 1249,-370.65 1249,-382.65 1249,-382.65 1249,-388.65 1243,-394.65 1237,-394.65"/>
<text text-anchor="middle" x="1165.5" y="-372.95" font-family="Helvetica,sans-Serif" font-size="14.00">src/crypto/crypto&#45;types.ts</text>
</g>
<!-- src/crypto/crypto&#45;driver&#45;chloride.ts&#45;&gt;src/crypto/crypto&#45;types.ts -->
<g id="edge3" class="edge">
<title>src/crypto/crypto&#45;driver&#45;chloride.ts&#45;&gt;src/crypto/crypto&#45;types.ts</title>
<path fill="none" stroke="#528b8b" stroke-width="2" d="M985.61,-329.67C1016.73,-337.85 1053.69,-347.55 1085.92,-356.02"/>
<polygon fill="#528b8b" stroke="#528b8b" stroke-width="2" points="1085.19,-359.44 1095.75,-358.6 1086.97,-352.67 1085.19,-359.44"/>
</g>
<!-- src/crypto/crypto&#45;driver&#45;node.ts -->
<g id="node7" class="node">
<title>src/crypto/crypto&#45;driver&#45;node.ts</title>
<path fill="#79cdcd" stroke="#79cdcd" d="M1005.5,-421.65C1005.5,-421.65 826.5,-421.65 826.5,-421.65 820.5,-421.65 814.5,-415.65 814.5,-409.65 814.5,-409.65 814.5,-397.65 814.5,-397.65 814.5,-391.65 820.5,-385.65 826.5,-385.65 826.5,-385.65 1005.5,-385.65 1005.5,-385.65 1011.5,-385.65 1017.5,-391.65 1017.5,-397.65 1017.5,-397.65 1017.5,-409.65 1017.5,-409.65 1017.5,-415.65 1011.5,-421.65 1005.5,-421.65"/>
<text text-anchor="middle" x="916" y="-399.95" font-family="Helvetica,sans-Serif" font-size="14.00">src/crypto/crypto&#45;driver&#45;node.ts</text>
</g>
<!-- src/crypto/crypto&#45;driver&#45;node.ts&#45;&gt;src/crypto/crypto&#45;types.ts -->
<g id="edge4" class="edge">
<title>src/crypto/crypto&#45;driver&#45;node.ts&#45;&gt;src/crypto/crypto&#45;types.ts</title>
<path fill="none" stroke="#528b8b" stroke-width="2" d="M1017.67,-392.67C1035.46,-390.73 1053.9,-388.72 1071.47,-386.8"/>
<polygon fill="#528b8b" stroke="#528b8b" stroke-width="2" points="1072.14,-390.25 1081.7,-385.69 1071.38,-383.29 1072.14,-390.25"/>
</g>
<!-- src/crypto/crypto.ts -->
<g id="node9" class="node">
<title>src/crypto/crypto.ts</title>
<path fill="#79cdcd" stroke="#79cdcd" d="M678.5,-455.65C678.5,-455.65 572.5,-455.65 572.5,-455.65 566.5,-455.65 560.5,-449.65 560.5,-443.65 560.5,-443.65 560.5,-431.65 560.5,-431.65 560.5,-425.65 566.5,-419.65 572.5,-419.65 572.5,-419.65 678.5,-419.65 678.5,-419.65 684.5,-419.65 690.5,-425.65 690.5,-431.65 690.5,-431.65 690.5,-443.65 690.5,-443.65 690.5,-449.65 684.5,-455.65 678.5,-455.65"/>
<text text-anchor="middle" x="625.5" y="-433.95" font-family="Helvetica,sans-Serif" font-size="14.00">src/crypto/crypto.ts</text>
</g>
<!-- src/crypto/crypto.ts&#45;&gt;src/core&#45;validators/addresses.ts -->
<g id="edge10" class="edge">
<title>src/crypto/crypto.ts&#45;&gt;src/core&#45;validators/addresses.ts</title>
<path fill="none" stroke="#528b8b" stroke-width="2" d="M690.84,-438.61C717.27,-441.69 747,-448.89 770,-464.65 795.03,-481.8 779.49,-507.91 806,-522.65 891.45,-570.19 928.22,-523.01 1026,-522.65 1034.3,-522.62 1042.87,-522.58 1051.5,-522.54"/>
<polygon fill="#528b8b" stroke="#528b8b" stroke-width="2" points="1051.66,-526.04 1061.64,-522.48 1051.62,-519.04 1051.66,-526.04"/>
</g>
<!-- src/crypto/crypto.ts&#45;&gt;src/crypto/base32.ts -->
<g id="edge8" class="edge">
<title>src/crypto/crypto.ts&#45;&gt;src/crypto/base32.ts</title>
<path fill="none" stroke="#528b8b" stroke-width="2" d="M690.59,-440.16C789.65,-444.02 979.65,-451.44 1086.53,-455.61"/>
<polygon fill="#528b8b" stroke="#528b8b" stroke-width="2" points="1086.48,-459.11 1096.61,-456 1086.75,-452.12 1086.48,-459.11"/>
</g>
<!-- src/crypto/crypto.ts&#45;&gt;src/crypto/crypto&#45;driver&#45;chloride.ts -->
<g id="edge5" class="edge">
<title>src/crypto/crypto.ts&#45;&gt;src/crypto/crypto&#45;driver&#45;chloride.ts</title>
<path fill="none" stroke="#528b8b" stroke-width="2" d="M690.82,-434.54C717.4,-430.56 747.24,-422.32 770,-405.65 795.71,-386.83 780.93,-363.32 806,-343.65 810.41,-340.19 815.19,-337.11 820.2,-334.35"/>
<polygon fill="#528b8b" stroke="#528b8b" stroke-width="2" points="822.04,-337.34 829.43,-329.75 818.92,-331.08 822.04,-337.34"/>
</g>
<!-- src/crypto/crypto.ts&#45;&gt;src/crypto/crypto&#45;driver&#45;node.ts -->
<g id="edge6" class="edge">
<title>src/crypto/crypto.ts&#45;&gt;src/crypto/crypto&#45;driver&#45;node.ts</title>
<path fill="none" stroke="#528b8b" stroke-width="2" d="M690.53,-430.11C723.9,-426.18 765.67,-421.25 804.1,-416.72"/>
<polygon fill="#528b8b" stroke="#528b8b" stroke-width="2" points="804.8,-420.17 814.32,-415.52 803.98,-413.21 804.8,-420.17"/>
</g>
<!-- src/crypto/crypto.ts&#45;&gt;src/crypto/crypto&#45;types.ts -->
<g id="edge7" class="edge">
<title>src/crypto/crypto.ts&#45;&gt;src/crypto/crypto&#45;types.ts</title>
<path fill="none" stroke="#528b8b" stroke-width="2" d="M667.22,-419.52C702.97,-404.66 756.8,-384.79 806,-376.65 895.29,-361.9 998.81,-363.9 1071.59,-368.39"/>
<polygon fill="#528b8b" stroke="#528b8b" stroke-width="2" points="1071.44,-371.89 1081.65,-369.04 1071.89,-364.91 1071.44,-371.89"/>
</g>
<!-- src/crypto/keypair.ts -->
<g id="node10" class="node">
<title>src/crypto/keypair.ts</title>
<path fill="#79cdcd" stroke="#79cdcd" d="M972.5,-513.65C972.5,-513.65 859.5,-513.65 859.5,-513.65 853.5,-513.65 847.5,-507.65 847.5,-501.65 847.5,-501.65 847.5,-489.65 847.5,-489.65 847.5,-483.65 853.5,-477.65 859.5,-477.65 859.5,-477.65 972.5,-477.65 972.5,-477.65 978.5,-477.65 984.5,-483.65 984.5,-489.65 984.5,-489.65 984.5,-501.65 984.5,-501.65 984.5,-507.65 978.5,-513.65 972.5,-513.65"/>
<text text-anchor="middle" x="916" y="-491.95" font-family="Helvetica,sans-Serif" font-size="14.00">src/crypto/keypair.ts</text>
</g>
<!-- src/crypto/crypto.ts&#45;&gt;src/crypto/keypair.ts -->
<g id="edge9" class="edge">
<title>src/crypto/crypto.ts&#45;&gt;src/crypto/keypair.ts</title>
<path fill="none" stroke="#528b8b" stroke-width="2" d="M690.86,-449.41C715.62,-454.03 744.15,-459.46 770,-464.65 791.89,-469.05 815.58,-474.03 837.35,-478.69"/>
<polygon fill="#528b8b" stroke="#528b8b" stroke-width="2" points="836.69,-482.12 847.21,-480.8 838.16,-475.28 836.69,-482.12"/>
</g>
<!-- src/crypto/keypair.ts&#45;&gt;src/core&#45;validators/addresses.ts -->
<g id="edge13" class="edge">
<title>src/crypto/keypair.ts&#45;&gt;src/core&#45;validators/addresses.ts</title>
<path fill="none" stroke="#528b8b" stroke-width="2" d="M984.63,-502.76C1005.33,-504.93 1028.68,-507.39 1051.54,-509.79"/>
<polygon fill="#528b8b" stroke="#528b8b" stroke-width="2" points="1051.33,-513.29 1061.64,-510.85 1052.06,-506.32 1051.33,-513.29"/>
</g>
<!-- src/crypto/keypair.ts&#45;&gt;src/crypto/base32.ts -->
<g id="edge11" class="edge">
<title>src/crypto/keypair.ts&#45;&gt;src/crypto/base32.ts</title>
<path fill="none" stroke="#528b8b" stroke-width="2" d="M984.63,-485.54C1016.28,-480.81 1054.14,-475.15 1086.95,-470.25"/>
<polygon fill="#528b8b" stroke="#528b8b" stroke-width="2" points="1087.58,-473.69 1096.95,-468.75 1086.54,-466.77 1087.58,-473.69"/>
</g>
<!-- src/crypto/keypair.ts&#45;&gt;src/crypto/crypto&#45;types.ts -->
<g id="edge12" class="edge">
<title>src/crypto/keypair.ts&#45;&gt;src/crypto/crypto&#45;types.ts</title>
<path fill="none" stroke="#528b8b" stroke-width="2" d="M954.59,-477.58C998.33,-456.55 1070.57,-421.82 1117.86,-399.08"/>
<polygon fill="#528b8b" stroke="#528b8b" stroke-width="2" points="1119.47,-402.19 1126.96,-394.7 1116.43,-395.88 1119.47,-402.19"/>
</g>
<!-- src/format&#45;validators/format&#45;validator&#45;es4.ts&#45;&gt;src/core&#45;validators/characters.ts -->
<g id="edge19" class="edge">
<title>src/format&#45;validators/format&#45;validator&#45;es4.ts&#45;&gt;src/core&#45;validators/characters.ts</title>
<path fill="none" stroke="#528b8b" stroke-width="2" d="M354.66,-509.71C389.23,-522.06 437.38,-537.76 481,-546.65 825.03,-616.79 919.51,-636.28 1269,-602.65 1285.21,-601.09 1302.34,-598.53 1318.83,-595.59"/>
<polygon fill="#528b8b" stroke="#528b8b" stroke-width="2" points="1319.8,-598.98 1329,-593.72 1318.53,-592.09 1319.8,-598.98"/>
</g>
<!-- src/format&#45;validators/format&#45;validator&#45;es4.ts&#45;&gt;src/core&#45;validators/checkers.ts -->
<g id="edge20" class="edge">
<title>src/format&#45;validators/format&#45;validator&#45;es4.ts&#45;&gt;src/core&#45;validators/checkers.ts</title>
<path fill="none" stroke="#528b8b" stroke-width="2" d="M415.9,-509.72C437.44,-512.96 459.91,-516.11 481,-518.65 683.21,-543.03 920.33,-560.28 1055.45,-569.04"/>
<polygon fill="#528b8b" stroke="#528b8b" stroke-width="2" points="1055.59,-572.56 1065.8,-569.71 1056.04,-565.57 1055.59,-572.56"/>
</g>
<!-- src/format&#45;validators/format&#45;validator&#45;es4.ts&#45;&gt;src/crypto/crypto.ts -->
<g id="edge21" class="edge">
<title>src/format&#45;validators/format&#45;validator&#45;es4.ts&#45;&gt;src/crypto/crypto.ts</title>
<path fill="none" stroke="#528b8b" stroke-width="2" d="M413.16,-473.6C458.13,-465.95 509.44,-457.22 550.24,-450.28"/>
<polygon fill="#528b8b" stroke="#528b8b" stroke-width="2" points="550.84,-453.73 560.11,-448.61 549.67,-446.83 550.84,-453.73"/>
</g>
<!-- src/format&#45;validators/format&#45;validator&#45;types.ts -->
<g id="node12" class="node">
<title>src/format&#45;validators/format&#45;validator&#45;types.ts</title>
<path fill="#79cdcd" stroke="#79cdcd" d="M758,-509.65C758,-509.65 493,-509.65 493,-509.65 487,-509.65 481,-503.65 481,-497.65 481,-497.65 481,-485.65 481,-485.65 481,-479.65 487,-473.65 493,-473.65 493,-473.65 758,-473.65 758,-473.65 764,-473.65 770,-479.65 770,-485.65 770,-485.65 770,-497.65 770,-497.65 770,-503.65 764,-509.65 758,-509.65"/>
<text text-anchor="middle" x="625.5" y="-487.95" font-family="Helvetica,sans-Serif" font-size="14.00">src/format&#45;validators/format&#45;validator&#45;types.ts</text>
</g>
<!-- src/format&#45;validators/format&#45;validator&#45;es4.ts&#45;&gt;src/format&#45;validators/format&#45;validator&#45;types.ts -->
<g id="edge18" class="edge">
<title>src/format&#45;validators/format&#45;validator&#45;es4.ts&#45;&gt;src/format&#45;validators/format&#45;validator&#45;types.ts</title>
<path fill="none" stroke="#528b8b" stroke-width="2" d="M445.34,-491.65C453.71,-491.65 462.16,-491.65 470.6,-491.65"/>
<polygon fill="#528b8b" stroke="#528b8b" stroke-width="2" points="470.87,-495.15 480.87,-491.65 470.87,-488.15 470.87,-495.15"/>
</g>
<!-- src/storage/compare.ts -->
<g id="node13" class="node">
<title>src/storage/compare.ts</title>
<path fill="#79cdcd" stroke="#79cdcd" d="M691,-287.65C691,-287.65 560,-287.65 560,-287.65 554,-287.65 548,-281.65 548,-275.65 548,-275.65 548,-263.65 548,-263.65 548,-257.65 554,-251.65 560,-251.65 560,-251.65 691,-251.65 691,-251.65 697,-251.65 703,-257.65 703,-263.65 703,-263.65 703,-275.65 703,-275.65 703,-281.65 697,-287.65 691,-287.65"/>
<text text-anchor="middle" x="625.5" y="-265.95" font-family="Helvetica,sans-Serif" font-size="14.00">src/storage/compare.ts</text>
</g>
<!-- src/storage/util&#45;types.ts -->
<g id="node21" class="node">
<title>src/storage/util&#45;types.ts</title>
<path fill="#79cdcd" stroke="#79cdcd" d="M981.5,-275.65C981.5,-275.65 850.5,-275.65 850.5,-275.65 844.5,-275.65 838.5,-269.65 838.5,-263.65 838.5,-263.65 838.5,-251.65 838.5,-251.65 838.5,-245.65 844.5,-239.65 850.5,-239.65 850.5,-239.65 981.5,-239.65 981.5,-239.65 987.5,-239.65 993.5,-245.65 993.5,-251.65 993.5,-251.65 993.5,-263.65 993.5,-263.65 993.5,-269.65 987.5,-275.65 981.5,-275.65"/>
<text text-anchor="middle" x="916" y="-253.95" font-family="Helvetica,sans-Serif" font-size="14.00">src/storage/util&#45;types.ts</text>
</g>
<!-- src/storage/compare.ts&#45;&gt;src/storage/util&#45;types.ts -->
<g id="edge22" class="edge">
<title>src/storage/compare.ts&#45;&gt;src/storage/util&#45;types.ts</title>
<path fill="none" stroke="#528b8b" stroke-width="2" d="M703.06,-266.47C741.52,-264.87 788.3,-262.92 828.11,-261.27"/>
<polygon fill="#528b8b" stroke="#528b8b" stroke-width="2" points="828.49,-264.76 838.34,-260.84 828.2,-257.76 828.49,-264.76"/>
</g>
<!-- src/storage/query&#45;types.ts -->
<g id="node16" class="node">
<title>src/storage/query&#45;types.ts</title>
<path fill="#79cdcd" stroke="#79cdcd" d="M990,-157.65C990,-157.65 842,-157.65 842,-157.65 836,-157.65 830,-151.65 830,-145.65 830,-145.65 830,-133.65 830,-133.65 830,-127.65 836,-121.65 842,-121.65 842,-121.65 990,-121.65 990,-121.65 996,-121.65 1002,-127.65 1002,-133.65 1002,-133.65 1002,-145.65 1002,-145.65 1002,-151.65 996,-157.65 990,-157.65"/>
<text text-anchor="middle" x="916" y="-135.95" font-family="Helvetica,sans-Serif" font-size="14.00">src/storage/query&#45;types.ts</text>
</g>
<!-- src/storage/follower.ts&#45;&gt;src/storage/query&#45;types.ts -->
<g id="edge24" class="edge">
<title>src/storage/follower.ts&#45;&gt;src/storage/query&#45;types.ts</title>
<path fill="none" stroke="#528b8b" stroke-width="2" d="M380.06,-231.16C471.37,-216.67 632.4,-190.76 770,-166.65 786.08,-163.84 803.15,-160.75 819.71,-157.7"/>
<polygon fill="#528b8b" stroke="#528b8b" stroke-width="2" points="820.75,-161.07 829.95,-155.81 819.48,-154.18 820.75,-161.07"/>
</g>
<!-- src/storage/storage&#45;types.ts -->
<g id="node20" class="node">
<title>src/storage/storage&#45;types.ts</title>
<path fill="#79cdcd" stroke="#79cdcd" d="M705,-157.65C705,-157.65 546,-157.65 546,-157.65 540,-157.65 534,-151.65 534,-145.65 534,-145.65 534,-133.65 534,-133.65 534,-127.65 540,-121.65 546,-121.65 546,-121.65 705,-121.65 705,-121.65 711,-121.65 717,-127.65 717,-133.65 717,-133.65 717,-145.65 717,-145.65 717,-151.65 711,-157.65 705,-157.65"/>
<text text-anchor="middle" x="625.5" y="-135.95" font-family="Helvetica,sans-Serif" font-size="14.00">src/storage/storage&#45;types.ts</text>
</g>
<!-- src/storage/follower.ts&#45;&gt;src/storage/storage&#45;types.ts -->
<g id="edge25" class="edge">
<title>src/storage/follower.ts&#45;&gt;src/storage/storage&#45;types.ts</title>
<path fill="none" stroke="#528b8b" stroke-width="2" d="M362.67,-224.6C417.48,-206.82 501.16,-179.67 559.11,-160.87"/>
<polygon fill="#528b8b" stroke="#528b8b" stroke-width="2" points="560.46,-164.11 568.9,-157.69 558.3,-157.45 560.46,-164.11"/>
</g>
<!-- src/storage/follower.ts&#45;&gt;src/storage/util&#45;types.ts -->
<g id="edge23" class="edge">
<title>src/storage/follower.ts&#45;&gt;src/storage/util&#45;types.ts</title>
<path fill="none" stroke="#528b8b" stroke-width="2" d="M359.31,-260.79C401.47,-275.05 457.47,-293.09 481,-296.65 607.99,-315.91 643.21,-317.23 770,-296.65 786.65,-293.95 789.8,-289.35 806,-284.65 813.44,-282.5 821.19,-280.36 828.99,-278.29"/>
<polygon fill="#528b8b" stroke="#528b8b" stroke-width="2" points="830.07,-281.62 838.86,-275.7 828.3,-274.85 830.07,-281.62"/>
</g>
<!-- src/storage/lock.ts -->
<g id="node15" class="node">
<title>src/storage/lock.ts</title>
<path fill="#79cdcd" stroke="#79cdcd" d="M966.5,-61.65C966.5,-61.65 865.5,-61.65 865.5,-61.65 859.5,-61.65 853.5,-55.65 853.5,-49.65 853.5,-49.65 853.5,-37.65 853.5,-37.65 853.5,-31.65 859.5,-25.65 865.5,-25.65 865.5,-25.65 966.5,-25.65 966.5,-25.65 972.5,-25.65 978.5,-31.65 978.5,-37.65 978.5,-37.65 978.5,-49.65 978.5,-49.65 978.5,-55.65 972.5,-61.65 966.5,-61.65"/>
<text text-anchor="middle" x="916" y="-39.95" font-family="Helvetica,sans-Serif" font-size="14.00">src/storage/lock.ts</text>
</g>
<!-- src/storage/query.ts -->
<g id="node17" class="node">
<title>src/storage/query.ts</title>
<path fill="#79cdcd" stroke="#79cdcd" d="M680.5,-65.65C680.5,-65.65 570.5,-65.65 570.5,-65.65 564.5,-65.65 558.5,-59.65 558.5,-53.65 558.5,-53.65 558.5,-41.65 558.5,-41.65 558.5,-35.65 564.5,-29.65 570.5,-29.65 570.5,-29.65 680.5,-29.65 680.5,-29.65 686.5,-29.65 692.5,-35.65 692.5,-41.65 692.5,-41.65 692.5,-53.65 692.5,-53.65 692.5,-59.65 686.5,-65.65 680.5,-65.65"/>
<text text-anchor="middle" x="625.5" y="-43.95" font-family="Helvetica,sans-Serif" font-size="14.00">src/storage/query.ts</text>
</g>
<!-- src/storage/query.ts&#45;&gt;src/storage/query&#45;types.ts -->
<g id="edge26" class="edge">
<title>src/storage/query.ts&#45;&gt;src/storage/query&#45;types.ts</title>
<path fill="none" stroke="#528b8b" stroke-width="2" d="M692.86,-59.95C717.35,-65.14 745.17,-71.81 770,-79.65 803.26,-90.16 839.52,-105.16 867.46,-117.54"/>
<polygon fill="#528b8b" stroke="#528b8b" stroke-width="2" points="866.04,-120.74 876.6,-121.62 868.9,-114.35 866.04,-120.74"/>
</g>
<!-- src/storage/storage&#45;async.ts&#45;&gt;src/crypto/crypto.ts -->
<g id="edge32" class="edge">
<title>src/storage/storage&#45;async.ts&#45;&gt;src/crypto/crypto.ts</title>
<path fill="none" stroke="#528b8b" stroke-width="2" d="M336.11,-333.69C369.83,-353.87 427.62,-386.27 481,-405.65 503.05,-413.66 527.76,-420.04 550.38,-424.94"/>
<polygon fill="#528b8b" stroke="#528b8b" stroke-width="2" points="549.76,-428.38 560.27,-427.01 551.2,-421.53 549.76,-428.38"/>
</g>
<!-- src/storage/storage&#45;async.ts&#45;&gt;src/format&#45;validators/format&#45;validator&#45;types.ts -->
<g id="edge30" class="edge">
<title>src/storage/storage&#45;async.ts&#45;&gt;src/format&#45;validators/format&#45;validator&#45;types.ts</title>
<path fill="none" stroke="#528b8b" stroke-width="2" d="M322.15,-333.75C350.02,-365.73 412.86,-431.99 481,-464.65 485.1,-466.62 489.32,-468.44 493.64,-470.13"/>
<polygon fill="#528b8b" stroke="#528b8b" stroke-width="2" points="492.63,-473.49 503.22,-473.62 495.03,-466.91 492.63,-473.49"/>
</g>
<!-- src/storage/storage&#45;async.ts&#45;&gt;src/storage/compare.ts -->
<g id="edge31" class="edge">
<title>src/storage/storage&#45;async.ts&#45;&gt;src/storage/compare.ts</title>
<path fill="none" stroke="#528b8b" stroke-width="2" d="M399.26,-302.29C442.91,-295.96 494.74,-288.45 537.67,-282.23"/>
<polygon fill="#528b8b" stroke="#528b8b" stroke-width="2" points="538.42,-285.66 547.82,-280.76 537.42,-278.73 538.42,-285.66"/>
</g>
<!-- src/storage/storage&#45;async.ts&#45;&gt;src/storage/query&#45;types.ts -->
<g id="edge28" class="edge">
<title>src/storage/storage&#45;async.ts&#45;&gt;src/storage/query&#45;types.ts</title>
<path fill="none" stroke="#528b8b" stroke-width="2" d="M399.02,-322.33C516.09,-329.06 710.26,-333.8 770,-296.65 798.38,-279.01 784.8,-256.48 806,-230.65 827.31,-204.69 856.82,-180.58 879.76,-163.71"/>
<polygon fill="#528b8b" stroke="#528b8b" stroke-width="2" points="881.83,-166.53 887.88,-157.84 877.73,-160.86 881.83,-166.53"/>
</g>
<!-- src/storage/storage&#45;async.ts&#45;&gt;src/storage/storage&#45;types.ts -->
<g id="edge29" class="edge">
<title>src/storage/storage&#45;async.ts&#45;&gt;src/storage/storage&#45;types.ts</title>
<path fill="none" stroke="#528b8b" stroke-width="2" d="M375.47,-297.62C398.23,-290.38 423.3,-281.02 445,-269.65 462.72,-260.37 464.88,-254.49 481,-242.65 518.36,-215.24 561.6,-184.31 590.77,-163.56"/>
<polygon fill="#528b8b" stroke="#528b8b" stroke-width="2" points="592.86,-166.37 598.98,-157.73 588.8,-160.67 592.86,-166.37"/>
</g>
<!-- src/storage/storage&#45;async.ts&#45;&gt;src/storage/util&#45;types.ts -->
<g id="edge27" class="edge">
<title>src/storage/storage&#45;async.ts&#45;&gt;src/storage/util&#45;types.ts</title>
<path fill="none" stroke="#528b8b" stroke-width="2" d="M386.49,-333.69C481.46,-351.36 643.39,-368.99 770,-318.65 790.45,-310.52 786.68,-295.2 806,-284.65 813.12,-280.77 820.8,-277.43 828.67,-274.57"/>
<polygon fill="#528b8b" stroke="#528b8b" stroke-width="2" points="829.99,-277.82 838.35,-271.31 827.75,-271.19 829.99,-277.82"/>
</g>
<!-- src/storage/storage&#45;driver&#45;async&#45;memory.ts&#45;&gt;src/storage/compare.ts -->
<g id="edge36" class="edge">
<title>src/storage/storage&#45;driver&#45;async&#45;memory.ts&#45;&gt;src/storage/compare.ts</title>
<path fill="none" stroke="#528b8b" stroke-width="2" d="M351.15,-157.73C408.65,-181.27 509.09,-222.4 570.9,-247.71"/>
<polygon fill="#528b8b" stroke="#528b8b" stroke-width="2" points="569.89,-251.08 580.47,-251.63 572.54,-244.6 569.89,-251.08"/>
</g>
<!-- src/storage/storage&#45;driver&#45;async&#45;memory.ts&#45;&gt;src/storage/lock.ts -->
<g id="edge38" class="edge">
<title>src/storage/storage&#45;driver&#45;async&#45;memory.ts&#45;&gt;src/storage/lock.ts</title>
<path fill="none" stroke="#528b8b" stroke-width="2" d="M325.28,-121.43C354.92,-93.32 416.67,-40.55 481,-20.65 604.03,17.39 755.92,-5.51 843.5,-25.01"/>
<polygon fill="#528b8b" stroke="#528b8b" stroke-width="2" points="842.81,-28.44 853.33,-27.25 844.36,-21.62 842.81,-28.44"/>
</g>
<!-- src/storage/storage&#45;driver&#45;async&#45;memory.ts&#45;&gt;src/storage/query&#45;types.ts -->
<g id="edge34" class="edge">
<title>src/storage/storage&#45;driver&#45;async&#45;memory.ts&#45;&gt;src/storage/query&#45;types.ts</title>
<path fill="none" stroke="#528b8b" stroke-width="2" d="M405.61,-121.65C430.15,-117.92 456.46,-114.55 481,-112.65 609.06,-102.78 642.1,-100.85 770,-112.65 787.05,-114.23 805.09,-116.82 822.43,-119.8"/>
<polygon fill="#528b8b" stroke="#528b8b" stroke-width="2" points="822.1,-123.29 832.55,-121.59 823.32,-116.4 822.1,-123.29"/>
</g>
<!-- src/storage/storage&#45;driver&#45;async&#45;memory.ts&#45;&gt;src/storage/query.ts -->
<g id="edge37" class="edge">
<title>src/storage/storage&#45;driver&#45;async&#45;memory.ts&#45;&gt;src/storage/query.ts</title>
<path fill="none" stroke="#528b8b" stroke-width="2" d="M354.55,-121.64C389.27,-108.88 437.65,-91.92 481,-79.65 502.72,-73.51 526.57,-67.79 548.47,-62.93"/>
<polygon fill="#528b8b" stroke="#528b8b" stroke-width="2" points="549.37,-66.32 558.39,-60.77 547.87,-59.48 549.37,-66.32"/>
</g>
<!-- src/storage/storage&#45;driver&#45;async&#45;memory.ts&#45;&gt;src/storage/storage&#45;types.ts -->
<g id="edge35" class="edge">
<title>src/storage/storage&#45;driver&#45;async&#45;memory.ts&#45;&gt;src/storage/storage&#45;types.ts</title>
<path fill="none" stroke="#528b8b" stroke-width="2" d="M445.34,-139.65C471.63,-139.65 498.68,-139.65 523.54,-139.65"/>
<polygon fill="#528b8b" stroke="#528b8b" stroke-width="2" points="523.68,-143.15 533.68,-139.65 523.68,-136.15 523.68,-143.15"/>
</g>
<!-- src/storage/storage&#45;driver&#45;async&#45;memory.ts&#45;&gt;src/storage/util&#45;types.ts -->
<g id="edge33" class="edge">
<title>src/storage/storage&#45;driver&#45;async&#45;memory.ts&#45;&gt;src/storage/util&#45;types.ts</title>
<path fill="none" stroke="#528b8b" stroke-width="2" d="M400,-157.7C516.57,-180.33 714.82,-218.8 828.33,-240.83"/>
<polygon fill="#528b8b" stroke="#528b8b" stroke-width="2" points="827.89,-244.31 838.38,-242.78 829.23,-237.44 827.89,-244.31"/>
</g>
<!-- src/storage/storage&#45;types.ts&#45;&gt;src/storage/lock.ts -->
<g id="edge40" class="edge">
<title>src/storage/storage&#45;types.ts&#45;&gt;src/storage/lock.ts</title>
<path fill="none" stroke="#528b8b" stroke-width="2" d="M680.76,-121.6C729.07,-105.52 799.78,-81.99 850.87,-65"/>
<polygon fill="#528b8b" stroke="#528b8b" stroke-width="2" points="852.11,-68.27 860.49,-61.79 849.9,-61.63 852.11,-68.27"/>
</g>
<!-- src/storage/storage&#45;types.ts&#45;&gt;src/storage/query&#45;types.ts -->
<g id="edge39" class="edge">
<title>src/storage/storage&#45;types.ts&#45;&gt;src/storage/query&#45;types.ts</title>
<path fill="none" stroke="#528b8b" stroke-width="2" d="M717.39,-139.65C750.02,-139.65 786.89,-139.65 819.87,-139.65"/>
<polygon fill="#528b8b" stroke="#528b8b" stroke-width="2" points="819.97,-143.15 829.97,-139.65 819.97,-136.15 819.97,-143.15"/>
</g>
</g>
</svg>
