<?xml version="1.0" encoding="UTF-8" standalone="no"?>
<!DOCTYPE svg PUBLIC "-//W3C//DTD SVG 1.1//EN"
 "http://www.w3.org/Graphics/SVG/1.1/DTD/svg11.dtd">
<!-- Generated by graphviz version 2.44.1 (20200629.0846)
 -->
<!-- Title: G Pages: 1 -->
<svg width="1125pt" height="625pt"
 viewBox="0.00 0.00 1125.00 625.00" xmlns="http://www.w3.org/2000/svg" xmlns:xlink="http://www.w3.org/1999/xlink">
<g id="graph0" class="graph" transform="scale(1 1) rotate(0) translate(4 621)">
<title>G</title>
<polygon fill="white" stroke="transparent" points="-4,4 -4,-621 1121,-621 1121,4 -4,4"/>
<g id="clust1" class="cluster">
<title>cluster1725579392</title>
<path fill="none" stroke="#8b7d6b" stroke-width="2" d="M20,-8C20,-8 1097,-8 1097,-8 1103,-8 1109,-14 1109,-20 1109,-20 1109,-597 1109,-597 1109,-603 1103,-609 1097,-609 1097,-609 20,-609 20,-609 14,-609 8,-603 8,-597 8,-597 8,-20 8,-20 8,-14 14,-8 20,-8"/>
<text text-anchor="start" x="548" y="-594.8" font-family="Helvetica,sans-Serif" font-weight="bold" font-size="14.00">src</text>
</g>
<g id="clust2" class="cluster">
<title>cluster2065035373</title>
<path fill="bisque" stroke="#8b7d6b" stroke-width="2" d="M837,-28C837,-28 1089,-28 1089,-28 1095,-28 1101,-34 1101,-40 1101,-40 1101,-145 1101,-145 1101,-151 1095,-157 1089,-157 1089,-157 837,-157 837,-157 831,-157 825,-151 825,-145 825,-145 825,-40 825,-40 825,-34 831,-28 837,-28"/>
<text text-anchor="start" x="914.5" y="-142.8" font-family="Helvetica,sans-Serif" font-weight="bold" font-size="14.00">core&#45;validators</text>
</g>
<g id="clust3" class="cluster">
<title>cluster6198570161</title>
<path fill="bisque" stroke="#8b7d6b" stroke-width="2" d="M424,-165C424,-165 959,-165 959,-165 965,-165 971,-171 971,-177 971,-177 971,-336 971,-336 971,-342 965,-348 959,-348 959,-348 424,-348 424,-348 418,-348 412,-342 412,-336 412,-336 412,-177 412,-177 412,-171 418,-165 424,-165"/>
<text text-anchor="start" x="670.5" y="-333.8" font-family="Helvetica,sans-Serif" font-weight="bold" font-size="14.00">crypto</text>
</g>
<g id="clust4" class="cluster">
<title>cluster3750058162</title>
<path fill="bisque" stroke="#8b7d6b" stroke-width="2" d="M208,-58C208,-58 352,-58 352,-58 358,-58 364,-64 364,-70 364,-70 364,-121 364,-121 364,-127 358,-133 352,-133 352,-133 208,-133 208,-133 202,-133 196,-127 196,-121 196,-121 196,-70 196,-70 196,-64 202,-58 208,-58"/>
<text text-anchor="start" x="224" y="-118.8" font-family="Helvetica,sans-Serif" font-weight="bold" font-size="14.00">format&#45;validators</text>
</g>
<g id="clust5" class="cluster">
<title>cluster4968708164</title>
<path fill="bisque" stroke="#8b7d6b" stroke-width="2" d="M234,-153C234,-153 326,-153 326,-153 332,-153 338,-159 338,-165 338,-165 338,-324 338,-324 338,-330 332,-336 326,-336 326,-336 234,-336 234,-336 228,-336 222,-330 222,-324 222,-324 222,-165 222,-165 222,-159 228,-153 234,-153"/>
<text text-anchor="start" x="265.5" y="-321.8" font-family="Helvetica,sans-Serif" font-weight="bold" font-size="14.00">peer</text>
</g>
<g id="clust6" class="cluster">
<title>cluster9896616796</title>
<path fill="bisque" stroke="#8b7d6b" stroke-width="2" d="M226,-493C226,-493 334,-493 334,-493 340,-493 346,-499 346,-505 346,-505 346,-556 346,-556 346,-562 340,-568 334,-568 334,-568 226,-568 226,-568 220,-568 214,-562 214,-556 214,-556 214,-505 214,-505 214,-499 220,-493 226,-493"/>
<text text-anchor="start" x="233" y="-553.8" font-family="Helvetica,sans-Serif" font-weight="bold" font-size="14.00">query&#45;follower</text>
</g>
<g id="clust7" class="cluster">
<title>cluster5110560658</title>
<path fill="bisque" stroke="#8b7d6b" stroke-width="2" d="M471,-493C471,-493 527,-493 527,-493 533,-493 539,-499 539,-505 539,-505 539,-556 539,-556 539,-562 533,-568 527,-568 527,-568 471,-568 471,-568 465,-568 459,-562 459,-556 459,-556 459,-505 459,-505 459,-499 465,-493 471,-493"/>
<text text-anchor="start" x="480.5" y="-553.8" font-family="Helvetica,sans-Serif" font-weight="bold" font-size="14.00">query</text>
</g>
<g id="clust8" class="cluster">
<title>cluster5492705045</title>
<path fill="bisque" stroke="#8b7d6b" stroke-width="2" d="M28,-356C28,-356 537,-356 537,-356 543,-356 549,-362 549,-368 549,-368 549,-473 549,-473 549,-479 543,-485 537,-485 537,-485 28,-485 28,-485 22,-485 16,-479 16,-473 16,-473 16,-368 16,-368 16,-362 22,-356 28,-356"/>
<text text-anchor="start" x="258" y="-470.8" font-family="Helvetica,sans-Serif" font-weight="bold" font-size="14.00">storage</text>
</g>
<!-- src/example&#45;app.ts -->
<g id="node1" class="node">
<title>src/example&#45;app.ts</title>
<path fill="#79cdcd" stroke="#79cdcd" d="M125,-272C125,-272 39,-272 39,-272 33,-272 27,-266 27,-260 27,-260 27,-248 27,-248 27,-242 33,-236 39,-236 39,-236 125,-236 125,-236 131,-236 137,-242 137,-248 137,-248 137,-260 137,-260 137,-266 131,-272 125,-272"/>
<text text-anchor="middle" x="82" y="-250.3" font-family="Helvetica,sans-Serif" font-size="14.00">example&#45;app.ts</text>
</g>
<!-- src/crypto/crypto.ts -->
<g id="node9" class="node">
<title>src/crypto/crypto.ts</title>
<path fill="#79cdcd" stroke="#79cdcd" d="M521,-209C521,-209 477,-209 477,-209 471,-209 465,-203 465,-197 465,-197 465,-185 465,-185 465,-179 471,-173 477,-173 477,-173 521,-173 521,-173 527,-173 533,-179 533,-185 533,-185 533,-197 533,-197 533,-203 527,-209 521,-209"/>
<text text-anchor="middle" x="499" y="-187.3" font-family="Helvetica,sans-Serif" font-size="14.00">crypto.ts</text>
</g>
<!-- src/example&#45;app.ts&#45;&gt;src/crypto/crypto.ts -->
<g id="edge13" class="edge">
<title>src/example&#45;app.ts&#45;&gt;src/crypto/crypto.ts</title>
<path fill="none" stroke="#528b8b" stroke-width="2" d="M92.63,-235.65C106.95,-210.61 136.47,-166.79 176,-149 218.15,-130.03 338.5,-140.88 384,-149 408.49,-153.37 434.61,-162.63 455.66,-171.34"/>
<polygon fill="#528b8b" stroke="#528b8b" stroke-width="2" points="454.38,-174.6 464.95,-175.29 457.12,-168.16 454.38,-174.6"/>
</g>
<!-- src/format&#45;validators/format&#45;validator&#45;es4.ts -->
<g id="node12" class="node">
<title>src/format&#45;validators/format&#45;validator&#45;es4.ts</title>
<path fill="#79cdcd" stroke="#79cdcd" d="M344,-102C344,-102 216,-102 216,-102 210,-102 204,-96 204,-90 204,-90 204,-78 204,-78 204,-72 210,-66 216,-66 216,-66 344,-66 344,-66 350,-66 356,-72 356,-78 356,-78 356,-90 356,-90 356,-96 350,-102 344,-102"/>
<text text-anchor="middle" x="280" y="-80.3" font-family="Helvetica,sans-Serif" font-size="14.00">format&#45;validator&#45;es4.ts</text>
</g>
<!-- src/example&#45;app.ts&#45;&gt;src/format&#45;validators/format&#45;validator&#45;es4.ts -->
<g id="edge10" class="edge">
<title>src/example&#45;app.ts&#45;&gt;src/format&#45;validators/format&#45;validator&#45;es4.ts</title>
<path fill="none" stroke="#528b8b" stroke-width="2" d="M89.03,-235.9C100.55,-204.21 128.87,-138.95 176,-106 181.64,-102.06 187.84,-98.8 194.33,-96.11"/>
<polygon fill="#528b8b" stroke="#528b8b" stroke-width="2" points="195.82,-99.29 204,-92.56 193.4,-92.72 195.82,-99.29"/>
</g>
<!-- src/peer/peer.ts -->
<g id="node15" class="node">
<title>src/peer/peer.ts</title>
<path fill="#79cdcd" stroke="#79cdcd" d="M297,-197C297,-197 263,-197 263,-197 257,-197 251,-191 251,-185 251,-185 251,-173 251,-173 251,-167 257,-161 263,-161 263,-161 297,-161 297,-161 303,-161 309,-167 309,-173 309,-173 309,-185 309,-185 309,-191 303,-197 297,-197"/>
<text text-anchor="middle" x="280" y="-175.3" font-family="Helvetica,sans-Serif" font-size="14.00">peer.ts</text>
</g>
<!-- src/example&#45;app.ts&#45;&gt;src/peer/peer.ts -->
<g id="edge15" class="edge">
<title>src/example&#45;app.ts&#45;&gt;src/peer/peer.ts</title>
<path fill="none" stroke="#528b8b" stroke-width="2" d="M114.05,-235.78C131.76,-225.96 154.63,-214.2 176,-206 197.02,-197.93 221.34,-191.43 241.08,-186.83"/>
<polygon fill="#528b8b" stroke="#528b8b" stroke-width="2" points="241.96,-190.22 250.94,-184.6 240.41,-183.4 241.96,-190.22"/>
</g>
<!-- src/query&#45;follower/query&#45;follower.ts -->
<g id="node16" class="node">
<title>src/query&#45;follower/query&#45;follower.ts</title>
<path fill="#79cdcd" stroke="#79cdcd" d="M326,-537C326,-537 234,-537 234,-537 228,-537 222,-531 222,-525 222,-525 222,-513 222,-513 222,-507 228,-501 234,-501 234,-501 326,-501 326,-501 332,-501 338,-507 338,-513 338,-513 338,-525 338,-525 338,-531 332,-537 326,-537"/>
<text text-anchor="middle" x="280" y="-515.3" font-family="Helvetica,sans-Serif" font-size="14.00">query&#45;follower.ts</text>
</g>
<!-- src/example&#45;app.ts&#45;&gt;src/query&#45;follower/query&#45;follower.ts -->
<g id="edge14" class="edge">
<title>src/example&#45;app.ts&#45;&gt;src/query&#45;follower/query&#45;follower.ts</title>
<path fill="none" stroke="#528b8b" stroke-width="2" d="M95.49,-272.02C108.23,-291.11 127.82,-322.53 140,-352 164.04,-410.18 132.08,-443.9 176,-489 185.78,-499.04 198.7,-505.77 212.08,-510.27"/>
<polygon fill="#528b8b" stroke="#528b8b" stroke-width="2" points="211.29,-513.68 221.87,-513.16 213.27,-506.97 211.29,-513.68"/>
</g>
<!-- src/storage/storage&#45;async.ts -->
<g id="node20" class="node">
<title>src/storage/storage&#45;async.ts</title>
<path fill="#79cdcd" stroke="#79cdcd" d="M326,-400C326,-400 234,-400 234,-400 228,-400 222,-394 222,-388 222,-388 222,-376 222,-376 222,-370 228,-364 234,-364 234,-364 326,-364 326,-364 332,-364 338,-370 338,-376 338,-376 338,-388 338,-388 338,-394 332,-400 326,-400"/>
<text text-anchor="middle" x="280" y="-378.3" font-family="Helvetica,sans-Serif" font-size="14.00">storage&#45;async.ts</text>
</g>
<!-- src/example&#45;app.ts&#45;&gt;src/storage/storage&#45;async.ts -->
<g id="edge12" class="edge">
<title>src/example&#45;app.ts&#45;&gt;src/storage/storage&#45;async.ts</title>
<path fill="none" stroke="#528b8b" stroke-width="2" d="M98.93,-272.18C116.32,-291.15 145.76,-320.75 176,-340 187.93,-347.59 201.46,-354.28 214.7,-359.95"/>
<polygon fill="#528b8b" stroke="#528b8b" stroke-width="2" points="213.69,-363.32 224.27,-363.91 216.36,-356.85 213.69,-363.32"/>
</g>
<!-- src/storage/storage&#45;driver&#45;async&#45;memory.ts -->
<g id="node22" class="node">
<title>src/storage/storage&#45;driver&#45;async&#45;memory.ts</title>
<path fill="#79cdcd" stroke="#79cdcd" d="M372,-454C372,-454 188,-454 188,-454 182,-454 176,-448 176,-442 176,-442 176,-430 176,-430 176,-424 182,-418 188,-418 188,-418 372,-418 372,-418 378,-418 384,-424 384,-430 384,-430 384,-442 384,-442 384,-448 378,-454 372,-454"/>
<text text-anchor="middle" x="280" y="-432.3" font-family="Helvetica,sans-Serif" font-size="14.00">storage&#45;driver&#45;async&#45;memory.ts</text>
</g>
<!-- src/example&#45;app.ts&#45;&gt;src/storage/storage&#45;driver&#45;async&#45;memory.ts -->
<g id="edge11" class="edge">
<title>src/example&#45;app.ts&#45;&gt;src/storage/storage&#45;driver&#45;async&#45;memory.ts</title>
<path fill="none" stroke="#528b8b" stroke-width="2" d="M93.6,-272.06C117.31,-312.43 172.85,-406.63 176,-409 177.83,-410.37 179.73,-411.68 181.68,-412.92"/>
<polygon fill="#528b8b" stroke="#528b8b" stroke-width="2" points="180.11,-416.05 190.54,-417.93 183.56,-409.96 180.11,-416.05"/>
</g>
<!-- src/core&#45;validators/addresses.ts -->
<g id="node2" class="node">
<title>src/core&#45;validators/addresses.ts</title>
<path fill="#79cdcd" stroke="#79cdcd" d="M914,-126C914,-126 845,-126 845,-126 839,-126 833,-120 833,-114 833,-114 833,-102 833,-102 833,-96 839,-90 845,-90 845,-90 914,-90 914,-90 920,-90 926,-96 926,-102 926,-102 926,-114 926,-114 926,-120 920,-126 914,-126"/>
<text text-anchor="middle" x="879.5" y="-104.3" font-family="Helvetica,sans-Serif" font-size="14.00">addresses.ts</text>
</g>
<!-- src/core&#45;validators/characters.ts -->
<g id="node3" class="node">
<title>src/core&#45;validators/characters.ts</title>
<path fill="#79cdcd" stroke="#79cdcd" d="M1081,-72C1081,-72 1011,-72 1011,-72 1005,-72 999,-66 999,-60 999,-60 999,-48 999,-48 999,-42 1005,-36 1011,-36 1011,-36 1081,-36 1081,-36 1087,-36 1093,-42 1093,-48 1093,-48 1093,-60 1093,-60 1093,-66 1087,-72 1081,-72"/>
<text text-anchor="middle" x="1046" y="-50.3" font-family="Helvetica,sans-Serif" font-size="14.00">characters.ts</text>
</g>
<!-- src/core&#45;validators/addresses.ts&#45;&gt;src/core&#45;validators/characters.ts -->
<g id="edge1" class="edge">
<title>src/core&#45;validators/addresses.ts&#45;&gt;src/core&#45;validators/characters.ts</title>
<path fill="none" stroke="#528b8b" stroke-width="2" d="M926.24,-94.93C940.62,-90.67 956.53,-85.8 971,-81 976.96,-79.02 983.17,-76.89 989.34,-74.71"/>
<polygon fill="#528b8b" stroke="#528b8b" stroke-width="2" points="990.72,-77.94 998.96,-71.28 988.37,-71.34 990.72,-77.94"/>
</g>
<!-- src/core&#45;validators/checkers.ts -->
<g id="node4" class="node">
<title>src/core&#45;validators/checkers.ts</title>
<path fill="#79cdcd" stroke="#79cdcd" d="M910,-72C910,-72 849,-72 849,-72 843,-72 837,-66 837,-60 837,-60 837,-48 837,-48 837,-42 843,-36 849,-36 849,-36 910,-36 910,-36 916,-36 922,-42 922,-48 922,-48 922,-60 922,-60 922,-66 916,-72 910,-72"/>
<text text-anchor="middle" x="879.5" y="-50.3" font-family="Helvetica,sans-Serif" font-size="14.00">checkers.ts</text>
</g>
<!-- src/core&#45;validators/checkers.ts&#45;&gt;src/core&#45;validators/characters.ts -->
<g id="edge2" class="edge">
<title>src/core&#45;validators/checkers.ts&#45;&gt;src/core&#45;validators/characters.ts</title>
<path fill="none" stroke="#528b8b" stroke-width="2" d="M922.01,-54C942.22,-54 966.83,-54 988.7,-54"/>
<polygon fill="#528b8b" stroke="#528b8b" stroke-width="2" points="988.86,-57.5 998.86,-54 988.86,-50.5 988.86,-57.5"/>
</g>
<!-- src/crypto/base32.ts -->
<g id="node5" class="node">
<title>src/crypto/base32.ts</title>
<path fill="#79cdcd" stroke="#79cdcd" d="M905,-219C905,-219 854,-219 854,-219 848,-219 842,-213 842,-207 842,-207 842,-195 842,-195 842,-189 848,-183 854,-183 854,-183 905,-183 905,-183 911,-183 917,-189 917,-195 917,-195 917,-207 917,-207 917,-213 911,-219 905,-219"/>
<text text-anchor="middle" x="879.5" y="-197.3" font-family="Helvetica,sans-Serif" font-size="14.00">base32.ts</text>
</g>
<!-- src/crypto/crypto&#45;driver&#45;chloride.ts -->
<g id="node6" class="node">
<title>src/crypto/crypto&#45;driver&#45;chloride.ts</title>
<path fill="#79cdcd" stroke="#79cdcd" d="M566,-317C566,-317 432,-317 432,-317 426,-317 420,-311 420,-305 420,-305 420,-293 420,-293 420,-287 426,-281 432,-281 432,-281 566,-281 566,-281 572,-281 578,-287 578,-293 578,-293 578,-305 578,-305 578,-311 572,-317 566,-317"/>
<text text-anchor="middle" x="499" y="-295.3" font-family="Helvetica,sans-Serif" font-size="14.00">crypto&#45;driver&#45;chloride.ts</text>
</g>
<!-- src/crypto/crypto&#45;driver&#45;node.ts -->
<g id="node7" class="node">
<title>src/crypto/crypto&#45;driver&#45;node.ts</title>
<path fill="#79cdcd" stroke="#79cdcd" d="M557,-263C557,-263 441,-263 441,-263 435,-263 429,-257 429,-251 429,-251 429,-239 429,-239 429,-233 435,-227 441,-227 441,-227 557,-227 557,-227 563,-227 569,-233 569,-239 569,-239 569,-251 569,-251 569,-257 563,-263 557,-263"/>
<text text-anchor="middle" x="499" y="-241.3" font-family="Helvetica,sans-Serif" font-size="14.00">crypto&#45;driver&#45;node.ts</text>
</g>
<!-- src/crypto/crypto&#45;driver&#45;tweetnacl.ts -->
<g id="node8" class="node">
<title>src/crypto/crypto&#45;driver&#45;tweetnacl.ts</title>
<path fill="#79cdcd" stroke="#79cdcd" d="M951,-283C951,-283 808,-283 808,-283 802,-283 796,-277 796,-271 796,-271 796,-259 796,-259 796,-253 802,-247 808,-247 808,-247 951,-247 951,-247 957,-247 963,-253 963,-259 963,-259 963,-271 963,-271 963,-277 957,-283 951,-283"/>
<text text-anchor="middle" x="879.5" y="-261.3" font-family="Helvetica,sans-Serif" font-size="14.00">crypto&#45;driver&#45;tweetnacl.ts</text>
</g>
<!-- src/crypto/crypto.ts&#45;&gt;src/core&#45;validators/addresses.ts -->
<g id="edge5" class="edge">
<title>src/crypto/crypto.ts&#45;&gt;src/core&#45;validators/addresses.ts</title>
<path fill="none" stroke="#528b8b" stroke-width="2" d="M533.37,-182.87C556.07,-177.4 586.81,-170.1 614,-164 685.86,-147.89 768.98,-130.49 822.57,-119.44"/>
<polygon fill="#528b8b" stroke="#528b8b" stroke-width="2" points="823.47,-122.83 832.56,-117.38 822.06,-115.97 823.47,-122.83"/>
</g>
<!-- src/crypto/crypto.ts&#45;&gt;src/crypto/base32.ts -->
<g id="edge3" class="edge">
<title>src/crypto/crypto.ts&#45;&gt;src/crypto/base32.ts</title>
<path fill="none" stroke="#528b8b" stroke-width="2" d="M533.06,-200.98C555.62,-207.26 586.32,-214.77 614,-218 678.45,-225.53 695.28,-222.62 760,-218 783.8,-216.3 810.09,-212.71 831.85,-209.26"/>
<polygon fill="#528b8b" stroke="#528b8b" stroke-width="2" points="832.51,-212.7 841.81,-207.64 831.38,-205.79 832.51,-212.7"/>
</g>
<!-- src/crypto/global&#45;crypto&#45;driver.ts -->
<g id="node10" class="node">
<title>src/crypto/global&#45;crypto&#45;driver.ts</title>
<path fill="#79cdcd" stroke="#79cdcd" d="M748,-283C748,-283 626,-283 626,-283 620,-283 614,-277 614,-271 614,-271 614,-259 614,-259 614,-253 620,-247 626,-247 626,-247 748,-247 748,-247 754,-247 760,-253 760,-259 760,-259 760,-271 760,-271 760,-277 754,-283 748,-283"/>
<text text-anchor="middle" x="687" y="-261.3" font-family="Helvetica,sans-Serif" font-size="14.00">global&#45;crypto&#45;driver.ts</text>
</g>
<!-- src/crypto/crypto.ts&#45;&gt;src/crypto/global&#45;crypto&#45;driver.ts -->
<g id="edge6" class="edge">
<title>src/crypto/crypto.ts&#45;&gt;src/crypto/global&#45;crypto&#45;driver.ts</title>
<path fill="none" stroke="#528b8b" stroke-width="2" d="M533.23,-201.87C547.15,-206.59 563.45,-212.32 578,-218 589.34,-222.42 613.51,-232.9 636.11,-242.85"/>
<polygon fill="#528b8b" stroke="#528b8b" stroke-width="2" points="634.76,-246.08 645.32,-246.91 637.58,-239.67 634.76,-246.08"/>
</g>
<!-- src/crypto/keypair.ts -->
<g id="node11" class="node">
<title>src/crypto/keypair.ts</title>
<path fill="#79cdcd" stroke="#79cdcd" d="M712,-209C712,-209 662,-209 662,-209 656,-209 650,-203 650,-197 650,-197 650,-185 650,-185 650,-179 656,-173 662,-173 662,-173 712,-173 712,-173 718,-173 724,-179 724,-185 724,-185 724,-197 724,-197 724,-203 718,-209 712,-209"/>
<text text-anchor="middle" x="687" y="-187.3" font-family="Helvetica,sans-Serif" font-size="14.00">keypair.ts</text>
</g>
<!-- src/crypto/crypto.ts&#45;&gt;src/crypto/keypair.ts -->
<g id="edge4" class="edge">
<title>src/crypto/crypto.ts&#45;&gt;src/crypto/keypair.ts</title>
<path fill="none" stroke="#528b8b" stroke-width="2" d="M533.25,-191C562.86,-191 606.48,-191 639.53,-191"/>
<polygon fill="#528b8b" stroke="#528b8b" stroke-width="2" points="639.86,-194.5 649.86,-191 639.86,-187.5 639.86,-194.5"/>
</g>
<!-- src/crypto/global&#45;crypto&#45;driver.ts&#45;&gt;src/crypto/crypto&#45;driver&#45;tweetnacl.ts -->
<g id="edge7" class="edge">
<title>src/crypto/global&#45;crypto&#45;driver.ts&#45;&gt;src/crypto/crypto&#45;driver&#45;tweetnacl.ts</title>
<path fill="none" stroke="#528b8b" stroke-width="2" d="M760.02,-265C768.43,-265 777.09,-265 785.73,-265"/>
<polygon fill="#528b8b" stroke="#528b8b" stroke-width="2" points="785.83,-268.5 795.83,-265 785.83,-261.5 785.83,-268.5"/>
</g>
<!-- src/crypto/keypair.ts&#45;&gt;src/core&#45;validators/addresses.ts -->
<g id="edge9" class="edge">
<title>src/crypto/keypair.ts&#45;&gt;src/core&#45;validators/addresses.ts</title>
<path fill="none" stroke="#528b8b" stroke-width="2" d="M724.28,-175.19C753.56,-162.44 795.1,-144.34 827.69,-130.14"/>
<polygon fill="#528b8b" stroke="#528b8b" stroke-width="2" points="829.29,-133.26 837.06,-126.06 826.49,-126.84 829.29,-133.26"/>
</g>
<!-- src/crypto/keypair.ts&#45;&gt;src/crypto/base32.ts -->
<g id="edge8" class="edge">
<title>src/crypto/keypair.ts&#45;&gt;src/crypto/base32.ts</title>
<path fill="none" stroke="#528b8b" stroke-width="2" d="M724.28,-192.9C754.67,-194.5 798.27,-196.79 831.36,-198.53"/>
<polygon fill="#528b8b" stroke="#528b8b" stroke-width="2" points="831.54,-202.04 841.71,-199.07 831.9,-195.05 831.54,-202.04"/>
</g>
<!-- src/format&#45;validators/format&#45;validator&#45;es4.ts&#45;&gt;src/core&#45;validators/addresses.ts -->
<g id="edge19" class="edge">
<title>src/format&#45;validators/format&#45;validator&#45;es4.ts&#45;&gt;src/core&#45;validators/addresses.ts</title>
<path fill="none" stroke="#528b8b" stroke-width="2" d="M356.07,-87.02C477.67,-91.9 714.98,-101.43 822.8,-105.76"/>
<polygon fill="#528b8b" stroke="#528b8b" stroke-width="2" points="822.69,-109.26 832.82,-106.17 822.97,-102.27 822.69,-109.26"/>
</g>
<!-- src/format&#45;validators/format&#45;validator&#45;es4.ts&#45;&gt;src/core&#45;validators/characters.ts -->
<g id="edge17" class="edge">
<title>src/format&#45;validators/format&#45;validator&#45;es4.ts&#45;&gt;src/core&#45;validators/characters.ts</title>
<path fill="none" stroke="#528b8b" stroke-width="2" d="M356.08,-72.51C374.36,-69.88 393.86,-67.21 412,-65 659.19,-34.86 725.78,16.34 971,-27 978.49,-28.32 986.22,-30.35 993.73,-32.7"/>
<polygon fill="#528b8b" stroke="#528b8b" stroke-width="2" points="992.85,-36.1 1003.44,-35.96 995.07,-29.46 992.85,-36.1"/>
</g>
<!-- src/format&#45;validators/format&#45;validator&#45;es4.ts&#45;&gt;src/core&#45;validators/checkers.ts -->
<g id="edge18" class="edge">
<title>src/format&#45;validators/format&#45;validator&#45;es4.ts&#45;&gt;src/core&#45;validators/checkers.ts</title>
<path fill="none" stroke="#528b8b" stroke-width="2" d="M356.07,-80.23C479.22,-74.05 721.03,-61.91 826.85,-56.59"/>
<polygon fill="#528b8b" stroke="#528b8b" stroke-width="2" points="827.15,-60.08 836.96,-56.09 826.79,-53.09 827.15,-60.08"/>
</g>
<!-- src/format&#45;validators/format&#45;validator&#45;es4.ts&#45;&gt;src/crypto/crypto.ts -->
<g id="edge16" class="edge">
<title>src/format&#45;validators/format&#45;validator&#45;es4.ts&#45;&gt;src/crypto/crypto.ts</title>
<path fill="none" stroke="#528b8b" stroke-width="2" d="M356.21,-96.09C365.77,-98.77 375.26,-102.04 384,-106 417.04,-120.98 449.72,-146.77 471.55,-166.02"/>
<polygon fill="#528b8b" stroke="#528b8b" stroke-width="2" points="469.31,-168.71 479.09,-172.79 473.99,-163.5 469.31,-168.71"/>
</g>
<!-- src/peer/peer&#45;client.ts -->
<g id="node13" class="node">
<title>src/peer/peer&#45;client.ts</title>
<path fill="#79cdcd" stroke="#79cdcd" d="M315,-305C315,-305 245,-305 245,-305 239,-305 233,-299 233,-293 233,-293 233,-281 233,-281 233,-275 239,-269 245,-269 245,-269 315,-269 315,-269 321,-269 327,-275 327,-281 327,-281 327,-293 327,-293 327,-299 321,-305 315,-305"/>
<text text-anchor="middle" x="280" y="-283.3" font-family="Helvetica,sans-Serif" font-size="14.00">peer&#45;client.ts</text>
</g>
<!-- src/storage/compare.ts -->
<g id="node18" class="node">
<title>src/storage/compare.ts</title>
<path fill="#79cdcd" stroke="#79cdcd" d="M529,-400C529,-400 469,-400 469,-400 463,-400 457,-394 457,-388 457,-388 457,-376 457,-376 457,-370 463,-364 469,-364 469,-364 529,-364 529,-364 535,-364 541,-370 541,-376 541,-376 541,-388 541,-388 541,-394 535,-400 529,-400"/>
<text text-anchor="middle" x="499" y="-378.3" font-family="Helvetica,sans-Serif" font-size="14.00">compare.ts</text>
</g>
<!-- src/peer/peer&#45;client.ts&#45;&gt;src/storage/compare.ts -->
<g id="edge20" class="edge">
<title>src/peer/peer&#45;client.ts&#45;&gt;src/storage/compare.ts</title>
<path fill="none" stroke="#528b8b" stroke-width="2" d="M314.39,-305.01C340.55,-318.77 378.07,-337.73 412,-352 423.27,-356.74 435.59,-361.36 447.28,-365.49"/>
<polygon fill="#528b8b" stroke="#528b8b" stroke-width="2" points="446.32,-368.86 456.92,-368.84 448.62,-362.25 446.32,-368.86"/>
</g>
<!-- src/peer/peer&#45;server.ts -->
<g id="node14" class="node">
<title>src/peer/peer&#45;server.ts</title>
<path fill="#79cdcd" stroke="#79cdcd" d="M318,-251C318,-251 242,-251 242,-251 236,-251 230,-245 230,-239 230,-239 230,-227 230,-227 230,-221 236,-215 242,-215 242,-215 318,-215 318,-215 324,-215 330,-221 330,-227 330,-227 330,-239 330,-239 330,-245 324,-251 318,-251"/>
<text text-anchor="middle" x="280" y="-229.3" font-family="Helvetica,sans-Serif" font-size="14.00">peer&#45;server.ts</text>
</g>
<!-- src/query/query.ts -->
<g id="node17" class="node">
<title>src/query/query.ts</title>
<path fill="#79cdcd" stroke="#79cdcd" d="M519,-537C519,-537 479,-537 479,-537 473,-537 467,-531 467,-525 467,-525 467,-513 467,-513 467,-507 473,-501 479,-501 479,-501 519,-501 519,-501 525,-501 531,-507 531,-513 531,-513 531,-525 531,-525 531,-531 525,-537 519,-537"/>
<text text-anchor="middle" x="499" y="-515.3" font-family="Helvetica,sans-Serif" font-size="14.00">query.ts</text>
</g>
<!-- src/query&#45;follower/query&#45;follower.ts&#45;&gt;src/query/query.ts -->
<g id="edge21" class="edge">
<title>src/query&#45;follower/query&#45;follower.ts&#45;&gt;src/query/query.ts</title>
<path fill="none" stroke="#528b8b" stroke-width="2" d="M338.01,-519C375.18,-519 422.84,-519 456.44,-519"/>
<polygon fill="#528b8b" stroke="#528b8b" stroke-width="2" points="456.82,-522.5 466.82,-519 456.82,-515.5 456.82,-522.5"/>
</g>
<!-- src/storage/lock.ts -->
<g id="node19" class="node">
<title>src/storage/lock.ts</title>
<path fill="#79cdcd" stroke="#79cdcd" d="M514.5,-454C514.5,-454 483.5,-454 483.5,-454 477.5,-454 471.5,-448 471.5,-442 471.5,-442 471.5,-430 471.5,-430 471.5,-424 477.5,-418 483.5,-418 483.5,-418 514.5,-418 514.5,-418 520.5,-418 526.5,-424 526.5,-430 526.5,-430 526.5,-442 526.5,-442 526.5,-448 520.5,-454 514.5,-454"/>
<text text-anchor="middle" x="499" y="-432.3" font-family="Helvetica,sans-Serif" font-size="14.00">lock.ts</text>
</g>
<!-- src/storage/storage&#45;async.ts&#45;&gt;src/crypto/crypto.ts -->
<g id="edge23" class="edge">
<title>src/storage/storage&#45;async.ts&#45;&gt;src/crypto/crypto.ts</title>
<path fill="none" stroke="#528b8b" stroke-width="2" d="M338.02,-375.47C354.92,-370.86 372.08,-363.08 384,-350 424.41,-305.68 371.66,-262.38 412,-218 422.97,-205.94 439.25,-199.22 454.71,-195.5"/>
<polygon fill="#528b8b" stroke="#528b8b" stroke-width="2" points="455.58,-198.89 464.68,-193.46 454.18,-192.03 455.58,-198.89"/>
</g>
<!-- src/storage/storage&#45;async.ts&#45;&gt;src/storage/compare.ts -->
<g id="edge22" class="edge">
<title>src/storage/storage&#45;async.ts&#45;&gt;src/storage/compare.ts</title>
<path fill="none" stroke="#528b8b" stroke-width="2" d="M338.01,-382C371.67,-382 413.92,-382 446.56,-382"/>
<polygon fill="#528b8b" stroke="#528b8b" stroke-width="2" points="446.79,-385.5 456.79,-382 446.79,-378.5 446.79,-385.5"/>
</g>
<!-- src/storage/storage&#45;cache.ts -->
<g id="node21" class="node">
<title>src/storage/storage&#45;cache.ts</title>
<path fill="#79cdcd" stroke="#79cdcd" d="M128,-427C128,-427 36,-427 36,-427 30,-427 24,-421 24,-415 24,-415 24,-403 24,-403 24,-397 30,-391 36,-391 36,-391 128,-391 128,-391 134,-391 140,-397 140,-403 140,-403 140,-415 140,-415 140,-421 134,-427 128,-427"/>
<text text-anchor="middle" x="82" y="-405.3" font-family="Helvetica,sans-Serif" font-size="14.00">storage&#45;cache.ts</text>
</g>
<!-- src/storage/storage&#45;cache.ts&#45;&gt;src/crypto/crypto.ts -->
<g id="edge27" class="edge">
<title>src/storage/storage&#45;cache.ts&#45;&gt;src/crypto/crypto.ts</title>
<path fill="none" stroke="#528b8b" stroke-width="2" d="M132.94,-390.96C135.37,-389.7 137.74,-388.38 140,-387 158.28,-375.86 156.28,-363.32 176,-355 218.7,-336.98 348.81,-370.16 384,-340 426.24,-303.8 374.24,-258.85 412,-218 423.07,-206.03 439.37,-199.33 454.81,-195.59"/>
<polygon fill="#528b8b" stroke="#528b8b" stroke-width="2" points="455.68,-198.99 464.77,-193.54 454.27,-192.13 455.68,-198.99"/>
</g>
<!-- src/storage/storage&#45;cache.ts&#45;&gt;src/query&#45;follower/query&#45;follower.ts -->
<g id="edge25" class="edge">
<title>src/storage/storage&#45;cache.ts&#45;&gt;src/query&#45;follower/query&#45;follower.ts</title>
<path fill="none" stroke="#528b8b" stroke-width="2" d="M99.46,-427.12C116.85,-445.23 145.86,-472.65 176,-489 187.17,-495.06 199.71,-500.02 212.09,-504.04"/>
<polygon fill="#528b8b" stroke="#528b8b" stroke-width="2" points="211.37,-507.48 221.96,-507.06 213.42,-500.79 211.37,-507.48"/>
</g>
<!-- src/storage/storage&#45;cache.ts&#45;&gt;src/query/query.ts -->
<g id="edge24" class="edge">
<title>src/storage/storage&#45;cache.ts&#45;&gt;src/query/query.ts</title>
<path fill="none" stroke="#528b8b" stroke-width="2" d="M87.04,-427.19C95.99,-462.62 121.2,-540.18 176,-572 266.36,-624.48 393.65,-573.83 457.76,-541.42"/>
<polygon fill="#528b8b" stroke="#528b8b" stroke-width="2" points="459.46,-544.47 466.74,-536.78 456.25,-538.25 459.46,-544.47"/>
</g>
<!-- src/storage/storage&#45;cache.ts&#45;&gt;src/storage/storage&#45;async.ts -->
<g id="edge26" class="edge">
<title>src/storage/storage&#45;cache.ts&#45;&gt;src/storage/storage&#45;async.ts</title>
<path fill="none" stroke="#528b8b" stroke-width="2" d="M140.22,-401.12C162.56,-398.04 188.35,-394.49 211.58,-391.29"/>
<polygon fill="#528b8b" stroke="#528b8b" stroke-width="2" points="212.28,-394.72 221.71,-389.89 211.33,-387.79 212.28,-394.72"/>
</g>
<!-- src/storage/storage&#45;driver&#45;async&#45;memory.ts&#45;&gt;src/query/query.ts -->
<g id="edge29" class="edge">
<title>src/storage/storage&#45;driver&#45;async&#45;memory.ts&#45;&gt;src/query/query.ts</title>
<path fill="none" stroke="#528b8b" stroke-width="2" d="M324.16,-454.08C349.6,-464.58 382.5,-477.89 412,-489 426.67,-494.52 442.87,-500.27 457.22,-505.23"/>
<polygon fill="#528b8b" stroke="#528b8b" stroke-width="2" points="456.22,-508.59 466.82,-508.53 458.5,-501.97 456.22,-508.59"/>
</g>
<!-- src/storage/storage&#45;driver&#45;async&#45;memory.ts&#45;&gt;src/storage/compare.ts -->
<g id="edge28" class="edge">
<title>src/storage/storage&#45;driver&#45;async&#45;memory.ts&#45;&gt;src/storage/compare.ts</title>
<path fill="none" stroke="#528b8b" stroke-width="2" d="M353.56,-417.94C384.18,-410.33 419.1,-401.64 446.93,-394.71"/>
<polygon fill="#528b8b" stroke="#528b8b" stroke-width="2" points="447.98,-398.05 456.84,-392.24 446.29,-391.26 447.98,-398.05"/>
</g>
<!-- src/storage/storage&#45;driver&#45;async&#45;memory.ts&#45;&gt;src/storage/lock.ts -->
<g id="edge30" class="edge">
<title>src/storage/storage&#45;driver&#45;async&#45;memory.ts&#45;&gt;src/storage/lock.ts</title>
<path fill="none" stroke="#528b8b" stroke-width="2" d="M384.1,-436C411.6,-436 439.57,-436 460.91,-436"/>
<polygon fill="#528b8b" stroke="#528b8b" stroke-width="2" points="461.12,-439.5 471.12,-436 461.12,-432.5 461.12,-439.5"/>
</g>
</g>
</svg>
