<?xml version="1.0" encoding="UTF-8" standalone="no"?>
<!DOCTYPE svg PUBLIC "-//W3C//DTD SVG 1.1//EN"
 "http://www.w3.org/Graphics/SVG/1.1/DTD/svg11.dtd">
<!-- Generated by graphviz version 2.44.1 (20200629.0846)
 -->
<!-- Title: G Pages: 1 -->
<svg width="1336pt" height="811pt"
 viewBox="0.00 0.00 1336.00 811.05" xmlns="http://www.w3.org/2000/svg" xmlns:xlink="http://www.w3.org/1999/xlink">
<g id="graph0" class="graph" transform="scale(1 1) rotate(0) translate(4 807.05)">
<title>G</title>
<polygon fill="white" stroke="transparent" points="-4,4 -4,-807.05 1332,-807.05 1332,4 -4,4"/>
<!-- src/example&#45;app.ts -->
<g id="node1" class="node">
<title>src/example&#45;app.ts</title>
<path fill="#79cdcd" stroke="#79cdcd" d="M119,-426.05C119,-426.05 12,-426.05 12,-426.05 6,-426.05 0,-420.05 0,-414.05 0,-414.05 0,-402.05 0,-402.05 0,-396.05 6,-390.05 12,-390.05 12,-390.05 119,-390.05 119,-390.05 125,-390.05 131,-396.05 131,-402.05 131,-402.05 131,-414.05 131,-414.05 131,-420.05 125,-426.05 119,-426.05"/>
<text text-anchor="middle" x="65.5" y="-404.35" font-family="Helvetica,sans-Serif" font-size="14.00">src/example&#45;app.ts</text>
</g>
<!-- src/crypto/crypto&#45;driver&#45;tweetnacl.ts -->
<g id="node8" class="node">
<title>src/crypto/crypto&#45;driver&#45;tweetnacl.ts</title>
<path fill="#79cdcd" stroke="#79cdcd" d="M409,-665.05C409,-665.05 203,-665.05 203,-665.05 197,-665.05 191,-659.05 191,-653.05 191,-653.05 191,-641.05 191,-641.05 191,-635.05 197,-629.05 203,-629.05 203,-629.05 409,-629.05 409,-629.05 415,-629.05 421,-635.05 421,-641.05 421,-641.05 421,-653.05 421,-653.05 421,-659.05 415,-665.05 409,-665.05"/>
<text text-anchor="middle" x="306" y="-643.35" font-family="Helvetica,sans-Serif" font-size="14.00">src/crypto/crypto&#45;driver&#45;tweetnacl.ts</text>
</g>
<!-- src/example&#45;app.ts&#45;&gt;src/crypto/crypto&#45;driver&#45;tweetnacl.ts -->
<g id="edge18" class="edge">
<title>src/example&#45;app.ts&#45;&gt;src/crypto/crypto&#45;driver&#45;tweetnacl.ts</title>
<path fill="none" stroke="#528b8b" stroke-width="2" d="M72.76,-426.19C85.49,-460.72 117.44,-536.47 167,-582.05 187.13,-600.56 213.49,-614.72 237.76,-625.02"/>
<polygon fill="#528b8b" stroke="#528b8b" stroke-width="2" points="236.72,-628.38 247.3,-628.92 239.37,-621.9 236.72,-628.38"/>
</g>
<!-- src/crypto/crypto.ts -->
<g id="node10" class="node">
<title>src/crypto/crypto.ts</title>
<path fill="#79cdcd" stroke="#79cdcd" d="M359,-573.05C359,-573.05 253,-573.05 253,-573.05 247,-573.05 241,-567.05 241,-561.05 241,-561.05 241,-549.05 241,-549.05 241,-543.05 247,-537.05 253,-537.05 253,-537.05 359,-537.05 359,-537.05 365,-537.05 371,-543.05 371,-549.05 371,-549.05 371,-561.05 371,-561.05 371,-567.05 365,-573.05 359,-573.05"/>
<text text-anchor="middle" x="306" y="-551.35" font-family="Helvetica,sans-Serif" font-size="14.00">src/crypto/crypto.ts</text>
</g>
<!-- src/example&#45;app.ts&#45;&gt;src/crypto/crypto.ts -->
<g id="edge17" class="edge">
<title>src/example&#45;app.ts&#45;&gt;src/crypto/crypto.ts</title>
<path fill="none" stroke="#528b8b" stroke-width="2" d="M95.74,-426.07C138.75,-452.58 219.08,-502.09 266.73,-531.46"/>
<polygon fill="#528b8b" stroke="#528b8b" stroke-width="2" points="265.17,-534.61 275.52,-536.87 268.84,-528.65 265.17,-534.61"/>
</g>
<!-- src/format&#45;validators/format&#45;validator&#45;es4.ts -->
<g id="node12" class="node">
<title>src/format&#45;validators/format&#45;validator&#45;es4.ts</title>
<path fill="#79cdcd" stroke="#79cdcd" d="M747,-481.05C747,-481.05 493,-481.05 493,-481.05 487,-481.05 481,-475.05 481,-469.05 481,-469.05 481,-457.05 481,-457.05 481,-451.05 487,-445.05 493,-445.05 493,-445.05 747,-445.05 747,-445.05 753,-445.05 759,-451.05 759,-457.05 759,-457.05 759,-469.05 759,-469.05 759,-475.05 753,-481.05 747,-481.05"/>
<text text-anchor="middle" x="620" y="-459.35" font-family="Helvetica,sans-Serif" font-size="14.00">src/format&#45;validators/format&#45;validator&#45;es4.ts</text>
</g>
<!-- src/example&#45;app.ts&#45;&gt;src/format&#45;validators/format&#45;validator&#45;es4.ts -->
<g id="edge13" class="edge">
<title>src/example&#45;app.ts&#45;&gt;src/format&#45;validators/format&#45;validator&#45;es4.ts</title>
<path fill="none" stroke="#528b8b" stroke-width="2" d="M131.23,-414.49C213.99,-422.73 359.81,-437.25 470.52,-448.27"/>
<polygon fill="#528b8b" stroke="#528b8b" stroke-width="2" points="470.49,-451.78 480.78,-449.29 471.18,-444.81 470.49,-451.78"/>
</g>
<!-- src/storage/follower.ts -->
<g id="node15" class="node">
<title>src/storage/follower.ts</title>
<path fill="#79cdcd" stroke="#79cdcd" d="M368,-308.05C368,-308.05 244,-308.05 244,-308.05 238,-308.05 232,-302.05 232,-296.05 232,-296.05 232,-284.05 232,-284.05 232,-278.05 238,-272.05 244,-272.05 244,-272.05 368,-272.05 368,-272.05 374,-272.05 380,-278.05 380,-284.05 380,-284.05 380,-296.05 380,-296.05 380,-302.05 374,-308.05 368,-308.05"/>
<text text-anchor="middle" x="306" y="-286.35" font-family="Helvetica,sans-Serif" font-size="14.00">src/storage/follower.ts</text>
</g>
<!-- src/example&#45;app.ts&#45;&gt;src/storage/follower.ts -->
<g id="edge16" class="edge">
<title>src/example&#45;app.ts&#45;&gt;src/storage/follower.ts</title>
<path fill="none" stroke="#528b8b" stroke-width="2" d="M84.53,-389.9C103.5,-371.77 135,-344.32 167,-328.05 184.07,-319.37 203.37,-312.47 222.01,-307.06"/>
<polygon fill="#528b8b" stroke="#528b8b" stroke-width="2" points="222.98,-310.43 231.68,-304.37 221.11,-303.68 222.98,-310.43"/>
</g>
<!-- src/storage/storage&#45;async.ts -->
<g id="node19" class="node">
<title>src/storage/storage&#45;async.ts</title>
<path fill="#79cdcd" stroke="#79cdcd" d="M387,-373.05C387,-373.05 225,-373.05 225,-373.05 219,-373.05 213,-367.05 213,-361.05 213,-361.05 213,-349.05 213,-349.05 213,-343.05 219,-337.05 225,-337.05 225,-337.05 387,-337.05 387,-337.05 393,-337.05 399,-343.05 399,-349.05 399,-349.05 399,-361.05 399,-361.05 399,-367.05 393,-373.05 387,-373.05"/>
<text text-anchor="middle" x="306" y="-351.35" font-family="Helvetica,sans-Serif" font-size="14.00">src/storage/storage&#45;async.ts</text>
</g>
<!-- src/example&#45;app.ts&#45;&gt;src/storage/storage&#45;async.ts -->
<g id="edge15" class="edge">
<title>src/example&#45;app.ts&#45;&gt;src/storage/storage&#45;async.ts</title>
<path fill="none" stroke="#528b8b" stroke-width="2" d="M131.04,-393.7C156.47,-388.05 186.15,-381.46 213.71,-375.33"/>
<polygon fill="#528b8b" stroke="#528b8b" stroke-width="2" points="214.75,-378.69 223.75,-373.1 213.23,-371.85 214.75,-378.69"/>
</g>
<!-- src/storage/storage&#45;driver&#45;async&#45;memory.ts -->
<g id="node20" class="node">
<title>src/storage/storage&#45;driver&#45;async&#45;memory.ts</title>
<path fill="#79cdcd" stroke="#79cdcd" d="M433,-137.05C433,-137.05 179,-137.05 179,-137.05 173,-137.05 167,-131.05 167,-125.05 167,-125.05 167,-113.05 167,-113.05 167,-107.05 173,-101.05 179,-101.05 179,-101.05 433,-101.05 433,-101.05 439,-101.05 445,-107.05 445,-113.05 445,-113.05 445,-125.05 445,-125.05 445,-131.05 439,-137.05 433,-137.05"/>
<text text-anchor="middle" x="306" y="-115.35" font-family="Helvetica,sans-Serif" font-size="14.00">src/storage/storage&#45;driver&#45;async&#45;memory.ts</text>
</g>
<!-- src/example&#45;app.ts&#45;&gt;src/storage/storage&#45;driver&#45;async&#45;memory.ts -->
<g id="edge14" class="edge">
<title>src/example&#45;app.ts&#45;&gt;src/storage/storage&#45;driver&#45;async&#45;memory.ts</title>
<path fill="none" stroke="#528b8b" stroke-width="2" d="M77.7,-389.99C95.42,-361.9 131.53,-306.45 167,-263.05 203,-218.99 249.64,-172.16 278.43,-144.27"/>
<polygon fill="#528b8b" stroke="#528b8b" stroke-width="2" points="280.93,-146.73 285.7,-137.27 276.07,-141.69 280.93,-146.73"/>
</g>
<!-- src/core&#45;validators/addresses.ts -->
<g id="node2" class="node">
<title>src/core&#45;validators/addresses.ts</title>
<path fill="#79cdcd" stroke="#79cdcd" d="M1031,-527.05C1031,-527.05 848,-527.05 848,-527.05 842,-527.05 836,-521.05 836,-515.05 836,-515.05 836,-503.05 836,-503.05 836,-497.05 842,-491.05 848,-491.05 848,-491.05 1031,-491.05 1031,-491.05 1037,-491.05 1043,-497.05 1043,-503.05 1043,-503.05 1043,-515.05 1043,-515.05 1043,-521.05 1037,-527.05 1031,-527.05"/>
<text text-anchor="middle" x="939.5" y="-505.35" font-family="Helvetica,sans-Serif" font-size="14.00">src/core&#45;validators/addresses.ts</text>
</g>
<!-- src/core&#45;validators/characters.ts -->
<g id="node3" class="node">
<title>src/core&#45;validators/characters.ts</title>
<path fill="#79cdcd" stroke="#79cdcd" d="M1316,-435.05C1316,-435.05 1132,-435.05 1132,-435.05 1126,-435.05 1120,-429.05 1120,-423.05 1120,-423.05 1120,-411.05 1120,-411.05 1120,-405.05 1126,-399.05 1132,-399.05 1132,-399.05 1316,-399.05 1316,-399.05 1322,-399.05 1328,-405.05 1328,-411.05 1328,-411.05 1328,-423.05 1328,-423.05 1328,-429.05 1322,-435.05 1316,-435.05"/>
<text text-anchor="middle" x="1224" y="-413.35" font-family="Helvetica,sans-Serif" font-size="14.00">src/core&#45;validators/characters.ts</text>
</g>
<!-- src/core&#45;validators/addresses.ts&#45;&gt;src/core&#45;validators/characters.ts -->
<g id="edge1" class="edge">
<title>src/core&#45;validators/addresses.ts&#45;&gt;src/core&#45;validators/characters.ts</title>
<path fill="none" stroke="#528b8b" stroke-width="2" d="M995.98,-490.98C1042.52,-475.82 1109.08,-454.15 1158.09,-438.19"/>
<polygon fill="#528b8b" stroke="#528b8b" stroke-width="2" points="1159.23,-441.5 1167.65,-435.07 1157.06,-434.84 1159.23,-441.5"/>
</g>
<!-- src/core&#45;validators/checkers.ts -->
<g id="node4" class="node">
<title>src/core&#45;validators/checkers.ts</title>
<path fill="#79cdcd" stroke="#79cdcd" d="M1027,-435.05C1027,-435.05 852,-435.05 852,-435.05 846,-435.05 840,-429.05 840,-423.05 840,-423.05 840,-411.05 840,-411.05 840,-405.05 846,-399.05 852,-399.05 852,-399.05 1027,-399.05 1027,-399.05 1033,-399.05 1039,-405.05 1039,-411.05 1039,-411.05 1039,-423.05 1039,-423.05 1039,-429.05 1033,-435.05 1027,-435.05"/>
<text text-anchor="middle" x="939.5" y="-413.35" font-family="Helvetica,sans-Serif" font-size="14.00">src/core&#45;validators/checkers.ts</text>
</g>
<!-- src/core&#45;validators/checkers.ts&#45;&gt;src/core&#45;validators/characters.ts -->
<g id="edge2" class="edge">
<title>src/core&#45;validators/checkers.ts&#45;&gt;src/core&#45;validators/characters.ts</title>
<path fill="none" stroke="#528b8b" stroke-width="2" d="M1039.3,-417.05C1062.04,-417.05 1086.38,-417.05 1109.67,-417.05"/>
<polygon fill="#528b8b" stroke="#528b8b" stroke-width="2" points="1109.94,-420.55 1119.94,-417.05 1109.94,-413.55 1109.94,-420.55"/>
</g>
<!-- src/crypto/base32.ts -->
<g id="node5" class="node">
<title>src/crypto/base32.ts</title>
<path fill="#79cdcd" stroke="#79cdcd" d="M996,-619.05C996,-619.05 883,-619.05 883,-619.05 877,-619.05 871,-613.05 871,-607.05 871,-607.05 871,-595.05 871,-595.05 871,-589.05 877,-583.05 883,-583.05 883,-583.05 996,-583.05 996,-583.05 1002,-583.05 1008,-589.05 1008,-595.05 1008,-595.05 1008,-607.05 1008,-607.05 1008,-613.05 1002,-619.05 996,-619.05"/>
<text text-anchor="middle" x="939.5" y="-597.35" font-family="Helvetica,sans-Serif" font-size="14.00">src/crypto/base32.ts</text>
</g>
<!-- src/crypto/crypto&#45;driver&#45;chloride.ts -->
<g id="node6" class="node">
<title>src/crypto/crypto&#45;driver&#45;chloride.ts</title>
<path fill="#79cdcd" stroke="#79cdcd" d="M1037.5,-803.05C1037.5,-803.05 841.5,-803.05 841.5,-803.05 835.5,-803.05 829.5,-797.05 829.5,-791.05 829.5,-791.05 829.5,-779.05 829.5,-779.05 829.5,-773.05 835.5,-767.05 841.5,-767.05 841.5,-767.05 1037.5,-767.05 1037.5,-767.05 1043.5,-767.05 1049.5,-773.05 1049.5,-779.05 1049.5,-779.05 1049.5,-791.05 1049.5,-791.05 1049.5,-797.05 1043.5,-803.05 1037.5,-803.05"/>
<text text-anchor="middle" x="939.5" y="-781.35" font-family="Helvetica,sans-Serif" font-size="14.00">src/crypto/crypto&#45;driver&#45;chloride.ts</text>
</g>
<!-- src/crypto/crypto&#45;types.ts -->
<g id="node9" class="node">
<title>src/crypto/crypto&#45;types.ts</title>
<path fill="#79cdcd" stroke="#79cdcd" d="M1295.5,-665.05C1295.5,-665.05 1152.5,-665.05 1152.5,-665.05 1146.5,-665.05 1140.5,-659.05 1140.5,-653.05 1140.5,-653.05 1140.5,-641.05 1140.5,-641.05 1140.5,-635.05 1146.5,-629.05 1152.5,-629.05 1152.5,-629.05 1295.5,-629.05 1295.5,-629.05 1301.5,-629.05 1307.5,-635.05 1307.5,-641.05 1307.5,-641.05 1307.5,-653.05 1307.5,-653.05 1307.5,-659.05 1301.5,-665.05 1295.5,-665.05"/>
<text text-anchor="middle" x="1224" y="-643.35" font-family="Helvetica,sans-Serif" font-size="14.00">src/crypto/crypto&#45;types.ts</text>
</g>
<!-- src/crypto/crypto&#45;driver&#45;chloride.ts&#45;&gt;src/crypto/crypto&#45;types.ts -->
<g id="edge3" class="edge">
<title>src/crypto/crypto&#45;driver&#45;chloride.ts&#45;&gt;src/crypto/crypto&#45;types.ts</title>
<path fill="none" stroke="#528b8b" stroke-width="2" d="M1049.61,-770.37C1061.48,-767.07 1073.17,-763.01 1084,-758.05 1129.48,-737.19 1173.06,-698.28 1198.94,-672.52"/>
<polygon fill="#528b8b" stroke="#528b8b" stroke-width="2" points="1201.53,-674.87 1206.07,-665.3 1196.55,-669.95 1201.53,-674.87"/>
</g>
<!-- src/crypto/crypto&#45;driver&#45;node.ts -->
<g id="node7" class="node">
<title>src/crypto/crypto&#45;driver&#45;node.ts</title>
<path fill="#79cdcd" stroke="#79cdcd" d="M1029,-749.05C1029,-749.05 850,-749.05 850,-749.05 844,-749.05 838,-743.05 838,-737.05 838,-737.05 838,-725.05 838,-725.05 838,-719.05 844,-713.05 850,-713.05 850,-713.05 1029,-713.05 1029,-713.05 1035,-713.05 1041,-719.05 1041,-725.05 1041,-725.05 1041,-737.05 1041,-737.05 1041,-743.05 1035,-749.05 1029,-749.05"/>
<text text-anchor="middle" x="939.5" y="-727.35" font-family="Helvetica,sans-Serif" font-size="14.00">src/crypto/crypto&#45;driver&#45;node.ts</text>
</g>
<!-- src/crypto/crypto&#45;driver&#45;node.ts&#45;&gt;src/crypto/crypto&#45;types.ts -->
<g id="edge4" class="edge">
<title>src/crypto/crypto&#45;driver&#45;node.ts&#45;&gt;src/crypto/crypto&#45;types.ts</title>
<path fill="none" stroke="#528b8b" stroke-width="2" d="M1030.55,-712.97C1048.38,-708.83 1066.87,-704.13 1084,-699.05 1112.8,-690.49 1144.2,-678.94 1169.86,-668.9"/>
<polygon fill="#528b8b" stroke="#528b8b" stroke-width="2" points="1171.38,-672.07 1179.4,-665.14 1168.81,-665.55 1171.38,-672.07"/>
</g>
<!-- src/crypto/crypto&#45;driver&#45;tweetnacl.ts&#45;&gt;src/crypto/crypto&#45;types.ts -->
<g id="edge5" class="edge">
<title>src/crypto/crypto&#45;driver&#45;tweetnacl.ts&#45;&gt;src/crypto/crypto&#45;types.ts</title>
<path fill="none" stroke="#528b8b" stroke-width="2" d="M421.11,-657.55C441.05,-659 461.62,-660.27 481,-661.05 748.78,-671.8 816.34,-674.49 1084,-661.05 1099,-660.29 1114.88,-659.09 1130.33,-657.69"/>
<polygon fill="#528b8b" stroke="#528b8b" stroke-width="2" points="1130.78,-661.16 1140.41,-656.74 1130.13,-654.19 1130.78,-661.16"/>
</g>
<!-- src/crypto/crypto.ts&#45;&gt;src/core&#45;validators/addresses.ts -->
<g id="edge9" class="edge">
<title>src/crypto/crypto.ts&#45;&gt;src/core&#45;validators/addresses.ts</title>
<path fill="none" stroke="#528b8b" stroke-width="2" d="M371.23,-543.31C403.98,-537.78 444.49,-531.63 481,-528.05 598.06,-516.57 732.62,-512.01 825.36,-510.21"/>
<polygon fill="#528b8b" stroke="#528b8b" stroke-width="2" points="825.68,-513.71 835.61,-510.02 825.55,-506.71 825.68,-513.71"/>
</g>
<!-- src/crypto/crypto.ts&#45;&gt;src/crypto/base32.ts -->
<g id="edge7" class="edge">
<title>src/crypto/crypto.ts&#45;&gt;src/crypto/base32.ts</title>
<path fill="none" stroke="#528b8b" stroke-width="2" d="M371.23,-566.78C403.98,-572.31 444.49,-578.47 481,-582.05 613.93,-595.08 769.45,-599.19 860.64,-600.48"/>
<polygon fill="#528b8b" stroke="#528b8b" stroke-width="2" points="860.85,-603.98 870.89,-600.61 860.94,-596.98 860.85,-603.98"/>
</g>
<!-- src/crypto/crypto.ts&#45;&gt;src/crypto/crypto&#45;types.ts -->
<g id="edge6" class="edge">
<title>src/crypto/crypto.ts&#45;&gt;src/crypto/crypto&#45;types.ts</title>
<path fill="none" stroke="#528b8b" stroke-width="2" d="M360.44,-573.07C394.54,-583.82 439.9,-596.76 481,-604.05 711.86,-644.96 988.81,-649.46 1130.12,-648.62"/>
<polygon fill="#528b8b" stroke="#528b8b" stroke-width="2" points="1130.49,-652.12 1140.47,-648.55 1130.45,-645.12 1130.49,-652.12"/>
</g>
<!-- src/crypto/keypair.ts -->
<g id="node11" class="node">
<title>src/crypto/keypair.ts</title>
<path fill="#79cdcd" stroke="#79cdcd" d="M676.5,-573.05C676.5,-573.05 563.5,-573.05 563.5,-573.05 557.5,-573.05 551.5,-567.05 551.5,-561.05 551.5,-561.05 551.5,-549.05 551.5,-549.05 551.5,-543.05 557.5,-537.05 563.5,-537.05 563.5,-537.05 676.5,-537.05 676.5,-537.05 682.5,-537.05 688.5,-543.05 688.5,-549.05 688.5,-549.05 688.5,-561.05 688.5,-561.05 688.5,-567.05 682.5,-573.05 676.5,-573.05"/>
<text text-anchor="middle" x="620" y="-551.35" font-family="Helvetica,sans-Serif" font-size="14.00">src/crypto/keypair.ts</text>
</g>
<!-- src/crypto/crypto.ts&#45;&gt;src/crypto/keypair.ts -->
<g id="edge8" class="edge">
<title>src/crypto/crypto.ts&#45;&gt;src/crypto/keypair.ts</title>
<path fill="none" stroke="#528b8b" stroke-width="2" d="M371.27,-555.05C420.52,-555.05 488.69,-555.05 541.06,-555.05"/>
<polygon fill="#528b8b" stroke="#528b8b" stroke-width="2" points="541.31,-558.55 551.31,-555.05 541.31,-551.55 541.31,-558.55"/>
</g>
<!-- src/crypto/keypair.ts&#45;&gt;src/core&#45;validators/addresses.ts -->
<g id="edge12" class="edge">
<title>src/crypto/keypair.ts&#45;&gt;src/core&#45;validators/addresses.ts</title>
<path fill="none" stroke="#528b8b" stroke-width="2" d="M688.72,-545.24C728.6,-539.46 780.04,-532.01 825.87,-525.37"/>
<polygon fill="#528b8b" stroke="#528b8b" stroke-width="2" points="826.46,-528.82 835.86,-523.92 825.46,-521.89 826.46,-528.82"/>
</g>
<!-- src/crypto/keypair.ts&#45;&gt;src/crypto/base32.ts -->
<g id="edge10" class="edge">
<title>src/crypto/keypair.ts&#45;&gt;src/crypto/base32.ts</title>
<path fill="none" stroke="#528b8b" stroke-width="2" d="M688.72,-564.86C739.2,-572.17 808.21,-582.17 860.91,-589.81"/>
<polygon fill="#528b8b" stroke="#528b8b" stroke-width="2" points="860.48,-593.28 870.88,-591.25 861.49,-586.35 860.48,-593.28"/>
</g>
<!-- src/crypto/keypair.ts&#45;&gt;src/crypto/crypto&#45;types.ts -->
<g id="edge11" class="edge">
<title>src/crypto/keypair.ts&#45;&gt;src/crypto/crypto&#45;types.ts</title>
<path fill="none" stroke="#528b8b" stroke-width="2" d="M688.71,-548.67C780.17,-542.11 947.45,-537.38 1084,-574.05 1121.84,-584.21 1161.01,-605.97 1188.09,-623.11"/>
<polygon fill="#528b8b" stroke="#528b8b" stroke-width="2" points="1186.49,-626.24 1196.79,-628.72 1190.28,-620.36 1186.49,-626.24"/>
</g>
<!-- src/format&#45;validators/format&#45;validator&#45;es4.ts&#45;&gt;src/core&#45;validators/addresses.ts -->
<g id="edge23" class="edge">
<title>src/format&#45;validators/format&#45;validator&#45;es4.ts&#45;&gt;src/core&#45;validators/addresses.ts</title>
<path fill="none" stroke="#528b8b" stroke-width="2" d="M745.57,-481.1C771.95,-484.92 799.65,-488.93 825.57,-492.69"/>
<polygon fill="#528b8b" stroke="#528b8b" stroke-width="2" points="825.4,-496.2 835.79,-494.17 826.4,-489.27 825.4,-496.2"/>
</g>
<!-- src/format&#45;validators/format&#45;validator&#45;es4.ts&#45;&gt;src/core&#45;validators/characters.ts -->
<g id="edge21" class="edge">
<title>src/format&#45;validators/format&#45;validator&#45;es4.ts&#45;&gt;src/core&#45;validators/characters.ts</title>
<path fill="none" stroke="#528b8b" stroke-width="2" d="M697.66,-444.99C718.25,-438.6 740.04,-430.36 759,-420.05 777.29,-410.09 775.42,-397.14 795,-390.05 915.83,-346.3 1068.28,-373.82 1154.79,-396.39"/>
<polygon fill="#528b8b" stroke="#528b8b" stroke-width="2" points="1153.93,-399.78 1164.49,-398.97 1155.73,-393.02 1153.93,-399.78"/>
</g>
<!-- src/format&#45;validators/format&#45;validator&#45;es4.ts&#45;&gt;src/core&#45;validators/checkers.ts -->
<g id="edge22" class="edge">
<title>src/format&#45;validators/format&#45;validator&#45;es4.ts&#45;&gt;src/core&#45;validators/checkers.ts</title>
<path fill="none" stroke="#528b8b" stroke-width="2" d="M745.57,-445C773.3,-440.98 802.49,-436.75 829.54,-432.83"/>
<polygon fill="#528b8b" stroke="#528b8b" stroke-width="2" points="830.39,-436.25 839.79,-431.35 829.39,-429.32 830.39,-436.25"/>
</g>
<!-- src/format&#45;validators/format&#45;validator&#45;es4.ts&#45;&gt;src/crypto/crypto&#45;types.ts -->
<g id="edge20" class="edge">
<title>src/format&#45;validators/format&#45;validator&#45;es4.ts&#45;&gt;src/crypto/crypto&#45;types.ts</title>
<path fill="none" stroke="#528b8b" stroke-width="2" d="M759.27,-456.63C874.66,-453.46 1028.83,-455 1084,-482.05 1144.46,-511.69 1188.55,-581.06 1209.45,-619.75"/>
<polygon fill="#528b8b" stroke="#528b8b" stroke-width="2" points="1206.5,-621.67 1214.26,-628.88 1212.69,-618.4 1206.5,-621.67"/>
</g>
<!-- src/format&#45;validators/format&#45;validator&#45;types.ts -->
<g id="node13" class="node">
<title>src/format&#45;validators/format&#45;validator&#45;types.ts</title>
<path fill="#79cdcd" stroke="#79cdcd" d="M1072,-343.05C1072,-343.05 807,-343.05 807,-343.05 801,-343.05 795,-337.05 795,-331.05 795,-331.05 795,-319.05 795,-319.05 795,-313.05 801,-307.05 807,-307.05 807,-307.05 1072,-307.05 1072,-307.05 1078,-307.05 1084,-313.05 1084,-319.05 1084,-319.05 1084,-331.05 1084,-331.05 1084,-337.05 1078,-343.05 1072,-343.05"/>
<text text-anchor="middle" x="939.5" y="-321.35" font-family="Helvetica,sans-Serif" font-size="14.00">src/format&#45;validators/format&#45;validator&#45;types.ts</text>
</g>
<!-- src/format&#45;validators/format&#45;validator&#45;es4.ts&#45;&gt;src/format&#45;validators/format&#45;validator&#45;types.ts -->
<g id="edge19" class="edge">
<title>src/format&#45;validators/format&#45;validator&#45;es4.ts&#45;&gt;src/format&#45;validators/format&#45;validator&#45;types.ts</title>
<path fill="none" stroke="#528b8b" stroke-width="2" d="M736.24,-444.99C744.37,-441.16 752.08,-436.57 759,-431.05 787.6,-408.25 766.3,-379.72 795,-357.05 799.32,-353.63 803.93,-350.57 808.75,-347.82"/>
<polygon fill="#528b8b" stroke="#528b8b" stroke-width="2" points="810.38,-350.92 817.63,-343.2 807.15,-344.71 810.38,-350.92"/>
</g>
<!-- src/format&#45;validators/format&#45;validator&#45;types.ts&#45;&gt;src/crypto/crypto&#45;types.ts -->
<g id="edge24" class="edge">
<title>src/format&#45;validators/format&#45;validator&#45;types.ts&#45;&gt;src/crypto/crypto&#45;types.ts</title>
<path fill="none" stroke="#528b8b" stroke-width="2" d="M1002.56,-343.1C1029.97,-353.44 1061.09,-368.7 1084,-390.05 1102.71,-407.49 1178.23,-557 1209.42,-619.63"/>
<polygon fill="#528b8b" stroke="#528b8b" stroke-width="2" points="1206.45,-621.5 1214.03,-628.9 1212.71,-618.39 1206.45,-621.5"/>
</g>
<!-- src/storage/compare.ts -->
<g id="node14" class="node">
<title>src/storage/compare.ts</title>
<path fill="#79cdcd" stroke="#79cdcd" d="M685.5,-275.05C685.5,-275.05 554.5,-275.05 554.5,-275.05 548.5,-275.05 542.5,-269.05 542.5,-263.05 542.5,-263.05 542.5,-251.05 542.5,-251.05 542.5,-245.05 548.5,-239.05 554.5,-239.05 554.5,-239.05 685.5,-239.05 685.5,-239.05 691.5,-239.05 697.5,-245.05 697.5,-251.05 697.5,-251.05 697.5,-263.05 697.5,-263.05 697.5,-269.05 691.5,-275.05 685.5,-275.05"/>
<text text-anchor="middle" x="620" y="-253.35" font-family="Helvetica,sans-Serif" font-size="14.00">src/storage/compare.ts</text>
</g>
<!-- src/storage/util&#45;types.ts -->
<g id="node22" class="node">
<title>src/storage/util&#45;types.ts</title>
<path fill="#79cdcd" stroke="#79cdcd" d="M1005,-282.05C1005,-282.05 874,-282.05 874,-282.05 868,-282.05 862,-276.05 862,-270.05 862,-270.05 862,-258.05 862,-258.05 862,-252.05 868,-246.05 874,-246.05 874,-246.05 1005,-246.05 1005,-246.05 1011,-246.05 1017,-252.05 1017,-258.05 1017,-258.05 1017,-270.05 1017,-270.05 1017,-276.05 1011,-282.05 1005,-282.05"/>
<text text-anchor="middle" x="939.5" y="-260.35" font-family="Helvetica,sans-Serif" font-size="14.00">src/storage/util&#45;types.ts</text>
</g>
<!-- src/storage/compare.ts&#45;&gt;src/storage/util&#45;types.ts -->
<g id="edge25" class="edge">
<title>src/storage/compare.ts&#45;&gt;src/storage/util&#45;types.ts</title>
<path fill="none" stroke="#528b8b" stroke-width="2" d="M697.86,-258.74C744.29,-259.77 803.59,-261.07 851.71,-262.13"/>
<polygon fill="#528b8b" stroke="#528b8b" stroke-width="2" points="851.73,-265.63 861.8,-262.36 851.88,-258.64 851.73,-265.63"/>
</g>
<!-- src/storage/query&#45;types.ts -->
<g id="node17" class="node">
<title>src/storage/query&#45;types.ts</title>
<path fill="#79cdcd" stroke="#79cdcd" d="M1013.5,-175.05C1013.5,-175.05 865.5,-175.05 865.5,-175.05 859.5,-175.05 853.5,-169.05 853.5,-163.05 853.5,-163.05 853.5,-151.05 853.5,-151.05 853.5,-145.05 859.5,-139.05 865.5,-139.05 865.5,-139.05 1013.5,-139.05 1013.5,-139.05 1019.5,-139.05 1025.5,-145.05 1025.5,-151.05 1025.5,-151.05 1025.5,-163.05 1025.5,-163.05 1025.5,-169.05 1019.5,-175.05 1013.5,-175.05"/>
<text text-anchor="middle" x="939.5" y="-153.35" font-family="Helvetica,sans-Serif" font-size="14.00">src/storage/query&#45;types.ts</text>
</g>
<!-- src/storage/follower.ts&#45;&gt;src/storage/query&#45;types.ts -->
<g id="edge27" class="edge">
<title>src/storage/follower.ts&#45;&gt;src/storage/query&#45;types.ts</title>
<path fill="none" stroke="#528b8b" stroke-width="2" d="M326.52,-272.02C356.88,-245.29 418.42,-196.15 481,-176.05 601.31,-137.41 748.6,-139.43 842.98,-146.51"/>
<polygon fill="#528b8b" stroke="#528b8b" stroke-width="2" points="842.84,-150.01 853.09,-147.3 843.39,-143.03 842.84,-150.01"/>
</g>
<!-- src/storage/storage&#45;types.ts -->
<g id="node21" class="node">
<title>src/storage/storage&#45;types.ts</title>
<path fill="#79cdcd" stroke="#79cdcd" d="M699.5,-221.05C699.5,-221.05 540.5,-221.05 540.5,-221.05 534.5,-221.05 528.5,-215.05 528.5,-209.05 528.5,-209.05 528.5,-197.05 528.5,-197.05 528.5,-191.05 534.5,-185.05 540.5,-185.05 540.5,-185.05 699.5,-185.05 699.5,-185.05 705.5,-185.05 711.5,-191.05 711.5,-197.05 711.5,-197.05 711.5,-209.05 711.5,-209.05 711.5,-215.05 705.5,-221.05 699.5,-221.05"/>
<text text-anchor="middle" x="620" y="-199.35" font-family="Helvetica,sans-Serif" font-size="14.00">src/storage/storage&#45;types.ts</text>
</g>
<!-- src/storage/follower.ts&#45;&gt;src/storage/storage&#45;types.ts -->
<g id="edge28" class="edge">
<title>src/storage/follower.ts&#45;&gt;src/storage/storage&#45;types.ts</title>
<path fill="none" stroke="#528b8b" stroke-width="2" d="M353.72,-271.96C388.44,-259 437.18,-241.83 481,-230.05 493,-226.82 505.68,-223.81 518.3,-221.06"/>
<polygon fill="#528b8b" stroke="#528b8b" stroke-width="2" points="519.34,-224.41 528.39,-218.91 517.88,-217.57 519.34,-224.41"/>
</g>
<!-- src/storage/follower.ts&#45;&gt;src/storage/util&#45;types.ts -->
<g id="edge26" class="edge">
<title>src/storage/follower.ts&#45;&gt;src/storage/util&#45;types.ts</title>
<path fill="none" stroke="#528b8b" stroke-width="2" d="M380.28,-291.27C469.75,-292.26 625.65,-292.34 759,-284.05 789.23,-282.17 822.21,-278.86 851.56,-275.47"/>
<polygon fill="#528b8b" stroke="#528b8b" stroke-width="2" points="852.25,-278.91 861.78,-274.26 851.44,-271.96 852.25,-278.91"/>
</g>
<!-- src/storage/lock.ts -->
<g id="node16" class="node">
<title>src/storage/lock.ts</title>
<path fill="#79cdcd" stroke="#79cdcd" d="M990,-64.05C990,-64.05 889,-64.05 889,-64.05 883,-64.05 877,-58.05 877,-52.05 877,-52.05 877,-40.05 877,-40.05 877,-34.05 883,-28.05 889,-28.05 889,-28.05 990,-28.05 990,-28.05 996,-28.05 1002,-34.05 1002,-40.05 1002,-40.05 1002,-52.05 1002,-52.05 1002,-58.05 996,-64.05 990,-64.05"/>
<text text-anchor="middle" x="939.5" y="-42.35" font-family="Helvetica,sans-Serif" font-size="14.00">src/storage/lock.ts</text>
</g>
<!-- src/storage/query.ts -->
<g id="node18" class="node">
<title>src/storage/query.ts</title>
<path fill="#79cdcd" stroke="#79cdcd" d="M675,-91.05C675,-91.05 565,-91.05 565,-91.05 559,-91.05 553,-85.05 553,-79.05 553,-79.05 553,-67.05 553,-67.05 553,-61.05 559,-55.05 565,-55.05 565,-55.05 675,-55.05 675,-55.05 681,-55.05 687,-61.05 687,-67.05 687,-67.05 687,-79.05 687,-79.05 687,-85.05 681,-91.05 675,-91.05"/>
<text text-anchor="middle" x="620" y="-69.35" font-family="Helvetica,sans-Serif" font-size="14.00">src/storage/query.ts</text>
</g>
<!-- src/storage/query.ts&#45;&gt;src/storage/query&#45;types.ts -->
<g id="edge29" class="edge">
<title>src/storage/query.ts&#45;&gt;src/storage/query&#45;types.ts</title>
<path fill="none" stroke="#528b8b" stroke-width="2" d="M687.16,-87.62C709.99,-92.86 735.68,-98.97 759,-105.05 795.72,-114.62 836.35,-126.29 869.66,-136.16"/>
<polygon fill="#528b8b" stroke="#528b8b" stroke-width="2" points="868.72,-139.53 879.3,-139.02 870.71,-132.82 868.72,-139.53"/>
</g>
<!-- src/storage/storage&#45;async.ts&#45;&gt;src/format&#45;validators/format&#45;validator&#45;types.ts -->
<g id="edge33" class="edge">
<title>src/storage/storage&#45;async.ts&#45;&gt;src/format&#45;validators/format&#45;validator&#45;types.ts</title>
<path fill="none" stroke="#528b8b" stroke-width="2" d="M355.08,-373.08C440.18,-402.02 621.31,-450.08 759,-393.05 779.91,-384.39 775.17,-367.94 795,-357.05 802.16,-353.11 809.77,-349.67 817.6,-346.64"/>
<polygon fill="#528b8b" stroke="#528b8b" stroke-width="2" points="819.04,-349.84 827.26,-343.16 816.67,-343.26 819.04,-349.84"/>
</g>
<!-- src/storage/storage&#45;async.ts&#45;&gt;src/storage/compare.ts -->
<g id="edge34" class="edge">
<title>src/storage/storage&#45;async.ts&#45;&gt;src/storage/compare.ts</title>
<path fill="none" stroke="#528b8b" stroke-width="2" d="M376.04,-336.96C398.15,-330.92 422.69,-323.96 445,-317.05 483.48,-305.13 526.25,-290.4 559.76,-278.52"/>
<polygon fill="#528b8b" stroke="#528b8b" stroke-width="2" points="561.15,-281.74 569.4,-275.09 558.8,-275.14 561.15,-281.74"/>
</g>
<!-- src/storage/storage&#45;async.ts&#45;&gt;src/storage/query&#45;types.ts -->
<g id="edge31" class="edge">
<title>src/storage/storage&#45;async.ts&#45;&gt;src/storage/query&#45;types.ts</title>
<path fill="none" stroke="#528b8b" stroke-width="2" d="M399.12,-348.65C513.21,-339.36 699.77,-319.27 759,-284.05 781.62,-270.6 775.09,-254.26 795,-237.05 822.45,-213.31 858.06,-193.41 886.94,-179.39"/>
<polygon fill="#528b8b" stroke="#528b8b" stroke-width="2" points="888.54,-182.51 896.06,-175.05 885.53,-176.19 888.54,-182.51"/>
</g>
<!-- src/storage/storage&#45;async.ts&#45;&gt;src/storage/storage&#45;types.ts -->
<g id="edge32" class="edge">
<title>src/storage/storage&#45;async.ts&#45;&gt;src/storage/storage&#45;types.ts</title>
<path fill="none" stroke="#528b8b" stroke-width="2" d="M399.04,-342.26C415.74,-336.62 431.96,-328.56 445,-317.05 476.36,-289.34 448.62,-256.55 481,-230.05 491.87,-221.15 504.82,-214.89 518.38,-210.53"/>
<polygon fill="#528b8b" stroke="#528b8b" stroke-width="2" points="519.68,-213.8 528.33,-207.68 517.75,-207.07 519.68,-213.8"/>
</g>
<!-- src/storage/storage&#45;async.ts&#45;&gt;src/storage/util&#45;types.ts -->
<g id="edge30" class="edge">
<title>src/storage/storage&#45;async.ts&#45;&gt;src/storage/util&#45;types.ts</title>
<path fill="none" stroke="#528b8b" stroke-width="2" d="M399.49,-365.33C513.5,-376.26 699.47,-387.86 759,-355.05 785.24,-340.58 770.61,-315.46 795,-298.05 811.74,-286.09 832.11,-278.29 852.18,-273.22"/>
<polygon fill="#528b8b" stroke="#528b8b" stroke-width="2" points="853.05,-276.61 861.99,-270.94 851.46,-269.79 853.05,-276.61"/>
</g>
<!-- src/storage/storage&#45;driver&#45;async&#45;memory.ts&#45;&gt;src/storage/compare.ts -->
<g id="edge38" class="edge">
<title>src/storage/storage&#45;driver&#45;async&#45;memory.ts&#45;&gt;src/storage/compare.ts</title>
<path fill="none" stroke="#528b8b" stroke-width="2" d="M329.12,-137.08C360.79,-161.95 421.78,-206.36 481,-230.05 497.11,-236.49 514.9,-241.44 532.21,-245.22"/>
<polygon fill="#528b8b" stroke="#528b8b" stroke-width="2" points="531.83,-248.71 542.33,-247.32 533.25,-241.86 531.83,-248.71"/>
</g>
<!-- src/storage/storage&#45;driver&#45;async&#45;memory.ts&#45;&gt;src/storage/lock.ts -->
<g id="edge40" class="edge">
<title>src/storage/storage&#45;driver&#45;async&#45;memory.ts&#45;&gt;src/storage/lock.ts</title>
<path fill="none" stroke="#528b8b" stroke-width="2" d="M329.16,-100.93C360.63,-76.49 421.13,-34.16 481,-18.05 613.76,17.69 775.71,-7.56 866.97,-27.76"/>
<polygon fill="#528b8b" stroke="#528b8b" stroke-width="2" points="866.41,-31.22 876.93,-30.01 867.95,-24.39 866.41,-31.22"/>
</g>
<!-- src/storage/storage&#45;driver&#45;async&#45;memory.ts&#45;&gt;src/storage/query&#45;types.ts -->
<g id="edge36" class="edge">
<title>src/storage/storage&#45;driver&#45;async&#45;memory.ts&#45;&gt;src/storage/query&#45;types.ts</title>
<path fill="none" stroke="#528b8b" stroke-width="2" d="M339.11,-100.98C373.11,-82.97 428.97,-56.52 481,-46.05 602.13,-21.67 641.78,-6.98 759,-46.05 777.97,-52.37 778.34,-61.98 795,-73.05 828.08,-95.03 867.06,-117.65 896.04,-133.87"/>
<polygon fill="#528b8b" stroke="#528b8b" stroke-width="2" points="894.64,-137.1 905.08,-138.91 898.04,-130.98 894.64,-137.1"/>
</g>
<!-- src/storage/storage&#45;driver&#45;async&#45;memory.ts&#45;&gt;src/storage/query.ts -->
<g id="edge39" class="edge">
<title>src/storage/storage&#45;driver&#45;async&#45;memory.ts&#45;&gt;src/storage/query.ts</title>
<path fill="none" stroke="#528b8b" stroke-width="2" d="M429.42,-101C467.48,-95.39 508.33,-89.36 542.34,-84.35"/>
<polygon fill="#528b8b" stroke="#528b8b" stroke-width="2" points="543.28,-87.75 552.66,-82.83 542.26,-80.82 543.28,-87.75"/>
</g>
<!-- src/storage/storage&#45;driver&#45;async&#45;memory.ts&#45;&gt;src/storage/storage&#45;types.ts -->
<g id="edge37" class="edge">
<title>src/storage/storage&#45;driver&#45;async&#45;memory.ts&#45;&gt;src/storage/storage&#45;types.ts</title>
<path fill="none" stroke="#528b8b" stroke-width="2" d="M373.93,-137.07C423.3,-150.36 490.57,-168.47 542.14,-182.36"/>
<polygon fill="#528b8b" stroke="#528b8b" stroke-width="2" points="541.34,-185.76 551.91,-184.98 543.16,-179.01 541.34,-185.76"/>
</g>
<!-- src/storage/storage&#45;driver&#45;async&#45;memory.ts&#45;&gt;src/storage/util&#45;types.ts -->
<g id="edge35" class="edge">
<title>src/storage/storage&#45;driver&#45;async&#45;memory.ts&#45;&gt;src/storage/util&#45;types.ts</title>
<path fill="none" stroke="#528b8b" stroke-width="2" d="M445.16,-124.65C535.93,-131.19 656.42,-145.36 759,-176.05 810.28,-191.38 864.92,-220.18 900.26,-240.65"/>
<polygon fill="#528b8b" stroke="#528b8b" stroke-width="2" points="898.86,-243.89 909.25,-245.92 902.4,-237.85 898.86,-243.89"/>
</g>
<!-- src/storage/storage&#45;types.ts&#45;&gt;src/format&#45;validators/format&#45;validator&#45;types.ts -->
<g id="edge42" class="edge">
<title>src/storage/storage&#45;types.ts&#45;&gt;src/format&#45;validators/format&#45;validator&#45;types.ts</title>
<path fill="none" stroke="#528b8b" stroke-width="2" d="M711.59,-209.47C728.41,-213.69 745.05,-220.18 759,-230.05 784.7,-248.22 769.66,-272.37 795,-291.05 801.02,-295.49 807.54,-299.35 814.36,-302.72"/>
<polygon fill="#528b8b" stroke="#528b8b" stroke-width="2" points="813.28,-306.08 823.83,-307.02 816.17,-299.7 813.28,-306.08"/>
</g>
<!-- src/storage/storage&#45;types.ts&#45;&gt;src/storage/lock.ts -->
<g id="edge43" class="edge">
<title>src/storage/storage&#45;types.ts&#45;&gt;src/storage/lock.ts</title>
<path fill="none" stroke="#528b8b" stroke-width="2" d="M657.42,-185.04C715.64,-156.25 829.55,-99.92 893.03,-68.53"/>
<polygon fill="#528b8b" stroke="#528b8b" stroke-width="2" points="894.6,-71.66 902.02,-64.09 891.5,-65.38 894.6,-71.66"/>
</g>
<!-- src/storage/storage&#45;types.ts&#45;&gt;src/storage/query&#45;types.ts -->
<g id="edge41" class="edge">
<title>src/storage/storage&#45;types.ts&#45;&gt;src/storage/query&#45;types.ts</title>
<path fill="none" stroke="#528b8b" stroke-width="2" d="M711.56,-189.93C752.79,-183.95 801.6,-176.88 843.37,-170.83"/>
<polygon fill="#528b8b" stroke="#528b8b" stroke-width="2" points="843.88,-174.29 853.28,-169.39 842.88,-167.36 843.88,-174.29"/>
</g>
</g>
</svg>
