<?xml version="1.0" encoding="UTF-8" standalone="no"?>
<!DOCTYPE svg PUBLIC "-//W3C//DTD SVG 1.1//EN"
 "http://www.w3.org/Graphics/SVG/1.1/DTD/svg11.dtd">
<!-- Generated by graphviz version 2.44.1 (20200629.0846)
 -->
<!-- Title: G Pages: 1 -->
<svg width="433pt" height="429pt"
 viewBox="0.00 0.00 433.00 428.67" xmlns="http://www.w3.org/2000/svg" xmlns:xlink="http://www.w3.org/1999/xlink">
<g id="graph0" class="graph" transform="scale(1 1) rotate(0) translate(4 424.67)">
<title>G</title>
<polygon fill="white" stroke="transparent" points="-4,4 -4,-424.67 429,-424.67 429,4 -4,4"/>
<g id="clust1" class="cluster">
<title>cluster8521669135</title>
<path fill="none" stroke="#8b7d6b" stroke-width="2" d="M20,-209.67C20,-209.67 405,-209.67 405,-209.67 411,-209.67 417,-215.67 417,-221.67 417,-221.67 417,-400.67 417,-400.67 417,-406.67 411,-412.67 405,-412.67 405,-412.67 20,-412.67 20,-412.67 14,-412.67 8,-406.67 8,-400.67 8,-400.67 8,-221.67 8,-221.67 8,-215.67 14,-209.67 20,-209.67"/>
<text text-anchor="start" x="194.5" y="-398.47" font-family="Helvetica,sans-Serif" font-weight="bold" font-size="14.00">types</text>
</g>
<g id="clust2" class="cluster">
<title>cluster8191843671</title>
<path fill="none" stroke="#8b7d6b" stroke-width="2" d="M191,-18.67C191,-18.67 393.5,-18.67 393.5,-18.67 399.5,-18.67 405.5,-24.67 405.5,-30.67 405.5,-30.67 405.5,-189.67 405.5,-189.67 405.5,-195.67 399.5,-201.67 393.5,-201.67 393.5,-201.67 191,-201.67 191,-201.67 185,-201.67 179,-195.67 179,-189.67 179,-189.67 179,-30.67 179,-30.67 179,-24.67 185,-18.67 191,-18.67"/>
<text text-anchor="start" x="281.75" y="-187.47" font-family="Helvetica,sans-Serif" font-weight="bold" font-size="14.00">util</text>
</g>
<!-- src/types/cryptoTypes.ts -->
<g id="node1" class="node">
<title>src/types/cryptoTypes.ts</title>
<path fill="#79cdcd" stroke="#79cdcd" d="M264.5,-381.67C264.5,-381.67 184.5,-381.67 184.5,-381.67 178.5,-381.67 172.5,-375.67 172.5,-369.67 172.5,-369.67 172.5,-357.67 172.5,-357.67 172.5,-351.67 178.5,-345.67 184.5,-345.67 184.5,-345.67 264.5,-345.67 264.5,-345.67 270.5,-345.67 276.5,-351.67 276.5,-357.67 276.5,-357.67 276.5,-369.67 276.5,-369.67 276.5,-375.67 270.5,-381.67 264.5,-381.67"/>
<text text-anchor="middle" x="224.5" y="-359.97" font-family="Helvetica,sans-Serif" font-size="14.00">cryptoTypes.ts</text>
</g>
<!-- src/types/docTypes.ts -->
<g id="node2" class="node">
<title>src/types/docTypes.ts</title>
<path fill="#79cdcd" stroke="#79cdcd" d="M397,-290.67C397,-290.67 332,-290.67 332,-290.67 326,-290.67 320,-284.67 320,-278.67 320,-278.67 320,-266.67 320,-266.67 320,-260.67 326,-254.67 332,-254.67 332,-254.67 397,-254.67 397,-254.67 403,-254.67 409,-260.67 409,-266.67 409,-266.67 409,-278.67 409,-278.67 409,-284.67 403,-290.67 397,-290.67"/>
<text text-anchor="middle" x="364.5" y="-268.97" font-family="Helvetica,sans-Serif" font-size="14.00">docTypes.ts</text>
</g>
<!-- src/types/cryptoTypes.ts&#45;&gt;src/types/docTypes.ts -->
<g id="edge1" class="edge">
<title>src/types/cryptoTypes.ts&#45;&gt;src/types/docTypes.ts</title>
<path fill="none" stroke="#528b8b" stroke-width="2" d="M268.01,-345.55C273.5,-342.78 278.96,-339.79 284,-336.67 302.42,-325.24 321.39,-310.12 336.18,-297.45"/>
<polygon fill="#528b8b" stroke="#528b8b" stroke-width="2" points="338.69,-299.9 343.94,-290.69 334.1,-294.62 338.69,-299.9"/>
</g>
<!-- src/types/queryTypes.ts -->
<g id="node3" class="node">
<title>src/types/queryTypes.ts</title>
<path fill="#79cdcd" stroke="#79cdcd" d="M263,-327.67C263,-327.67 186,-327.67 186,-327.67 180,-327.67 174,-321.67 174,-315.67 174,-315.67 174,-303.67 174,-303.67 174,-297.67 180,-291.67 186,-291.67 186,-291.67 263,-291.67 263,-291.67 269,-291.67 275,-297.67 275,-303.67 275,-303.67 275,-315.67 275,-315.67 275,-321.67 269,-327.67 263,-327.67"/>
<text text-anchor="middle" x="224.5" y="-305.97" font-family="Helvetica,sans-Serif" font-size="14.00">queryTypes.ts</text>
</g>
<!-- src/types/queryTypes.ts&#45;&gt;src/types/docTypes.ts -->
<g id="edge2" class="edge">
<title>src/types/queryTypes.ts&#45;&gt;src/types/docTypes.ts</title>
<path fill="none" stroke="#528b8b" stroke-width="2" d="M275.32,-296.31C286.55,-293.3 298.51,-290.09 309.88,-287.04"/>
<polygon fill="#528b8b" stroke="#528b8b" stroke-width="2" points="310.94,-290.38 319.69,-284.41 309.13,-283.62 310.94,-290.38"/>
</g>
<!-- src/types/storageTypes.ts -->
<g id="node4" class="node">
<title>src/types/storageTypes.ts</title>
<path fill="#79cdcd" stroke="#79cdcd" d="M117,-307.67C117,-307.67 28,-307.67 28,-307.67 22,-307.67 16,-301.67 16,-295.67 16,-295.67 16,-283.67 16,-283.67 16,-277.67 22,-271.67 28,-271.67 28,-271.67 117,-271.67 117,-271.67 123,-271.67 129,-277.67 129,-283.67 129,-283.67 129,-295.67 129,-295.67 129,-301.67 123,-307.67 117,-307.67"/>
<text text-anchor="middle" x="72.5" y="-285.97" font-family="Helvetica,sans-Serif" font-size="14.00">storageTypes.ts</text>
</g>
<!-- src/types/storageTypes.ts&#45;&gt;src/types/docTypes.ts -->
<g id="edge3" class="edge">
<title>src/types/storageTypes.ts&#45;&gt;src/types/docTypes.ts</title>
<path fill="none" stroke="#528b8b" stroke-width="2" d="M129.13,-285.18C140.97,-284.29 153.39,-283.4 165,-282.67 213.94,-279.56 269.73,-276.82 309.67,-275"/>
<polygon fill="#528b8b" stroke="#528b8b" stroke-width="2" points="309.89,-278.49 319.72,-274.55 309.57,-271.5 309.89,-278.49"/>
</g>
<!-- src/types/storageTypes.ts&#45;&gt;src/types/queryTypes.ts -->
<g id="edge4" class="edge">
<title>src/types/storageTypes.ts&#45;&gt;src/types/queryTypes.ts</title>
<path fill="none" stroke="#528b8b" stroke-width="2" d="M129.35,-297.12C140.45,-298.59 152.15,-300.15 163.38,-301.65"/>
<polygon fill="#528b8b" stroke="#528b8b" stroke-width="2" points="163.16,-305.15 173.53,-303.01 164.08,-298.21 163.16,-305.15"/>
</g>
<!-- src/util/lock.ts -->
<g id="node9" class="node">
<title>src/util/lock.ts</title>
<path fill="#79cdcd" stroke="#79cdcd" d="M240,-116.67C240,-116.67 209,-116.67 209,-116.67 203,-116.67 197,-110.67 197,-104.67 197,-104.67 197,-92.67 197,-92.67 197,-86.67 203,-80.67 209,-80.67 209,-80.67 240,-80.67 240,-80.67 246,-80.67 252,-86.67 252,-92.67 252,-92.67 252,-104.67 252,-104.67 252,-110.67 246,-116.67 240,-116.67"/>
<text text-anchor="middle" x="224.5" y="-94.97" font-family="Helvetica,sans-Serif" font-size="14.00">lock.ts</text>
</g>
<!-- src/types/storageTypes.ts&#45;&gt;src/util/lock.ts -->
<g id="edge5" class="edge">
<title>src/types/storageTypes.ts&#45;&gt;src/util/lock.ts</title>
<path fill="none" stroke="#528b8b" stroke-width="2" d="M119.55,-271.51C123.06,-268.92 126.28,-265.98 129,-262.67 168.95,-214.01 124.55,-173.91 165,-125.67 170.9,-118.63 179.03,-113.33 187.36,-109.38"/>
<polygon fill="#528b8b" stroke="#528b8b" stroke-width="2" points="188.85,-112.54 196.73,-105.46 186.16,-106.08 188.85,-112.54"/>
</g>
<!-- src/types/utilTypes.ts -->
<g id="node5" class="node">
<title>src/types/utilTypes.ts</title>
<path fill="#79cdcd" stroke="#79cdcd" d="M103,-253.67C103,-253.67 42,-253.67 42,-253.67 36,-253.67 30,-247.67 30,-241.67 30,-241.67 30,-229.67 30,-229.67 30,-223.67 36,-217.67 42,-217.67 42,-217.67 103,-217.67 103,-217.67 109,-217.67 115,-223.67 115,-229.67 115,-229.67 115,-241.67 115,-241.67 115,-247.67 109,-253.67 103,-253.67"/>
<text text-anchor="middle" x="72.5" y="-231.97" font-family="Helvetica,sans-Serif" font-size="14.00">utilTypes.ts</text>
</g>
<!-- src/types/validatorTypes.ts -->
<g id="node6" class="node">
<title>src/types/validatorTypes.ts</title>
<path fill="#79cdcd" stroke="#79cdcd" d="M272,-253.67C272,-253.67 177,-253.67 177,-253.67 171,-253.67 165,-247.67 165,-241.67 165,-241.67 165,-229.67 165,-229.67 165,-223.67 171,-217.67 177,-217.67 177,-217.67 272,-217.67 272,-217.67 278,-217.67 284,-223.67 284,-229.67 284,-229.67 284,-241.67 284,-241.67 284,-247.67 278,-253.67 272,-253.67"/>
<text text-anchor="middle" x="224.5" y="-231.97" font-family="Helvetica,sans-Serif" font-size="14.00">validatorTypes.ts</text>
</g>
<!-- src/types/validatorTypes.ts&#45;&gt;src/types/docTypes.ts -->
<g id="edge6" class="edge">
<title>src/types/validatorTypes.ts&#45;&gt;src/types/docTypes.ts</title>
<path fill="none" stroke="#528b8b" stroke-width="2" d="M284.02,-251.36C292.68,-253.68 301.57,-256.06 310.12,-258.35"/>
<polygon fill="#528b8b" stroke="#528b8b" stroke-width="2" points="309.39,-261.79 319.96,-260.99 311.21,-255.02 309.39,-261.79"/>
</g>
<!-- src/util/errors.ts -->
<g id="node8" class="node">
<title>src/util/errors.ts</title>
<path fill="#79cdcd" stroke="#79cdcd" d="M385.5,-170.67C385.5,-170.67 343.5,-170.67 343.5,-170.67 337.5,-170.67 331.5,-164.67 331.5,-158.67 331.5,-158.67 331.5,-146.67 331.5,-146.67 331.5,-140.67 337.5,-134.67 343.5,-134.67 343.5,-134.67 385.5,-134.67 385.5,-134.67 391.5,-134.67 397.5,-140.67 397.5,-146.67 397.5,-146.67 397.5,-158.67 397.5,-158.67 397.5,-164.67 391.5,-170.67 385.5,-170.67"/>
<text text-anchor="middle" x="364.5" y="-148.97" font-family="Helvetica,sans-Serif" font-size="14.00">errors.ts</text>
</g>
<!-- src/types/validatorTypes.ts&#45;&gt;src/util/errors.ts -->
<g id="edge7" class="edge">
<title>src/types/validatorTypes.ts&#45;&gt;src/util/errors.ts</title>
<path fill="none" stroke="#528b8b" stroke-width="2" d="M262.36,-217.58C269.61,-213.79 277.11,-209.71 284,-205.67 299.28,-196.7 315.65,-185.98 329.54,-176.54"/>
<polygon fill="#528b8b" stroke="#528b8b" stroke-width="2" points="331.57,-179.4 337.84,-170.86 327.61,-173.62 331.57,-179.4"/>
</g>
<!-- src/util/base32.ts -->
<g id="node7" class="node">
<title>src/util/base32.ts</title>
<path fill="#79cdcd" stroke="#79cdcd" d="M250,-170.67C250,-170.67 199,-170.67 199,-170.67 193,-170.67 187,-164.67 187,-158.67 187,-158.67 187,-146.67 187,-146.67 187,-140.67 193,-134.67 199,-134.67 199,-134.67 250,-134.67 250,-134.67 256,-134.67 262,-140.67 262,-146.67 262,-146.67 262,-158.67 262,-158.67 262,-164.67 256,-170.67 250,-170.67"/>
<text text-anchor="middle" x="224.5" y="-148.97" font-family="Helvetica,sans-Serif" font-size="14.00">base32.ts</text>
</g>
<!-- src/util/base32.ts&#45;&gt;src/types/docTypes.ts -->
<g id="edge8" class="edge">
<title>src/util/base32.ts&#45;&gt;src/types/docTypes.ts</title>
<path fill="none" stroke="#528b8b" stroke-width="2" d="M246.46,-170.89C270.1,-191.45 308.68,-225 335.04,-247.92"/>
<polygon fill="#528b8b" stroke="#528b8b" stroke-width="2" points="332.95,-250.74 342.8,-254.66 337.55,-245.46 332.95,-250.74"/>
</g>
<!-- src/util/base32.ts&#45;&gt;src/util/errors.ts -->
<g id="edge9" class="edge">
<title>src/util/base32.ts&#45;&gt;src/util/errors.ts</title>
<path fill="none" stroke="#528b8b" stroke-width="2" d="M262.12,-152.67C280.31,-152.67 302.38,-152.67 321.28,-152.67"/>
<polygon fill="#528b8b" stroke="#528b8b" stroke-width="2" points="321.41,-156.17 331.41,-152.67 321.41,-149.17 321.41,-156.17"/>
</g>
<!-- src/util/utils.ts -->
<g id="node11" class="node">
<title>src/util/utils.ts</title>
<path fill="#79cdcd" stroke="#79cdcd" d="M380,-89.67C380,-89.67 349,-89.67 349,-89.67 343,-89.67 337,-83.67 337,-77.67 337,-77.67 337,-65.67 337,-65.67 337,-59.67 343,-53.67 349,-53.67 349,-53.67 380,-53.67 380,-53.67 386,-53.67 392,-59.67 392,-65.67 392,-65.67 392,-77.67 392,-77.67 392,-83.67 386,-89.67 380,-89.67"/>
<text text-anchor="middle" x="364.5" y="-67.97" font-family="Helvetica,sans-Serif" font-size="14.00">utils.ts</text>
</g>
<!-- src/util/lock.ts&#45;&gt;src/util/utils.ts -->
<g id="edge10" class="edge">
<title>src/util/lock.ts&#45;&gt;src/util/utils.ts</title>
<path fill="none" stroke="#528b8b" stroke-width="2" d="M252.11,-93.46C273.39,-89.3 303.47,-83.41 327,-78.81"/>
<polygon fill="#528b8b" stroke="#528b8b" stroke-width="2" points="327.83,-82.21 336.97,-76.86 326.49,-75.34 327.83,-82.21"/>
</g>
<!-- src/util/log.ts -->
<g id="node10" class="node">
<title>src/util/log.ts</title>
<path fill="#79cdcd" stroke="#79cdcd" d="M239.5,-62.67C239.5,-62.67 209.5,-62.67 209.5,-62.67 203.5,-62.67 197.5,-56.67 197.5,-50.67 197.5,-50.67 197.5,-38.67 197.5,-38.67 197.5,-32.67 203.5,-26.67 209.5,-26.67 209.5,-26.67 239.5,-26.67 239.5,-26.67 245.5,-26.67 251.5,-32.67 251.5,-38.67 251.5,-38.67 251.5,-50.67 251.5,-50.67 251.5,-56.67 245.5,-62.67 239.5,-62.67"/>
<text text-anchor="middle" x="224.5" y="-40.97" font-family="Helvetica,sans-Serif" font-size="14.00">log.ts</text>
</g>
<!-- src/util/utils.ts&#45;&gt;src/types/utilTypes.ts -->
<g id="edge11" class="edge">
<title>src/util/utils.ts&#45;&gt;src/types/utilTypes.ts</title>
<path fill="none" stroke="#528b8b" stroke-width="2" d="M344.04,-53.49C328.94,-40.71 306.81,-24.68 284,-17.67 233.45,-2.12 209.04,11.61 165,-17.67 100.49,-60.55 81.37,-158.69 75.77,-207.3"/>
<polygon fill="#528b8b" stroke="#528b8b" stroke-width="2" points="72.27,-207.13 74.72,-217.44 79.23,-207.85 72.27,-207.13"/>
</g>
</g>
</svg>
