<?xml version="1.0" encoding="UTF-8" standalone="no"?>
<!DOCTYPE svg PUBLIC "-//W3C//DTD SVG 1.1//EN"
 "http://www.w3.org/Graphics/SVG/1.1/DTD/svg11.dtd">
<!-- Generated by graphviz version 2.44.1 (20200629.0846)
 -->
<!-- Title: G Pages: 1 -->
<svg width="1177pt" height="704pt"
 viewBox="0.00 0.00 1177.00 704.00" xmlns="http://www.w3.org/2000/svg" xmlns:xlink="http://www.w3.org/1999/xlink">
<g id="graph0" class="graph" transform="scale(1 1) rotate(0) translate(4 700)">
<title>G</title>
<polygon fill="white" stroke="transparent" points="-4,4 -4,-700 1173,-700 1173,4 -4,4"/>
<g id="clust1" class="cluster">
<title>cluster193399878</title>
<path fill="none" stroke="#8b7d6b" stroke-width="2" d="M20,-8C20,-8 1149,-8 1149,-8 1155,-8 1161,-14 1161,-20 1161,-20 1161,-676 1161,-676 1161,-682 1155,-688 1149,-688 1149,-688 20,-688 20,-688 14,-688 8,-682 8,-676 8,-676 8,-20 8,-20 8,-14 14,-8 20,-8"/>
<text text-anchor="start" x="574" y="-673.8" font-family="Helvetica,sans-Serif" font-weight="bold" font-size="14.00">src</text>
</g>
<g id="clust2" class="cluster">
<title>cluster178651764</title>
<path fill="bisque" stroke="#8b7d6b" stroke-width="2" d="M723,-518C723,-518 982,-518 982,-518 988,-518 994,-524 994,-530 994,-530 994,-635 994,-635 994,-641 988,-647 982,-647 982,-647 723,-647 723,-647 717,-647 711,-641 711,-635 711,-635 711,-530 711,-530 711,-524 717,-518 723,-518"/>
<text text-anchor="start" x="804" y="-632.8" font-family="Helvetica,sans-Serif" font-weight="bold" font-size="14.00">core&#45;validators</text>
</g>
<g id="clust3" class="cluster">
<title>cluster1094172132</title>
<path fill="bisque" stroke="#8b7d6b" stroke-width="2" d="M415,-339C415,-339 669,-339 669,-339 675,-339 681,-345 681,-351 681,-351 681,-510 681,-510 681,-516 675,-522 669,-522 669,-522 415,-522 415,-522 409,-522 403,-516 403,-510 403,-510 403,-351 403,-351 403,-345 409,-339 415,-339"/>
<text text-anchor="start" x="521" y="-507.8" font-family="Helvetica,sans-Serif" font-weight="bold" font-size="14.00">crypto</text>
</g>
<g id="clust4" class="cluster">
<title>cluster8636579240</title>
<path fill="bisque" stroke="#8b7d6b" stroke-width="2" d="M199,-544C199,-544 343,-544 343,-544 349,-544 355,-550 355,-556 355,-556 355,-607 355,-607 355,-613 349,-619 343,-619 343,-619 199,-619 199,-619 193,-619 187,-613 187,-607 187,-607 187,-556 187,-556 187,-550 193,-544 199,-544"/>
<text text-anchor="start" x="215" y="-604.8" font-family="Helvetica,sans-Serif" font-weight="bold" font-size="14.00">format&#45;validators</text>
</g>
<g id="clust5" class="cluster">
<title>cluster9008069221</title>
<path fill="bisque" stroke="#8b7d6b" stroke-width="2" d="M171,-168C171,-168 371,-168 371,-168 377,-168 383,-174 383,-180 383,-180 383,-285 383,-285 383,-291 377,-297 371,-297 371,-297 171,-297 171,-297 165,-297 159,-291 159,-285 159,-285 159,-180 159,-180 159,-174 165,-168 171,-168"/>
<text text-anchor="start" x="246.5" y="-282.8" font-family="Helvetica,sans-Serif" font-weight="bold" font-size="14.00">storage</text>
</g>
<g id="clust6" class="cluster">
<title>cluster5125460292</title>
<path fill="bisque" stroke="#8b7d6b" stroke-width="2" d="M713,-122C713,-122 1141,-122 1141,-122 1147,-122 1153,-128 1153,-134 1153,-134 1153,-293 1153,-293 1153,-299 1147,-305 1141,-305 1141,-305 713,-305 713,-305 707,-305 701,-299 701,-293 701,-293 701,-134 701,-134 701,-128 707,-122 713,-122"/>
<text text-anchor="start" x="909" y="-290.8" font-family="Helvetica,sans-Serif" font-weight="bold" font-size="14.00">types</text>
</g>
<!-- src/base32.ts -->
<g id="node1" class="node">
<title>src/base32.ts</title>
<path fill="#79cdcd" stroke="#79cdcd" d="M791,-448C791,-448 740,-448 740,-448 734,-448 728,-442 728,-436 728,-436 728,-424 728,-424 728,-418 734,-412 740,-412 740,-412 791,-412 791,-412 797,-412 803,-418 803,-424 803,-424 803,-436 803,-436 803,-442 797,-448 791,-448"/>
<text text-anchor="middle" x="765.5" y="-426.3" font-family="Helvetica,sans-Serif" font-size="14.00">base32.ts</text>
</g>
<!-- src/types/doc&#45;types.ts -->
<g id="node20" class="node">
<title>src/types/doc&#45;types.ts</title>
<path fill="#79cdcd" stroke="#79cdcd" d="M1133,-274C1133,-274 1068,-274 1068,-274 1062,-274 1056,-268 1056,-262 1056,-262 1056,-250 1056,-250 1056,-244 1062,-238 1068,-238 1068,-238 1133,-238 1133,-238 1139,-238 1145,-244 1145,-250 1145,-250 1145,-262 1145,-262 1145,-268 1139,-274 1133,-274"/>
<text text-anchor="middle" x="1100.5" y="-252.3" font-family="Helvetica,sans-Serif" font-size="14.00">doc&#45;types.ts</text>
</g>
<!-- src/base32.ts&#45;&gt;src/types/doc&#45;types.ts -->
<g id="edge1" class="edge">
<title>src/base32.ts&#45;&gt;src/types/doc&#45;types.ts</title>
<path fill="none" stroke="#528b8b" stroke-width="2" d="M803.19,-435.06C855.9,-440.33 953.97,-442.5 1020,-398 1059.75,-371.21 1081.73,-317.57 1092.03,-284.43"/>
<polygon fill="#528b8b" stroke="#528b8b" stroke-width="2" points="1095.5,-285.03 1094.98,-274.45 1088.79,-283.05 1095.5,-285.03"/>
</g>
<!-- src/decls.d.ts -->
<g id="node2" class="node">
<title>src/decls.d.ts</title>
<path fill="#79cdcd" stroke="#79cdcd" d="M98.5,-488C98.5,-488 48.5,-488 48.5,-488 42.5,-488 36.5,-482 36.5,-476 36.5,-476 36.5,-464 36.5,-464 36.5,-458 42.5,-452 48.5,-452 48.5,-452 98.5,-452 98.5,-452 104.5,-452 110.5,-458 110.5,-464 110.5,-464 110.5,-476 110.5,-476 110.5,-482 104.5,-488 98.5,-488"/>
<text text-anchor="middle" x="73.5" y="-466.3" font-family="Helvetica,sans-Serif" font-size="14.00">decls.d.ts</text>
</g>
<!-- src/example&#45;app.ts -->
<g id="node3" class="node">
<title>src/example&#45;app.ts</title>
<path fill="#79cdcd" stroke="#79cdcd" d="M116.5,-266C116.5,-266 30.5,-266 30.5,-266 24.5,-266 18.5,-260 18.5,-254 18.5,-254 18.5,-242 18.5,-242 18.5,-236 24.5,-230 30.5,-230 30.5,-230 116.5,-230 116.5,-230 122.5,-230 128.5,-236 128.5,-242 128.5,-242 128.5,-254 128.5,-254 128.5,-260 122.5,-266 116.5,-266"/>
<text text-anchor="middle" x="73.5" y="-244.3" font-family="Helvetica,sans-Serif" font-size="14.00">example&#45;app.ts</text>
</g>
<!-- src/follower.ts -->
<g id="node4" class="node">
<title>src/follower.ts</title>
<path fill="#79cdcd" stroke="#79cdcd" d="M620.5,-129C620.5,-129 567.5,-129 567.5,-129 561.5,-129 555.5,-123 555.5,-117 555.5,-117 555.5,-105 555.5,-105 555.5,-99 561.5,-93 567.5,-93 567.5,-93 620.5,-93 620.5,-93 626.5,-93 632.5,-99 632.5,-105 632.5,-105 632.5,-117 632.5,-117 632.5,-123 626.5,-129 620.5,-129"/>
<text text-anchor="middle" x="594" y="-107.3" font-family="Helvetica,sans-Serif" font-size="14.00">follower.ts</text>
</g>
<!-- src/example&#45;app.ts&#45;&gt;src/follower.ts -->
<g id="edge22" class="edge">
<title>src/example&#45;app.ts&#45;&gt;src/follower.ts</title>
<path fill="none" stroke="#528b8b" stroke-width="2" d="M94.49,-229.99C105.48,-219.92 119.22,-207 131,-195 144,-181.75 142.52,-172.55 159,-164 286.11,-98.01 461.61,-100.5 545.12,-106.38"/>
<polygon fill="#528b8b" stroke="#528b8b" stroke-width="2" points="545.08,-109.88 555.32,-107.14 545.61,-102.9 545.08,-109.88"/>
</g>
<!-- src/format&#45;validators/format&#45;validator&#45;es4.ts -->
<g id="node16" class="node">
<title>src/format&#45;validators/format&#45;validator&#45;es4.ts</title>
<path fill="#79cdcd" stroke="#79cdcd" d="M335,-588C335,-588 207,-588 207,-588 201,-588 195,-582 195,-576 195,-576 195,-564 195,-564 195,-558 201,-552 207,-552 207,-552 335,-552 335,-552 341,-552 347,-558 347,-564 347,-564 347,-576 347,-576 347,-582 341,-588 335,-588"/>
<text text-anchor="middle" x="271" y="-566.3" font-family="Helvetica,sans-Serif" font-size="14.00">format&#45;validator&#45;es4.ts</text>
</g>
<!-- src/example&#45;app.ts&#45;&gt;src/format&#45;validators/format&#45;validator&#45;es4.ts -->
<g id="edge19" class="edge">
<title>src/example&#45;app.ts&#45;&gt;src/format&#45;validators/format&#45;validator&#45;es4.ts</title>
<path fill="none" stroke="#528b8b" stroke-width="2" d="M85.57,-266.23C118.37,-320.25 215.13,-479.63 253.78,-543.29"/>
<polygon fill="#528b8b" stroke="#528b8b" stroke-width="2" points="250.87,-545.23 259.05,-551.97 256.85,-541.6 250.87,-545.23"/>
</g>
<!-- src/storage/storage&#45;async.ts -->
<g id="node17" class="node">
<title>src/storage/storage&#45;async.ts</title>
<path fill="#79cdcd" stroke="#79cdcd" d="M317,-266C317,-266 225,-266 225,-266 219,-266 213,-260 213,-254 213,-254 213,-242 213,-242 213,-236 219,-230 225,-230 225,-230 317,-230 317,-230 323,-230 329,-236 329,-242 329,-242 329,-254 329,-254 329,-260 323,-266 317,-266"/>
<text text-anchor="middle" x="271" y="-244.3" font-family="Helvetica,sans-Serif" font-size="14.00">storage&#45;async.ts</text>
</g>
<!-- src/example&#45;app.ts&#45;&gt;src/storage/storage&#45;async.ts -->
<g id="edge21" class="edge">
<title>src/example&#45;app.ts&#45;&gt;src/storage/storage&#45;async.ts</title>
<path fill="none" stroke="#528b8b" stroke-width="2" d="M128.7,-248C151.64,-248 178.6,-248 202.79,-248"/>
<polygon fill="#528b8b" stroke="#528b8b" stroke-width="2" points="202.96,-251.5 212.96,-248 202.96,-244.5 202.96,-251.5"/>
</g>
<!-- src/storage/storage&#45;driver&#45;async&#45;memory.ts -->
<g id="node18" class="node">
<title>src/storage/storage&#45;driver&#45;async&#45;memory.ts</title>
<path fill="#79cdcd" stroke="#79cdcd" d="M363,-212C363,-212 179,-212 179,-212 173,-212 167,-206 167,-200 167,-200 167,-188 167,-188 167,-182 173,-176 179,-176 179,-176 363,-176 363,-176 369,-176 375,-182 375,-188 375,-188 375,-200 375,-200 375,-206 369,-212 363,-212"/>
<text text-anchor="middle" x="271" y="-190.3" font-family="Helvetica,sans-Serif" font-size="14.00">storage&#45;driver&#45;async&#45;memory.ts</text>
</g>
<!-- src/example&#45;app.ts&#45;&gt;src/storage/storage&#45;driver&#45;async&#45;memory.ts -->
<g id="edge20" class="edge">
<title>src/example&#45;app.ts&#45;&gt;src/storage/storage&#45;driver&#45;async&#45;memory.ts</title>
<path fill="none" stroke="#528b8b" stroke-width="2" d="M128.88,-230C138.86,-226.88 149.21,-223.75 159,-221 166.74,-218.83 174.81,-216.66 182.91,-214.56"/>
<polygon fill="#528b8b" stroke="#528b8b" stroke-width="2" points="183.97,-217.91 192.79,-212.04 182.23,-211.12 183.97,-217.91"/>
</g>
<!-- src/example&#45;app.ts&#45;&gt;src/types/doc&#45;types.ts -->
<g id="edge18" class="edge">
<title>src/example&#45;app.ts&#45;&gt;src/types/doc&#45;types.ts</title>
<path fill="none" stroke="#528b8b" stroke-width="2" d="M80.58,-266.08C91.9,-300.28 116.35,-376.93 131,-443 139.76,-482.52 129.82,-594.94 159,-623 250.91,-711.39 316.49,-656 444,-656 444,-656 444,-656 766.5,-656 879.19,-656 933.52,-723.25 1020,-651 1076.51,-603.79 1093.84,-367.05 1098.22,-284.47"/>
<polygon fill="#528b8b" stroke="#528b8b" stroke-width="2" points="1101.72,-284.47 1098.73,-274.31 1094.73,-284.12 1101.72,-284.47"/>
</g>
<!-- src/follower.ts&#45;&gt;src/types/doc&#45;types.ts -->
<g id="edge24" class="edge">
<title>src/follower.ts&#45;&gt;src/types/doc&#45;types.ts</title>
<path fill="none" stroke="#528b8b" stroke-width="2" d="M616.88,-92.85C637.23,-77.24 669.11,-55.88 701,-47 752.81,-32.57 769.14,-37.08 822,-47 838.87,-50.17 841.45,-56.45 858,-61 928.39,-80.33 961.76,-44 1020,-88 1065.66,-122.49 1086.21,-189.81 1094.53,-227.93"/>
<polygon fill="#528b8b" stroke="#528b8b" stroke-width="2" points="1091.12,-228.76 1096.56,-237.85 1097.98,-227.35 1091.12,-228.76"/>
</g>
<!-- src/types/query&#45;types.ts -->
<g id="node22" class="node">
<title>src/types/query&#45;types.ts</title>
<path fill="#79cdcd" stroke="#79cdcd" d="M977.5,-220C977.5,-220 900.5,-220 900.5,-220 894.5,-220 888.5,-214 888.5,-208 888.5,-208 888.5,-196 888.5,-196 888.5,-190 894.5,-184 900.5,-184 900.5,-184 977.5,-184 977.5,-184 983.5,-184 989.5,-190 989.5,-196 989.5,-196 989.5,-208 989.5,-208 989.5,-214 983.5,-220 977.5,-220"/>
<text text-anchor="middle" x="939" y="-198.3" font-family="Helvetica,sans-Serif" font-size="14.00">query&#45;types.ts</text>
</g>
<!-- src/follower.ts&#45;&gt;src/types/query&#45;types.ts -->
<g id="edge25" class="edge">
<title>src/follower.ts&#45;&gt;src/types/query&#45;types.ts</title>
<path fill="none" stroke="#528b8b" stroke-width="2" d="M632.73,-108.47C688.84,-105.41 791.01,-102.69 822,-121 848.45,-136.62 833.47,-161.52 858,-180 864.23,-184.69 871.4,-188.38 878.84,-191.29"/>
<polygon fill="#528b8b" stroke="#528b8b" stroke-width="2" points="877.76,-194.62 888.35,-194.56 880.04,-188 877.76,-194.62"/>
</g>
<!-- src/types/storage&#45;types.ts -->
<g id="node23" class="node">
<title>src/types/storage&#45;types.ts</title>
<path fill="#79cdcd" stroke="#79cdcd" d="M810,-220C810,-220 721,-220 721,-220 715,-220 709,-214 709,-208 709,-208 709,-196 709,-196 709,-190 715,-184 721,-184 721,-184 810,-184 810,-184 816,-184 822,-190 822,-196 822,-196 822,-208 822,-208 822,-214 816,-220 810,-220"/>
<text text-anchor="middle" x="765.5" y="-198.3" font-family="Helvetica,sans-Serif" font-size="14.00">storage&#45;types.ts</text>
</g>
<!-- src/follower.ts&#45;&gt;src/types/storage&#45;types.ts -->
<g id="edge26" class="edge">
<title>src/follower.ts&#45;&gt;src/types/storage&#45;types.ts</title>
<path fill="none" stroke="#528b8b" stroke-width="2" d="M625,-129.15C656,-147.89 700.01,-174.49 701,-175 704.08,-176.57 707.27,-178.14 710.51,-179.67"/>
<polygon fill="#528b8b" stroke="#528b8b" stroke-width="2" points="709.18,-182.91 719.72,-183.9 712.1,-176.55 709.18,-182.91"/>
</g>
<!-- src/types/util&#45;types.ts -->
<g id="node24" class="node">
<title>src/types/util&#45;types.ts</title>
<path fill="#79cdcd" stroke="#79cdcd" d="M796,-166C796,-166 735,-166 735,-166 729,-166 723,-160 723,-154 723,-154 723,-142 723,-142 723,-136 729,-130 735,-130 735,-130 796,-130 796,-130 802,-130 808,-136 808,-142 808,-142 808,-154 808,-154 808,-160 802,-166 796,-166"/>
<text text-anchor="middle" x="765.5" y="-144.3" font-family="Helvetica,sans-Serif" font-size="14.00">util&#45;types.ts</text>
</g>
<!-- src/follower.ts&#45;&gt;src/types/util&#45;types.ts -->
<g id="edge23" class="edge">
<title>src/follower.ts&#45;&gt;src/types/util&#45;types.ts</title>
<path fill="none" stroke="#528b8b" stroke-width="2" d="M632.62,-119.21C656.21,-124.36 686.95,-131.07 712.81,-136.72"/>
<polygon fill="#528b8b" stroke="#528b8b" stroke-width="2" points="712.31,-140.19 722.83,-138.9 713.8,-133.35 712.31,-140.19"/>
</g>
<!-- src/index.browser.ts -->
<g id="node5" class="node">
<title>src/index.browser.ts</title>
<path fill="#79cdcd" stroke="#79cdcd" d="M119,-186C119,-186 28,-186 28,-186 22,-186 16,-180 16,-174 16,-174 16,-162 16,-162 16,-156 22,-150 28,-150 28,-150 119,-150 119,-150 125,-150 131,-156 131,-162 131,-162 131,-174 131,-174 131,-180 125,-186 119,-186"/>
<text text-anchor="middle" x="73.5" y="-164.3" font-family="Helvetica,sans-Serif" font-size="14.00">index.browser.ts</text>
</g>
<!-- src/index.ts -->
<g id="node6" class="node">
<title>src/index.ts</title>
<path fill="#79cdcd" stroke="#79cdcd" d="M93,-79C93,-79 54,-79 54,-79 48,-79 42,-73 42,-67 42,-67 42,-55 42,-55 42,-49 48,-43 54,-43 54,-43 93,-43 93,-43 99,-43 105,-49 105,-55 105,-55 105,-67 105,-67 105,-73 99,-79 93,-79"/>
<text text-anchor="middle" x="73.5" y="-57.3" font-family="Helvetica,sans-Serif" font-size="14.00">index.ts</text>
</g>
<!-- src/lock.ts -->
<g id="node7" class="node">
<title>src/lock.ts</title>
<path fill="#79cdcd" stroke="#79cdcd" d="M954.5,-52C954.5,-52 923.5,-52 923.5,-52 917.5,-52 911.5,-46 911.5,-40 911.5,-40 911.5,-28 911.5,-28 911.5,-22 917.5,-16 923.5,-16 923.5,-16 954.5,-16 954.5,-16 960.5,-16 966.5,-22 966.5,-28 966.5,-28 966.5,-40 966.5,-40 966.5,-46 960.5,-52 954.5,-52"/>
<text text-anchor="middle" x="939" y="-30.3" font-family="Helvetica,sans-Serif" font-size="14.00">lock.ts</text>
</g>
<!-- src/query.ts -->
<g id="node8" class="node">
<title>src/query.ts</title>
<path fill="#79cdcd" stroke="#79cdcd" d="M785.5,-92C785.5,-92 745.5,-92 745.5,-92 739.5,-92 733.5,-86 733.5,-80 733.5,-80 733.5,-68 733.5,-68 733.5,-62 739.5,-56 745.5,-56 745.5,-56 785.5,-56 785.5,-56 791.5,-56 797.5,-62 797.5,-68 797.5,-68 797.5,-80 797.5,-80 797.5,-86 791.5,-92 785.5,-92"/>
<text text-anchor="middle" x="765.5" y="-70.3" font-family="Helvetica,sans-Serif" font-size="14.00">query.ts</text>
</g>
<!-- src/query.ts&#45;&gt;src/types/doc&#45;types.ts -->
<g id="edge32" class="edge">
<title>src/query.ts&#45;&gt;src/types/doc&#45;types.ts</title>
<path fill="none" stroke="#528b8b" stroke-width="2" d="M797.54,-78.11C848.05,-86.03 949.47,-107.13 1020,-156 1047.56,-175.1 1070.29,-206.51 1084.29,-229.04"/>
<polygon fill="#528b8b" stroke="#528b8b" stroke-width="2" points="1081.4,-231.03 1089.57,-237.78 1087.4,-227.41 1081.4,-231.03"/>
</g>
<!-- src/query.ts&#45;&gt;src/types/query&#45;types.ts -->
<g id="edge33" class="edge">
<title>src/query.ts&#45;&gt;src/types/query&#45;types.ts</title>
<path fill="none" stroke="#528b8b" stroke-width="2" d="M797.63,-87.68C806.29,-92.55 815.17,-98.68 822,-106 846.94,-132.75 829.87,-156.63 858,-180 864.08,-185.05 871.22,-188.94 878.7,-191.95"/>
<polygon fill="#528b8b" stroke="#528b8b" stroke-width="2" points="877.69,-195.3 888.29,-195.3 880,-188.69 877.69,-195.3"/>
</g>
<!-- src/core&#45;validators/addresses.ts -->
<g id="node9" class="node">
<title>src/core&#45;validators/addresses.ts</title>
<path fill="#79cdcd" stroke="#79cdcd" d="M800,-562C800,-562 731,-562 731,-562 725,-562 719,-556 719,-550 719,-550 719,-538 719,-538 719,-532 725,-526 731,-526 731,-526 800,-526 800,-526 806,-526 812,-532 812,-538 812,-538 812,-550 812,-550 812,-556 806,-562 800,-562"/>
<text text-anchor="middle" x="765.5" y="-540.3" font-family="Helvetica,sans-Serif" font-size="14.00">addresses.ts</text>
</g>
<!-- src/core&#45;validators/characters.ts -->
<g id="node10" class="node">
<title>src/core&#45;validators/characters.ts</title>
<path fill="#79cdcd" stroke="#79cdcd" d="M974,-616C974,-616 904,-616 904,-616 898,-616 892,-610 892,-604 892,-604 892,-592 892,-592 892,-586 898,-580 904,-580 904,-580 974,-580 974,-580 980,-580 986,-586 986,-592 986,-592 986,-604 986,-604 986,-610 980,-616 974,-616"/>
<text text-anchor="middle" x="939" y="-594.3" font-family="Helvetica,sans-Serif" font-size="14.00">characters.ts</text>
</g>
<!-- src/core&#45;validators/addresses.ts&#45;&gt;src/core&#45;validators/characters.ts -->
<g id="edge3" class="edge">
<title>src/core&#45;validators/addresses.ts&#45;&gt;src/core&#45;validators/characters.ts</title>
<path fill="none" stroke="#528b8b" stroke-width="2" d="M812.01,-558.33C833.63,-565.14 859.66,-573.33 882.44,-580.51"/>
<polygon fill="#528b8b" stroke="#528b8b" stroke-width="2" points="881.39,-583.84 891.98,-583.51 883.49,-577.17 881.39,-583.84"/>
</g>
<!-- src/core&#45;validators/addresses.ts&#45;&gt;src/types/doc&#45;types.ts -->
<g id="edge2" class="edge">
<title>src/core&#45;validators/addresses.ts&#45;&gt;src/types/doc&#45;types.ts</title>
<path fill="none" stroke="#528b8b" stroke-width="2" d="M812.07,-551.82C867.74,-558.62 961.7,-560.87 1020,-512 1088.9,-454.24 1099.09,-337.87 1099.93,-284.24"/>
<polygon fill="#528b8b" stroke="#528b8b" stroke-width="2" points="1103.44,-284.11 1099.99,-274.09 1096.44,-284.07 1103.44,-284.11"/>
</g>
<!-- src/core&#45;validators/checkers.ts -->
<g id="node11" class="node">
<title>src/core&#45;validators/checkers.ts</title>
<path fill="#79cdcd" stroke="#79cdcd" d="M796,-616C796,-616 735,-616 735,-616 729,-616 723,-610 723,-604 723,-604 723,-592 723,-592 723,-586 729,-580 735,-580 735,-580 796,-580 796,-580 802,-580 808,-586 808,-592 808,-592 808,-604 808,-604 808,-610 802,-616 796,-616"/>
<text text-anchor="middle" x="765.5" y="-594.3" font-family="Helvetica,sans-Serif" font-size="14.00">checkers.ts</text>
</g>
<!-- src/core&#45;validators/checkers.ts&#45;&gt;src/core&#45;validators/characters.ts -->
<g id="edge4" class="edge">
<title>src/core&#45;validators/checkers.ts&#45;&gt;src/core&#45;validators/characters.ts</title>
<path fill="none" stroke="#528b8b" stroke-width="2" d="M808.02,-598C830.13,-598 857.66,-598 881.68,-598"/>
<polygon fill="#528b8b" stroke="#528b8b" stroke-width="2" points="881.73,-601.5 891.73,-598 881.73,-594.5 881.73,-601.5"/>
</g>
<!-- src/crypto/crypto&#45;driver&#45;chloride.ts -->
<g id="node12" class="node">
<title>src/crypto/crypto&#45;driver&#45;chloride.ts</title>
<path fill="#79cdcd" stroke="#79cdcd" d="M661,-383C661,-383 527,-383 527,-383 521,-383 515,-377 515,-371 515,-371 515,-359 515,-359 515,-353 521,-347 527,-347 527,-347 661,-347 661,-347 667,-347 673,-353 673,-359 673,-359 673,-371 673,-371 673,-377 667,-383 661,-383"/>
<text text-anchor="middle" x="594" y="-361.3" font-family="Helvetica,sans-Serif" font-size="14.00">crypto&#45;driver&#45;chloride.ts</text>
</g>
<!-- src/types/crypto&#45;types.ts -->
<g id="node19" class="node">
<title>src/types/crypto&#45;types.ts</title>
<path fill="#79cdcd" stroke="#79cdcd" d="M805.5,-274C805.5,-274 725.5,-274 725.5,-274 719.5,-274 713.5,-268 713.5,-262 713.5,-262 713.5,-250 713.5,-250 713.5,-244 719.5,-238 725.5,-238 725.5,-238 805.5,-238 805.5,-238 811.5,-238 817.5,-244 817.5,-250 817.5,-250 817.5,-262 817.5,-262 817.5,-268 811.5,-274 805.5,-274"/>
<text text-anchor="middle" x="765.5" y="-252.3" font-family="Helvetica,sans-Serif" font-size="14.00">crypto&#45;types.ts</text>
</g>
<!-- src/crypto/crypto&#45;driver&#45;chloride.ts&#45;&gt;src/types/crypto&#45;types.ts -->
<g id="edge5" class="edge">
<title>src/crypto/crypto&#45;driver&#45;chloride.ts&#45;&gt;src/types/crypto&#45;types.ts</title>
<path fill="none" stroke="#528b8b" stroke-width="2" d="M653.35,-346.81C662.9,-342.86 672.45,-338.25 681,-333 703.82,-318.99 725.92,-298.18 741.65,-281.73"/>
<polygon fill="#528b8b" stroke="#528b8b" stroke-width="2" points="744.56,-283.74 748.83,-274.05 739.45,-278.96 744.56,-283.74"/>
</g>
<!-- src/crypto/crypto&#45;driver&#45;node.ts -->
<g id="node13" class="node">
<title>src/crypto/crypto&#45;driver&#45;node.ts</title>
<path fill="#79cdcd" stroke="#79cdcd" d="M652,-437C652,-437 536,-437 536,-437 530,-437 524,-431 524,-425 524,-425 524,-413 524,-413 524,-407 530,-401 536,-401 536,-401 652,-401 652,-401 658,-401 664,-407 664,-413 664,-413 664,-425 664,-425 664,-431 658,-437 652,-437"/>
<text text-anchor="middle" x="594" y="-415.3" font-family="Helvetica,sans-Serif" font-size="14.00">crypto&#45;driver&#45;node.ts</text>
</g>
<!-- src/crypto/crypto&#45;driver&#45;node.ts&#45;&gt;src/types/crypto&#45;types.ts -->
<g id="edge6" class="edge">
<title>src/crypto/crypto&#45;driver&#45;node.ts&#45;&gt;src/types/crypto&#45;types.ts</title>
<path fill="none" stroke="#528b8b" stroke-width="2" d="M664.38,-402.2C670.29,-399.32 675.94,-395.94 681,-392 717.32,-363.69 741.67,-314.81 754.29,-284.01"/>
<polygon fill="#528b8b" stroke="#528b8b" stroke-width="2" points="757.7,-284.89 758.12,-274.31 751.19,-282.32 757.7,-284.89"/>
</g>
<!-- src/crypto/crypto.ts -->
<g id="node14" class="node">
<title>src/crypto/crypto.ts</title>
<path fill="#79cdcd" stroke="#79cdcd" d="M467,-491C467,-491 423,-491 423,-491 417,-491 411,-485 411,-479 411,-479 411,-467 411,-467 411,-461 417,-455 423,-455 423,-455 467,-455 467,-455 473,-455 479,-461 479,-467 479,-467 479,-479 479,-479 479,-485 473,-491 467,-491"/>
<text text-anchor="middle" x="445" y="-469.3" font-family="Helvetica,sans-Serif" font-size="14.00">crypto.ts</text>
</g>
<!-- src/crypto/crypto.ts&#45;&gt;src/base32.ts -->
<g id="edge11" class="edge">
<title>src/crypto/crypto.ts&#45;&gt;src/base32.ts</title>
<path fill="none" stroke="#528b8b" stroke-width="2" d="M479.11,-488.83C527.25,-509.34 617.72,-538.21 681,-500 697.34,-490.14 687.39,-475.38 701,-462 706.21,-456.88 712.4,-452.43 718.83,-448.59"/>
<polygon fill="#528b8b" stroke="#528b8b" stroke-width="2" points="720.6,-451.61 727.7,-443.75 717.25,-445.47 720.6,-451.61"/>
</g>
<!-- src/crypto/crypto.ts&#45;&gt;src/core&#45;validators/addresses.ts -->
<g id="edge13" class="edge">
<title>src/crypto/crypto.ts&#45;&gt;src/core&#45;validators/addresses.ts</title>
<path fill="none" stroke="#528b8b" stroke-width="2" d="M459.92,-491.14C472.5,-505.96 492.45,-525.89 515,-535 577.73,-560.35 656.72,-558.13 708.82,-552.54"/>
<polygon fill="#528b8b" stroke="#528b8b" stroke-width="2" points="709.34,-556 718.87,-551.38 708.54,-549.05 709.34,-556"/>
</g>
<!-- src/crypto/crypto.ts&#45;&gt;src/crypto/crypto&#45;driver&#45;chloride.ts -->
<g id="edge7" class="edge">
<title>src/crypto/crypto.ts&#45;&gt;src/crypto/crypto&#45;driver&#45;chloride.ts</title>
<path fill="none" stroke="#528b8b" stroke-width="2" d="M457.31,-454.75C469.48,-436.49 490.44,-408.77 515,-392 517.12,-390.55 519.33,-389.17 521.6,-387.86"/>
<polygon fill="#528b8b" stroke="#528b8b" stroke-width="2" points="523.39,-390.87 530.63,-383.13 520.14,-384.67 523.39,-390.87"/>
</g>
<!-- src/crypto/crypto.ts&#45;&gt;src/crypto/crypto&#45;driver&#45;node.ts -->
<g id="edge8" class="edge">
<title>src/crypto/crypto.ts&#45;&gt;src/crypto/crypto&#45;driver&#45;node.ts</title>
<path fill="none" stroke="#528b8b" stroke-width="2" d="M479.24,-459.69C490.55,-455.24 503.29,-450.32 515,-446 520.04,-444.14 525.28,-442.25 530.55,-440.37"/>
<polygon fill="#528b8b" stroke="#528b8b" stroke-width="2" points="531.77,-443.65 540.03,-437.02 529.44,-437.05 531.77,-443.65"/>
</g>
<!-- src/crypto/keypair.ts -->
<g id="node15" class="node">
<title>src/crypto/keypair.ts</title>
<path fill="#79cdcd" stroke="#79cdcd" d="M619,-491C619,-491 569,-491 569,-491 563,-491 557,-485 557,-479 557,-479 557,-467 557,-467 557,-461 563,-455 569,-455 569,-455 619,-455 619,-455 625,-455 631,-461 631,-467 631,-467 631,-479 631,-479 631,-485 625,-491 619,-491"/>
<text text-anchor="middle" x="594" y="-469.3" font-family="Helvetica,sans-Serif" font-size="14.00">keypair.ts</text>
</g>
<!-- src/crypto/crypto.ts&#45;&gt;src/crypto/keypair.ts -->
<g id="edge12" class="edge">
<title>src/crypto/crypto.ts&#45;&gt;src/crypto/keypair.ts</title>
<path fill="none" stroke="#528b8b" stroke-width="2" d="M479.36,-473C499.32,-473 524.98,-473 546.87,-473"/>
<polygon fill="#528b8b" stroke="#528b8b" stroke-width="2" points="546.95,-476.5 556.95,-473 546.95,-469.5 546.95,-476.5"/>
</g>
<!-- src/crypto/crypto.ts&#45;&gt;src/types/crypto&#45;types.ts -->
<g id="edge10" class="edge">
<title>src/crypto/crypto.ts&#45;&gt;src/types/crypto&#45;types.ts</title>
<path fill="none" stroke="#528b8b" stroke-width="2" d="M450.44,-454.91C458.45,-426.06 478.01,-369.66 515,-338 568.48,-292.23 648.2,-271.84 703.06,-262.87"/>
<polygon fill="#528b8b" stroke="#528b8b" stroke-width="2" points="703.66,-266.32 713,-261.32 702.58,-259.4 703.66,-266.32"/>
</g>
<!-- src/crypto/crypto.ts&#45;&gt;src/types/doc&#45;types.ts -->
<g id="edge9" class="edge">
<title>src/crypto/crypto.ts&#45;&gt;src/types/doc&#45;types.ts</title>
<path fill="none" stroke="#528b8b" stroke-width="2" d="M463.4,-491.25C476.32,-503.41 495.09,-518.34 515,-525 532.49,-530.85 664.22,-532.65 681,-525 693.33,-519.38 689.05,-508.37 701,-502 827.08,-434.77 907.44,-550.01 1020,-462 1076.06,-418.17 1092.62,-329.6 1097.49,-284.21"/>
<polygon fill="#528b8b" stroke="#528b8b" stroke-width="2" points="1100.98,-284.46 1098.45,-274.17 1094.01,-283.79 1100.98,-284.46"/>
</g>
<!-- src/crypto/keypair.ts&#45;&gt;src/base32.ts -->
<g id="edge15" class="edge">
<title>src/crypto/keypair.ts&#45;&gt;src/base32.ts</title>
<path fill="none" stroke="#528b8b" stroke-width="2" d="M631.36,-463.78C656.75,-457.34 690.84,-448.69 718.17,-441.75"/>
<polygon fill="#528b8b" stroke="#528b8b" stroke-width="2" points="719.07,-445.14 727.91,-439.28 717.35,-438.35 719.07,-445.14"/>
</g>
<!-- src/crypto/keypair.ts&#45;&gt;src/core&#45;validators/addresses.ts -->
<g id="edge17" class="edge">
<title>src/crypto/keypair.ts&#45;&gt;src/core&#45;validators/addresses.ts</title>
<path fill="none" stroke="#528b8b" stroke-width="2" d="M631.4,-490.92C651.67,-500.62 677.5,-512.52 701,-522 703.69,-523.08 706.45,-524.16 709.25,-525.23"/>
<polygon fill="#528b8b" stroke="#528b8b" stroke-width="2" points="708.26,-528.6 718.86,-528.8 710.7,-522.04 708.26,-528.6"/>
</g>
<!-- src/crypto/keypair.ts&#45;&gt;src/types/crypto&#45;types.ts -->
<g id="edge16" class="edge">
<title>src/crypto/keypair.ts&#45;&gt;src/types/crypto&#45;types.ts</title>
<path fill="none" stroke="#528b8b" stroke-width="2" d="M631.06,-469.23C648.13,-465.73 667.65,-458.98 681,-446 700.55,-426.99 690.63,-413.22 701,-388 716.25,-350.92 736.8,-309.46 750.33,-283.07"/>
<polygon fill="#528b8b" stroke="#528b8b" stroke-width="2" points="753.51,-284.55 754.98,-274.06 747.29,-281.34 753.51,-284.55"/>
</g>
<!-- src/crypto/keypair.ts&#45;&gt;src/types/doc&#45;types.ts -->
<g id="edge14" class="edge">
<title>src/crypto/keypair.ts&#45;&gt;src/types/doc&#45;types.ts</title>
<path fill="none" stroke="#528b8b" stroke-width="2" d="M631.14,-468.78C648.03,-465.16 667.36,-458.45 681,-446 698.07,-430.41 682.18,-411.42 701,-398 758.84,-356.77 958.64,-413.78 1020,-378 1055.75,-357.15 1078.29,-313.08 1089.89,-284.01"/>
<polygon fill="#528b8b" stroke="#528b8b" stroke-width="2" points="1093.26,-285.01 1093.54,-274.42 1086.71,-282.52 1093.26,-285.01"/>
</g>
<!-- src/format&#45;validators/format&#45;validator&#45;es4.ts&#45;&gt;src/core&#45;validators/characters.ts -->
<g id="edge29" class="edge">
<title>src/format&#45;validators/format&#45;validator&#45;es4.ts&#45;&gt;src/core&#45;validators/characters.ts</title>
<path fill="none" stroke="#528b8b" stroke-width="2" d="M347.06,-582.03C359.22,-584.79 371.57,-588.09 383,-592 392.4,-595.22 393.42,-599.35 403,-602 492.86,-626.9 729.36,-635.64 822,-625 841.76,-622.73 863.06,-618.35 881.94,-613.77"/>
<polygon fill="#528b8b" stroke="#528b8b" stroke-width="2" points="883.01,-617.11 891.86,-611.3 881.31,-610.32 883.01,-617.11"/>
</g>
<!-- src/format&#45;validators/format&#45;validator&#45;es4.ts&#45;&gt;src/core&#45;validators/checkers.ts -->
<g id="edge30" class="edge">
<title>src/format&#45;validators/format&#45;validator&#45;es4.ts&#45;&gt;src/core&#45;validators/checkers.ts</title>
<path fill="none" stroke="#528b8b" stroke-width="2" d="M347.21,-584.93C372.94,-589.92 396.84,-594.39 403,-595 512.76,-605.84 642.17,-603.21 712.54,-600.5"/>
<polygon fill="#528b8b" stroke="#528b8b" stroke-width="2" points="713.04,-603.98 722.9,-600.08 712.76,-596.99 713.04,-603.98"/>
</g>
<!-- src/format&#45;validators/format&#45;validator&#45;es4.ts&#45;&gt;src/crypto/crypto.ts -->
<g id="edge31" class="edge">
<title>src/format&#45;validators/format&#45;validator&#45;es4.ts&#45;&gt;src/crypto/crypto.ts</title>
<path fill="none" stroke="#528b8b" stroke-width="2" d="M303.95,-551.98C331.86,-536.24 372.54,-513.3 402.87,-496.19"/>
<polygon fill="#528b8b" stroke="#528b8b" stroke-width="2" points="404.94,-499.05 411.93,-491.09 401.5,-492.95 404.94,-499.05"/>
</g>
<!-- src/format&#45;validators/format&#45;validator&#45;es4.ts&#45;&gt;src/types/doc&#45;types.ts -->
<g id="edge27" class="edge">
<title>src/format&#45;validators/format&#45;validator&#45;es4.ts&#45;&gt;src/types/doc&#45;types.ts</title>
<path fill="none" stroke="#528b8b" stroke-width="2" d="M347.23,-580.11C386.5,-584.12 435.35,-587.12 479,-584 569.47,-577.54 607.7,-608.42 681,-555 697.39,-543.06 684.33,-525.54 701,-514 759.55,-473.48 963.95,-527.91 1020,-484 1082.43,-435.09 1096.01,-333.95 1098.84,-284.49"/>
<polygon fill="#528b8b" stroke="#528b8b" stroke-width="2" points="1102.35,-284.35 1099.31,-274.2 1095.36,-284.02 1102.35,-284.35"/>
</g>
<!-- src/types/format&#45;validator&#45;types.ts -->
<g id="node21" class="node">
<title>src/types/format&#45;validator&#45;types.ts</title>
<path fill="#79cdcd" stroke="#79cdcd" d="M1008,-274C1008,-274 870,-274 870,-274 864,-274 858,-268 858,-262 858,-262 858,-250 858,-250 858,-244 864,-238 870,-238 870,-238 1008,-238 1008,-238 1014,-238 1020,-244 1020,-250 1020,-250 1020,-262 1020,-262 1020,-268 1014,-274 1008,-274"/>
<text text-anchor="middle" x="939" y="-252.3" font-family="Helvetica,sans-Serif" font-size="14.00">format&#45;validator&#45;types.ts</text>
</g>
<!-- src/format&#45;validators/format&#45;validator&#45;es4.ts&#45;&gt;src/types/format&#45;validator&#45;types.ts -->
<g id="edge28" class="edge">
<title>src/format&#45;validators/format&#45;validator&#45;es4.ts&#45;&gt;src/types/format&#45;validator&#45;types.ts</title>
<path fill="none" stroke="#528b8b" stroke-width="2" d="M347.03,-578.11C432.99,-583.88 575.54,-582.47 681,-526 693.24,-519.45 688.95,-508.9 701,-502 748.3,-474.92 777.96,-514.12 822,-482 889.39,-432.85 920.52,-332.97 932.18,-284.15"/>
<polygon fill="#528b8b" stroke="#528b8b" stroke-width="2" points="935.63,-284.79 934.44,-274.27 928.8,-283.23 935.63,-284.79"/>
</g>
<!-- src/storage/storage&#45;async.ts&#45;&gt;src/crypto/crypto.ts -->
<g id="edge39" class="edge">
<title>src/storage/storage&#45;async.ts&#45;&gt;src/crypto/crypto.ts</title>
<path fill="none" stroke="#528b8b" stroke-width="2" d="M285.78,-266.03C316.1,-305.69 388.68,-400.64 424.01,-446.84"/>
<polygon fill="#528b8b" stroke="#528b8b" stroke-width="2" points="421.3,-449.06 430.15,-454.88 426.86,-444.81 421.3,-449.06"/>
</g>
<!-- src/storage/storage&#45;async.ts&#45;&gt;src/types/doc&#45;types.ts -->
<g id="edge35" class="edge">
<title>src/storage/storage&#45;async.ts&#45;&gt;src/types/doc&#45;types.ts</title>
<path fill="none" stroke="#528b8b" stroke-width="2" d="M329.04,-258.06C434.24,-276.91 650.86,-317.25 681,-335 692.67,-341.88 688.67,-352.38 701,-358 733.25,-372.7 988.15,-373.56 1020,-358 1051.52,-342.6 1074.18,-308 1087.06,-283.37"/>
<polygon fill="#528b8b" stroke="#528b8b" stroke-width="2" points="1090.32,-284.67 1091.66,-274.16 1084.06,-281.54 1090.32,-284.67"/>
</g>
<!-- src/storage/storage&#45;async.ts&#45;&gt;src/types/format&#45;validator&#45;types.ts -->
<g id="edge38" class="edge">
<title>src/storage/storage&#45;async.ts&#45;&gt;src/types/format&#45;validator&#45;types.ts</title>
<path fill="none" stroke="#528b8b" stroke-width="2" d="M329.28,-252.12C426.29,-259.69 618.51,-277.42 681,-303 691.28,-307.21 690.46,-314.49 701,-318 752.02,-335.01 769.83,-331.07 822,-318 851.72,-310.56 882.16,-293.88 904.39,-279.7"/>
<polygon fill="#528b8b" stroke="#528b8b" stroke-width="2" points="906.33,-282.61 912.79,-274.21 902.51,-276.75 906.33,-282.61"/>
</g>
<!-- src/storage/storage&#45;async.ts&#45;&gt;src/types/query&#45;types.ts -->
<g id="edge36" class="edge">
<title>src/storage/storage&#45;async.ts&#45;&gt;src/types/query&#45;types.ts</title>
<path fill="none" stroke="#528b8b" stroke-width="2" d="M329.13,-249.19C370.7,-250.17 428.36,-251.76 479,-254 568.85,-257.97 603.67,-220.09 681,-266 695.42,-274.56 686.33,-289.87 701,-298 724.52,-311.03 799.01,-311.94 822,-298 851.58,-280.07 831.72,-251.49 858,-229 864.11,-223.77 871.27,-219.55 878.76,-216.13"/>
<polygon fill="#528b8b" stroke="#528b8b" stroke-width="2" points="880.41,-219.24 888.36,-212.23 877.77,-212.75 880.41,-219.24"/>
</g>
<!-- src/storage/storage&#45;async.ts&#45;&gt;src/types/storage&#45;types.ts -->
<g id="edge37" class="edge">
<title>src/storage/storage&#45;async.ts&#45;&gt;src/types/storage&#45;types.ts</title>
<path fill="none" stroke="#528b8b" stroke-width="2" d="M329.46,-242.63C421.61,-234.03 601.89,-217.19 698.93,-208.12"/>
<polygon fill="#528b8b" stroke="#528b8b" stroke-width="2" points="699.29,-211.61 708.92,-207.19 698.63,-204.64 699.29,-211.61"/>
</g>
<!-- src/storage/storage&#45;async.ts&#45;&gt;src/types/util&#45;types.ts -->
<g id="edge34" class="edge">
<title>src/storage/storage&#45;async.ts&#45;&gt;src/types/util&#45;types.ts</title>
<path fill="none" stroke="#528b8b" stroke-width="2" d="M329.06,-237.62C408.25,-223.04 555.86,-195.21 681,-168 691.38,-165.74 702.44,-163.19 713.01,-160.69"/>
<polygon fill="#528b8b" stroke="#528b8b" stroke-width="2" points="714.04,-164.04 722.96,-158.31 712.42,-157.23 714.04,-164.04"/>
</g>
<!-- src/storage/storage&#45;driver&#45;async&#45;memory.ts&#45;&gt;src/lock.ts -->
<g id="edge45" class="edge">
<title>src/storage/storage&#45;driver&#45;async&#45;memory.ts&#45;&gt;src/lock.ts</title>
<path fill="none" stroke="#528b8b" stroke-width="2" d="M289.78,-175.95C313.48,-152.95 357.73,-113.58 403,-92 574.57,-10.21 811.33,-21.79 901.31,-29.99"/>
<polygon fill="#528b8b" stroke="#528b8b" stroke-width="2" points="901,-33.48 911.29,-30.94 901.67,-26.51 901,-33.48"/>
</g>
<!-- src/storage/storage&#45;driver&#45;async&#45;memory.ts&#45;&gt;src/query.ts -->
<g id="edge44" class="edge">
<title>src/storage/storage&#45;driver&#45;async&#45;memory.ts&#45;&gt;src/query.ts</title>
<path fill="none" stroke="#528b8b" stroke-width="2" d="M301.72,-175.97C346.22,-150.05 433.66,-103.26 515,-84 586.68,-67.02 673.12,-68.18 723.15,-70.87"/>
<polygon fill="#528b8b" stroke="#528b8b" stroke-width="2" points="723.07,-74.37 733.26,-71.47 723.48,-67.39 723.07,-74.37"/>
</g>
<!-- src/storage/storage&#45;driver&#45;async&#45;memory.ts&#45;&gt;src/types/doc&#45;types.ts -->
<g id="edge41" class="edge">
<title>src/storage/storage&#45;driver&#45;async&#45;memory.ts&#45;&gt;src/types/doc&#45;types.ts</title>
<path fill="none" stroke="#528b8b" stroke-width="2" d="M375.02,-207.1C460.14,-220.66 582.54,-246.59 681,-293 691.05,-297.74 690.46,-304.49 701,-308 752.02,-325.01 768.33,-311.37 822,-308 910.52,-302.43 933.57,-302.92 1020,-283 1028.57,-281.03 1037.51,-278.48 1046.17,-275.75"/>
<polygon fill="#528b8b" stroke="#528b8b" stroke-width="2" points="1047.39,-279.04 1055.8,-272.6 1045.21,-272.38 1047.39,-279.04"/>
</g>
<!-- src/storage/storage&#45;driver&#45;async&#45;memory.ts&#45;&gt;src/types/query&#45;types.ts -->
<g id="edge42" class="edge">
<title>src/storage/storage&#45;driver&#45;async&#45;memory.ts&#45;&gt;src/types/query&#45;types.ts</title>
<path fill="none" stroke="#528b8b" stroke-width="2" d="M375.05,-201.26C487.97,-210.01 656.44,-225.71 681,-243 697.26,-254.44 684.09,-272.55 701,-283 746.75,-311.27 774.59,-308.38 822,-283 847.43,-269.39 835.11,-246.55 858,-229 864.3,-224.17 871.51,-220.18 878.97,-216.88"/>
<polygon fill="#528b8b" stroke="#528b8b" stroke-width="2" points="880.51,-220.03 888.5,-213.07 877.91,-213.53 880.51,-220.03"/>
</g>
<!-- src/storage/storage&#45;driver&#45;async&#45;memory.ts&#45;&gt;src/types/storage&#45;types.ts -->
<g id="edge43" class="edge">
<title>src/storage/storage&#45;driver&#45;async&#45;memory.ts&#45;&gt;src/types/storage&#45;types.ts</title>
<path fill="none" stroke="#528b8b" stroke-width="2" d="M375.24,-195.68C472.72,-197.26 615.95,-199.59 698.76,-200.93"/>
<polygon fill="#528b8b" stroke="#528b8b" stroke-width="2" points="698.74,-204.43 708.8,-201.1 698.86,-197.43 698.74,-204.43"/>
</g>
<!-- src/storage/storage&#45;driver&#45;async&#45;memory.ts&#45;&gt;src/types/util&#45;types.ts -->
<g id="edge40" class="edge">
<title>src/storage/storage&#45;driver&#45;async&#45;memory.ts&#45;&gt;src/types/util&#45;types.ts</title>
<path fill="none" stroke="#528b8b" stroke-width="2" d="M375.24,-184.36C478.36,-174.73 632.68,-160.31 712.51,-152.86"/>
<polygon fill="#528b8b" stroke="#528b8b" stroke-width="2" points="713.17,-156.31 722.8,-151.89 712.52,-149.34 713.17,-156.31"/>
</g>
<!-- src/types/format&#45;validator&#45;types.ts&#45;&gt;src/types/doc&#45;types.ts -->
<g id="edge46" class="edge">
<title>src/types/format&#45;validator&#45;types.ts&#45;&gt;src/types/doc&#45;types.ts</title>
<path fill="none" stroke="#528b8b" stroke-width="2" d="M1020.22,-256C1028.84,-256 1037.45,-256 1045.65,-256"/>
<polygon fill="#528b8b" stroke="#528b8b" stroke-width="2" points="1045.79,-259.5 1055.79,-256 1045.79,-252.5 1045.79,-259.5"/>
</g>
<!-- src/types/query&#45;types.ts&#45;&gt;src/types/doc&#45;types.ts -->
<g id="edge47" class="edge">
<title>src/types/query&#45;types.ts&#45;&gt;src/types/doc&#45;types.ts</title>
<path fill="none" stroke="#528b8b" stroke-width="2" d="M989.51,-218.69C999.6,-222.1 1010.14,-225.66 1020,-229 1028.43,-231.85 1037.35,-234.88 1046.06,-237.84"/>
<polygon fill="#528b8b" stroke="#528b8b" stroke-width="2" points="1045.17,-241.23 1055.77,-241.13 1047.42,-234.6 1045.17,-241.23"/>
</g>
<!-- src/types/storage&#45;types.ts&#45;&gt;src/lock.ts -->
<g id="edge50" class="edge">
<title>src/types/storage&#45;types.ts&#45;&gt;src/lock.ts</title>
<path fill="none" stroke="#528b8b" stroke-width="2" d="M809.85,-183.94C814.18,-181.27 818.33,-178.29 822,-175 844.33,-155.02 839.58,-141.63 858,-118 874.28,-97.12 894.94,-75.53 911.19,-59.46"/>
<polygon fill="#528b8b" stroke="#528b8b" stroke-width="2" points="914.07,-61.54 918.77,-52.05 909.17,-56.54 914.07,-61.54"/>
</g>
<!-- src/types/storage&#45;types.ts&#45;&gt;src/types/doc&#45;types.ts -->
<g id="edge48" class="edge">
<title>src/types/storage&#45;types.ts&#45;&gt;src/types/doc&#45;types.ts</title>
<path fill="none" stroke="#528b8b" stroke-width="2" d="M812.87,-183.95C865.26,-166.48 952.05,-146.48 1020,-175 1046.15,-185.98 1068.03,-210.22 1082.17,-229.34"/>
<polygon fill="#528b8b" stroke="#528b8b" stroke-width="2" points="1079.47,-231.58 1088.11,-237.7 1085.17,-227.52 1079.47,-231.58"/>
</g>
<!-- src/types/storage&#45;types.ts&#45;&gt;src/types/query&#45;types.ts -->
<g id="edge49" class="edge">
<title>src/types/storage&#45;types.ts&#45;&gt;src/types/query&#45;types.ts</title>
<path fill="none" stroke="#528b8b" stroke-width="2" d="M822.18,-202C840.09,-202 860,-202 878.19,-202"/>
<polygon fill="#528b8b" stroke="#528b8b" stroke-width="2" points="878.38,-205.5 888.38,-202 878.38,-198.5 878.38,-205.5"/>
</g>
</g>
</svg>
