<?xml version="1.0" encoding="UTF-8" standalone="no"?>
<!DOCTYPE svg PUBLIC "-//W3C//DTD SVG 1.1//EN"
 "http://www.w3.org/Graphics/SVG/1.1/DTD/svg11.dtd">
<!-- Generated by graphviz version 2.44.1 (20200629.0846)
 -->
<!-- Title: G Pages: 1 -->
<svg width="451pt" height="265pt"
 viewBox="0.00 0.00 451.49 265.00" xmlns="http://www.w3.org/2000/svg" xmlns:xlink="http://www.w3.org/1999/xlink">
<g id="graph0" class="graph" transform="scale(1 1) rotate(0) translate(4 261)">
<title>G</title>
<polygon fill="white" stroke="transparent" points="-4,4 -4,-261 447.49,-261 447.49,4 -4,4"/>
<g id="clust1" class="cluster">
<title>cluster5837620290</title>
<path fill="none" stroke="#8b7d6b" stroke-width="2" d="M20,-46C20,-46 422.24,-46 422.24,-46 428.24,-46 434.24,-52 434.24,-58 434.24,-58 434.24,-237 434.24,-237 434.24,-243 428.24,-249 422.24,-249 422.24,-249 20,-249 20,-249 14,-249 8,-243 8,-237 8,-237 8,-58 8,-58 8,-52 14,-46 20,-46"/>
<text text-anchor="start" x="203.12" y="-234.8" font-family="Helvetica,sans-Serif" font-weight="bold" font-size="14.00">types</text>
</g>
<!-- src/types/cryptoTypes.ts -->
<g id="node1" class="node">
<title>src/types/cryptoTypes.ts</title>
<path fill="#79cdcd" stroke="#79cdcd" d="M264.5,-218C264.5,-218 184.5,-218 184.5,-218 178.5,-218 172.5,-212 172.5,-206 172.5,-206 172.5,-194 172.5,-194 172.5,-188 178.5,-182 184.5,-182 184.5,-182 264.5,-182 264.5,-182 270.5,-182 276.5,-188 276.5,-194 276.5,-194 276.5,-206 276.5,-206 276.5,-212 270.5,-218 264.5,-218"/>
<text text-anchor="middle" x="224.5" y="-196.3" font-family="Helvetica,sans-Serif" font-size="14.00">cryptoTypes.ts</text>
</g>
<!-- src/types/docTypes.ts -->
<g id="node2" class="node">
<title>src/types/docTypes.ts</title>
<path fill="#79cdcd" stroke="#79cdcd" d="M414.24,-145C414.24,-145 349.24,-145 349.24,-145 343.24,-145 337.24,-139 337.24,-133 337.24,-133 337.24,-121 337.24,-121 337.24,-115 343.24,-109 349.24,-109 349.24,-109 414.24,-109 414.24,-109 420.24,-109 426.24,-115 426.24,-121 426.24,-121 426.24,-133 426.24,-133 426.24,-139 420.24,-145 414.24,-145"/>
<text text-anchor="middle" x="381.74" y="-123.3" font-family="Helvetica,sans-Serif" font-size="14.00">docTypes.ts</text>
</g>
<!-- src/types/cryptoTypes.ts&#45;&gt;src/types/docTypes.ts -->
<g id="edge1" class="edge">
<title>src/types/cryptoTypes.ts&#45;&gt;src/types/docTypes.ts</title>
<path fill="none" stroke="#528b8b" stroke-width="2" d="M264.86,-181.91C271.27,-178.94 277.82,-175.89 284,-173 300.33,-165.35 318.17,-156.89 334.03,-149.34"/>
<polygon fill="#528b8b" stroke="#528b8b" stroke-width="2" points="335.6,-152.47 343.12,-145.01 332.58,-146.16 335.6,-152.47"/>
</g>
<!-- src/types/queryTypes.ts -->
<g id="node3" class="node">
<title>src/types/queryTypes.ts</title>
<path fill="#79cdcd" stroke="#79cdcd" d="M263,-164C263,-164 186,-164 186,-164 180,-164 174,-158 174,-152 174,-152 174,-140 174,-140 174,-134 180,-128 186,-128 186,-128 263,-128 263,-128 269,-128 275,-134 275,-140 275,-140 275,-152 275,-152 275,-158 269,-164 263,-164"/>
<text text-anchor="middle" x="224.5" y="-142.3" font-family="Helvetica,sans-Serif" font-size="14.00">queryTypes.ts</text>
</g>
<!-- src/types/queryTypes.ts&#45;&gt;src/types/docTypes.ts -->
<g id="edge2" class="edge">
<title>src/types/queryTypes.ts&#45;&gt;src/types/docTypes.ts</title>
<path fill="none" stroke="#528b8b" stroke-width="2" d="M275.05,-139.94C291.58,-137.91 310.08,-135.65 326.92,-133.59"/>
<polygon fill="#528b8b" stroke="#528b8b" stroke-width="2" points="327.66,-137.02 337.16,-132.33 326.81,-130.07 327.66,-137.02"/>
</g>
<!-- src/types/storageTypes.ts -->
<g id="node4" class="node">
<title>src/types/storageTypes.ts</title>
<path fill="#79cdcd" stroke="#79cdcd" d="M117,-144C117,-144 28,-144 28,-144 22,-144 16,-138 16,-132 16,-132 16,-120 16,-120 16,-114 22,-108 28,-108 28,-108 117,-108 117,-108 123,-108 129,-114 129,-120 129,-120 129,-132 129,-132 129,-138 123,-144 117,-144"/>
<text text-anchor="middle" x="72.5" y="-122.3" font-family="Helvetica,sans-Serif" font-size="14.00">storageTypes.ts</text>
</g>
<!-- src/types/storageTypes.ts&#45;&gt;src/types/docTypes.ts -->
<g id="edge3" class="edge">
<title>src/types/storageTypes.ts&#45;&gt;src/types/docTypes.ts</title>
<path fill="none" stroke="#528b8b" stroke-width="2" d="M129.11,-121.06C140.94,-120.2 153.38,-119.44 165,-119 217.85,-116.98 231.16,-116.82 284,-119 297.82,-119.57 312.72,-120.6 326.6,-121.73"/>
<polygon fill="#528b8b" stroke="#528b8b" stroke-width="2" points="326.71,-125.25 336.97,-122.61 327.3,-118.28 326.71,-125.25"/>
</g>
<!-- src/types/storageTypes.ts&#45;&gt;src/types/queryTypes.ts -->
<g id="edge4" class="edge">
<title>src/types/storageTypes.ts&#45;&gt;src/types/queryTypes.ts</title>
<path fill="none" stroke="#528b8b" stroke-width="2" d="M129.35,-133.45C140.45,-134.93 152.15,-136.49 163.38,-137.98"/>
<polygon fill="#528b8b" stroke="#528b8b" stroke-width="2" points="163.16,-141.49 173.53,-139.34 164.08,-134.55 163.16,-141.49"/>
</g>
<!-- src/util/lock -->
<g id="node7" class="node">
<title>src/util/lock</title>
<ellipse fill="none" stroke="black" cx="224.5" cy="-18" rx="53.89" ry="18"/>
<text text-anchor="middle" x="224.5" y="-14.3" font-family="Helvetica,sans-Serif" font-size="14.00">src/util/lock</text>
</g>
<!-- src/types/storageTypes.ts&#45;&gt;src/util/lock -->
<g id="edge5" class="edge">
<title>src/types/storageTypes.ts&#45;&gt;src/util/lock</title>
<path fill="none" stroke="#528b8b" stroke-width="2" d="M116.85,-107.94C121.18,-105.27 125.33,-102.29 129,-99 151.33,-79.02 142.05,-61.27 165,-42 168.08,-39.41 171.48,-37.08 175.04,-34.97"/>
<polygon fill="#528b8b" stroke="#528b8b" stroke-width="2" points="176.91,-37.94 184.13,-30.2 173.65,-31.74 176.91,-37.94"/>
</g>
<!-- src/types/utilTypes.ts -->
<g id="node5" class="node">
<title>src/types/utilTypes.ts</title>
<path fill="#79cdcd" stroke="#79cdcd" d="M103,-90C103,-90 42,-90 42,-90 36,-90 30,-84 30,-78 30,-78 30,-66 30,-66 30,-60 36,-54 42,-54 42,-54 103,-54 103,-54 109,-54 115,-60 115,-66 115,-66 115,-78 115,-78 115,-84 109,-90 103,-90"/>
<text text-anchor="middle" x="72.5" y="-68.3" font-family="Helvetica,sans-Serif" font-size="14.00">utilTypes.ts</text>
</g>
<!-- src/types/validatorTypes.ts -->
<g id="node6" class="node">
<title>src/types/validatorTypes.ts</title>
<path fill="#79cdcd" stroke="#79cdcd" d="M272,-90C272,-90 177,-90 177,-90 171,-90 165,-84 165,-78 165,-78 165,-66 165,-66 165,-60 171,-54 177,-54 177,-54 272,-54 272,-54 278,-54 284,-60 284,-66 284,-66 284,-78 284,-78 284,-84 278,-90 272,-90"/>
<text text-anchor="middle" x="224.5" y="-68.3" font-family="Helvetica,sans-Serif" font-size="14.00">validatorTypes.ts</text>
</g>
<!-- src/types/validatorTypes.ts&#45;&gt;src/types/docTypes.ts -->
<g id="edge6" class="edge">
<title>src/types/validatorTypes.ts&#45;&gt;src/types/docTypes.ts</title>
<path fill="none" stroke="#528b8b" stroke-width="2" d="M276.33,-90.01C292.74,-95.82 310.97,-102.28 327.55,-108.15"/>
<polygon fill="#528b8b" stroke="#528b8b" stroke-width="2" points="326.5,-111.49 337.09,-111.54 328.84,-104.9 326.5,-111.49"/>
</g>
<!-- src/util/errors -->
<g id="node8" class="node">
<title>src/util/errors</title>
<ellipse fill="none" stroke="black" cx="381.74" cy="-20" rx="61.99" ry="18"/>
<text text-anchor="middle" x="381.74" y="-16.3" font-family="Helvetica,sans-Serif" font-size="14.00">src/util/errors</text>
</g>
<!-- src/types/validatorTypes.ts&#45;&gt;src/util/errors -->
<g id="edge7" class="edge">
<title>src/types/validatorTypes.ts&#45;&gt;src/util/errors</title>
<path fill="none" stroke="#528b8b" stroke-width="2" d="M279.36,-53.96C295.9,-48.42 314.02,-42.35 330.32,-36.89"/>
<polygon fill="#528b8b" stroke="#528b8b" stroke-width="2" points="331.83,-40.08 340.2,-33.58 329.61,-33.44 331.83,-40.08"/>
</g>
</g>
</svg>
