<?xml version="1.0" encoding="UTF-8" standalone="no"?>
<!DOCTYPE svg PUBLIC "-//W3C//DTD SVG 1.1//EN"
 "http://www.w3.org/Graphics/SVG/1.1/DTD/svg11.dtd">
<!-- Generated by graphviz version 2.44.1 (20200629.0846)
 -->
<!-- Title: G Pages: 1 -->
<svg width="1099pt" height="1051pt"
 viewBox="0.00 0.00 1099.00 1050.90" xmlns="http://www.w3.org/2000/svg" xmlns:xlink="http://www.w3.org/1999/xlink">
<g id="graph0" class="graph" transform="scale(1 1) rotate(0) translate(4 1046.9)">
<title>G</title>
<polygon fill="white" stroke="transparent" points="-4,4 -4,-1046.9 1095,-1046.9 1095,4 -4,4"/>
<g id="clust1" class="cluster">
<title>cluster8243615961</title>
<path fill="none" stroke="#8b7d6b" stroke-width="2" d="M20,-31.9C20,-31.9 1071,-31.9 1071,-31.9 1077,-31.9 1083,-37.9 1083,-43.9 1083,-43.9 1083,-1022.9 1083,-1022.9 1083,-1028.9 1077,-1034.9 1071,-1034.9 1071,-1034.9 20,-1034.9 20,-1034.9 14,-1034.9 8,-1028.9 8,-1022.9 8,-1022.9 8,-43.9 8,-43.9 8,-37.9 14,-31.9 20,-31.9"/>
<text text-anchor="start" x="535" y="-1020.7" font-family="Helvetica,sans-Serif" font-weight="bold" font-size="14.00">src</text>
</g>
<g id="clust2" class="cluster">
<title>cluster8881653395</title>
<path fill="bisque" stroke="#8b7d6b" stroke-width="2" d="M813.5,-408.9C813.5,-408.9 1063,-408.9 1063,-408.9 1069,-408.9 1075,-414.9 1075,-420.9 1075,-420.9 1075,-525.9 1075,-525.9 1075,-531.9 1069,-537.9 1063,-537.9 1063,-537.9 813.5,-537.9 813.5,-537.9 807.5,-537.9 801.5,-531.9 801.5,-525.9 801.5,-525.9 801.5,-420.9 801.5,-420.9 801.5,-414.9 807.5,-408.9 813.5,-408.9"/>
<text text-anchor="start" x="889.75" y="-523.7" font-family="Helvetica,sans-Serif" font-weight="bold" font-size="14.00">core&#45;validators</text>
</g>
<g id="clust3" class="cluster">
<title>cluster1987860215</title>
<path fill="bisque" stroke="#8b7d6b" stroke-width="2" d="M402,-91.9C402,-91.9 904,-91.9 904,-91.9 910,-91.9 916,-97.9 916,-103.9 916,-103.9 916,-356.9 916,-356.9 916,-362.9 910,-368.9 904,-368.9 904,-368.9 402,-368.9 402,-368.9 396,-368.9 390,-362.9 390,-356.9 390,-356.9 390,-103.9 390,-103.9 390,-97.9 396,-91.9 402,-91.9"/>
<text text-anchor="start" x="632" y="-354.7" font-family="Helvetica,sans-Serif" font-weight="bold" font-size="14.00">crypto</text>
</g>
<g id="clust4" class="cluster">
<title>cluster5368329699</title>
<path fill="bisque" stroke="#8b7d6b" stroke-width="2" d="M583.5,-928.9C583.5,-928.9 933,-928.9 933,-928.9 939,-928.9 945,-934.9 945,-940.9 945,-940.9 945,-991.9 945,-991.9 945,-997.9 939,-1003.9 933,-1003.9 933,-1003.9 583.5,-1003.9 583.5,-1003.9 577.5,-1003.9 571.5,-997.9 571.5,-991.9 571.5,-991.9 571.5,-940.9 571.5,-940.9 571.5,-934.9 577.5,-928.9 583.5,-928.9"/>
<text text-anchor="start" x="702.25" y="-989.7" font-family="Helvetica,sans-Serif" font-weight="bold" font-size="14.00">format&#45;validators</text>
</g>
<g id="clust5" class="cluster">
<title>cluster4535215867</title>
<path fill="bisque" stroke="#8b7d6b" stroke-width="2" d="M188,-376.9C188,-376.9 475.5,-376.9 475.5,-376.9 481.5,-376.9 487.5,-382.9 487.5,-388.9 487.5,-388.9 487.5,-547.9 487.5,-547.9 487.5,-553.9 481.5,-559.9 475.5,-559.9 475.5,-559.9 188,-559.9 188,-559.9 182,-559.9 176,-553.9 176,-547.9 176,-547.9 176,-388.9 176,-388.9 176,-382.9 182,-376.9 188,-376.9"/>
<text text-anchor="start" x="317.25" y="-545.7" font-family="Helvetica,sans-Serif" font-weight="bold" font-size="14.00">peer</text>
</g>
<g id="clust6" class="cluster">
<title>cluster3630519665</title>
<path fill="bisque" stroke="#8b7d6b" stroke-width="2" d="M28,-577.9C28,-577.9 902.5,-577.9 902.5,-577.9 908.5,-577.9 914.5,-583.9 914.5,-589.9 914.5,-589.9 914.5,-908.9 914.5,-908.9 914.5,-914.9 908.5,-920.9 902.5,-920.9 902.5,-920.9 28,-920.9 28,-920.9 22,-920.9 16,-914.9 16,-908.9 16,-908.9 16,-589.9 16,-589.9 16,-583.9 22,-577.9 28,-577.9"/>
<text text-anchor="start" x="440.75" y="-906.7" font-family="Helvetica,sans-Serif" font-weight="bold" font-size="14.00">storage</text>
</g>
<!-- src/example&#45;app.ts -->
<g id="node1" class="node">
<title>src/example&#45;app.ts</title>
<path fill="#79cdcd" stroke="#79cdcd" d="M125,-569.9C125,-569.9 39,-569.9 39,-569.9 33,-569.9 27,-563.9 27,-557.9 27,-557.9 27,-545.9 27,-545.9 27,-539.9 33,-533.9 39,-533.9 39,-533.9 125,-533.9 125,-533.9 131,-533.9 137,-539.9 137,-545.9 137,-545.9 137,-557.9 137,-557.9 137,-563.9 131,-569.9 125,-569.9"/>
<text text-anchor="middle" x="82" y="-548.2" font-family="Helvetica,sans-Serif" font-size="14.00">example&#45;app.ts</text>
</g>
<!-- src/crypto/crypto&#45;driver&#45;tweetnacl.ts -->
<g id="node8" class="node">
<title>src/crypto/crypto&#45;driver&#45;tweetnacl.ts</title>
<path fill="#79cdcd" stroke="#79cdcd" d="M727,-263.9C727,-263.9 584,-263.9 584,-263.9 578,-263.9 572,-257.9 572,-251.9 572,-251.9 572,-239.9 572,-239.9 572,-233.9 578,-227.9 584,-227.9 584,-227.9 727,-227.9 727,-227.9 733,-227.9 739,-233.9 739,-239.9 739,-239.9 739,-251.9 739,-251.9 739,-257.9 733,-263.9 727,-263.9"/>
<text text-anchor="middle" x="655.5" y="-242.2" font-family="Helvetica,sans-Serif" font-size="14.00">crypto&#45;driver&#45;tweetnacl.ts</text>
</g>
<!-- src/example&#45;app.ts&#45;&gt;src/crypto/crypto&#45;driver&#45;tweetnacl.ts -->
<g id="edge17" class="edge">
<title>src/example&#45;app.ts&#45;&gt;src/crypto/crypto&#45;driver&#45;tweetnacl.ts</title>
<path fill="none" stroke="#528b8b" stroke-width="2" d="M84.67,-533.65C89.7,-489.85 108.82,-378.34 176,-322.9 284.76,-233.14 456.2,-227.91 561.63,-234.99"/>
<polygon fill="#528b8b" stroke="#528b8b" stroke-width="2" points="561.4,-238.49 571.62,-235.71 561.9,-231.5 561.4,-238.49"/>
</g>
<!-- src/crypto/crypto.ts -->
<g id="node10" class="node">
<title>src/crypto/crypto.ts</title>
<path fill="#79cdcd" stroke="#79cdcd" d="M454,-337.9C454,-337.9 410,-337.9 410,-337.9 404,-337.9 398,-331.9 398,-325.9 398,-325.9 398,-313.9 398,-313.9 398,-307.9 404,-301.9 410,-301.9 410,-301.9 454,-301.9 454,-301.9 460,-301.9 466,-307.9 466,-313.9 466,-313.9 466,-325.9 466,-325.9 466,-331.9 460,-337.9 454,-337.9"/>
<text text-anchor="middle" x="432" y="-316.2" font-family="Helvetica,sans-Serif" font-size="14.00">crypto.ts</text>
</g>
<!-- src/example&#45;app.ts&#45;&gt;src/crypto/crypto.ts -->
<g id="edge16" class="edge">
<title>src/example&#45;app.ts&#45;&gt;src/crypto/crypto.ts</title>
<path fill="none" stroke="#528b8b" stroke-width="2" d="M86.91,-533.84C95.84,-497.25 121.29,-414.34 176,-372.9 238.47,-325.58 333.25,-318.04 387.94,-318.11"/>
<polygon fill="#528b8b" stroke="#528b8b" stroke-width="2" points="387.96,-321.61 398,-318.2 388.03,-314.61 387.96,-321.61"/>
</g>
<!-- src/format&#45;validators/format&#45;validator&#45;es4.ts -->
<g id="node12" class="node">
<title>src/format&#45;validators/format&#45;validator&#45;es4.ts</title>
<path fill="#79cdcd" stroke="#79cdcd" d="M719.5,-972.9C719.5,-972.9 591.5,-972.9 591.5,-972.9 585.5,-972.9 579.5,-966.9 579.5,-960.9 579.5,-960.9 579.5,-948.9 579.5,-948.9 579.5,-942.9 585.5,-936.9 591.5,-936.9 591.5,-936.9 719.5,-936.9 719.5,-936.9 725.5,-936.9 731.5,-942.9 731.5,-948.9 731.5,-948.9 731.5,-960.9 731.5,-960.9 731.5,-966.9 725.5,-972.9 719.5,-972.9"/>
<text text-anchor="middle" x="655.5" y="-951.2" font-family="Helvetica,sans-Serif" font-size="14.00">format&#45;validator&#45;es4.ts</text>
</g>
<!-- src/example&#45;app.ts&#45;&gt;src/format&#45;validators/format&#45;validator&#45;es4.ts -->
<g id="edge13" class="edge">
<title>src/example&#45;app.ts&#45;&gt;src/format&#45;validators/format&#45;validator&#45;es4.ts</title>
<path fill="none" stroke="#528b8b" stroke-width="2" d="M137.49,-559.86C150.11,-561.45 163.5,-562.92 176,-563.9 195.95,-565.46 521.35,-560.28 536,-573.9 593.42,-627.27 523.29,-863.08 571.5,-924.9 572.95,-926.76 574.54,-928.51 576.22,-930.15"/>
<polygon fill="#528b8b" stroke="#528b8b" stroke-width="2" points="574.27,-933.08 584.23,-936.67 578.69,-927.65 574.27,-933.08"/>
</g>
<!-- src/peer/peer.ts -->
<g id="node17" class="node">
<title>src/peer/peer.ts</title>
<path fill="#79cdcd" stroke="#79cdcd" d="M251,-528.9C251,-528.9 217,-528.9 217,-528.9 211,-528.9 205,-522.9 205,-516.9 205,-516.9 205,-504.9 205,-504.9 205,-498.9 211,-492.9 217,-492.9 217,-492.9 251,-492.9 251,-492.9 257,-492.9 263,-498.9 263,-504.9 263,-504.9 263,-516.9 263,-516.9 263,-522.9 257,-528.9 251,-528.9"/>
<text text-anchor="middle" x="234" y="-507.2" font-family="Helvetica,sans-Serif" font-size="14.00">peer.ts</text>
</g>
<!-- src/example&#45;app.ts&#45;&gt;src/peer/peer.ts -->
<g id="edge19" class="edge">
<title>src/example&#45;app.ts&#45;&gt;src/peer/peer.ts</title>
<path fill="none" stroke="#528b8b" stroke-width="2" d="M137.15,-537.1C156.23,-531.88 177.27,-526.13 194.76,-521.35"/>
<polygon fill="#528b8b" stroke="#528b8b" stroke-width="2" points="195.89,-524.67 204.61,-518.66 194.04,-517.92 195.89,-524.67"/>
</g>
<!-- src/storage/query&#45;follower.ts -->
<g id="node21" class="node">
<title>src/storage/query&#45;follower.ts</title>
<path fill="#79cdcd" stroke="#79cdcd" d="M280,-752.9C280,-752.9 188,-752.9 188,-752.9 182,-752.9 176,-746.9 176,-740.9 176,-740.9 176,-728.9 176,-728.9 176,-722.9 182,-716.9 188,-716.9 188,-716.9 280,-716.9 280,-716.9 286,-716.9 292,-722.9 292,-728.9 292,-728.9 292,-740.9 292,-740.9 292,-746.9 286,-752.9 280,-752.9"/>
<text text-anchor="middle" x="234" y="-731.2" font-family="Helvetica,sans-Serif" font-size="14.00">query&#45;follower.ts</text>
</g>
<!-- src/example&#45;app.ts&#45;&gt;src/storage/query&#45;follower.ts -->
<g id="edge18" class="edge">
<title>src/example&#45;app.ts&#45;&gt;src/storage/query&#45;follower.ts</title>
<path fill="none" stroke="#528b8b" stroke-width="2" d="M136.38,-570.31C137.66,-571.44 138.87,-572.63 140,-573.9 180.22,-619.03 138.45,-660.64 173.09,-708.44"/>
<polygon fill="#528b8b" stroke="#528b8b" stroke-width="2" points="170.6,-710.93 179.62,-716.49 176.04,-706.52 170.6,-710.93"/>
</g>
<!-- src/storage/storage&#45;async.ts -->
<g id="node24" class="node">
<title>src/storage/storage&#45;async.ts</title>
<path fill="#79cdcd" stroke="#79cdcd" d="M478,-789.9C478,-789.9 386,-789.9 386,-789.9 380,-789.9 374,-783.9 374,-777.9 374,-777.9 374,-765.9 374,-765.9 374,-759.9 380,-753.9 386,-753.9 386,-753.9 478,-753.9 478,-753.9 484,-753.9 490,-759.9 490,-765.9 490,-765.9 490,-777.9 490,-777.9 490,-783.9 484,-789.9 478,-789.9"/>
<text text-anchor="middle" x="432" y="-768.2" font-family="Helvetica,sans-Serif" font-size="14.00">storage&#45;async.ts</text>
</g>
<!-- src/example&#45;app.ts&#45;&gt;src/storage/storage&#45;async.ts -->
<g id="edge15" class="edge">
<title>src/example&#45;app.ts&#45;&gt;src/storage/storage&#45;async.ts</title>
<path fill="none" stroke="#528b8b" stroke-width="2" d="M132.57,-569.93C135.12,-571.2 137.61,-572.52 140,-573.9 163.22,-587.27 305.19,-710.84 328,-724.9 342.97,-734.12 360.05,-742.64 375.94,-749.82"/>
<polygon fill="#528b8b" stroke="#528b8b" stroke-width="2" points="374.57,-753.04 385.14,-753.88 377.4,-746.64 374.57,-753.04"/>
</g>
<!-- src/storage/storage&#45;driver&#45;async&#45;memory.ts -->
<g id="node26" class="node">
<title>src/storage/storage&#45;driver&#45;async&#45;memory.ts</title>
<path fill="#79cdcd" stroke="#79cdcd" d="M524,-661.9C524,-661.9 340,-661.9 340,-661.9 334,-661.9 328,-655.9 328,-649.9 328,-649.9 328,-637.9 328,-637.9 328,-631.9 334,-625.9 340,-625.9 340,-625.9 524,-625.9 524,-625.9 530,-625.9 536,-631.9 536,-637.9 536,-637.9 536,-649.9 536,-649.9 536,-655.9 530,-661.9 524,-661.9"/>
<text text-anchor="middle" x="432" y="-640.2" font-family="Helvetica,sans-Serif" font-size="14.00">storage&#45;driver&#45;async&#45;memory.ts</text>
</g>
<!-- src/example&#45;app.ts&#45;&gt;src/storage/storage&#45;driver&#45;async&#45;memory.ts -->
<g id="edge14" class="edge">
<title>src/example&#45;app.ts&#45;&gt;src/storage/storage&#45;driver&#45;async&#45;memory.ts</title>
<path fill="none" stroke="#528b8b" stroke-width="2" d="M137.21,-568.53C186.67,-583.43 261.9,-605.42 328,-621.9 330.16,-622.44 332.35,-622.98 334.56,-623.51"/>
<polygon fill="#528b8b" stroke="#528b8b" stroke-width="2" points="333.82,-626.93 344.36,-625.84 335.44,-620.12 333.82,-626.93"/>
</g>
<!-- src/core&#45;validators/addresses.ts -->
<g id="node2" class="node">
<title>src/core&#45;validators/addresses.ts</title>
<path fill="#79cdcd" stroke="#79cdcd" d="M890.5,-452.9C890.5,-452.9 821.5,-452.9 821.5,-452.9 815.5,-452.9 809.5,-446.9 809.5,-440.9 809.5,-440.9 809.5,-428.9 809.5,-428.9 809.5,-422.9 815.5,-416.9 821.5,-416.9 821.5,-416.9 890.5,-416.9 890.5,-416.9 896.5,-416.9 902.5,-422.9 902.5,-428.9 902.5,-428.9 902.5,-440.9 902.5,-440.9 902.5,-446.9 896.5,-452.9 890.5,-452.9"/>
<text text-anchor="middle" x="856" y="-431.2" font-family="Helvetica,sans-Serif" font-size="14.00">addresses.ts</text>
</g>
<!-- src/core&#45;validators/characters.ts -->
<g id="node3" class="node">
<title>src/core&#45;validators/characters.ts</title>
<path fill="#79cdcd" stroke="#79cdcd" d="M1055,-479.9C1055,-479.9 985,-479.9 985,-479.9 979,-479.9 973,-473.9 973,-467.9 973,-467.9 973,-455.9 973,-455.9 973,-449.9 979,-443.9 985,-443.9 985,-443.9 1055,-443.9 1055,-443.9 1061,-443.9 1067,-449.9 1067,-455.9 1067,-455.9 1067,-467.9 1067,-467.9 1067,-473.9 1061,-479.9 1055,-479.9"/>
<text text-anchor="middle" x="1020" y="-458.2" font-family="Helvetica,sans-Serif" font-size="14.00">characters.ts</text>
</g>
<!-- src/core&#45;validators/addresses.ts&#45;&gt;src/core&#45;validators/characters.ts -->
<g id="edge1" class="edge">
<title>src/core&#45;validators/addresses.ts&#45;&gt;src/core&#45;validators/characters.ts</title>
<path fill="none" stroke="#528b8b" stroke-width="2" d="M902.56,-442.49C921.29,-445.61 943.16,-449.26 962.87,-452.54"/>
<polygon fill="#528b8b" stroke="#528b8b" stroke-width="2" points="962.5,-456.03 972.94,-454.22 963.65,-449.13 962.5,-456.03"/>
</g>
<!-- src/core&#45;validators/checkers.ts -->
<g id="node4" class="node">
<title>src/core&#45;validators/checkers.ts</title>
<path fill="#79cdcd" stroke="#79cdcd" d="M886.5,-506.9C886.5,-506.9 825.5,-506.9 825.5,-506.9 819.5,-506.9 813.5,-500.9 813.5,-494.9 813.5,-494.9 813.5,-482.9 813.5,-482.9 813.5,-476.9 819.5,-470.9 825.5,-470.9 825.5,-470.9 886.5,-470.9 886.5,-470.9 892.5,-470.9 898.5,-476.9 898.5,-482.9 898.5,-482.9 898.5,-494.9 898.5,-494.9 898.5,-500.9 892.5,-506.9 886.5,-506.9"/>
<text text-anchor="middle" x="856" y="-485.2" font-family="Helvetica,sans-Serif" font-size="14.00">checkers.ts</text>
</g>
<!-- src/core&#45;validators/checkers.ts&#45;&gt;src/core&#45;validators/characters.ts -->
<g id="edge2" class="edge">
<title>src/core&#45;validators/checkers.ts&#45;&gt;src/core&#45;validators/characters.ts</title>
<path fill="none" stroke="#528b8b" stroke-width="2" d="M898.72,-481.95C918.22,-478.7 941.72,-474.78 962.76,-471.27"/>
<polygon fill="#528b8b" stroke="#528b8b" stroke-width="2" points="963.57,-474.69 972.86,-469.59 962.42,-467.78 963.57,-474.69"/>
</g>
<!-- src/crypto/base32.ts -->
<g id="node5" class="node">
<title>src/crypto/base32.ts</title>
<path fill="#79cdcd" stroke="#79cdcd" d="M881.5,-199.9C881.5,-199.9 830.5,-199.9 830.5,-199.9 824.5,-199.9 818.5,-193.9 818.5,-187.9 818.5,-187.9 818.5,-175.9 818.5,-175.9 818.5,-169.9 824.5,-163.9 830.5,-163.9 830.5,-163.9 881.5,-163.9 881.5,-163.9 887.5,-163.9 893.5,-169.9 893.5,-175.9 893.5,-175.9 893.5,-187.9 893.5,-187.9 893.5,-193.9 887.5,-199.9 881.5,-199.9"/>
<text text-anchor="middle" x="856" y="-178.2" font-family="Helvetica,sans-Serif" font-size="14.00">base32.ts</text>
</g>
<!-- src/crypto/crypto&#45;driver&#45;chloride.ts -->
<g id="node6" class="node">
<title>src/crypto/crypto&#45;driver&#45;chloride.ts</title>
<path fill="#79cdcd" stroke="#79cdcd" d="M722.5,-209.9C722.5,-209.9 588.5,-209.9 588.5,-209.9 582.5,-209.9 576.5,-203.9 576.5,-197.9 576.5,-197.9 576.5,-185.9 576.5,-185.9 576.5,-179.9 582.5,-173.9 588.5,-173.9 588.5,-173.9 722.5,-173.9 722.5,-173.9 728.5,-173.9 734.5,-179.9 734.5,-185.9 734.5,-185.9 734.5,-197.9 734.5,-197.9 734.5,-203.9 728.5,-209.9 722.5,-209.9"/>
<text text-anchor="middle" x="655.5" y="-188.2" font-family="Helvetica,sans-Serif" font-size="14.00">crypto&#45;driver&#45;chloride.ts</text>
</g>
<!-- src/crypto/crypto&#45;types.ts -->
<g id="node9" class="node">
<title>src/crypto/crypto&#45;types.ts</title>
<path fill="#79cdcd" stroke="#79cdcd" d="M896,-290.9C896,-290.9 816,-290.9 816,-290.9 810,-290.9 804,-284.9 804,-278.9 804,-278.9 804,-266.9 804,-266.9 804,-260.9 810,-254.9 816,-254.9 816,-254.9 896,-254.9 896,-254.9 902,-254.9 908,-260.9 908,-266.9 908,-266.9 908,-278.9 908,-278.9 908,-284.9 902,-290.9 896,-290.9"/>
<text text-anchor="middle" x="856" y="-269.2" font-family="Helvetica,sans-Serif" font-size="14.00">crypto&#45;types.ts</text>
</g>
<!-- src/crypto/crypto&#45;driver&#45;chloride.ts&#45;&gt;src/crypto/crypto&#45;types.ts -->
<g id="edge3" class="edge">
<title>src/crypto/crypto&#45;driver&#45;chloride.ts&#45;&gt;src/crypto/crypto&#45;types.ts</title>
<path fill="none" stroke="#528b8b" stroke-width="2" d="M714.51,-209.91C722.79,-212.77 731.15,-215.8 739,-218.9 762.85,-228.31 788.77,-240.22 810.05,-250.45"/>
<polygon fill="#528b8b" stroke="#528b8b" stroke-width="2" points="808.65,-253.66 819.17,-254.87 811.7,-247.36 808.65,-253.66"/>
</g>
<!-- src/crypto/crypto&#45;driver&#45;node.ts -->
<g id="node7" class="node">
<title>src/crypto/crypto&#45;driver&#45;node.ts</title>
<path fill="#79cdcd" stroke="#79cdcd" d="M713.5,-155.9C713.5,-155.9 597.5,-155.9 597.5,-155.9 591.5,-155.9 585.5,-149.9 585.5,-143.9 585.5,-143.9 585.5,-131.9 585.5,-131.9 585.5,-125.9 591.5,-119.9 597.5,-119.9 597.5,-119.9 713.5,-119.9 713.5,-119.9 719.5,-119.9 725.5,-125.9 725.5,-131.9 725.5,-131.9 725.5,-143.9 725.5,-143.9 725.5,-149.9 719.5,-155.9 713.5,-155.9"/>
<text text-anchor="middle" x="655.5" y="-134.2" font-family="Helvetica,sans-Serif" font-size="14.00">crypto&#45;driver&#45;node.ts</text>
</g>
<!-- src/crypto/crypto&#45;driver&#45;node.ts&#45;&gt;src/crypto/crypto&#45;types.ts -->
<g id="edge4" class="edge">
<title>src/crypto/crypto&#45;driver&#45;node.ts&#45;&gt;src/crypto/crypto&#45;types.ts</title>
<path fill="none" stroke="#528b8b" stroke-width="2" d="M723.39,-156.05C728.87,-158.64 734.15,-161.58 739,-164.9 759.84,-179.18 757.04,-191.13 775,-208.9 789.4,-223.15 806.83,-237.39 821.73,-248.8"/>
<polygon fill="#528b8b" stroke="#528b8b" stroke-width="2" points="819.63,-251.6 829.72,-254.84 823.85,-246.02 819.63,-251.6"/>
</g>
<!-- src/crypto/crypto&#45;driver&#45;tweetnacl.ts&#45;&gt;src/crypto/crypto&#45;types.ts -->
<g id="edge5" class="edge">
<title>src/crypto/crypto&#45;driver&#45;tweetnacl.ts&#45;&gt;src/crypto/crypto&#45;types.ts</title>
<path fill="none" stroke="#528b8b" stroke-width="2" d="M739.24,-257.15C757.56,-259.65 776.65,-262.24 793.93,-264.59"/>
<polygon fill="#528b8b" stroke="#528b8b" stroke-width="2" points="793.48,-268.06 803.86,-265.94 794.43,-261.13 793.48,-268.06"/>
</g>
<!-- src/crypto/crypto.ts&#45;&gt;src/core&#45;validators/addresses.ts -->
<g id="edge9" class="edge">
<title>src/crypto/crypto.ts&#45;&gt;src/core&#45;validators/addresses.ts</title>
<path fill="none" stroke="#528b8b" stroke-width="2" d="M466.11,-328.92C538.31,-348.6 710.53,-395.53 799.58,-419.8"/>
<polygon fill="#528b8b" stroke="#528b8b" stroke-width="2" points="798.66,-423.17 809.23,-422.43 800.5,-416.42 798.66,-423.17"/>
</g>
<!-- src/crypto/crypto.ts&#45;&gt;src/crypto/base32.ts -->
<g id="edge7" class="edge">
<title>src/crypto/crypto.ts&#45;&gt;src/crypto/base32.ts</title>
<path fill="none" stroke="#528b8b" stroke-width="2" d="M438.44,-301.79C452.38,-259.1 493.84,-152.6 571.5,-110.9 637.09,-75.68 667.35,-90.71 739,-110.9 771.24,-119.98 803.38,-140.81 825.62,-157.57"/>
<polygon fill="#528b8b" stroke="#528b8b" stroke-width="2" points="823.58,-160.42 833.64,-163.76 827.86,-154.87 823.58,-160.42"/>
</g>
<!-- src/crypto/crypto.ts&#45;&gt;src/crypto/crypto&#45;types.ts -->
<g id="edge6" class="edge">
<title>src/crypto/crypto.ts&#45;&gt;src/crypto/crypto&#45;types.ts</title>
<path fill="none" stroke="#528b8b" stroke-width="2" d="M466.11,-325.76C522.79,-334.67 641.72,-348.43 739,-326.9 766.14,-320.89 794.46,-307.86 816.32,-296.1"/>
<polygon fill="#528b8b" stroke="#528b8b" stroke-width="2" points="818.21,-299.06 825.28,-291.16 814.83,-292.93 818.21,-299.06"/>
</g>
<!-- src/crypto/keypair.ts -->
<g id="node11" class="node">
<title>src/crypto/keypair.ts</title>
<path fill="#79cdcd" stroke="#79cdcd" d="M680.5,-317.9C680.5,-317.9 630.5,-317.9 630.5,-317.9 624.5,-317.9 618.5,-311.9 618.5,-305.9 618.5,-305.9 618.5,-293.9 618.5,-293.9 618.5,-287.9 624.5,-281.9 630.5,-281.9 630.5,-281.9 680.5,-281.9 680.5,-281.9 686.5,-281.9 692.5,-287.9 692.5,-293.9 692.5,-293.9 692.5,-305.9 692.5,-305.9 692.5,-311.9 686.5,-317.9 680.5,-317.9"/>
<text text-anchor="middle" x="655.5" y="-296.2" font-family="Helvetica,sans-Serif" font-size="14.00">keypair.ts</text>
</g>
<!-- src/crypto/crypto.ts&#45;&gt;src/crypto/keypair.ts -->
<g id="edge8" class="edge">
<title>src/crypto/crypto.ts&#45;&gt;src/crypto/keypair.ts</title>
<path fill="none" stroke="#528b8b" stroke-width="2" d="M466.16,-316.9C503.85,-313.5 565.62,-307.92 608.08,-304.09"/>
<polygon fill="#528b8b" stroke="#528b8b" stroke-width="2" points="608.52,-307.57 618.16,-303.18 607.89,-300.59 608.52,-307.57"/>
</g>
<!-- src/crypto/keypair.ts&#45;&gt;src/core&#45;validators/addresses.ts -->
<g id="edge12" class="edge">
<title>src/crypto/keypair.ts&#45;&gt;src/core&#45;validators/addresses.ts</title>
<path fill="none" stroke="#528b8b" stroke-width="2" d="M683.27,-318.11C718.59,-342.13 780.84,-384.46 819.89,-411.02"/>
<polygon fill="#528b8b" stroke="#528b8b" stroke-width="2" points="818.1,-414.04 828.34,-416.77 822.04,-408.25 818.1,-414.04"/>
</g>
<!-- src/crypto/keypair.ts&#45;&gt;src/crypto/base32.ts -->
<g id="edge10" class="edge">
<title>src/crypto/keypair.ts&#45;&gt;src/crypto/base32.ts</title>
<path fill="none" stroke="#528b8b" stroke-width="2" d="M692.54,-291.07C707.4,-286.68 724.51,-280.64 739,-272.9 743.71,-270.38 791.56,-232.49 824.31,-206.4"/>
<polygon fill="#528b8b" stroke="#528b8b" stroke-width="2" points="826.64,-209.02 832.28,-200.05 822.28,-203.55 826.64,-209.02"/>
</g>
<!-- src/crypto/keypair.ts&#45;&gt;src/crypto/crypto&#45;types.ts -->
<g id="edge11" class="edge">
<title>src/crypto/keypair.ts&#45;&gt;src/crypto/crypto&#45;types.ts</title>
<path fill="none" stroke="#528b8b" stroke-width="2" d="M692.91,-294.95C721.11,-291.11 760.8,-285.71 793.85,-281.22"/>
<polygon fill="#528b8b" stroke="#528b8b" stroke-width="2" points="794.44,-284.67 803.87,-279.85 793.49,-277.73 794.44,-284.67"/>
</g>
<!-- src/format&#45;validators/format&#45;validator&#45;es4.ts&#45;&gt;src/core&#45;validators/addresses.ts -->
<g id="edge24" class="edge">
<title>src/format&#45;validators/format&#45;validator&#45;es4.ts&#45;&gt;src/core&#45;validators/addresses.ts</title>
<path fill="none" stroke="#528b8b" stroke-width="2" d="M726.46,-936.72C731.21,-933.41 735.5,-929.51 739,-924.9 801.44,-842.73 711.61,-543.33 775,-461.9 781.28,-453.83 790.08,-448.16 799.55,-444.17"/>
<polygon fill="#528b8b" stroke="#528b8b" stroke-width="2" points="800.95,-447.38 809.19,-440.71 798.59,-440.79 800.95,-447.38"/>
</g>
<!-- src/format&#45;validators/format&#45;validator&#45;es4.ts&#45;&gt;src/core&#45;validators/characters.ts -->
<g id="edge22" class="edge">
<title>src/format&#45;validators/format&#45;validator&#45;es4.ts&#45;&gt;src/core&#45;validators/characters.ts</title>
<path fill="none" stroke="#528b8b" stroke-width="2" d="M692.11,-972.94C752.11,-1000.5 873.76,-1043.72 945,-981.9 1019.68,-917.09 1020.94,-588.9 1019.58,-490.09"/>
<polygon fill="#528b8b" stroke="#528b8b" stroke-width="2" points="1023.07,-489.91 1019.42,-479.97 1016.07,-490.02 1023.07,-489.91"/>
</g>
<!-- src/format&#45;validators/format&#45;validator&#45;es4.ts&#45;&gt;src/core&#45;validators/checkers.ts -->
<g id="edge23" class="edge">
<title>src/format&#45;validators/format&#45;validator&#45;es4.ts&#45;&gt;src/core&#45;validators/checkers.ts</title>
<path fill="none" stroke="#528b8b" stroke-width="2" d="M725.96,-936.88C730.89,-933.54 735.35,-929.59 739,-924.9 787.2,-863.06 742.41,-645.21 775,-573.9 785.81,-550.24 805.89,-528.94 823.23,-513.58"/>
<polygon fill="#528b8b" stroke="#528b8b" stroke-width="2" points="825.64,-516.12 830.95,-506.95 821.09,-510.81 825.64,-516.12"/>
</g>
<!-- src/format&#45;validators/format&#45;validator&#45;es4.ts&#45;&gt;src/crypto/crypto&#45;types.ts -->
<g id="edge21" class="edge">
<title>src/format&#45;validators/format&#45;validator&#45;es4.ts&#45;&gt;src/crypto/crypto&#45;types.ts</title>
<path fill="none" stroke="#528b8b" stroke-width="2" d="M726.51,-936.75C731.25,-933.44 735.52,-929.53 739,-924.9 808.69,-832.38 740,-515.32 775,-404.9 787.66,-364.97 814.69,-324.58 833.82,-299.19"/>
<polygon fill="#528b8b" stroke="#528b8b" stroke-width="2" points="836.66,-301.24 839.97,-291.17 831.11,-296.97 836.66,-301.24"/>
</g>
<!-- src/format&#45;validators/format&#45;validator&#45;types.ts -->
<g id="node13" class="node">
<title>src/format&#45;validators/format&#45;validator&#45;types.ts</title>
<path fill="#79cdcd" stroke="#79cdcd" d="M925,-972.9C925,-972.9 787,-972.9 787,-972.9 781,-972.9 775,-966.9 775,-960.9 775,-960.9 775,-948.9 775,-948.9 775,-942.9 781,-936.9 787,-936.9 787,-936.9 925,-936.9 925,-936.9 931,-936.9 937,-942.9 937,-948.9 937,-948.9 937,-960.9 937,-960.9 937,-966.9 931,-972.9 925,-972.9"/>
<text text-anchor="middle" x="856" y="-951.2" font-family="Helvetica,sans-Serif" font-size="14.00">format&#45;validator&#45;types.ts</text>
</g>
<!-- src/format&#45;validators/format&#45;validator&#45;es4.ts&#45;&gt;src/format&#45;validators/format&#45;validator&#45;types.ts -->
<g id="edge20" class="edge">
<title>src/format&#45;validators/format&#45;validator&#45;es4.ts&#45;&gt;src/format&#45;validators/format&#45;validator&#45;types.ts</title>
<path fill="none" stroke="#528b8b" stroke-width="2" d="M731.54,-954.9C742.39,-954.9 753.64,-954.9 764.74,-954.9"/>
<polygon fill="#528b8b" stroke="#528b8b" stroke-width="2" points="764.88,-958.4 774.88,-954.9 764.88,-951.4 764.88,-958.4"/>
</g>
<!-- src/format&#45;validators/format&#45;validator&#45;types.ts&#45;&gt;src/crypto/crypto&#45;types.ts -->
<g id="edge25" class="edge">
<title>src/format&#45;validators/format&#45;validator&#45;types.ts&#45;&gt;src/crypto/crypto&#45;types.ts</title>
<path fill="none" stroke="#528b8b" stroke-width="2" d="M779.1,-936.79C770.24,-931.52 762.44,-924.7 757,-915.9 727.68,-868.45 740.19,-467.08 757,-413.9 771.36,-368.47 806.17,-324.99 830.43,-298.62"/>
<polygon fill="#528b8b" stroke="#528b8b" stroke-width="2" points="832.98,-301.01 837.28,-291.32 827.88,-296.22 832.98,-301.01"/>
</g>
<!-- src/peer/peer&#45;client.ts -->
<g id="node14" class="node">
<title>src/peer/peer&#45;client.ts</title>
<path fill="#79cdcd" stroke="#79cdcd" d="M269,-474.9C269,-474.9 199,-474.9 199,-474.9 193,-474.9 187,-468.9 187,-462.9 187,-462.9 187,-450.9 187,-450.9 187,-444.9 193,-438.9 199,-438.9 199,-438.9 269,-438.9 269,-438.9 275,-438.9 281,-444.9 281,-450.9 281,-450.9 281,-462.9 281,-462.9 281,-468.9 275,-474.9 269,-474.9"/>
<text text-anchor="middle" x="234" y="-453.2" font-family="Helvetica,sans-Serif" font-size="14.00">peer&#45;client.ts</text>
</g>
<!-- src/peer/peer&#45;client.ts&#45;&gt;src/core&#45;validators/characters.ts -->
<g id="edge30" class="edge">
<title>src/peer/peer&#45;client.ts&#45;&gt;src/core&#45;validators/characters.ts</title>
<path fill="none" stroke="#528b8b" stroke-width="2" d="M281.26,-440.5C285.38,-437.51 289.09,-434.01 292,-429.9 336.19,-367.55 271.2,-139.03 328,-87.9 429.9,3.84 839.06,-0.86 945,-87.9 998.49,-131.84 1013.97,-353.64 1017.85,-433.33"/>
<polygon fill="#528b8b" stroke="#528b8b" stroke-width="2" points="1014.36,-433.77 1018.32,-443.6 1021.36,-433.45 1014.36,-433.77"/>
</g>
<!-- src/peer/peer&#45;client.ts&#45;&gt;src/crypto/crypto&#45;types.ts -->
<g id="edge26" class="edge">
<title>src/peer/peer&#45;client.ts&#45;&gt;src/crypto/crypto&#45;types.ts</title>
<path fill="none" stroke="#528b8b" stroke-width="2" d="M281.2,-439.65C285.22,-436.84 288.92,-433.61 292,-429.9 332.2,-381.45 292.82,-345.11 328,-292.9 403.5,-180.85 443.29,-153.52 571.5,-110.9 642.14,-87.42 677.96,-68.29 739,-110.9 777.05,-137.46 747.89,-171.24 775,-208.9 786.12,-224.34 801.92,-238.06 816.55,-248.79"/>
<polygon fill="#528b8b" stroke="#528b8b" stroke-width="2" points="814.79,-251.84 824.98,-254.76 818.84,-246.12 814.79,-251.84"/>
</g>
<!-- src/peer/peer&#45;types.ts -->
<g id="node16" class="node">
<title>src/peer/peer&#45;types.ts</title>
<path fill="#79cdcd" stroke="#79cdcd" d="M467.5,-474.9C467.5,-474.9 396.5,-474.9 396.5,-474.9 390.5,-474.9 384.5,-468.9 384.5,-462.9 384.5,-462.9 384.5,-450.9 384.5,-450.9 384.5,-444.9 390.5,-438.9 396.5,-438.9 396.5,-438.9 467.5,-438.9 467.5,-438.9 473.5,-438.9 479.5,-444.9 479.5,-450.9 479.5,-450.9 479.5,-462.9 479.5,-462.9 479.5,-468.9 473.5,-474.9 467.5,-474.9"/>
<text text-anchor="middle" x="432" y="-453.2" font-family="Helvetica,sans-Serif" font-size="14.00">peer&#45;types.ts</text>
</g>
<!-- src/peer/peer&#45;client.ts&#45;&gt;src/peer/peer&#45;types.ts -->
<g id="edge28" class="edge">
<title>src/peer/peer&#45;client.ts&#45;&gt;src/peer/peer&#45;types.ts</title>
<path fill="none" stroke="#528b8b" stroke-width="2" d="M281.45,-456.9C309.2,-456.9 344.65,-456.9 374.07,-456.9"/>
<polygon fill="#528b8b" stroke="#528b8b" stroke-width="2" points="374.2,-460.4 384.2,-456.9 374.2,-453.4 374.2,-460.4"/>
</g>
<!-- src/storage/compare.ts -->
<g id="node18" class="node">
<title>src/storage/compare.ts</title>
<path fill="#79cdcd" stroke="#79cdcd" d="M685.5,-641.9C685.5,-641.9 625.5,-641.9 625.5,-641.9 619.5,-641.9 613.5,-635.9 613.5,-629.9 613.5,-629.9 613.5,-617.9 613.5,-617.9 613.5,-611.9 619.5,-605.9 625.5,-605.9 625.5,-605.9 685.5,-605.9 685.5,-605.9 691.5,-605.9 697.5,-611.9 697.5,-617.9 697.5,-617.9 697.5,-629.9 697.5,-629.9 697.5,-635.9 691.5,-641.9 685.5,-641.9"/>
<text text-anchor="middle" x="655.5" y="-620.2" font-family="Helvetica,sans-Serif" font-size="14.00">compare.ts</text>
</g>
<!-- src/peer/peer&#45;client.ts&#45;&gt;src/storage/compare.ts -->
<g id="edge29" class="edge">
<title>src/peer/peer&#45;client.ts&#45;&gt;src/storage/compare.ts</title>
<path fill="none" stroke="#528b8b" stroke-width="2" d="M281.09,-471.38C295.97,-475.76 312.6,-480.34 328,-483.9 419.41,-505.01 451.35,-479.44 536,-519.9 575.05,-538.56 611.07,-573.85 632.91,-598.1"/>
<polygon fill="#528b8b" stroke="#528b8b" stroke-width="2" points="630.51,-600.68 639.75,-605.86 635.76,-596.05 630.51,-600.68"/>
</g>
<!-- src/storage/storage&#45;types.ts -->
<g id="node27" class="node">
<title>src/storage/storage&#45;types.ts</title>
<path fill="#79cdcd" stroke="#79cdcd" d="M700,-755.9C700,-755.9 611,-755.9 611,-755.9 605,-755.9 599,-749.9 599,-743.9 599,-743.9 599,-731.9 599,-731.9 599,-725.9 605,-719.9 611,-719.9 611,-719.9 700,-719.9 700,-719.9 706,-719.9 712,-725.9 712,-731.9 712,-731.9 712,-743.9 712,-743.9 712,-749.9 706,-755.9 700,-755.9"/>
<text text-anchor="middle" x="655.5" y="-734.2" font-family="Helvetica,sans-Serif" font-size="14.00">storage&#45;types.ts</text>
</g>
<!-- src/peer/peer&#45;client.ts&#45;&gt;src/storage/storage&#45;types.ts -->
<g id="edge27" class="edge">
<title>src/peer/peer&#45;client.ts&#45;&gt;src/storage/storage&#45;types.ts</title>
<path fill="none" stroke="#528b8b" stroke-width="2" d="M274.88,-475C280.68,-477.86 286.54,-480.88 292,-483.9 308.61,-493.09 310.1,-500.58 328,-506.9 371.85,-522.38 500.37,-500.02 536,-529.9 578.95,-565.91 543.48,-602.36 571.5,-650.9 585.17,-674.57 606.57,-696.79 624.22,-712.85"/>
<polygon fill="#528b8b" stroke="#528b8b" stroke-width="2" points="622.22,-715.75 632.02,-719.77 626.87,-710.52 622.22,-715.75"/>
</g>
<!-- src/peer/peer&#45;server.ts -->
<g id="node15" class="node">
<title>src/peer/peer&#45;server.ts</title>
<path fill="#79cdcd" stroke="#79cdcd" d="M272,-420.9C272,-420.9 196,-420.9 196,-420.9 190,-420.9 184,-414.9 184,-408.9 184,-408.9 184,-396.9 184,-396.9 184,-390.9 190,-384.9 196,-384.9 196,-384.9 272,-384.9 272,-384.9 278,-384.9 284,-390.9 284,-396.9 284,-396.9 284,-408.9 284,-408.9 284,-414.9 278,-420.9 272,-420.9"/>
<text text-anchor="middle" x="234" y="-399.2" font-family="Helvetica,sans-Serif" font-size="14.00">peer&#45;server.ts</text>
</g>
<!-- src/peer/peer&#45;server.ts&#45;&gt;src/crypto/crypto&#45;types.ts -->
<g id="edge31" class="edge">
<title>src/peer/peer&#45;server.ts&#45;&gt;src/crypto/crypto&#45;types.ts</title>
<path fill="none" stroke="#528b8b" stroke-width="2" d="M237.81,-384.69C247.48,-324.49 281.42,-133.51 328,-95.9 470.28,19 593.77,35.25 739,-75.9 787.63,-113.12 741.43,-157.68 775,-208.9 785.27,-224.57 800.63,-238.18 815.16,-248.77"/>
<polygon fill="#528b8b" stroke="#528b8b" stroke-width="2" points="813.37,-251.79 823.57,-254.65 817.38,-246.05 813.37,-251.79"/>
</g>
<!-- src/peer/peer&#45;server.ts&#45;&gt;src/peer/peer&#45;types.ts -->
<g id="edge32" class="edge">
<title>src/peer/peer&#45;server.ts&#45;&gt;src/peer/peer&#45;types.ts</title>
<path fill="none" stroke="#528b8b" stroke-width="2" d="M284.21,-416.46C311.7,-424.03 346.06,-433.5 374.63,-441.37"/>
<polygon fill="#528b8b" stroke="#528b8b" stroke-width="2" points="373.9,-444.8 384.47,-444.08 375.76,-438.05 373.9,-444.8"/>
</g>
<!-- src/peer/peer&#45;types.ts&#45;&gt;src/crypto/crypto&#45;types.ts -->
<g id="edge34" class="edge">
<title>src/peer/peer&#45;types.ts&#45;&gt;src/crypto/crypto&#45;types.ts</title>
<path fill="none" stroke="#528b8b" stroke-width="2" d="M479.67,-440.75C540.37,-419.25 649.25,-379.04 739,-336.9 765.17,-324.61 793.6,-308.97 815.77,-296.22"/>
<polygon fill="#528b8b" stroke="#528b8b" stroke-width="2" points="817.65,-299.17 824.55,-291.13 814.14,-293.11 817.65,-299.17"/>
</g>
<!-- src/peer/peer&#45;types.ts&#45;&gt;src/storage/storage&#45;types.ts -->
<g id="edge33" class="edge">
<title>src/peer/peer&#45;types.ts&#45;&gt;src/storage/storage&#45;types.ts</title>
<path fill="none" stroke="#528b8b" stroke-width="2" d="M477.85,-474.96C498.32,-485.3 521.23,-500.19 536,-519.9 572.18,-568.17 541.88,-598.35 571.5,-650.9 584.92,-674.71 606.33,-696.93 624.04,-712.95"/>
<polygon fill="#528b8b" stroke="#528b8b" stroke-width="2" points="622.06,-715.87 631.88,-719.86 626.69,-710.62 622.06,-715.87"/>
</g>
<!-- src/peer/peer.ts&#45;&gt;src/peer/peer&#45;types.ts -->
<g id="edge36" class="edge">
<title>src/peer/peer.ts&#45;&gt;src/peer/peer&#45;types.ts</title>
<path fill="none" stroke="#528b8b" stroke-width="2" d="M263.08,-503.16C292.01,-495.19 337.9,-482.55 374.4,-472.49"/>
<polygon fill="#528b8b" stroke="#528b8b" stroke-width="2" points="375.72,-475.76 384.43,-469.73 373.86,-469.01 375.72,-475.76"/>
</g>
<!-- src/peer/peer.ts&#45;&gt;src/storage/storage&#45;types.ts -->
<g id="edge35" class="edge">
<title>src/peer/peer.ts&#45;&gt;src/storage/storage&#45;types.ts</title>
<path fill="none" stroke="#528b8b" stroke-width="2" d="M263.36,-517.43C281.72,-521.48 306.18,-526.52 328,-529.9 373.93,-537 499.45,-523.18 536,-551.9 572.76,-580.78 546.94,-611.12 571.5,-650.9 585.95,-674.31 607.53,-696.68 625.06,-712.87"/>
<polygon fill="#528b8b" stroke="#528b8b" stroke-width="2" points="623.02,-715.75 632.79,-719.86 627.72,-710.56 623.02,-715.75"/>
</g>
<!-- src/storage/util&#45;types.ts -->
<g id="node28" class="node">
<title>src/storage/util&#45;types.ts</title>
<path fill="#79cdcd" stroke="#79cdcd" d="M886.5,-656.9C886.5,-656.9 825.5,-656.9 825.5,-656.9 819.5,-656.9 813.5,-650.9 813.5,-644.9 813.5,-644.9 813.5,-632.9 813.5,-632.9 813.5,-626.9 819.5,-620.9 825.5,-620.9 825.5,-620.9 886.5,-620.9 886.5,-620.9 892.5,-620.9 898.5,-626.9 898.5,-632.9 898.5,-632.9 898.5,-644.9 898.5,-644.9 898.5,-650.9 892.5,-656.9 886.5,-656.9"/>
<text text-anchor="middle" x="856" y="-635.2" font-family="Helvetica,sans-Serif" font-size="14.00">util&#45;types.ts</text>
</g>
<!-- src/storage/compare.ts&#45;&gt;src/storage/util&#45;types.ts -->
<g id="edge37" class="edge">
<title>src/storage/compare.ts&#45;&gt;src/storage/util&#45;types.ts</title>
<path fill="none" stroke="#528b8b" stroke-width="2" d="M697.63,-627.01C728.16,-629.31 770.03,-632.48 802.91,-634.96"/>
<polygon fill="#528b8b" stroke="#528b8b" stroke-width="2" points="803.01,-638.48 813.24,-635.74 803.53,-631.5 803.01,-638.48"/>
</g>
<!-- src/storage/lock.ts -->
<g id="node19" class="node">
<title>src/storage/lock.ts</title>
<path fill="#79cdcd" stroke="#79cdcd" d="M871.5,-726.9C871.5,-726.9 840.5,-726.9 840.5,-726.9 834.5,-726.9 828.5,-720.9 828.5,-714.9 828.5,-714.9 828.5,-702.9 828.5,-702.9 828.5,-696.9 834.5,-690.9 840.5,-690.9 840.5,-690.9 871.5,-690.9 871.5,-690.9 877.5,-690.9 883.5,-696.9 883.5,-702.9 883.5,-702.9 883.5,-714.9 883.5,-714.9 883.5,-720.9 877.5,-726.9 871.5,-726.9"/>
<text text-anchor="middle" x="856" y="-705.2" font-family="Helvetica,sans-Serif" font-size="14.00">lock.ts</text>
</g>
<!-- src/storage/query&#45;follower&#45;types.ts -->
<g id="node20" class="node">
<title>src/storage/query&#45;follower&#45;types.ts</title>
<path fill="#79cdcd" stroke="#79cdcd" d="M496,-715.9C496,-715.9 368,-715.9 368,-715.9 362,-715.9 356,-709.9 356,-703.9 356,-703.9 356,-691.9 356,-691.9 356,-685.9 362,-679.9 368,-679.9 368,-679.9 496,-679.9 496,-679.9 502,-679.9 508,-685.9 508,-691.9 508,-691.9 508,-703.9 508,-703.9 508,-709.9 502,-715.9 496,-715.9"/>
<text text-anchor="middle" x="432" y="-694.2" font-family="Helvetica,sans-Serif" font-size="14.00">query&#45;follower&#45;types.ts</text>
</g>
<!-- src/storage/query&#45;follower&#45;types.ts&#45;&gt;src/storage/storage&#45;types.ts -->
<g id="edge38" class="edge">
<title>src/storage/query&#45;follower&#45;types.ts&#45;&gt;src/storage/storage&#45;types.ts</title>
<path fill="none" stroke="#528b8b" stroke-width="2" d="M508.3,-711.5C534.43,-716.22 563.5,-721.47 588.8,-726.03"/>
<polygon fill="#528b8b" stroke="#528b8b" stroke-width="2" points="588.19,-729.48 598.65,-727.81 589.43,-722.59 588.19,-729.48"/>
</g>
<!-- src/storage/query&#45;follower.ts&#45;&gt;src/storage/query&#45;follower&#45;types.ts -->
<g id="edge43" class="edge">
<title>src/storage/query&#45;follower.ts&#45;&gt;src/storage/query&#45;follower&#45;types.ts</title>
<path fill="none" stroke="#528b8b" stroke-width="2" d="M292.22,-724.1C309,-720.93 327.72,-717.4 345.84,-713.97"/>
<polygon fill="#528b8b" stroke="#528b8b" stroke-width="2" points="346.66,-717.38 355.83,-712.09 345.36,-710.5 346.66,-717.38"/>
</g>
<!-- src/storage/query&#45;types.ts -->
<g id="node22" class="node">
<title>src/storage/query&#45;types.ts</title>
<path fill="#79cdcd" stroke="#79cdcd" d="M894.5,-822.9C894.5,-822.9 817.5,-822.9 817.5,-822.9 811.5,-822.9 805.5,-816.9 805.5,-810.9 805.5,-810.9 805.5,-798.9 805.5,-798.9 805.5,-792.9 811.5,-786.9 817.5,-786.9 817.5,-786.9 894.5,-786.9 894.5,-786.9 900.5,-786.9 906.5,-792.9 906.5,-798.9 906.5,-798.9 906.5,-810.9 906.5,-810.9 906.5,-816.9 900.5,-822.9 894.5,-822.9"/>
<text text-anchor="middle" x="856" y="-801.2" font-family="Helvetica,sans-Serif" font-size="14.00">query&#45;types.ts</text>
</g>
<!-- src/storage/query&#45;follower.ts&#45;&gt;src/storage/query&#45;types.ts -->
<g id="edge40" class="edge">
<title>src/storage/query&#45;follower.ts&#45;&gt;src/storage/query&#45;types.ts</title>
<path fill="none" stroke="#528b8b" stroke-width="2" d="M253.82,-752.94C271.42,-768.47 299.23,-789.78 328,-798.9 371.47,-812.68 666.81,-808.64 795.39,-806.17"/>
<polygon fill="#528b8b" stroke="#528b8b" stroke-width="2" points="795.53,-809.67 805.46,-805.98 795.39,-802.67 795.53,-809.67"/>
</g>
<!-- src/storage/query.ts -->
<g id="node23" class="node">
<title>src/storage/query.ts</title>
<path fill="#79cdcd" stroke="#79cdcd" d="M675.5,-869.9C675.5,-869.9 635.5,-869.9 635.5,-869.9 629.5,-869.9 623.5,-863.9 623.5,-857.9 623.5,-857.9 623.5,-845.9 623.5,-845.9 623.5,-839.9 629.5,-833.9 635.5,-833.9 635.5,-833.9 675.5,-833.9 675.5,-833.9 681.5,-833.9 687.5,-839.9 687.5,-845.9 687.5,-845.9 687.5,-857.9 687.5,-857.9 687.5,-863.9 681.5,-869.9 675.5,-869.9"/>
<text text-anchor="middle" x="655.5" y="-848.2" font-family="Helvetica,sans-Serif" font-size="14.00">query.ts</text>
</g>
<!-- src/storage/query&#45;follower.ts&#45;&gt;src/storage/query.ts -->
<g id="edge42" class="edge">
<title>src/storage/query&#45;follower.ts&#45;&gt;src/storage/query.ts</title>
<path fill="none" stroke="#528b8b" stroke-width="2" d="M250.36,-753.15C267.29,-771.87 296.33,-800.13 328,-813.9 423.68,-855.49 549.22,-857.06 613.17,-854.55"/>
<polygon fill="#528b8b" stroke="#528b8b" stroke-width="2" points="613.43,-858.05 623.26,-854.1 613.12,-851.05 613.43,-858.05"/>
</g>
<!-- src/storage/query&#45;follower.ts&#45;&gt;src/storage/storage&#45;types.ts -->
<g id="edge41" class="edge">
<title>src/storage/query&#45;follower.ts&#45;&gt;src/storage/storage&#45;types.ts</title>
<path fill="none" stroke="#528b8b" stroke-width="2" d="M292.01,-735.31C369.35,-735.86 507.2,-736.85 588.8,-737.43"/>
<polygon fill="#528b8b" stroke="#528b8b" stroke-width="2" points="588.92,-740.93 598.95,-737.5 588.97,-733.93 588.92,-740.93"/>
</g>
<!-- src/storage/query&#45;follower.ts&#45;&gt;src/storage/util&#45;types.ts -->
<g id="edge39" class="edge">
<title>src/storage/query&#45;follower.ts&#45;&gt;src/storage/util&#45;types.ts</title>
<path fill="none" stroke="#528b8b" stroke-width="2" d="M243.33,-716.65C256.81,-689.52 286.17,-639.35 328,-616.9 408.57,-573.65 648.93,-581.1 739,-596.9 761.76,-600.89 785.95,-608.98 806.31,-617.01"/>
<polygon fill="#528b8b" stroke="#528b8b" stroke-width="2" points="805.09,-620.29 815.68,-620.8 807.72,-613.8 805.09,-620.29"/>
</g>
<!-- src/storage/query.ts&#45;&gt;src/storage/query&#45;types.ts -->
<g id="edge44" class="edge">
<title>src/storage/query.ts&#45;&gt;src/storage/query&#45;types.ts</title>
<path fill="none" stroke="#528b8b" stroke-width="2" d="M687.52,-844.56C716.32,-837.74 759.99,-827.4 795.51,-818.99"/>
<polygon fill="#528b8b" stroke="#528b8b" stroke-width="2" points="796.37,-822.38 805.29,-816.67 794.76,-815.57 796.37,-822.38"/>
</g>
<!-- src/storage/storage&#45;async.ts&#45;&gt;src/format&#45;validators/format&#45;validator&#45;types.ts -->
<g id="edge48" class="edge">
<title>src/storage/storage&#45;async.ts&#45;&gt;src/format&#45;validators/format&#45;validator&#45;types.ts</title>
<path fill="none" stroke="#528b8b" stroke-width="2" d="M438.42,-790.09C452.29,-832.98 493.63,-939.98 571.5,-981.9 644.28,-1021.08 742.92,-997.57 802.6,-976.54"/>
<polygon fill="#528b8b" stroke="#528b8b" stroke-width="2" points="803.98,-979.76 812.19,-973.06 801.6,-973.18 803.98,-979.76"/>
</g>
<!-- src/storage/storage&#45;async.ts&#45;&gt;src/storage/compare.ts -->
<g id="edge49" class="edge">
<title>src/storage/storage&#45;async.ts&#45;&gt;src/storage/compare.ts</title>
<path fill="none" stroke="#528b8b" stroke-width="2" d="M479.8,-753.81C497.94,-745.98 518.51,-736.04 536,-724.9 570.83,-702.73 606.28,-671.06 629.21,-649.12"/>
<polygon fill="#528b8b" stroke="#528b8b" stroke-width="2" points="631.73,-651.55 636.49,-642.08 626.87,-646.52 631.73,-651.55"/>
</g>
<!-- src/storage/storage&#45;async.ts&#45;&gt;src/storage/query&#45;types.ts -->
<g id="edge46" class="edge">
<title>src/storage/storage&#45;async.ts&#45;&gt;src/storage/query&#45;types.ts</title>
<path fill="none" stroke="#528b8b" stroke-width="2" d="M490.35,-776.38C570.21,-782.63 714.19,-793.89 795.28,-800.23"/>
<polygon fill="#528b8b" stroke="#528b8b" stroke-width="2" points="795.09,-803.73 805.33,-801.02 795.64,-796.75 795.09,-803.73"/>
</g>
<!-- src/storage/storage&#45;async.ts&#45;&gt;src/storage/storage&#45;types.ts -->
<g id="edge47" class="edge">
<title>src/storage/storage&#45;async.ts&#45;&gt;src/storage/storage&#45;types.ts</title>
<path fill="none" stroke="#528b8b" stroke-width="2" d="M490.04,-763.14C520.23,-758.51 557.44,-752.8 588.83,-747.98"/>
<polygon fill="#528b8b" stroke="#528b8b" stroke-width="2" points="589.45,-751.43 598.8,-746.45 588.39,-744.51 589.45,-751.43"/>
</g>
<!-- src/storage/storage&#45;async.ts&#45;&gt;src/storage/util&#45;types.ts -->
<g id="edge45" class="edge">
<title>src/storage/storage&#45;async.ts&#45;&gt;src/storage/util&#45;types.ts</title>
<path fill="none" stroke="#528b8b" stroke-width="2" d="M490.24,-773.88C573.14,-776.25 718.97,-778.38 739,-764.9 772.36,-742.45 747.79,-711.5 775,-681.9 783.17,-673.01 793.61,-665.59 804.23,-659.56"/>
<polygon fill="#528b8b" stroke="#528b8b" stroke-width="2" points="805.96,-662.61 813.15,-654.82 802.67,-656.43 805.96,-662.61"/>
</g>
<!-- src/storage/storage&#45;cache.ts -->
<g id="node25" class="node">
<title>src/storage/storage&#45;cache.ts</title>
<path fill="#79cdcd" stroke="#79cdcd" d="M128,-866.9C128,-866.9 36,-866.9 36,-866.9 30,-866.9 24,-860.9 24,-854.9 24,-854.9 24,-842.9 24,-842.9 24,-836.9 30,-830.9 36,-830.9 36,-830.9 128,-830.9 128,-830.9 134,-830.9 140,-836.9 140,-842.9 140,-842.9 140,-854.9 140,-854.9 140,-860.9 134,-866.9 128,-866.9"/>
<text text-anchor="middle" x="82" y="-845.2" font-family="Helvetica,sans-Serif" font-size="14.00">storage&#45;cache.ts</text>
</g>
<!-- src/storage/storage&#45;cache.ts&#45;&gt;src/storage/query&#45;follower.ts -->
<g id="edge51" class="edge">
<title>src/storage/storage&#45;cache.ts&#45;&gt;src/storage/query&#45;follower.ts</title>
<path fill="none" stroke="#528b8b" stroke-width="2" d="M133.32,-830.85C135.62,-829.6 137.86,-828.28 140,-826.9 155.14,-817.1 187.29,-784.06 209.51,-760.38"/>
<polygon fill="#528b8b" stroke="#528b8b" stroke-width="2" points="212.08,-762.75 216.35,-753.06 206.96,-757.98 212.08,-762.75"/>
</g>
<!-- src/storage/storage&#45;cache.ts&#45;&gt;src/storage/query&#45;types.ts -->
<g id="edge52" class="edge">
<title>src/storage/storage&#45;cache.ts&#45;&gt;src/storage/query&#45;types.ts</title>
<path fill="none" stroke="#528b8b" stroke-width="2" d="M140.19,-863.7C255.98,-891.04 525.31,-941.25 739,-878.9 771.94,-869.29 804.44,-847.16 826.62,-829.59"/>
<polygon fill="#528b8b" stroke="#528b8b" stroke-width="2" points="829.03,-832.14 834.59,-823.12 824.62,-826.7 829.03,-832.14"/>
</g>
<!-- src/storage/storage&#45;cache.ts&#45;&gt;src/storage/query.ts -->
<g id="edge50" class="edge">
<title>src/storage/storage&#45;cache.ts&#45;&gt;src/storage/query.ts</title>
<path fill="none" stroke="#528b8b" stroke-width="2" d="M140.03,-852.45C151.91,-853.05 164.36,-853.59 176,-853.9 335.94,-858.2 376.01,-855.25 536,-853.9 561.69,-853.68 590.52,-853.2 613.3,-852.77"/>
<polygon fill="#528b8b" stroke="#528b8b" stroke-width="2" points="613.39,-856.26 623.31,-852.57 613.25,-849.27 613.39,-856.26"/>
</g>
<!-- src/storage/storage&#45;cache.ts&#45;&gt;src/storage/storage&#45;async.ts -->
<g id="edge53" class="edge">
<title>src/storage/storage&#45;cache.ts&#45;&gt;src/storage/storage&#45;async.ts</title>
<path fill="none" stroke="#528b8b" stroke-width="2" d="M140.08,-836.27C201.39,-822.7 298.76,-801.16 363.75,-786.78"/>
<polygon fill="#528b8b" stroke="#528b8b" stroke-width="2" points="364.89,-790.11 373.89,-784.53 363.37,-783.28 364.89,-790.11"/>
</g>
<!-- src/storage/storage&#45;cache.ts&#45;&gt;src/storage/storage&#45;types.ts -->
<g id="edge54" class="edge">
<title>src/storage/storage&#45;cache.ts&#45;&gt;src/storage/storage&#45;types.ts</title>
<path fill="none" stroke="#528b8b" stroke-width="2" d="M140.11,-849.2C227.33,-848.19 398.12,-840.44 536,-798.9 564.95,-790.18 595.21,-774.47 617.91,-761.18"/>
<polygon fill="#528b8b" stroke="#528b8b" stroke-width="2" points="619.74,-764.16 626.53,-756.03 616.15,-758.15 619.74,-764.16"/>
</g>
<!-- src/storage/storage&#45;driver&#45;async&#45;memory.ts&#45;&gt;src/storage/compare.ts -->
<g id="edge58" class="edge">
<title>src/storage/storage&#45;driver&#45;async&#45;memory.ts&#45;&gt;src/storage/compare.ts</title>
<path fill="none" stroke="#528b8b" stroke-width="2" d="M536.29,-634.57C559.53,-632.47 583.22,-630.34 603.22,-628.53"/>
<polygon fill="#528b8b" stroke="#528b8b" stroke-width="2" points="603.68,-632 613.32,-627.62 603.05,-625.03 603.68,-632"/>
</g>
<!-- src/storage/storage&#45;driver&#45;async&#45;memory.ts&#45;&gt;src/storage/lock.ts -->
<g id="edge60" class="edge">
<title>src/storage/storage&#45;driver&#45;async&#45;memory.ts&#45;&gt;src/storage/lock.ts</title>
<path fill="none" stroke="#528b8b" stroke-width="2" d="M536.23,-659.8C627.58,-673.87 755.75,-693.61 818.07,-703.21"/>
<polygon fill="#528b8b" stroke="#528b8b" stroke-width="2" points="817.79,-706.71 828.21,-704.77 818.86,-699.79 817.79,-706.71"/>
</g>
<!-- src/storage/storage&#45;driver&#45;async&#45;memory.ts&#45;&gt;src/storage/query&#45;types.ts -->
<g id="edge56" class="edge">
<title>src/storage/storage&#45;driver&#45;async&#45;memory.ts&#45;&gt;src/storage/query&#45;types.ts</title>
<path fill="none" stroke="#528b8b" stroke-width="2" d="M504.38,-661.92C515.01,-664.8 525.82,-667.85 536,-670.9 551.95,-675.68 555.35,-678.85 571.5,-682.9 644.71,-701.27 670.19,-679.89 739,-710.9 748.84,-715.33 795.01,-753.81 826.05,-780.14"/>
<polygon fill="#528b8b" stroke="#528b8b" stroke-width="2" points="824.08,-783.07 833.97,-786.88 828.62,-777.73 824.08,-783.07"/>
</g>
<!-- src/storage/storage&#45;driver&#45;async&#45;memory.ts&#45;&gt;src/storage/query.ts -->
<g id="edge59" class="edge">
<title>src/storage/storage&#45;driver&#45;async&#45;memory.ts&#45;&gt;src/storage/query.ts</title>
<path fill="none" stroke="#528b8b" stroke-width="2" d="M523.9,-662.04C528.22,-664.62 532.29,-667.56 536,-670.9 569.19,-700.78 547.72,-727.1 571.5,-764.9 586.15,-788.19 607.72,-810.56 625.2,-826.79"/>
<polygon fill="#528b8b" stroke="#528b8b" stroke-width="2" points="623.15,-829.65 632.9,-833.79 627.85,-824.47 623.15,-829.65"/>
</g>
<!-- src/storage/storage&#45;driver&#45;async&#45;memory.ts&#45;&gt;src/storage/storage&#45;types.ts -->
<g id="edge57" class="edge">
<title>src/storage/storage&#45;driver&#45;async&#45;memory.ts&#45;&gt;src/storage/storage&#45;types.ts</title>
<path fill="none" stroke="#528b8b" stroke-width="2" d="M517.12,-661.94C523.68,-664.55 530.06,-667.52 536,-670.9 555.26,-681.86 552.88,-693.88 571.5,-705.9 577.17,-709.56 583.32,-712.9 589.62,-715.92"/>
<polygon fill="#528b8b" stroke="#528b8b" stroke-width="2" points="588.37,-719.2 598.92,-720.13 591.25,-712.82 588.37,-719.2"/>
</g>
<!-- src/storage/storage&#45;driver&#45;async&#45;memory.ts&#45;&gt;src/storage/util&#45;types.ts -->
<g id="edge55" class="edge">
<title>src/storage/storage&#45;driver&#45;async&#45;memory.ts&#45;&gt;src/storage/util&#45;types.ts</title>
<path fill="none" stroke="#528b8b" stroke-width="2" d="M536.1,-650.07C595.47,-652.67 671.47,-654.38 739,-650.9 760.09,-649.81 783.26,-647.62 803.3,-645.4"/>
<polygon fill="#528b8b" stroke="#528b8b" stroke-width="2" points="803.93,-648.85 813.47,-644.24 803.14,-641.9 803.93,-648.85"/>
</g>
<!-- src/storage/storage&#45;types.ts&#45;&gt;src/format&#45;validators/format&#45;validator&#45;types.ts -->
<g id="edge62" class="edge">
<title>src/storage/storage&#45;types.ts&#45;&gt;src/format&#45;validators/format&#45;validator&#45;types.ts</title>
<path fill="none" stroke="#528b8b" stroke-width="2" d="M678.07,-755.97C696.43,-772.34 722.4,-797.96 739,-824.9 763.78,-865.12 741.82,-891.28 775,-924.9 777.15,-927.08 779.47,-929.1 781.92,-930.97"/>
<polygon fill="#528b8b" stroke="#528b8b" stroke-width="2" points="780.44,-934.19 790.71,-936.81 784.32,-928.36 780.44,-934.19"/>
</g>
<!-- src/storage/storage&#45;types.ts&#45;&gt;src/storage/lock.ts -->
<g id="edge63" class="edge">
<title>src/storage/storage&#45;types.ts&#45;&gt;src/storage/lock.ts</title>
<path fill="none" stroke="#528b8b" stroke-width="2" d="M712.06,-729.78C746.02,-724.82 788.5,-718.61 818.3,-714.26"/>
<polygon fill="#528b8b" stroke="#528b8b" stroke-width="2" points="818.88,-717.71 828.27,-712.8 817.87,-710.79 818.88,-717.71"/>
</g>
<!-- src/storage/storage&#45;types.ts&#45;&gt;src/storage/query&#45;types.ts -->
<g id="edge61" class="edge">
<title>src/storage/storage&#45;types.ts&#45;&gt;src/storage/query&#45;types.ts</title>
<path fill="none" stroke="#528b8b" stroke-width="2" d="M709.96,-755.94C736.34,-764.85 768.26,-775.62 795.43,-784.79"/>
<polygon fill="#528b8b" stroke="#528b8b" stroke-width="2" points="794.61,-788.21 805.2,-788.09 796.85,-781.58 794.61,-788.21"/>
</g>
</g>
</svg>
