<?xml version="1.0" encoding="UTF-8" standalone="no"?>
<!DOCTYPE svg PUBLIC "-//W3C//DTD SVG 1.1//EN"
 "http://www.w3.org/Graphics/SVG/1.1/DTD/svg11.dtd">
<!-- Generated by graphviz version 2.44.1 (20200629.0846)
 -->
<!-- Title: G Pages: 1 -->
<svg width="1181pt" height="909pt"
 viewBox="0.00 0.00 1181.00 909.00" xmlns="http://www.w3.org/2000/svg" xmlns:xlink="http://www.w3.org/1999/xlink">
<g id="graph0" class="graph" transform="scale(1 1) rotate(0) translate(4 905)">
<title>G</title>
<polygon fill="white" stroke="transparent" points="-4,4 -4,-905 1177,-905 1177,4 -4,4"/>
<g id="clust1" class="cluster">
<title>cluster4502094404</title>
<path fill="none" stroke="#8b7d6b" stroke-width="2" d="M20,-8C20,-8 1153,-8 1153,-8 1159,-8 1165,-14 1165,-20 1165,-20 1165,-881 1165,-881 1165,-887 1159,-893 1153,-893 1153,-893 20,-893 20,-893 14,-893 8,-887 8,-881 8,-881 8,-20 8,-20 8,-14 14,-8 20,-8"/>
<text text-anchor="start" x="576" y="-878.8" font-family="Helvetica,sans-Serif" font-weight="bold" font-size="14.00">src</text>
</g>
<g id="clust2" class="cluster">
<title>cluster1715079597</title>
<path fill="bisque" stroke="#8b7d6b" stroke-width="2" d="M905,-28C905,-28 1145,-28 1145,-28 1151,-28 1157,-34 1157,-40 1157,-40 1157,-145 1157,-145 1157,-151 1151,-157 1145,-157 1145,-157 905,-157 905,-157 899,-157 893,-151 893,-145 893,-145 893,-40 893,-40 893,-34 899,-28 905,-28"/>
<text text-anchor="start" x="976.5" y="-142.8" font-family="Helvetica,sans-Serif" font-weight="bold" font-size="14.00">core&#45;validators</text>
</g>
<g id="clust3" class="cluster">
<title>cluster2209333628</title>
<path fill="bisque" stroke="#8b7d6b" stroke-width="2" d="M504,-165C504,-165 1015,-165 1015,-165 1021,-165 1027,-171 1027,-177 1027,-177 1027,-356 1027,-356 1027,-362 1021,-368 1015,-368 1015,-368 504,-368 504,-368 498,-368 492,-362 492,-356 492,-356 492,-177 492,-177 492,-171 498,-165 504,-165"/>
<text text-anchor="start" x="738.5" y="-353.8" font-family="Helvetica,sans-Serif" font-weight="bold" font-size="14.00">crypto</text>
</g>
<g id="clust4" class="cluster">
<title>cluster8623678458</title>
<path fill="bisque" stroke="#8b7d6b" stroke-width="2" d="M288,-82C288,-82 432,-82 432,-82 438,-82 444,-88 444,-94 444,-94 444,-145 444,-145 444,-151 438,-157 432,-157 432,-157 288,-157 288,-157 282,-157 276,-151 276,-145 276,-145 276,-94 276,-94 276,-88 282,-82 288,-82"/>
<text text-anchor="start" x="304" y="-142.8" font-family="Helvetica,sans-Serif" font-weight="bold" font-size="14.00">format&#45;validators</text>
</g>
<g id="clust5" class="cluster">
<title>cluster4594799959</title>
<path fill="bisque" stroke="#8b7d6b" stroke-width="2" d="M87,-787C87,-787 400.5,-787 400.5,-787 406.5,-787 412.5,-793 412.5,-799 412.5,-799 412.5,-850 412.5,-850 412.5,-856 406.5,-862 400.5,-862 400.5,-862 87,-862 87,-862 81,-862 75,-856 75,-850 75,-850 75,-799 75,-799 75,-793 81,-787 87,-787"/>
<text text-anchor="start" x="227.25" y="-847.8" font-family="Helvetica,sans-Serif" font-weight="bold" font-size="14.00">node</text>
</g>
<g id="clust6" class="cluster">
<title>cluster1250985308</title>
<path fill="bisque" stroke="#8b7d6b" stroke-width="2" d="M314,-181C314,-181 406,-181 406,-181 412,-181 418,-187 418,-193 418,-193 418,-352 418,-352 418,-358 412,-364 406,-364 406,-364 314,-364 314,-364 308,-364 302,-358 302,-352 302,-352 302,-193 302,-193 302,-187 308,-181 314,-181"/>
<text text-anchor="start" x="345.5" y="-349.8" font-family="Helvetica,sans-Serif" font-weight="bold" font-size="14.00">peer</text>
</g>
<g id="clust7" class="cluster">
<title>cluster5237210782</title>
<path fill="bisque" stroke="#8b7d6b" stroke-width="2" d="M306,-567C306,-567 414,-567 414,-567 420,-567 426,-573 426,-579 426,-579 426,-630 426,-630 426,-636 420,-642 414,-642 414,-642 306,-642 306,-642 300,-642 294,-636 294,-630 294,-630 294,-579 294,-579 294,-573 300,-567 306,-567"/>
<text text-anchor="start" x="313" y="-627.8" font-family="Helvetica,sans-Serif" font-weight="bold" font-size="14.00">query&#45;follower</text>
</g>
<g id="clust8" class="cluster">
<title>cluster8569878923</title>
<path fill="bisque" stroke="#8b7d6b" stroke-width="2" d="M551,-567C551,-567 607,-567 607,-567 613,-567 619,-573 619,-579 619,-579 619,-630 619,-630 619,-636 613,-642 607,-642 607,-642 551,-642 551,-642 545,-642 539,-636 539,-630 539,-630 539,-579 539,-579 539,-573 545,-567 551,-567"/>
<text text-anchor="start" x="560.5" y="-627.8" font-family="Helvetica,sans-Serif" font-weight="bold" font-size="14.00">query</text>
</g>
<g id="clust9" class="cluster">
<title>cluster2163770692</title>
<path fill="bisque" stroke="#8b7d6b" stroke-width="2" d="M28,-376C28,-376 617,-376 617,-376 623,-376 629,-382 629,-388 629,-388 629,-547 629,-547 629,-553 623,-559 617,-559 617,-559 28,-559 28,-559 22,-559 16,-553 16,-547 16,-547 16,-388 16,-388 16,-382 22,-376 28,-376"/>
<text text-anchor="start" x="298" y="-544.8" font-family="Helvetica,sans-Serif" font-weight="bold" font-size="14.00">storage</text>
</g>
<g id="clust10" class="cluster">
<title>cluster1071581800</title>
<path fill="bisque" stroke="#8b7d6b" stroke-width="2" d="M80,-650C80,-650 164,-650 164,-650 170,-650 176,-656 176,-662 176,-662 176,-767 176,-767 176,-773 170,-779 164,-779 164,-779 80,-779 80,-779 74,-779 68,-773 68,-767 68,-767 68,-662 68,-662 68,-656 74,-650 80,-650"/>
<text text-anchor="start" x="91.5" y="-764.8" font-family="Helvetica,sans-Serif" font-weight="bold" font-size="14.00">superbus</text>
</g>
<g id="clust11" class="cluster">
<title>cluster5118522266</title>
<path fill="bisque" stroke="#8b7d6b" stroke-width="2" d="M65.5,-567C65.5,-567 178.5,-567 178.5,-567 184.5,-567 190.5,-573 190.5,-579 190.5,-579 190.5,-630 190.5,-630 190.5,-636 184.5,-642 178.5,-642 178.5,-642 65.5,-642 65.5,-642 59.5,-642 53.5,-636 53.5,-630 53.5,-630 53.5,-579 53.5,-579 53.5,-573 59.5,-567 65.5,-567"/>
<text text-anchor="start" x="73.5" y="-627.8" font-family="Helvetica,sans-Serif" font-weight="bold" font-size="14.00">superbus_map</text>
</g>
<!-- src/example&#45;app.ts -->
<g id="node1" class="node">
<title>src/example&#45;app.ts</title>
<path fill="#79cdcd" stroke="#79cdcd" d="M165,-295C165,-295 79,-295 79,-295 73,-295 67,-289 67,-283 67,-283 67,-271 67,-271 67,-265 73,-259 79,-259 79,-259 165,-259 165,-259 171,-259 177,-265 177,-271 177,-271 177,-283 177,-283 177,-289 171,-295 165,-295"/>
<text text-anchor="middle" x="122" y="-273.3" font-family="Helvetica,sans-Serif" font-size="14.00">example&#45;app.ts</text>
</g>
<!-- src/crypto/crypto.ts -->
<g id="node9" class="node">
<title>src/crypto/crypto.ts</title>
<path fill="#79cdcd" stroke="#79cdcd" d="M601,-227C601,-227 557,-227 557,-227 551,-227 545,-221 545,-215 545,-215 545,-203 545,-203 545,-197 551,-191 557,-191 557,-191 601,-191 601,-191 607,-191 613,-197 613,-203 613,-203 613,-215 613,-215 613,-221 607,-227 601,-227"/>
<text text-anchor="middle" x="579" y="-205.3" font-family="Helvetica,sans-Serif" font-size="14.00">crypto.ts</text>
</g>
<!-- src/example&#45;app.ts&#45;&gt;src/crypto/crypto.ts -->
<g id="edge14" class="edge">
<title>src/example&#45;app.ts&#45;&gt;src/crypto/crypto.ts</title>
<path fill="none" stroke="#528b8b" stroke-width="2" d="M139.32,-258.94C162.49,-234.8 207.5,-193.2 256,-177 351.85,-144.99 471.98,-173.76 534.94,-193.7"/>
<polygon fill="#528b8b" stroke="#528b8b" stroke-width="2" points="533.95,-197.06 544.55,-196.82 536.11,-190.4 533.95,-197.06"/>
</g>
<!-- src/format&#45;validators/format&#45;validator&#45;es4.ts -->
<g id="node12" class="node">
<title>src/format&#45;validators/format&#45;validator&#45;es4.ts</title>
<path fill="#79cdcd" stroke="#79cdcd" d="M424,-126C424,-126 296,-126 296,-126 290,-126 284,-120 284,-114 284,-114 284,-102 284,-102 284,-96 290,-90 296,-90 296,-90 424,-90 424,-90 430,-90 436,-96 436,-102 436,-102 436,-114 436,-114 436,-120 430,-126 424,-126"/>
<text text-anchor="middle" x="360" y="-104.3" font-family="Helvetica,sans-Serif" font-size="14.00">format&#45;validator&#45;es4.ts</text>
</g>
<!-- src/example&#45;app.ts&#45;&gt;src/format&#45;validators/format&#45;validator&#45;es4.ts -->
<g id="edge11" class="edge">
<title>src/example&#45;app.ts&#45;&gt;src/format&#45;validators/format&#45;validator&#45;es4.ts</title>
<path fill="none" stroke="#528b8b" stroke-width="2" d="M133.98,-258.74C154.01,-227.13 199.65,-162.48 256,-130 261.75,-126.69 267.93,-123.87 274.32,-121.48"/>
<polygon fill="#528b8b" stroke="#528b8b" stroke-width="2" points="275.45,-124.79 283.79,-118.27 273.2,-118.16 275.45,-124.79"/>
</g>
<!-- src/peer/peer.ts -->
<g id="node17" class="node">
<title>src/peer/peer.ts</title>
<path fill="#79cdcd" stroke="#79cdcd" d="M377,-225C377,-225 343,-225 343,-225 337,-225 331,-219 331,-213 331,-213 331,-201 331,-201 331,-195 337,-189 343,-189 343,-189 377,-189 377,-189 383,-189 389,-195 389,-201 389,-201 389,-213 389,-213 389,-219 383,-225 377,-225"/>
<text text-anchor="middle" x="360" y="-203.3" font-family="Helvetica,sans-Serif" font-size="14.00">peer.ts</text>
</g>
<!-- src/example&#45;app.ts&#45;&gt;src/peer/peer.ts -->
<g id="edge16" class="edge">
<title>src/example&#45;app.ts&#45;&gt;src/peer/peer.ts</title>
<path fill="none" stroke="#528b8b" stroke-width="2" d="M176.5,-258.94C200.68,-250.98 229.68,-241.7 256,-234 277.45,-227.73 301.62,-221.35 321.15,-216.38"/>
<polygon fill="#528b8b" stroke="#528b8b" stroke-width="2" points="322.07,-219.76 330.9,-213.91 320.35,-212.97 322.07,-219.76"/>
</g>
<!-- src/query&#45;follower/query&#45;follower.ts -->
<g id="node18" class="node">
<title>src/query&#45;follower/query&#45;follower.ts</title>
<path fill="#79cdcd" stroke="#79cdcd" d="M406,-611C406,-611 314,-611 314,-611 308,-611 302,-605 302,-599 302,-599 302,-587 302,-587 302,-581 308,-575 314,-575 314,-575 406,-575 406,-575 412,-575 418,-581 418,-587 418,-587 418,-599 418,-599 418,-605 412,-611 406,-611"/>
<text text-anchor="middle" x="360" y="-589.3" font-family="Helvetica,sans-Serif" font-size="14.00">query&#45;follower.ts</text>
</g>
<!-- src/example&#45;app.ts&#45;&gt;src/query&#45;follower/query&#45;follower.ts -->
<g id="edge15" class="edge">
<title>src/example&#45;app.ts&#45;&gt;src/query&#45;follower/query&#45;follower.ts</title>
<path fill="none" stroke="#528b8b" stroke-width="2" d="M149.21,-295.32C171.67,-312.48 202.99,-340.2 220,-372 260.73,-448.18 197.95,-499.02 256,-563 265.52,-573.49 278.47,-580.39 291.97,-584.92"/>
<polygon fill="#528b8b" stroke="#528b8b" stroke-width="2" points="291.28,-588.36 301.86,-587.81 293.25,-581.64 291.28,-588.36"/>
</g>
<!-- src/storage/storage&#45;async.ts -->
<g id="node21" class="node">
<title>src/storage/storage&#45;async.ts</title>
<path fill="#79cdcd" stroke="#79cdcd" d="M406,-428C406,-428 314,-428 314,-428 308,-428 302,-422 302,-416 302,-416 302,-404 302,-404 302,-398 308,-392 314,-392 314,-392 406,-392 406,-392 412,-392 418,-398 418,-404 418,-404 418,-416 418,-416 418,-422 412,-428 406,-428"/>
<text text-anchor="middle" x="360" y="-406.3" font-family="Helvetica,sans-Serif" font-size="14.00">storage&#45;async.ts</text>
</g>
<!-- src/example&#45;app.ts&#45;&gt;src/storage/storage&#45;async.ts -->
<g id="edge13" class="edge">
<title>src/example&#45;app.ts&#45;&gt;src/storage/storage&#45;async.ts</title>
<path fill="none" stroke="#528b8b" stroke-width="2" d="M146.06,-295.03C171.85,-314.65 215.35,-346.13 256,-368 269.67,-375.36 284.91,-382.23 299.39,-388.21"/>
<polygon fill="#528b8b" stroke="#528b8b" stroke-width="2" points="298.19,-391.5 308.77,-392 300.81,-385.01 298.19,-391.5"/>
</g>
<!-- src/storage/storage&#45;driver&#45;async&#45;memory.ts -->
<g id="node23" class="node">
<title>src/storage/storage&#45;driver&#45;async&#45;memory.ts</title>
<path fill="#79cdcd" stroke="#79cdcd" d="M452,-482C452,-482 268,-482 268,-482 262,-482 256,-476 256,-470 256,-470 256,-458 256,-458 256,-452 262,-446 268,-446 268,-446 452,-446 452,-446 458,-446 464,-452 464,-458 464,-458 464,-470 464,-470 464,-476 458,-482 452,-482"/>
<text text-anchor="middle" x="360" y="-460.3" font-family="Helvetica,sans-Serif" font-size="14.00">storage&#45;driver&#45;async&#45;memory.ts</text>
</g>
<!-- src/example&#45;app.ts&#45;&gt;src/storage/storage&#45;driver&#45;async&#45;memory.ts -->
<g id="edge12" class="edge">
<title>src/example&#45;app.ts&#45;&gt;src/storage/storage&#45;driver&#45;async&#45;memory.ts</title>
<path fill="none" stroke="#528b8b" stroke-width="2" d="M144.84,-295.08C165.78,-313.13 197.44,-342.37 220,-372 240.01,-398.27 229.93,-416.73 256,-437 257.64,-438.28 259.34,-439.49 261.08,-440.65"/>
<polygon fill="#528b8b" stroke="#528b8b" stroke-width="2" points="259.76,-443.93 270.15,-445.98 263.3,-437.9 259.76,-443.93"/>
</g>
<!-- src/core&#45;validators/addresses.ts -->
<g id="node2" class="node">
<title>src/core&#45;validators/addresses.ts</title>
<path fill="#79cdcd" stroke="#79cdcd" d="M982,-126C982,-126 913,-126 913,-126 907,-126 901,-120 901,-114 901,-114 901,-102 901,-102 901,-96 907,-90 913,-90 913,-90 982,-90 982,-90 988,-90 994,-96 994,-102 994,-102 994,-114 994,-114 994,-120 988,-126 982,-126"/>
<text text-anchor="middle" x="947.5" y="-104.3" font-family="Helvetica,sans-Serif" font-size="14.00">addresses.ts</text>
</g>
<!-- src/core&#45;validators/characters.ts -->
<g id="node3" class="node">
<title>src/core&#45;validators/characters.ts</title>
<path fill="#79cdcd" stroke="#79cdcd" d="M1137,-72C1137,-72 1067,-72 1067,-72 1061,-72 1055,-66 1055,-60 1055,-60 1055,-48 1055,-48 1055,-42 1061,-36 1067,-36 1067,-36 1137,-36 1137,-36 1143,-36 1149,-42 1149,-48 1149,-48 1149,-60 1149,-60 1149,-66 1143,-72 1137,-72"/>
<text text-anchor="middle" x="1102" y="-50.3" font-family="Helvetica,sans-Serif" font-size="14.00">characters.ts</text>
</g>
<!-- src/core&#45;validators/addresses.ts&#45;&gt;src/core&#45;validators/characters.ts -->
<g id="edge1" class="edge">
<title>src/core&#45;validators/addresses.ts&#45;&gt;src/core&#45;validators/characters.ts</title>
<path fill="none" stroke="#528b8b" stroke-width="2" d="M994.21,-92.44C1004.98,-88.73 1016.4,-84.75 1027,-81 1032.92,-78.9 1039.1,-76.69 1045.25,-74.47"/>
<polygon fill="#528b8b" stroke="#528b8b" stroke-width="2" points="1046.65,-77.68 1054.86,-70.98 1044.27,-71.1 1046.65,-77.68"/>
</g>
<!-- src/core&#45;validators/checkers.ts -->
<g id="node4" class="node">
<title>src/core&#45;validators/checkers.ts</title>
<path fill="#79cdcd" stroke="#79cdcd" d="M978,-72C978,-72 917,-72 917,-72 911,-72 905,-66 905,-60 905,-60 905,-48 905,-48 905,-42 911,-36 917,-36 917,-36 978,-36 978,-36 984,-36 990,-42 990,-48 990,-48 990,-60 990,-60 990,-66 984,-72 978,-72"/>
<text text-anchor="middle" x="947.5" y="-50.3" font-family="Helvetica,sans-Serif" font-size="14.00">checkers.ts</text>
</g>
<!-- src/core&#45;validators/checkers.ts&#45;&gt;src/core&#45;validators/characters.ts -->
<g id="edge2" class="edge">
<title>src/core&#45;validators/checkers.ts&#45;&gt;src/core&#45;validators/characters.ts</title>
<path fill="none" stroke="#528b8b" stroke-width="2" d="M990.17,-54C1006.98,-54 1026.64,-54 1044.7,-54"/>
<polygon fill="#528b8b" stroke="#528b8b" stroke-width="2" points="1044.82,-57.5 1054.82,-54 1044.82,-50.5 1044.82,-57.5"/>
</g>
<!-- src/crypto/base32.ts -->
<g id="node5" class="node">
<title>src/crypto/base32.ts</title>
<path fill="#79cdcd" stroke="#79cdcd" d="M973,-246C973,-246 922,-246 922,-246 916,-246 910,-240 910,-234 910,-234 910,-222 910,-222 910,-216 916,-210 922,-210 922,-210 973,-210 973,-210 979,-210 985,-216 985,-222 985,-222 985,-234 985,-234 985,-240 979,-246 973,-246"/>
<text text-anchor="middle" x="947.5" y="-224.3" font-family="Helvetica,sans-Serif" font-size="14.00">base32.ts</text>
</g>
<!-- src/crypto/crypto&#45;driver&#45;chloride.ts -->
<g id="node6" class="node">
<title>src/crypto/crypto&#45;driver&#45;chloride.ts</title>
<path fill="#79cdcd" stroke="#79cdcd" d="M646,-318C646,-318 512,-318 512,-318 506,-318 500,-312 500,-306 500,-306 500,-294 500,-294 500,-288 506,-282 512,-282 512,-282 646,-282 646,-282 652,-282 658,-288 658,-294 658,-294 658,-306 658,-306 658,-312 652,-318 646,-318"/>
<text text-anchor="middle" x="579" y="-296.3" font-family="Helvetica,sans-Serif" font-size="14.00">crypto&#45;driver&#45;chloride.ts</text>
</g>
<!-- src/crypto/crypto&#45;driver&#45;fake.ts -->
<g id="node7" class="node">
<title>src/crypto/crypto&#45;driver&#45;fake.ts</title>
<path fill="#79cdcd" stroke="#79cdcd" d="M823,-283C823,-283 711,-283 711,-283 705,-283 699,-277 699,-271 699,-271 699,-259 699,-259 699,-253 705,-247 711,-247 711,-247 823,-247 823,-247 829,-247 835,-253 835,-259 835,-259 835,-271 835,-271 835,-277 829,-283 823,-283"/>
<text text-anchor="middle" x="767" y="-261.3" font-family="Helvetica,sans-Serif" font-size="14.00">crypto&#45;driver&#45;fake.ts</text>
</g>
<!-- src/crypto/crypto&#45;driver&#45;fake.ts&#45;&gt;src/crypto/base32.ts -->
<g id="edge3" class="edge">
<title>src/crypto/crypto&#45;driver&#45;fake.ts&#45;&gt;src/crypto/base32.ts</title>
<path fill="none" stroke="#528b8b" stroke-width="2" d="M835.23,-251.06C856.77,-246.6 880.14,-241.75 899.88,-237.66"/>
<polygon fill="#528b8b" stroke="#528b8b" stroke-width="2" points="900.76,-241.06 909.84,-235.6 899.34,-234.2 900.76,-241.06"/>
</g>
<!-- src/crypto/crypto&#45;driver&#45;noble.ts -->
<g id="node8" class="node">
<title>src/crypto/crypto&#45;driver&#45;noble.ts</title>
<path fill="#79cdcd" stroke="#79cdcd" d="M1007,-337C1007,-337 888,-337 888,-337 882,-337 876,-331 876,-325 876,-325 876,-313 876,-313 876,-307 882,-301 888,-301 888,-301 1007,-301 1007,-301 1013,-301 1019,-307 1019,-313 1019,-313 1019,-325 1019,-325 1019,-331 1013,-337 1007,-337"/>
<text text-anchor="middle" x="947.5" y="-315.3" font-family="Helvetica,sans-Serif" font-size="14.00">crypto&#45;driver&#45;noble.ts</text>
</g>
<!-- src/crypto/crypto.ts&#45;&gt;src/core&#45;validators/addresses.ts -->
<g id="edge6" class="edge">
<title>src/crypto/crypto.ts&#45;&gt;src/core&#45;validators/addresses.ts</title>
<path fill="none" stroke="#528b8b" stroke-width="2" d="M613.42,-194.19C635.89,-184.64 666.33,-172.47 694,-164 760.62,-143.6 839.23,-127.36 890.84,-117.73"/>
<polygon fill="#528b8b" stroke="#528b8b" stroke-width="2" points="891.59,-121.15 900.78,-115.89 890.31,-114.27 891.59,-121.15"/>
</g>
<!-- src/crypto/crypto.ts&#45;&gt;src/crypto/base32.ts -->
<g id="edge4" class="edge">
<title>src/crypto/crypto.ts&#45;&gt;src/crypto/base32.ts</title>
<path fill="none" stroke="#528b8b" stroke-width="2" d="M613.4,-211.98C636.11,-213.93 666.85,-216.39 694,-218 765.7,-222.25 848.96,-225.15 899.68,-226.69"/>
<polygon fill="#528b8b" stroke="#528b8b" stroke-width="2" points="899.58,-230.19 909.68,-226.99 899.79,-223.2 899.58,-230.19"/>
</g>
<!-- src/crypto/global&#45;crypto&#45;driver.ts -->
<g id="node10" class="node">
<title>src/crypto/global&#45;crypto&#45;driver.ts</title>
<path fill="#79cdcd" stroke="#79cdcd" d="M828,-337C828,-337 706,-337 706,-337 700,-337 694,-331 694,-325 694,-325 694,-313 694,-313 694,-307 700,-301 706,-301 706,-301 828,-301 828,-301 834,-301 840,-307 840,-313 840,-313 840,-325 840,-325 840,-331 834,-337 828,-337"/>
<text text-anchor="middle" x="767" y="-315.3" font-family="Helvetica,sans-Serif" font-size="14.00">global&#45;crypto&#45;driver.ts</text>
</g>
<!-- src/crypto/crypto.ts&#45;&gt;src/crypto/global&#45;crypto&#45;driver.ts -->
<g id="edge7" class="edge">
<title>src/crypto/crypto.ts&#45;&gt;src/crypto/global&#45;crypto&#45;driver.ts</title>
<path fill="none" stroke="#528b8b" stroke-width="2" d="M601.11,-227.09C623.15,-245.3 659.3,-273.31 694,-292 697.09,-293.66 700.31,-295.27 703.59,-296.82"/>
<polygon fill="#528b8b" stroke="#528b8b" stroke-width="2" points="702.41,-300.12 712.97,-301 705.26,-293.73 702.41,-300.12"/>
</g>
<!-- src/crypto/keypair.ts -->
<g id="node11" class="node">
<title>src/crypto/keypair.ts</title>
<path fill="#79cdcd" stroke="#79cdcd" d="M792,-209C792,-209 742,-209 742,-209 736,-209 730,-203 730,-197 730,-197 730,-185 730,-185 730,-179 736,-173 742,-173 742,-173 792,-173 792,-173 798,-173 804,-179 804,-185 804,-185 804,-197 804,-197 804,-203 798,-209 792,-209"/>
<text text-anchor="middle" x="767" y="-187.3" font-family="Helvetica,sans-Serif" font-size="14.00">keypair.ts</text>
</g>
<!-- src/crypto/crypto.ts&#45;&gt;src/crypto/keypair.ts -->
<g id="edge5" class="edge">
<title>src/crypto/crypto.ts&#45;&gt;src/crypto/keypair.ts</title>
<path fill="none" stroke="#528b8b" stroke-width="2" d="M613.25,-205.78C642.86,-202.92 686.48,-198.7 719.53,-195.5"/>
<polygon fill="#528b8b" stroke="#528b8b" stroke-width="2" points="720.24,-198.94 729.86,-194.5 719.57,-191.98 720.24,-198.94"/>
</g>
<!-- src/crypto/global&#45;crypto&#45;driver.ts&#45;&gt;src/crypto/crypto&#45;driver&#45;noble.ts -->
<g id="edge8" class="edge">
<title>src/crypto/global&#45;crypto&#45;driver.ts&#45;&gt;src/crypto/crypto&#45;driver&#45;noble.ts</title>
<path fill="none" stroke="#528b8b" stroke-width="2" d="M840.09,-319C848.57,-319 857.27,-319 865.86,-319"/>
<polygon fill="#528b8b" stroke="#528b8b" stroke-width="2" points="865.88,-322.5 875.88,-319 865.88,-315.5 865.88,-322.5"/>
</g>
<!-- src/crypto/keypair.ts&#45;&gt;src/core&#45;validators/addresses.ts -->
<g id="edge10" class="edge">
<title>src/crypto/keypair.ts&#45;&gt;src/core&#45;validators/addresses.ts</title>
<path fill="none" stroke="#528b8b" stroke-width="2" d="M804.12,-174.2C831.24,-161.59 868.64,-144.2 898.31,-130.41"/>
<polygon fill="#528b8b" stroke="#528b8b" stroke-width="2" points="900.06,-133.46 907.65,-126.07 897.1,-127.11 900.06,-133.46"/>
</g>
<!-- src/crypto/keypair.ts&#45;&gt;src/crypto/base32.ts -->
<g id="edge9" class="edge">
<title>src/crypto/keypair.ts&#45;&gt;src/crypto/base32.ts</title>
<path fill="none" stroke="#528b8b" stroke-width="2" d="M804.12,-198.49C831.76,-204.22 870.09,-212.16 900.02,-218.37"/>
<polygon fill="#528b8b" stroke="#528b8b" stroke-width="2" points="899.32,-221.79 909.82,-220.4 900.74,-214.94 899.32,-221.79"/>
</g>
<!-- src/format&#45;validators/format&#45;validator&#45;es4.ts&#45;&gt;src/core&#45;validators/addresses.ts -->
<g id="edge20" class="edge">
<title>src/format&#45;validators/format&#45;validator&#45;es4.ts&#45;&gt;src/core&#45;validators/addresses.ts</title>
<path fill="none" stroke="#528b8b" stroke-width="2" d="M436.05,-108C555.2,-108 784.97,-108 890.73,-108"/>
<polygon fill="#528b8b" stroke="#528b8b" stroke-width="2" points="890.87,-111.5 900.87,-108 890.87,-104.5 890.87,-111.5"/>
</g>
<!-- src/format&#45;validators/format&#45;validator&#45;es4.ts&#45;&gt;src/core&#45;validators/characters.ts -->
<g id="edge18" class="edge">
<title>src/format&#45;validators/format&#45;validator&#45;es4.ts&#45;&gt;src/core&#45;validators/characters.ts</title>
<path fill="none" stroke="#528b8b" stroke-width="2" d="M431.43,-89.93C450.96,-85.3 472.23,-80.62 492,-77 661.3,-46.03 704.25,-38.13 876,-27 942.97,-22.66 960.91,-15.32 1027,-27 1034.49,-28.32 1042.22,-30.35 1049.73,-32.7"/>
<polygon fill="#528b8b" stroke="#528b8b" stroke-width="2" points="1048.85,-36.1 1059.44,-35.96 1051.07,-29.46 1048.85,-36.1"/>
</g>
<!-- src/format&#45;validators/format&#45;validator&#45;es4.ts&#45;&gt;src/core&#45;validators/checkers.ts -->
<g id="edge19" class="edge">
<title>src/format&#45;validators/format&#45;validator&#45;es4.ts&#45;&gt;src/core&#45;validators/checkers.ts</title>
<path fill="none" stroke="#528b8b" stroke-width="2" d="M436.05,-101.08C556.72,-89.95 790.85,-68.36 894.72,-58.78"/>
<polygon fill="#528b8b" stroke="#528b8b" stroke-width="2" points="895.31,-62.24 904.95,-57.83 894.67,-55.27 895.31,-62.24"/>
</g>
<!-- src/format&#45;validators/format&#45;validator&#45;es4.ts&#45;&gt;src/crypto/crypto.ts -->
<g id="edge17" class="edge">
<title>src/format&#45;validators/format&#45;validator&#45;es4.ts&#45;&gt;src/crypto/crypto.ts</title>
<path fill="none" stroke="#528b8b" stroke-width="2" d="M436.08,-120.38C445.66,-123.02 455.19,-126.19 464,-130 495.55,-143.65 527.37,-166.64 549.34,-184.31"/>
<polygon fill="#528b8b" stroke="#528b8b" stroke-width="2" points="547.3,-187.17 557.25,-190.79 551.73,-181.75 547.3,-187.17"/>
</g>
<!-- src/node/chloride.d.ts -->
<g id="node13" class="node">
<title>src/node/chloride.d.ts</title>
<path fill="#79cdcd" stroke="#79cdcd" d="M392.5,-831C392.5,-831 327.5,-831 327.5,-831 321.5,-831 315.5,-825 315.5,-819 315.5,-819 315.5,-807 315.5,-807 315.5,-801 321.5,-795 327.5,-795 327.5,-795 392.5,-795 392.5,-795 398.5,-795 404.5,-801 404.5,-807 404.5,-807 404.5,-819 404.5,-819 404.5,-825 398.5,-831 392.5,-831"/>
<text text-anchor="middle" x="360" y="-809.3" font-family="Helvetica,sans-Serif" font-size="14.00">chloride.d.ts</text>
</g>
<!-- src/node/chloride.ts -->
<g id="node14" class="node">
<title>src/node/chloride.ts</title>
<path fill="#79cdcd" stroke="#79cdcd" d="M149,-831C149,-831 95,-831 95,-831 89,-831 83,-825 83,-819 83,-819 83,-807 83,-807 83,-801 89,-795 95,-795 95,-795 149,-795 149,-795 155,-795 161,-801 161,-807 161,-807 161,-819 161,-819 161,-825 155,-831 149,-831"/>
<text text-anchor="middle" x="122" y="-809.3" font-family="Helvetica,sans-Serif" font-size="14.00">chloride.ts</text>
</g>
<!-- src/node/chloride.ts&#45;&gt;src/node/chloride.d.ts -->
<g id="edge21" class="edge">
<title>src/node/chloride.ts&#45;&gt;src/node/chloride.d.ts</title>
<path fill="none" stroke="#528b8b" stroke-width="2" d="M161.18,-813C200.19,-813 261.11,-813 305.04,-813"/>
<polygon fill="#528b8b" stroke="#528b8b" stroke-width="2" points="305.26,-816.5 315.26,-813 305.26,-809.5 305.26,-816.5"/>
</g>
<!-- src/peer/peer&#45;client.ts -->
<g id="node15" class="node">
<title>src/peer/peer&#45;client.ts</title>
<path fill="#79cdcd" stroke="#79cdcd" d="M395,-333C395,-333 325,-333 325,-333 319,-333 313,-327 313,-321 313,-321 313,-309 313,-309 313,-303 319,-297 325,-297 325,-297 395,-297 395,-297 401,-297 407,-303 407,-309 407,-309 407,-321 407,-321 407,-327 401,-333 395,-333"/>
<text text-anchor="middle" x="360" y="-311.3" font-family="Helvetica,sans-Serif" font-size="14.00">peer&#45;client.ts</text>
</g>
<!-- src/storage/compare.ts -->
<g id="node20" class="node">
<title>src/storage/compare.ts</title>
<path fill="#79cdcd" stroke="#79cdcd" d="M609,-428C609,-428 549,-428 549,-428 543,-428 537,-422 537,-416 537,-416 537,-404 537,-404 537,-398 543,-392 549,-392 549,-392 609,-392 609,-392 615,-392 621,-398 621,-404 621,-404 621,-416 621,-416 621,-422 615,-428 609,-428"/>
<text text-anchor="middle" x="579" y="-406.3" font-family="Helvetica,sans-Serif" font-size="14.00">compare.ts</text>
</g>
<!-- src/peer/peer&#45;client.ts&#45;&gt;src/storage/compare.ts -->
<g id="edge22" class="edge">
<title>src/peer/peer&#45;client.ts&#45;&gt;src/storage/compare.ts</title>
<path fill="none" stroke="#528b8b" stroke-width="2" d="M402.33,-333.09C437.92,-348.68 489.42,-371.22 527.46,-387.88"/>
<polygon fill="#528b8b" stroke="#528b8b" stroke-width="2" points="526.26,-391.17 536.83,-391.97 529.07,-384.76 526.26,-391.17"/>
</g>
<!-- src/peer/peer&#45;server.ts -->
<g id="node16" class="node">
<title>src/peer/peer&#45;server.ts</title>
<path fill="#79cdcd" stroke="#79cdcd" d="M398,-279C398,-279 322,-279 322,-279 316,-279 310,-273 310,-267 310,-267 310,-255 310,-255 310,-249 316,-243 322,-243 322,-243 398,-243 398,-243 404,-243 410,-249 410,-255 410,-255 410,-267 410,-267 410,-273 404,-279 398,-279"/>
<text text-anchor="middle" x="360" y="-257.3" font-family="Helvetica,sans-Serif" font-size="14.00">peer&#45;server.ts</text>
</g>
<!-- src/query/query.ts -->
<g id="node19" class="node">
<title>src/query/query.ts</title>
<path fill="#79cdcd" stroke="#79cdcd" d="M599,-611C599,-611 559,-611 559,-611 553,-611 547,-605 547,-599 547,-599 547,-587 547,-587 547,-581 553,-575 559,-575 559,-575 599,-575 599,-575 605,-575 611,-581 611,-587 611,-587 611,-599 611,-599 611,-605 605,-611 599,-611"/>
<text text-anchor="middle" x="579" y="-589.3" font-family="Helvetica,sans-Serif" font-size="14.00">query.ts</text>
</g>
<!-- src/query&#45;follower/query&#45;follower.ts&#45;&gt;src/query/query.ts -->
<g id="edge23" class="edge">
<title>src/query&#45;follower/query&#45;follower.ts&#45;&gt;src/query/query.ts</title>
<path fill="none" stroke="#528b8b" stroke-width="2" d="M418.01,-593C455.18,-593 502.84,-593 536.44,-593"/>
<polygon fill="#528b8b" stroke="#528b8b" stroke-width="2" points="536.82,-596.5 546.82,-593 536.82,-589.5 536.82,-596.5"/>
</g>
<!-- src/storage/storage&#45;async.ts&#45;&gt;src/crypto/crypto.ts -->
<g id="edge25" class="edge">
<title>src/storage/storage&#45;async.ts&#45;&gt;src/crypto/crypto.ts</title>
<path fill="none" stroke="#528b8b" stroke-width="2" d="M418.16,-402.95C434.87,-398.3 451.87,-390.63 464,-378 497.45,-343.16 464.9,-312.98 492,-273 503.19,-256.49 520.08,-242.59 535.94,-232.01"/>
<polygon fill="#528b8b" stroke="#528b8b" stroke-width="2" points="538.06,-234.81 544.6,-226.47 534.29,-228.91 538.06,-234.81"/>
</g>
<!-- src/storage/storage&#45;async.ts&#45;&gt;src/query/query.ts -->
<g id="edge26" class="edge">
<title>src/storage/storage&#45;async.ts&#45;&gt;src/query/query.ts</title>
<path fill="none" stroke="#528b8b" stroke-width="2" d="M418.06,-413.72C434.86,-417.52 451.95,-424.48 464,-437 503.79,-478.32 453.88,-520.13 492,-563 503.49,-575.92 520.84,-583.27 536.96,-587.46"/>
<polygon fill="#528b8b" stroke="#528b8b" stroke-width="2" points="536.25,-590.89 546.78,-589.68 537.8,-584.06 536.25,-590.89"/>
</g>
<!-- src/storage/storage&#45;async.ts&#45;&gt;src/storage/compare.ts -->
<g id="edge24" class="edge">
<title>src/storage/storage&#45;async.ts&#45;&gt;src/storage/compare.ts</title>
<path fill="none" stroke="#528b8b" stroke-width="2" d="M418.01,-410C451.67,-410 493.92,-410 526.56,-410"/>
<polygon fill="#528b8b" stroke="#528b8b" stroke-width="2" points="526.79,-413.5 536.79,-410 526.79,-406.5 526.79,-413.5"/>
</g>
<!-- src/storage/storage&#45;cache.ts -->
<g id="node22" class="node">
<title>src/storage/storage&#45;cache.ts</title>
<path fill="#79cdcd" stroke="#79cdcd" d="M168,-528C168,-528 76,-528 76,-528 70,-528 64,-522 64,-516 64,-516 64,-504 64,-504 64,-498 70,-492 76,-492 76,-492 168,-492 168,-492 174,-492 180,-498 180,-504 180,-504 180,-516 180,-516 180,-522 174,-528 168,-528"/>
<text text-anchor="middle" x="122" y="-506.3" font-family="Helvetica,sans-Serif" font-size="14.00">storage&#45;cache.ts</text>
</g>
<!-- src/storage/storage&#45;cache.ts&#45;&gt;src/crypto/crypto.ts -->
<g id="edge29" class="edge">
<title>src/storage/storage&#45;cache.ts&#45;&gt;src/crypto/crypto.ts</title>
<path fill="none" stroke="#528b8b" stroke-width="2" d="M180.19,-503.56C194.59,-499.56 209.05,-493.17 220,-483 254.62,-450.86 218.36,-411.53 256,-383 292.93,-355.01 427.91,-397.07 464,-368 498.28,-340.39 466.83,-309.11 492,-273 503.41,-256.64 520.33,-242.76 536.16,-232.16"/>
<polygon fill="#528b8b" stroke="#528b8b" stroke-width="2" points="538.27,-234.96 544.79,-226.6 534.49,-229.07 538.27,-234.96"/>
</g>
<!-- src/storage/storage&#45;cache.ts&#45;&gt;src/query&#45;follower/query&#45;follower.ts -->
<g id="edge28" class="edge">
<title>src/storage/storage&#45;cache.ts&#45;&gt;src/query&#45;follower/query&#45;follower.ts</title>
<path fill="none" stroke="#528b8b" stroke-width="2" d="M165.44,-528.12C191.36,-538.88 225.33,-552.45 256,-563 267.6,-566.99 280.06,-570.92 292.15,-574.54"/>
<polygon fill="#528b8b" stroke="#528b8b" stroke-width="2" points="291.18,-577.9 301.76,-577.38 293.16,-571.19 291.18,-577.9"/>
</g>
<!-- src/storage/storage&#45;cache.ts&#45;&gt;src/query/query.ts -->
<g id="edge27" class="edge">
<title>src/storage/storage&#45;cache.ts&#45;&gt;src/query/query.ts</title>
<path fill="none" stroke="#528b8b" stroke-width="2" d="M170.25,-528.03C187.65,-536.53 206.41,-548.12 220,-563 247.11,-592.69 222.38,-623.94 256,-646 343.81,-703.63 473.3,-650 538.06,-616.03"/>
<polygon fill="#528b8b" stroke="#528b8b" stroke-width="2" points="539.96,-618.98 547.13,-611.17 536.66,-612.81 539.96,-618.98"/>
</g>
<!-- src/storage/storage&#45;driver&#45;async&#45;memory.ts&#45;&gt;src/query/query.ts -->
<g id="edge31" class="edge">
<title>src/storage/storage&#45;driver&#45;async&#45;memory.ts&#45;&gt;src/query/query.ts</title>
<path fill="none" stroke="#528b8b" stroke-width="2" d="M380.95,-482.27C405.52,-503.98 449.27,-540.13 492,-563 506.05,-570.52 522.36,-576.76 536.97,-581.58"/>
<polygon fill="#528b8b" stroke="#528b8b" stroke-width="2" points="536.18,-585 546.77,-584.68 538.3,-578.32 536.18,-585"/>
</g>
<!-- src/storage/storage&#45;driver&#45;async&#45;memory.ts&#45;&gt;src/storage/compare.ts -->
<g id="edge30" class="edge">
<title>src/storage/storage&#45;driver&#45;async&#45;memory.ts&#45;&gt;src/storage/compare.ts</title>
<path fill="none" stroke="#528b8b" stroke-width="2" d="M433.56,-445.94C464.18,-438.33 499.1,-429.64 526.93,-422.71"/>
<polygon fill="#528b8b" stroke="#528b8b" stroke-width="2" points="527.98,-426.05 536.84,-420.24 526.29,-419.26 527.98,-426.05"/>
</g>
<!-- src/storage/storage&#45;driver&#45;indexeddb.ts -->
<g id="node24" class="node">
<title>src/storage/storage&#45;driver&#45;indexeddb.ts</title>
<path fill="#79cdcd" stroke="#79cdcd" d="M200.5,-474C200.5,-474 43.5,-474 43.5,-474 37.5,-474 31.5,-468 31.5,-462 31.5,-462 31.5,-450 31.5,-450 31.5,-444 37.5,-438 43.5,-438 43.5,-438 200.5,-438 200.5,-438 206.5,-438 212.5,-444 212.5,-450 212.5,-450 212.5,-462 212.5,-462 212.5,-468 206.5,-474 200.5,-474"/>
<text text-anchor="middle" x="122" y="-452.3" font-family="Helvetica,sans-Serif" font-size="14.00">storage&#45;driver&#45;indexeddb.ts</text>
</g>
<!-- src/storage/storage&#45;driver&#45;indexeddb.ts&#45;&gt;src/storage/storage&#45;driver&#45;async&#45;memory.ts -->
<g id="edge32" class="edge">
<title>src/storage/storage&#45;driver&#45;indexeddb.ts&#45;&gt;src/storage/storage&#45;driver&#45;async&#45;memory.ts</title>
<path fill="none" stroke="#528b8b" stroke-width="2" d="M212.56,-459.04C223.34,-459.4 234.46,-459.78 245.52,-460.15"/>
<polygon fill="#528b8b" stroke="#528b8b" stroke-width="2" points="245.55,-463.66 255.66,-460.5 245.79,-456.66 245.55,-463.66"/>
</g>
<!-- src/storage/storage&#45;driver&#45;local&#45;storage.ts -->
<g id="node25" class="node">
<title>src/storage/storage&#45;driver&#45;local&#45;storage.ts</title>
<path fill="#79cdcd" stroke="#79cdcd" d="M208,-420C208,-420 36,-420 36,-420 30,-420 24,-414 24,-408 24,-408 24,-396 24,-396 24,-390 30,-384 36,-384 36,-384 208,-384 208,-384 214,-384 220,-390 220,-396 220,-396 220,-408 220,-408 220,-414 214,-420 208,-420"/>
<text text-anchor="middle" x="122" y="-398.3" font-family="Helvetica,sans-Serif" font-size="14.00">storage&#45;driver&#45;local&#45;storage.ts</text>
</g>
<!-- src/storage/storage&#45;driver&#45;local&#45;storage.ts&#45;&gt;src/storage/storage&#45;driver&#45;async&#45;memory.ts -->
<g id="edge33" class="edge">
<title>src/storage/storage&#45;driver&#45;local&#45;storage.ts&#45;&gt;src/storage/storage&#45;driver&#45;async&#45;memory.ts</title>
<path fill="none" stroke="#528b8b" stroke-width="2" d="M191.68,-420.09C212.36,-425.53 235.1,-431.51 256,-437 263.82,-439.05 271.97,-441.19 280.11,-443.33"/>
<polygon fill="#528b8b" stroke="#528b8b" stroke-width="2" points="279.46,-446.78 290.02,-445.93 281.23,-440 279.46,-446.78"/>
</g>
<!-- src/superbus/simplebus.ts -->
<g id="node26" class="node">
<title>src/superbus/simplebus.ts</title>
<path fill="#79cdcd" stroke="#79cdcd" d="M156,-748C156,-748 88,-748 88,-748 82,-748 76,-742 76,-736 76,-736 76,-724 76,-724 76,-718 82,-712 88,-712 88,-712 156,-712 156,-712 162,-712 168,-718 168,-724 168,-724 168,-736 168,-736 168,-742 162,-748 156,-748"/>
<text text-anchor="middle" x="122" y="-726.3" font-family="Helvetica,sans-Serif" font-size="14.00">simplebus.ts</text>
</g>
<!-- src/superbus/superbus.ts -->
<g id="node27" class="node">
<title>src/superbus/superbus.ts</title>
<path fill="#79cdcd" stroke="#79cdcd" d="M153,-694C153,-694 91,-694 91,-694 85,-694 79,-688 79,-682 79,-682 79,-670 79,-670 79,-664 85,-658 91,-658 91,-658 153,-658 153,-658 159,-658 165,-664 165,-670 165,-670 165,-682 165,-682 165,-688 159,-694 153,-694"/>
<text text-anchor="middle" x="122" y="-672.3" font-family="Helvetica,sans-Serif" font-size="14.00">superbus.ts</text>
</g>
<!-- src/superbus_map/superbus_map.ts -->
<g id="node28" class="node">
<title>src/superbus_map/superbus_map.ts</title>
<path fill="#79cdcd" stroke="#79cdcd" d="M170.5,-611C170.5,-611 73.5,-611 73.5,-611 67.5,-611 61.5,-605 61.5,-599 61.5,-599 61.5,-587 61.5,-587 61.5,-581 67.5,-575 73.5,-575 73.5,-575 170.5,-575 170.5,-575 176.5,-575 182.5,-581 182.5,-587 182.5,-587 182.5,-599 182.5,-599 182.5,-605 176.5,-611 170.5,-611"/>
<text text-anchor="middle" x="122" y="-589.3" font-family="Helvetica,sans-Serif" font-size="14.00">superbus_map.ts</text>
</g>
</g>
</svg>
