<?xml version="1.0" encoding="UTF-8" standalone="no"?>
<!DOCTYPE svg PUBLIC "-//W3C//DTD SVG 1.1//EN"
 "http://www.w3.org/Graphics/SVG/1.1/DTD/svg11.dtd">
<!-- Generated by graphviz version 2.44.1 (20200629.0846)
 -->
<!-- Title: G Pages: 1 -->
<svg width="1563pt" height="1398pt"
 viewBox="0.00 0.00 1563.00 1398.17" xmlns="http://www.w3.org/2000/svg" xmlns:xlink="http://www.w3.org/1999/xlink">
<g id="graph0" class="graph" transform="scale(1 1) rotate(0) translate(4 1394.17)">
<title>G</title>
<polygon fill="white" stroke="transparent" points="-4,4 -4,-1394.17 1559,-1394.17 1559,4 -4,4"/>
<!-- src/base32.ts -->
<g id="node1" class="node">
<title>src/base32.ts</title>
<path fill="#79cdcd" stroke="#79cdcd" d="M1095.5,-937.14C1095.5,-937.14 1022.5,-937.14 1022.5,-937.14 1016.5,-937.14 1010.5,-931.14 1010.5,-925.14 1010.5,-925.14 1010.5,-913.14 1010.5,-913.14 1010.5,-907.14 1016.5,-901.14 1022.5,-901.14 1022.5,-901.14 1095.5,-901.14 1095.5,-901.14 1101.5,-901.14 1107.5,-907.14 1107.5,-913.14 1107.5,-913.14 1107.5,-925.14 1107.5,-925.14 1107.5,-931.14 1101.5,-937.14 1095.5,-937.14"/>
<text text-anchor="middle" x="1059" y="-915.44" font-family="Helvetica,sans-Serif" font-size="14.00">src/base32.ts</text>
</g>
<!-- src/types/doc&#45;types.ts -->
<g id="node20" class="node">
<title>src/types/doc&#45;types.ts</title>
<path fill="#79cdcd" stroke="#79cdcd" d="M1370.5,-685.14C1370.5,-685.14 1247.5,-685.14 1247.5,-685.14 1241.5,-685.14 1235.5,-679.14 1235.5,-673.14 1235.5,-673.14 1235.5,-661.14 1235.5,-661.14 1235.5,-655.14 1241.5,-649.14 1247.5,-649.14 1247.5,-649.14 1370.5,-649.14 1370.5,-649.14 1376.5,-649.14 1382.5,-655.14 1382.5,-661.14 1382.5,-661.14 1382.5,-673.14 1382.5,-673.14 1382.5,-679.14 1376.5,-685.14 1370.5,-685.14"/>
<text text-anchor="middle" x="1309" y="-663.44" font-family="Helvetica,sans-Serif" font-size="14.00">src/types/doc&#45;types.ts</text>
</g>
<!-- src/base32.ts&#45;&gt;src/types/doc&#45;types.ts -->
<g id="edge1" class="edge">
<title>src/base32.ts&#45;&gt;src/types/doc&#45;types.ts</title>
<path fill="none" stroke="#528b8b" stroke-width="2" d="M1094.57,-901.08C1117.15,-888.33 1146.51,-869.87 1169,-849.14 1221.01,-801.2 1267.87,-731.98 1291.61,-694.22"/>
<polygon fill="#528b8b" stroke="#528b8b" stroke-width="2" points="1294.83,-695.67 1297.14,-685.33 1288.89,-691.98 1294.83,-695.67"/>
</g>
<!-- src/util/errors.ts -->
<g id="node27" class="node">
<title>src/util/errors.ts</title>
<path fill="#79cdcd" stroke="#79cdcd" d="M1351.5,-1021.14C1351.5,-1021.14 1266.5,-1021.14 1266.5,-1021.14 1260.5,-1021.14 1254.5,-1015.14 1254.5,-1009.14 1254.5,-1009.14 1254.5,-997.14 1254.5,-997.14 1254.5,-991.14 1260.5,-985.14 1266.5,-985.14 1266.5,-985.14 1351.5,-985.14 1351.5,-985.14 1357.5,-985.14 1363.5,-991.14 1363.5,-997.14 1363.5,-997.14 1363.5,-1009.14 1363.5,-1009.14 1363.5,-1015.14 1357.5,-1021.14 1351.5,-1021.14"/>
<text text-anchor="middle" x="1309" y="-999.44" font-family="Helvetica,sans-Serif" font-size="14.00">src/util/errors.ts</text>
</g>
<!-- src/base32.ts&#45;&gt;src/util/errors.ts -->
<g id="edge2" class="edge">
<title>src/base32.ts&#45;&gt;src/util/errors.ts</title>
<path fill="none" stroke="#528b8b" stroke-width="2" d="M1107.52,-935.24C1146.62,-948.48 1202.36,-967.36 1245.14,-981.85"/>
<polygon fill="#528b8b" stroke="#528b8b" stroke-width="2" points="1244.02,-985.16 1254.61,-985.06 1246.27,-978.53 1244.02,-985.16"/>
</g>
<!-- src/decls.d.ts -->
<g id="node2" class="node">
<title>src/decls.d.ts</title>
<path fill="#79cdcd" stroke="#79cdcd" d="M104,-435.14C104,-435.14 33,-435.14 33,-435.14 27,-435.14 21,-429.14 21,-423.14 21,-423.14 21,-411.14 21,-411.14 21,-405.14 27,-399.14 33,-399.14 33,-399.14 104,-399.14 104,-399.14 110,-399.14 116,-405.14 116,-411.14 116,-411.14 116,-423.14 116,-423.14 116,-429.14 110,-435.14 104,-435.14"/>
<text text-anchor="middle" x="68.5" y="-413.44" font-family="Helvetica,sans-Serif" font-size="14.00">src/decls.d.ts</text>
</g>
<!-- src/example&#45;app.ts -->
<g id="node3" class="node">
<title>src/example&#45;app.ts</title>
<path fill="#79cdcd" stroke="#79cdcd" d="M122,-381.14C122,-381.14 15,-381.14 15,-381.14 9,-381.14 3,-375.14 3,-369.14 3,-369.14 3,-357.14 3,-357.14 3,-351.14 9,-345.14 15,-345.14 15,-345.14 122,-345.14 122,-345.14 128,-345.14 134,-351.14 134,-357.14 134,-357.14 134,-369.14 134,-369.14 134,-375.14 128,-381.14 122,-381.14"/>
<text text-anchor="middle" x="68.5" y="-359.44" font-family="Helvetica,sans-Serif" font-size="14.00">src/example&#45;app.ts</text>
</g>
<!-- src/follower.ts -->
<g id="node4" class="node">
<title>src/follower.ts</title>
<path fill="#79cdcd" stroke="#79cdcd" d="M349.5,-465.14C349.5,-465.14 274.5,-465.14 274.5,-465.14 268.5,-465.14 262.5,-459.14 262.5,-453.14 262.5,-453.14 262.5,-441.14 262.5,-441.14 262.5,-435.14 268.5,-429.14 274.5,-429.14 274.5,-429.14 349.5,-429.14 349.5,-429.14 355.5,-429.14 361.5,-435.14 361.5,-441.14 361.5,-441.14 361.5,-453.14 361.5,-453.14 361.5,-459.14 355.5,-465.14 349.5,-465.14"/>
<text text-anchor="middle" x="312" y="-443.44" font-family="Helvetica,sans-Serif" font-size="14.00">src/follower.ts</text>
</g>
<!-- src/example&#45;app.ts&#45;&gt;src/follower.ts -->
<g id="edge30" class="edge">
<title>src/example&#45;app.ts&#45;&gt;src/follower.ts</title>
<path fill="none" stroke="#528b8b" stroke-width="2" d="M121.31,-381.16C159.85,-394.56 212.48,-412.87 252.53,-426.8"/>
<polygon fill="#528b8b" stroke="#528b8b" stroke-width="2" points="251.56,-430.17 262.16,-430.15 253.86,-423.56 251.56,-430.17"/>
</g>
<!-- src/format&#45;validators/format&#45;validator&#45;es4.ts -->
<g id="node16" class="node">
<title>src/format&#45;validators/format&#45;validator&#45;es4.ts</title>
<path fill="#79cdcd" stroke="#79cdcd" d="M439,-1067.14C439,-1067.14 185,-1067.14 185,-1067.14 179,-1067.14 173,-1061.14 173,-1055.14 173,-1055.14 173,-1043.14 173,-1043.14 173,-1037.14 179,-1031.14 185,-1031.14 185,-1031.14 439,-1031.14 439,-1031.14 445,-1031.14 451,-1037.14 451,-1043.14 451,-1043.14 451,-1055.14 451,-1055.14 451,-1061.14 445,-1067.14 439,-1067.14"/>
<text text-anchor="middle" x="312" y="-1045.44" font-family="Helvetica,sans-Serif" font-size="14.00">src/format&#45;validators/format&#45;validator&#45;es4.ts</text>
</g>
<!-- src/example&#45;app.ts&#45;&gt;src/format&#45;validators/format&#45;validator&#45;es4.ts -->
<g id="edge27" class="edge">
<title>src/example&#45;app.ts&#45;&gt;src/format&#45;validators/format&#45;validator&#45;es4.ts</title>
<path fill="none" stroke="#528b8b" stroke-width="2" d="M127.8,-381.2C131.24,-383.79 134.36,-386.75 137,-390.14 174.3,-438.09 158.74,-602.08 173,-661.14 206.61,-800.33 272.1,-959.22 299.01,-1021.78"/>
<polygon fill="#528b8b" stroke="#528b8b" stroke-width="2" points="295.81,-1023.19 302.99,-1030.98 302.23,-1020.41 295.81,-1023.19"/>
</g>
<!-- src/storage/storage&#45;async.ts -->
<g id="node17" class="node">
<title>src/storage/storage&#45;async.ts</title>
<path fill="#79cdcd" stroke="#79cdcd" d="M393,-652.14C393,-652.14 231,-652.14 231,-652.14 225,-652.14 219,-646.14 219,-640.14 219,-640.14 219,-628.14 219,-628.14 219,-622.14 225,-616.14 231,-616.14 231,-616.14 393,-616.14 393,-616.14 399,-616.14 405,-622.14 405,-628.14 405,-628.14 405,-640.14 405,-640.14 405,-646.14 399,-652.14 393,-652.14"/>
<text text-anchor="middle" x="312" y="-630.44" font-family="Helvetica,sans-Serif" font-size="14.00">src/storage/storage&#45;async.ts</text>
</g>
<!-- src/example&#45;app.ts&#45;&gt;src/storage/storage&#45;async.ts -->
<g id="edge29" class="edge">
<title>src/example&#45;app.ts&#45;&gt;src/storage/storage&#45;async.ts</title>
<path fill="none" stroke="#528b8b" stroke-width="2" d="M125.51,-381.24C129.67,-383.84 133.57,-386.79 137,-390.14 166.07,-418.51 151.48,-439.69 173,-474.14 205.6,-526.34 254.75,-578.84 284.75,-608.83"/>
<polygon fill="#528b8b" stroke="#528b8b" stroke-width="2" points="282.37,-611.4 291.94,-615.96 287.3,-606.43 282.37,-611.4"/>
</g>
<!-- src/storage/storage&#45;driver&#45;async&#45;memory.ts -->
<g id="node18" class="node">
<title>src/storage/storage&#45;driver&#45;async&#45;memory.ts</title>
<path fill="#79cdcd" stroke="#79cdcd" d="M439,-281.14C439,-281.14 185,-281.14 185,-281.14 179,-281.14 173,-275.14 173,-269.14 173,-269.14 173,-257.14 173,-257.14 173,-251.14 179,-245.14 185,-245.14 185,-245.14 439,-245.14 439,-245.14 445,-245.14 451,-251.14 451,-257.14 451,-257.14 451,-269.14 451,-269.14 451,-275.14 445,-281.14 439,-281.14"/>
<text text-anchor="middle" x="312" y="-259.44" font-family="Helvetica,sans-Serif" font-size="14.00">src/storage/storage&#45;driver&#45;async&#45;memory.ts</text>
</g>
<!-- src/example&#45;app.ts&#45;&gt;src/storage/storage&#45;driver&#45;async&#45;memory.ts -->
<g id="edge28" class="edge">
<title>src/example&#45;app.ts&#45;&gt;src/storage/storage&#45;driver&#45;async&#45;memory.ts</title>
<path fill="none" stroke="#528b8b" stroke-width="2" d="M113.23,-345.03C153.88,-328.2 214.52,-303.09 257.92,-285.12"/>
<polygon fill="#528b8b" stroke="#528b8b" stroke-width="2" points="259.28,-288.34 267.18,-281.28 256.61,-281.87 259.28,-288.34"/>
</g>
<!-- src/example&#45;app.ts&#45;&gt;src/types/doc&#45;types.ts -->
<g id="edge25" class="edge">
<title>src/example&#45;app.ts&#45;&gt;src/types/doc&#45;types.ts</title>
<path fill="none" stroke="#528b8b" stroke-width="2" d="M71.59,-345.09C77.86,-299.47 100.78,-178.84 173,-117.14 311.51,1.19 388.83,-19.14 571,-19.14 571,-19.14 571,-19.14 804,-19.14 967.45,-19.14 1047.58,45.28 1169,-64.14 1256.67,-143.15 1296.24,-530.68 1305.7,-638.98"/>
<polygon fill="#528b8b" stroke="#528b8b" stroke-width="2" points="1302.23,-639.46 1306.57,-649.12 1309.2,-638.86 1302.23,-639.46"/>
</g>
<!-- src/util/log.ts -->
<g id="node28" class="node">
<title>src/util/log.ts</title>
<path fill="#79cdcd" stroke="#79cdcd" d="M606,-381.14C606,-381.14 538,-381.14 538,-381.14 532,-381.14 526,-375.14 526,-369.14 526,-369.14 526,-357.14 526,-357.14 526,-351.14 532,-345.14 538,-345.14 538,-345.14 606,-345.14 606,-345.14 612,-345.14 618,-351.14 618,-357.14 618,-357.14 618,-369.14 618,-369.14 618,-375.14 612,-381.14 606,-381.14"/>
<text text-anchor="middle" x="572" y="-359.44" font-family="Helvetica,sans-Serif" font-size="14.00">src/util/log.ts</text>
</g>
<!-- src/example&#45;app.ts&#45;&gt;src/util/log.ts -->
<g id="edge31" class="edge">
<title>src/example&#45;app.ts&#45;&gt;src/util/log.ts</title>
<path fill="none" stroke="#528b8b" stroke-width="2" d="M134.04,-363.14C233.48,-363.14 422.44,-363.14 515.87,-363.14"/>
<polygon fill="#528b8b" stroke="#528b8b" stroke-width="2" points="515.97,-366.64 525.97,-363.14 515.97,-359.64 515.97,-366.64"/>
</g>
<!-- src/util/misc.ts -->
<g id="node29" class="node">
<title>src/util/misc.ts</title>
<path fill="#79cdcd" stroke="#79cdcd" d="M1098,-269.14C1098,-269.14 1020,-269.14 1020,-269.14 1014,-269.14 1008,-263.14 1008,-257.14 1008,-257.14 1008,-245.14 1008,-245.14 1008,-239.14 1014,-233.14 1020,-233.14 1020,-233.14 1098,-233.14 1098,-233.14 1104,-233.14 1110,-239.14 1110,-245.14 1110,-245.14 1110,-257.14 1110,-257.14 1110,-263.14 1104,-269.14 1098,-269.14"/>
<text text-anchor="middle" x="1059" y="-247.44" font-family="Helvetica,sans-Serif" font-size="14.00">src/util/misc.ts</text>
</g>
<!-- src/example&#45;app.ts&#45;&gt;src/util/misc.ts -->
<g id="edge26" class="edge">
<title>src/example&#45;app.ts&#45;&gt;src/util/misc.ts</title>
<path fill="none" stroke="#528b8b" stroke-width="2" d="M79.95,-345.07C96.48,-317.93 131.13,-266.59 173,-236.14 294.08,-148.08 339.84,-141.72 487,-114.14 686.76,-76.7 921.68,-180.66 1015.85,-228.49"/>
<polygon fill="#528b8b" stroke="#528b8b" stroke-width="2" points="1014.29,-231.62 1024.78,-233.07 1017.49,-225.39 1014.29,-231.62"/>
</g>
<!-- src/follower.ts&#45;&gt;src/types/doc&#45;types.ts -->
<g id="edge33" class="edge">
<title>src/follower.ts&#45;&gt;src/types/doc&#45;types.ts</title>
<path fill="none" stroke="#528b8b" stroke-width="2" d="M361.88,-443.56C496.82,-435.64 883.43,-426.12 1169,-550.14 1216.66,-570.84 1260.54,-613.35 1285.77,-641.03"/>
<polygon fill="#528b8b" stroke="#528b8b" stroke-width="2" points="1283.41,-643.63 1292.68,-648.75 1288.63,-638.97 1283.41,-643.63"/>
</g>
<!-- src/types/query&#45;types.ts -->
<g id="node22" class="node">
<title>src/types/query&#45;types.ts</title>
<path fill="#79cdcd" stroke="#79cdcd" d="M870.5,-568.14C870.5,-568.14 735.5,-568.14 735.5,-568.14 729.5,-568.14 723.5,-562.14 723.5,-556.14 723.5,-556.14 723.5,-544.14 723.5,-544.14 723.5,-538.14 729.5,-532.14 735.5,-532.14 735.5,-532.14 870.5,-532.14 870.5,-532.14 876.5,-532.14 882.5,-538.14 882.5,-544.14 882.5,-544.14 882.5,-556.14 882.5,-556.14 882.5,-562.14 876.5,-568.14 870.5,-568.14"/>
<text text-anchor="middle" x="803" y="-546.44" font-family="Helvetica,sans-Serif" font-size="14.00">src/types/query&#45;types.ts</text>
</g>
<!-- src/follower.ts&#45;&gt;src/types/query&#45;types.ts -->
<g id="edge34" class="edge">
<title>src/follower.ts&#45;&gt;src/types/query&#45;types.ts</title>
<path fill="none" stroke="#528b8b" stroke-width="2" d="M361.67,-463.54C396.31,-474.75 444.13,-489.31 487,-499.14 562.73,-516.51 650.02,-530.15 713.48,-538.94"/>
<polygon fill="#528b8b" stroke="#528b8b" stroke-width="2" points="713.08,-542.42 723.46,-540.31 714.03,-535.48 713.08,-542.42"/>
</g>
<!-- src/types/storage&#45;types.ts -->
<g id="node23" class="node">
<title>src/types/storage&#45;types.ts</title>
<path fill="#79cdcd" stroke="#79cdcd" d="M645,-587.14C645,-587.14 499,-587.14 499,-587.14 493,-587.14 487,-581.14 487,-575.14 487,-575.14 487,-563.14 487,-563.14 487,-557.14 493,-551.14 499,-551.14 499,-551.14 645,-551.14 645,-551.14 651,-551.14 657,-557.14 657,-563.14 657,-563.14 657,-575.14 657,-575.14 657,-581.14 651,-587.14 645,-587.14"/>
<text text-anchor="middle" x="572" y="-565.44" font-family="Helvetica,sans-Serif" font-size="14.00">src/types/storage&#45;types.ts</text>
</g>
<!-- src/follower.ts&#45;&gt;src/types/storage&#45;types.ts -->
<g id="edge35" class="edge">
<title>src/follower.ts&#45;&gt;src/types/storage&#45;types.ts</title>
<path fill="none" stroke="#528b8b" stroke-width="2" d="M345.17,-465.18C379.69,-484.2 436.4,-514.5 487,-537.14 494.87,-540.66 503.25,-544.15 511.55,-547.46"/>
<polygon fill="#528b8b" stroke="#528b8b" stroke-width="2" points="510.28,-550.72 520.87,-551.11 512.84,-544.2 510.28,-550.72"/>
</g>
<!-- src/types/util&#45;types.ts -->
<g id="node24" class="node">
<title>src/types/util&#45;types.ts</title>
<path fill="#79cdcd" stroke="#79cdcd" d="M862.5,-327.14C862.5,-327.14 743.5,-327.14 743.5,-327.14 737.5,-327.14 731.5,-321.14 731.5,-315.14 731.5,-315.14 731.5,-303.14 731.5,-303.14 731.5,-297.14 737.5,-291.14 743.5,-291.14 743.5,-291.14 862.5,-291.14 862.5,-291.14 868.5,-291.14 874.5,-297.14 874.5,-303.14 874.5,-303.14 874.5,-315.14 874.5,-315.14 874.5,-321.14 868.5,-327.14 862.5,-327.14"/>
<text text-anchor="middle" x="803" y="-305.44" font-family="Helvetica,sans-Serif" font-size="14.00">src/types/util&#45;types.ts</text>
</g>
<!-- src/follower.ts&#45;&gt;src/types/util&#45;types.ts -->
<g id="edge32" class="edge">
<title>src/follower.ts&#45;&gt;src/types/util&#45;types.ts</title>
<path fill="none" stroke="#528b8b" stroke-width="2" d="M361.81,-443.82C444.78,-437.41 609.01,-421.14 657,-390.14 681.23,-374.49 669.4,-352.73 693,-336.14 701.58,-330.11 711.37,-325.42 721.48,-321.77"/>
<polygon fill="#528b8b" stroke="#528b8b" stroke-width="2" points="722.82,-325.02 731.24,-318.59 720.65,-318.36 722.82,-325.02"/>
</g>
<!-- src/follower.ts&#45;&gt;src/util/log.ts -->
<g id="edge36" class="edge">
<title>src/follower.ts&#45;&gt;src/util/log.ts</title>
<path fill="none" stroke="#528b8b" stroke-width="2" d="M361.53,-431.34C405.45,-417.04 470.1,-395.99 515.94,-381.06"/>
<polygon fill="#528b8b" stroke="#528b8b" stroke-width="2" points="517.29,-384.31 525.72,-377.88 515.12,-377.65 517.29,-384.31"/>
</g>
<!-- src/index.browser.ts -->
<g id="node5" class="node">
<title>src/index.browser.ts</title>
<path fill="#79cdcd" stroke="#79cdcd" d="M125,-489.14C125,-489.14 12,-489.14 12,-489.14 6,-489.14 0,-483.14 0,-477.14 0,-477.14 0,-465.14 0,-465.14 0,-459.14 6,-453.14 12,-453.14 12,-453.14 125,-453.14 125,-453.14 131,-453.14 137,-459.14 137,-465.14 137,-465.14 137,-477.14 137,-477.14 137,-483.14 131,-489.14 125,-489.14"/>
<text text-anchor="middle" x="68.5" y="-467.44" font-family="Helvetica,sans-Serif" font-size="14.00">src/index.browser.ts</text>
</g>
<!-- src/index.ts -->
<g id="node6" class="node">
<title>src/index.ts</title>
<path fill="#79cdcd" stroke="#79cdcd" d="M99,-543.14C99,-543.14 38,-543.14 38,-543.14 32,-543.14 26,-537.14 26,-531.14 26,-531.14 26,-519.14 26,-519.14 26,-513.14 32,-507.14 38,-507.14 38,-507.14 99,-507.14 99,-507.14 105,-507.14 111,-513.14 111,-519.14 111,-519.14 111,-531.14 111,-531.14 111,-537.14 105,-543.14 99,-543.14"/>
<text text-anchor="middle" x="68.5" y="-521.44" font-family="Helvetica,sans-Serif" font-size="14.00">src/index.ts</text>
</g>
<!-- src/lock.ts -->
<g id="node7" class="node">
<title>src/lock.ts</title>
<path fill="#79cdcd" stroke="#79cdcd" d="M829.5,-381.14C829.5,-381.14 776.5,-381.14 776.5,-381.14 770.5,-381.14 764.5,-375.14 764.5,-369.14 764.5,-369.14 764.5,-357.14 764.5,-357.14 764.5,-351.14 770.5,-345.14 776.5,-345.14 776.5,-345.14 829.5,-345.14 829.5,-345.14 835.5,-345.14 841.5,-351.14 841.5,-357.14 841.5,-357.14 841.5,-369.14 841.5,-369.14 841.5,-375.14 835.5,-381.14 829.5,-381.14"/>
<text text-anchor="middle" x="803" y="-359.44" font-family="Helvetica,sans-Serif" font-size="14.00">src/lock.ts</text>
</g>
<!-- src/lock.ts&#45;&gt;src/util/misc.ts -->
<g id="edge43" class="edge">
<title>src/lock.ts&#45;&gt;src/util/misc.ts</title>
<path fill="none" stroke="#528b8b" stroke-width="2" d="M841.67,-356.59C863.06,-352.19 890.07,-345.47 913,-336.14 953.17,-319.79 995.57,-293.78 1024.07,-274.83"/>
<polygon fill="#528b8b" stroke="#528b8b" stroke-width="2" points="1026.11,-277.68 1032.45,-269.19 1022.2,-271.87 1026.11,-277.68"/>
</g>
<!-- src/query.ts -->
<g id="node8" class="node">
<title>src/query.ts</title>
<path fill="#79cdcd" stroke="#79cdcd" d="M603,-159.14C603,-159.14 541,-159.14 541,-159.14 535,-159.14 529,-153.14 529,-147.14 529,-147.14 529,-135.14 529,-135.14 529,-129.14 535,-123.14 541,-123.14 541,-123.14 603,-123.14 603,-123.14 609,-123.14 615,-129.14 615,-135.14 615,-135.14 615,-147.14 615,-147.14 615,-153.14 609,-159.14 603,-159.14"/>
<text text-anchor="middle" x="572" y="-137.44" font-family="Helvetica,sans-Serif" font-size="14.00">src/query.ts</text>
</g>
<!-- src/query.ts&#45;&gt;src/types/doc&#45;types.ts -->
<g id="edge44" class="edge">
<title>src/query.ts&#45;&gt;src/types/doc&#45;types.ts</title>
<path fill="none" stroke="#528b8b" stroke-width="2" d="M615.08,-133.23C721.69,-115.78 1005.55,-85.75 1169,-224.14 1297.38,-332.84 1308.82,-558.7 1308.67,-638.47"/>
<polygon fill="#528b8b" stroke="#528b8b" stroke-width="2" points="1305.16,-638.7 1308.58,-648.73 1312.16,-638.76 1305.16,-638.7"/>
</g>
<!-- src/query.ts&#45;&gt;src/types/query&#45;types.ts -->
<g id="edge45" class="edge">
<title>src/query.ts&#45;&gt;src/types/query&#45;types.ts</title>
<path fill="none" stroke="#528b8b" stroke-width="2" d="M591.11,-159.4C610.21,-179.67 639.86,-214.16 657,-249.14 685.45,-307.22 666.39,-331.19 693,-390.14 716,-441.1 755.14,-493.4 779.73,-523.77"/>
<polygon fill="#528b8b" stroke="#528b8b" stroke-width="2" points="777.21,-526.22 786.25,-531.74 782.62,-521.78 777.21,-526.22"/>
</g>
<!-- src/query.ts&#45;&gt;src/util/misc.ts -->
<g id="edge46" class="edge">
<title>src/query.ts&#45;&gt;src/util/misc.ts</title>
<path fill="none" stroke="#528b8b" stroke-width="2" d="M605.9,-159.27C629.48,-171.5 662.36,-187.01 693,-196.14 797.55,-227.3 924.47,-241.34 997.76,-247.25"/>
<polygon fill="#528b8b" stroke="#528b8b" stroke-width="2" points="997.5,-250.74 1007.74,-248.03 998.04,-243.76 997.5,-250.74"/>
</g>
<!-- src/core&#45;validators/addresses.ts -->
<g id="node9" class="node">
<title>src/core&#45;validators/addresses.ts</title>
<path fill="#79cdcd" stroke="#79cdcd" d="M1150.5,-1067.14C1150.5,-1067.14 967.5,-1067.14 967.5,-1067.14 961.5,-1067.14 955.5,-1061.14 955.5,-1055.14 955.5,-1055.14 955.5,-1043.14 955.5,-1043.14 955.5,-1037.14 961.5,-1031.14 967.5,-1031.14 967.5,-1031.14 1150.5,-1031.14 1150.5,-1031.14 1156.5,-1031.14 1162.5,-1037.14 1162.5,-1043.14 1162.5,-1043.14 1162.5,-1055.14 1162.5,-1055.14 1162.5,-1061.14 1156.5,-1067.14 1150.5,-1067.14"/>
<text text-anchor="middle" x="1059" y="-1045.44" font-family="Helvetica,sans-Serif" font-size="14.00">src/core&#45;validators/addresses.ts</text>
</g>
<!-- src/core&#45;validators/characters.ts -->
<g id="node10" class="node">
<title>src/core&#45;validators/characters.ts</title>
<path fill="#79cdcd" stroke="#79cdcd" d="M1401,-1308.14C1401,-1308.14 1217,-1308.14 1217,-1308.14 1211,-1308.14 1205,-1302.14 1205,-1296.14 1205,-1296.14 1205,-1284.14 1205,-1284.14 1205,-1278.14 1211,-1272.14 1217,-1272.14 1217,-1272.14 1401,-1272.14 1401,-1272.14 1407,-1272.14 1413,-1278.14 1413,-1284.14 1413,-1284.14 1413,-1296.14 1413,-1296.14 1413,-1302.14 1407,-1308.14 1401,-1308.14"/>
<text text-anchor="middle" x="1309" y="-1286.44" font-family="Helvetica,sans-Serif" font-size="14.00">src/core&#45;validators/characters.ts</text>
</g>
<!-- src/core&#45;validators/addresses.ts&#45;&gt;src/core&#45;validators/characters.ts -->
<g id="edge5" class="edge">
<title>src/core&#45;validators/addresses.ts&#45;&gt;src/core&#45;validators/characters.ts</title>
<path fill="none" stroke="#528b8b" stroke-width="2" d="M1097.57,-1067.15C1119.69,-1078.79 1147.47,-1095.25 1169,-1114.14 1220.81,-1159.58 1267.42,-1226.32 1291.26,-1263.19"/>
<polygon fill="#528b8b" stroke="#528b8b" stroke-width="2" points="1288.48,-1265.34 1296.82,-1271.88 1294.38,-1261.57 1288.48,-1265.34"/>
</g>
<!-- src/core&#45;validators/addresses.ts&#45;&gt;src/types/doc&#45;types.ts -->
<g id="edge3" class="edge">
<title>src/core&#45;validators/addresses.ts&#45;&gt;src/types/doc&#45;types.ts</title>
<path fill="none" stroke="#528b8b" stroke-width="2" d="M1099.38,-1031.08C1122.14,-1019.03 1149.95,-1001.32 1169,-979.14 1245.01,-890.62 1286.29,-753.87 1301.32,-695.31"/>
<polygon fill="#528b8b" stroke="#528b8b" stroke-width="2" points="1304.79,-695.87 1303.83,-685.32 1298,-694.17 1304.79,-695.87"/>
</g>
<!-- src/core&#45;validators/addresses.ts&#45;&gt;src/util/errors.ts -->
<g id="edge4" class="edge">
<title>src/core&#45;validators/addresses.ts&#45;&gt;src/util/errors.ts</title>
<path fill="none" stroke="#528b8b" stroke-width="2" d="M1157.3,-1031.09C1186.54,-1025.67 1217.86,-1019.86 1244.33,-1014.95"/>
<polygon fill="#528b8b" stroke="#528b8b" stroke-width="2" points="1245.03,-1018.38 1254.22,-1013.11 1243.75,-1011.5 1245.03,-1018.38"/>
</g>
<!-- src/util/bytes.ts -->
<g id="node25" class="node">
<title>src/util/bytes.ts</title>
<path fill="#79cdcd" stroke="#79cdcd" d="M1543,-1224.14C1543,-1224.14 1461,-1224.14 1461,-1224.14 1455,-1224.14 1449,-1218.14 1449,-1212.14 1449,-1212.14 1449,-1200.14 1449,-1200.14 1449,-1194.14 1455,-1188.14 1461,-1188.14 1461,-1188.14 1543,-1188.14 1543,-1188.14 1549,-1188.14 1555,-1194.14 1555,-1200.14 1555,-1200.14 1555,-1212.14 1555,-1212.14 1555,-1218.14 1549,-1224.14 1543,-1224.14"/>
<text text-anchor="middle" x="1502" y="-1202.44" font-family="Helvetica,sans-Serif" font-size="14.00">src/util/bytes.ts</text>
</g>
<!-- src/core&#45;validators/characters.ts&#45;&gt;src/util/bytes.ts -->
<g id="edge6" class="edge">
<title>src/core&#45;validators/characters.ts&#45;&gt;src/util/bytes.ts</title>
<path fill="none" stroke="#528b8b" stroke-width="2" d="M1350.97,-1272.12C1380.08,-1259.32 1419.35,-1242.05 1450.41,-1228.39"/>
<polygon fill="#528b8b" stroke="#528b8b" stroke-width="2" points="1452.02,-1231.5 1459.76,-1224.27 1449.2,-1225.1 1452.02,-1231.5"/>
</g>
<!-- src/core&#45;validators/checkers.ts -->
<g id="node11" class="node">
<title>src/core&#45;validators/checkers.ts</title>
<path fill="#79cdcd" stroke="#79cdcd" d="M1146.5,-1373.14C1146.5,-1373.14 971.5,-1373.14 971.5,-1373.14 965.5,-1373.14 959.5,-1367.14 959.5,-1361.14 959.5,-1361.14 959.5,-1349.14 959.5,-1349.14 959.5,-1343.14 965.5,-1337.14 971.5,-1337.14 971.5,-1337.14 1146.5,-1337.14 1146.5,-1337.14 1152.5,-1337.14 1158.5,-1343.14 1158.5,-1349.14 1158.5,-1349.14 1158.5,-1361.14 1158.5,-1361.14 1158.5,-1367.14 1152.5,-1373.14 1146.5,-1373.14"/>
<text text-anchor="middle" x="1059" y="-1351.44" font-family="Helvetica,sans-Serif" font-size="14.00">src/core&#45;validators/checkers.ts</text>
</g>
<!-- src/core&#45;validators/checkers.ts&#45;&gt;src/core&#45;validators/characters.ts -->
<g id="edge7" class="edge">
<title>src/core&#45;validators/checkers.ts&#45;&gt;src/core&#45;validators/characters.ts</title>
<path fill="none" stroke="#528b8b" stroke-width="2" d="M1128.75,-1337.12C1159.93,-1328.95 1196.97,-1319.24 1229.26,-1310.78"/>
<polygon fill="#528b8b" stroke="#528b8b" stroke-width="2" points="1230.33,-1314.12 1239.11,-1308.19 1228.55,-1307.34 1230.33,-1314.12"/>
</g>
<!-- src/crypto/crypto&#45;driver&#45;chloride.ts -->
<g id="node12" class="node">
<title>src/crypto/crypto&#45;driver&#45;chloride.ts</title>
<path fill="#79cdcd" stroke="#79cdcd" d="M901,-1243.14C901,-1243.14 705,-1243.14 705,-1243.14 699,-1243.14 693,-1237.14 693,-1231.14 693,-1231.14 693,-1219.14 693,-1219.14 693,-1213.14 699,-1207.14 705,-1207.14 705,-1207.14 901,-1207.14 901,-1207.14 907,-1207.14 913,-1213.14 913,-1219.14 913,-1219.14 913,-1231.14 913,-1231.14 913,-1237.14 907,-1243.14 901,-1243.14"/>
<text text-anchor="middle" x="803" y="-1221.44" font-family="Helvetica,sans-Serif" font-size="14.00">src/crypto/crypto&#45;driver&#45;chloride.ts</text>
</g>
<!-- src/types/crypto&#45;types.ts -->
<g id="node19" class="node">
<title>src/types/crypto&#45;types.ts</title>
<path fill="#79cdcd" stroke="#79cdcd" d="M1128,-1159.14C1128,-1159.14 990,-1159.14 990,-1159.14 984,-1159.14 978,-1153.14 978,-1147.14 978,-1147.14 978,-1135.14 978,-1135.14 978,-1129.14 984,-1123.14 990,-1123.14 990,-1123.14 1128,-1123.14 1128,-1123.14 1134,-1123.14 1140,-1129.14 1140,-1135.14 1140,-1135.14 1140,-1147.14 1140,-1147.14 1140,-1153.14 1134,-1159.14 1128,-1159.14"/>
<text text-anchor="middle" x="1059" y="-1137.44" font-family="Helvetica,sans-Serif" font-size="14.00">src/types/crypto&#45;types.ts</text>
</g>
<!-- src/crypto/crypto&#45;driver&#45;chloride.ts&#45;&gt;src/types/crypto&#45;types.ts -->
<g id="edge8" class="edge">
<title>src/crypto/crypto&#45;driver&#45;chloride.ts&#45;&gt;src/types/crypto&#45;types.ts</title>
<path fill="none" stroke="#528b8b" stroke-width="2" d="M882.06,-1207.13C892.52,-1204.33 903.06,-1201.31 913,-1198.14 944.7,-1188.03 979.41,-1174.48 1006.92,-1163.12"/>
<polygon fill="#528b8b" stroke="#528b8b" stroke-width="2" points="1008.44,-1166.28 1016.33,-1159.21 1005.76,-1159.82 1008.44,-1166.28"/>
</g>
<!-- src/crypto/crypto&#45;driver&#45;chloride.ts&#45;&gt;src/util/bytes.ts -->
<g id="edge9" class="edge">
<title>src/crypto/crypto&#45;driver&#45;chloride.ts&#45;&gt;src/util/bytes.ts</title>
<path fill="none" stroke="#528b8b" stroke-width="2" d="M913.29,-1222.16C1061.12,-1218.13 1319.92,-1211.08 1438.47,-1207.84"/>
<polygon fill="#528b8b" stroke="#528b8b" stroke-width="2" points="1438.92,-1211.33 1448.82,-1207.56 1438.73,-1204.34 1438.92,-1211.33"/>
</g>
<!-- src/crypto/crypto&#45;driver&#45;node.ts -->
<g id="node13" class="node">
<title>src/crypto/crypto&#45;driver&#45;node.ts</title>
<path fill="#79cdcd" stroke="#79cdcd" d="M892.5,-1189.14C892.5,-1189.14 713.5,-1189.14 713.5,-1189.14 707.5,-1189.14 701.5,-1183.14 701.5,-1177.14 701.5,-1177.14 701.5,-1165.14 701.5,-1165.14 701.5,-1159.14 707.5,-1153.14 713.5,-1153.14 713.5,-1153.14 892.5,-1153.14 892.5,-1153.14 898.5,-1153.14 904.5,-1159.14 904.5,-1165.14 904.5,-1165.14 904.5,-1177.14 904.5,-1177.14 904.5,-1183.14 898.5,-1189.14 892.5,-1189.14"/>
<text text-anchor="middle" x="803" y="-1167.44" font-family="Helvetica,sans-Serif" font-size="14.00">src/crypto/crypto&#45;driver&#45;node.ts</text>
</g>
<!-- src/crypto/crypto&#45;driver&#45;node.ts&#45;&gt;src/types/crypto&#45;types.ts -->
<g id="edge10" class="edge">
<title>src/crypto/crypto&#45;driver&#45;node.ts&#45;&gt;src/types/crypto&#45;types.ts</title>
<path fill="none" stroke="#528b8b" stroke-width="2" d="M904.75,-1159.24C925.49,-1156.79 947.2,-1154.23 967.54,-1151.82"/>
<polygon fill="#528b8b" stroke="#528b8b" stroke-width="2" points="968.21,-1155.27 977.73,-1150.62 967.38,-1148.32 968.21,-1155.27"/>
</g>
<!-- src/crypto/crypto&#45;driver&#45;node.ts&#45;&gt;src/util/bytes.ts -->
<g id="edge11" class="edge">
<title>src/crypto/crypto&#45;driver&#45;node.ts&#45;&gt;src/util/bytes.ts</title>
<path fill="none" stroke="#528b8b" stroke-width="2" d="M904.61,-1176.19C1050.77,-1183.53 1317.54,-1196.93 1438.46,-1203"/>
<polygon fill="#528b8b" stroke="#528b8b" stroke-width="2" points="1438.49,-1206.5 1448.65,-1203.51 1438.84,-1199.51 1438.49,-1206.5"/>
</g>
<!-- src/crypto/crypto.ts -->
<g id="node14" class="node">
<title>src/crypto/crypto.ts</title>
<path fill="#79cdcd" stroke="#79cdcd" d="M625,-1067.14C625,-1067.14 519,-1067.14 519,-1067.14 513,-1067.14 507,-1061.14 507,-1055.14 507,-1055.14 507,-1043.14 507,-1043.14 507,-1037.14 513,-1031.14 519,-1031.14 519,-1031.14 625,-1031.14 625,-1031.14 631,-1031.14 637,-1037.14 637,-1043.14 637,-1043.14 637,-1055.14 637,-1055.14 637,-1061.14 631,-1067.14 625,-1067.14"/>
<text text-anchor="middle" x="572" y="-1045.44" font-family="Helvetica,sans-Serif" font-size="14.00">src/crypto/crypto.ts</text>
</g>
<!-- src/crypto/crypto.ts&#45;&gt;src/base32.ts -->
<g id="edge17" class="edge">
<title>src/crypto/crypto.ts&#45;&gt;src/base32.ts</title>
<path fill="none" stroke="#528b8b" stroke-width="2" d="M596.38,-1031.06C619.59,-1014.08 656.82,-989.38 693,-976.14 748.33,-955.9 912.24,-935.35 1000.38,-925.36"/>
<polygon fill="#528b8b" stroke="#528b8b" stroke-width="2" points="1000.94,-928.82 1010.48,-924.23 1000.15,-921.87 1000.94,-928.82"/>
</g>
<!-- src/crypto/crypto.ts&#45;&gt;src/core&#45;validators/addresses.ts -->
<g id="edge19" class="edge">
<title>src/crypto/crypto.ts&#45;&gt;src/core&#45;validators/addresses.ts</title>
<path fill="none" stroke="#528b8b" stroke-width="2" d="M637.15,-1049.14C715.48,-1049.14 849.31,-1049.14 945.04,-1049.14"/>
<polygon fill="#528b8b" stroke="#528b8b" stroke-width="2" points="945.05,-1052.64 955.05,-1049.14 945.05,-1045.64 945.05,-1052.64"/>
</g>
<!-- src/crypto/crypto.ts&#45;&gt;src/crypto/crypto&#45;driver&#45;chloride.ts -->
<g id="edge12" class="edge">
<title>src/crypto/crypto.ts&#45;&gt;src/crypto/crypto&#45;driver&#45;chloride.ts</title>
<path fill="none" stroke="#528b8b" stroke-width="2" d="M582.34,-1067.23C599.68,-1098.91 639.94,-1164.29 693,-1198.14 695.59,-1199.79 698.27,-1201.34 701.02,-1202.79"/>
<polygon fill="#528b8b" stroke="#528b8b" stroke-width="2" points="699.51,-1205.95 710.04,-1207.13 702.54,-1199.64 699.51,-1205.95"/>
</g>
<!-- src/crypto/crypto.ts&#45;&gt;src/crypto/crypto&#45;driver&#45;node.ts -->
<g id="edge13" class="edge">
<title>src/crypto/crypto.ts&#45;&gt;src/crypto/crypto&#45;driver&#45;node.ts</title>
<path fill="none" stroke="#528b8b" stroke-width="2" d="M592.33,-1067.14C614.9,-1087.29 654.12,-1119.66 693,-1139.14 700.81,-1143.06 709.19,-1146.57 717.7,-1149.72"/>
<polygon fill="#528b8b" stroke="#528b8b" stroke-width="2" points="716.74,-1153.09 727.34,-1153.11 719.07,-1146.49 716.74,-1153.09"/>
</g>
<!-- src/crypto/keypair.ts -->
<g id="node15" class="node">
<title>src/crypto/keypair.ts</title>
<path fill="#79cdcd" stroke="#79cdcd" d="M859.5,-1021.14C859.5,-1021.14 746.5,-1021.14 746.5,-1021.14 740.5,-1021.14 734.5,-1015.14 734.5,-1009.14 734.5,-1009.14 734.5,-997.14 734.5,-997.14 734.5,-991.14 740.5,-985.14 746.5,-985.14 746.5,-985.14 859.5,-985.14 859.5,-985.14 865.5,-985.14 871.5,-991.14 871.5,-997.14 871.5,-997.14 871.5,-1009.14 871.5,-1009.14 871.5,-1015.14 865.5,-1021.14 859.5,-1021.14"/>
<text text-anchor="middle" x="803" y="-999.44" font-family="Helvetica,sans-Serif" font-size="14.00">src/crypto/keypair.ts</text>
</g>
<!-- src/crypto/crypto.ts&#45;&gt;src/crypto/keypair.ts -->
<g id="edge18" class="edge">
<title>src/crypto/crypto.ts&#45;&gt;src/crypto/keypair.ts</title>
<path fill="none" stroke="#528b8b" stroke-width="2" d="M637.09,-1036.26C664.2,-1030.82 696.01,-1024.43 724.43,-1018.72"/>
<polygon fill="#528b8b" stroke="#528b8b" stroke-width="2" points="725.21,-1022.13 734.32,-1016.73 723.83,-1015.27 725.21,-1022.13"/>
</g>
<!-- src/crypto/crypto.ts&#45;&gt;src/types/crypto&#45;types.ts -->
<g id="edge15" class="edge">
<title>src/crypto/crypto.ts&#45;&gt;src/types/crypto&#45;types.ts</title>
<path fill="none" stroke="#528b8b" stroke-width="2" d="M607.19,-1067.24C630.68,-1078.84 662.93,-1093.17 693,-1101.14 784.52,-1125.39 892.69,-1134.97 967.4,-1138.73"/>
<polygon fill="#528b8b" stroke="#528b8b" stroke-width="2" points="967.56,-1142.24 977.71,-1139.23 967.89,-1135.25 967.56,-1142.24"/>
</g>
<!-- src/crypto/crypto.ts&#45;&gt;src/types/doc&#45;types.ts -->
<g id="edge14" class="edge">
<title>src/crypto/crypto.ts&#45;&gt;src/types/doc&#45;types.ts</title>
<path fill="none" stroke="#528b8b" stroke-width="2" d="M590.88,-1030.81C621.3,-999.79 680.97,-939.68 693,-933.14 781.17,-885.18 815.51,-906 913,-882.14 1027.13,-854.2 1067.99,-876.17 1169,-816.14 1221.76,-784.78 1266.85,-727.49 1290.43,-693.82"/>
<polygon fill="#528b8b" stroke="#528b8b" stroke-width="2" points="1293.45,-695.62 1296.23,-685.4 1287.68,-691.65 1293.45,-695.62"/>
</g>
<!-- src/crypto/crypto.ts&#45;&gt;src/util/errors.ts -->
<g id="edge16" class="edge">
<title>src/crypto/crypto.ts&#45;&gt;src/util/errors.ts</title>
<path fill="none" stroke="#528b8b" stroke-width="2" d="M637.24,-1063.8C747.75,-1086.45 980.19,-1122.7 1169,-1076.14 1207.52,-1066.64 1247.17,-1044.35 1274.21,-1026.88"/>
<polygon fill="#528b8b" stroke="#528b8b" stroke-width="2" points="1276.46,-1029.59 1282.88,-1021.16 1272.61,-1023.74 1276.46,-1029.59"/>
</g>
<!-- src/crypto/keypair.ts&#45;&gt;src/base32.ts -->
<g id="edge22" class="edge">
<title>src/crypto/keypair.ts&#45;&gt;src/base32.ts</title>
<path fill="none" stroke="#528b8b" stroke-width="2" d="M871.68,-985.8C885.55,-981.55 899.9,-976.62 913,-971.14 929.88,-964.07 932.12,-958.21 949,-951.14 965.35,-944.3 983.65,-938.32 1000.52,-933.43"/>
<polygon fill="#528b8b" stroke="#528b8b" stroke-width="2" points="1001.59,-936.77 1010.26,-930.69 999.69,-930.03 1001.59,-936.77"/>
</g>
<!-- src/crypto/keypair.ts&#45;&gt;src/core&#45;validators/addresses.ts -->
<g id="edge24" class="edge">
<title>src/crypto/keypair.ts&#45;&gt;src/core&#45;validators/addresses.ts</title>
<path fill="none" stroke="#528b8b" stroke-width="2" d="M871.73,-1015.41C895.32,-1019.68 922.42,-1024.59 948.52,-1029.31"/>
<polygon fill="#528b8b" stroke="#528b8b" stroke-width="2" points="948,-1032.77 958.46,-1031.11 949.25,-1025.89 948,-1032.77"/>
</g>
<!-- src/crypto/keypair.ts&#45;&gt;src/types/crypto&#45;types.ts -->
<g id="edge23" class="edge">
<title>src/crypto/keypair.ts&#45;&gt;src/types/crypto&#45;types.ts</title>
<path fill="none" stroke="#528b8b" stroke-width="2" d="M837.21,-1021.18C883.03,-1046.08 965.67,-1090.98 1015.82,-1118.22"/>
<polygon fill="#528b8b" stroke="#528b8b" stroke-width="2" points="1014.33,-1121.4 1024.79,-1123.09 1017.67,-1115.24 1014.33,-1121.4"/>
</g>
<!-- src/crypto/keypair.ts&#45;&gt;src/types/doc&#45;types.ts -->
<g id="edge20" class="edge">
<title>src/crypto/keypair.ts&#45;&gt;src/types/doc&#45;types.ts</title>
<path fill="none" stroke="#528b8b" stroke-width="2" d="M871.79,-999.9C964.02,-994.28 1122.87,-979.9 1169,-946.14 1254.93,-883.26 1290.88,-752.23 1302.92,-694.95"/>
<polygon fill="#528b8b" stroke="#528b8b" stroke-width="2" points="1306.35,-695.64 1304.89,-685.14 1299.49,-694.26 1306.35,-695.64"/>
</g>
<!-- src/crypto/keypair.ts&#45;&gt;src/util/errors.ts -->
<g id="edge21" class="edge">
<title>src/crypto/keypair.ts&#45;&gt;src/util/errors.ts</title>
<path fill="none" stroke="#528b8b" stroke-width="2" d="M871.71,-1003.14C969.49,-1003.14 1148.94,-1003.14 1244.39,-1003.14"/>
<polygon fill="#528b8b" stroke="#528b8b" stroke-width="2" points="1244.48,-1006.64 1254.48,-1003.14 1244.48,-999.64 1244.48,-1006.64"/>
</g>
<!-- src/format&#45;validators/format&#45;validator&#45;es4.ts&#45;&gt;src/core&#45;validators/characters.ts -->
<g id="edge40" class="edge">
<title>src/format&#45;validators/format&#45;validator&#45;es4.ts&#45;&gt;src/core&#45;validators/characters.ts</title>
<path fill="none" stroke="#528b8b" stroke-width="2" d="M326.62,-1067.38C353.42,-1101.95 416.54,-1177.11 487,-1217.14 711.54,-1344.71 1027.51,-1328.69 1194.41,-1308.14"/>
<polygon fill="#528b8b" stroke="#528b8b" stroke-width="2" points="1195.21,-1311.56 1204.7,-1306.84 1194.34,-1304.62 1195.21,-1311.56"/>
</g>
<!-- src/format&#45;validators/format&#45;validator&#45;es4.ts&#45;&gt;src/core&#45;validators/checkers.ts -->
<g id="edge41" class="edge">
<title>src/format&#45;validators/format&#45;validator&#45;es4.ts&#45;&gt;src/core&#45;validators/checkers.ts</title>
<path fill="none" stroke="#528b8b" stroke-width="2" d="M318.17,-1067.43C333.72,-1118.63 385.41,-1263.55 487,-1323.14 634.65,-1409.75 842.4,-1394.22 962.33,-1374.84"/>
<polygon fill="#528b8b" stroke="#528b8b" stroke-width="2" points="962.94,-1378.28 972.24,-1373.2 961.8,-1371.38 962.94,-1378.28"/>
</g>
<!-- src/format&#45;validators/format&#45;validator&#45;es4.ts&#45;&gt;src/crypto/crypto.ts -->
<g id="edge42" class="edge">
<title>src/format&#45;validators/format&#45;validator&#45;es4.ts&#45;&gt;src/crypto/crypto.ts</title>
<path fill="none" stroke="#528b8b" stroke-width="2" d="M451.06,-1049.14C466.68,-1049.14 482.12,-1049.14 496.46,-1049.14"/>
<polygon fill="#528b8b" stroke="#528b8b" stroke-width="2" points="496.7,-1052.64 506.7,-1049.14 496.7,-1045.64 496.7,-1052.64"/>
</g>
<!-- src/format&#45;validators/format&#45;validator&#45;es4.ts&#45;&gt;src/types/doc&#45;types.ts -->
<g id="edge37" class="edge">
<title>src/format&#45;validators/format&#45;validator&#45;es4.ts&#45;&gt;src/types/doc&#45;types.ts</title>
<path fill="none" stroke="#528b8b" stroke-width="2" d="M332.63,-1031.06C363.61,-1003.22 426.55,-949.37 487,-914.14 572.72,-864.18 599,-859.89 693,-828.14 880.14,-764.93 1106.19,-711.41 1225.29,-684.93"/>
<polygon fill="#528b8b" stroke="#528b8b" stroke-width="2" points="1226.07,-688.34 1235.08,-682.76 1224.56,-681.51 1226.07,-688.34"/>
</g>
<!-- src/types/format&#45;validator&#45;types.ts -->
<g id="node21" class="node">
<title>src/types/format&#45;validator&#45;types.ts</title>
<path fill="#79cdcd" stroke="#79cdcd" d="M1157,-807.14C1157,-807.14 961,-807.14 961,-807.14 955,-807.14 949,-801.14 949,-795.14 949,-795.14 949,-783.14 949,-783.14 949,-777.14 955,-771.14 961,-771.14 961,-771.14 1157,-771.14 1157,-771.14 1163,-771.14 1169,-777.14 1169,-783.14 1169,-783.14 1169,-795.14 1169,-795.14 1169,-801.14 1163,-807.14 1157,-807.14"/>
<text text-anchor="middle" x="1059" y="-785.44" font-family="Helvetica,sans-Serif" font-size="14.00">src/types/format&#45;validator&#45;types.ts</text>
</g>
<!-- src/format&#45;validators/format&#45;validator&#45;es4.ts&#45;&gt;src/types/format&#45;validator&#45;types.ts -->
<g id="edge38" class="edge">
<title>src/format&#45;validators/format&#45;validator&#45;es4.ts&#45;&gt;src/types/format&#45;validator&#45;types.ts</title>
<path fill="none" stroke="#528b8b" stroke-width="2" d="M358.67,-1031.07C429.78,-1003.1 571.43,-948.09 693,-905.14 805.91,-865.25 834.65,-856.68 949,-821.14 960.81,-817.47 973.38,-813.67 985.63,-810.04"/>
<polygon fill="#528b8b" stroke="#528b8b" stroke-width="2" points="986.76,-813.35 995.36,-807.16 984.78,-806.64 986.76,-813.35"/>
</g>
<!-- src/format&#45;validators/format&#45;validator&#45;es4.ts&#45;&gt;src/util/errors.ts -->
<g id="edge39" class="edge">
<title>src/format&#45;validators/format&#45;validator&#45;es4.ts&#45;&gt;src/util/errors.ts</title>
<path fill="none" stroke="#528b8b" stroke-width="2" d="M336.6,-1067.21C393.82,-1109.75 546.07,-1215.35 693,-1252.14 787.85,-1275.89 816.45,-1267.58 913,-1252.14 1031.24,-1233.24 1069.76,-1235.15 1169,-1168.14 1223.94,-1131.04 1269.36,-1066.37 1292.16,-1029.98"/>
<polygon fill="#528b8b" stroke="#528b8b" stroke-width="2" points="1295.19,-1031.73 1297.46,-1021.38 1289.23,-1028.05 1295.19,-1031.73"/>
</g>
<!-- src/storage/storage&#45;async.ts&#45;&gt;src/crypto/crypto.ts -->
<g id="edge56" class="edge">
<title>src/storage/storage&#45;async.ts&#45;&gt;src/crypto/crypto.ts</title>
<path fill="none" stroke="#528b8b" stroke-width="2" d="M324.25,-652.24C365.07,-717.9 505.52,-943.82 554.22,-1022.15"/>
<polygon fill="#528b8b" stroke="#528b8b" stroke-width="2" points="551.44,-1024.3 559.69,-1030.95 557.38,-1020.6 551.44,-1024.3"/>
</g>
<!-- src/storage/storage&#45;async.ts&#45;&gt;src/types/doc&#45;types.ts -->
<g id="edge48" class="edge">
<title>src/storage/storage&#45;async.ts&#45;&gt;src/types/doc&#45;types.ts</title>
<path fill="none" stroke="#528b8b" stroke-width="2" d="M370.74,-652.14C404.3,-661.66 447.62,-672.35 487,-677.14 627.89,-694.29 1046.36,-678.71 1225.32,-670.94"/>
<polygon fill="#528b8b" stroke="#528b8b" stroke-width="2" points="1225.63,-674.43 1235.47,-670.5 1225.33,-667.44 1225.63,-674.43"/>
</g>
<!-- src/storage/storage&#45;async.ts&#45;&gt;src/types/format&#45;validator&#45;types.ts -->
<g id="edge51" class="edge">
<title>src/storage/storage&#45;async.ts&#45;&gt;src/types/format&#45;validator&#45;types.ts</title>
<path fill="none" stroke="#528b8b" stroke-width="2" d="M334.32,-652.34C365.5,-677.77 426.43,-723.07 487,-743.14 637.09,-792.88 821,-798.58 938.82,-795.76"/>
<polygon fill="#528b8b" stroke="#528b8b" stroke-width="2" points="939.05,-799.25 948.95,-795.49 938.86,-792.26 939.05,-799.25"/>
</g>
<!-- src/storage/storage&#45;async.ts&#45;&gt;src/types/query&#45;types.ts -->
<g id="edge49" class="edge">
<title>src/storage/storage&#45;async.ts&#45;&gt;src/types/query&#45;types.ts</title>
<path fill="none" stroke="#528b8b" stroke-width="2" d="M405.04,-628.92C474.77,-623.77 572.65,-614 657,-596.14 685.98,-590 717.4,-580.41 743.56,-571.57"/>
<polygon fill="#528b8b" stroke="#528b8b" stroke-width="2" points="744.99,-574.79 753.32,-568.23 742.72,-568.16 744.99,-574.79"/>
</g>
<!-- src/storage/storage&#45;async.ts&#45;&gt;src/types/storage&#45;types.ts -->
<g id="edge50" class="edge">
<title>src/storage/storage&#45;async.ts&#45;&gt;src/types/storage&#45;types.ts</title>
<path fill="none" stroke="#528b8b" stroke-width="2" d="M384.52,-616.12C417.1,-607.91 455.82,-598.16 489.52,-589.67"/>
<polygon fill="#528b8b" stroke="#528b8b" stroke-width="2" points="490.49,-593.03 499.34,-587.19 488.78,-586.24 490.49,-593.03"/>
</g>
<!-- src/storage/storage&#45;async.ts&#45;&gt;src/types/util&#45;types.ts -->
<g id="edge47" class="edge">
<title>src/storage/storage&#45;async.ts&#45;&gt;src/types/util&#45;types.ts</title>
<path fill="none" stroke="#528b8b" stroke-width="2" d="M348.67,-616.04C427.19,-575.62 611.63,-477.41 657,-424.14 684.4,-391.97 661.03,-363.77 693,-336.14 701.3,-328.97 711.22,-323.64 721.64,-319.7"/>
<polygon fill="#528b8b" stroke="#528b8b" stroke-width="2" points="722.96,-322.95 731.33,-316.46 720.73,-316.31 722.96,-322.95"/>
</g>
<!-- src/storage/storage&#45;async.ts&#45;&gt;src/util/bytes.ts -->
<g id="edge53" class="edge">
<title>src/storage/storage&#45;async.ts&#45;&gt;src/util/bytes.ts</title>
<path fill="none" stroke="#528b8b" stroke-width="2" d="M356.17,-652.18C390.9,-665.92 441.27,-684.12 487,-694.14 784.55,-759.34 889.59,-640.81 1169,-762.14 1301.31,-819.59 1330.59,-857.75 1413,-976.14 1458.32,-1041.25 1484.17,-1132.8 1494.97,-1178.26"/>
<polygon fill="#528b8b" stroke="#528b8b" stroke-width="2" points="1491.56,-1179.05 1497.22,-1188.01 1498.38,-1177.48 1491.56,-1179.05"/>
</g>
<!-- src/util/compare.ts -->
<g id="node26" class="node">
<title>src/util/compare.ts</title>
<path fill="#79cdcd" stroke="#79cdcd" d="M623.5,-327.14C623.5,-327.14 520.5,-327.14 520.5,-327.14 514.5,-327.14 508.5,-321.14 508.5,-315.14 508.5,-315.14 508.5,-303.14 508.5,-303.14 508.5,-297.14 514.5,-291.14 520.5,-291.14 520.5,-291.14 623.5,-291.14 623.5,-291.14 629.5,-291.14 635.5,-297.14 635.5,-303.14 635.5,-303.14 635.5,-315.14 635.5,-315.14 635.5,-321.14 629.5,-327.14 623.5,-327.14"/>
<text text-anchor="middle" x="572" y="-305.44" font-family="Helvetica,sans-Serif" font-size="14.00">src/util/compare.ts</text>
</g>
<!-- src/storage/storage&#45;async.ts&#45;&gt;src/util/compare.ts -->
<g id="edge55" class="edge">
<title>src/storage/storage&#45;async.ts&#45;&gt;src/util/compare.ts</title>
<path fill="none" stroke="#528b8b" stroke-width="2" d="M333.65,-616.12C363.93,-588.57 420.14,-532.93 451,-474.14 480.46,-418.02 443.45,-382.19 487,-336.14 490.59,-332.34 494.72,-329.08 499.17,-326.27"/>
<polygon fill="#528b8b" stroke="#528b8b" stroke-width="2" points="500.98,-329.27 508.09,-321.42 497.64,-323.12 500.98,-329.27"/>
</g>
<!-- src/storage/storage&#45;async.ts&#45;&gt;src/util/errors.ts -->
<g id="edge52" class="edge">
<title>src/storage/storage&#45;async.ts&#45;&gt;src/util/errors.ts</title>
<path fill="none" stroke="#528b8b" stroke-width="2" d="M329.22,-652.31C357.79,-683.07 420.42,-744.97 487,-775.14 767.12,-902.07 888.43,-766.21 1169,-892.14 1214.64,-912.63 1258.19,-951.64 1284.01,-977.52"/>
<polygon fill="#528b8b" stroke="#528b8b" stroke-width="2" points="1281.62,-980.09 1291.12,-984.77 1286.61,-975.18 1281.62,-980.09"/>
</g>
<!-- src/storage/storage&#45;async.ts&#45;&gt;src/util/log.ts -->
<g id="edge57" class="edge">
<title>src/storage/storage&#45;async.ts&#45;&gt;src/util/log.ts</title>
<path fill="none" stroke="#528b8b" stroke-width="2" d="M328.61,-616.03C370.53,-567.41 482.72,-437.34 487,-433.14 503.38,-417.06 523.03,-400.55 539.2,-387.61"/>
<polygon fill="#528b8b" stroke="#528b8b" stroke-width="2" points="541.64,-390.14 547.31,-381.19 537.3,-384.66 541.64,-390.14"/>
</g>
<!-- src/storage/storage&#45;async.ts&#45;&gt;src/util/misc.ts -->
<g id="edge54" class="edge">
<title>src/storage/storage&#45;async.ts&#45;&gt;src/util/misc.ts</title>
<path fill="none" stroke="#528b8b" stroke-width="2" d="M397.84,-652.17C524.3,-673.84 763.34,-694.05 913,-577.14 1011.06,-500.54 1044.51,-343.43 1054.37,-279.32"/>
<polygon fill="#528b8b" stroke="#528b8b" stroke-width="2" points="1057.87,-279.56 1055.85,-269.16 1050.94,-278.55 1057.87,-279.56"/>
</g>
<!-- src/storage/storage&#45;driver&#45;async&#45;memory.ts&#45;&gt;src/lock.ts -->
<g id="edge64" class="edge">
<title>src/storage/storage&#45;driver&#45;async&#45;memory.ts&#45;&gt;src/lock.ts</title>
<path fill="none" stroke="#528b8b" stroke-width="2" d="M360.24,-245.05C431.22,-221.18 566.68,-188.77 657,-249.14 691.79,-272.39 661.28,-308.84 693,-336.14 709.89,-350.67 733.43,-357.61 754.31,-360.84"/>
<polygon fill="#528b8b" stroke="#528b8b" stroke-width="2" points="753.93,-364.32 764.3,-362.14 754.84,-357.38 753.93,-364.32"/>
</g>
<!-- src/storage/storage&#45;driver&#45;async&#45;memory.ts&#45;&gt;src/query.ts -->
<g id="edge63" class="edge">
<title>src/storage/storage&#45;driver&#45;async&#45;memory.ts&#45;&gt;src/query.ts</title>
<path fill="none" stroke="#528b8b" stroke-width="2" d="M345.17,-245.1C379.69,-226.07 436.4,-195.78 487,-173.14 497.25,-168.55 508.38,-164.02 519.08,-159.86"/>
<polygon fill="#528b8b" stroke="#528b8b" stroke-width="2" points="520.65,-163.01 528.75,-156.17 518.16,-156.47 520.65,-163.01"/>
</g>
<!-- src/storage/storage&#45;driver&#45;async&#45;memory.ts&#45;&gt;src/types/doc&#45;types.ts -->
<g id="edge59" class="edge">
<title>src/storage/storage&#45;driver&#45;async&#45;memory.ts&#45;&gt;src/types/doc&#45;types.ts</title>
<path fill="none" stroke="#528b8b" stroke-width="2" d="M326.55,-245.08C352.99,-211.56 415.19,-140.68 487,-114.14 629.18,-61.58 1051.43,-30.47 1169,-126.14 1250.83,-192.73 1293.97,-536.9 1305.08,-638.73"/>
<polygon fill="#528b8b" stroke="#528b8b" stroke-width="2" points="1301.62,-639.3 1306.16,-648.87 1308.58,-638.55 1301.62,-639.3"/>
</g>
<!-- src/storage/storage&#45;driver&#45;async&#45;memory.ts&#45;&gt;src/types/query&#45;types.ts -->
<g id="edge60" class="edge">
<title>src/storage/storage&#45;driver&#45;async&#45;memory.ts&#45;&gt;src/types/query&#45;types.ts</title>
<path fill="none" stroke="#528b8b" stroke-width="2" d="M451.21,-255.4C532.39,-253.75 625.15,-257.82 657,-282.14 697.21,-312.84 670.54,-344.8 693,-390.14 717.95,-440.52 756.84,-493.37 780.79,-523.96"/>
<polygon fill="#528b8b" stroke="#528b8b" stroke-width="2" points="778.18,-526.3 787.12,-531.97 783.67,-521.96 778.18,-526.3"/>
</g>
<!-- src/storage/storage&#45;driver&#45;async&#45;memory.ts&#45;&gt;src/types/storage&#45;types.ts -->
<g id="edge61" class="edge">
<title>src/storage/storage&#45;driver&#45;async&#45;memory.ts&#45;&gt;src/types/storage&#45;types.ts</title>
<path fill="none" stroke="#528b8b" stroke-width="2" d="M329.41,-281.29C355.53,-310.29 408.01,-369.05 451,-420.14 486.77,-462.65 527.03,-513.22 550.64,-543.17"/>
<polygon fill="#528b8b" stroke="#528b8b" stroke-width="2" points="547.9,-545.35 556.84,-551.05 553.4,-541.02 547.9,-545.35"/>
</g>
<!-- src/storage/storage&#45;driver&#45;async&#45;memory.ts&#45;&gt;src/types/util&#45;types.ts -->
<g id="edge58" class="edge">
<title>src/storage/storage&#45;driver&#45;async&#45;memory.ts&#45;&gt;src/types/util&#45;types.ts</title>
<path fill="none" stroke="#528b8b" stroke-width="2" d="M349.61,-245.03C414.4,-215.65 552.29,-165.29 657,-211.14 678.61,-220.6 674.38,-235.66 693,-250.14 711.04,-264.16 732.87,-276.7 752.24,-286.58"/>
<polygon fill="#528b8b" stroke="#528b8b" stroke-width="2" points="750.72,-289.73 761.23,-291.06 753.84,-283.47 750.72,-289.73"/>
</g>
<!-- src/storage/storage&#45;driver&#45;async&#45;memory.ts&#45;&gt;src/util/compare.ts -->
<g id="edge62" class="edge">
<title>src/storage/storage&#45;driver&#45;async&#45;memory.ts&#45;&gt;src/util/compare.ts</title>
<path fill="none" stroke="#528b8b" stroke-width="2" d="M414.23,-281.19C442.27,-286.19 472.15,-291.51 498.22,-296.16"/>
<polygon fill="#528b8b" stroke="#528b8b" stroke-width="2" points="497.93,-299.67 508.39,-297.98 499.16,-292.77 497.93,-299.67"/>
</g>
<!-- src/storage/storage&#45;driver&#45;async&#45;memory.ts&#45;&gt;src/util/log.ts -->
<g id="edge65" class="edge">
<title>src/storage/storage&#45;driver&#45;async&#45;memory.ts&#45;&gt;src/util/log.ts</title>
<path fill="none" stroke="#528b8b" stroke-width="2" d="M353.39,-281.25C388.4,-296.67 440.6,-318.99 487,-336.14 496.37,-339.61 506.43,-343.06 516.2,-346.28"/>
<polygon fill="#528b8b" stroke="#528b8b" stroke-width="2" points="515.26,-349.65 525.85,-349.42 517.42,-343 515.26,-349.65"/>
</g>
<!-- src/types/format&#45;validator&#45;types.ts&#45;&gt;src/types/doc&#45;types.ts -->
<g id="edge66" class="edge">
<title>src/types/format&#45;validator&#45;types.ts&#45;&gt;src/types/doc&#45;types.ts</title>
<path fill="none" stroke="#528b8b" stroke-width="2" d="M1096.59,-771.14C1140.55,-749.51 1214.33,-713.22 1262.07,-689.73"/>
<polygon fill="#528b8b" stroke="#528b8b" stroke-width="2" points="1263.83,-692.77 1271.26,-685.21 1260.74,-686.49 1263.83,-692.77"/>
</g>
<!-- src/types/format&#45;validator&#45;types.ts&#45;&gt;src/util/errors.ts -->
<g id="edge67" class="edge">
<title>src/types/format&#45;validator&#45;types.ts&#45;&gt;src/util/errors.ts</title>
<path fill="none" stroke="#528b8b" stroke-width="2" d="M1092.35,-807.22C1114.77,-820.38 1144.83,-839.31 1169,-859.14 1214.18,-896.2 1259.99,-946.72 1286.1,-977.02"/>
<polygon fill="#528b8b" stroke="#528b8b" stroke-width="2" points="1283.77,-979.67 1292.93,-985 1289.09,-975.12 1283.77,-979.67"/>
</g>
<!-- src/types/query&#45;types.ts&#45;&gt;src/types/doc&#45;types.ts -->
<g id="edge68" class="edge">
<title>src/types/query&#45;types.ts&#45;&gt;src/types/doc&#45;types.ts</title>
<path fill="none" stroke="#528b8b" stroke-width="2" d="M882.68,-550.65C957.83,-553.11 1073.47,-562.1 1169,-592.14 1206.72,-604 1246.05,-626.3 1273.21,-643.51"/>
<polygon fill="#528b8b" stroke="#528b8b" stroke-width="2" points="1271.63,-646.65 1281.93,-649.13 1275.42,-640.77 1271.63,-646.65"/>
</g>
<!-- src/types/storage&#45;types.ts&#45;&gt;src/lock.ts -->
<g id="edge71" class="edge">
<title>src/types/storage&#45;types.ts&#45;&gt;src/lock.ts</title>
<path fill="none" stroke="#528b8b" stroke-width="2" d="M593.32,-550.86C634.4,-513.9 727.38,-430.27 774.1,-388.24"/>
<polygon fill="#528b8b" stroke="#528b8b" stroke-width="2" points="776.63,-390.67 781.72,-381.38 771.95,-385.47 776.63,-390.67"/>
</g>
<!-- src/types/storage&#45;types.ts&#45;&gt;src/types/doc&#45;types.ts -->
<g id="edge69" class="edge">
<title>src/types/storage&#45;types.ts&#45;&gt;src/types/doc&#45;types.ts</title>
<path fill="none" stroke="#528b8b" stroke-width="2" d="M657.31,-580.38C799.22,-599.3 1084.06,-637.28 1225.04,-656.08"/>
<polygon fill="#528b8b" stroke="#528b8b" stroke-width="2" points="1224.98,-659.6 1235.35,-657.45 1225.9,-652.66 1224.98,-659.6"/>
</g>
<!-- src/types/storage&#45;types.ts&#45;&gt;src/types/query&#45;types.ts -->
<g id="edge70" class="edge">
<title>src/types/storage&#45;types.ts&#45;&gt;src/types/query&#45;types.ts</title>
<path fill="none" stroke="#528b8b" stroke-width="2" d="M657.3,-562.15C675.48,-560.64 694.76,-559.04 713.11,-557.51"/>
<polygon fill="#528b8b" stroke="#528b8b" stroke-width="2" points="713.53,-560.99 723.2,-556.68 712.95,-554.02 713.53,-560.99"/>
</g>
<!-- src/util/compare.ts&#45;&gt;src/types/util&#45;types.ts -->
<g id="edge72" class="edge">
<title>src/util/compare.ts&#45;&gt;src/types/util&#45;types.ts</title>
<path fill="none" stroke="#528b8b" stroke-width="2" d="M635.58,-309.14C661.99,-309.14 693.09,-309.14 721.21,-309.14"/>
<polygon fill="#528b8b" stroke="#528b8b" stroke-width="2" points="721.42,-312.64 731.42,-309.14 721.42,-305.64 721.42,-312.64"/>
</g>
</g>
</svg>
