<?xml version="1.0" encoding="UTF-8" standalone="no"?>
<!DOCTYPE svg PUBLIC "-//W3C//DTD SVG 1.1//EN"
 "http://www.w3.org/Graphics/SVG/1.1/DTD/svg11.dtd">
<!-- Generated by graphviz version 2.44.1 (20200629.0846)
 -->
<!-- Title: G Pages: 1 -->
<svg width="986pt" height="665pt"
 viewBox="0.00 0.00 986.00 665.00" xmlns="http://www.w3.org/2000/svg" xmlns:xlink="http://www.w3.org/1999/xlink">
<g id="graph0" class="graph" transform="scale(1 1) rotate(0) translate(4 661)">
<title>G</title>
<polygon fill="white" stroke="transparent" points="-4,4 -4,-661 982,-661 982,4 -4,4"/>
<g id="clust1" class="cluster">
<title>cluster104486742</title>
<path fill="none" stroke="#8b7d6b" stroke-width="2" d="M20,-8C20,-8 958,-8 958,-8 964,-8 970,-14 970,-20 970,-20 970,-637 970,-637 970,-643 964,-649 958,-649 958,-649 20,-649 20,-649 14,-649 8,-643 8,-637 8,-637 8,-20 8,-20 8,-14 14,-8 20,-8"/>
<text text-anchor="start" x="478.5" y="-634.8" font-family="Helvetica,sans-Serif" font-weight="bold" font-size="14.00">src</text>
</g>
<g id="clust2" class="cluster">
<title>cluster5273713411</title>
<path fill="bisque" stroke="#8b7d6b" stroke-width="2" d="M710,-28C710,-28 950,-28 950,-28 956,-28 962,-34 962,-40 962,-40 962,-145 962,-145 962,-151 956,-157 950,-157 950,-157 710,-157 710,-157 704,-157 698,-151 698,-145 698,-145 698,-40 698,-40 698,-34 704,-28 710,-28"/>
<text text-anchor="start" x="783" y="-142.8" font-family="Helvetica,sans-Serif" font-weight="bold" font-size="14.00">coreValidators</text>
</g>
<g id="clust3" class="cluster">
<title>cluster9620826783</title>
<path fill="bisque" stroke="#8b7d6b" stroke-width="2" d="M404.5,-98C404.5,-98 641,-98 641,-98 647,-98 653,-104 653,-110 653,-110 653,-215 653,-215 653,-221 647,-227 641,-227 641,-227 404.5,-227 404.5,-227 398.5,-227 392.5,-221 392.5,-215 392.5,-215 392.5,-110 392.5,-110 392.5,-104 398.5,-98 404.5,-98"/>
<text text-anchor="start" x="501.75" y="-212.8" font-family="Helvetica,sans-Serif" font-weight="bold" font-size="14.00">crypto</text>
</g>
<g id="clust4" class="cluster">
<title>cluster8254137792</title>
<path fill="bisque" stroke="#8b7d6b" stroke-width="2" d="M220,-107C220,-107 302,-107 302,-107 308,-107 314,-113 314,-119 314,-119 314,-170 314,-170 314,-176 308,-182 302,-182 302,-182 220,-182 220,-182 214,-182 208,-176 208,-170 208,-170 208,-119 208,-119 208,-113 214,-107 220,-107"/>
<text text-anchor="start" x="216" y="-167.8" font-family="Helvetica,sans-Serif" font-weight="bold" font-size="14.00">docValidators</text>
</g>
<g id="clust5" class="cluster">
<title>cluster3017640599</title>
<path fill="bisque" stroke="#8b7d6b" stroke-width="2" d="M166,-328C166,-328 356,-328 356,-328 362,-328 368,-334 368,-340 368,-340 368,-445 368,-445 368,-451 362,-457 356,-457 356,-457 166,-457 166,-457 160,-457 154,-451 154,-445 154,-445 154,-340 154,-340 154,-334 160,-328 166,-328"/>
<text text-anchor="start" x="236.5" y="-442.8" font-family="Helvetica,sans-Serif" font-weight="bold" font-size="14.00">storage</text>
</g>
<g id="clust6" class="cluster">
<title>cluster2611136272</title>
<path fill="bisque" stroke="#8b7d6b" stroke-width="2" d="M524.5,-311C524.5,-311 947.5,-311 947.5,-311 953.5,-311 959.5,-317 959.5,-323 959.5,-323 959.5,-502 959.5,-502 959.5,-508 953.5,-514 947.5,-514 947.5,-514 524.5,-514 524.5,-514 518.5,-514 512.5,-508 512.5,-502 512.5,-502 512.5,-323 512.5,-323 512.5,-317 518.5,-311 524.5,-311"/>
<text text-anchor="start" x="718" y="-499.8" font-family="Helvetica,sans-Serif" font-weight="bold" font-size="14.00">types</text>
</g>
<!-- src/base32.ts -->
<g id="node1" class="node">
<title>src/base32.ts</title>
<path fill="#79cdcd" stroke="#79cdcd" d="M778,-261C778,-261 727,-261 727,-261 721,-261 715,-255 715,-249 715,-249 715,-237 715,-237 715,-231 721,-225 727,-225 727,-225 778,-225 778,-225 784,-225 790,-231 790,-237 790,-237 790,-249 790,-249 790,-255 784,-261 778,-261"/>
<text text-anchor="middle" x="752.5" y="-239.3" font-family="Helvetica,sans-Serif" font-size="14.00">base32.ts</text>
</g>
<!-- src/types/docTypes.ts -->
<g id="node16" class="node">
<title>src/types/docTypes.ts</title>
<path fill="#79cdcd" stroke="#79cdcd" d="M939.5,-355C939.5,-355 874.5,-355 874.5,-355 868.5,-355 862.5,-349 862.5,-343 862.5,-343 862.5,-331 862.5,-331 862.5,-325 868.5,-319 874.5,-319 874.5,-319 939.5,-319 939.5,-319 945.5,-319 951.5,-325 951.5,-331 951.5,-331 951.5,-343 951.5,-343 951.5,-349 945.5,-355 939.5,-355"/>
<text text-anchor="middle" x="907" y="-333.3" font-family="Helvetica,sans-Serif" font-size="14.00">docTypes.ts</text>
</g>
<!-- src/base32.ts&#45;&gt;src/types/docTypes.ts -->
<g id="edge1" class="edge">
<title>src/base32.ts&#45;&gt;src/types/docTypes.ts</title>
<path fill="none" stroke="#528b8b" stroke-width="2" d="M790.14,-257.79C801.28,-262.77 813.37,-268.68 824,-275 842.38,-285.93 861.51,-300.21 876.67,-312.31"/>
<polygon fill="#528b8b" stroke="#528b8b" stroke-width="2" points="874.68,-315.2 884.66,-318.78 879.09,-309.76 874.68,-315.2"/>
</g>
<!-- src/example&#45;app.ts -->
<g id="node2" class="node">
<title>src/example&#45;app.ts</title>
<path fill="#79cdcd" stroke="#79cdcd" d="M114,-426C114,-426 28,-426 28,-426 22,-426 16,-420 16,-414 16,-414 16,-402 16,-402 16,-396 22,-390 28,-390 28,-390 114,-390 114,-390 120,-390 126,-396 126,-402 126,-402 126,-414 126,-414 126,-420 120,-426 114,-426"/>
<text text-anchor="middle" x="71" y="-404.3" font-family="Helvetica,sans-Serif" font-size="14.00">example&#45;app.ts</text>
</g>
<!-- src/follower.ts -->
<g id="node3" class="node">
<title>src/follower.ts</title>
<path fill="#79cdcd" stroke="#79cdcd" d="M461,-484C461,-484 408,-484 408,-484 402,-484 396,-478 396,-472 396,-472 396,-460 396,-460 396,-454 402,-448 408,-448 408,-448 461,-448 461,-448 467,-448 473,-454 473,-460 473,-460 473,-472 473,-472 473,-478 467,-484 461,-484"/>
<text text-anchor="middle" x="434.5" y="-462.3" font-family="Helvetica,sans-Serif" font-size="14.00">follower.ts</text>
</g>
<!-- src/example&#45;app.ts&#45;&gt;src/follower.ts -->
<g id="edge26" class="edge">
<title>src/example&#45;app.ts&#45;&gt;src/follower.ts</title>
<path fill="none" stroke="#528b8b" stroke-width="2" d="M92.93,-426.26C108.58,-438.66 131.14,-454.03 154,-461 232.45,-484.91 329.11,-479.43 385.76,-472.95"/>
<polygon fill="#528b8b" stroke="#528b8b" stroke-width="2" points="386.35,-476.4 395.86,-471.73 385.52,-469.45 386.35,-476.4"/>
</g>
<!-- src/docValidators/es4.ts -->
<g id="node12" class="node">
<title>src/docValidators/es4.ts</title>
<path fill="#79cdcd" stroke="#79cdcd" d="M276,-151C276,-151 246,-151 246,-151 240,-151 234,-145 234,-139 234,-139 234,-127 234,-127 234,-121 240,-115 246,-115 246,-115 276,-115 276,-115 282,-115 288,-121 288,-127 288,-127 288,-139 288,-139 288,-145 282,-151 276,-151"/>
<text text-anchor="middle" x="261" y="-129.3" font-family="Helvetica,sans-Serif" font-size="14.00">es4.ts</text>
</g>
<!-- src/example&#45;app.ts&#45;&gt;src/docValidators/es4.ts -->
<g id="edge23" class="edge">
<title>src/example&#45;app.ts&#45;&gt;src/docValidators/es4.ts</title>
<path fill="none" stroke="#528b8b" stroke-width="2" d="M84.34,-389.96C116.67,-342.66 204,-214.92 241.97,-159.38"/>
<polygon fill="#528b8b" stroke="#528b8b" stroke-width="2" points="244.87,-161.34 247.62,-151.11 239.09,-157.39 244.87,-161.34"/>
</g>
<!-- src/storage/storageAsync.ts -->
<g id="node13" class="node">
<title>src/storage/storageAsync.ts</title>
<path fill="#79cdcd" stroke="#79cdcd" d="M305.5,-372C305.5,-372 216.5,-372 216.5,-372 210.5,-372 204.5,-366 204.5,-360 204.5,-360 204.5,-348 204.5,-348 204.5,-342 210.5,-336 216.5,-336 216.5,-336 305.5,-336 305.5,-336 311.5,-336 317.5,-342 317.5,-348 317.5,-348 317.5,-360 317.5,-360 317.5,-366 311.5,-372 305.5,-372"/>
<text text-anchor="middle" x="261" y="-350.3" font-family="Helvetica,sans-Serif" font-size="14.00">storageAsync.ts</text>
</g>
<!-- src/example&#45;app.ts&#45;&gt;src/storage/storageAsync.ts -->
<g id="edge25" class="edge">
<title>src/example&#45;app.ts&#45;&gt;src/storage/storageAsync.ts</title>
<path fill="none" stroke="#528b8b" stroke-width="2" d="M125.21,-389.89C134.76,-386.81 144.65,-383.73 154,-381 166.93,-377.23 180.83,-373.48 194.17,-370.02"/>
<polygon fill="#528b8b" stroke="#528b8b" stroke-width="2" points="195.42,-373.31 204.24,-367.44 193.69,-366.53 195.42,-373.31"/>
</g>
<!-- src/storage/storageDriverAsyncMemory.ts -->
<g id="node14" class="node">
<title>src/storage/storageDriverAsyncMemory.ts</title>
<path fill="#79cdcd" stroke="#79cdcd" d="M348,-426C348,-426 174,-426 174,-426 168,-426 162,-420 162,-414 162,-414 162,-402 162,-402 162,-396 168,-390 174,-390 174,-390 348,-390 348,-390 354,-390 360,-396 360,-402 360,-402 360,-414 360,-414 360,-420 354,-426 348,-426"/>
<text text-anchor="middle" x="261" y="-404.3" font-family="Helvetica,sans-Serif" font-size="14.00">storageDriverAsyncMemory.ts</text>
</g>
<!-- src/example&#45;app.ts&#45;&gt;src/storage/storageDriverAsyncMemory.ts -->
<g id="edge24" class="edge">
<title>src/example&#45;app.ts&#45;&gt;src/storage/storageDriverAsyncMemory.ts</title>
<path fill="none" stroke="#528b8b" stroke-width="2" d="M126.13,-408C134.32,-408 143.01,-408 151.88,-408"/>
<polygon fill="#528b8b" stroke="#528b8b" stroke-width="2" points="151.94,-411.5 161.94,-408 151.94,-404.5 151.94,-411.5"/>
</g>
<!-- src/example&#45;app.ts&#45;&gt;src/types/docTypes.ts -->
<g id="edge22" class="edge">
<title>src/example&#45;app.ts&#45;&gt;src/types/docTypes.ts</title>
<path fill="none" stroke="#528b8b" stroke-width="2" d="M88.42,-426.18C136.23,-477.03 281.62,-617 433.5,-617 433.5,-617 433.5,-617 578,-617 687.63,-617 738.09,-667.1 824,-599 896.66,-541.41 906.24,-420.06 906.65,-365.1"/>
<polygon fill="#528b8b" stroke="#528b8b" stroke-width="2" points="910.15,-365.02 906.63,-355.03 903.15,-365.04 910.15,-365.02"/>
</g>
<!-- src/follower.ts&#45;&gt;src/types/docTypes.ts -->
<g id="edge28" class="edge">
<title>src/follower.ts&#45;&gt;src/types/docTypes.ts</title>
<path fill="none" stroke="#528b8b" stroke-width="2" d="M440.32,-484.07C448.86,-512.02 469.58,-564.83 509,-587 570.03,-621.34 768.15,-620.25 824,-578 891.62,-526.84 903.94,-417.01 905.87,-365.18"/>
<polygon fill="#528b8b" stroke="#528b8b" stroke-width="2" points="909.37,-365.13 906.14,-355.04 902.38,-364.94 909.37,-365.13"/>
</g>
<!-- src/types/queryTypes.ts -->
<g id="node18" class="node">
<title>src/types/queryTypes.ts</title>
<path fill="#79cdcd" stroke="#79cdcd" d="M791,-483C791,-483 714,-483 714,-483 708,-483 702,-477 702,-471 702,-471 702,-459 702,-459 702,-453 708,-447 714,-447 714,-447 791,-447 791,-447 797,-447 803,-453 803,-459 803,-459 803,-471 803,-471 803,-477 797,-483 791,-483"/>
<text text-anchor="middle" x="752.5" y="-461.3" font-family="Helvetica,sans-Serif" font-size="14.00">queryTypes.ts</text>
</g>
<!-- src/follower.ts&#45;&gt;src/types/queryTypes.ts -->
<g id="edge29" class="edge">
<title>src/follower.ts&#45;&gt;src/types/queryTypes.ts</title>
<path fill="none" stroke="#528b8b" stroke-width="2" d="M473.22,-470.29C484.69,-471.4 497.35,-472.45 509,-473 572.93,-476.04 589.05,-475.59 653,-473 665.58,-472.49 679.04,-471.62 691.85,-470.63"/>
<polygon fill="#528b8b" stroke="#528b8b" stroke-width="2" points="692.26,-474.1 701.94,-469.81 691.69,-467.13 692.26,-474.1"/>
</g>
<!-- src/types/storageTypes.ts -->
<g id="node19" class="node">
<title>src/types/storageTypes.ts</title>
<path fill="#79cdcd" stroke="#79cdcd" d="M621.5,-464C621.5,-464 532.5,-464 532.5,-464 526.5,-464 520.5,-458 520.5,-452 520.5,-452 520.5,-440 520.5,-440 520.5,-434 526.5,-428 532.5,-428 532.5,-428 621.5,-428 621.5,-428 627.5,-428 633.5,-434 633.5,-440 633.5,-440 633.5,-452 633.5,-452 633.5,-458 627.5,-464 621.5,-464"/>
<text text-anchor="middle" x="577" y="-442.3" font-family="Helvetica,sans-Serif" font-size="14.00">storageTypes.ts</text>
</g>
<!-- src/follower.ts&#45;&gt;src/types/storageTypes.ts -->
<g id="edge30" class="edge">
<title>src/follower.ts&#45;&gt;src/types/storageTypes.ts</title>
<path fill="none" stroke="#528b8b" stroke-width="2" d="M473.15,-460.64C484.57,-459.02 497.46,-457.18 510.16,-455.37"/>
<polygon fill="#528b8b" stroke="#528b8b" stroke-width="2" points="510.87,-458.81 520.27,-453.93 509.88,-451.88 510.87,-458.81"/>
</g>
<!-- src/types/utilTypes.ts -->
<g id="node20" class="node">
<title>src/types/utilTypes.ts</title>
<path fill="#79cdcd" stroke="#79cdcd" d="M607.5,-410C607.5,-410 546.5,-410 546.5,-410 540.5,-410 534.5,-404 534.5,-398 534.5,-398 534.5,-386 534.5,-386 534.5,-380 540.5,-374 546.5,-374 546.5,-374 607.5,-374 607.5,-374 613.5,-374 619.5,-380 619.5,-386 619.5,-386 619.5,-398 619.5,-398 619.5,-404 613.5,-410 607.5,-410"/>
<text text-anchor="middle" x="577" y="-388.3" font-family="Helvetica,sans-Serif" font-size="14.00">utilTypes.ts</text>
</g>
<!-- src/follower.ts&#45;&gt;src/types/utilTypes.ts -->
<g id="edge27" class="edge">
<title>src/follower.ts&#45;&gt;src/types/utilTypes.ts</title>
<path fill="none" stroke="#528b8b" stroke-width="2" d="M461.33,-447.81C475.11,-438.54 492.58,-427.47 509,-419 514.14,-416.35 519.61,-413.78 525.11,-411.34"/>
<polygon fill="#528b8b" stroke="#528b8b" stroke-width="2" points="526.54,-414.54 534.36,-407.38 523.79,-408.1 526.54,-414.54"/>
</g>
<!-- src/lock.ts -->
<g id="node4" class="node">
<title>src/lock.ts</title>
<path fill="#79cdcd" stroke="#79cdcd" d="M768,-558C768,-558 737,-558 737,-558 731,-558 725,-552 725,-546 725,-546 725,-534 725,-534 725,-528 731,-522 737,-522 737,-522 768,-522 768,-522 774,-522 780,-528 780,-534 780,-534 780,-546 780,-546 780,-552 774,-558 768,-558"/>
<text text-anchor="middle" x="752.5" y="-536.3" font-family="Helvetica,sans-Serif" font-size="14.00">lock.ts</text>
</g>
<!-- src/query.ts -->
<g id="node5" class="node">
<title>src/query.ts</title>
<path fill="#79cdcd" stroke="#79cdcd" d="M597,-578C597,-578 557,-578 557,-578 551,-578 545,-572 545,-566 545,-566 545,-554 545,-554 545,-548 551,-542 557,-542 557,-542 597,-542 597,-542 603,-542 609,-548 609,-554 609,-554 609,-566 609,-566 609,-572 603,-578 597,-578"/>
<text text-anchor="middle" x="577" y="-556.3" font-family="Helvetica,sans-Serif" font-size="14.00">query.ts</text>
</g>
<!-- src/query.ts&#45;&gt;src/types/docTypes.ts -->
<g id="edge31" class="edge">
<title>src/query.ts&#45;&gt;src/types/docTypes.ts</title>
<path fill="none" stroke="#528b8b" stroke-width="2" d="M609.24,-565.38C667.6,-574.72 790.3,-590.76 824,-567 890.01,-520.46 903.18,-415.8 905.61,-365.31"/>
<polygon fill="#528b8b" stroke="#528b8b" stroke-width="2" points="909.11,-365.24 905.98,-355.11 902.12,-364.98 909.11,-365.24"/>
</g>
<!-- src/query.ts&#45;&gt;src/types/queryTypes.ts -->
<g id="edge32" class="edge">
<title>src/query.ts&#45;&gt;src/types/queryTypes.ts</title>
<path fill="none" stroke="#528b8b" stroke-width="2" d="M609.35,-545.36C623.37,-538.1 639.7,-528.61 653,-518 667.51,-506.42 665.36,-497.01 681,-487 684.58,-484.71 688.42,-482.64 692.39,-480.77"/>
<polygon fill="#528b8b" stroke="#528b8b" stroke-width="2" points="693.98,-483.9 701.83,-476.79 691.25,-477.46 693.98,-483.9"/>
</g>
<!-- src/coreValidators/addresses.ts -->
<g id="node6" class="node">
<title>src/coreValidators/addresses.ts</title>
<path fill="#79cdcd" stroke="#79cdcd" d="M787,-126C787,-126 718,-126 718,-126 712,-126 706,-120 706,-114 706,-114 706,-102 706,-102 706,-96 712,-90 718,-90 718,-90 787,-90 787,-90 793,-90 799,-96 799,-102 799,-102 799,-114 799,-114 799,-120 793,-126 787,-126"/>
<text text-anchor="middle" x="752.5" y="-104.3" font-family="Helvetica,sans-Serif" font-size="14.00">addresses.ts</text>
</g>
<!-- src/coreValidators/addresses.ts&#45;&gt;src/types/docTypes.ts -->
<g id="edge2" class="edge">
<title>src/coreValidators/addresses.ts&#45;&gt;src/types/docTypes.ts</title>
<path fill="none" stroke="#528b8b" stroke-width="2" d="M784.01,-126.07C797.56,-135.23 812.91,-147.32 824,-161 861.25,-206.96 885.96,-272.62 897.82,-309.37"/>
<polygon fill="#528b8b" stroke="#528b8b" stroke-width="2" points="894.49,-310.44 900.83,-318.93 901.17,-308.34 894.49,-310.44"/>
</g>
<!-- src/coreValidators/characters.ts -->
<g id="node7" class="node">
<title>src/coreValidators/characters.ts</title>
<path fill="#79cdcd" stroke="#79cdcd" d="M942,-72C942,-72 872,-72 872,-72 866,-72 860,-66 860,-60 860,-60 860,-48 860,-48 860,-42 866,-36 872,-36 872,-36 942,-36 942,-36 948,-36 954,-42 954,-48 954,-48 954,-60 954,-60 954,-66 948,-72 942,-72"/>
<text text-anchor="middle" x="907" y="-50.3" font-family="Helvetica,sans-Serif" font-size="14.00">characters.ts</text>
</g>
<!-- src/coreValidators/checkers.ts -->
<g id="node8" class="node">
<title>src/coreValidators/checkers.ts</title>
<path fill="#79cdcd" stroke="#79cdcd" d="M783,-72C783,-72 722,-72 722,-72 716,-72 710,-66 710,-60 710,-60 710,-48 710,-48 710,-42 716,-36 722,-36 722,-36 783,-36 783,-36 789,-36 795,-42 795,-48 795,-48 795,-60 795,-60 795,-66 789,-72 783,-72"/>
<text text-anchor="middle" x="752.5" y="-50.3" font-family="Helvetica,sans-Serif" font-size="14.00">checkers.ts</text>
</g>
<!-- src/coreValidators/checkers.ts&#45;&gt;src/coreValidators/characters.ts -->
<g id="edge3" class="edge">
<title>src/coreValidators/checkers.ts&#45;&gt;src/coreValidators/characters.ts</title>
<path fill="none" stroke="#528b8b" stroke-width="2" d="M795.17,-54C811.98,-54 831.64,-54 849.7,-54"/>
<polygon fill="#528b8b" stroke="#528b8b" stroke-width="2" points="849.82,-57.5 859.82,-54 849.82,-50.5 849.82,-57.5"/>
</g>
<!-- src/crypto/crypto.ts -->
<g id="node9" class="node">
<title>src/crypto/crypto.ts</title>
<path fill="#79cdcd" stroke="#79cdcd" d="M456.5,-196C456.5,-196 412.5,-196 412.5,-196 406.5,-196 400.5,-190 400.5,-184 400.5,-184 400.5,-172 400.5,-172 400.5,-166 406.5,-160 412.5,-160 412.5,-160 456.5,-160 456.5,-160 462.5,-160 468.5,-166 468.5,-172 468.5,-172 468.5,-184 468.5,-184 468.5,-190 462.5,-196 456.5,-196"/>
<text text-anchor="middle" x="434.5" y="-174.3" font-family="Helvetica,sans-Serif" font-size="14.00">crypto.ts</text>
</g>
<!-- src/crypto/crypto.ts&#45;&gt;src/base32.ts -->
<g id="edge7" class="edge">
<title>src/crypto/crypto.ts&#45;&gt;src/base32.ts</title>
<path fill="none" stroke="#528b8b" stroke-width="2" d="M468.72,-191.78C481.18,-196.53 495.58,-201.52 509,-205 545.07,-214.35 645.03,-228.66 704.75,-236.79"/>
<polygon fill="#528b8b" stroke="#528b8b" stroke-width="2" points="704.31,-240.26 714.69,-238.14 705.25,-233.33 704.31,-240.26"/>
</g>
<!-- src/crypto/crypto.ts&#45;&gt;src/coreValidators/addresses.ts -->
<g id="edge9" class="edge">
<title>src/crypto/crypto.ts&#45;&gt;src/coreValidators/addresses.ts</title>
<path fill="none" stroke="#528b8b" stroke-width="2" d="M445.68,-159.74C457.83,-140.03 480.18,-109.77 509,-97 568.79,-70.52 645.18,-80.18 696.09,-91.9"/>
<polygon fill="#528b8b" stroke="#528b8b" stroke-width="2" points="695.38,-95.33 705.92,-94.26 697.01,-88.52 695.38,-95.33"/>
</g>
<!-- src/crypto/cryptoDriverNode.ts -->
<g id="node10" class="node">
<title>src/crypto/cryptoDriverNode.ts</title>
<path fill="#79cdcd" stroke="#79cdcd" d="M633,-196C633,-196 521,-196 521,-196 515,-196 509,-190 509,-184 509,-184 509,-172 509,-172 509,-166 515,-160 521,-160 521,-160 633,-160 633,-160 639,-160 645,-166 645,-172 645,-172 645,-184 645,-184 645,-190 639,-196 633,-196"/>
<text text-anchor="middle" x="577" y="-174.3" font-family="Helvetica,sans-Serif" font-size="14.00">cryptoDriverNode.ts</text>
</g>
<!-- src/crypto/crypto.ts&#45;&gt;src/crypto/cryptoDriverNode.ts -->
<g id="edge4" class="edge">
<title>src/crypto/crypto.ts&#45;&gt;src/crypto/cryptoDriverNode.ts</title>
<path fill="none" stroke="#528b8b" stroke-width="2" d="M468.8,-178C477.96,-178 488.29,-178 498.84,-178"/>
<polygon fill="#528b8b" stroke="#528b8b" stroke-width="2" points="498.98,-181.5 508.98,-178 498.98,-174.5 498.98,-181.5"/>
</g>
<!-- src/crypto/encoding.ts -->
<g id="node11" class="node">
<title>src/crypto/encoding.ts</title>
<path fill="#79cdcd" stroke="#79cdcd" d="M608,-142C608,-142 546,-142 546,-142 540,-142 534,-136 534,-130 534,-130 534,-118 534,-118 534,-112 540,-106 546,-106 546,-106 608,-106 608,-106 614,-106 620,-112 620,-118 620,-118 620,-130 620,-130 620,-136 614,-142 608,-142"/>
<text text-anchor="middle" x="577" y="-120.3" font-family="Helvetica,sans-Serif" font-size="14.00">encoding.ts</text>
</g>
<!-- src/crypto/crypto.ts&#45;&gt;src/crypto/encoding.ts -->
<g id="edge8" class="edge">
<title>src/crypto/crypto.ts&#45;&gt;src/crypto/encoding.ts</title>
<path fill="none" stroke="#528b8b" stroke-width="2" d="M468.8,-165.2C485.38,-158.83 505.81,-150.98 524.37,-143.85"/>
<polygon fill="#528b8b" stroke="#528b8b" stroke-width="2" points="525.79,-147.05 533.87,-140.19 523.28,-140.51 525.79,-147.05"/>
</g>
<!-- src/types/cryptoTypes.ts -->
<g id="node15" class="node">
<title>src/types/cryptoTypes.ts</title>
<path fill="#79cdcd" stroke="#79cdcd" d="M792.5,-355C792.5,-355 712.5,-355 712.5,-355 706.5,-355 700.5,-349 700.5,-343 700.5,-343 700.5,-331 700.5,-331 700.5,-325 706.5,-319 712.5,-319 712.5,-319 792.5,-319 792.5,-319 798.5,-319 804.5,-325 804.5,-331 804.5,-331 804.5,-343 804.5,-343 804.5,-349 798.5,-355 792.5,-355"/>
<text text-anchor="middle" x="752.5" y="-333.3" font-family="Helvetica,sans-Serif" font-size="14.00">cryptoTypes.ts</text>
</g>
<!-- src/crypto/crypto.ts&#45;&gt;src/types/cryptoTypes.ts -->
<g id="edge6" class="edge">
<title>src/crypto/crypto.ts&#45;&gt;src/types/cryptoTypes.ts</title>
<path fill="none" stroke="#528b8b" stroke-width="2" d="M451.85,-196.02C465.69,-210.15 486.79,-229.19 509,-240 567.78,-268.62 592.82,-244.46 653,-270 666.65,-275.79 695.91,-296.12 719.01,-312.88"/>
<polygon fill="#528b8b" stroke="#528b8b" stroke-width="2" points="717.06,-315.79 727.21,-318.86 721.19,-310.13 717.06,-315.79"/>
</g>
<!-- src/crypto/crypto.ts&#45;&gt;src/types/docTypes.ts -->
<g id="edge5" class="edge">
<title>src/crypto/crypto.ts&#45;&gt;src/types/docTypes.ts</title>
<path fill="none" stroke="#528b8b" stroke-width="2" d="M454.7,-196.08C468.62,-208 488.54,-222.7 509,-230 539.21,-240.77 624.59,-225.11 653,-240 670.64,-249.25 663.69,-265.14 681,-275 736.77,-306.75 762.81,-275.66 824,-295 838.87,-299.7 854.31,-306.91 867.72,-314.04"/>
<polygon fill="#528b8b" stroke="#528b8b" stroke-width="2" points="866.2,-317.2 876.66,-318.93 869.57,-311.06 866.2,-317.2"/>
</g>
<!-- src/crypto/cryptoDriverNode.ts&#45;&gt;src/base32.ts -->
<g id="edge12" class="edge">
<title>src/crypto/cryptoDriverNode.ts&#45;&gt;src/base32.ts</title>
<path fill="none" stroke="#528b8b" stroke-width="2" d="M641.61,-196.05C645.48,-197.33 649.3,-198.66 653,-200 663.34,-203.76 685.06,-213.18 705.48,-222.25"/>
<polygon fill="#528b8b" stroke="#528b8b" stroke-width="2" points="704.16,-225.49 714.72,-226.37 707.01,-219.1 704.16,-225.49"/>
</g>
<!-- src/crypto/cryptoDriverNode.ts&#45;&gt;src/types/cryptoTypes.ts -->
<g id="edge11" class="edge">
<title>src/crypto/cryptoDriverNode.ts&#45;&gt;src/types/cryptoTypes.ts</title>
<path fill="none" stroke="#528b8b" stroke-width="2" d="M601.37,-196.16C617.52,-209.65 638.6,-229.23 653,-250 670.92,-275.85 657.63,-293.95 681,-315 684.16,-317.85 687.69,-320.33 691.43,-322.49"/>
<polygon fill="#528b8b" stroke="#528b8b" stroke-width="2" points="689.98,-325.67 700.49,-326.96 693.08,-319.39 689.98,-325.67"/>
</g>
<!-- src/crypto/cryptoDriverNode.ts&#45;&gt;src/types/docTypes.ts -->
<g id="edge10" class="edge">
<title>src/crypto/cryptoDriverNode.ts&#45;&gt;src/types/docTypes.ts</title>
<path fill="none" stroke="#528b8b" stroke-width="2" d="M645.19,-186.67C717.37,-196.04 822.09,-209.8 824,-211 860.47,-234.05 884.03,-279.87 896.15,-309.44"/>
<polygon fill="#528b8b" stroke="#528b8b" stroke-width="2" points="892.91,-310.77 899.82,-318.79 899.42,-308.21 892.91,-310.77"/>
</g>
<!-- src/crypto/encoding.ts&#45;&gt;src/base32.ts -->
<g id="edge14" class="edge">
<title>src/crypto/encoding.ts&#45;&gt;src/base32.ts</title>
<path fill="none" stroke="#528b8b" stroke-width="2" d="M620.01,-134.06C631.44,-138.1 643.33,-143.6 653,-151 670.24,-164.18 665.85,-175.47 681,-191 690.9,-201.15 702.94,-210.8 714.25,-218.98"/>
<polygon fill="#528b8b" stroke="#528b8b" stroke-width="2" points="712.51,-222.03 722.71,-224.92 716.54,-216.31 712.51,-222.03"/>
</g>
<!-- src/crypto/encoding.ts&#45;&gt;src/coreValidators/addresses.ts -->
<g id="edge16" class="edge">
<title>src/crypto/encoding.ts&#45;&gt;src/coreValidators/addresses.ts</title>
<path fill="none" stroke="#528b8b" stroke-width="2" d="M620.44,-120.09C643.09,-118 671.25,-115.4 695.65,-113.15"/>
<polygon fill="#528b8b" stroke="#528b8b" stroke-width="2" points="696.21,-116.61 705.85,-112.21 695.57,-109.64 696.21,-116.61"/>
</g>
<!-- src/crypto/encoding.ts&#45;&gt;src/types/cryptoTypes.ts -->
<g id="edge15" class="edge">
<title>src/crypto/encoding.ts&#45;&gt;src/types/cryptoTypes.ts</title>
<path fill="none" stroke="#528b8b" stroke-width="2" d="M620.06,-130.77C632.32,-134.74 644.65,-141.03 653,-151 700.48,-207.69 632.31,-259.35 681,-315 684.03,-318.46 687.59,-321.38 691.47,-323.85"/>
<polygon fill="#528b8b" stroke="#528b8b" stroke-width="2" points="689.94,-327 700.42,-328.55 693.2,-320.8 689.94,-327"/>
</g>
<!-- src/crypto/encoding.ts&#45;&gt;src/types/docTypes.ts -->
<g id="edge13" class="edge">
<title>src/crypto/encoding.ts&#45;&gt;src/types/docTypes.ts</title>
<path fill="none" stroke="#528b8b" stroke-width="2" d="M620.13,-136.88C631.09,-140.84 642.7,-145.6 653,-151 666.54,-158.1 666.8,-165.33 681,-171 740.61,-194.78 771,-154.82 824,-191 865.23,-219.15 888.05,-275.23 898.6,-309.11"/>
<polygon fill="#528b8b" stroke="#528b8b" stroke-width="2" points="895.29,-310.26 901.49,-318.85 902,-308.27 895.29,-310.26"/>
</g>
<!-- src/docValidators/es4.ts&#45;&gt;src/coreValidators/characters.ts -->
<g id="edge19" class="edge">
<title>src/docValidators/es4.ts&#45;&gt;src/coreValidators/characters.ts</title>
<path fill="none" stroke="#528b8b" stroke-width="2" d="M288.25,-115.48C313.75,-99.36 354.14,-76.16 392.5,-64 575.98,-5.84 633.95,3.48 824,-27 832.6,-28.38 841.52,-30.52 850.18,-33.02"/>
<polygon fill="#528b8b" stroke="#528b8b" stroke-width="2" points="849.22,-36.38 859.81,-35.95 851.26,-29.69 849.22,-36.38"/>
</g>
<!-- src/docValidators/es4.ts&#45;&gt;src/coreValidators/checkers.ts -->
<g id="edge20" class="edge">
<title>src/docValidators/es4.ts&#45;&gt;src/coreValidators/checkers.ts</title>
<path fill="none" stroke="#528b8b" stroke-width="2" d="M288.26,-120.07C314.11,-108 355.04,-90.58 392.5,-82 499.73,-57.44 629.17,-53.41 699.62,-53.3"/>
<polygon fill="#528b8b" stroke="#528b8b" stroke-width="2" points="699.99,-56.8 709.99,-53.31 699.99,-49.8 699.99,-56.8"/>
</g>
<!-- src/docValidators/es4.ts&#45;&gt;src/crypto/crypto.ts -->
<g id="edge21" class="edge">
<title>src/docValidators/es4.ts&#45;&gt;src/crypto/crypto.ts</title>
<path fill="none" stroke="#528b8b" stroke-width="2" d="M288.05,-139.83C315.19,-146.96 358.17,-158.23 390.39,-166.69"/>
<polygon fill="#528b8b" stroke="#528b8b" stroke-width="2" points="389.87,-170.17 400.43,-169.32 391.65,-163.4 389.87,-170.17"/>
</g>
<!-- src/docValidators/es4.ts&#45;&gt;src/types/docTypes.ts -->
<g id="edge17" class="edge">
<title>src/docValidators/es4.ts&#45;&gt;src/types/docTypes.ts</title>
<path fill="none" stroke="#528b8b" stroke-width="2" d="M288.48,-122.61C314.49,-112.99 355.53,-99.41 392.5,-94 449.78,-85.62 604.82,-61.91 653,-94 679.86,-111.89 654.78,-142.19 681,-161 706.88,-179.57 797.55,-153.25 824,-171 871.46,-202.84 892.55,-270.51 901,-308.9"/>
<polygon fill="#528b8b" stroke="#528b8b" stroke-width="2" points="897.62,-309.81 903.07,-318.89 904.47,-308.39 897.62,-309.81"/>
</g>
<!-- src/types/docValidatorTypes.ts -->
<g id="node17" class="node">
<title>src/types/docValidatorTypes.ts</title>
<path fill="#79cdcd" stroke="#79cdcd" d="M812,-409C812,-409 693,-409 693,-409 687,-409 681,-403 681,-397 681,-397 681,-385 681,-385 681,-379 687,-373 693,-373 693,-373 812,-373 812,-373 818,-373 824,-379 824,-385 824,-385 824,-397 824,-397 824,-403 818,-409 812,-409"/>
<text text-anchor="middle" x="752.5" y="-387.3" font-family="Helvetica,sans-Serif" font-size="14.00">docValidatorTypes.ts</text>
</g>
<!-- src/docValidators/es4.ts&#45;&gt;src/types/docValidatorTypes.ts -->
<g id="edge18" class="edge">
<title>src/docValidators/es4.ts&#45;&gt;src/types/docValidatorTypes.ts</title>
<path fill="none" stroke="#528b8b" stroke-width="2" d="M281.14,-151.35C305.22,-173.45 348.75,-210.19 392.5,-231 440.68,-253.92 456.72,-249.34 509,-260 572.5,-272.95 603.35,-241.34 653,-283 682.18,-307.49 654.51,-336.63 681,-364 681.92,-364.95 682.88,-365.87 683.88,-366.76"/>
<polygon fill="#528b8b" stroke="#528b8b" stroke-width="2" points="681.98,-369.71 692.06,-372.96 686.2,-364.14 681.98,-369.71"/>
</g>
<!-- src/storage/storageAsync.ts&#45;&gt;src/crypto/crypto.ts -->
<g id="edge38" class="edge">
<title>src/storage/storageAsync.ts&#45;&gt;src/crypto/crypto.ts</title>
<path fill="none" stroke="#528b8b" stroke-width="2" d="M279.71,-335.83C310.47,-304.26 373.83,-239.23 408.87,-203.28"/>
<polygon fill="#528b8b" stroke="#528b8b" stroke-width="2" points="411.42,-205.68 415.89,-196.07 406.4,-200.79 411.42,-205.68"/>
</g>
<!-- src/storage/storageAsync.ts&#45;&gt;src/types/docTypes.ts -->
<g id="edge34" class="edge">
<title>src/storage/storageAsync.ts&#45;&gt;src/types/docTypes.ts</title>
<path fill="none" stroke="#528b8b" stroke-width="2" d="M317.75,-356.64C336.01,-360.24 354.93,-367.35 368,-381 404.75,-419.37 351.26,-464.5 392.5,-498 414.97,-516.25 624.06,-498.51 653,-498 691.02,-497.33 791.78,-512.19 824,-492 869.2,-463.68 890.94,-401.53 900.16,-365.11"/>
<polygon fill="#528b8b" stroke="#528b8b" stroke-width="2" points="903.62,-365.68 902.53,-355.14 896.81,-364.05 903.62,-365.68"/>
</g>
<!-- src/storage/storageAsync.ts&#45;&gt;src/types/docValidatorTypes.ts -->
<g id="edge37" class="edge">
<title>src/storage/storageAsync.ts&#45;&gt;src/types/docValidatorTypes.ts</title>
<path fill="none" stroke="#528b8b" stroke-width="2" d="M298.36,-335.93C323.97,-324.25 359.46,-310.11 392.5,-304 506.91,-282.83 551.61,-272.93 653,-330 670.06,-339.6 665.11,-352.57 681,-364 682.86,-365.34 684.79,-366.62 686.78,-367.84"/>
<polygon fill="#528b8b" stroke="#528b8b" stroke-width="2" points="685.36,-371.06 695.8,-372.87 688.77,-364.94 685.36,-371.06"/>
</g>
<!-- src/storage/storageAsync.ts&#45;&gt;src/types/queryTypes.ts -->
<g id="edge35" class="edge">
<title>src/storage/storageAsync.ts&#45;&gt;src/types/queryTypes.ts</title>
<path fill="none" stroke="#528b8b" stroke-width="2" d="M317.79,-345.54C412.57,-332.39 599.94,-312.08 653,-348 680.75,-366.79 659.89,-391.98 681,-418 688.24,-426.92 697.63,-434.78 707.17,-441.38"/>
<polygon fill="#528b8b" stroke="#528b8b" stroke-width="2" points="705.27,-444.32 715.56,-446.86 709.1,-438.46 705.27,-444.32"/>
</g>
<!-- src/storage/storageAsync.ts&#45;&gt;src/types/storageTypes.ts -->
<g id="edge36" class="edge">
<title>src/storage/storageAsync.ts&#45;&gt;src/types/storageTypes.ts</title>
<path fill="none" stroke="#528b8b" stroke-width="2" d="M317.71,-367.6C333.97,-371.72 351.74,-376.39 368,-381 416.36,-394.7 470.54,-411.69 511.48,-424.86"/>
<polygon fill="#528b8b" stroke="#528b8b" stroke-width="2" points="510.47,-428.21 521.06,-427.95 512.62,-421.55 510.47,-428.21"/>
</g>
<!-- src/storage/storageAsync.ts&#45;&gt;src/types/utilTypes.ts -->
<g id="edge33" class="edge">
<title>src/storage/storageAsync.ts&#45;&gt;src/types/utilTypes.ts</title>
<path fill="none" stroke="#528b8b" stroke-width="2" d="M317.87,-353.34C360.59,-353.64 420.84,-355.77 473,-364 489.98,-366.68 508.17,-371.09 524.48,-375.63"/>
<polygon fill="#528b8b" stroke="#528b8b" stroke-width="2" points="523.78,-379.07 534.35,-378.46 525.7,-372.34 523.78,-379.07"/>
</g>
<!-- src/storage/storageDriverAsyncMemory.ts&#45;&gt;src/lock.ts -->
<g id="edge44" class="edge">
<title>src/storage/storageDriverAsyncMemory.ts&#45;&gt;src/lock.ts</title>
<path fill="none" stroke="#528b8b" stroke-width="2" d="M360.47,-424.12C363.11,-425.9 365.63,-427.86 368,-430 394.94,-454.38 364.19,-485.22 392.5,-508 398.73,-513.02 624.42,-530.46 714.71,-537.26"/>
<polygon fill="#528b8b" stroke="#528b8b" stroke-width="2" points="714.54,-540.76 724.78,-538.02 715.07,-533.78 714.54,-540.76"/>
</g>
<!-- src/storage/storageDriverAsyncMemory.ts&#45;&gt;src/query.ts -->
<g id="edge43" class="edge">
<title>src/storage/storageDriverAsyncMemory.ts&#45;&gt;src/query.ts</title>
<path fill="none" stroke="#528b8b" stroke-width="2" d="M360.17,-423.61C362.94,-425.53 365.56,-427.66 368,-430 400.38,-461.1 359.63,-497.42 392.5,-528 430.7,-563.53 493.63,-566.99 534.95,-564.69"/>
<polygon fill="#528b8b" stroke="#528b8b" stroke-width="2" points="535.22,-568.18 544.96,-563.99 534.74,-561.19 535.22,-568.18"/>
</g>
<!-- src/storage/storageDriverAsyncMemory.ts&#45;&gt;src/types/docTypes.ts -->
<g id="edge40" class="edge">
<title>src/storage/storageDriverAsyncMemory.ts&#45;&gt;src/types/docTypes.ts</title>
<path fill="none" stroke="#528b8b" stroke-width="2" d="M348.47,-389.95C355.24,-387.34 361.84,-384.38 368,-381 381.1,-373.82 379.11,-364.62 392.5,-358 565.46,-272.45 633.47,-279.44 824,-310 833.45,-311.52 843.28,-313.95 852.72,-316.76"/>
<polygon fill="#528b8b" stroke="#528b8b" stroke-width="2" points="851.79,-320.14 862.38,-319.79 853.89,-313.46 851.79,-320.14"/>
</g>
<!-- src/storage/storageDriverAsyncMemory.ts&#45;&gt;src/types/queryTypes.ts -->
<g id="edge41" class="edge">
<title>src/storage/storageDriverAsyncMemory.ts&#45;&gt;src/types/queryTypes.ts</title>
<path fill="none" stroke="#528b8b" stroke-width="2" d="M333.45,-389.91C431.3,-366.86 600.8,-333.54 653,-365 675.82,-378.75 663.15,-398.23 681,-418 688.93,-426.78 698.84,-434.69 708.69,-441.4"/>
<polygon fill="#528b8b" stroke="#528b8b" stroke-width="2" points="707,-444.47 717.3,-446.98 710.81,-438.6 707,-444.47"/>
</g>
<!-- src/storage/storageDriverAsyncMemory.ts&#45;&gt;src/types/storageTypes.ts -->
<g id="edge42" class="edge">
<title>src/storage/storageDriverAsyncMemory.ts&#45;&gt;src/types/storageTypes.ts</title>
<path fill="none" stroke="#528b8b" stroke-width="2" d="M360.06,-419.87C408.87,-425.77 466.57,-432.76 510.04,-438.02"/>
<polygon fill="#528b8b" stroke="#528b8b" stroke-width="2" points="509.86,-441.52 520.21,-439.25 510.71,-434.57 509.86,-441.52"/>
</g>
<!-- src/storage/storageDriverAsyncMemory.ts&#45;&gt;src/types/utilTypes.ts -->
<g id="edge39" class="edge">
<title>src/storage/storageDriverAsyncMemory.ts&#45;&gt;src/types/utilTypes.ts</title>
<path fill="none" stroke="#528b8b" stroke-width="2" d="M360.06,-403C414.48,-400.23 479.96,-396.89 524.44,-394.63"/>
<polygon fill="#528b8b" stroke="#528b8b" stroke-width="2" points="524.63,-398.12 534.44,-394.12 524.27,-391.13 524.63,-398.12"/>
</g>
<!-- src/types/cryptoTypes.ts&#45;&gt;src/types/docTypes.ts -->
<g id="edge45" class="edge">
<title>src/types/cryptoTypes.ts&#45;&gt;src/types/docTypes.ts</title>
<path fill="none" stroke="#528b8b" stroke-width="2" d="M804.7,-337C819.89,-337 836.57,-337 851.93,-337"/>
<polygon fill="#528b8b" stroke="#528b8b" stroke-width="2" points="852.32,-340.5 862.32,-337 852.32,-333.5 852.32,-340.5"/>
</g>
<!-- src/types/docValidatorTypes.ts&#45;&gt;src/types/docTypes.ts -->
<g id="edge46" class="edge">
<title>src/types/docValidatorTypes.ts&#45;&gt;src/types/docTypes.ts</title>
<path fill="none" stroke="#528b8b" stroke-width="2" d="M804.7,-372.87C820.18,-367.39 837.21,-361.36 852.81,-355.83"/>
<polygon fill="#528b8b" stroke="#528b8b" stroke-width="2" points="854.06,-359.1 862.32,-352.47 851.72,-352.51 854.06,-359.1"/>
</g>
<!-- src/types/queryTypes.ts&#45;&gt;src/types/docTypes.ts -->
<g id="edge47" class="edge">
<title>src/types/queryTypes.ts&#45;&gt;src/types/docTypes.ts</title>
<path fill="none" stroke="#528b8b" stroke-width="2" d="M801.01,-446.91C809.04,-442.9 817.02,-438.25 824,-433 850.02,-413.43 873.45,-384.25 888.54,-363.2"/>
<polygon fill="#528b8b" stroke="#528b8b" stroke-width="2" points="891.4,-365.21 894.28,-355.01 885.67,-361.19 891.4,-365.21"/>
</g>
<!-- src/types/storageTypes.ts&#45;&gt;src/lock.ts -->
<g id="edge50" class="edge">
<title>src/types/storageTypes.ts&#45;&gt;src/lock.ts</title>
<path fill="none" stroke="#528b8b" stroke-width="2" d="M633.69,-456.95C640.62,-459.81 647.27,-463.43 653,-468 672.92,-483.87 661.22,-501.96 681,-518 690.63,-525.81 703.04,-530.86 714.76,-534.12"/>
<polygon fill="#528b8b" stroke="#528b8b" stroke-width="2" points="714.25,-537.59 724.79,-536.54 715.89,-530.79 714.25,-537.59"/>
</g>
<!-- src/types/storageTypes.ts&#45;&gt;src/types/docTypes.ts -->
<g id="edge48" class="edge">
<title>src/types/storageTypes.ts&#45;&gt;src/types/docTypes.ts</title>
<path fill="none" stroke="#528b8b" stroke-width="2" d="M633.52,-441.61C700.78,-435.99 807.23,-426.02 824,-418 849.83,-405.64 872.4,-381.79 887.29,-363.16"/>
<polygon fill="#528b8b" stroke="#528b8b" stroke-width="2" points="890.23,-365.08 893.57,-355.03 884.69,-360.8 890.23,-365.08"/>
</g>
<!-- src/types/storageTypes.ts&#45;&gt;src/types/queryTypes.ts -->
<g id="edge49" class="edge">
<title>src/types/storageTypes.ts&#45;&gt;src/types/queryTypes.ts</title>
<path fill="none" stroke="#528b8b" stroke-width="2" d="M633.85,-452.12C652.41,-454.15 673.14,-456.42 691.96,-458.48"/>
<polygon fill="#528b8b" stroke="#528b8b" stroke-width="2" points="691.58,-461.96 701.9,-459.57 692.34,-455 691.58,-461.96"/>
</g>
</g>
</svg>
