<?xml version="1.0" encoding="UTF-8" standalone="no"?>
<!DOCTYPE svg PUBLIC "-//W3C//DTD SVG 1.1//EN"
 "http://www.w3.org/Graphics/SVG/1.1/DTD/svg11.dtd">
<!-- Generated by graphviz version 2.44.1 (20200629.0846)
 -->
<!-- Title: G Pages: 1 -->
<svg width="1064pt" height="766pt"
 viewBox="0.00 0.00 1064.00 766.00" xmlns="http://www.w3.org/2000/svg" xmlns:xlink="http://www.w3.org/1999/xlink">
<g id="graph0" class="graph" transform="scale(1 1) rotate(0) translate(4 762)">
<title>G</title>
<polygon fill="white" stroke="transparent" points="-4,4 -4,-762 1060,-762 1060,4 -4,4"/>
<g id="clust1" class="cluster">
<title>cluster5430461797</title>
<path fill="none" stroke="#8b7d6b" stroke-width="2" d="M20,-8C20,-8 1036,-8 1036,-8 1042,-8 1048,-14 1048,-20 1048,-20 1048,-738 1048,-738 1048,-744 1042,-750 1036,-750 1036,-750 20,-750 20,-750 14,-750 8,-744 8,-738 8,-738 8,-20 8,-20 8,-14 14,-8 20,-8"/>
<text text-anchor="start" x="517.5" y="-735.8" font-family="Helvetica,sans-Serif" font-weight="bold" font-size="14.00">src</text>
</g>
<g id="clust2" class="cluster">
<title>cluster2317590487</title>
<path fill="bisque" stroke="#8b7d6b" stroke-width="2" d="M807.5,-28C807.5,-28 1028,-28 1028,-28 1034,-28 1040,-34 1040,-40 1040,-40 1040,-145 1040,-145 1040,-151 1034,-157 1028,-157 1028,-157 807.5,-157 807.5,-157 801.5,-157 795.5,-151 795.5,-145 795.5,-145 795.5,-40 795.5,-40 795.5,-34 801.5,-28 807.5,-28"/>
<text text-anchor="start" x="869.25" y="-142.8" font-family="Helvetica,sans-Serif" font-weight="bold" font-size="14.00">core&#45;validators</text>
</g>
<g id="clust3" class="cluster">
<title>cluster749538705</title>
<path fill="bisque" stroke="#8b7d6b" stroke-width="2" d="M457,-165C457,-165 898,-165 898,-165 904,-165 910,-171 910,-177 910,-177 910,-376 910,-376 910,-382 904,-388 898,-388 898,-388 457,-388 457,-388 451,-388 445,-382 445,-376 445,-376 445,-177 445,-177 445,-171 451,-165 457,-165"/>
<text text-anchor="start" x="656.5" y="-373.8" font-family="Helvetica,sans-Serif" font-weight="bold" font-size="14.00">crypto</text>
</g>
<g id="clust4" class="cluster">
<title>cluster152781212</title>
<path fill="bisque" stroke="#8b7d6b" stroke-width="2" d="M194,-82C194,-82 564,-82 564,-82 570,-82 576,-88 576,-94 576,-94 576,-145 576,-145 576,-151 570,-157 564,-157 564,-157 194,-157 194,-157 188,-157 182,-151 182,-145 182,-145 182,-94 182,-94 182,-88 188,-82 194,-82"/>
<text text-anchor="start" x="323" y="-142.8" font-family="Helvetica,sans-Serif" font-weight="bold" font-size="14.00">format&#45;validators</text>
</g>
<g id="clust5" class="cluster">
<title>cluster9915131241</title>
<path fill="bisque" stroke="#8b7d6b" stroke-width="2" d="M166,-396C166,-396 729.5,-396 729.5,-396 735.5,-396 741.5,-402 741.5,-408 741.5,-408 741.5,-707 741.5,-707 741.5,-713 735.5,-719 729.5,-719 729.5,-719 166,-719 166,-719 160,-719 154,-713 154,-707 154,-707 154,-408 154,-408 154,-402 160,-396 166,-396"/>
<text text-anchor="start" x="423.25" y="-704.8" font-family="Helvetica,sans-Serif" font-weight="bold" font-size="14.00">storage</text>
</g>
<!-- src/example&#45;app.ts -->
<g id="node1" class="node">
<title>src/example&#45;app.ts</title>
<path fill="#79cdcd" stroke="#79cdcd" d="M114,-488C114,-488 28,-488 28,-488 22,-488 16,-482 16,-476 16,-476 16,-464 16,-464 16,-458 22,-452 28,-452 28,-452 114,-452 114,-452 120,-452 126,-458 126,-464 126,-464 126,-476 126,-476 126,-482 120,-488 114,-488"/>
<text text-anchor="middle" x="71" y="-466.3" font-family="Helvetica,sans-Serif" font-size="14.00">example&#45;app.ts</text>
</g>
<!-- src/format&#45;validators/format&#45;validator&#45;es4.ts -->
<g id="node11" class="node">
<title>src/format&#45;validators/format&#45;validator&#45;es4.ts</title>
<path fill="#79cdcd" stroke="#79cdcd" d="M330,-126C330,-126 202,-126 202,-126 196,-126 190,-120 190,-114 190,-114 190,-102 190,-102 190,-96 196,-90 202,-90 202,-90 330,-90 330,-90 336,-90 342,-96 342,-102 342,-102 342,-114 342,-114 342,-120 336,-126 330,-126"/>
<text text-anchor="middle" x="266" y="-104.3" font-family="Helvetica,sans-Serif" font-size="14.00">format&#45;validator&#45;es4.ts</text>
</g>
<!-- src/example&#45;app.ts&#45;&gt;src/format&#45;validators/format&#45;validator&#45;es4.ts -->
<g id="edge14" class="edge">
<title>src/example&#45;app.ts&#45;&gt;src/format&#45;validators/format&#45;validator&#45;es4.ts</title>
<path fill="none" stroke="#528b8b" stroke-width="2" d="M81.84,-451.55C113.46,-392.24 212.63,-206.23 250.29,-135.59"/>
<polygon fill="#528b8b" stroke="#528b8b" stroke-width="2" points="253.57,-136.88 255.18,-126.41 247.39,-133.59 253.57,-136.88"/>
</g>
<!-- src/storage/follower.ts -->
<g id="node14" class="node">
<title>src/storage/follower.ts</title>
<path fill="#79cdcd" stroke="#79cdcd" d="M292.5,-602C292.5,-602 239.5,-602 239.5,-602 233.5,-602 227.5,-596 227.5,-590 227.5,-590 227.5,-578 227.5,-578 227.5,-572 233.5,-566 239.5,-566 239.5,-566 292.5,-566 292.5,-566 298.5,-566 304.5,-572 304.5,-578 304.5,-578 304.5,-590 304.5,-590 304.5,-596 298.5,-602 292.5,-602"/>
<text text-anchor="middle" x="266" y="-580.3" font-family="Helvetica,sans-Serif" font-size="14.00">follower.ts</text>
</g>
<!-- src/example&#45;app.ts&#45;&gt;src/storage/follower.ts -->
<g id="edge17" class="edge">
<title>src/example&#45;app.ts&#45;&gt;src/storage/follower.ts</title>
<path fill="none" stroke="#528b8b" stroke-width="2" d="M96.98,-488.19C112.97,-499.55 134.34,-514.21 154,-526 174.86,-538.51 198.68,-551.16 218.9,-561.45"/>
<polygon fill="#528b8b" stroke="#528b8b" stroke-width="2" points="217.4,-564.61 227.91,-565.99 220.56,-558.36 217.4,-564.61"/>
</g>
<!-- src/storage/storage&#45;async.ts -->
<g id="node18" class="node">
<title>src/storage/storage&#45;async.ts</title>
<path fill="#79cdcd" stroke="#79cdcd" d="M312,-460C312,-460 220,-460 220,-460 214,-460 208,-454 208,-448 208,-448 208,-436 208,-436 208,-430 214,-424 220,-424 220,-424 312,-424 312,-424 318,-424 324,-430 324,-436 324,-436 324,-448 324,-448 324,-454 318,-460 312,-460"/>
<text text-anchor="middle" x="266" y="-438.3" font-family="Helvetica,sans-Serif" font-size="14.00">storage&#45;async.ts</text>
</g>
<!-- src/example&#45;app.ts&#45;&gt;src/storage/storage&#45;async.ts -->
<g id="edge16" class="edge">
<title>src/example&#45;app.ts&#45;&gt;src/storage/storage&#45;async.ts</title>
<path fill="none" stroke="#528b8b" stroke-width="2" d="M126.02,-462.16C148.36,-458.92 174.5,-455.13 198.05,-451.71"/>
<polygon fill="#528b8b" stroke="#528b8b" stroke-width="2" points="198.57,-455.17 207.96,-450.27 197.56,-448.25 198.57,-455.17"/>
</g>
<!-- src/storage/storage&#45;driver&#45;async&#45;memory.ts -->
<g id="node19" class="node">
<title>src/storage/storage&#45;driver&#45;async&#45;memory.ts</title>
<path fill="#79cdcd" stroke="#79cdcd" d="M358,-517C358,-517 174,-517 174,-517 168,-517 162,-511 162,-505 162,-505 162,-493 162,-493 162,-487 168,-481 174,-481 174,-481 358,-481 358,-481 364,-481 370,-487 370,-493 370,-493 370,-505 370,-505 370,-511 364,-517 358,-517"/>
<text text-anchor="middle" x="266" y="-495.3" font-family="Helvetica,sans-Serif" font-size="14.00">storage&#45;driver&#45;async&#45;memory.ts</text>
</g>
<!-- src/example&#45;app.ts&#45;&gt;src/storage/storage&#45;driver&#45;async&#45;memory.ts -->
<g id="edge15" class="edge">
<title>src/example&#45;app.ts&#45;&gt;src/storage/storage&#45;driver&#45;async&#45;memory.ts</title>
<path fill="none" stroke="#528b8b" stroke-width="2" d="M126.02,-478.12C134.2,-479.35 142.89,-480.65 151.78,-481.99"/>
<polygon fill="#528b8b" stroke="#528b8b" stroke-width="2" points="151.47,-485.48 161.88,-483.51 152.51,-478.56 151.47,-485.48"/>
</g>
<!-- src/core&#45;validators/addresses.ts -->
<g id="node2" class="node">
<title>src/core&#45;validators/addresses.ts</title>
<path fill="#79cdcd" stroke="#79cdcd" d="M884.5,-126C884.5,-126 815.5,-126 815.5,-126 809.5,-126 803.5,-120 803.5,-114 803.5,-114 803.5,-102 803.5,-102 803.5,-96 809.5,-90 815.5,-90 815.5,-90 884.5,-90 884.5,-90 890.5,-90 896.5,-96 896.5,-102 896.5,-102 896.5,-114 896.5,-114 896.5,-120 890.5,-126 884.5,-126"/>
<text text-anchor="middle" x="850" y="-104.3" font-family="Helvetica,sans-Serif" font-size="14.00">addresses.ts</text>
</g>
<!-- src/core&#45;validators/characters.ts -->
<g id="node3" class="node">
<title>src/core&#45;validators/characters.ts</title>
<path fill="#79cdcd" stroke="#79cdcd" d="M1020,-72C1020,-72 950,-72 950,-72 944,-72 938,-66 938,-60 938,-60 938,-48 938,-48 938,-42 944,-36 950,-36 950,-36 1020,-36 1020,-36 1026,-36 1032,-42 1032,-48 1032,-48 1032,-60 1032,-60 1032,-66 1026,-72 1020,-72"/>
<text text-anchor="middle" x="985" y="-50.3" font-family="Helvetica,sans-Serif" font-size="14.00">characters.ts</text>
</g>
<!-- src/core&#45;validators/addresses.ts&#45;&gt;src/core&#45;validators/characters.ts -->
<g id="edge1" class="edge">
<title>src/core&#45;validators/addresses.ts&#45;&gt;src/core&#45;validators/characters.ts</title>
<path fill="none" stroke="#528b8b" stroke-width="2" d="M895.66,-89.87C906.62,-85.42 918.48,-80.6 929.84,-75.99"/>
<polygon fill="#528b8b" stroke="#528b8b" stroke-width="2" points="931.29,-79.18 939.23,-72.18 928.65,-72.69 931.29,-79.18"/>
</g>
<!-- src/core&#45;validators/checkers.ts -->
<g id="node4" class="node">
<title>src/core&#45;validators/checkers.ts</title>
<path fill="#79cdcd" stroke="#79cdcd" d="M880.5,-72C880.5,-72 819.5,-72 819.5,-72 813.5,-72 807.5,-66 807.5,-60 807.5,-60 807.5,-48 807.5,-48 807.5,-42 813.5,-36 819.5,-36 819.5,-36 880.5,-36 880.5,-36 886.5,-36 892.5,-42 892.5,-48 892.5,-48 892.5,-60 892.5,-60 892.5,-66 886.5,-72 880.5,-72"/>
<text text-anchor="middle" x="850" y="-50.3" font-family="Helvetica,sans-Serif" font-size="14.00">checkers.ts</text>
</g>
<!-- src/core&#45;validators/checkers.ts&#45;&gt;src/core&#45;validators/characters.ts -->
<g id="edge2" class="edge">
<title>src/core&#45;validators/checkers.ts&#45;&gt;src/core&#45;validators/characters.ts</title>
<path fill="none" stroke="#528b8b" stroke-width="2" d="M892.72,-54C903.79,-54 915.94,-54 927.66,-54"/>
<polygon fill="#528b8b" stroke="#528b8b" stroke-width="2" points="927.81,-57.5 937.81,-54 927.81,-50.5 927.81,-57.5"/>
</g>
<!-- src/crypto/base32.ts -->
<g id="node5" class="node">
<title>src/crypto/base32.ts</title>
<path fill="#79cdcd" stroke="#79cdcd" d="M875.5,-224C875.5,-224 824.5,-224 824.5,-224 818.5,-224 812.5,-218 812.5,-212 812.5,-212 812.5,-200 812.5,-200 812.5,-194 818.5,-188 824.5,-188 824.5,-188 875.5,-188 875.5,-188 881.5,-188 887.5,-194 887.5,-200 887.5,-200 887.5,-212 887.5,-212 887.5,-218 881.5,-224 875.5,-224"/>
<text text-anchor="middle" x="850" y="-202.3" font-family="Helvetica,sans-Serif" font-size="14.00">base32.ts</text>
</g>
<!-- src/crypto/crypto&#45;driver&#45;chloride.ts -->
<g id="node6" class="node">
<title>src/crypto/crypto&#45;driver&#45;chloride.ts</title>
<path fill="#79cdcd" stroke="#79cdcd" d="M750,-357C750,-357 616,-357 616,-357 610,-357 604,-351 604,-345 604,-345 604,-333 604,-333 604,-327 610,-321 616,-321 616,-321 750,-321 750,-321 756,-321 762,-327 762,-333 762,-333 762,-345 762,-345 762,-351 756,-357 750,-357"/>
<text text-anchor="middle" x="683" y="-335.3" font-family="Helvetica,sans-Serif" font-size="14.00">crypto&#45;driver&#45;chloride.ts</text>
</g>
<!-- src/crypto/crypto&#45;types.ts -->
<g id="node8" class="node">
<title>src/crypto/crypto&#45;types.ts</title>
<path fill="#79cdcd" stroke="#79cdcd" d="M890,-288C890,-288 810,-288 810,-288 804,-288 798,-282 798,-276 798,-276 798,-264 798,-264 798,-258 804,-252 810,-252 810,-252 890,-252 890,-252 896,-252 902,-258 902,-264 902,-264 902,-276 902,-276 902,-282 896,-288 890,-288"/>
<text text-anchor="middle" x="850" y="-266.3" font-family="Helvetica,sans-Serif" font-size="14.00">crypto&#45;types.ts</text>
</g>
<!-- src/crypto/crypto&#45;driver&#45;chloride.ts&#45;&gt;src/crypto/crypto&#45;types.ts -->
<g id="edge3" class="edge">
<title>src/crypto/crypto&#45;driver&#45;chloride.ts&#45;&gt;src/crypto/crypto&#45;types.ts</title>
<path fill="none" stroke="#528b8b" stroke-width="2" d="M728.18,-320.99C739.23,-316.45 751.06,-311.57 762,-307 773.36,-302.25 785.53,-297.11 797.06,-292.22"/>
<polygon fill="#528b8b" stroke="#528b8b" stroke-width="2" points="798.73,-295.31 806.57,-288.18 795.99,-288.87 798.73,-295.31"/>
</g>
<!-- src/crypto/crypto&#45;driver&#45;node.ts -->
<g id="node7" class="node">
<title>src/crypto/crypto&#45;driver&#45;node.ts</title>
<path fill="#79cdcd" stroke="#79cdcd" d="M741,-283C741,-283 625,-283 625,-283 619,-283 613,-277 613,-271 613,-271 613,-259 613,-259 613,-253 619,-247 625,-247 625,-247 741,-247 741,-247 747,-247 753,-253 753,-259 753,-259 753,-271 753,-271 753,-277 747,-283 741,-283"/>
<text text-anchor="middle" x="683" y="-261.3" font-family="Helvetica,sans-Serif" font-size="14.00">crypto&#45;driver&#45;node.ts</text>
</g>
<!-- src/crypto/crypto&#45;driver&#45;node.ts&#45;&gt;src/crypto/crypto&#45;types.ts -->
<g id="edge4" class="edge">
<title>src/crypto/crypto&#45;driver&#45;node.ts&#45;&gt;src/crypto/crypto&#45;types.ts</title>
<path fill="none" stroke="#528b8b" stroke-width="2" d="M753.02,-267.09C764.51,-267.44 776.37,-267.8 787.65,-268.14"/>
<polygon fill="#528b8b" stroke="#528b8b" stroke-width="2" points="787.73,-271.64 797.83,-268.45 787.94,-264.65 787.73,-271.64"/>
</g>
<!-- src/crypto/crypto.ts -->
<g id="node9" class="node">
<title>src/crypto/crypto.ts</title>
<path fill="#79cdcd" stroke="#79cdcd" d="M509,-256C509,-256 465,-256 465,-256 459,-256 453,-250 453,-244 453,-244 453,-232 453,-232 453,-226 459,-220 465,-220 465,-220 509,-220 509,-220 515,-220 521,-226 521,-232 521,-232 521,-244 521,-244 521,-250 515,-256 509,-256"/>
<text text-anchor="middle" x="487" y="-234.3" font-family="Helvetica,sans-Serif" font-size="14.00">crypto.ts</text>
</g>
<!-- src/crypto/crypto.ts&#45;&gt;src/core&#45;validators/addresses.ts -->
<g id="edge10" class="edge">
<title>src/crypto/crypto.ts&#45;&gt;src/core&#45;validators/addresses.ts</title>
<path fill="none" stroke="#528b8b" stroke-width="2" d="M514.07,-219.81C536.89,-204.63 571.38,-183.37 604,-170 666.48,-144.39 742.38,-127.16 792.99,-117.5"/>
<polygon fill="#528b8b" stroke="#528b8b" stroke-width="2" points="793.89,-120.89 803.07,-115.61 792.6,-114.01 793.89,-120.89"/>
</g>
<!-- src/crypto/crypto.ts&#45;&gt;src/crypto/base32.ts -->
<g id="edge8" class="edge">
<title>src/crypto/crypto.ts&#45;&gt;src/crypto/base32.ts</title>
<path fill="none" stroke="#528b8b" stroke-width="2" d="M517.72,-219.74C540.42,-206.91 572.98,-190.87 604,-184 672.56,-168.82 692.32,-175.33 762,-184 775.18,-185.64 789.22,-188.63 802.09,-191.88"/>
<polygon fill="#528b8b" stroke="#528b8b" stroke-width="2" points="801.57,-195.36 812.13,-194.53 803.35,-188.59 801.57,-195.36"/>
</g>
<!-- src/crypto/crypto.ts&#45;&gt;src/crypto/crypto&#45;driver&#45;chloride.ts -->
<g id="edge5" class="edge">
<title>src/crypto/crypto.ts&#45;&gt;src/crypto/crypto&#45;driver&#45;chloride.ts</title>
<path fill="none" stroke="#528b8b" stroke-width="2" d="M515.95,-256.21C539.05,-270.87 572.97,-291.51 604,-307 610.91,-310.45 618.28,-313.83 625.63,-317.03"/>
<polygon fill="#528b8b" stroke="#528b8b" stroke-width="2" points="624.32,-320.28 634.89,-320.98 627.07,-313.84 624.32,-320.28"/>
</g>
<!-- src/crypto/crypto.ts&#45;&gt;src/crypto/crypto&#45;driver&#45;node.ts -->
<g id="edge6" class="edge">
<title>src/crypto/crypto.ts&#45;&gt;src/crypto/crypto&#45;driver&#45;node.ts</title>
<path fill="none" stroke="#528b8b" stroke-width="2" d="M521.35,-242.64C543.83,-245.77 574.48,-250.04 602.99,-254"/>
<polygon fill="#528b8b" stroke="#528b8b" stroke-width="2" points="602.58,-257.48 612.96,-255.39 603.54,-250.55 602.58,-257.48"/>
</g>
<!-- src/crypto/crypto.ts&#45;&gt;src/crypto/crypto&#45;types.ts -->
<g id="edge7" class="edge">
<title>src/crypto/crypto.ts&#45;&gt;src/crypto/crypto&#45;types.ts</title>
<path fill="none" stroke="#528b8b" stroke-width="2" d="M517.72,-256.26C540.42,-269.09 572.98,-285.13 604,-292 672.56,-307.18 692.32,-300.67 762,-292 770.45,-290.95 779.25,-289.34 787.87,-287.47"/>
<polygon fill="#528b8b" stroke="#528b8b" stroke-width="2" points="788.92,-290.82 797.88,-285.17 787.35,-284 788.92,-290.82"/>
</g>
<!-- src/crypto/keypair.ts -->
<g id="node10" class="node">
<title>src/crypto/keypair.ts</title>
<path fill="#79cdcd" stroke="#79cdcd" d="M708,-229C708,-229 658,-229 658,-229 652,-229 646,-223 646,-217 646,-217 646,-205 646,-205 646,-199 652,-193 658,-193 658,-193 708,-193 708,-193 714,-193 720,-199 720,-205 720,-205 720,-217 720,-217 720,-223 714,-229 708,-229"/>
<text text-anchor="middle" x="683" y="-207.3" font-family="Helvetica,sans-Serif" font-size="14.00">keypair.ts</text>
</g>
<!-- src/crypto/crypto.ts&#45;&gt;src/crypto/keypair.ts -->
<g id="edge9" class="edge">
<title>src/crypto/crypto.ts&#45;&gt;src/crypto/keypair.ts</title>
<path fill="none" stroke="#528b8b" stroke-width="2" d="M521.35,-233.36C552.9,-228.97 600.54,-222.34 635.76,-217.44"/>
<polygon fill="#528b8b" stroke="#528b8b" stroke-width="2" points="636.37,-220.88 645.79,-216.04 635.41,-213.95 636.37,-220.88"/>
</g>
<!-- src/crypto/keypair.ts&#45;&gt;src/core&#45;validators/addresses.ts -->
<g id="edge13" class="edge">
<title>src/crypto/keypair.ts&#45;&gt;src/core&#45;validators/addresses.ts</title>
<path fill="none" stroke="#528b8b" stroke-width="2" d="M713.12,-192.82C740.37,-175.81 781.23,-150.3 811.03,-131.7"/>
<polygon fill="#528b8b" stroke="#528b8b" stroke-width="2" points="813.27,-134.43 819.9,-126.17 809.56,-128.49 813.27,-134.43"/>
</g>
<!-- src/crypto/keypair.ts&#45;&gt;src/crypto/base32.ts -->
<g id="edge11" class="edge">
<title>src/crypto/keypair.ts&#45;&gt;src/crypto/base32.ts</title>
<path fill="none" stroke="#528b8b" stroke-width="2" d="M720.21,-209.9C744.33,-209.17 776.25,-208.2 802.28,-207.42"/>
<polygon fill="#528b8b" stroke="#528b8b" stroke-width="2" points="802.41,-210.91 812.3,-207.11 802.2,-203.92 802.41,-210.91"/>
</g>
<!-- src/crypto/keypair.ts&#45;&gt;src/crypto/crypto&#45;types.ts -->
<g id="edge12" class="edge">
<title>src/crypto/keypair.ts&#45;&gt;src/crypto/crypto&#45;types.ts</title>
<path fill="none" stroke="#528b8b" stroke-width="2" d="M720.17,-223.36C733.35,-227.91 748.37,-233.13 762,-238 771.32,-241.33 781.19,-244.9 790.79,-248.42"/>
<polygon fill="#528b8b" stroke="#528b8b" stroke-width="2" points="789.69,-251.74 800.29,-251.89 792.1,-245.17 789.69,-251.74"/>
</g>
<!-- src/format&#45;validators/format&#45;validator&#45;es4.ts&#45;&gt;src/core&#45;validators/characters.ts -->
<g id="edge19" class="edge">
<title>src/format&#45;validators/format&#45;validator&#45;es4.ts&#45;&gt;src/core&#45;validators/characters.ts</title>
<path fill="none" stroke="#528b8b" stroke-width="2" d="M311.32,-89.99C338.25,-79.81 373.59,-67.79 406,-61 576.08,-25.36 621.9,-34.56 795.5,-27 846.34,-24.79 859.89,-18.14 910,-27 917.49,-28.32 925.22,-30.35 932.73,-32.7"/>
<polygon fill="#528b8b" stroke="#528b8b" stroke-width="2" points="931.85,-36.1 942.44,-35.96 934.07,-29.46 931.85,-36.1"/>
</g>
<!-- src/format&#45;validators/format&#45;validator&#45;es4.ts&#45;&gt;src/core&#45;validators/checkers.ts -->
<g id="edge20" class="edge">
<title>src/format&#45;validators/format&#45;validator&#45;es4.ts&#45;&gt;src/core&#45;validators/checkers.ts</title>
<path fill="none" stroke="#528b8b" stroke-width="2" d="M342.1,-91.55C362.72,-87.54 385.15,-83.65 406,-81 546.74,-63.12 714.2,-56.99 797.13,-54.96"/>
<polygon fill="#528b8b" stroke="#528b8b" stroke-width="2" points="797.38,-58.46 807.3,-54.72 797.22,-51.46 797.38,-58.46"/>
</g>
<!-- src/format&#45;validators/format&#45;validator&#45;es4.ts&#45;&gt;src/crypto/crypto.ts -->
<g id="edge21" class="edge">
<title>src/format&#45;validators/format&#45;validator&#45;es4.ts&#45;&gt;src/crypto/crypto.ts</title>
<path fill="none" stroke="#528b8b" stroke-width="2" d="M297.45,-126.08C336.4,-149.2 403.93,-189.28 446.72,-214.68"/>
<polygon fill="#528b8b" stroke="#528b8b" stroke-width="2" points="445.07,-217.77 455.46,-219.87 448.64,-211.75 445.07,-217.77"/>
</g>
<!-- src/format&#45;validators/format&#45;validator&#45;types.ts -->
<g id="node12" class="node">
<title>src/format&#45;validators/format&#45;validator&#45;types.ts</title>
<path fill="#79cdcd" stroke="#79cdcd" d="M556,-126C556,-126 418,-126 418,-126 412,-126 406,-120 406,-114 406,-114 406,-102 406,-102 406,-96 412,-90 418,-90 418,-90 556,-90 556,-90 562,-90 568,-96 568,-102 568,-102 568,-114 568,-114 568,-120 562,-126 556,-126"/>
<text text-anchor="middle" x="487" y="-104.3" font-family="Helvetica,sans-Serif" font-size="14.00">format&#45;validator&#45;types.ts</text>
</g>
<!-- src/format&#45;validators/format&#45;validator&#45;es4.ts&#45;&gt;src/format&#45;validators/format&#45;validator&#45;types.ts -->
<g id="edge18" class="edge">
<title>src/format&#45;validators/format&#45;validator&#45;es4.ts&#45;&gt;src/format&#45;validators/format&#45;validator&#45;types.ts</title>
<path fill="none" stroke="#528b8b" stroke-width="2" d="M342.06,-108C359.24,-108 377.68,-108 395.44,-108"/>
<polygon fill="#528b8b" stroke="#528b8b" stroke-width="2" points="395.8,-111.5 405.8,-108 395.8,-104.5 395.8,-111.5"/>
</g>
<!-- src/storage/compare.ts -->
<g id="node13" class="node">
<title>src/storage/compare.ts</title>
<path fill="#79cdcd" stroke="#79cdcd" d="M517,-460C517,-460 457,-460 457,-460 451,-460 445,-454 445,-448 445,-448 445,-436 445,-436 445,-430 451,-424 457,-424 457,-424 517,-424 517,-424 523,-424 529,-430 529,-436 529,-436 529,-448 529,-448 529,-454 523,-460 517,-460"/>
<text text-anchor="middle" x="487" y="-438.3" font-family="Helvetica,sans-Serif" font-size="14.00">compare.ts</text>
</g>
<!-- src/storage/util&#45;types.ts -->
<g id="node21" class="node">
<title>src/storage/util&#45;types.ts</title>
<path fill="#79cdcd" stroke="#79cdcd" d="M713.5,-471C713.5,-471 652.5,-471 652.5,-471 646.5,-471 640.5,-465 640.5,-459 640.5,-459 640.5,-447 640.5,-447 640.5,-441 646.5,-435 652.5,-435 652.5,-435 713.5,-435 713.5,-435 719.5,-435 725.5,-441 725.5,-447 725.5,-447 725.5,-459 725.5,-459 725.5,-465 719.5,-471 713.5,-471"/>
<text text-anchor="middle" x="683" y="-449.3" font-family="Helvetica,sans-Serif" font-size="14.00">util&#45;types.ts</text>
</g>
<!-- src/storage/compare.ts&#45;&gt;src/storage/util&#45;types.ts -->
<g id="edge22" class="edge">
<title>src/storage/compare.ts&#45;&gt;src/storage/util&#45;types.ts</title>
<path fill="none" stroke="#528b8b" stroke-width="2" d="M529.14,-444.33C558.52,-446 598.27,-448.25 629.87,-450.04"/>
<polygon fill="#528b8b" stroke="#528b8b" stroke-width="2" points="630.07,-453.56 640.25,-450.63 630.46,-446.57 630.07,-453.56"/>
</g>
<!-- src/storage/query&#45;types.ts -->
<g id="node16" class="node">
<title>src/storage/query&#45;types.ts</title>
<path fill="#79cdcd" stroke="#79cdcd" d="M721.5,-611C721.5,-611 644.5,-611 644.5,-611 638.5,-611 632.5,-605 632.5,-599 632.5,-599 632.5,-587 632.5,-587 632.5,-581 638.5,-575 644.5,-575 644.5,-575 721.5,-575 721.5,-575 727.5,-575 733.5,-581 733.5,-587 733.5,-587 733.5,-599 733.5,-599 733.5,-605 727.5,-611 721.5,-611"/>
<text text-anchor="middle" x="683" y="-589.3" font-family="Helvetica,sans-Serif" font-size="14.00">query&#45;types.ts</text>
</g>
<!-- src/storage/follower.ts&#45;&gt;src/storage/query&#45;types.ts -->
<g id="edge24" class="edge">
<title>src/storage/follower.ts&#45;&gt;src/storage/query&#45;types.ts</title>
<path fill="none" stroke="#528b8b" stroke-width="2" d="M286.2,-602.39C311.36,-625.06 357.94,-662.4 406,-677 478.3,-698.95 504.65,-701.84 576,-677 609.03,-665.5 639.52,-638.94 659.23,-618.74"/>
<polygon fill="#528b8b" stroke="#528b8b" stroke-width="2" points="661.89,-621.02 666.24,-611.36 656.82,-616.2 661.89,-621.02"/>
</g>
<!-- src/storage/storage&#45;types.ts -->
<g id="node20" class="node">
<title>src/storage/storage&#45;types.ts</title>
<path fill="#79cdcd" stroke="#79cdcd" d="M531.5,-574C531.5,-574 442.5,-574 442.5,-574 436.5,-574 430.5,-568 430.5,-562 430.5,-562 430.5,-550 430.5,-550 430.5,-544 436.5,-538 442.5,-538 442.5,-538 531.5,-538 531.5,-538 537.5,-538 543.5,-544 543.5,-550 543.5,-550 543.5,-562 543.5,-562 543.5,-568 537.5,-574 531.5,-574"/>
<text text-anchor="middle" x="487" y="-552.3" font-family="Helvetica,sans-Serif" font-size="14.00">storage&#45;types.ts</text>
</g>
<!-- src/storage/follower.ts&#45;&gt;src/storage/storage&#45;types.ts -->
<g id="edge25" class="edge">
<title>src/storage/follower.ts&#45;&gt;src/storage/storage&#45;types.ts</title>
<path fill="none" stroke="#528b8b" stroke-width="2" d="M304.65,-579.19C336.42,-575.12 382.64,-569.22 420.46,-564.38"/>
<polygon fill="#528b8b" stroke="#528b8b" stroke-width="2" points="420.91,-567.85 430.39,-563.11 420.02,-560.91 420.91,-567.85"/>
</g>
<!-- src/storage/follower.ts&#45;&gt;src/storage/util&#45;types.ts -->
<g id="edge23" class="edge">
<title>src/storage/follower.ts&#45;&gt;src/storage/util&#45;types.ts</title>
<path fill="none" stroke="#528b8b" stroke-width="2" d="M304.68,-596.84C367.67,-615.73 495.4,-642.73 576,-583 610,-557.81 576.65,-524.29 604,-492 611.42,-483.24 621.28,-476.25 631.49,-470.75"/>
<polygon fill="#528b8b" stroke="#528b8b" stroke-width="2" points="633.09,-473.87 640.5,-466.29 629.98,-467.59 633.09,-473.87"/>
</g>
<!-- src/storage/lock.ts -->
<g id="node15" class="node">
<title>src/storage/lock.ts</title>
<path fill="#79cdcd" stroke="#79cdcd" d="M698.5,-537C698.5,-537 667.5,-537 667.5,-537 661.5,-537 655.5,-531 655.5,-525 655.5,-525 655.5,-513 655.5,-513 655.5,-507 661.5,-501 667.5,-501 667.5,-501 698.5,-501 698.5,-501 704.5,-501 710.5,-507 710.5,-513 710.5,-513 710.5,-525 710.5,-525 710.5,-531 704.5,-537 698.5,-537"/>
<text text-anchor="middle" x="683" y="-515.3" font-family="Helvetica,sans-Serif" font-size="14.00">lock.ts</text>
</g>
<!-- src/storage/query.ts -->
<g id="node17" class="node">
<title>src/storage/query.ts</title>
<path fill="#79cdcd" stroke="#79cdcd" d="M507,-668C507,-668 467,-668 467,-668 461,-668 455,-662 455,-656 455,-656 455,-644 455,-644 455,-638 461,-632 467,-632 467,-632 507,-632 507,-632 513,-632 519,-638 519,-644 519,-644 519,-656 519,-656 519,-662 513,-668 507,-668"/>
<text text-anchor="middle" x="487" y="-646.3" font-family="Helvetica,sans-Serif" font-size="14.00">query.ts</text>
</g>
<!-- src/storage/query.ts&#45;&gt;src/storage/query&#45;types.ts -->
<g id="edge26" class="edge">
<title>src/storage/query.ts&#45;&gt;src/storage/query&#45;types.ts</title>
<path fill="none" stroke="#528b8b" stroke-width="2" d="M519.17,-640.84C546.95,-632.68 588.38,-620.51 622.49,-610.48"/>
<polygon fill="#528b8b" stroke="#528b8b" stroke-width="2" points="623.75,-613.76 632.36,-607.58 621.78,-607.05 623.75,-613.76"/>
</g>
<!-- src/storage/storage&#45;async.ts&#45;&gt;src/crypto/crypto.ts -->
<g id="edge32" class="edge">
<title>src/storage/storage&#45;async.ts&#45;&gt;src/crypto/crypto.ts</title>
<path fill="none" stroke="#528b8b" stroke-width="2" d="M286.43,-423.9C325.64,-387.38 414.27,-304.82 459.04,-263.11"/>
<polygon fill="#528b8b" stroke="#528b8b" stroke-width="2" points="461.68,-265.44 466.61,-256.06 456.91,-260.32 461.68,-265.44"/>
</g>
<!-- src/storage/storage&#45;async.ts&#45;&gt;src/format&#45;validators/format&#45;validator&#45;types.ts -->
<g id="edge30" class="edge">
<title>src/storage/storage&#45;async.ts&#45;&gt;src/format&#45;validators/format&#45;validator&#45;types.ts</title>
<path fill="none" stroke="#528b8b" stroke-width="2" d="M272.35,-423.65C287.03,-375.81 331.86,-245.11 406,-161 416.03,-149.63 429.03,-139.64 441.63,-131.5"/>
<polygon fill="#528b8b" stroke="#528b8b" stroke-width="2" points="443.6,-134.4 450.25,-126.16 439.91,-128.45 443.6,-134.4"/>
</g>
<!-- src/storage/storage&#45;async.ts&#45;&gt;src/storage/compare.ts -->
<g id="edge31" class="edge">
<title>src/storage/storage&#45;async.ts&#45;&gt;src/storage/compare.ts</title>
<path fill="none" stroke="#528b8b" stroke-width="2" d="M324.25,-442C358.45,-442 401.52,-442 434.61,-442"/>
<polygon fill="#528b8b" stroke="#528b8b" stroke-width="2" points="434.99,-445.5 444.99,-442 434.99,-438.5 434.99,-445.5"/>
</g>
<!-- src/storage/storage&#45;async.ts&#45;&gt;src/storage/query&#45;types.ts -->
<g id="edge28" class="edge">
<title>src/storage/storage&#45;async.ts&#45;&gt;src/storage/query&#45;types.ts</title>
<path fill="none" stroke="#528b8b" stroke-width="2" d="M324.12,-453.21C387.36,-466.72 491.54,-492.29 576,-529 589.35,-534.8 591.54,-538.47 604,-546 616.74,-553.7 630.65,-562.1 643.16,-569.63"/>
<polygon fill="#528b8b" stroke="#528b8b" stroke-width="2" points="641.61,-572.78 651.98,-574.95 645.22,-566.79 641.61,-572.78"/>
</g>
<!-- src/storage/storage&#45;async.ts&#45;&gt;src/storage/storage&#45;types.ts -->
<g id="edge29" class="edge">
<title>src/storage/storage&#45;async.ts&#45;&gt;src/storage/storage&#45;types.ts</title>
<path fill="none" stroke="#528b8b" stroke-width="2" d="M324.14,-451.27C340,-455.73 356.55,-462.31 370,-472 392.81,-488.43 384.02,-506.48 406,-524 410.65,-527.7 415.78,-531.03 421.13,-534"/>
<polygon fill="#528b8b" stroke="#528b8b" stroke-width="2" points="419.8,-537.25 430.3,-538.68 422.98,-531.02 419.8,-537.25"/>
</g>
<!-- src/storage/storage&#45;async.ts&#45;&gt;src/storage/util&#45;types.ts -->
<g id="edge27" class="edge">
<title>src/storage/storage&#45;async.ts&#45;&gt;src/storage/util&#45;types.ts</title>
<path fill="none" stroke="#528b8b" stroke-width="2" d="M324.04,-428.24C386.34,-415.26 488.86,-399.85 576,-415 594.85,-418.28 614.78,-424.6 632.21,-431.17"/>
<polygon fill="#528b8b" stroke="#528b8b" stroke-width="2" points="631.03,-434.46 641.61,-434.82 633.56,-427.94 631.03,-434.46"/>
</g>
<!-- src/storage/storage&#45;driver&#45;async&#45;memory.ts&#45;&gt;src/storage/compare.ts -->
<g id="edge36" class="edge">
<title>src/storage/storage&#45;driver&#45;async&#45;memory.ts&#45;&gt;src/storage/compare.ts</title>
<path fill="none" stroke="#528b8b" stroke-width="2" d="M336.29,-480.96C368.24,-472.65 405.49,-462.95 434.84,-455.32"/>
<polygon fill="#528b8b" stroke="#528b8b" stroke-width="2" points="436.08,-458.61 444.87,-452.7 434.31,-451.84 436.08,-458.61"/>
</g>
<!-- src/storage/storage&#45;driver&#45;async&#45;memory.ts&#45;&gt;src/storage/lock.ts -->
<g id="edge38" class="edge">
<title>src/storage/storage&#45;driver&#45;async&#45;memory.ts&#45;&gt;src/storage/lock.ts</title>
<path fill="none" stroke="#528b8b" stroke-width="2" d="M370.12,-503.97C459.57,-508.28 584.01,-514.28 645.14,-517.22"/>
<polygon fill="#528b8b" stroke="#528b8b" stroke-width="2" points="645.28,-520.73 655.44,-517.72 645.62,-513.74 645.28,-520.73"/>
</g>
<!-- src/storage/storage&#45;driver&#45;async&#45;memory.ts&#45;&gt;src/storage/query&#45;types.ts -->
<g id="edge34" class="edge">
<title>src/storage/storage&#45;driver&#45;async&#45;memory.ts&#45;&gt;src/storage/query&#45;types.ts</title>
<path fill="none" stroke="#528b8b" stroke-width="2" d="M301.43,-517.13C321.72,-528.12 347.7,-542.73 370,-557 386.63,-567.64 387.33,-576.59 406,-583 477.19,-607.45 564.85,-605.68 622.02,-600.64"/>
<polygon fill="#528b8b" stroke="#528b8b" stroke-width="2" points="622.7,-604.09 632.32,-599.67 622.04,-597.13 622.7,-604.09"/>
</g>
<!-- src/storage/storage&#45;driver&#45;async&#45;memory.ts&#45;&gt;src/storage/query.ts -->
<g id="edge37" class="edge">
<title>src/storage/storage&#45;driver&#45;async&#45;memory.ts&#45;&gt;src/storage/query.ts</title>
<path fill="none" stroke="#528b8b" stroke-width="2" d="M306.14,-517.07C326.25,-527.31 350.56,-541.23 370,-557 388.83,-572.28 387.66,-582.13 406,-598 418.33,-608.67 433.01,-618.82 446.4,-627.28"/>
<polygon fill="#528b8b" stroke="#528b8b" stroke-width="2" points="444.63,-630.3 454.98,-632.58 448.31,-624.35 444.63,-630.3"/>
</g>
<!-- src/storage/storage&#45;driver&#45;async&#45;memory.ts&#45;&gt;src/storage/storage&#45;types.ts -->
<g id="edge35" class="edge">
<title>src/storage/storage&#45;driver&#45;async&#45;memory.ts&#45;&gt;src/storage/storage&#45;types.ts</title>
<path fill="none" stroke="#528b8b" stroke-width="2" d="M336.29,-517.04C363.18,-524.03 393.83,-532.01 420.36,-538.92"/>
<polygon fill="#528b8b" stroke="#528b8b" stroke-width="2" points="419.75,-542.37 430.31,-541.51 421.52,-535.6 419.75,-542.37"/>
</g>
<!-- src/storage/storage&#45;driver&#45;async&#45;memory.ts&#45;&gt;src/storage/util&#45;types.ts -->
<g id="edge33" class="edge">
<title>src/storage/storage&#45;driver&#45;async&#45;memory.ts&#45;&gt;src/storage/util&#45;types.ts</title>
<path fill="none" stroke="#528b8b" stroke-width="2" d="M370.15,-490.36C430.28,-484.98 507.53,-477.48 576,-469 593.76,-466.8 613.12,-464 630.39,-461.35"/>
<polygon fill="#528b8b" stroke="#528b8b" stroke-width="2" points="630.94,-464.81 640.28,-459.82 629.87,-457.89 630.94,-464.81"/>
</g>
<!-- src/storage/storage&#45;types.ts&#45;&gt;src/storage/lock.ts -->
<g id="edge40" class="edge">
<title>src/storage/storage&#45;types.ts&#45;&gt;src/storage/lock.ts</title>
<path fill="none" stroke="#528b8b" stroke-width="2" d="M543.59,-545.4C576.3,-539.16 616.74,-531.45 645.44,-525.97"/>
<polygon fill="#528b8b" stroke="#528b8b" stroke-width="2" points="646.28,-529.38 655.45,-524.06 644.97,-522.5 646.28,-529.38"/>
</g>
<!-- src/storage/storage&#45;types.ts&#45;&gt;src/storage/query&#45;types.ts -->
<g id="edge39" class="edge">
<title>src/storage/storage&#45;types.ts&#45;&gt;src/storage/query&#45;types.ts</title>
<path fill="none" stroke="#528b8b" stroke-width="2" d="M543.59,-566.6C568.19,-571.29 597.17,-576.82 622.24,-581.6"/>
<polygon fill="#528b8b" stroke="#528b8b" stroke-width="2" points="621.87,-585.1 632.35,-583.53 623.19,-578.22 621.87,-585.1"/>
</g>
</g>
</svg>
