<?xml version="1.0" encoding="UTF-8" standalone="no"?>
<!DOCTYPE svg PUBLIC "-//W3C//DTD SVG 1.1//EN"
 "http://www.w3.org/Graphics/SVG/1.1/DTD/svg11.dtd">
<!-- Generated by graphviz version 2.44.1 (20200629.0846)
 -->
<!-- Title: G Pages: 1 -->
<svg width="931pt" height="1645pt"
 viewBox="0.00 0.00 931.00 1645.43" xmlns="http://www.w3.org/2000/svg" xmlns:xlink="http://www.w3.org/1999/xlink">
<g id="graph0" class="graph" transform="scale(1 1) rotate(0) translate(4 1641.43)">
<title>G</title>
<polygon fill="white" stroke="transparent" points="-4,4 -4,-1641.43 927,-1641.43 927,4 -4,4"/>
<g id="clust1" class="cluster">
<title>cluster1922687983</title>
<path fill="bisque" stroke="#8b7d6b" stroke-width="2" d="M653.5,-713.07C653.5,-713.07 903,-713.07 903,-713.07 909,-713.07 915,-719.07 915,-725.07 915,-725.07 915,-830.07 915,-830.07 915,-836.07 909,-842.07 903,-842.07 903,-842.07 653.5,-842.07 653.5,-842.07 647.5,-842.07 641.5,-836.07 641.5,-830.07 641.5,-830.07 641.5,-725.07 641.5,-725.07 641.5,-719.07 647.5,-713.07 653.5,-713.07"/>
<text text-anchor="start" x="729.75" y="-827.87" font-family="Helvetica,sans-Serif" font-weight="bold" font-size="14.00">core&#45;validators</text>
</g>
<g id="clust2" class="cluster">
<title>cluster9500547067</title>
<path fill="bisque" stroke="#8b7d6b" stroke-width="2" d="M242,-1056.07C242,-1056.07 744,-1056.07 744,-1056.07 750,-1056.07 756,-1062.07 756,-1068.07 756,-1068.07 756,-1321.07 756,-1321.07 756,-1327.07 750,-1333.07 744,-1333.07 744,-1333.07 242,-1333.07 242,-1333.07 236,-1333.07 230,-1327.07 230,-1321.07 230,-1321.07 230,-1068.07 230,-1068.07 230,-1062.07 236,-1056.07 242,-1056.07"/>
<text text-anchor="start" x="472" y="-1318.87" font-family="Helvetica,sans-Serif" font-weight="bold" font-size="14.00">crypto</text>
</g>
<g id="clust3" class="cluster">
<title>cluster6426266908</title>
<path fill="bisque" stroke="#8b7d6b" stroke-width="2" d="M423.5,-621.07C423.5,-621.07 773,-621.07 773,-621.07 779,-621.07 785,-627.07 785,-633.07 785,-633.07 785,-684.07 785,-684.07 785,-690.07 779,-696.07 773,-696.07 773,-696.07 423.5,-696.07 423.5,-696.07 417.5,-696.07 411.5,-690.07 411.5,-684.07 411.5,-684.07 411.5,-633.07 411.5,-633.07 411.5,-627.07 417.5,-621.07 423.5,-621.07"/>
<text text-anchor="start" x="542.25" y="-681.87" font-family="Helvetica,sans-Serif" font-weight="bold" font-size="14.00">format&#45;validators</text>
</g>
<g id="clust4" class="cluster">
<title>cluster575569090</title>
<path fill="bisque" stroke="#8b7d6b" stroke-width="2" d="M226,-1341.07C226,-1341.07 539,-1341.07 539,-1341.07 545,-1341.07 551,-1347.07 551,-1353.07 551,-1353.07 551,-1512.07 551,-1512.07 551,-1518.07 545,-1524.07 539,-1524.07 539,-1524.07 226,-1524.07 226,-1524.07 220,-1524.07 214,-1518.07 214,-1512.07 214,-1512.07 214,-1353.07 214,-1353.07 214,-1347.07 220,-1341.07 226,-1341.07"/>
<text text-anchor="start" x="368" y="-1509.87" font-family="Helvetica,sans-Serif" font-weight="bold" font-size="14.00">peer</text>
</g>
<g id="clust5" class="cluster">
<title>cluster1025495158</title>
<path fill="bisque" stroke="#8b7d6b" stroke-width="2" d="M218,-209.07C218,-209.07 567.5,-209.07 567.5,-209.07 573.5,-209.07 579.5,-215.07 579.5,-221.07 579.5,-221.07 579.5,-272.07 579.5,-272.07 579.5,-278.07 573.5,-284.07 567.5,-284.07 567.5,-284.07 218,-284.07 218,-284.07 212,-284.07 206,-278.07 206,-272.07 206,-272.07 206,-221.07 206,-221.07 206,-215.07 212,-209.07 218,-209.07"/>
<text text-anchor="start" x="345.75" y="-269.87" font-family="Helvetica,sans-Serif" font-weight="bold" font-size="14.00">query&#45;follower</text>
</g>
<g id="clust6" class="cluster">
<title>cluster2144555012</title>
<path fill="bisque" stroke="#8b7d6b" stroke-width="2" d="M467.5,-96.07C467.5,-96.07 742.5,-96.07 742.5,-96.07 748.5,-96.07 754.5,-102.07 754.5,-108.07 754.5,-108.07 754.5,-159.07 754.5,-159.07 754.5,-165.07 748.5,-171.07 742.5,-171.07 742.5,-171.07 467.5,-171.07 467.5,-171.07 461.5,-171.07 455.5,-165.07 455.5,-159.07 455.5,-159.07 455.5,-108.07 455.5,-108.07 455.5,-102.07 461.5,-96.07 467.5,-96.07"/>
<text text-anchor="start" x="586.5" y="-156.87" font-family="Helvetica,sans-Serif" font-weight="bold" font-size="14.00">query</text>
</g>
<g id="clust7" class="cluster">
<title>cluster8049702507</title>
<path fill="bisque" stroke="#8b7d6b" stroke-width="2" d="M20,-415.07C20,-415.07 734.5,-415.07 734.5,-415.07 740.5,-415.07 746.5,-421.07 746.5,-427.07 746.5,-427.07 746.5,-592.07 746.5,-592.07 746.5,-598.07 740.5,-604.07 734.5,-604.07 734.5,-604.07 20,-604.07 20,-604.07 14,-604.07 8,-598.07 8,-592.07 8,-592.07 8,-427.07 8,-427.07 8,-421.07 14,-415.07 20,-415.07"/>
<text text-anchor="start" x="352.75" y="-589.87" font-family="Helvetica,sans-Serif" font-weight="bold" font-size="14.00">storage</text>
</g>
<!-- src/example&#45;app.ts -->
<g id="node1" class="node">
<title>src/example&#45;app.ts</title>
<path fill="#79cdcd" stroke="#79cdcd" d="M117,-665.07C117,-665.07 31,-665.07 31,-665.07 25,-665.07 19,-659.07 19,-653.07 19,-653.07 19,-641.07 19,-641.07 19,-635.07 25,-629.07 31,-629.07 31,-629.07 117,-629.07 117,-629.07 123,-629.07 129,-635.07 129,-641.07 129,-641.07 129,-653.07 129,-653.07 129,-659.07 123,-665.07 117,-665.07"/>
<text text-anchor="middle" x="74" y="-643.37" font-family="Helvetica,sans-Serif" font-size="14.00">example&#45;app.ts</text>
</g>
<!-- src/crypto/crypto&#45;driver&#45;tweetnacl.ts -->
<g id="node8" class="node">
<title>src/crypto/crypto&#45;driver&#45;tweetnacl.ts</title>
<path fill="#79cdcd" stroke="#79cdcd" d="M567,-1228.07C567,-1228.07 424,-1228.07 424,-1228.07 418,-1228.07 412,-1222.07 412,-1216.07 412,-1216.07 412,-1204.07 412,-1204.07 412,-1198.07 418,-1192.07 424,-1192.07 424,-1192.07 567,-1192.07 567,-1192.07 573,-1192.07 579,-1198.07 579,-1204.07 579,-1204.07 579,-1216.07 579,-1216.07 579,-1222.07 573,-1228.07 567,-1228.07"/>
<text text-anchor="middle" x="495.5" y="-1206.37" font-family="Helvetica,sans-Serif" font-size="14.00">crypto&#45;driver&#45;tweetnacl.ts</text>
</g>
<!-- src/example&#45;app.ts&#45;&gt;src/crypto/crypto&#45;driver&#45;tweetnacl.ts -->
<g id="edge17" class="edge">
<title>src/example&#45;app.ts&#45;&gt;src/crypto/crypto&#45;driver&#45;tweetnacl.ts</title>
<path fill="none" stroke="#528b8b" stroke-width="2" d="M76.23,-665.26C81.78,-742.4 106.98,-1041.53 168,-1109.07 227.07,-1174.46 327.49,-1197.97 401.4,-1206.19"/>
<polygon fill="#528b8b" stroke="#528b8b" stroke-width="2" points="401.34,-1209.7 411.65,-1207.25 402.06,-1202.74 401.34,-1209.7"/>
</g>
<!-- src/crypto/crypto.ts -->
<g id="node10" class="node">
<title>src/crypto/crypto.ts</title>
<path fill="#79cdcd" stroke="#79cdcd" d="M294,-1100.07C294,-1100.07 250,-1100.07 250,-1100.07 244,-1100.07 238,-1094.07 238,-1088.07 238,-1088.07 238,-1076.07 238,-1076.07 238,-1070.07 244,-1064.07 250,-1064.07 250,-1064.07 294,-1064.07 294,-1064.07 300,-1064.07 306,-1070.07 306,-1076.07 306,-1076.07 306,-1088.07 306,-1088.07 306,-1094.07 300,-1100.07 294,-1100.07"/>
<text text-anchor="middle" x="272" y="-1078.37" font-family="Helvetica,sans-Serif" font-size="14.00">crypto.ts</text>
</g>
<!-- src/example&#45;app.ts&#45;&gt;src/crypto/crypto.ts -->
<g id="edge16" class="edge">
<title>src/example&#45;app.ts&#45;&gt;src/crypto/crypto.ts</title>
<path fill="none" stroke="#528b8b" stroke-width="2" d="M83.17,-665.21C113.81,-733.19 221.93,-973.17 258.68,-1054.72"/>
<polygon fill="#528b8b" stroke="#528b8b" stroke-width="2" points="255.49,-1056.17 262.79,-1063.85 261.88,-1053.3 255.49,-1056.17"/>
</g>
<!-- src/format&#45;validators/format&#45;validator&#45;es4.ts -->
<g id="node12" class="node">
<title>src/format&#45;validators/format&#45;validator&#45;es4.ts</title>
<path fill="#79cdcd" stroke="#79cdcd" d="M559.5,-665.07C559.5,-665.07 431.5,-665.07 431.5,-665.07 425.5,-665.07 419.5,-659.07 419.5,-653.07 419.5,-653.07 419.5,-641.07 419.5,-641.07 419.5,-635.07 425.5,-629.07 431.5,-629.07 431.5,-629.07 559.5,-629.07 559.5,-629.07 565.5,-629.07 571.5,-635.07 571.5,-641.07 571.5,-641.07 571.5,-653.07 571.5,-653.07 571.5,-659.07 565.5,-665.07 559.5,-665.07"/>
<text text-anchor="middle" x="495.5" y="-643.37" font-family="Helvetica,sans-Serif" font-size="14.00">format&#45;validator&#45;es4.ts</text>
</g>
<!-- src/example&#45;app.ts&#45;&gt;src/format&#45;validators/format&#45;validator&#45;es4.ts -->
<g id="edge13" class="edge">
<title>src/example&#45;app.ts&#45;&gt;src/format&#45;validators/format&#45;validator&#45;es4.ts</title>
<path fill="none" stroke="#528b8b" stroke-width="2" d="M129.41,-647.07C200.39,-647.07 325.35,-647.07 409.03,-647.07"/>
<polygon fill="#528b8b" stroke="#528b8b" stroke-width="2" points="409.28,-650.57 419.28,-647.07 409.28,-643.57 409.28,-650.57"/>
</g>
<!-- src/peer/peer.ts -->
<g id="node17" class="node">
<title>src/peer/peer.ts</title>
<path fill="#79cdcd" stroke="#79cdcd" d="M289,-1385.07C289,-1385.07 255,-1385.07 255,-1385.07 249,-1385.07 243,-1379.07 243,-1373.07 243,-1373.07 243,-1361.07 243,-1361.07 243,-1355.07 249,-1349.07 255,-1349.07 255,-1349.07 289,-1349.07 289,-1349.07 295,-1349.07 301,-1355.07 301,-1361.07 301,-1361.07 301,-1373.07 301,-1373.07 301,-1379.07 295,-1385.07 289,-1385.07"/>
<text text-anchor="middle" x="272" y="-1363.37" font-family="Helvetica,sans-Serif" font-size="14.00">peer.ts</text>
</g>
<!-- src/example&#45;app.ts&#45;&gt;src/peer/peer.ts -->
<g id="edge19" class="edge">
<title>src/example&#45;app.ts&#45;&gt;src/peer/peer.ts</title>
<path fill="none" stroke="#528b8b" stroke-width="2" d="M74.87,-665.3C74.55,-763.84 77.81,-1232.29 168,-1337.07 183.94,-1355.59 210.6,-1363.01 232.81,-1365.84"/>
<polygon fill="#528b8b" stroke="#528b8b" stroke-width="2" points="232.66,-1369.34 242.96,-1366.86 233.36,-1362.38 232.66,-1369.34"/>
</g>
<!-- src/query&#45;follower/query&#45;follower.ts -->
<g id="node19" class="node">
<title>src/query&#45;follower/query&#45;follower.ts</title>
<path fill="#79cdcd" stroke="#79cdcd" d="M318,-253.07C318,-253.07 226,-253.07 226,-253.07 220,-253.07 214,-247.07 214,-241.07 214,-241.07 214,-229.07 214,-229.07 214,-223.07 220,-217.07 226,-217.07 226,-217.07 318,-217.07 318,-217.07 324,-217.07 330,-223.07 330,-229.07 330,-229.07 330,-241.07 330,-241.07 330,-247.07 324,-253.07 318,-253.07"/>
<text text-anchor="middle" x="272" y="-231.37" font-family="Helvetica,sans-Serif" font-size="14.00">query&#45;follower.ts</text>
</g>
<!-- src/example&#45;app.ts&#45;&gt;src/query&#45;follower/query&#45;follower.ts -->
<g id="edge18" class="edge">
<title>src/example&#45;app.ts&#45;&gt;src/query&#45;follower/query&#45;follower.ts</title>
<path fill="none" stroke="#528b8b" stroke-width="2" d="M110.78,-628.94C118.87,-623.28 126.65,-616.32 132,-608.07 180.46,-533.41 137.05,-494.52 168,-411.07 189.02,-354.39 227.82,-295.03 251.33,-261.77"/>
<polygon fill="#528b8b" stroke="#528b8b" stroke-width="2" points="254.27,-263.67 257.24,-253.5 248.58,-259.6 254.27,-263.67"/>
</g>
<!-- src/storage/storage&#45;async.ts -->
<g id="node24" class="node">
<title>src/storage/storage&#45;async.ts</title>
<path fill="#79cdcd" stroke="#79cdcd" d="M318,-551.07C318,-551.07 226,-551.07 226,-551.07 220,-551.07 214,-545.07 214,-539.07 214,-539.07 214,-527.07 214,-527.07 214,-521.07 220,-515.07 226,-515.07 226,-515.07 318,-515.07 318,-515.07 324,-515.07 330,-521.07 330,-527.07 330,-527.07 330,-539.07 330,-539.07 330,-545.07 324,-551.07 318,-551.07"/>
<text text-anchor="middle" x="272" y="-529.37" font-family="Helvetica,sans-Serif" font-size="14.00">storage&#45;async.ts</text>
</g>
<!-- src/example&#45;app.ts&#45;&gt;src/storage/storage&#45;async.ts -->
<g id="edge15" class="edge">
<title>src/example&#45;app.ts&#45;&gt;src/storage/storage&#45;async.ts</title>
<path fill="none" stroke="#528b8b" stroke-width="2" d="M106.06,-629.01C139.79,-609.38 193.8,-577.97 230.76,-556.48"/>
<polygon fill="#528b8b" stroke="#528b8b" stroke-width="2" points="232.88,-559.29 239.76,-551.24 229.36,-553.24 232.88,-559.29"/>
</g>
<!-- src/storage/storage&#45;driver&#45;async&#45;memory.ts -->
<g id="node26" class="node">
<title>src/storage/storage&#45;driver&#45;async&#45;memory.ts</title>
<path fill="#79cdcd" stroke="#79cdcd" d="M364,-496.07C364,-496.07 180,-496.07 180,-496.07 174,-496.07 168,-490.07 168,-484.07 168,-484.07 168,-472.07 168,-472.07 168,-466.07 174,-460.07 180,-460.07 180,-460.07 364,-460.07 364,-460.07 370,-460.07 376,-466.07 376,-472.07 376,-472.07 376,-484.07 376,-484.07 376,-490.07 370,-496.07 364,-496.07"/>
<text text-anchor="middle" x="272" y="-474.37" font-family="Helvetica,sans-Serif" font-size="14.00">storage&#45;driver&#45;async&#45;memory.ts</text>
</g>
<!-- src/example&#45;app.ts&#45;&gt;src/storage/storage&#45;driver&#45;async&#45;memory.ts -->
<g id="edge14" class="edge">
<title>src/example&#45;app.ts&#45;&gt;src/storage/storage&#45;driver&#45;async&#45;memory.ts</title>
<path fill="none" stroke="#528b8b" stroke-width="2" d="M109.01,-628.93C117.42,-623.17 125.79,-616.15 132,-608.07 161.29,-569.94 132.77,-538.78 168,-506.07 169.53,-504.65 171.12,-503.3 172.77,-502.02"/>
<polygon fill="#528b8b" stroke="#528b8b" stroke-width="2" points="175.11,-504.66 181.44,-496.16 171.19,-498.86 175.11,-504.66"/>
</g>
<!-- src/core&#45;validators/addresses.ts -->
<g id="node2" class="node">
<title>src/core&#45;validators/addresses.ts</title>
<path fill="#79cdcd" stroke="#79cdcd" d="M730.5,-811.07C730.5,-811.07 661.5,-811.07 661.5,-811.07 655.5,-811.07 649.5,-805.07 649.5,-799.07 649.5,-799.07 649.5,-787.07 649.5,-787.07 649.5,-781.07 655.5,-775.07 661.5,-775.07 661.5,-775.07 730.5,-775.07 730.5,-775.07 736.5,-775.07 742.5,-781.07 742.5,-787.07 742.5,-787.07 742.5,-799.07 742.5,-799.07 742.5,-805.07 736.5,-811.07 730.5,-811.07"/>
<text text-anchor="middle" x="696" y="-789.37" font-family="Helvetica,sans-Serif" font-size="14.00">addresses.ts</text>
</g>
<!-- src/core&#45;validators/characters.ts -->
<g id="node3" class="node">
<title>src/core&#45;validators/characters.ts</title>
<path fill="#79cdcd" stroke="#79cdcd" d="M895,-784.07C895,-784.07 825,-784.07 825,-784.07 819,-784.07 813,-778.07 813,-772.07 813,-772.07 813,-760.07 813,-760.07 813,-754.07 819,-748.07 825,-748.07 825,-748.07 895,-748.07 895,-748.07 901,-748.07 907,-754.07 907,-760.07 907,-760.07 907,-772.07 907,-772.07 907,-778.07 901,-784.07 895,-784.07"/>
<text text-anchor="middle" x="860" y="-762.37" font-family="Helvetica,sans-Serif" font-size="14.00">characters.ts</text>
</g>
<!-- src/core&#45;validators/addresses.ts&#45;&gt;src/core&#45;validators/characters.ts -->
<g id="edge1" class="edge">
<title>src/core&#45;validators/addresses.ts&#45;&gt;src/core&#45;validators/characters.ts</title>
<path fill="none" stroke="#528b8b" stroke-width="2" d="M742.56,-785.48C761.29,-782.35 783.16,-778.71 802.87,-775.42"/>
<polygon fill="#528b8b" stroke="#528b8b" stroke-width="2" points="803.65,-778.84 812.94,-773.75 802.5,-771.94 803.65,-778.84"/>
</g>
<!-- src/core&#45;validators/checkers.ts -->
<g id="node4" class="node">
<title>src/core&#45;validators/checkers.ts</title>
<path fill="#79cdcd" stroke="#79cdcd" d="M726.5,-757.07C726.5,-757.07 665.5,-757.07 665.5,-757.07 659.5,-757.07 653.5,-751.07 653.5,-745.07 653.5,-745.07 653.5,-733.07 653.5,-733.07 653.5,-727.07 659.5,-721.07 665.5,-721.07 665.5,-721.07 726.5,-721.07 726.5,-721.07 732.5,-721.07 738.5,-727.07 738.5,-733.07 738.5,-733.07 738.5,-745.07 738.5,-745.07 738.5,-751.07 732.5,-757.07 726.5,-757.07"/>
<text text-anchor="middle" x="696" y="-735.37" font-family="Helvetica,sans-Serif" font-size="14.00">checkers.ts</text>
</g>
<!-- src/core&#45;validators/checkers.ts&#45;&gt;src/core&#45;validators/characters.ts -->
<g id="edge2" class="edge">
<title>src/core&#45;validators/checkers.ts&#45;&gt;src/core&#45;validators/characters.ts</title>
<path fill="none" stroke="#528b8b" stroke-width="2" d="M738.72,-746.02C758.22,-749.27 781.72,-753.19 802.76,-756.7"/>
<polygon fill="#528b8b" stroke="#528b8b" stroke-width="2" points="802.42,-760.19 812.86,-758.38 803.57,-753.28 802.42,-760.19"/>
</g>
<!-- src/crypto/base32.ts -->
<g id="node5" class="node">
<title>src/crypto/base32.ts</title>
<path fill="#79cdcd" stroke="#79cdcd" d="M721.5,-1119.07C721.5,-1119.07 670.5,-1119.07 670.5,-1119.07 664.5,-1119.07 658.5,-1113.07 658.5,-1107.07 658.5,-1107.07 658.5,-1095.07 658.5,-1095.07 658.5,-1089.07 664.5,-1083.07 670.5,-1083.07 670.5,-1083.07 721.5,-1083.07 721.5,-1083.07 727.5,-1083.07 733.5,-1089.07 733.5,-1095.07 733.5,-1095.07 733.5,-1107.07 733.5,-1107.07 733.5,-1113.07 727.5,-1119.07 721.5,-1119.07"/>
<text text-anchor="middle" x="696" y="-1097.37" font-family="Helvetica,sans-Serif" font-size="14.00">base32.ts</text>
</g>
<!-- rfc4648 -->
<g id="node29" class="node">
<title>rfc4648</title>
<polygon fill="#cdc8b1" stroke="#8b8878" points="891,-1119.07 833,-1119.07 829,-1115.07 829,-1083.07 887,-1083.07 891,-1087.07 891,-1119.07"/>
<polyline fill="none" stroke="#8b8878" points="887,-1115.07 829,-1115.07 "/>
<polyline fill="none" stroke="#8b8878" points="887,-1115.07 887,-1083.07 "/>
<polyline fill="none" stroke="#8b8878" points="887,-1115.07 891,-1119.07 "/>
<text text-anchor="middle" x="860" y="-1097.37" font-family="Helvetica,sans-Serif" font-size="14.00">rfc4648</text>
</g>
<!-- src/crypto/base32.ts&#45;&gt;rfc4648 -->
<g id="edge64" class="edge">
<title>src/crypto/base32.ts&#45;&gt;rfc4648</title>
<path fill="none" stroke="#8b8878" stroke-width="1.5" stroke-dasharray="5,2" d="M733.76,-1101.07C759.03,-1101.07 792.59,-1101.07 818.61,-1101.07"/>
<polygon fill="#8b8878" stroke="#8b8878" stroke-width="1.5" points="818.89,-1104.57 828.89,-1101.07 818.89,-1097.57 818.89,-1104.57"/>
</g>
<!-- src/crypto/crypto&#45;driver&#45;chloride.ts -->
<g id="node6" class="node">
<title>src/crypto/crypto&#45;driver&#45;chloride.ts</title>
<path fill="#79cdcd" stroke="#79cdcd" d="M562.5,-1174.07C562.5,-1174.07 428.5,-1174.07 428.5,-1174.07 422.5,-1174.07 416.5,-1168.07 416.5,-1162.07 416.5,-1162.07 416.5,-1150.07 416.5,-1150.07 416.5,-1144.07 422.5,-1138.07 428.5,-1138.07 428.5,-1138.07 562.5,-1138.07 562.5,-1138.07 568.5,-1138.07 574.5,-1144.07 574.5,-1150.07 574.5,-1150.07 574.5,-1162.07 574.5,-1162.07 574.5,-1168.07 568.5,-1174.07 562.5,-1174.07"/>
<text text-anchor="middle" x="495.5" y="-1152.37" font-family="Helvetica,sans-Serif" font-size="14.00">crypto&#45;driver&#45;chloride.ts</text>
</g>
<!-- src/crypto/crypto&#45;types.ts -->
<g id="node9" class="node">
<title>src/crypto/crypto&#45;types.ts</title>
<path fill="#79cdcd" stroke="#79cdcd" d="M736,-1255.07C736,-1255.07 656,-1255.07 656,-1255.07 650,-1255.07 644,-1249.07 644,-1243.07 644,-1243.07 644,-1231.07 644,-1231.07 644,-1225.07 650,-1219.07 656,-1219.07 656,-1219.07 736,-1219.07 736,-1219.07 742,-1219.07 748,-1225.07 748,-1231.07 748,-1231.07 748,-1243.07 748,-1243.07 748,-1249.07 742,-1255.07 736,-1255.07"/>
<text text-anchor="middle" x="696" y="-1233.37" font-family="Helvetica,sans-Serif" font-size="14.00">crypto&#45;types.ts</text>
</g>
<!-- src/crypto/crypto&#45;driver&#45;chloride.ts&#45;&gt;src/crypto/crypto&#45;types.ts -->
<g id="edge3" class="edge">
<title>src/crypto/crypto&#45;driver&#45;chloride.ts&#45;&gt;src/crypto/crypto&#45;types.ts</title>
<path fill="none" stroke="#528b8b" stroke-width="2" d="M555.32,-1174.21C563.5,-1177.02 571.75,-1180.01 579.5,-1183.07 603.26,-1192.45 629.08,-1204.35 650.26,-1214.59"/>
<polygon fill="#528b8b" stroke="#528b8b" stroke-width="2" points="648.82,-1217.78 659.34,-1219.01 651.88,-1211.48 648.82,-1217.78"/>
</g>
<!-- chloride -->
<g id="node30" class="node">
<title>chloride</title>
<polygon fill="#cdc8b1" stroke="#8b8878" points="728,-886.07 668,-886.07 664,-882.07 664,-850.07 724,-850.07 728,-854.07 728,-886.07"/>
<polyline fill="none" stroke="#8b8878" points="724,-882.07 664,-882.07 "/>
<polyline fill="none" stroke="#8b8878" points="724,-882.07 724,-850.07 "/>
<polyline fill="none" stroke="#8b8878" points="724,-882.07 728,-886.07 "/>
<text text-anchor="middle" x="696" y="-864.37" font-family="Helvetica,sans-Serif" font-size="14.00">chloride</text>
</g>
<!-- src/crypto/crypto&#45;driver&#45;chloride.ts&#45;&gt;chloride -->
<g id="edge65" class="edge">
<title>src/crypto/crypto&#45;driver&#45;chloride.ts&#45;&gt;chloride</title>
<path fill="none" stroke="#8b8878" stroke-width="1.5" stroke-dasharray="5,2" d="M544.73,-1138.06C557.88,-1130.93 570.87,-1121.42 579.5,-1109.07 634.73,-1030.04 552.53,-968.51 615,-895.07 624.71,-883.66 639.41,-877.05 653.58,-873.24"/>
<polygon fill="#8b8878" stroke="#8b8878" stroke-width="1.5" points="654.75,-876.56 663.72,-870.92 653.19,-869.74 654.75,-876.56"/>
</g>
<!-- src/crypto/crypto&#45;driver&#45;node.ts -->
<g id="node7" class="node">
<title>src/crypto/crypto&#45;driver&#45;node.ts</title>
<path fill="#79cdcd" stroke="#79cdcd" d="M553.5,-1282.07C553.5,-1282.07 437.5,-1282.07 437.5,-1282.07 431.5,-1282.07 425.5,-1276.07 425.5,-1270.07 425.5,-1270.07 425.5,-1258.07 425.5,-1258.07 425.5,-1252.07 431.5,-1246.07 437.5,-1246.07 437.5,-1246.07 553.5,-1246.07 553.5,-1246.07 559.5,-1246.07 565.5,-1252.07 565.5,-1258.07 565.5,-1258.07 565.5,-1270.07 565.5,-1270.07 565.5,-1276.07 559.5,-1282.07 553.5,-1282.07"/>
<text text-anchor="middle" x="495.5" y="-1260.37" font-family="Helvetica,sans-Serif" font-size="14.00">crypto&#45;driver&#45;node.ts</text>
</g>
<!-- src/crypto/crypto&#45;driver&#45;node.ts&#45;&gt;src/crypto/crypto&#45;types.ts -->
<g id="edge4" class="edge">
<title>src/crypto/crypto&#45;driver&#45;node.ts&#45;&gt;src/crypto/crypto&#45;types.ts</title>
<path fill="none" stroke="#528b8b" stroke-width="2" d="M565.65,-1254.66C587.86,-1251.64 612.3,-1248.32 633.9,-1245.38"/>
<polygon fill="#528b8b" stroke="#528b8b" stroke-width="2" points="634.49,-1248.83 643.92,-1244.02 633.54,-1241.9 634.49,-1248.83"/>
</g>
<!-- crypto -->
<g id="node31" class="node">
<title>crypto</title>
<polygon fill="#cdc8b1" stroke="#8b8878" points="723,-1048.07 673,-1048.07 669,-1044.07 669,-1012.07 719,-1012.07 723,-1016.07 723,-1048.07"/>
<polyline fill="none" stroke="#8b8878" points="719,-1044.07 669,-1044.07 "/>
<polyline fill="none" stroke="#8b8878" points="719,-1044.07 719,-1012.07 "/>
<polyline fill="none" stroke="#8b8878" points="719,-1044.07 723,-1048.07 "/>
<text text-anchor="middle" x="696" y="-1026.37" font-family="Helvetica,sans-Serif" font-size="14.00">crypto</text>
</g>
<!-- src/crypto/crypto&#45;driver&#45;node.ts&#45;&gt;crypto -->
<g id="edge66" class="edge">
<title>src/crypto/crypto&#45;driver&#45;node.ts&#45;&gt;crypto</title>
<path fill="none" stroke="#8b8878" stroke-width="1.5" stroke-dasharray="5,2" d="M565.88,-1248.31C570.95,-1245.21 575.59,-1241.5 579.5,-1237.07 634.89,-1174.29 558.18,-1113.55 615,-1052.07 626.04,-1040.12 642.91,-1034.43 658.32,-1031.81"/>
<polygon fill="#8b8878" stroke="#8b8878" stroke-width="1.5" points="659.2,-1035.22 668.66,-1030.44 658.29,-1028.28 659.2,-1035.22"/>
</g>
<!-- src/crypto/crypto&#45;driver&#45;tweetnacl.ts&#45;&gt;src/crypto/crypto&#45;types.ts -->
<g id="edge5" class="edge">
<title>src/crypto/crypto&#45;driver&#45;tweetnacl.ts&#45;&gt;src/crypto/crypto&#45;types.ts</title>
<path fill="none" stroke="#528b8b" stroke-width="2" d="M579.24,-1221.32C597.56,-1223.82 616.65,-1226.41 633.93,-1228.76"/>
<polygon fill="#528b8b" stroke="#528b8b" stroke-width="2" points="633.48,-1232.23 643.86,-1230.11 634.43,-1225.3 633.48,-1232.23"/>
</g>
<!-- tweetnacl -->
<g id="node32" class="node">
<title>tweetnacl</title>
<polygon fill="#cdc8b1" stroke="#8b8878" points="733,-994.07 663,-994.07 659,-990.07 659,-958.07 729,-958.07 733,-962.07 733,-994.07"/>
<polyline fill="none" stroke="#8b8878" points="729,-990.07 659,-990.07 "/>
<polyline fill="none" stroke="#8b8878" points="729,-990.07 729,-958.07 "/>
<polyline fill="none" stroke="#8b8878" points="729,-990.07 733,-994.07 "/>
<text text-anchor="middle" x="696" y="-972.37" font-family="Helvetica,sans-Serif" font-size="14.00">tweetnacl</text>
</g>
<!-- src/crypto/crypto&#45;driver&#45;tweetnacl.ts&#45;&gt;tweetnacl -->
<g id="edge67" class="edge">
<title>src/crypto/crypto&#45;driver&#45;tweetnacl.ts&#45;&gt;tweetnacl</title>
<path fill="none" stroke="#8b8878" stroke-width="1.5" stroke-dasharray="5,2" d="M569.3,-1192.05C573.03,-1189.44 576.48,-1186.47 579.5,-1183.07 633.6,-1122.06 561.23,-1064.37 615,-1003.07 623.69,-993.16 636.16,-986.88 648.66,-982.9"/>
<polygon fill="#8b8878" stroke="#8b8878" stroke-width="1.5" points="649.91,-986.19 658.63,-980.18 648.07,-979.43 649.91,-986.19"/>
</g>
<!-- sha256&#45;uint8array -->
<g id="node33" class="node">
<title>sha256&#45;uint8array</title>
<polygon fill="#cdc8b1" stroke="#8b8878" points="758.5,-940.07 637.5,-940.07 633.5,-936.07 633.5,-904.07 754.5,-904.07 758.5,-908.07 758.5,-940.07"/>
<polyline fill="none" stroke="#8b8878" points="754.5,-936.07 633.5,-936.07 "/>
<polyline fill="none" stroke="#8b8878" points="754.5,-936.07 754.5,-904.07 "/>
<polyline fill="none" stroke="#8b8878" points="754.5,-936.07 758.5,-940.07 "/>
<text text-anchor="middle" x="696" y="-918.37" font-family="Helvetica,sans-Serif" font-size="14.00">sha256&#45;uint8array</text>
</g>
<!-- src/crypto/crypto&#45;driver&#45;tweetnacl.ts&#45;&gt;sha256&#45;uint8array -->
<g id="edge68" class="edge">
<title>src/crypto/crypto&#45;driver&#45;tweetnacl.ts&#45;&gt;sha256&#45;uint8array</title>
<path fill="none" stroke="#8b8878" stroke-width="1.5" stroke-dasharray="5,2" d="M569.84,-1191.93C573.39,-1189.36 576.66,-1186.42 579.5,-1183.07 647.54,-1102.85 547.4,-1029.66 615,-949.07 617.81,-945.72 621.05,-942.79 624.58,-940.21"/>
<polygon fill="#8b8878" stroke="#8b8878" stroke-width="1.5" points="626.61,-943.07 633.29,-934.85 622.94,-937.12 626.61,-943.07"/>
</g>
<!-- src/crypto/crypto.ts&#45;&gt;src/core&#45;validators/addresses.ts -->
<g id="edge9" class="edge">
<title>src/crypto/crypto.ts&#45;&gt;src/core&#45;validators/addresses.ts</title>
<path fill="none" stroke="#528b8b" stroke-width="2" d="M297.46,-1063.9C353,-1022.84 493.26,-920.33 615,-841.07 627.79,-832.74 642.01,-824.04 654.87,-816.37"/>
<polygon fill="#528b8b" stroke="#528b8b" stroke-width="2" points="656.7,-819.35 663.52,-811.24 653.13,-813.33 656.7,-819.35"/>
</g>
<!-- src/crypto/crypto.ts&#45;&gt;src/crypto/base32.ts -->
<g id="edge7" class="edge">
<title>src/crypto/crypto.ts&#45;&gt;src/crypto/base32.ts</title>
<path fill="none" stroke="#528b8b" stroke-width="2" d="M306.04,-1090.37C333.93,-1096.93 375.05,-1105.55 411.5,-1109.07 485.82,-1116.25 504.88,-1111.65 579.5,-1109.07 602.1,-1108.29 627.14,-1106.65 648.11,-1105.06"/>
<polygon fill="#528b8b" stroke="#528b8b" stroke-width="2" points="648.66,-1108.52 658.36,-1104.26 648.12,-1101.54 648.66,-1108.52"/>
</g>
<!-- src/crypto/crypto.ts&#45;&gt;src/crypto/crypto&#45;types.ts -->
<g id="edge6" class="edge">
<title>src/crypto/crypto.ts&#45;&gt;src/crypto/crypto&#45;types.ts</title>
<path fill="none" stroke="#528b8b" stroke-width="2" d="M278.44,-1100.17C292.38,-1142.87 333.84,-1249.37 411.5,-1291.07 490.74,-1333.62 598.24,-1289.95 655.42,-1260.05"/>
<polygon fill="#528b8b" stroke="#528b8b" stroke-width="2" points="657.31,-1263 664.48,-1255.2 654.01,-1256.83 657.31,-1263"/>
</g>
<!-- src/crypto/keypair.ts -->
<g id="node11" class="node">
<title>src/crypto/keypair.ts</title>
<path fill="#79cdcd" stroke="#79cdcd" d="M520.5,-1100.07C520.5,-1100.07 470.5,-1100.07 470.5,-1100.07 464.5,-1100.07 458.5,-1094.07 458.5,-1088.07 458.5,-1088.07 458.5,-1076.07 458.5,-1076.07 458.5,-1070.07 464.5,-1064.07 470.5,-1064.07 470.5,-1064.07 520.5,-1064.07 520.5,-1064.07 526.5,-1064.07 532.5,-1070.07 532.5,-1076.07 532.5,-1076.07 532.5,-1088.07 532.5,-1088.07 532.5,-1094.07 526.5,-1100.07 520.5,-1100.07"/>
<text text-anchor="middle" x="495.5" y="-1078.37" font-family="Helvetica,sans-Serif" font-size="14.00">keypair.ts</text>
</g>
<!-- src/crypto/crypto.ts&#45;&gt;src/crypto/keypair.ts -->
<g id="edge8" class="edge">
<title>src/crypto/crypto.ts&#45;&gt;src/crypto/keypair.ts</title>
<path fill="none" stroke="#528b8b" stroke-width="2" d="M306.16,-1082.07C343.85,-1082.07 405.62,-1082.07 448.08,-1082.07"/>
<polygon fill="#528b8b" stroke="#528b8b" stroke-width="2" points="448.16,-1085.57 458.16,-1082.07 448.16,-1078.57 448.16,-1085.57"/>
</g>
<!-- src/crypto/keypair.ts&#45;&gt;src/core&#45;validators/addresses.ts -->
<g id="edge12" class="edge">
<title>src/crypto/keypair.ts&#45;&gt;src/core&#45;validators/addresses.ts</title>
<path fill="none" stroke="#528b8b" stroke-width="2" d="M507.11,-1063.91C523.56,-1035.43 555.78,-978.33 579.5,-928.07 597.32,-890.3 587.81,-872.77 615,-841.07 623.32,-831.37 634.11,-823.09 645.06,-816.27"/>
<polygon fill="#528b8b" stroke="#528b8b" stroke-width="2" points="646.98,-819.2 653.83,-811.12 643.44,-813.17 646.98,-819.2"/>
</g>
<!-- src/crypto/keypair.ts&#45;&gt;src/crypto/base32.ts -->
<g id="edge10" class="edge">
<title>src/crypto/keypair.ts&#45;&gt;src/crypto/base32.ts</title>
<path fill="none" stroke="#528b8b" stroke-width="2" d="M532.91,-1085.55C565.4,-1088.66 613.17,-1093.24 648.44,-1096.61"/>
<polygon fill="#528b8b" stroke="#528b8b" stroke-width="2" points="648.2,-1100.11 658.49,-1097.57 648.87,-1093.14 648.2,-1100.11"/>
</g>
<!-- src/crypto/keypair.ts&#45;&gt;src/crypto/crypto&#45;types.ts -->
<g id="edge11" class="edge">
<title>src/crypto/keypair.ts&#45;&gt;src/crypto/crypto&#45;types.ts</title>
<path fill="none" stroke="#528b8b" stroke-width="2" d="M532.78,-1100.19C547.75,-1108.28 564.95,-1118.38 579.5,-1129.07 613.69,-1154.18 648.69,-1188.33 671.06,-1211.45"/>
<polygon fill="#528b8b" stroke="#528b8b" stroke-width="2" points="668.7,-1214.05 678.15,-1218.84 673.75,-1209.2 668.7,-1214.05"/>
</g>
<!-- src/format&#45;validators/format&#45;validator&#45;es4.ts&#45;&gt;src/core&#45;validators/addresses.ts -->
<g id="edge24" class="edge">
<title>src/format&#45;validators/format&#45;validator&#45;es4.ts&#45;&gt;src/core&#45;validators/addresses.ts</title>
<path fill="none" stroke="#528b8b" stroke-width="2" d="M510.19,-665.41C530.41,-691.31 570.69,-738.5 615,-766.07 622.6,-770.79 631.12,-774.8 639.69,-778.16"/>
<polygon fill="#528b8b" stroke="#528b8b" stroke-width="2" points="638.75,-781.55 649.35,-781.69 641.15,-774.97 638.75,-781.55"/>
</g>
<!-- src/format&#45;validators/format&#45;validator&#45;es4.ts&#45;&gt;src/core&#45;validators/characters.ts -->
<g id="edge22" class="edge">
<title>src/format&#45;validators/format&#45;validator&#45;es4.ts&#45;&gt;src/core&#45;validators/characters.ts</title>
<path fill="none" stroke="#528b8b" stroke-width="2" d="M571.71,-664.26C586.08,-667.52 601,-670.91 615,-674.07 690.52,-691.11 714.47,-680.14 785,-712.07 801.56,-719.57 818.08,-731.13 831.3,-741.64"/>
<polygon fill="#528b8b" stroke="#528b8b" stroke-width="2" points="829.11,-744.37 839.07,-748 833.55,-738.96 829.11,-744.37"/>
</g>
<!-- src/format&#45;validators/format&#45;validator&#45;es4.ts&#45;&gt;src/core&#45;validators/checkers.ts -->
<g id="edge23" class="edge">
<title>src/format&#45;validators/format&#45;validator&#45;es4.ts&#45;&gt;src/core&#45;validators/checkers.ts</title>
<path fill="none" stroke="#528b8b" stroke-width="2" d="M535.72,-665.25C567.53,-679.99 612.51,-700.84 646.57,-716.62"/>
<polygon fill="#528b8b" stroke="#528b8b" stroke-width="2" points="645.32,-719.9 655.86,-720.93 648.26,-713.55 645.32,-719.9"/>
</g>
<!-- src/format&#45;validators/format&#45;validator&#45;es4.ts&#45;&gt;src/crypto/crypto&#45;types.ts -->
<g id="edge21" class="edge">
<title>src/format&#45;validators/format&#45;validator&#45;es4.ts&#45;&gt;src/crypto/crypto&#45;types.ts</title>
<path fill="none" stroke="#528b8b" stroke-width="2" d="M498.41,-665.39C505.77,-730.95 535.96,-959.01 615,-1128.07 629.48,-1159.04 653.38,-1190.06 671.3,-1211.04"/>
<polygon fill="#528b8b" stroke="#528b8b" stroke-width="2" points="668.88,-1213.59 678.08,-1218.84 674.16,-1209 668.88,-1213.59"/>
</g>
<!-- src/format&#45;validators/format&#45;validator&#45;types.ts -->
<g id="node13" class="node">
<title>src/format&#45;validators/format&#45;validator&#45;types.ts</title>
<path fill="#79cdcd" stroke="#79cdcd" d="M765,-665.07C765,-665.07 627,-665.07 627,-665.07 621,-665.07 615,-659.07 615,-653.07 615,-653.07 615,-641.07 615,-641.07 615,-635.07 621,-629.07 627,-629.07 627,-629.07 765,-629.07 765,-629.07 771,-629.07 777,-635.07 777,-641.07 777,-641.07 777,-653.07 777,-653.07 777,-659.07 771,-665.07 765,-665.07"/>
<text text-anchor="middle" x="696" y="-643.37" font-family="Helvetica,sans-Serif" font-size="14.00">format&#45;validator&#45;types.ts</text>
</g>
<!-- src/format&#45;validators/format&#45;validator&#45;es4.ts&#45;&gt;src/format&#45;validators/format&#45;validator&#45;types.ts -->
<g id="edge20" class="edge">
<title>src/format&#45;validators/format&#45;validator&#45;es4.ts&#45;&gt;src/format&#45;validators/format&#45;validator&#45;types.ts</title>
<path fill="none" stroke="#528b8b" stroke-width="2" d="M571.54,-647.07C582.39,-647.07 593.64,-647.07 604.74,-647.07"/>
<polygon fill="#528b8b" stroke="#528b8b" stroke-width="2" points="604.88,-650.57 614.88,-647.07 604.88,-643.57 604.88,-650.57"/>
</g>
<!-- src/format&#45;validators/format&#45;validator&#45;types.ts&#45;&gt;src/crypto/crypto&#45;types.ts -->
<g id="edge25" class="edge">
<title>src/format&#45;validators/format&#45;validator&#45;types.ts&#45;&gt;src/crypto/crypto&#45;types.ts</title>
<path fill="none" stroke="#528b8b" stroke-width="2" d="M654.86,-665.08C633.5,-676.82 609.39,-694.39 597.25,-718.07 576.92,-757.72 582.04,-1077.19 597.25,-1119.07 610.85,-1156.52 642.12,-1190.38 665.86,-1212.13"/>
<polygon fill="#528b8b" stroke="#528b8b" stroke-width="2" points="663.79,-1214.97 673.58,-1219.02 668.45,-1209.75 663.79,-1214.97"/>
</g>
<!-- src/peer/peer&#45;client.ts -->
<g id="node14" class="node">
<title>src/peer/peer&#45;client.ts</title>
<path fill="#79cdcd" stroke="#79cdcd" d="M307,-1439.07C307,-1439.07 237,-1439.07 237,-1439.07 231,-1439.07 225,-1433.07 225,-1427.07 225,-1427.07 225,-1415.07 225,-1415.07 225,-1409.07 231,-1403.07 237,-1403.07 237,-1403.07 307,-1403.07 307,-1403.07 313,-1403.07 319,-1409.07 319,-1415.07 319,-1415.07 319,-1427.07 319,-1427.07 319,-1433.07 313,-1439.07 307,-1439.07"/>
<text text-anchor="middle" x="272" y="-1417.37" font-family="Helvetica,sans-Serif" font-size="14.00">peer&#45;client.ts</text>
</g>
<!-- src/peer/peer&#45;client.ts&#45;&gt;src/core&#45;validators/characters.ts -->
<g id="edge30" class="edge">
<title>src/peer/peer&#45;client.ts&#45;&gt;src/core&#45;validators/characters.ts</title>
<path fill="none" stroke="#528b8b" stroke-width="2" d="M319.15,-1422.73C339.16,-1425.82 361.31,-1432.83 376,-1448.07 426.25,-1500.2 355,-1561.79 411.5,-1607.07 469.77,-1653.76 512.6,-1640.22 579.5,-1607.07 714.62,-1540.1 729.3,-1477.21 785,-1337.07 828.42,-1227.83 798.09,-1190.67 813,-1074.07 826.21,-970.71 845.6,-848.42 854.38,-794.28"/>
<polygon fill="#528b8b" stroke="#528b8b" stroke-width="2" points="857.89,-794.52 856.04,-784.08 850.98,-793.39 857.89,-794.52"/>
</g>
<!-- src/peer/peer&#45;client.ts&#45;&gt;src/crypto/crypto&#45;types.ts -->
<g id="edge26" class="edge">
<title>src/peer/peer&#45;client.ts&#45;&gt;src/crypto/crypto&#45;types.ts</title>
<path fill="none" stroke="#528b8b" stroke-width="2" d="M319.08,-1423.1C338.94,-1426.28 361.01,-1433.26 376,-1448.07 418.3,-1489.86 364.2,-1541.03 411.5,-1577.07 470.89,-1622.32 518.8,-1620.55 579.5,-1577.07 682.23,-1503.47 694.69,-1333.24 695.42,-1265.56"/>
<polygon fill="#528b8b" stroke="#528b8b" stroke-width="2" points="698.92,-1265.26 695.45,-1255.25 691.92,-1265.24 698.92,-1265.26"/>
</g>
<!-- src/peer/peer&#45;types.ts -->
<g id="node16" class="node">
<title>src/peer/peer&#45;types.ts</title>
<path fill="#79cdcd" stroke="#79cdcd" d="M531,-1385.07C531,-1385.07 460,-1385.07 460,-1385.07 454,-1385.07 448,-1379.07 448,-1373.07 448,-1373.07 448,-1361.07 448,-1361.07 448,-1355.07 454,-1349.07 460,-1349.07 460,-1349.07 531,-1349.07 531,-1349.07 537,-1349.07 543,-1355.07 543,-1361.07 543,-1361.07 543,-1373.07 543,-1373.07 543,-1379.07 537,-1385.07 531,-1385.07"/>
<text text-anchor="middle" x="495.5" y="-1363.37" font-family="Helvetica,sans-Serif" font-size="14.00">peer&#45;types.ts</text>
</g>
<!-- src/peer/peer&#45;client.ts&#45;&gt;src/peer/peer&#45;types.ts -->
<g id="edge28" class="edge">
<title>src/peer/peer&#45;client.ts&#45;&gt;src/peer/peer&#45;types.ts</title>
<path fill="none" stroke="#528b8b" stroke-width="2" d="M319.16,-1409.81C353.58,-1401.42 400.8,-1389.91 437.56,-1380.95"/>
<polygon fill="#528b8b" stroke="#528b8b" stroke-width="2" points="438.75,-1384.26 447.63,-1378.49 437.09,-1377.46 438.75,-1384.26"/>
</g>
<!-- src/storage/compare.ts -->
<g id="node22" class="node">
<title>src/storage/compare.ts</title>
<path fill="#79cdcd" stroke="#79cdcd" d="M525.5,-553.07C525.5,-553.07 465.5,-553.07 465.5,-553.07 459.5,-553.07 453.5,-547.07 453.5,-541.07 453.5,-541.07 453.5,-529.07 453.5,-529.07 453.5,-523.07 459.5,-517.07 465.5,-517.07 465.5,-517.07 525.5,-517.07 525.5,-517.07 531.5,-517.07 537.5,-523.07 537.5,-529.07 537.5,-529.07 537.5,-541.07 537.5,-541.07 537.5,-547.07 531.5,-553.07 525.5,-553.07"/>
<text text-anchor="middle" x="495.5" y="-531.37" font-family="Helvetica,sans-Serif" font-size="14.00">compare.ts</text>
</g>
<!-- src/peer/peer&#45;client.ts&#45;&gt;src/storage/compare.ts -->
<g id="edge29" class="edge">
<title>src/peer/peer&#45;client.ts&#45;&gt;src/storage/compare.ts</title>
<path fill="none" stroke="#528b8b" stroke-width="2" d="M319.09,-1420.71C339.72,-1417.97 362.4,-1410.89 376,-1394.07 430.35,-1326.87 376.37,-696.03 411.5,-617.07 421.78,-593.96 441.78,-573.88 459.57,-559.38"/>
<polygon fill="#528b8b" stroke="#528b8b" stroke-width="2" points="461.84,-562.05 467.55,-553.12 457.52,-556.54 461.84,-562.05"/>
</g>
<!-- src/storage/storage&#45;types.ts -->
<g id="node27" class="node">
<title>src/storage/storage&#45;types.ts</title>
<path fill="#79cdcd" stroke="#79cdcd" d="M540,-459.07C540,-459.07 451,-459.07 451,-459.07 445,-459.07 439,-453.07 439,-447.07 439,-447.07 439,-435.07 439,-435.07 439,-429.07 445,-423.07 451,-423.07 451,-423.07 540,-423.07 540,-423.07 546,-423.07 552,-429.07 552,-435.07 552,-435.07 552,-447.07 552,-447.07 552,-453.07 546,-459.07 540,-459.07"/>
<text text-anchor="middle" x="495.5" y="-437.37" font-family="Helvetica,sans-Serif" font-size="14.00">storage&#45;types.ts</text>
</g>
<!-- src/peer/peer&#45;client.ts&#45;&gt;src/storage/storage&#45;types.ts -->
<g id="edge27" class="edge">
<title>src/peer/peer&#45;client.ts&#45;&gt;src/storage/storage&#45;types.ts</title>
<path fill="none" stroke="#528b8b" stroke-width="2" d="M319.14,-1420.74C339.77,-1418.01 362.45,-1410.92 376,-1394.07 437.74,-1317.29 367.24,-596.09 411.5,-508.07 420.34,-490.48 436.16,-475.94 451.62,-464.96"/>
<polygon fill="#528b8b" stroke="#528b8b" stroke-width="2" points="453.8,-467.72 460.14,-459.23 449.89,-461.91 453.8,-467.72"/>
</g>
<!-- src/peer/peer&#45;server.ts -->
<g id="node15" class="node">
<title>src/peer/peer&#45;server.ts</title>
<path fill="#79cdcd" stroke="#79cdcd" d="M310,-1493.07C310,-1493.07 234,-1493.07 234,-1493.07 228,-1493.07 222,-1487.07 222,-1481.07 222,-1481.07 222,-1469.07 222,-1469.07 222,-1463.07 228,-1457.07 234,-1457.07 234,-1457.07 310,-1457.07 310,-1457.07 316,-1457.07 322,-1463.07 322,-1469.07 322,-1469.07 322,-1481.07 322,-1481.07 322,-1487.07 316,-1493.07 310,-1493.07"/>
<text text-anchor="middle" x="272" y="-1471.37" font-family="Helvetica,sans-Serif" font-size="14.00">peer&#45;server.ts</text>
</g>
<!-- src/peer/peer&#45;server.ts&#45;&gt;src/crypto/crypto&#45;types.ts -->
<g id="edge31" class="edge">
<title>src/peer/peer&#45;server.ts&#45;&gt;src/crypto/crypto&#45;types.ts</title>
<path fill="none" stroke="#528b8b" stroke-width="2" d="M284.85,-1493.15C306.01,-1523.55 353.52,-1583.87 411.5,-1607.07 480.82,-1634.81 519.35,-1651.31 579.5,-1607.07 636.19,-1565.37 677.35,-1344.82 690.51,-1265.51"/>
<polygon fill="#528b8b" stroke="#528b8b" stroke-width="2" points="694.02,-1265.72 692.18,-1255.29 687.11,-1264.59 694.02,-1265.72"/>
</g>
<!-- src/peer/peer&#45;server.ts&#45;&gt;src/peer/peer&#45;types.ts -->
<g id="edge32" class="edge">
<title>src/peer/peer&#45;server.ts&#45;&gt;src/peer/peer&#45;types.ts</title>
<path fill="none" stroke="#528b8b" stroke-width="2" d="M322.13,-1465.82C339.59,-1461.6 359.1,-1455.78 376,-1448.07 408.51,-1433.24 441.78,-1409.61 464.76,-1391.69"/>
<polygon fill="#528b8b" stroke="#528b8b" stroke-width="2" points="467.07,-1394.33 472.74,-1385.37 462.72,-1388.84 467.07,-1394.33"/>
</g>
<!-- src/peer/peer&#45;types.ts&#45;&gt;src/crypto/crypto&#45;types.ts -->
<g id="edge34" class="edge">
<title>src/peer/peer&#45;types.ts&#45;&gt;src/crypto/crypto&#45;types.ts</title>
<path fill="none" stroke="#528b8b" stroke-width="2" d="M543.09,-1353.61C555.34,-1349.18 568.26,-1343.66 579.5,-1337.07 614.5,-1316.55 648.91,-1284.85 670.94,-1262.66"/>
<polygon fill="#528b8b" stroke="#528b8b" stroke-width="2" points="673.71,-1264.83 678.2,-1255.24 668.7,-1259.94 673.71,-1264.83"/>
</g>
<!-- src/peer/peer&#45;types.ts&#45;&gt;src/storage/storage&#45;types.ts -->
<g id="edge33" class="edge">
<title>src/peer/peer&#45;types.ts&#45;&gt;src/storage/storage&#45;types.ts</title>
<path fill="none" stroke="#528b8b" stroke-width="2" d="M447.8,-1361.61C427.2,-1356.53 405.23,-1346.77 393.75,-1328.07 370.17,-1289.68 373.56,-557.35 393.75,-517.07 405.12,-494.39 426.82,-476.74 447.27,-464.19"/>
<polygon fill="#528b8b" stroke="#528b8b" stroke-width="2" points="449.07,-467.19 455.93,-459.12 445.53,-461.15 449.07,-467.19"/>
</g>
<!-- src/peer/peer.ts&#45;&gt;src/peer/peer&#45;types.ts -->
<g id="edge36" class="edge">
<title>src/peer/peer.ts&#45;&gt;src/peer/peer&#45;types.ts</title>
<path fill="none" stroke="#528b8b" stroke-width="2" d="M301.05,-1367.07C335.22,-1367.07 393.77,-1367.07 437.53,-1367.07"/>
<polygon fill="#528b8b" stroke="#528b8b" stroke-width="2" points="437.75,-1370.57 447.75,-1367.07 437.75,-1363.57 437.75,-1370.57"/>
</g>
<!-- src/peer/peer.ts&#45;&gt;src/storage/storage&#45;types.ts -->
<g id="edge35" class="edge">
<title>src/peer/peer.ts&#45;&gt;src/storage/storage&#45;types.ts</title>
<path fill="none" stroke="#528b8b" stroke-width="2" d="M301.06,-1367.3C325.06,-1365.83 358.41,-1359.49 376,-1337.07 432.9,-1264.52 369.97,-590.38 411.5,-508.07 420.37,-490.49 436.18,-475.96 451.65,-464.97"/>
<polygon fill="#528b8b" stroke="#528b8b" stroke-width="2" points="453.82,-467.73 460.16,-459.24 449.91,-461.92 453.82,-467.73"/>
</g>
<!-- superbus&#45;map -->
<g id="node34" class="node">
<title>superbus&#45;map</title>
<polygon fill="#cdc8b1" stroke="#8b8878" points="547.5,-1568.07 447.5,-1568.07 443.5,-1564.07 443.5,-1532.07 543.5,-1532.07 547.5,-1536.07 547.5,-1568.07"/>
<polyline fill="none" stroke="#8b8878" points="543.5,-1564.07 443.5,-1564.07 "/>
<polyline fill="none" stroke="#8b8878" points="543.5,-1564.07 543.5,-1532.07 "/>
<polyline fill="none" stroke="#8b8878" points="543.5,-1564.07 547.5,-1568.07 "/>
<text text-anchor="middle" x="495.5" y="-1546.37" font-family="Helvetica,sans-Serif" font-size="14.00">superbus&#45;map</text>
</g>
<!-- src/peer/peer.ts&#45;&gt;superbus&#45;map -->
<g id="edge69" class="edge">
<title>src/peer/peer.ts&#45;&gt;superbus&#45;map</title>
<path fill="none" stroke="#8b8878" stroke-width="1.5" stroke-dasharray="5,2" d="M301.26,-1367.05C324.38,-1368.58 356.37,-1374.49 376,-1394.07 419.62,-1437.58 367.94,-1484.5 411.5,-1528.07 417.64,-1534.21 425.27,-1538.69 433.41,-1541.95"/>
<polygon fill="#8b8878" stroke="#8b8878" stroke-width="1.5" points="432.54,-1545.36 443.14,-1545.25 434.79,-1538.73 432.54,-1545.36"/>
</g>
<!-- src/query&#45;follower/query&#45;follower&#45;types.ts -->
<g id="node18" class="node">
<title>src/query&#45;follower/query&#45;follower&#45;types.ts</title>
<path fill="#79cdcd" stroke="#79cdcd" d="M559.5,-253.07C559.5,-253.07 431.5,-253.07 431.5,-253.07 425.5,-253.07 419.5,-247.07 419.5,-241.07 419.5,-241.07 419.5,-229.07 419.5,-229.07 419.5,-223.07 425.5,-217.07 431.5,-217.07 431.5,-217.07 559.5,-217.07 559.5,-217.07 565.5,-217.07 571.5,-223.07 571.5,-229.07 571.5,-229.07 571.5,-241.07 571.5,-241.07 571.5,-247.07 565.5,-253.07 559.5,-253.07"/>
<text text-anchor="middle" x="495.5" y="-231.37" font-family="Helvetica,sans-Serif" font-size="14.00">query&#45;follower&#45;types.ts</text>
</g>
<!-- src/query&#45;follower/query&#45;follower&#45;types.ts&#45;&gt;src/storage/storage&#45;types.ts -->
<g id="edge37" class="edge">
<title>src/query&#45;follower/query&#45;follower&#45;types.ts&#45;&gt;src/storage/storage&#45;types.ts</title>
<path fill="none" stroke="#528b8b" stroke-width="2" d="M495.5,-253.17C495.5,-306.27 495.5,-359.36 495.5,-412.45"/>
<polygon fill="#528b8b" stroke="#528b8b" stroke-width="2" points="492,-412.72 495.5,-422.72 499,-412.72 492,-412.72"/>
</g>
<!-- superbus -->
<g id="node35" class="node">
<title>superbus</title>
<polygon fill="#cdc8b1" stroke="#8b8878" points="732,-330.07 664,-330.07 660,-326.07 660,-294.07 728,-294.07 732,-298.07 732,-330.07"/>
<polyline fill="none" stroke="#8b8878" points="728,-326.07 660,-326.07 "/>
<polyline fill="none" stroke="#8b8878" points="728,-326.07 728,-294.07 "/>
<polyline fill="none" stroke="#8b8878" points="728,-326.07 732,-330.07 "/>
<text text-anchor="middle" x="696" y="-308.37" font-family="Helvetica,sans-Serif" font-size="14.00">superbus</text>
</g>
<!-- src/query&#45;follower/query&#45;follower&#45;types.ts&#45;&gt;superbus -->
<g id="edge70" class="edge">
<title>src/query&#45;follower/query&#45;follower&#45;types.ts&#45;&gt;superbus</title>
<path fill="none" stroke="#8b8878" stroke-width="1.5" stroke-dasharray="5,2" d="M543.48,-253.15C555.24,-257.68 567.84,-262.55 579.5,-267.07 602.9,-276.14 628.96,-286.29 650.39,-294.65"/>
<polygon fill="#8b8878" stroke="#8b8878" stroke-width="1.5" points="649.29,-297.98 659.88,-298.35 651.84,-291.45 649.29,-297.98"/>
</g>
<!-- src/query&#45;follower/query&#45;follower.ts&#45;&gt;src/query&#45;follower/query&#45;follower&#45;types.ts -->
<g id="edge42" class="edge">
<title>src/query&#45;follower/query&#45;follower.ts&#45;&gt;src/query&#45;follower/query&#45;follower&#45;types.ts</title>
<path fill="none" stroke="#528b8b" stroke-width="2" d="M330.04,-235.07C354.14,-235.07 382.71,-235.07 409.22,-235.07"/>
<polygon fill="#528b8b" stroke="#528b8b" stroke-width="2" points="409.27,-238.57 419.27,-235.07 409.27,-231.57 409.27,-238.57"/>
</g>
<!-- src/query/query&#45;types.ts -->
<g id="node20" class="node">
<title>src/query/query&#45;types.ts</title>
<path fill="#79cdcd" stroke="#79cdcd" d="M734.5,-140.07C734.5,-140.07 657.5,-140.07 657.5,-140.07 651.5,-140.07 645.5,-134.07 645.5,-128.07 645.5,-128.07 645.5,-116.07 645.5,-116.07 645.5,-110.07 651.5,-104.07 657.5,-104.07 657.5,-104.07 734.5,-104.07 734.5,-104.07 740.5,-104.07 746.5,-110.07 746.5,-116.07 746.5,-116.07 746.5,-128.07 746.5,-128.07 746.5,-134.07 740.5,-140.07 734.5,-140.07"/>
<text text-anchor="middle" x="696" y="-118.37" font-family="Helvetica,sans-Serif" font-size="14.00">query&#45;types.ts</text>
</g>
<!-- src/query&#45;follower/query&#45;follower.ts&#45;&gt;src/query/query&#45;types.ts -->
<g id="edge39" class="edge">
<title>src/query&#45;follower/query&#45;follower.ts&#45;&gt;src/query/query&#45;types.ts</title>
<path fill="none" stroke="#528b8b" stroke-width="2" d="M330.23,-230.53C346.74,-226.66 363.62,-219.87 376,-208.07 414.11,-171.75 369.06,-126.22 411.5,-95.07 480.92,-44.11 587.12,-75 647.91,-99.94"/>
<polygon fill="#528b8b" stroke="#528b8b" stroke-width="2" points="646.69,-103.23 657.26,-103.88 649.41,-96.77 646.69,-103.23"/>
</g>
<!-- src/query/query.ts -->
<g id="node21" class="node">
<title>src/query/query.ts</title>
<path fill="#79cdcd" stroke="#79cdcd" d="M515.5,-140.07C515.5,-140.07 475.5,-140.07 475.5,-140.07 469.5,-140.07 463.5,-134.07 463.5,-128.07 463.5,-128.07 463.5,-116.07 463.5,-116.07 463.5,-110.07 469.5,-104.07 475.5,-104.07 475.5,-104.07 515.5,-104.07 515.5,-104.07 521.5,-104.07 527.5,-110.07 527.5,-116.07 527.5,-116.07 527.5,-128.07 527.5,-128.07 527.5,-134.07 521.5,-140.07 515.5,-140.07"/>
<text text-anchor="middle" x="495.5" y="-118.37" font-family="Helvetica,sans-Serif" font-size="14.00">query.ts</text>
</g>
<!-- src/query&#45;follower/query&#45;follower.ts&#45;&gt;src/query/query.ts -->
<g id="edge41" class="edge">
<title>src/query&#45;follower/query&#45;follower.ts&#45;&gt;src/query/query.ts</title>
<path fill="none" stroke="#528b8b" stroke-width="2" d="M330.24,-225.36C345.68,-221.35 361.99,-215.77 376,-208.07 394.88,-197.69 394.46,-188.25 411.5,-175.07 424.92,-164.68 440.41,-154.38 454.35,-145.66"/>
<polygon fill="#528b8b" stroke="#528b8b" stroke-width="2" points="456.57,-148.41 463.25,-140.18 452.9,-142.45 456.57,-148.41"/>
</g>
<!-- src/query&#45;follower/query&#45;follower.ts&#45;&gt;src/storage/storage&#45;types.ts -->
<g id="edge40" class="edge">
<title>src/query&#45;follower/query&#45;follower.ts&#45;&gt;src/storage/storage&#45;types.ts</title>
<path fill="none" stroke="#528b8b" stroke-width="2" d="M292.66,-253.35C332.39,-290.3 422.32,-373.94 467.51,-415.97"/>
<polygon fill="#528b8b" stroke="#528b8b" stroke-width="2" points="465.18,-418.58 474.89,-422.83 469.95,-413.46 465.18,-418.58"/>
</g>
<!-- src/storage/util&#45;types.ts -->
<g id="node28" class="node">
<title>src/storage/util&#45;types.ts</title>
<path fill="#79cdcd" stroke="#79cdcd" d="M726.5,-534.07C726.5,-534.07 665.5,-534.07 665.5,-534.07 659.5,-534.07 653.5,-528.07 653.5,-522.07 653.5,-522.07 653.5,-510.07 653.5,-510.07 653.5,-504.07 659.5,-498.07 665.5,-498.07 665.5,-498.07 726.5,-498.07 726.5,-498.07 732.5,-498.07 738.5,-504.07 738.5,-510.07 738.5,-510.07 738.5,-522.07 738.5,-522.07 738.5,-528.07 732.5,-534.07 726.5,-534.07"/>
<text text-anchor="middle" x="696" y="-512.37" font-family="Helvetica,sans-Serif" font-size="14.00">util&#45;types.ts</text>
</g>
<!-- src/query&#45;follower/query&#45;follower.ts&#45;&gt;src/storage/util&#45;types.ts -->
<g id="edge38" class="edge">
<title>src/query&#45;follower/query&#45;follower.ts&#45;&gt;src/storage/util&#45;types.ts</title>
<path fill="none" stroke="#528b8b" stroke-width="2" d="M319.94,-253.07C384.91,-279.9 502.91,-335.76 579.5,-414.07 602.24,-437.32 591.29,-455.8 615,-478.07 623.41,-485.96 633.76,-492.5 644.19,-497.79"/>
<polygon fill="#528b8b" stroke="#528b8b" stroke-width="2" points="642.8,-501 653.34,-502.12 645.8,-494.67 642.8,-501"/>
</g>
<!-- src/query&#45;follower/query&#45;follower.ts&#45;&gt;superbus -->
<g id="edge71" class="edge">
<title>src/query&#45;follower/query&#45;follower.ts&#45;&gt;superbus</title>
<path fill="none" stroke="#8b8878" stroke-width="1.5" stroke-dasharray="5,2" d="M330.25,-221.34C355.07,-216.06 384.56,-210.67 411.5,-208.07 485.82,-200.89 509.79,-181.31 579.5,-208.07 619.79,-223.53 654.81,-260.26 675.43,-285.65"/>
<polygon fill="#8b8878" stroke="#8b8878" stroke-width="1.5" points="672.91,-288.11 681.85,-293.78 678.4,-283.77 672.91,-288.11"/>
</g>
<!-- src/query/query.ts&#45;&gt;src/query/query&#45;types.ts -->
<g id="edge43" class="edge">
<title>src/query/query.ts&#45;&gt;src/query/query&#45;types.ts</title>
<path fill="none" stroke="#528b8b" stroke-width="2" d="M527.52,-122.07C556.2,-122.07 599.61,-122.07 635.05,-122.07"/>
<polygon fill="#528b8b" stroke="#528b8b" stroke-width="2" points="635.29,-125.57 645.29,-122.07 635.29,-118.57 635.29,-125.57"/>
</g>
<!-- src/storage/compare.ts&#45;&gt;src/storage/util&#45;types.ts -->
<g id="edge44" class="edge">
<title>src/storage/compare.ts&#45;&gt;src/storage/util&#45;types.ts</title>
<path fill="none" stroke="#528b8b" stroke-width="2" d="M537.63,-531.13C568.16,-528.21 610.03,-524.2 642.91,-521.05"/>
<polygon fill="#528b8b" stroke="#528b8b" stroke-width="2" points="643.62,-524.5 653.24,-520.07 642.95,-517.53 643.62,-524.5"/>
</g>
<!-- src/storage/lock.ts -->
<g id="node23" class="node">
<title>src/storage/lock.ts</title>
<path fill="#79cdcd" stroke="#79cdcd" d="M711.5,-469.07C711.5,-469.07 680.5,-469.07 680.5,-469.07 674.5,-469.07 668.5,-463.07 668.5,-457.07 668.5,-457.07 668.5,-445.07 668.5,-445.07 668.5,-439.07 674.5,-433.07 680.5,-433.07 680.5,-433.07 711.5,-433.07 711.5,-433.07 717.5,-433.07 723.5,-439.07 723.5,-445.07 723.5,-445.07 723.5,-457.07 723.5,-457.07 723.5,-463.07 717.5,-469.07 711.5,-469.07"/>
<text text-anchor="middle" x="696" y="-447.37" font-family="Helvetica,sans-Serif" font-size="14.00">lock.ts</text>
</g>
<!-- src/storage/storage&#45;async.ts&#45;&gt;src/format&#45;validators/format&#45;validator&#45;types.ts -->
<g id="edge48" class="edge">
<title>src/storage/storage&#45;async.ts&#45;&gt;src/format&#45;validators/format&#45;validator&#45;types.ts</title>
<path fill="none" stroke="#528b8b" stroke-width="2" d="M330.35,-548.56C404.85,-568.69 535.15,-603.89 618.14,-626.31"/>
<polygon fill="#528b8b" stroke="#528b8b" stroke-width="2" points="617.46,-629.75 628.02,-628.98 619.28,-622.99 617.46,-629.75"/>
</g>
<!-- src/storage/storage&#45;async.ts&#45;&gt;src/query/query&#45;types.ts -->
<g id="edge46" class="edge">
<title>src/storage/storage&#45;async.ts&#45;&gt;src/query/query&#45;types.ts</title>
<path fill="none" stroke="#528b8b" stroke-width="2" d="M330.06,-528.4C346.76,-524.41 363.79,-517.36 376,-505.07 419.42,-461.36 367.63,-414.33 411.5,-371.07 466.3,-317.03 518.39,-375.86 579.5,-329.07 610.9,-305.03 660.25,-200.42 682.9,-149.76"/>
<polygon fill="#528b8b" stroke="#528b8b" stroke-width="2" points="686.2,-150.95 687.06,-140.39 679.81,-148.11 686.2,-150.95"/>
</g>
<!-- src/storage/storage&#45;async.ts&#45;&gt;src/storage/compare.ts -->
<g id="edge49" class="edge">
<title>src/storage/storage&#45;async.ts&#45;&gt;src/storage/compare.ts</title>
<path fill="none" stroke="#528b8b" stroke-width="2" d="M330.04,-533.58C365.01,-533.9 409.4,-534.3 443.24,-534.61"/>
<polygon fill="#528b8b" stroke="#528b8b" stroke-width="2" points="443.36,-538.11 453.39,-534.7 443.42,-531.11 443.36,-538.11"/>
</g>
<!-- src/storage/storage&#45;async.ts&#45;&gt;src/storage/storage&#45;types.ts -->
<g id="edge47" class="edge">
<title>src/storage/storage&#45;async.ts&#45;&gt;src/storage/storage&#45;types.ts</title>
<path fill="none" stroke="#528b8b" stroke-width="2" d="M330.17,-520.03C345.3,-515.91 361.46,-510.88 376,-505.07 403.98,-493.88 433.83,-477.74 456.56,-464.46"/>
<polygon fill="#528b8b" stroke="#528b8b" stroke-width="2" points="458.39,-467.45 465.22,-459.34 454.83,-461.42 458.39,-467.45"/>
</g>
<!-- src/storage/storage&#45;async.ts&#45;&gt;src/storage/util&#45;types.ts -->
<g id="edge45" class="edge">
<title>src/storage/storage&#45;async.ts&#45;&gt;src/storage/util&#45;types.ts</title>
<path fill="none" stroke="#528b8b" stroke-width="2" d="M330.23,-548.07C392.15,-562.09 493.54,-578.56 579.5,-562.07 603.86,-557.4 629.62,-547.65 650.61,-538.33"/>
<polygon fill="#528b8b" stroke="#528b8b" stroke-width="2" points="652.26,-541.43 659.9,-534.1 649.35,-535.06 652.26,-541.43"/>
</g>
<!-- src/storage/storage&#45;async.ts&#45;&gt;superbus -->
<g id="edge72" class="edge">
<title>src/storage/storage&#45;async.ts&#45;&gt;superbus</title>
<path fill="none" stroke="#8b8878" stroke-width="1.5" stroke-dasharray="5,2" d="M330.04,-527.35C346.45,-523.29 363.32,-516.47 376,-505.07 408.29,-476.05 379,-442.85 411.5,-414.07 469.2,-362.98 507.41,-398.32 579.5,-371.07 605.49,-361.25 633.25,-347.19 655.04,-335.26"/>
<polygon fill="#8b8878" stroke="#8b8878" stroke-width="1.5" points="656.95,-338.2 664,-330.29 653.55,-332.08 656.95,-338.2"/>
</g>
<!-- src/storage/storage&#45;cache.ts -->
<g id="node25" class="node">
<title>src/storage/storage&#45;cache.ts</title>
<path fill="#79cdcd" stroke="#79cdcd" d="M120,-459.07C120,-459.07 28,-459.07 28,-459.07 22,-459.07 16,-453.07 16,-447.07 16,-447.07 16,-435.07 16,-435.07 16,-429.07 22,-423.07 28,-423.07 28,-423.07 120,-423.07 120,-423.07 126,-423.07 132,-429.07 132,-435.07 132,-435.07 132,-447.07 132,-447.07 132,-453.07 126,-459.07 120,-459.07"/>
<text text-anchor="middle" x="74" y="-437.37" font-family="Helvetica,sans-Serif" font-size="14.00">storage&#45;cache.ts</text>
</g>
<!-- src/storage/storage&#45;cache.ts&#45;&gt;src/query&#45;follower/query&#45;follower.ts -->
<g id="edge51" class="edge">
<title>src/storage/storage&#45;cache.ts&#45;&gt;src/query&#45;follower/query&#45;follower.ts</title>
<path fill="none" stroke="#528b8b" stroke-width="2" d="M92.39,-422.79C127.41,-385.99 206.47,-302.89 246.62,-260.69"/>
<polygon fill="#528b8b" stroke="#528b8b" stroke-width="2" points="249.29,-262.97 253.65,-253.31 244.22,-258.14 249.29,-262.97"/>
</g>
<!-- src/storage/storage&#45;cache.ts&#45;&gt;src/query/query&#45;types.ts -->
<g id="edge52" class="edge">
<title>src/storage/storage&#45;cache.ts&#45;&gt;src/query/query&#45;types.ts</title>
<path fill="none" stroke="#528b8b" stroke-width="2" d="M76.56,-422.9C82.91,-353.56 109.36,-107.09 168,-61.07 311.88,51.84 401.9,-19.41 579.5,-63.07 608.13,-70.11 637.7,-85.38 659.75,-98.63"/>
<polygon fill="#528b8b" stroke="#528b8b" stroke-width="2" points="658.06,-101.7 668.41,-103.96 661.73,-95.74 658.06,-101.7"/>
</g>
<!-- src/storage/storage&#45;cache.ts&#45;&gt;src/query/query.ts -->
<g id="edge50" class="edge">
<title>src/storage/storage&#45;cache.ts&#45;&gt;src/query/query.ts</title>
<path fill="none" stroke="#528b8b" stroke-width="2" d="M77.08,-423C84.92,-358.4 114.97,-140.58 168,-100.07 252.13,-35.81 386.77,-76.75 453.81,-103.79"/>
<polygon fill="#528b8b" stroke="#528b8b" stroke-width="2" points="452.62,-107.09 463.2,-107.67 455.29,-100.62 452.62,-107.09"/>
</g>
<!-- src/storage/storage&#45;cache.ts&#45;&gt;src/storage/storage&#45;async.ts -->
<g id="edge53" class="edge">
<title>src/storage/storage&#45;cache.ts&#45;&gt;src/storage/storage&#45;async.ts</title>
<path fill="none" stroke="#528b8b" stroke-width="2" d="M96.64,-459.12C114.71,-473.38 141.68,-492.87 168,-505.07 179.34,-510.33 191.86,-514.76 204.15,-518.43"/>
<polygon fill="#528b8b" stroke="#528b8b" stroke-width="2" points="203.35,-521.84 213.92,-521.22 205.26,-515.11 203.35,-521.84"/>
</g>
<!-- src/storage/storage&#45;cache.ts&#45;&gt;src/storage/storage&#45;types.ts -->
<g id="edge54" class="edge">
<title>src/storage/storage&#45;cache.ts&#45;&gt;src/storage/storage&#45;types.ts</title>
<path fill="none" stroke="#528b8b" stroke-width="2" d="M132.01,-441.07C209.35,-441.07 347.2,-441.07 428.8,-441.07"/>
<polygon fill="#528b8b" stroke="#528b8b" stroke-width="2" points="428.95,-444.57 438.95,-441.07 428.95,-437.57 428.95,-444.57"/>
</g>
<!-- fast&#45;deep&#45;equal -->
<g id="node36" class="node">
<title>fast&#45;deep&#45;equal</title>
<polygon fill="#cdc8b1" stroke="#8b8878" points="327,-199.07 221,-199.07 217,-195.07 217,-163.07 323,-163.07 327,-167.07 327,-199.07"/>
<polyline fill="none" stroke="#8b8878" points="323,-195.07 217,-195.07 "/>
<polyline fill="none" stroke="#8b8878" points="323,-195.07 323,-163.07 "/>
<polyline fill="none" stroke="#8b8878" points="323,-195.07 327,-199.07 "/>
<text text-anchor="middle" x="272" y="-177.37" font-family="Helvetica,sans-Serif" font-size="14.00">fast&#45;deep&#45;equal</text>
</g>
<!-- src/storage/storage&#45;cache.ts&#45;&gt;fast&#45;deep&#45;equal -->
<g id="edge73" class="edge">
<title>src/storage/storage&#45;cache.ts&#45;&gt;fast&#45;deep&#45;equal</title>
<path fill="none" stroke="#8b8878" stroke-width="1.5" stroke-dasharray="5,2" d="M76.57,-422.75C81.41,-378.22 100.16,-263.63 168,-205.07 178.85,-195.7 192.66,-189.82 206.61,-186.16"/>
<polygon fill="#8b8878" stroke="#8b8878" stroke-width="1.5" points="207.77,-189.49 216.76,-183.87 206.23,-182.66 207.77,-189.49"/>
</g>
<!-- fast&#45;json&#45;stable&#45;stringify -->
<g id="node37" class="node">
<title>fast&#45;json&#45;stable&#45;stringify</title>
<polygon fill="#cdc8b1" stroke="#8b8878" points="351.5,-145.07 196.5,-145.07 192.5,-141.07 192.5,-109.07 347.5,-109.07 351.5,-113.07 351.5,-145.07"/>
<polyline fill="none" stroke="#8b8878" points="347.5,-141.07 192.5,-141.07 "/>
<polyline fill="none" stroke="#8b8878" points="347.5,-141.07 347.5,-109.07 "/>
<polyline fill="none" stroke="#8b8878" points="347.5,-141.07 351.5,-145.07 "/>
<text text-anchor="middle" x="272" y="-123.37" font-family="Helvetica,sans-Serif" font-size="14.00">fast&#45;json&#45;stable&#45;stringify</text>
</g>
<!-- src/storage/storage&#45;cache.ts&#45;&gt;fast&#45;json&#45;stable&#45;stringify -->
<g id="edge74" class="edge">
<title>src/storage/storage&#45;cache.ts&#45;&gt;fast&#45;json&#45;stable&#45;stringify</title>
<path fill="none" stroke="#8b8878" stroke-width="1.5" stroke-dasharray="5,2" d="M75.22,-422.84C76.85,-372.27 88.61,-229.06 168,-154.07 172.59,-149.74 177.78,-146.08 183.34,-143"/>
<polygon fill="#8b8878" stroke="#8b8878" stroke-width="1.5" points="184.88,-146.14 192.34,-138.6 181.81,-139.84 184.88,-146.14"/>
</g>
<!-- src/storage/storage&#45;driver&#45;async&#45;memory.ts&#45;&gt;src/query/query&#45;types.ts -->
<g id="edge56" class="edge">
<title>src/storage/storage&#45;driver&#45;async&#45;memory.ts&#45;&gt;src/query/query&#45;types.ts</title>
<path fill="none" stroke="#528b8b" stroke-width="2" d="M287.16,-459.63C310.22,-430.81 358.65,-375.07 411.5,-343.07 478.7,-302.37 516.47,-334.97 579.5,-288.07 629.28,-251.04 665.37,-186.03 682.95,-149.32"/>
<polygon fill="#528b8b" stroke="#528b8b" stroke-width="2" points="686.15,-150.74 687.21,-140.2 679.81,-147.77 686.15,-150.74"/>
</g>
<!-- src/storage/storage&#45;driver&#45;async&#45;memory.ts&#45;&gt;src/query/query.ts -->
<g id="edge59" class="edge">
<title>src/storage/storage&#45;driver&#45;async&#45;memory.ts&#45;&gt;src/query/query.ts</title>
<path fill="none" stroke="#528b8b" stroke-width="2" d="M283.51,-460.02C302.82,-426.6 344.8,-352.59 376,-288.07 393.47,-251.95 389.02,-238.3 411.5,-205.07 426.25,-183.26 447.26,-162.32 464.45,-146.93"/>
<polygon fill="#528b8b" stroke="#528b8b" stroke-width="2" points="466.83,-149.49 472.04,-140.27 462.21,-144.23 466.83,-149.49"/>
</g>
<!-- src/storage/storage&#45;driver&#45;async&#45;memory.ts&#45;&gt;src/storage/compare.ts -->
<g id="edge58" class="edge">
<title>src/storage/storage&#45;driver&#45;async&#45;memory.ts&#45;&gt;src/storage/compare.ts</title>
<path fill="none" stroke="#528b8b" stroke-width="2" d="M343.08,-496.1C375.65,-504.48 413.67,-514.27 443.46,-521.93"/>
<polygon fill="#528b8b" stroke="#528b8b" stroke-width="2" points="442.67,-525.35 453.23,-524.45 444.41,-518.57 442.67,-525.35"/>
</g>
<!-- src/storage/storage&#45;driver&#45;async&#45;memory.ts&#45;&gt;src/storage/lock.ts -->
<g id="edge60" class="edge">
<title>src/storage/storage&#45;driver&#45;async&#45;memory.ts&#45;&gt;src/storage/lock.ts</title>
<path fill="none" stroke="#528b8b" stroke-width="2" d="M376.04,-477.62C435.6,-476.63 511.89,-474.13 579.5,-468.07 606.11,-465.68 635.94,-461.25 658.62,-457.51"/>
<polygon fill="#528b8b" stroke="#528b8b" stroke-width="2" points="659.21,-460.95 668.49,-455.84 658.05,-454.05 659.21,-460.95"/>
</g>
<!-- src/storage/storage&#45;driver&#45;async&#45;memory.ts&#45;&gt;src/storage/storage&#45;types.ts -->
<g id="edge57" class="edge">
<title>src/storage/storage&#45;driver&#45;async&#45;memory.ts&#45;&gt;src/storage/storage&#45;types.ts</title>
<path fill="none" stroke="#528b8b" stroke-width="2" d="M376.29,-460.81C394.13,-457.83 412.23,-454.81 428.73,-452.06"/>
<polygon fill="#528b8b" stroke="#528b8b" stroke-width="2" points="429.49,-455.48 438.77,-450.38 428.33,-448.57 429.49,-455.48"/>
</g>
<!-- src/storage/storage&#45;driver&#45;async&#45;memory.ts&#45;&gt;src/storage/util&#45;types.ts -->
<g id="edge55" class="edge">
<title>src/storage/storage&#45;driver&#45;async&#45;memory.ts&#45;&gt;src/storage/util&#45;types.ts</title>
<path fill="none" stroke="#528b8b" stroke-width="2" d="M376.23,-487.36C460.77,-494.98 576.86,-505.43 643.09,-511.39"/>
<polygon fill="#528b8b" stroke="#528b8b" stroke-width="2" points="643.01,-514.9 653.28,-512.31 643.64,-507.93 643.01,-514.9"/>
</g>
<!-- src/storage/storage&#45;types.ts&#45;&gt;src/format&#45;validators/format&#45;validator&#45;types.ts -->
<g id="edge62" class="edge">
<title>src/storage/storage&#45;types.ts&#45;&gt;src/format&#45;validators/format&#45;validator&#45;types.ts</title>
<path fill="none" stroke="#528b8b" stroke-width="2" d="M526.51,-459.23C544.07,-471.19 565.48,-488.27 579.5,-508.07 606.76,-546.55 583.58,-572.9 615,-608.07 620.36,-614.06 626.84,-619.23 633.77,-623.66"/>
<polygon fill="#528b8b" stroke="#528b8b" stroke-width="2" points="632.34,-626.88 642.74,-628.89 635.86,-620.83 632.34,-626.88"/>
</g>
<!-- src/storage/storage&#45;types.ts&#45;&gt;src/query/query&#45;types.ts -->
<g id="edge61" class="edge">
<title>src/storage/storage&#45;types.ts&#45;&gt;src/query/query&#45;types.ts</title>
<path fill="none" stroke="#528b8b" stroke-width="2" d="M524.15,-422.99C541.9,-410.23 564.38,-391.77 579.5,-371.07 603.89,-337.68 597.99,-322.76 615,-285.07 636.74,-236.9 664.31,-181.91 680.76,-149.7"/>
<polygon fill="#528b8b" stroke="#528b8b" stroke-width="2" points="684.05,-150.96 685.49,-140.46 677.81,-147.77 684.05,-150.96"/>
</g>
<!-- src/storage/storage&#45;types.ts&#45;&gt;src/storage/lock.ts -->
<g id="edge63" class="edge">
<title>src/storage/storage&#45;types.ts&#45;&gt;src/storage/lock.ts</title>
<path fill="none" stroke="#528b8b" stroke-width="2" d="M552.06,-443.87C585.87,-445.57 628.13,-447.7 657.91,-449.2"/>
<polygon fill="#528b8b" stroke="#528b8b" stroke-width="2" points="658.11,-452.71 668.27,-449.72 658.46,-445.72 658.11,-452.71"/>
</g>
<!-- src/storage/storage&#45;types.ts&#45;&gt;superbus -->
<g id="edge75" class="edge">
<title>src/storage/storage&#45;types.ts&#45;&gt;superbus</title>
<path fill="none" stroke="#8b8878" stroke-width="1.5" stroke-dasharray="5,2" d="M551.29,-422.92C560.95,-418.89 570.72,-414.25 579.5,-409.07 613.59,-388.95 647.7,-358.76 669.91,-337.42"/>
<polygon fill="#8b8878" stroke="#8b8878" stroke-width="1.5" points="672.53,-339.75 677.25,-330.27 667.65,-334.74 672.53,-339.75"/>
</g>
</g>
</svg>
